<?xml version="1.0" encoding="utf-8"?>
<!-- Generator: Adobe Illustrator 23.0.6, SVG Export Plug-In . SVG Version: 6.00 Build 0)  -->
<svg version="1.1" id="Capa_1" xmlns="http://www.w3.org/2000/svg" xmlns:xlink="http://www.w3.org/1999/xlink" x="0px" y="0px"
	 viewBox="0 0 598.77 377.01" enable-background="new 0 0 598.77 377.01" xml:space="preserve">
<g>
	<path fill="#D68B62" d="M454.54,319c4.77-10.4-24.22-1.36-33.39,0.97c-42.52,10.8-85.58,17.49-127.99,17.83
		c-41.85,0.33-85.06-4.64-127.35-13.52c-10.49-2.19-37.1-6.57-36.88-3.48c1.81,24.91,111.02,56.48,164.23,56.21
		C346.27,376.73,434.55,362.56,454.54,319z"/>
	<path fill="#674234" d="M300.41,258.76c140.01,0.79,213.74-34.66,253.41-66.67c26.88-27.46,44.38-49.14,44.38-49.14
		C276.92-104.52,2.86,141.11,2.86,141.11c6.91,11.66,13.7,22.32,20.38,32.24C53.88,207.54,124.18,257.76,300.41,258.76z"/>
	<path fill="#FFFFFF" d="M300.65,30.68c-88.94,0-168.77,21.14-223.4,40.59c1.85-0.3,3.63-0.49,5.27-0.59l23.76,31.23
		c0,0,88.19,5.32,195.49,5.32c102.9,0,191.84-5.32,191.84-5.32l22.05-31.23C519.41,70.88,391.89,30.68,300.65,30.68z"/>
	<path fill="#D68B62" d="M299.37,48.11c52.33-0.07,108,2.27,161.65,20.86c48.95,16.97,96.23,49.02,137.74,73.97
		c-9.42-10.88-117.36-125.2-188.83-139.8c-41.6-8.5-78.39,2.9-110.57,2.9c-32.16-0.01-62.75-11.4-104.35-2.9
		C123.56,17.75,9.42,132.07,0,142.95c43.51-26.13,93.33-59.18,144.8-76.37C196.25,49.38,249.34,48.05,299.37,48.11z"/>
	<path fill="#AC5F4A" d="M461.02,50.53c-53.66-18.6-109.32-20.92-161.65-20.86c-50.03-0.06-103.12,1.27-154.57,18.46
		C93.34,65.32,43.51,116.81,0.01,142.95c-0.01,0-0.01,0-0.01,0c43.51-26.13,93.33-59.18,144.8-76.37
		c51.46-17.2,104.54-18.53,154.57-18.47c52.33-0.07,108,2.27,161.65,20.86c48.95,16.97,96.23,49.02,137.74,73.97l-0.01,0
		C557.24,118,509.97,67.49,461.02,50.53z"/>
	<path fill="#DF6958" d="M300.41,258.76C409,259.37,477.7,238.18,521.59,213.7c-29.4-23.28-73.29-38.12-122.42-38.18
		c-35.77-0.05-68.79,7.74-95.5,20.93c-26.66-13.26-59.68-21.13-95.44-21.18c-53.04-0.07-94.82,17.11-123.02,43.57
		C129.05,240.37,196.2,258.17,300.41,258.76z"/>
	<path fill="#FFFFFF" d="M300.41,258.76c118.07,0.67,189-24.44,232.12-51.52c-24.7,4.65-65.08,15.1-106.26,19.37
		c-21.55,2.24-71.16,6.27-120.75,6.27c-49.6,0-99.19-4.02-120.74-6.27c-51.85-5.38-99.72-18.13-117.11-17.26
		C110.44,234.88,181.18,258.08,300.41,258.76z"/>
</g>
</svg>
