<?xml version="1.0" encoding="utf-8"?>
<!-- Generator: Adobe Illustrator 23.0.6, SVG Export Plug-In . SVG Version: 6.00 Build 0)  -->
<svg version="1.1" id="Capa_1" xmlns="http://www.w3.org/2000/svg" xmlns:xlink="http://www.w3.org/1999/xlink" x="0px" y="0px"
	 viewBox="0 0 554.54 154.86" enable-background="new 0 0 554.54 154.86" xml:space="preserve">
<g>
	<path fill="#CD3D3C" d="M429.7,57.17c-4.4-2.12-23.41-1.02-27.68-1.52c-7.02-0.83-19.15,1.86-26.76,1.84
		c-38.12-0.19-80.61,4.23-97.09,7.87c-0.01,0.12-60.43-8.05-98.54-7.87c-7.61,0.02-17.97-1.91-25-1.08
		c-4.27,0.51-38.37,2.46-42.77,4.58C12.09,109.01-6.29,92.94,3.06,95.19c31.9,7.65,29.85,0.74,51.75,14.51
		c15.05,9.47,38.24,21.09,50.52,27.69c52.02,27.95,106.32,13.37,167.4,15.7c1.53,0.11,7.91,0.11,9.44,0
		c55.6-2.12,106.16,9.77,153.43-9.18c16.91-6.76,44.2-20.54,64.5-34.21c20.45-13.78,14.27-6.78,46.18-14.41
		C555.62,93.04,547.1,113.58,429.7,57.17z"/>
	<path fill="#CD3D3C" d="M519.11,83.61C475.68,60.39,439.1,8.43,389.76,1.78c-37.45-5.04-76.61,0.86-112.48,14.88
		C240.03,2.81,199.49-3.18,160.84,2.31c-48.05,6.82-83.09,58.64-125.4,81.29C10.17,97.12,0,88.8,0,88.8s1.21,8.18,6.47,9.93
		c40.21,13.46,82.56-33.24,120.53-42c47.41-10.94,99.38,3.07,148.25,7.29c0.33,0.09,3.73,0.09,4.05,0
		c48.86-4.25,100.84-18.21,148.26-7.26c38,8.76,80.29,55.42,120.53,41.99c5.25-1.75,6.45-9.94,6.45-9.94S544.41,97.12,519.11,83.61z
		"/>
	<path fill="#B73535" d="M525.55,91.74c-32.93-13.24-63.02-38.76-98-43.46c-48.09-6.47-98.56,2.75-148.26,6.4
		c-0.32,0.08-3.73,0.08-4.05,0c-49.69-3.65-100.16-12.88-148.25-6.4c-34.85,4.7-64.88,29.95-97.63,43.32
		c-3.42,1.4-9.32,3.92-13.79,5.1c-6.36,1.67-10.76,1.91-9.11,2.32C47.45,109.3,88.4,69.76,127,62.07
		c47.54-9.47,99.37,2.69,148.25,6.41c0.33,0.08,3.73,0.08,4.05,0c48.87-3.71,100.77-15.98,148.26-6.4
		c38.25,7.7,79.97,48.13,120.53,36.95c1.33-0.37-3.2-0.49-8.94-2.02C534.58,95.78,529.16,93.2,525.55,91.74z"/>
</g>
</svg>
