<?xml version="1.0" encoding="utf-8"?>
<!-- Generator: Adobe Illustrator 23.0.6, SVG Export Plug-In . SVG Version: 6.00 Build 0)  -->
<svg version="1.1" id="Capa_1" xmlns="http://www.w3.org/2000/svg" xmlns:xlink="http://www.w3.org/1999/xlink" x="0px" y="0px"
	 viewBox="0 0 753.78 312.44" style="enable-background:new 0 0 753.78 312.44;" xml:space="preserve">
<style type="text/css">
	.st0{fill:#674234;}
	.st1{fill:#563930;}
	.st2{fill-rule:evenodd;clip-rule:evenodd;fill:#674234;}
	.st3{fill:#FFFFFF;}
	.st4{fill:#D68B62;}
	.st5{fill:#AC5F4A;}
	.st6{fill-rule:evenodd;clip-rule:evenodd;fill:#FFFFFF;}
	.st7{fill:#DF6958;}
	.st8{fill:#37333D;}
	.st9{fill:#CD3D3C;}
	.st10{fill-rule:evenodd;clip-rule:evenodd;fill:#DA4D4B;}
	.st11{fill-rule:evenodd;clip-rule:evenodd;fill:#ED625F;}
	.st12{fill:#DA4D4B;}
	.st13{fill-rule:evenodd;clip-rule:evenodd;fill:#CD3D3C;}
	.st14{fill-rule:evenodd;clip-rule:evenodd;fill:#ED8173;}
	.st15{fill-rule:evenodd;clip-rule:evenodd;fill:#37333D;}
	.st16{fill:#ED625F;}
	.st17{fill:#ED8173;}
	.st18{fill:#B62D32;}
	.st19{fill-rule:evenodd;clip-rule:evenodd;fill:#B62D32;}
	.st20{fill:#CE5D51;}
	.st21{fill:#B73535;}
	.st22{fill:#D69062;}
</style>
<g>
	<path class="st3" d="M691.45,68.07c-63.12,141.76-188.62,221.62-314.13,222.04c-125.31,0.43-251.44-78.39-314.98-219.74
		c106.14,37.09,204.53,50.03,314.61,49.66C487.1,119.65,585.41,105.93,691.45,68.07z"/>
	<g>
		<path class="st8" d="M145.6,91.66c-2.55,13.64,7.12,48.97,12.34,64.75c4.92,6.52,22.22,12.93,27.35,19.19
			c-5.1,5.98-7.7,11.58-12.95,17.42c-29.2-20.14-89.57-71.54-108.77-106c-4.68-8.4-7.68-18.97-7.68-18.97
			C58.19,64.84,103.48,78.58,145.6,91.66z"/>
		<path class="st8" d="M605.22,89.37c2.55,13.64-7.25,55.84-12.36,70.04c-4.94,6.51-22.24,15.55-27.38,21.81
			c5.03,7.17,10.13,14.26,15.32,21.27c28.55-23.45,86.84-75.77,106.45-110.92c4.68-8.4,7.71-22.99,7.71-22.99
			C692.65,65.35,646.11,82.7,605.22,89.37z"/>
	</g>
	<path class="st9" d="M375.68,125.66c55.49,0.03,111.28-4.81,166.49-15.45c53.39-10.29,106.48-21.45,157.38-44.78
		c-9.37,1.86-30.26,3.71-55.76,5.33c-55.16,3.51-131.94-13.71-160.7-9.48c-35.47,5.2-71.44,13.89-107.41,13.9
		c-33.9,0.01-67.88-7.81-101.44-12.14c-28.71-3.72-101.29,12.91-156.83,9c-30.09-2.12-55.18-4.43-65.58-6.6
		c53.31,24.49,108.93,36.03,164.93,46.19C269.49,121.19,322.75,125.64,375.68,125.66z"/>
	<path class="st21" d="M542.16,102.39c-55.2,8.74-110.99,12.72-166.48,12.71c-52.93-0.02-106.19-3.67-158.92-11.54
		C161.4,95.3,106.42,85.9,53.65,66.23c52.76,23.92,107.75,35.34,163.11,45.38c52.73,9.58,105.99,14.02,158.92,14.04
		c55.49,0.03,111.28-4.81,166.49-15.45c52.76-10.17,105.21-21.21,155.57-43.97C647.38,84.95,594.92,94.03,542.16,102.39z"/>
	<path class="st9" d="M376.96,249.25C257.43,246.72,123.73,191.8,51.84,64.01C104.02,177.52,191.3,284.29,301.3,306.3
		c49.95,8.32,101.56,8.18,151.47-0.41c109.36-22.52,197.51-113.13,246.78-241.87c-15.73,29.06-30.58,54.94-52.64,77.8
		C572.33,219.08,471.34,251.23,376.96,249.25z"/>
	<g>
		<path class="st22" d="M29.14,29.93C36.6,20.8,53.68,6.04,63.55,0.64c5.93-3.26-50.31,5.45-60.99,36.39
			c-9.31,27.08,9.07,53.32,18.69,84.34c-5.22-38.99-5.29-48.61-3.4-67.03C18.82,44.92,23.9,36.33,29.14,29.93z"/>
		<path class="st22" d="M724.64,29.93c-7.46-9.12-24.54-23.89-34.4-29.28c-5.94-3.26,50.31,5.45,60.99,36.39
			c9.31,27.08-9.07,53.32-18.69,84.34c5.21-38.99,5.28-48.61,3.39-67.03C734.96,44.92,729.87,36.33,724.64,29.93z"/>
	</g>
</g>
</svg>
