<?xml version="1.0" encoding="utf-8"?>
<!-- Generator: Adobe Illustrator 23.0.6, SVG Export Plug-In . SVG Version: 6.00 Build 0)  -->
<svg version="1.1" id="Capa_1" xmlns="http://www.w3.org/2000/svg" xmlns:xlink="http://www.w3.org/1999/xlink" x="0px" y="0px"
	 viewBox="0 0 661.21 259.9" style="enable-background:new 0 0 661.21 259.9;" xml:space="preserve">
<style type="text/css">
	.st0{fill:#674234;}
	.st1{fill:#563930;}
	.st2{fill-rule:evenodd;clip-rule:evenodd;fill:#674234;}
	.st3{fill:#FFFFFF;}
	.st4{fill:#D68B62;}
	.st5{fill:#AC5F4A;}
	.st6{fill-rule:evenodd;clip-rule:evenodd;fill:#FFFFFF;}
	.st7{fill:#DF6958;}
	.st8{fill:#37333D;}
	.st9{fill:#CD3D3C;}
	.st10{fill-rule:evenodd;clip-rule:evenodd;fill:#DA4D4B;}
	.st11{fill-rule:evenodd;clip-rule:evenodd;fill:#ED625F;}
	.st12{fill:#DA4D4B;}
	.st13{fill-rule:evenodd;clip-rule:evenodd;fill:#CD3D3C;}
	.st14{fill-rule:evenodd;clip-rule:evenodd;fill:#ED8173;}
	.st15{fill-rule:evenodd;clip-rule:evenodd;fill:#37333D;}
	.st16{fill:#ED625F;}
	.st17{fill:#ED8173;}
	.st18{fill:#B62D32;}
	.st19{fill-rule:evenodd;clip-rule:evenodd;fill:#B62D32;}
	.st20{fill:#CE5D51;}
	.st21{fill:#B73535;}
	.st22{fill:#D69062;}
</style>
<path class="st15" d="M624.53,107.47c-63.25-37.36-67.88-50.82-155.93-95.64C433.43-6.07,364.54-5.61,330.6,26.85
	C296.67-5.61,227.78-6.07,192.62,11.83c-88.06,44.82-92.68,58.28-155.93,95.64c-12.14,7.17-24.46,14.1-36.68,21.02
	c31.77,32.99,72.95,59.94,112.93,78.43c43.57,20.14,86.8,36.01,131.19,43.43c4.18,0.7,44.25,9.12,85.23,9.55v0.02
	c0.42,0,0.83,0,1.25-0.01c0.42,0,0.83,0,1.25,0.01v-0.02c40.98-0.43,81.05-8.85,85.23-9.55c44.39-7.41,87.62-23.29,131.19-43.43
	c39.98-18.48,81.16-45.44,112.93-78.43C648.99,121.57,636.66,114.64,624.53,107.47z"/>
</svg>
