<?xml version="1.0" encoding="utf-8"?>
<!-- Generator: Adobe Illustrator 23.0.6, SVG Export Plug-In . SVG Version: 6.00 Build 0)  -->
<svg version="1.1" id="Capa_1" xmlns="http://www.w3.org/2000/svg" xmlns:xlink="http://www.w3.org/1999/xlink" x="0px" y="0px"
	 viewBox="0 0 767.82 264" enable-background="new 0 0 767.82 264" xml:space="preserve">
<g>
	<path fill="#674234" d="M555.07,256.16c22.55,19.06-74.45-2.62-166.3-2.62s-180.48,14.8-166.29,2.62
		c17.73-15.21,74.45-42.3,166.29-42.3S537.22,241.08,555.07,256.16z"/>
	<path fill="#674234" d="M714.18,45.21C673.16,42.29,580.76,0,514.49,0c-61.76,0-121.35,19.64-130.58,24.81
		C374.68,19.64,309.64,0,247.88,0C181.61,0,94.66,42.29,53.64,45.21C12.62,48.12,0,33.53,0,33.53s1.24,19.11,9.47,24.82
		c38.4,26.65,107.29-3.51,189.33-0.59c72.6,2.58,118.4,20.02,182.93,23.46c0.35,0.11,4.03,0.11,4.37,0
		c64.54-3.44,110.34-20.88,182.94-23.46c82.04-2.92,150.93,27.24,189.33,0.59c8.22-5.71,9.46-24.82,9.46-24.82
		S755.21,48.12,714.18,45.21z"/>
</g>
</svg>
