<?xml version="1.0" encoding="utf-8"?>
<!-- Generator: Adobe Illustrator 23.0.6, SVG Export Plug-In . SVG Version: 6.00 Build 0)  -->
<svg version="1.1" id="Capa_1" xmlns="http://www.w3.org/2000/svg" xmlns:xlink="http://www.w3.org/1999/xlink" x="0px" y="0px"
	 viewBox="0 0 598.77 364.93" style="enable-background:new 0 0 598.77 364.93;" xml:space="preserve">
<style type="text/css">
	.st0{fill:#674234;}
	.st1{fill:#563930;}
	.st2{fill-rule:evenodd;clip-rule:evenodd;fill:#674234;}
	.st3{fill:#FFFFFF;}
	.st4{fill:#D68B62;}
	.st5{fill:#AC5F4A;}
	.st6{fill-rule:evenodd;clip-rule:evenodd;fill:#FFFFFF;}
	.st7{fill:#DF6958;}
	.st8{fill:#37333D;}
	.st9{fill:#CD3D3C;}
	.st10{fill-rule:evenodd;clip-rule:evenodd;fill:#DA4D4B;}
	.st11{fill-rule:evenodd;clip-rule:evenodd;fill:#ED625F;}
	.st12{fill:#DA4D4B;}
	.st13{fill-rule:evenodd;clip-rule:evenodd;fill:#CD3D3C;}
	.st14{fill-rule:evenodd;clip-rule:evenodd;fill:#ED8173;}
	.st15{fill-rule:evenodd;clip-rule:evenodd;fill:#37333D;}
	.st16{fill:#ED625F;}
	.st17{fill:#ED8173;}
	.st18{fill:#B62D32;}
	.st19{fill-rule:evenodd;clip-rule:evenodd;fill:#B62D32;}
	.st20{fill:#CE5D51;}
	.st21{fill:#B73535;}
	.st22{fill:#D69062;}
</style>
<g>
	<path class="st0" d="M300.41,258.76c140.03,0.8,213.76-34.67,253.42-66.68c26.87-27.44,44.37-49.12,44.37-49.12
		C276.92-104.52,2.86,141.11,2.86,141.11c6.9,11.66,13.7,22.31,20.37,32.23C53.87,207.53,124.16,257.75,300.41,258.76z"/>
	<path class="st3" d="M300.64,22.24c-88.93,0-168.76,25.73-223.39,49.41c1.85-0.36,3.62-0.61,5.28-0.72l23.76,38.01
		c0,0,88.19,11.62,195.49,11.62c102.89,0,191.84-11.62,191.84-11.62l22.05-38C519.41,71.17,391.88,22.24,300.64,22.24z"/>
	<path class="st4" d="M299.37,48.11c52.33-0.06,107.99,2.26,161.65,20.86c48.95,16.97,96.23,49.03,137.74,73.98
		C589.35,132.07,481.4,17.75,409.94,3.16c-41.6-8.51-78.39,2.9-110.57,2.9c-32.16-0.01-62.75-11.4-104.35-2.9
		C123.56,17.75,9.41,132.07,0,142.95c43.5-26.13,93.33-59.18,144.8-76.37C196.25,49.38,249.34,48.05,299.37,48.11z"/>
	<path class="st5" d="M461.02,50.52C407.37,31.93,351.7,29.61,299.37,29.66c-50.03-0.06-103.12,1.28-154.57,18.47
		C93.33,65.31,43.51,116.8,0.01,142.94C0,142.94,0,142.95,0,142.95c43.5-26.13,93.33-59.18,144.8-76.37
		c51.45-17.2,104.54-18.53,154.57-18.47c52.33-0.06,107.99,2.26,161.65,20.86c48.95,16.97,96.23,49.03,137.74,73.98l-0.01-0.01
		C557.25,118,509.96,67.5,461.02,50.52z"/>
	<path class="st4" d="M358.39,332.12c-0.01,0.27-115.95,0.27-115.95,0c-37.28-3.25-69.09-10.02-98.39-24.46
		c-1.9,0.08-3.07,0.39-3.03,1.03c1.81,24.91,80.13,57.28,164.23,56.22c103.61-1.3,162.43-33.31,161.37-57.97
		C463.36,302.18,438.28,324.67,358.39,332.12z"/>
	<path class="st7" d="M399.17,200.84c-35.77-0.05-68.79,7.74-95.5,20.92c-26.66-13.26-59.68-21.13-95.45-21.17
		c-41.25-0.06-75.7,10.34-102.24,27.4c43.5,17.2,105.45,30.26,194.43,30.76c91.95,0.53,155.29-14.59,199.19-34.1
		C472.13,209.82,437.23,200.89,399.17,200.84z"/>
</g>
</svg>
