<?xml version="1.0" encoding="utf-8"?>
<!-- Generator: Adobe Illustrator 23.0.6, SVG Export Plug-In . SVG Version: 6.00 Build 0)  -->
<svg version="1.1" id="Capa_1" xmlns="http://www.w3.org/2000/svg" xmlns:xlink="http://www.w3.org/1999/xlink" x="0px" y="0px"
	 viewBox="0 0 586.78 253.33" style="enable-background:new 0 0 586.78 253.33;" xml:space="preserve">
<style type="text/css">
	.st0{fill:#674234;}
	.st1{fill:#563930;}
	.st2{fill-rule:evenodd;clip-rule:evenodd;fill:#674234;}
	.st3{fill:#FFFFFF;}
	.st4{fill:#D68B62;}
	.st5{fill:#AC5F4A;}
	.st6{fill-rule:evenodd;clip-rule:evenodd;fill:#FFFFFF;}
	.st7{fill:#DF6958;}
	.st8{fill:#37333D;}
	.st9{fill:#CD3D3C;}
	.st10{fill-rule:evenodd;clip-rule:evenodd;fill:#DA4D4B;}
	.st11{fill-rule:evenodd;clip-rule:evenodd;fill:#ED625F;}
	.st12{fill:#DA4D4B;}
	.st13{fill-rule:evenodd;clip-rule:evenodd;fill:#CD3D3C;}
	.st14{fill-rule:evenodd;clip-rule:evenodd;fill:#ED8173;}
	.st15{fill-rule:evenodd;clip-rule:evenodd;fill:#37333D;}
	.st16{fill:#ED625F;}
	.st17{fill:#ED8173;}
	.st18{fill:#B62D32;}
	.st19{fill-rule:evenodd;clip-rule:evenodd;fill:#B62D32;}
	.st20{fill:#CE5D51;}
	.st21{fill:#B73535;}
	.st22{fill:#D69062;}
</style>
<g>
	<path class="st8" d="M5.8,7.67c77.06,115.82,158.97,166.49,158.97,166.49s110.82,4.27,215.51,8.8
		C484.95,187.45,580.53,5.33,580.53,5.33C439.76,49.85,5.8,7.67,5.8,7.67z"/>
	<g>
		<path class="st6" d="M291.93,18.09L43.43,9.86c0,0,25.63,34.48,43.87,42.98c46.73,21.78,111.63,29.89,204.63,29.89
			c93,0,157.89-8.11,204.62-29.89c18.24-8.5,40.49-35.62,43.52-42.2C540.3,10.29,291.93,18.09,291.93,18.09z"/>
		<path class="st3" d="M396.03,140.76c-18.45,2.16-60.93,6.04-103.39,6.04c-42.46,0-84.92-3.88-103.39-6.04
			c-72.65-8.48-151.62-59.47-106.39-17.27c55.17,51.47,112.02,99.55,209.78,99.55c97.76,0,154.62-48.07,209.78-99.55
			C547.64,81.29,468.74,132.27,396.03,140.76z"/>
	</g>
	<g>
		<path class="st16" d="M581.43,5.48c-68.37,80.33-134.33,148.2-200.1,157.8c-16.7,2.43-49.86,10.43-88.26,10.43
			c-38.41,0-71.57-8-88.27-10.43C139.1,153.7,73.23,85.93,4.89,5.71C4.9,5.88-0.02,6.78,0.6,7.82
			c18.86,27.31,67.09,116.41,108,164.1c49.88,58.14,96.05,81.42,184.47,81.42c88.41,0,134.6-23.27,184.49-81.42
			c40.9-47.69,89.14-136.78,107.99-164.1C586.19,6.71,581.42,5.66,581.43,5.48z"/>
		<path class="st16" d="M569.93,5.71c-47.54,4.55-190.39-15.92-264.25,1.33c-2.11,0.5-7.57,1.69-12.29,2.45
			c-4.73-0.75-10.19-1.94-12.29-2.45C207.23-10.22,64.38,10.26,16.84,5.71C10.9,5.14-6.32,5.41,2.43,8.2
			C90.87,36.3,198.93,32.31,292.96,32.56h0.86C387.83,32.31,495.9,36.3,584.35,8.2C593.09,5.41,575.87,5.14,569.93,5.71z"/>
	</g>
</g>
</svg>
