<?xml version="1.0" encoding="utf-8"?>
<!-- Generator: Adobe Illustrator 23.0.6, SVG Export Plug-In . SVG Version: 6.00 Build 0)  -->
<svg version="1.1" id="Capa_1" xmlns="http://www.w3.org/2000/svg" xmlns:xlink="http://www.w3.org/1999/xlink" x="0px" y="0px"
	 viewBox="0 0 682.27 263.5" enable-background="new 0 0 682.27 263.5" xml:space="preserve">
<g>
	<path fill="#37333D" d="M137.84,53.75l-80.38-4.08c26.76,26.58,120.68,107.15,120.68,107.15s143.82,25.27,232.55,28.62
		c88.74,3.33,204.08-137.09,204.08-137.09C495.44,81.33,137.84,53.75,137.84,53.75z"/>
	<path fill-rule="evenodd" clip-rule="evenodd" fill="#FFFFFF" d="M136.26,63.5l66.41,33.48c0,0,69.28,17.41,134.09,17.64
		c76.66,0.28,125.05-17,125.05-17l69.97-32.73L136.26,63.5z"/>
	<path fill="#ED625F" d="M682.03,32.04C677.91,10,657.31,10.03,632.2,2.05c16.15,8.91,23.63,15.94,26.61,23.52
		c-7.25,4.91-20.68,13.32-42.33,15.07c-233.82-16.87-249.41,8.78-249.41,8.78l-22.72,7.32l-18.33-5.25
		c-67.52-28.51-213.47-8.17-259.79-10.21c-35.04-2.37-40.99-13.78-42.75-17.84C26.48,15.83,34,8.84,50.3,0
		C25.13,7.8,4.53,7.63,0.26,29.63c-3.33,17.1,26.96,38.43,26.55,56.17c0.53-22.68-3.9-37.24-4.85-48.66
		c11.11,4.25,22.48,7.92,34.08,11.06c17.56,20.23,86.25,129.88,106.35,146.77c58.74,49.67,114.68,83.42,233.51,61.93
		c128.69-23.28,191.98-176.9,217.82-205.41c-33.7,30.06-292.76,244.81-557.28-3.2c88.52,23.93,190.1,18.28,281.65,18.52
		c92.66,0.15,187.91,3.3,276.93-16.7c-0.41,0.42-0.86,0.88-1.3,1.37c0.6-0.53,1.13-1.02,1.59-1.43
		c15.23-3.44,30.28-7.54,45.11-12.46c-0.67,11.67-5.72,26.53-5.33,50.42C654.79,70.28,685.24,49.16,682.03,32.04z"/>
	<path fill="#FFFFFF" d="M323.75,199.03c-21.33-0.07-38.64,6.02-38.67,13.61c-0.03,7.59,17.24,13.81,38.57,13.89
		c21.32,0.07,38.63-6.02,38.66-13.61C362.34,205.33,345.08,199.1,323.75,199.03z"/>
</g>
</svg>
