<?xml version="1.0" encoding="utf-8"?>
<!-- Generator: Adobe Illustrator 23.0.6, SVG Export Plug-In . SVG Version: 6.00 Build 0)  -->
<svg version="1.1" id="Capa_1" xmlns="http://www.w3.org/2000/svg" xmlns:xlink="http://www.w3.org/1999/xlink" x="0px" y="0px"
	 viewBox="0 0 918.55 466" enable-background="new 0 0 918.55 466" xml:space="preserve">
<g>
	<path fill="#674234" d="M314.39,318.83c22.45,3.67,90.94,15.78,142.56,15.78c51.62,0,120.1-12.1,142.55-15.78
		c62.36-10.25,161.85-123.89,214.77-189.38c12.87-21.09,20.18-34.61,20.18-34.61c-202.33,53.3-757.56,3.78-757.56,3.78
		c1.24,2.34,2.48,4.57,3.72,6.88C124.37,161.61,243.48,307.18,314.39,318.83z"/>
	<path fill-rule="evenodd" clip-rule="evenodd" fill="#FFFFFF" d="M455.39,89.29l-280.64-2.04c0,0,11.02,41.46,33.09,53.18
		c56.53,30.04,135.03,30.97,247.55,30.97c112.51,0,191.02-0.94,247.55-30.97c22.06-11.72,29-43.04,32.67-52.1
		C735.88,87.85,455.39,89.29,455.39,89.29z"/>
	<path fill="#FFFFFF" d="M314.39,318.83c22.45,3.67,90.94,15.78,142.56,15.78c51.62,0,120.1-12.1,142.55-15.78
		c28.3-4.65,64.25-30.61,100.03-63.69c-29.75,13.46-67.54,28.89-104.19,34.27c-24.8,3.64-81.89,10.2-138.97,10.2
		c-57.08,0-114.15-6.56-138.97-10.2c-35.69-5.23-72.52-20.04-101.92-33.25C250.89,288.76,286.4,314.24,314.39,318.83z"/>
	<path fill="#D68B62" d="M829.1,95.77c-63.9,7.68-255.92-72.33-355.2-43.21c-2.84,0.84-10.18,2.86-16.52,4.12
		c-6.36-1.26-13.7-3.28-16.52-4.12c-99.3-29.12-291.32,50.89-355.22,43.21c-7.98-0.96-31.46-3.25-19.37-0.09
		c119.54,31.27,264.12-0.49,390.52-0.06h1.16c126.37-0.43,267.5,31.33,390.53,0.06C860.57,92.61,837.09,94.81,829.1,95.77z"/>
	<path fill="#D68B62" d="M595.26,420.79c6.16-13.3-65.35,12.98-133.56,13.11c-68.2-0.13-139.71-26.41-133.55-13.11
		c-0.62,0.74-0.42,1.73,0.81,3.06C343.05,439.02,388.09,466,461,466c0.24,0,0.46-0.01,0.71-0.01c0.24,0,0.47,0.01,0.71,0.01
		c72.91,0,117.95-26.99,132.03-42.15C595.68,422.52,595.88,421.54,595.26,420.79z"/>
	<g>
		<path fill="#D68B62" d="M35.24,42.18C44.27,29.32,64.92,8.52,76.85,0.9C84.03-3.68,16.01,8.59,3.1,52.2
			c-11.27,38.15,10.96,75.13,22.6,118.84c-6.3-54.94-6.39-68.5-4.11-94.45C22.76,63.31,28.91,51.2,35.24,42.18z"/>
		<path fill="#D68B62" d="M883.31,42.18C874.29,29.32,853.63,8.52,841.7,0.9c-7.17-4.58,60.85,7.69,73.76,51.3
			c11.27,38.15-10.96,75.13-22.6,118.85c6.3-54.94,6.39-68.5,4.11-94.46C895.8,63.31,889.65,51.2,883.31,42.18z"/>
	</g>
	<path fill="#AC5F4A" d="M457.96,80.43h-1.16C330.4,80,185.82,126.95,66.28,95.68c119.54,31.27,264.12-0.49,390.52-0.06h1.16
		c126.37-0.43,267.5,31.33,390.53,0.06C725.46,126.95,584.32,80,457.96,80.43z"/>
</g>
</svg>
