<?xml version="1.0" encoding="utf-8"?>
<!-- Generator: Adobe Illustrator 23.0.6, SVG Export Plug-In . SVG Version: 6.00 Build 0)  -->
<svg version="1.1" id="Capa_1" xmlns="http://www.w3.org/2000/svg" xmlns:xlink="http://www.w3.org/1999/xlink" x="0px" y="0px"
	 viewBox="0 0 776.17 322.74" style="enable-background:new 0 0 776.17 322.74;" xml:space="preserve">
<style type="text/css">
	.st0{fill:#674234;}
	.st1{fill:#563930;}
	.st2{fill-rule:evenodd;clip-rule:evenodd;fill:#674234;}
	.st3{fill:#FFFFFF;}
	.st4{fill:#D68B62;}
	.st5{fill:#AC5F4A;}
	.st6{fill-rule:evenodd;clip-rule:evenodd;fill:#FFFFFF;}
	.st7{fill:#DF6958;}
	.st8{fill:#37333D;}
	.st9{fill:#CD3D3C;}
	.st10{fill-rule:evenodd;clip-rule:evenodd;fill:#DA4D4B;}
	.st11{fill-rule:evenodd;clip-rule:evenodd;fill:#ED625F;}
	.st12{fill:#DA4D4B;}
	.st13{fill-rule:evenodd;clip-rule:evenodd;fill:#CD3D3C;}
	.st14{fill-rule:evenodd;clip-rule:evenodd;fill:#ED8173;}
	.st15{fill-rule:evenodd;clip-rule:evenodd;fill:#37333D;}
	.st16{fill:#ED625F;}
	.st17{fill:#ED8173;}
	.st18{fill:#B62D32;}
	.st19{fill-rule:evenodd;clip-rule:evenodd;fill:#B62D32;}
	.st20{fill:#CE5D51;}
	.st21{fill:#B73535;}
	.st22{fill:#D69062;}
</style>
<g>
	<path class="st4" d="M355.02,288.83c-51.12,0.08-103.4-2.65-155.02-7.57c-13.89-1.33-37.24-0.41-37.35,0.64
		c-1.4,13.17,133.83,40.86,192.38,40.85c58.52-0.01,177.67-7.99,191.36-40.95c2.95-7.11-29.41-3.41-43.11-1.8
		C453.98,285.78,403.97,288.75,355.02,288.83z"/>
	<g>
		<path class="st4" d="M663.09,107.07c-47.37,13.14-95.36,18.12-144.43,14.67c-55.11-3.88-109.35-7.51-164.97,1.14
			c-56.54-8.15-113.56-0.05-169.78,6.59c-46.28,5.45-93.54,6.11-139.81,0.39C16.09,126.38,0,117.02,0,117.02s1.46,7.68,8.64,11.15
			C51.71,149,98.82,160.99,144.9,166.15c66.83,7.5,137.7,2.32,206.68,4.68c0.51,0.09,5.81,0.14,6.31,0.07
			c69.03-1.18,141.23,7.48,206.52-3.84c50.89-8.82,95.76-32.4,133.9-68.62c6.96-6.6,7.97-19.83,7.97-19.83
			S690.89,99.36,663.09,107.07z"/>
		<path class="st5" d="M705.63,79.47c-0.86,3.61-2.95,9.75-7.44,13.19c-40.23,30.94-85.06,51.85-134.11,59.34
			c-65.51,9.99-137.51,1.71-206.54,2.92c-0.5,0.06-5.8,0.07-6.31,0.01c-68.95-1.08-139.52,5.47-206.6-0.08
			c-45.59-3.79-91.88-14.19-136.08-30.24c-4.61-1.68-6.91-5.06-7.88-7.14C0.22,117.18,0,117.02,0,117.02s1.46,7.68,8.64,11.15
			C51.71,149,98.82,160.99,144.9,166.15c66.83,7.5,137.7,2.32,206.68,4.68c0.51,0.09,5.81,0.14,6.31,0.07
			c69.03-1.18,141.23,7.48,206.52-3.84c50.89-8.82,95.76-32.4,133.9-68.62c6.96-6.6,7.97-19.83,7.97-19.83
			S706.07,78.93,705.63,79.47z"/>
	</g>
	<path class="st4" d="M738.22,36.18c-9.71-11.03-31.95-28.87-44.8-35.4c-7.72-3.94,65.5,6.6,79.4,44
		c12.13,32.72-11.8,64.43-24.33,101.93c6.78-47.12,6.88-58.75,4.42-81.01C751.67,54.3,745.04,43.91,738.22,36.18z"/>
</g>
</svg>
