<?xml version="1.0" encoding="utf-8"?>
<!-- Generator: Adobe Illustrator 23.0.6, SVG Export Plug-In . SVG Version: 6.00 Build 0)  -->
<svg version="1.1" id="Capa_1" xmlns="http://www.w3.org/2000/svg" xmlns:xlink="http://www.w3.org/1999/xlink" x="0px" y="0px"
	 viewBox="0 0 769.24 298.72" enable-background="new 0 0 769.24 298.72" xml:space="preserve">
<g>
	<path fill="#37333D" d="M635.67,28.57l56.21,2.72c-33.75,39.06-107.06,148.75-107.06,148.75s-181.41,37.15-293.34,42.07
		C179.56,227.01,77.37,27.36,77.37,27.36C227.89,75.83,635.67,28.57,635.67,28.57z"/>
	<g>
		<path fill-rule="evenodd" clip-rule="evenodd" fill="#FFFFFF" d="M644.51,37.24c0,0-25.11,57.1-45.49,66.83
			c-49.77,23.72-119.44,31.73-220.11,29.27c-119.07-2.92-158.79-15.41-204.1-40.18c-20.51-11.21-47.64-54.21-47.64-54.21
			L644.51,37.24z"/>
		<path fill="#FFFFFF" d="M274.63,176.17c19.74,2.36,65.15,6.59,110.56,6.59c45.4,0,90.8-4.23,110.54-6.59
			c77.68-9.23,162.12-64.73,113.75-18.79c-58.97,56.03-119.75,108.36-224.29,108.36c-104.52,0-165.32-52.33-224.3-108.36
			C112.53,111.43,196.89,166.93,274.63,176.17z"/>
	</g>
	<g>
		<path fill="#ED625F" d="M76.41,27.53c73.1,87.44,143.63,162.71,213.95,173.15c17.85,2.66,53.31,11.36,94.38,11.36
			c41.07,0,76.52-8.7,94.37-11.36c70.25-10.43,140.68-85.57,213.75-172.91c-0.01,0.18,5.24,2.56,4.58,3.68
			c-20.15,29.74-71.73,126.73-115.45,178.63c-53.34,63.3-102.71,88.63-197.25,88.63s-143.92-25.33-197.27-88.63
			C143.73,158.18,92.16,61.2,72,31.45C71.32,30.25,76.42,27.72,76.41,27.53z"/>
		<path fill="#ED625F" d="M46.4,25.9c58.14,6.83,232.86-44.45,323.18-18.52c2.57,0.73,9.25,2.54,15.04,3.65
			c5.78-1.11,12.46-2.91,15.03-3.65C490-18.56,664.7,32.73,722.85,25.9c7.26-0.85,21.7-5.11,46.39-12.23
			c-6.12,7.46-18.06,11.76-28.77,15.95C632.3,71.85,500.15,65.83,385.16,66.23h-1.06C269.1,65.83,136.94,71.85,28.77,29.62
			C18.08,25.43,6.14,21.13,0,13.67C24.71,20.79,39.14,25.04,46.4,25.9z"/>
	</g>
</g>
</svg>
