<?xml version="1.0" encoding="utf-8"?>
<!-- Generator: Adobe Illustrator 23.0.6, SVG Export Plug-In . SVG Version: 6.00 Build 0)  -->
<svg version="1.1" id="Capa_1" xmlns="http://www.w3.org/2000/svg" xmlns:xlink="http://www.w3.org/1999/xlink" x="0px" y="0px"
	 viewBox="0 0 633.1 116.56" enable-background="new 0 0 633.1 116.56" xml:space="preserve">
<g>
	<g>
		<path fill="#674234" d="M73.77,111.87c0,0-0.48,0.2-1.39,0.52c-0.91,0.31-2.25,0.78-3.97,1.24c-1.72,0.47-3.82,1.03-6.23,1.47
			c-1.21,0.24-2.5,0.45-3.85,0.66c-1.36,0.2-2.78,0.37-4.27,0.5c-2.97,0.27-6.19,0.37-9.55,0.22c-3.36-0.16-6.87-0.58-10.38-1.4
			c-1.75-0.41-3.52-0.89-5.24-1.52c-0.87-0.29-1.72-0.65-2.58-0.99c-0.84-0.38-1.7-0.74-2.52-1.18c-1.67-0.82-3.27-1.78-4.82-2.83
			c-1.54-1.07-3.01-2.23-4.4-3.5c-2.75-2.55-5.13-5.5-7.06-8.68c-0.49-0.79-0.93-1.62-1.38-2.42c-0.4-0.84-0.83-1.65-1.2-2.5
			C4.21,89.8,3.54,88.1,3,86.38c-1.1-3.44-1.85-6.89-2.3-10.22c-0.44-3.34-0.66-6.54-0.69-9.52c-0.02-1.49,0.02-2.93,0.04-4.28
			C0.13,61,0.21,59.7,0.28,58.48c0.11-1.22,0.2-2.36,0.31-3.41c0.13-1.06,0.26-2.03,0.38-2.9c0.06-0.45,0.11-0.85,0.17-1.24
			c0.06-0.38,0.13-0.75,0.18-1.09c0.12-0.68,0.22-1.26,0.3-1.73c0.17-0.93,0.27-1.43,0.27-1.43s0.01,0.49,0.03,1.41
			c0.02,0.92,0.01,2.27,0.07,3.97c0.02,0.85,0.04,1.79,0.08,2.82c0.07,1.02,0.1,2.12,0.16,3.29c0.09,1.16,0.18,2.4,0.28,3.71
			c0.16,1.29,0.25,2.65,0.44,4.06c0.09,0.7,0.19,1.41,0.28,2.14c0.09,0.73,0.23,1.46,0.36,2.2c0.12,0.74,0.24,1.5,0.41,2.26
			c0.16,0.75,0.29,1.53,0.48,2.29c0.68,3.09,1.62,6.24,2.81,9.36c1.21,3.11,2.7,6.17,4.54,9.02c1.86,2.83,4.02,5.49,6.53,7.78
			c2.49,2.31,5.29,4.28,8.27,5.88c2.98,1.61,6.15,2.84,9.34,3.78c1.59,0.48,3.21,0.83,4.8,1.19c1.6,0.32,3.19,0.58,4.75,0.79
			c3.13,0.41,6.16,0.61,8.98,0.67c2.83,0.06,5.46-0.01,7.8-0.14c2.34-0.15,4.41-0.33,6.11-0.52c1.7-0.21,3.04-0.37,3.96-0.53
			C73.28,111.96,73.77,111.87,73.77,111.87z"/>
		<path fill="#674234" d="M559.33,105.39c0,0,0.48,0.2,1.39,0.52c0.91,0.31,2.25,0.77,3.97,1.24c1.72,0.47,3.82,1.02,6.23,1.47
			c1.21,0.24,2.5,0.45,3.85,0.66c1.36,0.2,2.78,0.37,4.27,0.5c2.97,0.27,6.19,0.36,9.55,0.21c3.36-0.15,6.87-0.57,10.38-1.39
			c1.76-0.41,3.51-0.9,5.24-1.52c0.88-0.29,1.72-0.65,2.58-0.99c0.84-0.38,1.7-0.74,2.52-1.17c1.67-0.82,3.27-1.78,4.82-2.83
			c1.54-1.07,3.01-2.23,4.4-3.5c2.75-2.55,5.12-5.5,7.06-8.68c0.49-0.79,0.92-1.61,1.38-2.42c0.4-0.84,0.83-1.65,1.2-2.5
			c0.74-1.68,1.41-3.38,1.95-5.1c1.1-3.44,1.85-6.89,2.3-10.22c0.44-3.34,0.66-6.53,0.69-9.52c0.02-1.49-0.02-2.92-0.04-4.28
			c-0.08-1.37-0.16-2.66-0.23-3.88c-0.11-1.22-0.2-2.36-0.31-3.41c-0.13-1.06-0.26-2.03-0.37-2.9c-0.06-0.45-0.11-0.85-0.17-1.24
			c-0.06-0.39-0.13-0.76-0.18-1.1c-0.12-0.68-0.22-1.26-0.3-1.73c-0.17-0.94-0.27-1.44-0.27-1.44s-0.01,0.49-0.03,1.41
			c-0.02,0.91-0.01,2.27-0.07,3.97c-0.03,0.85-0.04,1.8-0.08,2.81c-0.07,1.02-0.1,2.12-0.16,3.29c-0.09,1.17-0.18,2.41-0.28,3.71
			c-0.16,1.29-0.25,2.66-0.44,4.06c-0.09,0.7-0.18,1.41-0.28,2.14c-0.09,0.73-0.24,1.46-0.36,2.2c-0.12,0.74-0.24,1.5-0.41,2.26
			c-0.16,0.76-0.29,1.53-0.48,2.3c-0.68,3.09-1.62,6.24-2.81,9.36c-1.21,3.11-2.7,6.18-4.54,9.02c-1.86,2.84-4.02,5.49-6.53,7.78
			c-2.49,2.31-5.28,4.28-8.27,5.88c-2.98,1.61-6.15,2.84-9.34,3.79c-1.59,0.48-3.21,0.84-4.79,1.19c-1.6,0.33-3.19,0.58-4.75,0.79
			c-3.13,0.41-6.16,0.61-8.99,0.67c-2.83,0.06-5.46,0-7.8-0.13c-2.34-0.15-4.4-0.33-6.1-0.52c-1.7-0.21-3.04-0.38-3.96-0.53
			C559.82,105.48,559.33,105.39,559.33,105.39z"/>
	</g>
	<path fill="#674234" d="M605.01,92.06c-1.55-1.1-3.45-2.46-5.69-4.07c-1.14-0.79-2.31-1.68-3.63-2.57
		c-1.35-0.89-2.79-1.84-4.33-2.84c-3.04-1.99-6.39-4.22-10.13-6.6c-3.77-2.36-8.02-4.84-12.49-7.53c-4.63-2.61-9.57-5.4-14.77-8.32
		c-5.44-2.8-11.08-5.82-17.25-8.8c-12.27-6-26.31-12.1-41.89-18.1c-15.6-5.95-33.03-11.59-51.98-16.54
		c-9.45-2.51-19.36-4.73-29.54-6.79c-5.11-1.03-10.35-1.91-15.56-2.88c-5.32-0.8-10.63-1.67-16.05-2.38
		c-21.64-2.9-44.33-4.52-67.09-4.63c-11.38-0.02-22.75,0.33-34,0.99c-11.23,0.71-22.37,1.73-33.2,3.14
		c-5.46,0.63-10.78,1.48-16.11,2.27c-5.24,0.91-10.52,1.73-15.62,2.76c-10.29,1.92-20.21,4.17-29.73,6.58
		c-19.1,4.81-36.56,10.44-52.3,16.32c-15.71,5.9-29.74,12.04-42,18.08c-6.14,3.02-11.84,6-17.14,8.9
		c-5.22,2.94-10.13,5.74-14.59,8.46c-9.01,5.36-16.19,10.36-21.98,14.49c-5.81,4.13-9.92,7.55-12.75,9.86
		c-2.79,2.34-4.13,3.63-4.13,3.63s1.85-1.09,5.39-3.08c3.51-2,8.84-4.83,15.64-8.38c6.85-3.54,15.38-7.71,25.31-12.33
		c9.98-4.61,21.54-9.58,34.49-14.68c12.92-5.11,27.34-10.29,43.06-15.25c7.87-2.45,16.04-4.87,24.55-7.16
		c8.55-2.21,17.27-4.49,26.39-6.44c18.17-3.97,37.44-7.33,57.39-9.54c19.94-2.25,40.53-3.41,61.12-3.3
		c20.6,0.01,41.13,1.46,61.02,3.78c19.9,2.37,39.08,5.87,57.16,9.96c18.06,4.16,35.12,8.84,50.76,13.88
		c3.97,1.22,7.72,2.56,11.52,3.8c3.82,1.23,7.45,2.55,11.03,3.84c3.56,1.3,7.18,2.51,10.56,3.82c3.4,1.31,6.73,2.59,10,3.84
		c6.58,2.5,12.57,5.12,18.52,7.46c5.76,2.48,11.23,4.83,16.37,7.03c5.03,2.28,9.68,4.47,14.12,6.41c4.35,2,8.26,3.89,11.85,5.57
		c7.2,3.36,12.65,6.13,16.47,7.96c3.83,1.84,5.87,2.82,5.87,2.82S608.05,94.29,605.01,92.06z"/>
</g>
</svg>
