<?xml version="1.0" encoding="utf-8"?>
<!-- Generator: Adobe Illustrator 23.0.6, SVG Export Plug-In . SVG Version: 6.00 Build 0)  -->
<svg version="1.1" id="Capa_1" xmlns="http://www.w3.org/2000/svg" xmlns:xlink="http://www.w3.org/1999/xlink" x="0px" y="0px"
	 viewBox="0 0 699.55 252.68" enable-background="new 0 0 699.55 252.68" xml:space="preserve">
<g>
	<path fill-rule="evenodd" clip-rule="evenodd" fill="#674234" d="M699.53,95.2c-3.57-21.17-6.68-57.9-26.74-95.2
		c1.88,13.38,0.73,19.51,0.97,28.19c0.11,3.61-8.07,11.15-10.92,10.55c-36.18-7.75-71.65-19.05-108.15-24.67
		c-47.39-7.29-116.93-17.42-152.5,4.99c-18.76,8.74-31.22,11.53-52.43,15.04c-20.6-3.18-33.65-6.3-52.41-15.04
		c-35.56-22.4-105.12-12.28-152.51-4.99c-36.5,5.62-71.96,16.93-108.15,24.67c-2.85,0.61-11.04-6.94-10.93-10.55
		c0.24-8.68-0.9-14.8,0.98-28.19C6.7,37.3,3.57,74.03,0.01,95.2c-0.38,2.21,6.68-22.66,15.02-35.5
		c34.84,21.82,66.26,41.51,97.68,61.2c0.94-1.26-17.1-17.6-24.95-26.2c-7.18-7.83-26.38-25.12-31.94-34.25
		c9.27-1.25,33.86,2.47,42.69,3.78c30.89,4.57,61.5,10.73,92.21,16.35c44.12,8.06,88.06,17.22,132.47,23.47
		c8.2,1.15,44.92,1.15,53.13,0c44.41-6.25,88.35-15.41,132.47-23.47c30.71-5.61,61.32-11.78,92.22-16.35
		c8.84-1.31,33.42-5.03,42.7-3.78c-5.56,9.13-24.77,26.41-31.94,34.25c-7.86,8.59-25.89,24.94-24.96,26.19
		c31.43-19.68,62.85-39.37,97.69-61.2C692.85,72.54,699.9,97.41,699.53,95.2z M508.9,61.56c-45.79,6.96-91.22,16.02-136.76,24.37
		c-7.53,1.39-37.2,1.39-44.73,0c-45.54-8.36-90.97-17.42-136.76-24.37c-48.88-7.43-98.14-12.77-148.67-15.2
		c13.74-3.95,27.36-8.33,41.26-11.74c14.5-3.56,29.11-7.48,43.92-8.96c40.97-4.07,82.23-10.48,123.07-8.96
		c24.46,0.91,48.2,15.45,72.6,22.89c7.29,2.21,15.18,2.94,22.99,3.41c0.69,0.23,7.22,0.23,7.9,0c7.82-0.47,15.71-1.2,22.98-3.41
		c24.41-7.44,48.15-21.98,72.61-22.89c40.85-1.52,82.1,4.89,123.08,8.96c14.81,1.48,29.42,5.4,43.92,8.96
		c13.9,3.41,27.51,7.79,41.26,11.75C607.03,48.78,557.78,54.13,508.9,61.56z"/>
	<path fill-rule="evenodd" clip-rule="evenodd" fill="#674234" d="M470.21,223.63c-41.82,8.89-78.09,10.67-117.06,13.46
		c-1.09,0.08-5.67,0.08-6.77,0c-38.96-2.8-75.24-4.57-117.06-13.46c-11.5-0.92-40.62-11.53-44.09-11.43
		c1.53,3.34,46.26,34.67,109.28,40.47c17.35,0,93.16,0,110.49,0c63.02-5.81,107.76-37.13,109.29-40.47
		C510.83,212.11,481.71,222.71,470.21,223.63z"/>
</g>
</svg>
