<?xml version="1.0" encoding="utf-8"?>
<!-- Generator: Adobe Illustrator 23.0.6, SVG Export Plug-In . SVG Version: 6.00 Build 0)  -->
<svg version="1.1" id="Capa_1" xmlns="http://www.w3.org/2000/svg" xmlns:xlink="http://www.w3.org/1999/xlink" x="0px" y="0px"
	 viewBox="0 0 733.05 242.78" enable-background="new 0 0 733.05 242.78" xml:space="preserve">
<g>
	<path fill="#674234" d="M544.49,89.15c62.01,12.1,126.04,16.61,188.55,31.4C647.31,67.62,556.74,11.98,466.47,1.01
		c-34.89-4.24-69.57,5.47-104.8,18.07c-35.3-12.13-69.64-20.9-104.88-16.59C169.33,13.18,81.86,69.45,0,120.55
		c59.27-13.61,119.92-16.75,178.7-28.87C238.78,79.29,484.49,77.44,544.49,89.15z"/>
	<path fill="#674234" d="M361.86,208.74c-46.15-0.75-92.8-1.47-138.45-2.23c-33.24-0.55-66.96-5.83-100.49-8.89
		c79.48,19.88,159.2,44.82,239.02,45.15c48.32,0.2,98.18-5.15,145.46-18.37c30.79-8.61,62.1-21.15,93.46-29.97
		c-33.56,4.79-67.27,10.7-100.62,11.45C454.66,206.9,408,207.78,361.86,208.74z"/>
</g>
</svg>
