<?xml version="1.0" encoding="utf-8"?>
<!-- Generator: Adobe Illustrator 23.0.6, SVG Export Plug-In . SVG Version: 6.00 Build 0)  -->
<svg version="1.1" id="Capa_1" xmlns="http://www.w3.org/2000/svg" xmlns:xlink="http://www.w3.org/1999/xlink" x="0px" y="0px"
	 viewBox="0 0 767.82 264" style="enable-background:new 0 0 767.82 264;" xml:space="preserve">
<style type="text/css">
	.st0{fill:#674234;}
	.st1{fill:#563930;}
	.st2{fill-rule:evenodd;clip-rule:evenodd;fill:#674234;}
	.st3{fill:#FFFFFF;}
	.st4{fill:#D68B62;}
	.st5{fill:#AC5F4A;}
	.st6{fill-rule:evenodd;clip-rule:evenodd;fill:#FFFFFF;}
	.st7{fill:#DF6958;}
	.st8{fill:#37333D;}
	.st9{fill:#CD3D3C;}
	.st10{fill-rule:evenodd;clip-rule:evenodd;fill:#DA4D4B;}
	.st11{fill-rule:evenodd;clip-rule:evenodd;fill:#ED625F;}
	.st12{fill:#DA4D4B;}
	.st13{fill-rule:evenodd;clip-rule:evenodd;fill:#CD3D3C;}
	.st14{fill-rule:evenodd;clip-rule:evenodd;fill:#ED8173;}
	.st15{fill-rule:evenodd;clip-rule:evenodd;fill:#37333D;}
	.st16{fill:#ED625F;}
	.st17{fill:#ED8173;}
	.st18{fill:#B62D32;}
	.st19{fill-rule:evenodd;clip-rule:evenodd;fill:#B62D32;}
	.st20{fill:#CE5D51;}
	.st21{fill:#B73535;}
	.st22{fill:#D69062;}
</style>
<g>
	<path class="st0" d="M555.07,256.16c22.55,19.06-74.45-2.62-166.3-2.62s-180.48,14.8-166.29,2.62
		c17.73-15.21,74.45-42.3,166.29-42.3S537.22,241.08,555.07,256.16z"/>
	<path class="st0" d="M714.18,45.21C673.16,42.29,580.76,0,514.49,0c-61.76,0-121.35,19.64-130.58,24.81
		C374.68,19.64,309.64,0,247.88,0C181.61,0,94.66,42.29,53.64,45.21C12.62,48.12,0,33.53,0,33.53s1.24,19.11,9.47,24.82
		c38.4,26.65,107.29-3.51,189.33-0.59c72.6,2.58,118.4,20.02,182.93,23.46c0.35,0.11,4.03,0.11,4.37,0
		c64.54-3.44,110.34-20.88,182.94-23.46c82.04-2.92,150.93,27.24,189.33,0.59c8.22-5.71,9.46-24.82,9.46-24.82
		S755.21,48.12,714.18,45.21z"/>
</g>
</svg>
