<?xml version="1.0" encoding="utf-8"?>
<!-- Generator: Adobe Illustrator 23.0.6, SVG Export Plug-In . SVG Version: 6.00 Build 0)  -->
<svg version="1.1" id="Capa_1" xmlns="http://www.w3.org/2000/svg" xmlns:xlink="http://www.w3.org/1999/xlink" x="0px" y="0px"
	 viewBox="0 0 656.37 226.42" enable-background="new 0 0 656.37 226.42" xml:space="preserve">
<g>
	<path fill="#674234" d="M333.54,175.25c-37.22,0.04-154.9,10.48-164.33,45.62c-0.57,2.13,26.44-0.25,36.88-1.78
		c42.16-6.12,85.43-10.23,127.44-9.92c42.42,0.31,85.77,5.69,128.08,13.32c9.12,1.66,38.25,8.16,33.4-0.37
		C469.04,176.52,379.59,175.21,333.54,175.25z"/>
	<path fill="#674234" d="M656.37,94.82c0,0-11.99,8.46-41.92-5.3c-51.41-23.63-94.71-80.95-153.1-87.72
		c-44.33-5.14-90.68,0.88-133.15,15.15C284.11,2.86,236.13-3.24,190.37,2.35C133.5,9.3,92.03,66.47,41.95,89.53
		C12.04,103.29,0,94.82,0,94.82s1.38,15.95,7.32,18.24c0.06,0.04,0.16,0.08,0.34,0.12c47.59,13.71,97.73-33.84,142.66-42.76
		c52.53-10.23,109.48,1.34,163.89,6.43c3.88,0.36,7.74,0.7,11.59,0.98c0.38,0.09,4.42,0.09,4.8,0
		c57.84-4.29,119.27-18.49,175.47-7.4c44.99,8.92,95.04,56.44,142.67,42.77c0.1-0.03,0.17-0.05,0.22-0.08
		C654.98,111.01,656.37,94.82,656.37,94.82z"/>
</g>
</svg>
