<?xml version="1.0" encoding="utf-8"?>
<!-- Generator: Adobe Illustrator 23.0.6, SVG Export Plug-In . SVG Version: 6.00 Build 0)  -->
<svg version="1.1" id="Capa_1" xmlns="http://www.w3.org/2000/svg" xmlns:xlink="http://www.w3.org/1999/xlink" x="0px" y="0px"
	 viewBox="0 0 694.46 284.4" enable-background="new 0 0 694.46 284.4" xml:space="preserve">
<g>
	<path fill="#ED625F" d="M487.43,107.3c-47.51,2.08-95.33,16.6-141.34,29.36c-45.97-12.93-93.79-27.54-141.28-29.78
		c-49.29-2.32-98.88-16.88-145.1-35.68c6.47,83.98,69.61,150.83,134.92,180.32c96.71,43.68,205.83,43.84,302.64,0.44
		c65.37-29.3,128.68-95.97,135.33-179.92C586.35,90.73,536.73,105.14,487.43,107.3z"/>
	<path fill="#DA4D4B" d="M416.11,0.39c-23.3,1.87-44.58,18.97-67.89,18.43c-1.21,0-1.81,0-3.02,0
		c-23.31,0.51-44.57-16.62-67.86-18.53c-20.94-1.71-42.72,4.53-63.15,9.25c-27.87,6.44-55.65,13.38-83.63,19.18
		C95.69,35.94,60.61,41.51,25.35,45.6c6.61,10.71,20.91,16.39,31.11,21.3c20.06,9.64,41.09,16.87,62.23,22.96
		c40.37,11.62,81.76,18.24,123.22,21.93c34.88,3.1,69.59,13.62,103.01,25.03c1.37,0.01,2.06,0.01,3.43,0
		c33.44-11.35,68.16-21.83,103.04-24.87c41.45-3.62,82.86-10.17,123.24-21.73c21.14-6.06,42.17-13.25,62.25-22.86
		c10.21-4.89,24.51-10.56,31.14-21.25c-37.31-4.41-74.4-10.46-111.26-18.34c-27.76-5.93-55.3-12.97-82.98-19.29
		C455.07,4.21,435.26-1.15,416.11,0.39z"/>
	<g>
		<path fill="#B62D32" d="M170.56,89.23C114.19,78.22,46.39,66.29,0,25.71c0,0,6.4,10.47,9.28,13.37
			C44.12,74.14,93.43,86.49,138.2,96.42c69.74,15.46,140.29,26.45,210.21,40.94C297.38,102.16,228.14,100.49,170.56,89.23z"/>
		<path fill="#B62D32" d="M523.89,89.23c-57.55,11.25-126.87,12.9-177.84,48.13c67.64-14.04,135.8-24.98,203.36-39.45
			c46.86-10.04,99.27-22.04,135.76-58.83c2.88-2.9,9.29-13.37,9.29-13.37C648.11,66.31,580.24,78.22,523.89,89.23z"/>
	</g>
</g>
</svg>
