<?xml version="1.0" encoding="utf-8"?>
<!-- Generator: Adobe Illustrator 23.0.6, SVG Export Plug-In . SVG Version: 6.00 Build 0)  -->
<svg version="1.1" id="Capa_1" xmlns="http://www.w3.org/2000/svg" xmlns:xlink="http://www.w3.org/1999/xlink" x="0px" y="0px"
	 viewBox="0 0 727.08 286.33" enable-background="new 0 0 727.08 286.33" xml:space="preserve">
<g>
	<path fill="#674234" d="M355.84,112.71c0,0,1.7,0.36,2.52,0.27c0.83,0.09,2.54-0.26,2.54-0.26
		c64.74-6.77,123.03-26.47,186.98-34.85c61.41-8.04,123.67-32,179.19-60.88c-40.89-0.05-81.77-1.5-122.57-4.29
		C557.62,9.48,508.07-1.72,461.73,1.27c-34.55,2.24-70.88,18.91-103.08,32.86C326.54,19.96,290.3,3.02,255.77,0.58
		c-45.73-3.24-94.88,8.1-141.16,11.5C76.46,14.87,38.24,16.5,0,17c52.86,27.56,110.62,51.47,169.15,59.59
		C233.06,85.46,291.14,105.46,355.84,112.71z"/>
	<path fill="#674234" d="M519.39,221.8c-53.48,8.68-107.12,16.13-161.34,17.48c-54.22-1.72-107.83-9.52-161.26-18.58
		c-28.01-4.75-55.27-14.25-81.69-25.13c-7.78-3.2-22.73-11.33-28.51-11.51c32.44,21.75,62.9,46.25,97.74,63.73
		c54.48,27.34,114.32,38.35,173.57,38.55c59.26,0.2,119.28-10.14,174.05-36.86c34.91-17.03,65.54-41.05,97.99-62.53
		c-7.71-0.17-25.89,9.84-35.52,13.49C570.03,209.65,544.99,217.64,519.39,221.8z"/>
</g>
</svg>
