<?xml version="1.0" encoding="utf-8"?>
<!-- Generator: Adobe Illustrator 23.0.6, SVG Export Plug-In . SVG Version: 6.00 Build 0)  -->
<svg version="1.1" id="Capa_1" xmlns="http://www.w3.org/2000/svg" xmlns:xlink="http://www.w3.org/1999/xlink" x="0px" y="0px"
	 viewBox="0 0 726.58 203.33" enable-background="new 0 0 726.58 203.33" xml:space="preserve">
<g>
	<path fill="#FFFFFF" d="M726.58,168.09c-119.47,15.12-242.04,23.74-361.86,23.55c-119.8-0.19-242.35-9.15-361.76-24.7
		C97.06,66.06,236.17,12.53,364.96,12.73C493.7,12.94,632.82,66.87,726.58,168.09z"/>
	<g>
		<path fill="#674234" d="M89.46,97.81c6.2,13,12.33,26.03,18.38,39.11c9.05,1.64,13.55,2.51,22.5,4.36
			c-1.01,8.93-1.48,13.39-2.39,22.32c-33.33,5.04-69.27,12.77-102.22,9.24c-8.53-0.92-25.71-4.73-25.71-4.75
			C-1.26,163.08,55.2,109.49,89.46,97.81z"/>
		<path fill="#674234" d="M636.44,97.62c-6.19,13.01-12.31,26.04-18.35,39.13c-9.06,1.64-13.56,2.52-22.51,4.37
			c0.34,9.87,0.62,19.74,0.84,29.61c34.35,1.45,70.19,5.54,103.78,1.87c8.54-0.93,25.71-4.74,25.72-4.77
			C727.21,162.81,670.71,109.28,636.44,97.62z"/>
	</g>
	<g>
		<path fill="#D68B62" d="M363.29,22.87c70.94,0.01,142.86,9.34,208.39,37.9c56.79,24.75,107.16,64.66,154.91,107.33
			C675.7,96.28,591.31,29.14,510.95,8.78C462.4-3.52,413.11,0.89,363.29,0.9c-47.12,0.01-93.36-4.55-139.38,6.77
			C169.35,21.08,117.87,55.88,73.58,93.23c-26.09,22-53.06,46.43-73.56,74.86C50.18,123.3,103.61,82.03,163.64,57.07
			C226.71,30.84,295.46,22.85,363.29,22.87z"/>
		<path fill="#D68B62" d="M364.52,148.66c-121.73-3.32-242.71,20.03-364.49,19.43c49.35,14.57,99,27.81,150.08,32.49
			c49.59,4.55,99.41,1.66,149.05,0.06c43.6-2.58,87.02-2.51,130.61,0.17c49.24,1.71,98.65,4.68,147.83,0.02
			c50.72-4.8,99.99-18.26,148.98-32.75c-27.53,0.73-54.24,4.04-82.01,2.52C551.04,165.46,457.89,151.21,364.52,148.66z"/>
	</g>
</g>
</svg>
