<?xml version="1.0" encoding="utf-8"?>
<!-- Generator: Adobe Illustrator 23.0.6, SVG Export Plug-In . SVG Version: 6.00 Build 0)  -->
<svg version="1.1" id="Capa_1" xmlns="http://www.w3.org/2000/svg" xmlns:xlink="http://www.w3.org/1999/xlink" x="0px" y="0px"
	 viewBox="0 0 722.62 202.45" enable-background="new 0 0 722.62 202.45" xml:space="preserve">
<g>
	<path fill="#FFFFFF" d="M722.62,103.13c0,0-161.1,92.48-359.8,92.48c-198.71,0-359.8-92.48-359.8-92.48S164.11,16.7,362.82,16.7
		C561.52,16.7,722.62,103.13,722.62,103.13z"/>
	<g>
		<path fill="#674234" d="M99.6,64.42l8.7,42.8l20.58,9.86l-6.87,21.18c0,0-68.43-6.31-99.81-21.44C9.1,110.48,0,103.13,0,103.13
			S66.48,66.16,99.6,64.42z"/>
		<path fill="#674234" d="M622.33,64.42l-8.7,42.8l-20.59,9.86l6.86,28.66c0,0,68.45-13.8,99.82-28.93
			c13.1-6.32,22.2-13.68,22.2-13.68S655.46,66.16,622.33,64.42z"/>
	</g>
	<g>
		<path fill="#D68B62" d="M361.3,26.83c63.15-0.05,130.34,1.82,195.09,16.78c59.07,13.65,116.14,39.45,166.23,59.51
			C711.26,94.37,580.98,14.28,494.73,2.54c-50.2-6.85-94.61,2.33-133.44,2.33c-38.81-0.01-75.72-9.18-125.93-2.33
			C149.12,14.28,11.36,94.37,0,103.13c52.5-21.02,112.64-47.62,174.76-61.44C236.85,27.86,300.92,26.78,361.3,26.83z"/>
		<path fill="#D68B62" d="M362.55,152.63C58.13,144.76,14.72,108.31,0,103.13c96.38,76.32,170.04,94.57,292.59,99.21
			c0,0.14,139.93,0.14,139.93,0c122.36-4.64,193.71-22.89,290.1-99.21C707.9,108.31,654.87,160.21,362.55,152.63z"/>
	</g>
</g>
</svg>
