<?xml version="1.0" encoding="utf-8"?>
<!-- Generator: Adobe Illustrator 23.0.6, SVG Export Plug-In . SVG Version: 6.00 Build 0)  -->
<svg version="1.1" id="Capa_1" xmlns="http://www.w3.org/2000/svg" xmlns:xlink="http://www.w3.org/1999/xlink" x="0px" y="0px"
	 viewBox="0 0 706.96 240.89" enable-background="new 0 0 706.96 240.89" xml:space="preserve">
<g>
	<g>
		<path fill="#D68B62" d="M354.63,206.98c-51.12,0.08-103.41-2.65-155.03-7.58c-13.89-1.32-37.23-0.41-37.35,0.64
			c-1.39,13.17,133.83,40.86,192.38,40.84c58.52-0.01,177.66-7.98,191.36-40.94c2.95-7.11-29.41-3.42-43.12-1.8
			C453.58,203.93,403.57,206.91,354.63,206.98z"/>
		<path fill="#D68B62" d="M663.01,25.84c-47.21,14.21-96.15,21.69-144.83,19.4c-59.41-2.8-110.03-7.48-164.7,2.06
			c-56.31-9.64-109.64-4.87-169.62-2.61c-47.05,1.78-96.26-3.85-139.9-18.86C15.93,16.19,0,0,0,0s1.29,10.44,8.43,16.55
			c38.21,32.67,85.4,55.97,135.62,66.69c67.62,14.44,137.09,8.86,206.27,12.06c0.51,0.08,5.8,0.08,6.3,0
			c69.18-3.2,138.68,2.41,206.29-12.05c50.24-10.75,97.41-34.02,135.62-66.7c7.14-6.1,8.43-16.55,8.43-16.55
			S691.35,17.3,663.01,25.84z"/>
		<path fill="#AC5F4A" d="M706.29,0.74c-0.94,2.96-3.16,7.92-7.76,11.13c-39.99,27.93-85.48,48.6-135.62,58.18
			c-67.78,12.96-137.22,6.63-206.28,9.3c-0.5,0.07-5.8,0.07-6.3,0c-69.07-2.68-138.49,3.63-206.28-9.3
			C93.91,60.48,48.45,39.78,8.43,11.87C3.84,8.67,1.61,3.71,0.67,0.74C0.22,0.27,0,0,0,0s1.29,10.44,8.43,16.55
			c38.21,32.67,85.4,55.97,135.62,66.69c67.62,14.44,137.09,8.86,206.27,12.06c0.51,0.08,5.8,0.08,6.3,0
			c69.18-3.2,138.68,2.41,206.29-12.05c50.24-10.75,97.41-34.02,135.62-66.7c7.14-6.1,8.43-16.55,8.43-16.55
			S706.73,0.27,706.29,0.74z"/>
	</g>
</g>
</svg>
