<?xml version="1.0" encoding="utf-8"?>
<!-- Generator: Adobe Illustrator 23.0.6, SVG Export Plug-In . SVG Version: 6.00 Build 0)  -->
<svg version="1.1" id="Capa_1" xmlns="http://www.w3.org/2000/svg" xmlns:xlink="http://www.w3.org/1999/xlink" x="0px" y="0px"
	 viewBox="0 0 822.95 278.9" style="enable-background:new 0 0 822.95 278.9;" xml:space="preserve">
<style type="text/css">
	.st0{fill:#674234;}
	.st1{fill:#563930;}
	.st2{fill-rule:evenodd;clip-rule:evenodd;fill:#674234;}
	.st3{fill:#FFFFFF;}
	.st4{fill:#D68B62;}
	.st5{fill:#AC5F4A;}
	.st6{fill-rule:evenodd;clip-rule:evenodd;fill:#FFFFFF;}
	.st7{fill:#DF6958;}
	.st8{fill:#37333D;}
	.st9{fill:#CD3D3C;}
	.st10{fill-rule:evenodd;clip-rule:evenodd;fill:#DA4D4B;}
	.st11{fill-rule:evenodd;clip-rule:evenodd;fill:#ED625F;}
	.st12{fill:#DA4D4B;}
	.st13{fill-rule:evenodd;clip-rule:evenodd;fill:#CD3D3C;}
	.st14{fill-rule:evenodd;clip-rule:evenodd;fill:#ED8173;}
	.st15{fill-rule:evenodd;clip-rule:evenodd;fill:#37333D;}
	.st16{fill:#ED625F;}
	.st17{fill:#ED8173;}
	.st18{fill:#B62D32;}
	.st19{fill-rule:evenodd;clip-rule:evenodd;fill:#B62D32;}
	.st20{fill:#CE5D51;}
	.st21{fill:#B73535;}
	.st22{fill:#D69062;}
</style>
<g>
	<path class="st0" d="M429.53,237.27c-96.38,0-189.4-15.54-174.52-2.76c18.61,15.97,78.14,44.39,174.52,44.39
		c96.38,0,155.79-28.57,174.52-44.39C627.71,214.51,525.91,237.27,429.53,237.27z"/>
	<path class="st0" d="M765.79,19.44c-69.79,3.97-143.49-3.75-213.92-0.34c-46.77,2.27-96.23,3.57-140.4,18.37
		c-46.03-15.03-97.55-16.87-146.26-18.72c-68.57-2.61-140.14,4.59-208.04,0.69C15.04,17.01,0,0,0,0s1.36,12.56,10.07,18.76
		c52.41,37.3,132.91,51.19,202.45,58.64c65.27,6.99,130.62,14.97,196.6,19.01c0.38,0.1,4.33,0.1,4.7,0
		c65.98-4.04,131.29-11.97,196.61-18.99c69.63-7.49,150.01-21.31,202.45-58.66C821.59,12.56,822.95,0,822.95,0
		S807.89,17.04,765.79,19.44z"/>
</g>
</svg>
