<?xml version="1.0" encoding="utf-8"?>
<!-- Generator: Adobe Illustrator 23.0.6, SVG Export Plug-In . SVG Version: 6.00 Build 0)  -->
<svg version="1.1" id="Capa_1" xmlns="http://www.w3.org/2000/svg" xmlns:xlink="http://www.w3.org/1999/xlink" x="0px" y="0px"
	 viewBox="0 0 677.01 247.09" enable-background="new 0 0 677.01 247.09" xml:space="preserve">
<path fill-rule="evenodd" clip-rule="evenodd" fill="#37333D" d="M677.01,93.88c-13.38-2.04-44.46-19.31-56.26-25.82
	c-40.87-22.57-62.98-33.63-105.91-50.49C488.29,7.15,457.23,0.05,428.95,0c-30.19-0.05-57.26,12.15-86.35,18.73
	c-1.34,0.3-2.71,0.52-4.1,0.68c-1.39-0.16-2.76-0.38-4.1-0.68C305.32,12.15,278.25-0.05,248.06,0
	c-28.28,0.05-59.34,7.15-85.89,17.58C119.24,34.43,97.13,45.5,56.26,68.07C44.46,74.58,13.38,91.85,0,93.88
	c64.06,33.47,120.12,82.38,184.5,115.91c48.81,25.42,100.56,36.82,151.42,37.29v0.01c0.86,0.01,1.72,0,2.59,0
	c0.86,0,1.73,0.01,2.59,0v-0.01c50.86-0.47,102.6-11.87,151.41-37.29C556.89,176.26,612.95,127.35,677.01,93.88z"/>
</svg>
