<?xml version="1.0" encoding="utf-8"?>
<!-- Generator: Adobe Illustrator 23.0.6, SVG Export Plug-In . SVG Version: 6.00 Build 0)  -->
<svg version="1.1" id="Capa_1" xmlns="http://www.w3.org/2000/svg" xmlns:xlink="http://www.w3.org/1999/xlink" x="0px" y="0px"
	 viewBox="0 0 589.18 481.85" style="enable-background:new 0 0 589.18 481.85;" xml:space="preserve">
<style type="text/css">
	.st0{fill:#674234;}
	.st1{fill:#563930;}
	.st2{fill-rule:evenodd;clip-rule:evenodd;fill:#674234;}
	.st3{fill:#FFFFFF;}
	.st4{fill:#D68B62;}
	.st5{fill:#AC5F4A;}
	.st6{fill-rule:evenodd;clip-rule:evenodd;fill:#FFFFFF;}
	.st7{fill:#DF6958;}
	.st8{fill:#37333D;}
	.st9{fill:#CD3D3C;}
	.st10{fill-rule:evenodd;clip-rule:evenodd;fill:#DA4D4B;}
	.st11{fill-rule:evenodd;clip-rule:evenodd;fill:#ED625F;}
	.st12{fill:#DA4D4B;}
	.st13{fill-rule:evenodd;clip-rule:evenodd;fill:#CD3D3C;}
	.st14{fill-rule:evenodd;clip-rule:evenodd;fill:#ED8173;}
	.st15{fill-rule:evenodd;clip-rule:evenodd;fill:#37333D;}
	.st16{fill:#ED625F;}
	.st17{fill:#ED8173;}
	.st18{fill:#B62D32;}
	.st19{fill-rule:evenodd;clip-rule:evenodd;fill:#B62D32;}
	.st20{fill:#CE5D51;}
	.st21{fill:#B73535;}
	.st22{fill:#D69062;}
</style>
<g>
	<path class="st8" d="M114.39,54.72C62.84,79.04,33.04,133.38,5.48,185.47c32.85,49.24,34.3,116.55,77.31,156.29
		c75.56,69.84,204.62,73.53,299.42,73.98c104.11,0.5,169.78-145.61,203.18-237.32C514.03,4.54,255.25-11.73,114.39,54.72z"/>
	<path class="st17" d="M375.99,213.27c-30.22-0.03-58.13,5.66-80.69,15.31c-22.52-9.7-50.42-15.45-80.64-15.49
		c-74.85-0.08-135.56,34.92-135.61,78.19c-0.05,43.27,60.59,78.41,135.43,78.5c30.22,0.03,131.11,0.14,161.34,0.18
		c74.84,0.08,135.56-34.92,135.61-78.19C511.47,248.5,450.84,213.35,375.99,213.27z"/>
	<g>
		<path class="st3" d="M413.47,339.62c-38.72,6.2-78.55,9.7-117.15,9.96c-38.63,0.26-78.52-2.71-117.34-8.44
			c-45.39-6.7-87.23-38.19-131.56-43.05c1.82,6.97,7.35,13.98,12.18,18.63C125.61,380.4,201.85,444,296.91,443.33
			c94.83-0.68,170.25-65.01,235.32-129.53c4.74-4.7,10.19-11.77,11.95-18.73C500.04,300.46,458.63,332.4,413.47,339.62z"/>
		<path class="st6" d="M550.78,103.46c0.44-0.27,0.89-0.53,1.32-0.79c0.27-0.12,0.43-0.18,0.43-0.18c-0.02-0.03-0.04-0.04-0.06-0.08
			c0.08-0.06,0.14-0.1,0.14-0.1C490.16,31.83,391.14,20.76,299.56,18.7c-0.79-0.02-1.6-0.05-2.39-0.08
			c-0.42,0.01-0.84,0.02-1.25,0.01c-0.42,0-0.84-0.01-1.26-0.02c-0.79,0.02-1.59,0.05-2.38,0.07
			c-91.63,1.84-190.61,12.69-253.22,83.05c0,0,0.06,0.04,0.15,0.1c-0.02,0.03-0.03,0.04-0.06,0.07c0,0,0.16,0.07,0.42,0.18
			c0.43,0.26,0.88,0.53,1.32,0.79c-0.78,0.89-1.56,1.78-2.34,2.69c0,0,0.06,0.05,0.14,0.11c-0.03,0.03-0.03,0.05-0.06,0.07
			c0,0,0.15,0.09,0.41,0.23c12.67,9.06,31.16,12.49,47.21,9.85c68.45-11.2,138.86-12.77,207.76-14.61c0.61-0.02,3.07-0.01,3.67,0
			c68.89,1.98,139.31,3.74,207.74,15.08c16.04,2.66,34.54-0.72,47.23-9.75c0.26-0.13,0.4-0.23,0.4-0.23
			c-0.02-0.02-0.03-0.04-0.06-0.07c0.09-0.07,0.15-0.12,0.15-0.12C552.35,105.25,551.57,104.35,550.78,103.46z"/>
	</g>
	<path class="st12" d="M570.51,118.95c-14.81-23.13-32.22-42.21-52.97-60.04c-0.68-0.58-2.53-2.15-2.78-2.35
		C468.73,18.24,410.57,0.1,352.96,0.13c-13.89,0.01-27.94,0.9-41.76,2.92c-2.72,0.4-9.27,1.35-15.48,2.15
		c-6.21-0.82-12.75-1.78-15.47-2.18C266.44,0.96,252.39,0.04,238.5,0C180.88-0.16,122.72,17.65,76.58,56.07
		c-0.25,0.2-2.1,1.76-2.78,2.34c-20.79,17.77-36.03,34.27-53.12,56.07C3.75,136.08-7.58,173.27,6.07,217.77
		c16.04,52.27,41.81,108.09,71.89,152.76c39.7,58.95,94.19,96.73,161.41,107.22c1.68,0.26,3.4,0.54,5.13,0.78
		c0.01,0.01,0.03,0.01,0.04,0.01c14.43,2.05,29.99,3.16,46.78,3.3c0.21,0,0.4,0.01,0.6,0.01c1.11,0.01,2.18,0.01,3.27,0.01
		c1.09,0,2.17,0.02,3.28,0.01c0.21,0,0.4-0.01,0.6-0.01c16.74-0.16,32.34-1.17,46.78-3.19c0.02,0.01,0.03,0,0.05,0
		c1.73-0.24,3.44-0.51,5.13-0.77c67.24-10.34,121.82-48,161.65-106.86c30.17-44.59,61.06-100.82,72.23-156.44
		C588.93,194.47,596.69,159.84,570.51,118.95z M522.75,281.68c-25.55,28.39-53.46,54.37-85.74,72.1
		c-11.75,6.46-25.07,10.66-37.67,13.22c-25.34,5.15-50.75,11.51-76.64,13.91c-0.68,0.06-1.37,0.12-2.06,0.17
		c-1.65,0.14-3.31,0.27-4.99,0.38c-1.37,0.09-2.76,0.18-4.16,0.25c-1.17,0.06-2.35,0.13-3.52,0.18c-1.56,0.06-3.14,0.13-4.72,0.16
		c-1.2,0.04-2.4,0.06-3.6,0.08c-1.45,0.03-2.9,0.03-4.36,0.03c-1.46,0-2.92-0.01-4.36-0.04c-1.21-0.02-2.4-0.05-3.6-0.08
		c-1.58-0.05-3.16-0.1-4.73-0.17c-1.18-0.06-2.35-0.13-3.52-0.19c-1.39-0.08-2.78-0.16-4.16-0.26c-1.68-0.12-3.35-0.25-4.99-0.39
		c-0.69-0.06-1.37-0.12-2.05-0.18c-25.88-2.45-51.28-8.88-76.61-14.09c-12.6-2.59-25.9-6.82-37.64-13.3
		c-32.23-17.8-60.08-43.85-85.57-72.3c-22.27-24.85-42.42-70.66-43.26-95.63c-0.25-7.46-2.66-34.68,18.03-60.12
		C57.64,107.22,78,89.68,97.52,78.32c59.86-34.84,127.38-45.19,195.53-47.5c0.87-0.03,1.77-0.04,2.65-0.06
		c0.89,0.02,1.78,0.04,2.66,0.07C366.47,33.29,434,43.79,493.77,78.76c19.48,11.4,38.23,26.78,54.57,43.37
		c14.41,14.62,18.01,48.86,17.89,56.32C565.74,209.2,545.08,256.88,522.75,281.68z"/>
</g>
</svg>
