<?xml version="1.0" encoding="utf-8"?>
<!-- Generator: Adobe Illustrator 23.0.6, SVG Export Plug-In . SVG Version: 6.00 Build 0)  -->
<svg version="1.1" id="Capa_1" xmlns="http://www.w3.org/2000/svg" xmlns:xlink="http://www.w3.org/1999/xlink" x="0px" y="0px"
	 viewBox="0 0 605.21 299.24" style="enable-background:new 0 0 605.21 299.24;" xml:space="preserve">
<style type="text/css">
	.st0{fill:#674234;}
	.st1{fill:#563930;}
	.st2{fill-rule:evenodd;clip-rule:evenodd;fill:#674234;}
	.st3{fill:#FFFFFF;}
	.st4{fill:#D68B62;}
	.st5{fill:#AC5F4A;}
	.st6{fill-rule:evenodd;clip-rule:evenodd;fill:#FFFFFF;}
	.st7{fill:#DF6958;}
	.st8{fill:#37333D;}
	.st9{fill:#CD3D3C;}
	.st10{fill-rule:evenodd;clip-rule:evenodd;fill:#DA4D4B;}
	.st11{fill-rule:evenodd;clip-rule:evenodd;fill:#ED625F;}
	.st12{fill:#DA4D4B;}
	.st13{fill-rule:evenodd;clip-rule:evenodd;fill:#CD3D3C;}
	.st14{fill-rule:evenodd;clip-rule:evenodd;fill:#ED8173;}
	.st15{fill-rule:evenodd;clip-rule:evenodd;fill:#37333D;}
	.st16{fill:#ED625F;}
	.st17{fill:#ED8173;}
	.st18{fill:#B62D32;}
	.st19{fill-rule:evenodd;clip-rule:evenodd;fill:#B62D32;}
	.st20{fill:#CE5D51;}
	.st21{fill:#B73535;}
	.st22{fill:#D69062;}
</style>
<g>
	<path class="st6" d="M503.56,72.86c-32.06-16.71-64.84-36.51-99.17-48.92c-47.08-17.03-68.67,8.96-96.95,9.96
		c-28.28-1-49.87-27-96.95-9.96c-34.33,12.42-67.11,32.22-99.17,48.92c-26.02,13.56-60.05,32.45-83.16,48.2
		c0.32,0.43,0.55,0.93,0.98,1.28c20.15,16.43,39.9,33.68,57.27,51.23c21.22,21.43,44.16,41.52,67.75,60.7
		c39,31.7,99.04,43.07,149.33,43.18c51.48,0.11,116.3-9.9,157.25-43.18c23.58-19.17,46.52-39.26,67.74-60.69
		c17.37-17.55,37.12-34.8,57.27-51.23c0.42-0.35,0.66-0.85,0.98-1.28C563.62,105.31,529.58,86.42,503.56,72.86z"/>
	<path class="st13" d="M515.1,63.13c-34.74-19.28-70.26-42.13-107.45-56.46C356.64-13,333.24,17,302.61,18.16
		C271.97,17,248.57-13,197.56,6.66c-37.2,14.33-72.71,37.18-107.45,56.46C61.92,78.77,25.04,100.58,0,118.75
		c0.35,0.5,0.6,1.08,1.06,1.48c21.84,18.96,43.23,38.86,62.06,59.12c22.99,24.74,47.85,47.93,73.4,70.06
		c42.26,36.59,107.32,49.71,161.8,49.83c55.79,0.13,126.02-11.43,170.38-49.84c25.55-22.13,50.41-45.31,73.4-70.05
		c18.82-20.26,40.22-40.16,62.06-59.12c0.46-0.4,0.71-0.98,1.06-1.48C580.17,100.58,543.3,78.77,515.1,63.13z M328.67,138.88
		c-0.01,0-0.01,0-0.02,0c-17.81,3.27-34.37,3.25-52.1,0c-43.9-8.07-107.79,0.31-132.81-14.7c10.19-16.74,83.69-22.72,99.4-19.22
		c23.02,5.12,41.88,5.22,59.47,4.93c17.59,0.3,36.45,0.19,59.47-4.93c15.71-3.49,89.21,2.48,99.4,19.22
		C436.45,139.19,372.57,130.81,328.67,138.88z"/>
</g>
</svg>
