<?xml version="1.0" encoding="utf-8"?>
<!-- Generator: Adobe Illustrator 23.0.6, SVG Export Plug-In . SVG Version: 6.00 Build 0)  -->
<svg version="1.1" id="Capa_1" xmlns="http://www.w3.org/2000/svg" xmlns:xlink="http://www.w3.org/1999/xlink" x="0px" y="0px"
	 viewBox="0 0 611.38 292.09" enable-background="new 0 0 611.38 292.09" xml:space="preserve">
<g>
	<path fill="#FFFFFF" d="M436.12,34.61c-42.92-7.43-85.62-6.22-116.53,21.62c-1.15,1.04-2.32,1.73-3.52,2.23
		c-1.16,0.4-2.32,0.69-3.47,0.8c-0.24,0.01-0.48,0.02-0.74,0.02c-0.28,0-0.56-0.01-0.85-0.02c-1.13-0.11-2.26-0.39-3.41-0.78
		c-1.19-0.5-2.38-1.2-3.54-2.24c-30.92-27.84-73.61-29.05-116.54-21.63c-48.26,8.35-115.07,67.34-149.25,70.17
		c0,0,48.26,61.05,103.53,106.95c9.37,9.7,23.62,17.59,34.16,22.59c39.88,18.87,88.22,34.74,135.82,34.18
		c47.62,0.57,95.99-15.3,135.9-34.18c10.53-4.99,24.79-12.88,34.16-22.58c55.26-45.9,103.52-106.96,103.52-106.96
		C551.19,101.94,484.39,42.95,436.12,34.61z"/>
	<path fill="#CD3D3C" d="M444.59,4.78c-47.97-9.12-95.68-7.64-130.22,26.56c-1.28,1.27-2.59,2.12-3.93,2.73
		c-1.3,0.5-2.59,0.85-3.88,0.98c-0.27,0.01-0.54,0.02-0.83,0.02c-0.31,0.01-0.63-0.01-0.95-0.02c-1.26-0.13-2.53-0.48-3.81-0.96
		c-1.33-0.61-2.66-1.48-3.95-2.75C262.46-2.86,214.75-4.35,166.78,4.77C112.85,15.03,38.19,87.49,0,90.97
		c0,0,53.93,75,115.69,131.37c10.48,11.92,26.4,21.62,38.18,27.74c44.57,23.18,98.59,42.68,151.78,41.99
		c53.22,0.7,107.28-18.79,151.87-41.99c11.77-6.13,27.7-15.82,38.18-27.74c61.76-56.38,115.69-131.38,115.69-131.38
		C573.18,87.49,498.53,15.03,444.59,4.78z M435.11,168.9c-27.05,16.45-71.3,26.19-118.95,26.81v-0.31
		c-3.56,0.16-17.51,0.16-20.95,0.01v0.3c-47.65-0.63-91.9-10.36-118.95-26.81C143.46,148.93,46.21,94.66,21.93,92.38
		c75.45,7.12,273.29,4.45,273.29,4.45c3.49-0.25,17.46-0.25,20.95,0c0,0,197.84,2.67,273.28-4.45
		C565.17,94.66,467.93,148.93,435.11,168.9z"/>
	<g>
		<path fill-rule="evenodd" clip-rule="evenodd" fill="#DA4D4B" d="M317.77,205.17c-59.58,2.33-126.29,4.93-106.26,31.98
			c11.47,15.54,50.07,28.33,109.63,26c59.58-2.32,92.36-18.61,106.08-34.42C453,198.98,377.33,202.85,317.77,205.17z"/>
		<path fill-rule="evenodd" clip-rule="evenodd" fill="#ED625F" d="M337.51,218.03c-32.59,1.27-69.06,2.69-58.13,17.49
			c6.28,8.5,27.39,15.5,59.97,14.22c32.58-1.27,50.51-10.18,58.03-18.83C411.49,214.64,370.08,216.75,337.51,218.03z"/>
	</g>
	<path fill="#DA4D4B" d="M499.18,58.34c-31.63-11.87-67.7-31.7-107.57-30.86c0.24-0.04-0.55-0.04-3.08,0.03
		c-12.37,0.61-11.77,0.64-8.01,0.5c-16.24,1.19-32.52,3.74-46.78,9.6c-8.51,3.49-16,8.1-22.14,13.49c-2.1,1.83-4.04,2.55-5.92,2.67
		c-1.86-0.12-3.81-0.84-5.91-2.67c-6.15-5.39-13.64-9.99-22.15-13.49c-14.26-5.86-30.53-8.41-46.77-9.6c3.77,0.14,4.36,0.11-8-0.5
		c-2.53-0.07-3.33-0.07-3.09-0.03c-39.86-0.84-75.95,18.99-107.56,30.86c-5.65,2.11-63.91,26.32-48.8,30.77
		c16.55,4.87,89.32,6.01,105.84,6.16c24.07,0.22,110.29-9.17,132.57-7.87c1.29,0.07,2.58,0.06,3.87,0.1c1.3-0.04,2.58-0.03,3.88-0.1
		c22.27-1.3,108.49,8.09,132.57,7.87c16.52-0.15,89.29-1.29,105.84-6.16C563.09,84.66,504.82,60.45,499.18,58.34z"/>
</g>
</svg>
