<?xml version="1.0" encoding="utf-8"?>
<!-- Generator: Adobe Illustrator 23.0.6, SVG Export Plug-In . SVG Version: 6.00 Build 0)  -->
<svg version="1.1" id="Capa_1" xmlns="http://www.w3.org/2000/svg" xmlns:xlink="http://www.w3.org/1999/xlink" x="0px" y="0px"
	 viewBox="0 0 696.92 233" enable-background="new 0 0 696.92 233" xml:space="preserve">
<g>
	<path fill="#FFFFFF" d="M696.92,0.36c-67.92,141.6-211.67,225.41-346.71,225.83C215.38,226.61,70.94,143.84,2.58,2.66
		C116.78,39.71,231.36,56.67,349.81,56.3C468.34,55.93,582.83,38.17,696.92,0.36z"/>
	<g>
		<path fill="#674234" d="M103.53,33.24c-2.75,13.62-5.36,27.25-7.84,40.93c5.3,6.51,10.72,12.91,16.25,19.17
			c-5.5,5.97-8.29,8.92-13.94,14.76c-31.42-20.12-64.72-46.3-85.37-80.72C7.6,19,0,0.35,0,0.35C2.49-2.87,71.4,16.54,103.53,33.24z"
			/>
		<path fill="#674234" d="M592.79,33.6c2.74,13.62,5.33,27.25,7.81,40.94c-5.32,6.5-10.74,12.89-16.28,19.14
			c5.42,7.16,10.91,14.24,16.48,21.25C631.53,91.51,662.6,63,683.69,27.88c5.03-8.39,12.65-27.01,12.65-27.01
			C693.86-2.36,624.94,16.95,592.79,33.6z"/>
	</g>
	<g>
		<path fill="#D68B62" d="M348.45,60.52c59.7,0.02,119.73-4.82,179.12-15.44c57.45-10.28,114.57-21.43,169.35-44.73
			c-31.91,5.88-187.65,9.95-232.91,16.12c-38.17,5.2-76.86,13.88-115.57,13.89c-36.49,0.01-73.05-7.8-109.16-12.14
			C191.67,12.51,31.82,6.51,0,0.36C57.36,24.82,117.21,36.35,177.45,46.5C234.19,56.06,291.49,60.5,348.45,60.52z"/>
		<path fill="#D68B62" d="M349.82,185.38C221.21,182.86,77.35,127.99,0,0.36c44.73,133.99,150.06,204.52,268.42,226.51
			c53.75,8.32,109.27,8.17,162.98-0.42c117.67-22.49,221.12-92.96,265.52-226.09c-16.93,29.02-32.9,54.87-56.64,77.71
			C560.04,155.24,451.38,187.36,349.82,185.38z"/>
	</g>
</g>
</svg>
