<?xml version="1.0" encoding="utf-8"?>
<!-- Generator: Adobe Illustrator 23.0.6, SVG Export Plug-In . SVG Version: 6.00 Build 0)  -->
<svg version="1.1" id="Capa_1" xmlns="http://www.w3.org/2000/svg" xmlns:xlink="http://www.w3.org/1999/xlink" x="0px" y="0px"
	 viewBox="0 0 297.27 115.87" style="enable-background:new 0 0 297.27 115.87;" xml:space="preserve">
<style type="text/css">
	.st0{fill:#674234;}
	.st1{fill:#563930;}
	.st2{fill-rule:evenodd;clip-rule:evenodd;fill:#674234;}
	.st3{fill:#FFFFFF;}
	.st4{fill:#D68B62;}
	.st5{fill:#AC5F4A;}
	.st6{fill-rule:evenodd;clip-rule:evenodd;fill:#FFFFFF;}
	.st7{fill:#DF6958;}
	.st8{fill:#37333D;}
	.st9{fill:#CD3D3C;}
	.st10{fill-rule:evenodd;clip-rule:evenodd;fill:#DA4D4B;}
	.st11{fill-rule:evenodd;clip-rule:evenodd;fill:#ED625F;}
	.st12{fill:#DA4D4B;}
	.st13{fill-rule:evenodd;clip-rule:evenodd;fill:#CD3D3C;}
	.st14{fill-rule:evenodd;clip-rule:evenodd;fill:#ED8173;}
	.st15{fill-rule:evenodd;clip-rule:evenodd;fill:#37333D;}
	.st16{fill:#ED625F;}
	.st17{fill:#ED8173;}
	.st18{fill:#B62D32;}
	.st19{fill-rule:evenodd;clip-rule:evenodd;fill:#B62D32;}
	.st20{fill:#CE5D51;}
	.st21{fill:#B73535;}
	.st22{fill:#D69062;}
</style>
<g>
	<path class="st0" d="M280.59,61.72c-1.97-0.95-4.83-2.43-8.54-4.17c-1.84-0.93-3.94-1.75-6.23-2.7c-2.28-0.96-4.78-1.91-7.44-2.97
		c-0.67-0.26-1.35-0.53-2.03-0.8c-0.7-0.23-1.41-0.47-2.13-0.72c-1.44-0.48-2.93-0.98-4.45-1.49c-1.53-0.5-3.1-1.01-4.71-1.54
		c-0.81-0.26-1.62-0.52-2.44-0.79c-0.84-0.22-1.68-0.45-2.53-0.68c-3.42-0.89-6.99-1.82-10.69-2.78c-3.73-0.81-7.61-1.53-11.6-2.33
		c-8.01-1.38-16.52-2.54-25.39-3.14c-8.86-0.66-18.06-0.81-27.39-0.49c-2.34,0.01-4.67,0.24-7.02,0.37
		c-2.35,0.16-4.7,0.33-7.05,0.49c-4.69,0.53-9.41,0.99-14.11,1.65l-7.01,1.12l-3.5,0.57l-3.47,0.69c-2.31,0.47-4.62,0.94-6.92,1.4
		c-2.29,0.51-4.56,1.09-6.82,1.63c-9.06,2.15-17.82,4.88-26.19,7.72c-4.15,1.54-8.28,2.9-12.2,4.56c-1.97,0.8-3.92,1.58-5.85,2.36
		c-1.9,0.84-3.78,1.66-5.64,2.47c-3.71,1.6-7.24,3.37-10.67,5c-3.38,1.76-6.68,3.36-9.76,5.08c-6.21,3.33-11.71,6.73-16.55,9.77
		c-4.82,3.07-8.91,5.91-12.21,8.35c-3.33,2.39-5.81,4.44-7.52,5.82C0.86,97.58,0,98.38,0,98.38s1.03-0.55,2.95-1.59
		c1.92-1.04,4.79-2.46,8.41-4.29c3.62-1.83,8.11-3.87,13.21-6.25c2.58-1.13,5.29-2.4,8.22-3.59c1.45-0.62,2.94-1.25,4.46-1.9
		c1.53-0.62,3.1-1.26,4.7-1.92c3.19-1.33,6.56-2.59,10.01-3.95c3.51-1.24,7.06-2.69,10.81-3.92c1.86-0.65,3.74-1.3,5.65-1.97
		c1.92-0.62,3.87-1.25,5.83-1.88c3.92-1.31,7.98-2.45,12.08-3.7c2.05-0.61,4.16-1.12,6.25-1.71c2.1-0.57,4.19-1.2,6.34-1.69
		c4.28-1.03,8.59-2.15,12.99-3.05c2.19-0.47,4.39-0.98,6.6-1.41c2.22-0.41,4.44-0.82,6.67-1.23l3.34-0.64l3.37-0.52l6.74-1.03
		c4.5-0.65,9.02-1.14,13.52-1.68c4.52-0.31,9-0.86,13.47-1.08c2.23-0.1,4.46-0.21,6.68-0.31c1.11-0.06,2.21-0.12,3.31-0.18
		c1.1-0.04,2.2-0.03,3.3-0.05c2.19-0.02,4.37-0.05,6.54-0.07c1.08-0.01,2.16-0.02,3.24-0.03c1.07,0.03,2.14,0.06,3.21,0.09
		c8.54,0.13,16.79,0.66,24.6,1.37c3.91,0.43,7.71,0.84,11.38,1.24c3.66,0.55,7.2,1.08,10.6,1.6c0.85,0.12,1.7,0.24,2.53,0.36
		c0.83,0.16,1.64,0.32,2.45,0.48c1.62,0.31,3.2,0.62,4.74,0.91c1.55,0.29,3.06,0.56,4.53,0.84c0.73,0.13,1.46,0.27,2.17,0.4
		c0.7,0.17,1.4,0.33,2.08,0.5c2.73,0.65,5.28,1.3,7.67,1.81c2.38,0.54,4.59,0.99,6.53,1.59c3.89,1.12,7.01,1.9,9.12,2.48
		c2.12,0.55,3.26,0.84,3.26,0.84S282.54,62.7,280.59,61.72z"/>
	<path class="st0" d="M296.8,78.49c-0.08-1.71-0.23-3.45-0.36-5.21c-0.12-1.76-0.27-3.54-0.46-5.33c-0.32-3.58-0.77-7.2-1.2-10.83
		c-0.5-3.61-0.98-7.23-1.58-10.78c-0.27-1.78-0.58-3.53-0.9-5.27c-0.31-1.74-0.62-3.45-0.97-5.13c-1.33-6.73-2.83-12.98-4.3-18.31
		c-1.47-5.33-2.93-9.75-4.05-12.82c-0.54-1.54-1.05-2.74-1.37-3.56C281.27,0.44,281.09,0,281.09,0s-0.07,0.47-0.19,1.35
		c-0.1,0.88-0.29,2.16-0.42,3.79c-0.31,3.26-0.6,7.9-0.68,13.43c-0.09,5.53,0.04,11.96,0.45,18.8c0.08,1.72,0.22,3.45,0.36,5.21
		c0.13,1.76,0.27,3.54,0.46,5.33c0.32,3.58,0.76,7.2,1.19,10.83c0.5,3.61,0.97,7.24,1.57,10.78c0.27,1.78,0.57,3.53,0.9,5.27
		c0.31,1.73,0.61,3.45,0.97,5.13c1.33,6.73,2.82,12.98,4.3,18.31c1.48,5.33,2.93,9.75,4.06,12.82c0.55,1.54,1.06,2.74,1.37,3.56
		c0.34,0.82,0.53,1.25,0.53,1.25s0.07-0.47,0.2-1.35c0.09-0.87,0.29-2.17,0.43-3.79c0.31-3.26,0.61-7.9,0.69-13.43
		C297.34,91.77,297.21,85.34,296.8,78.49z"/>
</g>
</svg>
