<?xml version="1.0" encoding="utf-8"?>
<!-- Generator: Adobe Illustrator 23.0.6, SVG Export Plug-In . SVG Version: 6.00 Build 0)  -->
<svg version="1.1" id="Capa_1" xmlns="http://www.w3.org/2000/svg" xmlns:xlink="http://www.w3.org/1999/xlink" x="0px" y="0px"
	 viewBox="0 0 642.24 325.88" enable-background="new 0 0 642.24 325.88" xml:space="preserve">
<path fill="#CD3D3C" d="M505.88,28.36C453.53-2.1,392.86-15.69,327.5,27.22c-2.98,1.96-5.89,3.24-8.71,3.98
	c-2.82-0.74-5.73-2.02-8.72-3.98C244.72-15.69,184.05-2.1,131.7,28.36C85.75,51.09,13.73,125.7,0,121.68
	c3.88,3.97,53.46,72.76,73.07,97.27c78.78,98.48,150.84,102.34,241.41,106.8c1.84,0.16,9.49,0.16,11.32,0
	c90.58-4.47,162.64-8.33,241.42-106.8c19.16-23.95,58.85-80.75,75.01-97.27C626.75,126.22,551.82,51.09,505.88,28.36z"/>
</svg>
