<?xml version="1.0" encoding="utf-8"?>
<!-- Generator: Adobe Illustrator 23.0.6, SVG Export Plug-In . SVG Version: 6.00 Build 0)  -->
<svg version="1.1" id="Capa_1" xmlns="http://www.w3.org/2000/svg" xmlns:xlink="http://www.w3.org/1999/xlink" x="0px" y="0px"
	 viewBox="0 0 782.8 272.01" enable-background="new 0 0 782.8 272.01" xml:space="preserve">
<g>
	<path fill="#674234" d="M500.09,0.02c-36.26-0.54-77.36,12.83-114.14,25.08C349.02,13.77,307.78,1.46,271.69,2.93
		C185.55,6.42,85.17,61.58,0,96.16c62.1,2.88,125.67-23,186.39-23.6c64.92-0.64,130.9,23.61,197.12,29.39c0,0,1.74,0.26,2.59,0.18
		c0.85,0.06,2.61-0.24,2.61-0.24c66.27-7.46,131.78-33.25,196.99-34.36c64.52-1.1,131.13,21.06,197.1,18.87
		C693.63,54,588.97,1.35,500.09,0.02z"/>
	<path fill="#674234" d="M543.17,208.51c-52.14,4.6-104.38,10.37-156.8,12.46c-52.38-0.8-104.58-5.34-156.85-8.58
		c-36.56-2.26-74.66-7.4-110.93-3.77c88.07,43.01,172.18,64.61,267.88,63.33c97.23-1.3,179.49-27.66,267.6-73.12
		C617.38,198.32,579.86,205.28,543.17,208.51z"/>
</g>
</svg>
