<?xml version="1.0" encoding="utf-8"?>
<!-- Generator: Adobe Illustrator 23.0.6, SVG Export Plug-In . SVG Version: 6.00 Build 0)  -->
<svg version="1.1" id="Capa_1" xmlns="http://www.w3.org/2000/svg" xmlns:xlink="http://www.w3.org/1999/xlink" x="0px" y="0px"
	 viewBox="0 0 628.78 327.33" style="enable-background:new 0 0 628.78 327.33;" xml:space="preserve">
<style type="text/css">
	.st0{fill:#674234;}
	.st1{fill:#563930;}
	.st2{fill-rule:evenodd;clip-rule:evenodd;fill:#674234;}
	.st3{fill:#FFFFFF;}
	.st4{fill:#D68B62;}
	.st5{fill:#AC5F4A;}
	.st6{fill-rule:evenodd;clip-rule:evenodd;fill:#FFFFFF;}
	.st7{fill:#DF6958;}
	.st8{fill:#37333D;}
	.st9{fill:#CD3D3C;}
	.st10{fill-rule:evenodd;clip-rule:evenodd;fill:#DA4D4B;}
	.st11{fill-rule:evenodd;clip-rule:evenodd;fill:#ED625F;}
	.st12{fill:#DA4D4B;}
	.st13{fill-rule:evenodd;clip-rule:evenodd;fill:#CD3D3C;}
	.st14{fill-rule:evenodd;clip-rule:evenodd;fill:#ED8173;}
	.st15{fill-rule:evenodd;clip-rule:evenodd;fill:#37333D;}
	.st16{fill:#ED625F;}
	.st17{fill:#ED8173;}
	.st18{fill:#B62D32;}
	.st19{fill-rule:evenodd;clip-rule:evenodd;fill:#B62D32;}
	.st20{fill:#CE5D51;}
	.st21{fill:#B73535;}
	.st22{fill:#D69062;}
</style>
<g>
	<path class="st13" d="M293.87,326.94c-56.27,3.11-125.89-23.97-171.99-59.87c-24.52-19.1-45.47-42.67-66.72-66.18
		c-10.78-11.94-22.05-23.46-34.84-32.49c-8.04-5.69-33-17.15-12.28-27.05C65.54,113.88,91.57,41.14,148.68,12.87
		C202.81-13.91,262.9,2.58,304.15,48.69c16.64,18.62,37.08-18.8,52.48-28.73C381.5,3.92,410.49-1.9,438.73,1.23
		c70.52,7.79,97.93,73.07,148.55,118.88c11.13,10.1,23.17,14.55,35.5,21.84c16.21,9.57-4.95,20.24-11.08,24.35
		c-27.92,18.77-50.92,48.67-74.31,74.01c-41.01,44.47-96.82,67.65-151.63,78.16C355.42,324.28,324.61,326.47,293.87,326.94
		C269.3,328.3,384.26,325.58,293.87,326.94z"/>
	<g>
		<path class="st12" d="M209.66,138.16c-35.11-0.22-100,1.87-122.86,35.42c-28.12,41.27,23.75,76.86,52.19,94.08
			c80.17,48.54,184.21,58.67,273.37,35.18c43.45-11.45,90.81-32.01,123.96-64.66c35.49-34.99,14.89-75.74-26.81-87.88
			c-50.44-14.67-103.37-15.47-154.42-3.82C305.04,157.9,259.98,138.68,209.66,138.16C176.77,137.96,236.23,138.44,209.66,138.16z"/>
		<path class="st12" d="M213.12,22.46c-50,0.36-88.41,33.15-121.6,72.52c-6.08,7.22-30.97,37.89-12.45,45.77
			c20.24,8.64,50.5-7.51,70.47-11.98c26.58-5.94,53.8-8.32,80.85-6.39c27.26,1.95,53.39,12.88,80.5,14.07
			c26.69,1.18,52.32-10.21,78.75-13.12c29.17-3.19,58.65-1.19,87.44,4.7c21.68,4.43,44.56,14.5,66.67,15.01
			c27.48,0.65,5.96-34.44-1.04-44.54c-23.2-33.52-65.72-66.04-103.07-74.16c-39.83-8.68-81.08,4.92-111.14,35.09
			c-6.98,7.02-13.05,16.03-21.19,5.06c-7.61-10.28-16.86-18.96-27.32-25.37C259.6,26.59,236.04,23.12,213.12,22.46
			C194.98,22.58,249.1,23.5,213.12,22.46z"/>
	</g>
	<g>
		<path class="st10" d="M200.29,220.08c-31.08-49.46,61.19-44.36,133.84-41.53c72.64,2.82,154,5.99,129.24,51.75
			c-14.23,26.29-61.49,48.46-134.14,45.63C256.59,273.11,216.82,246.37,200.29,220.08z"/>
		<path class="st14" d="M236.67,223.21c-17-27.05,33.47-24.26,73.2-22.72c39.73,1.55,84.22,3.28,70.69,28.31
			c-7.78,14.37-33.62,26.5-73.36,24.95C267.47,252.22,245.71,237.59,236.67,223.21z"/>
	</g>
</g>
</svg>
