<?xml version="1.0" encoding="utf-8"?>
<!-- Generator: Adobe Illustrator 23.0.6, SVG Export Plug-In . SVG Version: 6.00 Build 0)  -->
<svg version="1.1" id="Capa_1" xmlns="http://www.w3.org/2000/svg" xmlns:xlink="http://www.w3.org/1999/xlink" x="0px" y="0px"
	 viewBox="0 0 630.1 210.66" enable-background="new 0 0 630.1 210.66" xml:space="preserve">
<g>
	<path fill="#FFFFFF" d="M630.1,0.32c-61.4,128.02-191.38,203.8-313.47,204.18C194.73,204.88,64.14,130.05,2.33,2.4
		c103.26,33.5,206.85,48.84,313.94,48.5C423.43,50.56,526.95,34.51,630.1,0.32z"/>
	<g>
		<path fill="#37333D" d="M93.6,30.06c-2.49,12.31-4.85,24.64-7.09,37.01c4.8,5.89,9.69,11.67,14.69,17.33
			c-4.97,5.4-7.49,8.06-12.6,13.35C60.2,79.55,30.09,55.88,11.42,24.76C6.87,17.17,0,0.32,0,0.32C2.25-2.59,64.55,14.95,93.6,30.06z
			"/>
		<path fill="#37333D" d="M535.95,30.38c2.47,12.31,4.82,24.64,7.06,37.01c-4.81,5.88-9.71,11.66-14.72,17.31
			c4.9,6.48,9.87,12.88,14.9,19.21c27.77-21.18,55.86-46.96,74.93-78.71c4.55-7.58,11.44-24.42,11.44-24.42
			C627.33-2.13,565.02,15.33,535.95,30.38z"/>
	</g>
	<g>
		<path fill="#ED625F" d="M315.04,54.72c53.97,0.02,108.25-4.35,161.95-13.96c51.94-9.29,103.59-19.37,153.11-40.44
			c-28.85,5.32-169.66,8.99-210.57,14.57c-34.51,4.7-69.49,12.55-104.49,12.56c-32.99,0.01-66.04-7.05-98.69-10.97
			C173.29,11.31,28.77,5.89,0,0.33c51.86,22.11,105.97,32.54,160.44,41.72C211.74,50.69,263.54,54.7,315.04,54.72z"/>
		<path fill="#ED625F" d="M316.28,167.6C200,165.32,69.93,115.72,0,0.33c40.44,121.14,135.67,184.91,242.68,204.79
			c48.59,7.52,98.79,7.39,147.36-0.38C496.42,184.4,589.95,120.69,630.1,0.32c-15.3,26.24-29.74,49.61-51.21,70.26
			C506.34,140.35,408.1,169.4,316.28,167.6z"/>
	</g>
</g>
</svg>
