<?xml version="1.0" encoding="utf-8"?>
<!-- Generator: Adobe Illustrator 23.0.6, SVG Export Plug-In . SVG Version: 6.00 Build 0)  -->
<svg version="1.1" id="Capa_1" xmlns="http://www.w3.org/2000/svg" xmlns:xlink="http://www.w3.org/1999/xlink" x="0px" y="0px"
	 viewBox="0 0 640.72 266.56" enable-background="new 0 0 640.72 266.56" xml:space="preserve">
<g>
	<path fill="#37333D" d="M465.93,4.19c-50.27-8-100.27-6.7-136.47,23.28c-1.35,1.11-2.73,1.86-4.12,2.4
		c-1.36,0.44-2.72,0.75-4.06,0.86c-0.3,0.02-0.57,0.02-0.88,0.02c-0.33,0.01-0.66,0-1-0.02c-1.32-0.11-2.65-0.41-3.99-0.84
		c-1.4-0.54-2.79-1.3-4.14-2.41C275.05-2.51,225.06-3.81,174.78,4.18C118.25,13.17,40.02,34.86,0,37.9
		c0,0,56.52,118.09,121.23,167.51c10.98,10.46,27.67,18.95,40.01,24.33c46.71,20.32,103.33,37.42,159.06,36.82
		c55.78,0.62,112.43-16.48,159.16-36.82c12.33-5.37,29.04-13.87,40.01-24.32C584.2,155.99,640.72,37.9,640.72,37.9
		C600.68,34.86,522.45,13.17,465.93,4.19z"/>
	<g>
		<path fill-rule="evenodd" clip-rule="evenodd" fill="#FFFFFF" d="M459.29,138.45c0,0-52.72-14.12-136.36-14.12
			c-70.71,0-146.35,13.48-146.35,13.48l-29.45,63.07l349.63-10.73L459.29,138.45z"/>
		<path fill-rule="evenodd" clip-rule="evenodd" fill="#FFFFFF" d="M106.19,51.77l72.59,77.4c0,0,75.64,13.48,146.36,13.48
			c83.64,0,136.37-14.12,136.37-14.12l76.21-76.77L106.19,51.77z"/>
	</g>
	<path fill="#CD3D3C" d="M465.93,4.19c-50.27-8-100.27-6.7-136.47,23.28c-1.35,1.11-2.73,1.86-4.12,2.4
		c-1.36,0.44-2.72,0.75-4.06,0.86c-0.3,0.02-0.57,0.02-0.88,0.02c-0.33,0.01-0.66,0-1-0.02c-1.32-0.11-2.65-0.41-3.99-0.84
		c-1.4-0.54-2.79-1.3-4.14-2.41C275.05-2.51,225.06-3.81,174.78,4.18C118.25,13.17,40.02,34.86,0,37.9
		c0,0,56.52,118.09,121.23,167.51c10.98,10.46,27.67,18.95,40.01,24.33c46.71,20.32,103.33,37.42,159.06,36.82
		c55.78,0.62,112.43-16.48,159.16-36.82c12.33-5.37,29.04-13.87,40.01-24.32C584.2,155.99,640.72,37.9,640.72,37.9
		C600.68,34.86,522.45,13.17,465.93,4.19z M471.49,158.54c-28.35,14.43-90.22,22.96-140.16,23.52v-0.26
		c-3.74,0.13-18.35,0.13-21.95,0v0.26c-49.93-0.55-110.39-9.09-138.74-23.52C136.25,141.04,44.73,50.21,19.28,48.2
		c79.06,6.24,290.1,29.71,290.1,29.71c3.67-0.22,18.3-0.22,21.95,0c0,0,214.74-23.47,293.8-29.71
		C599.69,50.21,505.89,141.04,471.49,158.54z"/>
	<g>
		<path fill-rule="evenodd" clip-rule="evenodd" fill="#DA4D4B" d="M333.01,190.34c-62.43,2.05-132.34,4.34-111.36,28.05
			c12.02,13.62,52.47,24.84,114.89,22.79c62.44-2.03,96.79-16.31,111.17-30.18C474.74,184.93,395.44,188.31,333.01,190.34z"/>
		<path fill-rule="evenodd" clip-rule="evenodd" fill="#ED625F" d="M353.7,201.62c-34.16,1.11-72.37,2.37-60.91,15.34
			c6.58,7.46,28.7,13.6,62.85,12.47c34.14-1.12,52.93-8.93,60.81-16.51C431.23,198.66,387.84,200.5,353.7,201.62z"/>
	</g>
	<path fill="#DA4D4B" d="M503.98,22.33c-30.22-9.49-64.71-5.64-102.81-4.98c0.23-0.03-0.53-0.03-2.94,0.03
		c-11.82,0.49-11.26,0.51-7.66,0.4c-15.51,0.95-31.06,9.97-44.7,14.66c-8.13,2.8-15.29,6.48-21.17,10.78
		c-2,1.47-3.86,2.04-5.65,2.13c-1.77-0.09-3.64-0.67-5.64-2.13c-5.88-4.3-13.04-7.99-21.18-10.78c-13.63-4.69-29.18-13.7-44.7-14.65
		c3.6,0.11,4.17,0.09-7.65-0.4c-2.41-0.06-3.18-0.06-2.95-0.03c-38.09-0.67-72.59-4.51-102.8,4.98c-5.4,1.69-61.08,7.1-46.63,10.65
		c15.81,3.89,85.35,18.76,101.15,18.88c23,0.18,39.46,9.01,60.72,10.35c21.38,1.34,44.69,8.99,65.98,10.05
		c1.24,0.05,2.47,0.04,3.69,0.08c1.24-0.03,2.48-0.03,3.72-0.08c21.28-1.05,44.58-8.7,65.96-10.05
		c21.26-1.33,37.73-10.17,60.73-10.35c15.8-0.11,85.34-14.98,101.14-18.87C565.06,29.42,509.37,24.02,503.98,22.33z"/>
</g>
</svg>
