<?xml version="1.0" encoding="utf-8"?>
<!-- Generator: Adobe Illustrator 23.0.6, SVG Export Plug-In . SVG Version: 6.00 Build 0)  -->
<svg version="1.1" id="Capa_1" xmlns="http://www.w3.org/2000/svg" xmlns:xlink="http://www.w3.org/1999/xlink" x="0px" y="0px"
	 viewBox="0 0 620.98 292.85" style="enable-background:new 0 0 620.98 292.85;" xml:space="preserve">
<style type="text/css">
	.st0{fill:#674234;}
	.st1{fill:#563930;}
	.st2{fill-rule:evenodd;clip-rule:evenodd;fill:#674234;}
	.st3{fill:#FFFFFF;}
	.st4{fill:#D68B62;}
	.st5{fill:#AC5F4A;}
	.st6{fill-rule:evenodd;clip-rule:evenodd;fill:#FFFFFF;}
	.st7{fill:#DF6958;}
	.st8{fill:#37333D;}
	.st9{fill:#CD3D3C;}
	.st10{fill-rule:evenodd;clip-rule:evenodd;fill:#DA4D4B;}
	.st11{fill-rule:evenodd;clip-rule:evenodd;fill:#ED625F;}
	.st12{fill:#DA4D4B;}
	.st13{fill-rule:evenodd;clip-rule:evenodd;fill:#CD3D3C;}
	.st14{fill-rule:evenodd;clip-rule:evenodd;fill:#ED8173;}
	.st15{fill-rule:evenodd;clip-rule:evenodd;fill:#37333D;}
	.st16{fill:#ED625F;}
	.st17{fill:#ED8173;}
	.st18{fill:#B62D32;}
	.st19{fill-rule:evenodd;clip-rule:evenodd;fill:#B62D32;}
	.st20{fill:#CE5D51;}
	.st21{fill:#B73535;}
	.st22{fill:#D69062;}
</style>
<g>
	<path class="st13" d="M424.63,0.29c-26.74,0.43-52.84,7.25-75.52,21.99c-11.72,7.61-33.54,42.98-49.5,25.95
		c-37.58-40.08-93.1-58.28-144.83-42.64C98.42,22.62,0,78.51,0,78.51s58.43,105.01,98.62,144.07
		c48.47,47.12,121.7,71.74,187.48,70.19c34.99-0.02,69.98-2.51,104.03-9.74c58.45-12.41,119.46-39,159.43-89.67
		c21.47-27.22,71.43-114.85,71.43-114.85S486.46-0.71,424.63,0.29z"/>
	<path class="st6" d="M237.74,198.35c-17.04-27.47,61.22-18.46,70.31-18.06c9.56,0.41,82.76-2.32,67.91,24.11
		c-13.16,23.42-49.57,24.93-70.78,23.98C282.35,227.36,251.92,221.22,237.74,198.35z"/>
</g>
</svg>
