<?xml version="1.0" encoding="utf-8"?>
<!-- Generator: Adobe Illustrator 23.0.6, SVG Export Plug-In . SVG Version: 6.00 Build 0)  -->
<svg version="1.1" id="Capa_1" xmlns="http://www.w3.org/2000/svg" xmlns:xlink="http://www.w3.org/1999/xlink" x="0px" y="0px"
	 viewBox="0 0 661.21 259.9" enable-background="new 0 0 661.21 259.9" xml:space="preserve">
<path fill-rule="evenodd" clip-rule="evenodd" fill="#37333D" d="M624.53,107.47c-63.25-37.36-67.88-50.82-155.93-95.64
	C433.43-6.07,364.54-5.61,330.6,26.85C296.67-5.61,227.78-6.07,192.62,11.83c-88.06,44.82-92.68,58.28-155.93,95.64
	c-12.14,7.17-24.46,14.1-36.68,21.02c31.77,32.99,72.95,59.94,112.93,78.43c43.57,20.14,86.8,36.01,131.19,43.43
	c4.18,0.7,44.25,9.12,85.23,9.55v0.02c0.42,0,0.83,0,1.25-0.01c0.42,0,0.83,0,1.25,0.01v-0.02c40.98-0.43,81.05-8.85,85.23-9.55
	c44.39-7.41,87.62-23.29,131.19-43.43c39.98-18.48,81.16-45.44,112.93-78.43C648.99,121.57,636.66,114.64,624.53,107.47z"/>
</svg>
