<?xml version="1.0" encoding="utf-8"?>
<!-- Generator: Adobe Illustrator 23.0.6, SVG Export Plug-In . SVG Version: 6.00 Build 0)  -->
<svg version="1.1" id="Capa_1" xmlns="http://www.w3.org/2000/svg" xmlns:xlink="http://www.w3.org/1999/xlink" x="0px" y="0px"
	 viewBox="0 0 656.36 225.67" enable-background="new 0 0 656.36 225.67" xml:space="preserve">
<g>
	<path fill="#D68B62" d="M474.49,218.97c19.28,16.29-63.65-2.24-142.16-2.24c-78.5,0-154.27,12.65-142.15,2.24
		c15.15-13,63.65-36.16,142.15-36.16C410.84,182.81,459.23,206.08,474.49,218.97z"/>
	<path fill="#D68B62" d="M610.51,38.64C575.45,36.15,496.45,0,439.81,0c-52.79,0-103.74,16.78-111.63,21.2
		C320.29,16.78,264.69,0,211.89,0C155.25,0,80.92,36.15,45.86,38.64C10.79,41.13,0,28.66,0,28.66S1.06,45,8.09,49.87
		c32.82,22.79,91.72-2.99,161.85-0.5c62.06,2.21,101.21,17.12,156.38,20.06c0.3,0.1,3.44,0.1,3.73,0
		c55.17-2.94,94.31-17.85,156.38-20.06c70.13-2.49,129.02,23.3,161.85,0.5c7.02-4.88,8.08-21.21,8.08-21.21
		S645.58,41.13,610.51,38.64z"/>
	<path fill="#AC5F4A" d="M619.08,51.17c-33.7-0.19-80.01-19.64-132.66-17.77c-62.06,2.21-101.21,17.13-156.38,20.06
		c-0.3,0.1-3.44,0.1-3.73,0c-55.17-2.93-94.33-17.85-156.38-20.06c-52.38-1.86-98.5,17.4-132.16,17.77c-4.7,0.05-12.28,0.58-18.04,0
		c-8.21-0.83-13.85-2.72-11.65-1.3c33.59,21.64,91.72-2.99,161.85-0.5c62.06,2.21,101.21,17.12,156.38,20.06
		c0.3,0.1,3.44,0.1,3.73,0c55.17-2.94,94.31-17.85,156.38-20.06c70.13-2.49,128.7,22.81,161.85,0.5c1.77-1.19-4,0.85-11.41,1.57
		C630.97,52.01,624.05,51.2,619.08,51.17z"/>
</g>
</svg>
