<?xml version="1.0" encoding="utf-8"?>
<!-- Generator: Adobe Illustrator 23.0.6, SVG Export Plug-In . SVG Version: 6.00 Build 0)  -->
<svg version="1.1" id="Capa_1" xmlns="http://www.w3.org/2000/svg" xmlns:xlink="http://www.w3.org/1999/xlink" x="0px" y="0px"
	 viewBox="0 0 606.98 290.89" style="enable-background:new 0 0 606.98 290.89;" xml:space="preserve">
<style type="text/css">
	.st0{fill:#674234;}
	.st1{fill:#563930;}
	.st2{fill-rule:evenodd;clip-rule:evenodd;fill:#674234;}
	.st3{fill:#FFFFFF;}
	.st4{fill:#D68B62;}
	.st5{fill:#AC5F4A;}
	.st6{fill-rule:evenodd;clip-rule:evenodd;fill:#FFFFFF;}
	.st7{fill:#DF6958;}
	.st8{fill:#37333D;}
	.st9{fill:#CD3D3C;}
	.st10{fill-rule:evenodd;clip-rule:evenodd;fill:#DA4D4B;}
	.st11{fill-rule:evenodd;clip-rule:evenodd;fill:#ED625F;}
	.st12{fill:#DA4D4B;}
	.st13{fill-rule:evenodd;clip-rule:evenodd;fill:#CD3D3C;}
	.st14{fill-rule:evenodd;clip-rule:evenodd;fill:#ED8173;}
	.st15{fill-rule:evenodd;clip-rule:evenodd;fill:#37333D;}
	.st16{fill:#ED625F;}
	.st17{fill:#ED8173;}
	.st18{fill:#B62D32;}
	.st19{fill-rule:evenodd;clip-rule:evenodd;fill:#B62D32;}
	.st20{fill:#CE5D51;}
	.st21{fill:#B73535;}
	.st22{fill:#D69062;}
</style>
<g>
	<path class="st6" d="M538.62,90.47c-25.37-24.81-53.34-50.75-86.75-64.87c-27.66-11.69-56.01-19.79-86.28-14.12
		c-15.08,2.82-29.74,8.19-44.26,13.28c-5.77,2.03-11.48,3.69-17.21,4.58c-5.74-0.88-11.44-2.55-17.22-4.58
		c-14.52-5.09-29.18-10.46-44.26-13.28c-30.27-5.67-58.62,2.43-86.28,14.12c-33.4,14.12-61.38,40.06-86.75,64.87
		c-4.86,4.75-45.91,46.4-45.91,46.4s90.1,70.8,134.78,99.08c28.04,17.75,59.38,29.62,92.96,32.67c17.46,1.58,35.07,2.18,52.67,2.17
		c17.6,0.01,35.21-0.59,52.67-2.17c33.58-3.05,64.92-14.92,92.96-32.67c44.68-28.28,134.78-99.08,134.78-99.08
		S543.48,95.22,538.62,90.47z"/>
	<path class="st13" d="M557.29,90.04c-27.46-27.63-57.73-56.53-93.89-72.25C433.46,4.77,402.78-4.25,370.02,2.06
		c-16.32,3.14-32.18,9.12-47.91,14.79c-6.25,2.26-12.42,4.11-18.63,5.1c-6.21-0.99-12.38-2.84-18.63-5.1
		c-15.72-5.67-31.59-11.65-47.91-14.79c-32.76-6.32-63.44,2.71-93.38,15.72c-36.15,15.73-66.43,44.62-93.89,72.25
		C44.43,95.33,0,141.72,0,141.72s97.51,78.86,145.87,110.36c30.35,19.77,64.27,32.99,100.61,36.39c18.9,1.77,37.96,2.43,57.01,2.42
		c19.05,0.01,38.11-0.65,57.01-2.42c36.34-3.4,70.26-16.62,100.61-36.39c48.35-31.5,145.87-110.36,145.87-110.36
		S562.54,95.33,557.29,90.04z M371.21,140.35c-13.32,0.3-41.79,2.02-66.29,1.84v-0.03c-0.48,0.01-0.95,0.01-1.44,0.02
		c-0.48-0.01-0.96-0.01-1.43-0.02v0.03c-24.5,0.17-52.97-1.54-66.29-1.84c-21.57-0.5-39.97-6.31-87.5-19.06
		c25.22-5.94,35.54-5.92,41.39-5.97c20.87-0.18,29.86,0.3,50.3-0.22c8.95-0.23,37.14-1.79,62.1-1.07c0,0,0.96,0.06,1.43,0.04
		c0.48,0.01,0.96,0.03,1.44,0.05c0,0,53.15,0.75,62.09,0.98c20.44,0.52,29.43,0.04,50.3,0.22c5.84,0.05,14.96,0.93,41.39,5.97
		C411.18,133.51,392.78,139.85,371.21,140.35z"/>
</g>
</svg>
