<?xml version="1.0" encoding="utf-8"?>
<!-- Generator: Adobe Illustrator 23.0.6, SVG Export Plug-In . SVG Version: 6.00 Build 0)  -->
<svg version="1.1" id="Capa_1" xmlns="http://www.w3.org/2000/svg" xmlns:xlink="http://www.w3.org/1999/xlink" x="0px" y="0px"
	 viewBox="0 0 722.53 287.86" enable-background="new 0 0 722.53 287.86" xml:space="preserve">
<g>
	<path fill-rule="evenodd" clip-rule="evenodd" fill="#674234" d="M700.77,40.83c2.2,32.14-3.83,39.64-40.24,36.56
		c-53.97-4.58-107.24-19.02-163.38-1.76c6.31-10.85,11.11-19.12,15.16-26.08c-15.39,10.81-31.21,21.92-52.84,37.11
		c12.3-19.2,20.16-31.47,28.01-43.73c-23.06,37.28-74.4,50.25-120.7,50.83c0.14-0.14-1.77,0.27-1.59,0.12
		c-47.86,0.81-105.84-12.13-130.13-51.39c7.85,12.27,15.71,24.53,28.01,43.73c-21.64-15.19-37.46-26.3-52.84-37.11
		c4.05,6.96,8.86,15.23,15.16,26.09C169.23,57.92,115.97,72.36,62,76.93c-36.41,3.09-42.45-4.4-40.23-36.55
		C1.36,76.76-9.21,112.09,10.41,155.06c0-23.44,0-41.79,0-66.19c25.61,13.33,47.42,22.77,66.66,35.1
		c42.42,27.22,80.52,60.52,126.26,82.41c33.96,10.8,72.33,15.16,109.15,21.36c15.5,2.6,31.33,3.79,47.95,5.66
		c0,0.22,33.6-2.52,49.61-5.21c36.83-6.19,75.19-10.56,109.15-21.36c45.72-21.89,83.83-55.19,126.26-82.4
		c19.23-12.35,41.05-21.78,66.66-35.11c0,24.4,0,42.76,0,66.19C731.74,112.54,721.17,77.2,700.77,40.83z M631.18,105.59
		c-29.18,45.98-74.46,77.26-133.49,88.18c-43.87,8.12-135.61,10.25-135.61,10.14c-46.17-3.22-92.86-2.37-137.25-10.58
		c-59.04-10.92-104.32-42.2-133.49-88.18c-1.61-2.53-16.59-17.07,11.19-14.32c43.54-1.75,87.18-3.17,130.74-2.35
		c32.85,0.62,90.45,9.74,125.22,12.37c2.76,0.18,96.55-11.28,130.74-11.92c43.56-0.82,87.21,0.59,130.74,2.34
		C647.77,88.53,632.79,103.06,631.18,105.59z"/>
	<path fill-rule="evenodd" clip-rule="evenodd" fill="#674234" d="M541.49,8.05c-29.24-5.37-42.86-10.54-72.04-5.65
		c-35.51,13.14-65.96,19.21-107.48,27.47c0-0.12,0-0.17,0-0.17C319.72,21.29,289,15.26,253.08,1.96c-29.2-4.89-42.8,0.28-72.04,5.65
		c-11.83,2.91-36.56,11.31-47.99,14.76c0.49,1.3,34.72-5.98,53.3-8.44c29.51-7.12,56.46-1.02,84.92,9.82
		c25.73,7.68,55.62,12.93,89.28,18.6c0,0.24,64.6-10.36,90.71-18.15c28.45-10.85,55.4-16.95,84.91-9.82
		c18.58,2.46,52.81,9.74,53.31,8.43C578.05,19.36,553.31,10.96,541.49,8.05z"/>
	<path fill-rule="evenodd" clip-rule="evenodd" fill="#674234" d="M525.74,274.99c-54.25,0-108.51,0-163.53,0c-0.63,0-1.26,0-1.9,0
		c-55.02,0-109.27,0-163.53,0c0,2.14,106.72,10.52,163.53,12.8c0,0.03,0,0.05,0,0.08c0.32-0.01,0.63-0.02,0.95-0.04
		c0.32,0.01,0.64,0.03,0.95,0.04c0-0.02,0-0.04,0-0.08C419.03,285.51,525.75,277.13,525.74,274.99z"/>
</g>
</svg>
