<?xml version="1.0" encoding="utf-8"?>
<!-- Generator: Adobe Illustrator 23.0.6, SVG Export Plug-In . SVG Version: 6.00 Build 0)  -->
<svg version="1.1" id="Capa_1" xmlns="http://www.w3.org/2000/svg" xmlns:xlink="http://www.w3.org/1999/xlink" x="0px" y="0px"
	 viewBox="0 0 676.59 238.27" style="enable-background:new 0 0 676.59 238.27;" xml:space="preserve">
<style type="text/css">
	.st0{fill:#674234;}
	.st1{fill:#563930;}
	.st2{fill-rule:evenodd;clip-rule:evenodd;fill:#674234;}
	.st3{fill:#FFFFFF;}
	.st4{fill:#D68B62;}
	.st5{fill:#AC5F4A;}
	.st6{fill-rule:evenodd;clip-rule:evenodd;fill:#FFFFFF;}
	.st7{fill:#DF6958;}
	.st8{fill:#37333D;}
	.st9{fill:#CD3D3C;}
	.st10{fill-rule:evenodd;clip-rule:evenodd;fill:#DA4D4B;}
	.st11{fill-rule:evenodd;clip-rule:evenodd;fill:#ED625F;}
	.st12{fill:#DA4D4B;}
	.st13{fill-rule:evenodd;clip-rule:evenodd;fill:#CD3D3C;}
	.st14{fill-rule:evenodd;clip-rule:evenodd;fill:#ED8173;}
	.st15{fill-rule:evenodd;clip-rule:evenodd;fill:#37333D;}
	.st16{fill:#ED625F;}
	.st17{fill:#ED8173;}
	.st18{fill:#B62D32;}
	.st19{fill-rule:evenodd;clip-rule:evenodd;fill:#B62D32;}
	.st20{fill:#CE5D51;}
	.st21{fill:#B73535;}
	.st22{fill:#D69062;}
</style>
<path class="st9" d="M553.44,65.83c-21.54-14.81-43.14-29.12-66.01-41.81C456.67,6.95,429.21-0.3,393.96,0.95
	c-21.98,4.55-39.47,7.09-54.8,8.23c-15.32-1.34-32.78-4.1-54.69-8.93c-35.25-1.71-62.81,5.21-93.78,21.88
	c-23.01,12.37-44.89,26.18-66.53,40.94C84,90.49,41.32,114.61,0,140.54c26.3-3.34,94.43,26.78,112.94,40.2
	c31.04,20.17,61.04,31.42,95.62,43.32c41.67,14.33,85.43,13.79,129.13,14.07c43.7,0.28,87.45,1.39,129.3-12.42
	c34.73-11.45,64.88-22.32,96.16-42.09c18.67-13.19,87.19-42.43,113.43-38.75C636.3,117.28,593.44,93.32,553.44,65.83z"/>
</svg>
