<?xml version="1.0" encoding="utf-8"?>
<!-- Generator: Adobe Illustrator 23.0.6, SVG Export Plug-In . SVG Version: 6.00 Build 0)  -->
<svg version="1.1" id="Capa_1" xmlns="http://www.w3.org/2000/svg" xmlns:xlink="http://www.w3.org/1999/xlink" x="0px" y="0px"
	 viewBox="0 0 744.4 280.53" style="enable-background:new 0 0 744.4 280.53;" xml:space="preserve">
<style type="text/css">
	.st0{fill:#674234;}
	.st1{fill:#563930;}
	.st2{fill-rule:evenodd;clip-rule:evenodd;fill:#674234;}
	.st3{fill:#FFFFFF;}
	.st4{fill:#D68B62;}
	.st5{fill:#AC5F4A;}
	.st6{fill-rule:evenodd;clip-rule:evenodd;fill:#FFFFFF;}
	.st7{fill:#DF6958;}
	.st8{fill:#37333D;}
	.st9{fill:#CD3D3C;}
	.st10{fill-rule:evenodd;clip-rule:evenodd;fill:#DA4D4B;}
	.st11{fill-rule:evenodd;clip-rule:evenodd;fill:#ED625F;}
	.st12{fill:#DA4D4B;}
	.st13{fill-rule:evenodd;clip-rule:evenodd;fill:#CD3D3C;}
	.st14{fill-rule:evenodd;clip-rule:evenodd;fill:#ED8173;}
	.st15{fill-rule:evenodd;clip-rule:evenodd;fill:#37333D;}
	.st16{fill:#ED625F;}
	.st17{fill:#ED8173;}
	.st18{fill:#B62D32;}
	.st19{fill-rule:evenodd;clip-rule:evenodd;fill:#B62D32;}
	.st20{fill:#CE5D51;}
	.st21{fill:#B73535;}
	.st22{fill:#D69062;}
</style>
<g>
	<path class="st0" d="M364.68,124.19c0,0,1.66,0.34,2.47,0.26c0.82,0.09,2.48-0.26,2.48-0.26c58.32-6.24,138.16-39.7,187.37-39.86
		c60.15-0.2,160.78-20.15,187.41-26.43c0,0-227.21-57.84-268.68-57.9c-28.91-0.04-81.56,17.91-108.57,29.33
		C340.14,17.91,287.49-0.04,258.58,0C217.1,0.06,0,57.9,0,57.9c26.64,6.27,117.15,26.23,177.3,26.43
		C226.51,84.49,306.35,117.95,364.68,124.19z"/>
	<path class="st0" d="M516.34,223.78c-48.78,3.36-99.15,8.81-149.19,9.89c-50.04-1.08-100.42-6.53-149.21-9.89
		c-50.35-3.47-113.1-25.44-105.5-20.95c57.25,27.38,115.13,77.7,254.7,77.7c140.09,0,197.47-49.27,254.7-76.65
		C629.46,199.38,566.71,220.31,516.34,223.78z"/>
</g>
</svg>
