<?xml version="1.0" encoding="utf-8"?>
<!-- Generator: Adobe Illustrator 23.0.6, SVG Export Plug-In . SVG Version: 6.00 Build 0)  -->
<svg version="1.1" id="Capa_1" xmlns="http://www.w3.org/2000/svg" xmlns:xlink="http://www.w3.org/1999/xlink" x="0px" y="0px"
	 viewBox="0 0 570.13 161.2" style="enable-background:new 0 0 570.13 161.2;" xml:space="preserve">
<style type="text/css">
	.st0{fill:#674234;}
	.st1{fill:#563930;}
	.st2{fill-rule:evenodd;clip-rule:evenodd;fill:#674234;}
	.st3{fill:#FFFFFF;}
	.st4{fill:#D68B62;}
	.st5{fill:#AC5F4A;}
	.st6{fill-rule:evenodd;clip-rule:evenodd;fill:#FFFFFF;}
	.st7{fill:#DF6958;}
	.st8{fill:#37333D;}
	.st9{fill:#CD3D3C;}
	.st10{fill-rule:evenodd;clip-rule:evenodd;fill:#DA4D4B;}
	.st11{fill-rule:evenodd;clip-rule:evenodd;fill:#ED625F;}
	.st12{fill:#DA4D4B;}
	.st13{fill-rule:evenodd;clip-rule:evenodd;fill:#CD3D3C;}
	.st14{fill-rule:evenodd;clip-rule:evenodd;fill:#ED8173;}
	.st15{fill-rule:evenodd;clip-rule:evenodd;fill:#37333D;}
	.st16{fill:#ED625F;}
	.st17{fill:#ED8173;}
	.st18{fill:#B62D32;}
	.st19{fill-rule:evenodd;clip-rule:evenodd;fill:#B62D32;}
	.st20{fill:#CE5D51;}
	.st21{fill:#B73535;}
	.st22{fill:#D69062;}
</style>
<g>
	<path class="st9" d="M413.06,51.32c-4.75-0.02-9.23-0.26-13.29-0.76c-6.71-0.83-13.81-1.22-21.08-1.25
		c-36.37-0.18-76.94,8.28-92.67,11.92c-0.01,0.12-57.67-12.1-94.05-11.92c-7.27,0.03-14.38,0.42-21.07,1.25
		c-4.07,0.51-8.55,0.75-13.3,0.76C129.05,51.49,17.45,14.56,23.41,21.28c19.3,21.78,43.32,53.79,61.07,71.78
		c62.69,63.46,124.29,65.18,196.33,68.07c1.47,0.1,7.56,0.1,9.02,0c72.07-2.88,133.65-4.61,196.34-68.07
		c17.77-17.99,41.4-51.61,61.09-71.78C553.53,14.84,441.59,51.49,413.06,51.32z"/>
	<path class="st9" d="M534.68,10.43c-38.06,8.88-79.1,3.96-116.8-0.95c-44.31-5.78-87.41-6.04-132.83,0.44
		c-46.68-6.5-91.31-6.5-136.79-0.67c-36.26,4.65-76.51,11.07-112.82,1.18C13.17,4.37,0,0,0,0s1.04,10.09,6.79,15.02
		c29.83,25.54,71.09,42.9,109.37,50.87c53.46,11.12,110.16,9.56,166.35,11.35c0.4,0.09,4.67,0.09,5.08,0
		c56.2-1.79,112.93-0.19,166.37-11.34c38.28-7.99,79.55-25.33,109.37-50.87c5.76-4.93,6.8-15.02,6.8-15.02S557.29,5.17,534.68,10.43
		z"/>
	<path class="st21" d="M569.59,0.72c-0.76,2.88-2.57,7.55-6.26,10.23c-31.17,22.59-71.16,36.16-109.37,42.81
		c-54.54,9.5-110.29,13.3-166.35,15.95c-0.4,0.06-4.69,0.06-5.09,0c-56.05-2.66-111.81-6.47-166.35-15.95
		C77.96,47.11,37.96,33.53,6.79,10.95C3.1,8.27,1.29,3.61,0.54,0.72C0.18,0.27,0,0,0,0s1.04,10.09,6.79,15.02
		c29.83,25.54,70.69,42.32,109.37,50.87c54.12,11.96,109.98,16.22,166.34,19.46c0.41,0.08,4.68,0.08,5.09,0
		c56.37-3.23,112.27-7.47,166.37-19.45c38.67-8.57,79.55-25.33,109.37-50.87c5.76-4.93,6.8-15.02,6.8-15.02S569.95,0.27,569.59,0.72
		z"/>
</g>
</svg>
