<?xml version="1.0" encoding="utf-8"?>
<!-- Generator: Adobe Illustrator 23.0.6, SVG Export Plug-In . SVG Version: 6.00 Build 0)  -->
<svg version="1.1" id="Capa_1" xmlns="http://www.w3.org/2000/svg" xmlns:xlink="http://www.w3.org/1999/xlink" x="0px" y="0px"
	 viewBox="0 0 581.54 228.22" enable-background="new 0 0 581.54 228.22" xml:space="preserve">
<g>
	<path fill="#FFFFFF" d="M579.94,125.99c-86.82,42.99-190.71,77.55-288.02,77.46c-97.28-0.09-213.5-29.88-289.55-77.86
		c83.91-67.98,185.88-89.43,289.66-89.33C395.81,36.37,496.14,57.81,579.94,125.99z"/>
	<g>
		<path fill="#37333D" d="M76.95,86.86c3.79,11.47,7.59,31.23,11.41,42.73c7.03,2.17,10.53,3.29,17.49,5.57
			c-1.4,7.41-2.09,16.63-3.42,24.05c-16.76,1.09-36.25,6.2-60.59-3.38C26.43,149.76,0,127.47,0,127.47
			C13.41,116.68,52,93.66,76.95,86.86z"/>
		<path fill="#37333D" d="M504.04,84.01c-3.79,11.47-7.59,34-11.4,45.5c-7.04,2.17-10.53,3.29-17.5,5.57
			c0.94,8.25,1.84,16.51,2.68,24.78c16.28-0.8,49.03,2.12,73.34-6.82c17.19-6.34,30.17-25.58,30.16-25.58
			C577.08,124.48,535.98,92.71,504.04,84.01z"/>
	</g>
	<g>
		<path fill="#CD3D3C" d="M290.77,44.8c54.37,0.05,109.65,5.64,160.56,24.61c45.57,16.98,88.3,29.19,130.21,58.05
			C533.18,73.91,468.51,16.98,401.98,4.23C365.9-2.68,327.56,1.2,290.77,1.18c-34.72-0.02-70.91-3.89-104.94,2.5
			c-43.07,8.08-83.29,40.8-120.35,67.36c-23.49,16.84-45.35,34.54-65.47,56.42c43.64-30,88.57-43.97,137.13-60.56
			C186.77,49.95,238.86,44.76,290.77,44.8z"/>
		<path fill="#B73535" d="M451.33,58.39c-50.91-18.98-106.19-24.57-160.56-24.62c-51.9-0.04-104,5.16-153.64,22.11
			C90.35,71.86,46.93,93.95,4.78,122.36c-1.6,1.7-3.21,3.39-4.78,5.11c43.64-30,88.57-43.97,137.13-60.56
			c49.64-16.96,101.73-22.14,153.64-22.1c54.37,0.05,109.65,5.64,160.56,24.61c45.57,16.98,88.3,29.19,130.21,58.05
			c-1.49-1.65-2.99-3.3-4.51-4.93C536.56,95.24,495.27,74.75,451.33,58.39z"/>
		<path fill="#CD3D3C" d="M291.75,161.84c-75.12,0.6-151.01,1.42-226.61-4.9c-21.74-1.82-43.47-25.77-65.14-28.95
			c31.41,31.33,77.66,85.11,117.83,92.72c39.07,7.41,80.24,7.5,120.87,7.39c35.36-0.97,70.68-0.93,106.04,0.09
			c40.31,0.18,81.16,0.13,119.88-7.35c39.85-7.68,91.17-62.68,116.92-92.85c-7.69,1.55-33.78,24.99-68.74,26.83
			C449.33,158.16,356.66,161.31,291.75,161.84z"/>
	</g>
</g>
</svg>
