<?xml version="1.0" encoding="utf-8"?>
<!-- Generator: Adobe Illustrator 23.0.6, SVG Export Plug-In . SVG Version: 6.00 Build 0)  -->
<svg version="1.1" id="Capa_1" xmlns="http://www.w3.org/2000/svg" xmlns:xlink="http://www.w3.org/1999/xlink" x="0px" y="0px"
	 viewBox="0 0 607.49 317.09" style="enable-background:new 0 0 607.49 317.09;" xml:space="preserve">
<style type="text/css">
	.st0{fill:#674234;}
	.st1{fill:#563930;}
	.st2{fill-rule:evenodd;clip-rule:evenodd;fill:#674234;}
	.st3{fill:#FFFFFF;}
	.st4{fill:#D68B62;}
	.st5{fill:#AC5F4A;}
	.st6{fill-rule:evenodd;clip-rule:evenodd;fill:#FFFFFF;}
	.st7{fill:#DF6958;}
	.st8{fill:#37333D;}
	.st9{fill:#CD3D3C;}
	.st10{fill-rule:evenodd;clip-rule:evenodd;fill:#DA4D4B;}
	.st11{fill-rule:evenodd;clip-rule:evenodd;fill:#ED625F;}
	.st12{fill:#DA4D4B;}
	.st13{fill-rule:evenodd;clip-rule:evenodd;fill:#CD3D3C;}
	.st14{fill-rule:evenodd;clip-rule:evenodd;fill:#ED8173;}
	.st15{fill-rule:evenodd;clip-rule:evenodd;fill:#37333D;}
	.st16{fill:#ED625F;}
	.st17{fill:#ED8173;}
	.st18{fill:#B62D32;}
	.st19{fill-rule:evenodd;clip-rule:evenodd;fill:#B62D32;}
	.st20{fill:#CE5D51;}
	.st21{fill:#B73535;}
	.st22{fill:#D69062;}
</style>
<g>
	<path class="st6" d="M558.17,100.45c-55.11-30.61-58.69-37.77-121.16-68.29c-52.66-25.73-103.16-14.3-133.26,10.86
		c-30.11-25.15-85.97-36.58-134.31-10.86c-56.34,29.99-65,37.68-120.11,68.29c-10.57,5.87-21.31,11.55-31.96,17.22
		c27.68,27.02,53.73,77.28,82.78,104.06c34.24,31.57,87.68,63.02,126.36,69.1c3.64,0.57,33.22,8.75,68.93,9.11v0.01
		c0.37,0,0.73,0,1.09-0.01c0.36,0,0.73,0,1.09,0.01v-0.01c0.76-0.01,1.51-0.03,2.26-0.04c0.75,0.01,1.5,0.03,2.25,0.04v0.01
		c0.36,0,0.72,0,1.09-0.01c0.36,0.01,0.73,0.01,1.09,0.01v-0.01c35.71-0.35,73.05-8.54,76.69-9.11
		c38.68-6.08,92.12-37.53,126.36-69.1c29.04-26.78,55.1-77.04,82.78-104.06C579.48,112.01,568.74,106.33,558.17,100.45z"/>
	<path class="st13" d="M573.59,93.03c-58.45-34.39-62.25-42.42-128.5-76.7C389.24-12.57,335.68,0.27,303.75,28.52
		c-31.93-28.25-91.19-41.09-142.46-12.19C101.53,50.01,92.36,58.64,33.9,93.03C22.68,99.62,11.29,106,0,112.37
		c29.36,30.35,56.99,86.8,87.8,116.87c36.32,35.46,92.99,70.78,134.02,77.6c3.86,0.64,35.24,9.84,73.11,10.23v0.02
		c0.38,0,0.77-0.01,1.16-0.01c0.38,0,0.77,0,1.15,0.01v-0.02c0.8-0.01,1.6-0.03,2.4-0.04c0.8,0.02,1.59,0.03,2.39,0.04v0.02
		c0.38,0,0.77-0.01,1.16-0.01c0.38,0,0.77,0.01,1.15,0.01v-0.02c37.88-0.4,77.48-9.59,81.34-10.23
		c41.02-6.82,97.71-42.14,134.02-77.6c30.8-30.08,58.43-86.52,87.8-116.87C596.2,106,584.81,99.62,573.59,93.03z M303.75,199.36
		c-79.71-0.65-186.27-35.04-244.48-78.14c44.1,0.25,127.42,3.89,166.24,5.33c25.45,0.94,50.88,1.85,76.3,2.42v0.07
		c0.03,0,0.07,0,0.1,0v0.02c0.12,0,0.24-0.01,0.36-0.01l0.36-0.01c0.37-0.01,0.75-0.02,1.12-0.02c0.37,0.01,0.75,0.02,1.12,0.02
		l0.36,0.01c0.12,0,0.24,0.01,0.36,0.01v-0.02c0.03,0,0.07,0,0.1,0v-0.07c25.42-0.57,50.85-1.48,76.3-2.42
		c38.82-1.44,122.14-5.09,166.25-5.33C490.01,164.31,383.46,198.71,303.75,199.36z"/>
</g>
</svg>
