<?xml version="1.0" encoding="utf-8"?>
<!-- Generator: Adobe Illustrator 23.0.6, SVG Export Plug-In . SVG Version: 6.00 Build 0)  -->
<svg version="1.1" id="Capa_1" xmlns="http://www.w3.org/2000/svg" xmlns:xlink="http://www.w3.org/1999/xlink" x="0px" y="0px"
	 viewBox="0 0 152.12 157.61" enable-background="new 0 0 152.12 157.61" xml:space="preserve">
<g>
	<path fill="#674234" d="M91.72,0C67.24,0,47.39,5.5,47.39,37.32s19.85,57.62,44.34,57.62s44.34-25.8,44.34-57.62S116.21,0,91.72,0z
		"/>
	<path fill="#674234" d="M87.08,149.85C31.81,151.88,2.9,126.02,5.74,70.23C6.33,58.7,12.2,40.49,17.06,30.66
		C6.94,47.47,0.09,70.64,0,90.52c-0.18,38.4,26.23,67.68,67.81,67.08c33.13-0.48,68.25-7.24,84.31-42.98
		C136.06,139.2,111.14,148.97,87.08,149.85z"/>
</g>
</svg>
