<?xml version="1.0" encoding="utf-8"?>
<!-- Generator: Adobe Illustrator 23.0.6, SVG Export Plug-In . SVG Version: 6.00 Build 0)  -->
<svg version="1.1" id="Capa_1" xmlns="http://www.w3.org/2000/svg" xmlns:xlink="http://www.w3.org/1999/xlink" x="0px" y="0px"
	 viewBox="0 0 548.5 421.78" style="enable-background:new 0 0 548.5 421.78;" xml:space="preserve">
<style type="text/css">
	.st0{fill:#674234;}
	.st1{fill:#563930;}
	.st2{fill-rule:evenodd;clip-rule:evenodd;fill:#674234;}
	.st3{fill:#FFFFFF;}
	.st4{fill:#D68B62;}
	.st5{fill:#AC5F4A;}
	.st6{fill-rule:evenodd;clip-rule:evenodd;fill:#FFFFFF;}
	.st7{fill:#DF6958;}
	.st8{fill:#37333D;}
	.st9{fill:#CD3D3C;}
	.st10{fill-rule:evenodd;clip-rule:evenodd;fill:#DA4D4B;}
	.st11{fill-rule:evenodd;clip-rule:evenodd;fill:#ED625F;}
	.st12{fill:#DA4D4B;}
	.st13{fill-rule:evenodd;clip-rule:evenodd;fill:#CD3D3C;}
	.st14{fill-rule:evenodd;clip-rule:evenodd;fill:#ED8173;}
	.st15{fill-rule:evenodd;clip-rule:evenodd;fill:#37333D;}
	.st16{fill:#ED625F;}
	.st17{fill:#ED8173;}
	.st18{fill:#B62D32;}
	.st19{fill-rule:evenodd;clip-rule:evenodd;fill:#B62D32;}
	.st20{fill:#CE5D51;}
	.st21{fill:#B73535;}
	.st22{fill:#D69062;}
</style>
<g>
	<path class="st12" d="M546.84,182.3c-7.85-40.72-42.28-71.69-75.68-101.07C418.11,34.56,347.98-39.4,273.16,25.51
		c1.18-0.98-37.38-17.18-41.44-17.93c-13.28-2.43-27.87-2.96-41.23-0.98c-43.69,6.46-83.89,46.48-117.38,75.31
		C26.26,122.25-19.18,169.9,8.35,240.06C29.1,292.93,69.54,335,112.42,367.81c53.42,40.88,102.95,53.98,160.78,53.97
		c57.84-0.01,107.89-10.35,160.7-52.87c42.87-34.52,84.58-73.83,106.1-127.9C548.67,219.19,550.22,199.84,546.84,182.3z"/>
	<path class="st17" d="M483.98,231.21c5.54,0.5,11,0.76,16.57,0.72c-7.41-4.99-14.83-9.99-22.24-14.98
		c1.69,3.52,3.39,7.03,5.1,10.54c-5.48-1.9-10.9-3.91-16.29-6.03c6.5,6.08,12.94,12.21,19.33,18.38
		c-10.06-4.96-19.93-10.17-29.67-15.62c6.68,7.67-2.56,6.03-13.59-2.67c6.08,8.42,12,16.93,17.75,25.53
		c-7.22-4.21-14.33-8.55-21.35-13.04c4.82,6.99,0.42,10.62-6.32,5.25c9.2,9.49,18.37,19,27.52,28.53
		c-14.71-7.94-28.76-16.67-42.3-26.14c10.3,12.6,20.48,25.28,30.56,38.03c-13.5-12.37-26.66-25.02-39.51-37.93
		c10.04,15.19,0.79,19.81-12.48,5.96c6.99,13.74,13.57,27.63,19.76,41.67c-8.87-8.02-17.43-16.27-25.71-24.78
		c4.56,11.12-13.43,1.89-25.48-14.68c4.16,13.26,7.87,26.62,11.15,40.08c-8.73-15.43-17.23-30.95-25.51-46.58
		c4.09,17.69,7.24,35.5,9.51,53.46c-7.16-15.9-14.15-31.86-20.98-47.89c8.59,23.2,3.57,24.58-6.32,1.62
		c5.15,21.39,9.64,42.89,13.48,64.51c-6.78-14.59-13.16-29.31-19.16-44.17c2.05,15.75-9.76,3.7-16.13-18.36
		c1.52,19.73-9.99,25.56-14.99,8.39c1.73,21.99-4.51,36.05-8.14,20.89c-0.04,14.45-0.27,28.9-0.69,43.35
		c-6.66-19.63-12.05-39.51-16.14-59.7c-0.05,21.64,0.03,43.28,0.23,64.92c-4.17-21.57-7.24-43.25-9.21-65.06
		c-2.3,17.57-4.88,35.11-7.75,52.62c-0.88-13.44-1.45-26.88-1.71-40.34c-4.28,13.08-9.02,26.01-14.26,38.81
		c2.95-16.28,3.19-32.7,3.43-49.16c-5.61,17.93-9.86,12.81-5.3-7.34c-6.66,22.24-13.94,44.32-21.85,66.23
		c-0.89-17.26,3.35-34.05,6.64-50.94c-2.93,12.53-9.86,14.1-7.43,2.24c-5.77,16.92-9.93,9.22-5.07-11.35
		c-4.81,13.52-9.63,27.03-14.44,40.54c3.3-15.5,6.97-30.92,11.01-46.27c-8.12,17.22-16.59,34.29-25.42,51.22
		c4.5-17.68,9.5-35.23,15-52.68c-9.7,18.84-22.1,26.11-17.41,11.28c-8.12,12-5.56-1.98,4.38-20.68
		c-11.23,15.42-20.14,12.29-11.92-3.91c-8.18,9.53-16.6,18.87-25.3,28.02c7.17-11.43,14.41-22.83,21.71-34.19
		c-13.14,13.62-26.94,26.65-41.49,39.07c10.13-14.18,20.34-28.32,30.63-42.4c-9.12,10.73-18.34,21.39-27.69,31.95
		c4.97-7.62,10.01-15.2,15.11-22.75c-8.6,7.75-12.22,0.23-4.77-10.79c-9.11,9.41-18.31,18.77-27.58,28.06
		c6.83-11.37,13.94-22.59,21.34-33.67c-12.05,11.16-23.89,16.28-17.34,8.01c-6.92,5.73-13.9,11.4-20.94,17.01
		c6.44-10.3,13.13-20.46,20.08-30.49c-10.28,7.66-14.22,5.57-5.6-2.81c-10.41,7.92-18.16,9.42-11.39,2.46
		c-9.21,4.31-18.56,8.29-28.13,11.92c10.06-6.87,19.63-14.24,29.2-21.63c-8.68,4.71-17.46,9.24-26.37,13.58
		c4.26-4.88,6.9-10.15,9.43-15.88c-9.6,9.25-20.74,16.14-33.01,22.24c7.19-1.1,14.22-2.56,21.25-4.31
		c-8.06,6.84-16.07,13.73-24.03,20.68c11.11-3.99,21.93-8.46,32.59-13.35c-8.6,8.6-17.09,17.29-25.47,26.07
		c9-4.9,17.86-9.98,26.62-15.24c-6.84,8.29-13.54,16.66-20.12,25.12c11.42-8.79,19.98-7.41,13.28,2.4
		c6.32-4.79,12.58-9.62,18.8-14.51c-4.01,6.97-7.9,13.98-11.68,21.05c11.64-9.98,23.1-20.12,34.42-30.4
		c-7.16,10.07-14.13,20.24-20.93,30.51c6.93-4.9,4.68,5.54-3.06,15.93c11.94-9.49,23.53-19.31,34.81-29.43
		c-6.8,10.42-13.45,20.91-19.97,31.46c13.27-10.26,14.19-1.32,2,14.05c12.75-11.3,24.97-23.01,36.74-35.14
		c-9.45,16.26-18.67,32.63-27.67,49.09c12.39-17.84,24.64-35.75,36.77-53.74c-10.23,19.34-20.03,38.85-29.44,58.52
		c10.21-12.74,17.74-8.54,12.24,6.72c11.79-16.09,23.11-32.43,33.98-49.04c-7.71,18.05-15.12,36.2-22.28,54.43
		c11.27-14.01,18.02-10.97,11.06,5.11c11.9-15.57,23-31.57,33.35-48c-6.83,17.64-13.67,35.27-20.54,52.89
		c8.05-13.85,19.7-16.94,18.49-4.35c6.99-9.81,13.61-19.81,19.87-30.02c-3.25,14.9-11.47,40.2-14.47,55.13
		c6.49-11.27,21.52-25.34,20.74-15.66c8.06-21.72,15.36-43.64,21.93-65.76c-4.89,24.28-16.4,67.21-21.65,91.43
		c10.32-20.51,25.75-60.16,33.41-81.58c-1.62,14.29-6.12,56.65-7.71,70.94c2.91-6.77,9.8-6.49,8.76,8.14
		c5.48-22.79,9.42-58.46,13.35-81.51c1.64,23.3,3.79,77.75,7.08,100.91c3.38-19.22,12.48-32.41,16.35-17.52
		c1.44-13.18,5.18-53.01,6.08-66.23c3.05,16.97,5.36,52.49,9.1,69.36c1.31-25.23,13.94-27.37,18.1-10.01
		c2-18.28-1.05-68.7-0.81-87.06c5.53,21.72,16.93,69.84,23,91.44c0.4-18.77,14.18-22.38,22.77-4.38
		c-2.21-16.53-10.28-56.76-13.37-73.17c8.69,16.39,17.94,32.51,27.77,48.37c-4.68-25.35-10.49-50.49-17.46-75.41
		c10.82,22.57,21.89,45.04,33.19,67.42c-5.03-16.19,1.77-19.55,11.13-5.4c-7.99-18.34-16.19-36.6-24.61-54.78
		c11.81,16.03,24.26,31.65,37.36,46.86c-5.66-17.14-11.88-34.1-18.69-50.9c11.58,13.49,23.61,26.64,36.13,39.43
		c-6.95-16.54,0.47-22.34,12.24-9.23c-2.23-10.6-4.79-21.12-7.69-31.59c10.41,10.06,21.01,19.96,31.81,29.69
		c-9.69-15.48-9.8-30.57,0.74-23.32c-6.23-12.49-12.83-24.81-19.82-36.97c10.45,8.74,21,17.39,31.63,25.95
		c-7.25-9.24-4.75-18.85,4.23-14.97c-3.14-5.47-6.34-10.9-9.6-16.31c6.39,2.68,12.82,5.21,19.35,7.59
		C494.71,244.24,489.39,237.7,483.98,231.21z"/>
	<path class="st17" d="M514.87,167.22c-7.82-3.6-13.08-11.66-21.16-14.71c6.96-1.82,14.01,0.13,20.98-1.61
		c-8.24-1.57-14.4-8.7-22.75-9.82c4.11-2.19,9.38-7.72,13.45-9.9c-9.78-0.4-19.53-0.52-29.32-0.35c8.98-3.23,17.97-6.42,26.97-9.57
		c-4.02,0.73-23.26-4.24-11.05-9.86c-11.94,1.25-23.83,2.78-35.67,4.94c8.89-4.31,17.28-9.63,26.08-14.13
		c-8.63,1.88-17.46,1.86-26,4.31c4.19-5.31,8.17-10.83,11.9-16.53c-14.04,4.66-27.88,9.76-41.62,15.38
		c9.87-7.77,19.62-15.69,29.26-23.8c-14.63,4.48-28.96,9.61-43.15,15.52c8.6-8.47,16.98-17.19,25.08-26.22
		c-2.79,0.86-13.44,5.48-16.62,2.14c-3.11-3.26,0.01-7.4,3.16-9.44c-11.39,6.44-22.51,13.26-33.46,20.54
		c8.73-10.34,16.94-21.18,25.49-31.69c-16.05,12.25-30.43,26.81-45.34,40.59c11.37-17.59,22.59-35.63,32.29-54.37
		c-15.63,9.95-27.86,24.99-42.01,37.06c6.65-14.64,13.89-29.11,19.71-44.17c-6.96,5.77-35.33,26.27-31.48-15.55
		c-10.31,16.35-11.54,31.64-20.53,48.79c0.08-11.16,1.45-36.35,0-47.4c-5.78,14.69-19.7,20.42-19.93,15.88
		c-4.48,9.82-8.61,19.72-12.42,29.86c-0.93-7.97-2.07-15.82-3.43-23.71c-5.15,9.19-25.84,5.49-29.49-5.3
		c-2.87,11.61,1.52,27.01,0.13,38.94c-3.79-12.07-16.95-41.4-22.12-52.88c1.37,8.7,3.56,30.27,0.14,26.34
		c0.19,10.94-25.86-29.62-28.37-31.92c6.65,13.98,15.65,49.34,21.68,63.65c-10.8-18.19-20.98-37.36-34.31-53.56
		c3.31,11.22,8.49,21.69,11.94,32.86c-10.73-10.69-18.54-24.88-30.42-34.23c6.89,13.76,13.99,27.4,20.8,41.21
		c-13.12-10.42-24.78-23.35-39-32.08c2.13,11.02-11.13,7.62-15.85,4.11c12.59,12.97,24.13,27.07,36,40.8
		c-15.07-10.53-30.89-19.98-47.24-27.94c11.13,9.96,22.91,19.07,33.59,29.61c-12.56-7.57-25.33-14.32-38.52-20.48
		c9.56,9.5,19.11,19.01,28.65,28.53c-13.46-8.41-27.18-16.06-41.29-23.12c7.62,7.96,15.32,15.82,23.1,23.59
		c-11.87-6.16-23.86-11.84-36.09-17.1c3.55,2.29,6.26,4.72,6.56,8.71c-4.85,0.79-9.95-2.4-14.19-4.29
		c11.63,7.66,23.22,15.4,34.75,23.25c-14.26-5.07-28.64-9.36-43.27-12.97c11.8,4.13,14.13,12.5-0.66,8.69
		c8.26,4.63,16.5,9.3,24.72,14c-13.44-3.6-26.91-6.62-40.55-9.13c9.6,4.04,13.15,9.61,5.16,8.5c8.53,4.3,17.06,8.6,25.6,12.9
		c-13.27-3.51-26.58-6.6-40.01-9.3c4.92,3.08,0.58,6.76-6.74,5.75c8.46,3.84,16.92,7.66,25.39,11.47
		c-13.01-2.43-26.04-4.5-39.14-6.23c8.12,2.92,4.69,7.74-5.46,7.66c10.04,2.53,20.07,5.12,30.09,7.8
		c-12.22,0.5-23.59,7.02-35.54,9.4c8.35,1.38,16.62,3.23,24.94,4.79c-10.48,2.13-19.11,9.84-29.34,12.82
		c15.62-1.14,30.58-16.25,46.41-13.19c-3.29-2.69,1.13-6.81,10.61-6.18c-8.76-1.66-17.45-3.32-26.29-4.42
		c10.21-0.44,20.36-0.55,30.57-0.33c-7.78-2.43-15.57-4.82-23.38-7.18c9.99,1.39,19.87,3.44,29.78,5.36
		c-9.85-2.92-7.2-6.21,4.3-4.02c-6.2-3.17-11.38-8.01-17.46-11.4c7.97,1.58,15.91,3.28,23.83,5.11c-0.94-0.65-1.87-1.31-2.81-1.97
		c3.55-4.93,12.01-1.62,17.01-0.5c-11-6.88,3.21-5.63,6.97-3.83c-10.42-7.08,4.36-5.55,7.85-4.2c-6.03-3.55-3.3-5.69,7.19-0.88
		c-3.44-1.5-6.12-3.24-6.65-6.72c4.29-1.23,9.85,0.89,13.68,2.58c-5.49-3.3-9.23-8.73-14.75-11.98c9.84,3.87,19.5,8.03,29.1,12.55
		c-3.15-1.63-4.36-4.04-3.61-7.22c2.26-4.55,14.53,2.62,16.03,3.33c-11.78-9.86-23.71-19.49-35.8-28.91
		c10.14,5.4,20.07,11.11,29.87,17.21c-5.85-8.03-11.47-16.26-16.77-24.73c12.39,9.3,24.4,19.04,36.1,29.36
		c-9.62-9.3,6.21-7.29,11.11-1.9c-4.94-8.65-9.67-17.45-14.14-26.4c5.97,7.46,11.83,15.02,17.59,22.68
		c-5.9-11.69-11.42-23.53-16.56-35.63c7.39,9.33,14.58,18.8,21.61,28.46c-3.28-7.45-6.46-14.93-9.54-22.48
		c7.01,7.62,14.77,15.07,18.53,25.33c-5.35-13.7,13.91,2.54,16,6.13c-5.3-9.23,0.57-15.29,5.57-4.61
		c-0.83-7.42,6.72-15.33,11.57-6.53c0.24-8.08,0.71-16.05,1.42-24.1c3.26,10.34,6.23,20.72,8.93,31.25
		c2.32-13.38,5.59-26.1,9.95-38.87c-0.2,12.91-0.29,25.82-0.27,38.73c4.98-12.61,10.92-24.11,18.06-35.42
		c0.24,8.63,0.33,17.23,0.28,25.87c6.58-11.65,9.49,7.79,8.52,12.7c6.12-10.37,12.7-20.03,19.96-29.49
		c-0.75,11.88-2.1,23.46-4.07,35.17c1.56-2.68,19.72-22.47,17.92-9.85c7.35-8.51,14.94-16.61,22.89-24.47
		c-5.5,12.56-11.36,24.87-17.56,37.04c12.07-13.16,24.71-25.36,38.1-36.9c-10.68,12.62-21.16,25.42-31.44,38.44
		c4.93-6.03,19.27-6.16,11.93,4.49c9.86-8.46,19.92-16.53,30.24-24.3c-4.7,7.56-9.55,14.91-14.62,22.18
		c14.6-8.47,29.49-15.85,44.9-22.42c-5.49,5.93-11.04,11.76-16.67,17.53c8.72-4.54,13.23,5.93,4.98,10.99
		c2.6-0.77,13.69-5.27,16.58-1.88c2.75,3.23-0.13,6.31-3.91,7.68c15.14-5.16,30.39-9.63,45.85-13.5
		c-12.22,4.93-24.36,10.04-36.45,15.32c15.79-2.74,31.55-4.49,47.52-5.37c-10.8,3.14-21.55,6.45-32.26,9.92
		c7.63-1.64,11.83,1.53,6.04,4.5c7.81-1,9.58,4.65,2.35,8.14c12.54-2.45,25.11-4.59,37.74-6.45c-7.8,2.72-15.6,5.46-23.39,8.2
		c10.71-0.7,17.77,2.5,10.31,4.29c5.81,0.21,10.81,3.15,16.7,3.63c-2.23,1.53-14.34,1.19-16.51,2.79
		C490.24,152.84,501.22,166.72,514.87,167.22z"/>
	<path class="st18" d="M474.95,81.91c-20.97-18.06-44.58-40.5-70.03-56.34c16.35,14.79,31.75,31.18,45.94,45.27
		c29.8,29.58,87.8,70.32,75.95,105.29c-37.07,5.71-69.43,2.1-97.91-6.21c-14.37-4.2-28.61-8.74-42.99-11.43
		c-70.64-13.24-123.59-11.04-212.85-0.58c-12.01,1.41-23.87,4.13-35.82,7.38c-33.35,9.07-71.17,16.73-116.12,9.52
		c-10.26-34.86,46.6-74.72,76.06-103.97c14.19-14.09,29.59-30.48,45.94-45.27c-25.44,15.84-49.05,38.28-70.02,56.34
		C26.26,122.25-19.18,169.9,8.35,240.06c15.37,39.17,41.56,72.41,71.53,100.35c-19.67-25.72-36.37-54.71-47.45-87.25
		c-7.05-20.71-9.3-30.16-7.99-47.76c30.87,16.37,69.41-6.12,100.69-16.95c6.35-2.2,20.97-3.97,40.57-5.3
		c49.48,3.24,74.86,22.9,104.66,26.59c-0.6,0.16-1.2,0.33-1.81,0.48c2.64,0.15,5.23,0.15,7.77,0.03c2.54,0.12,5.13,0.12,7.77-0.03
		c-0.61-0.15-1.2-0.32-1.81-0.48c29.85-3.69,55.26-23.41,104.89-26.6c19.17,1.33,33.53,3.1,39.93,5.32
		c29.91,10.37,66.48,32.19,96.63,18.91c1.01,17.05-1.33,25.86-8.12,45.8c-11.08,32.54-27.77,61.54-47.45,87.25
		c29.97-27.94,56.16-61.18,71.53-100.35C567.23,169.9,521.79,122.25,474.95,81.91z"/>
</g>
</svg>
