<?xml version="1.0" encoding="utf-8"?>
<!-- Generator: Adobe Illustrator 23.0.6, SVG Export Plug-In . SVG Version: 6.00 Build 0)  -->
<svg version="1.1" id="Capa_1" xmlns="http://www.w3.org/2000/svg" xmlns:xlink="http://www.w3.org/1999/xlink" x="0px" y="0px"
	 viewBox="0 0 617.71 272.72" enable-background="new 0 0 617.71 272.72" xml:space="preserve">
<g>
	<path fill="#FFFFFF" d="M440.91,15.47c-45.99-7-91.72-5.86-124.84,20.39c-1.23,0.97-2.49,1.63-3.76,2.11
		c-1.24,0.37-2.49,0.65-3.72,0.74c-0.27,0.01-0.52,0.02-0.79,0.02c-0.3,0-0.61-0.01-0.92-0.02c-1.21-0.09-2.43-0.37-3.66-0.74
		c-1.28-0.47-2.55-1.14-3.79-2.11c-33.12-26.25-78.85-27.4-124.84-20.4C122.88,23.34,51.32,42.32,14.71,44.99
		c0,0,51.7,103.39,110.91,146.67c10.04,9.15,25.31,16.59,36.6,21.29c42.73,17.79,94.52,32.77,145.5,32.23
		c51.02,0.54,102.84-14.42,145.59-32.23c11.29-4.71,26.56-12.15,36.6-21.29c59.21-43.28,110.9-146.67,110.9-146.67
		C564.19,42.32,492.62,23.34,440.91,15.47z"/>
	<path fill="#CD3D3C" d="M0,38.78c0,0,54.49,120.8,116.89,171.38c10.58,10.69,26.67,19.38,38.57,24.88
		c45.03,20.79,99.62,38.29,153.35,37.66c53.77,0.63,108.39-16.86,153.45-37.66c11.89-5.5,27.99-14.19,38.57-24.88
		c62.4-50.57,116.88-171.38,116.88-171.38c-38.59-3.12-114.02-25.3-168.52-34.49c-48.47-8.19-96.66-6.85-131.57,23.82
		c-1.3,1.14-2.62,1.9-3.96,2.46c-1.31,0.44-2.63,0.76-3.92,0.87c-0.28,0.01-0.55,0.03-0.84,0.03c-0.32,0-0.64-0.01-0.96-0.03
		c-1.28-0.11-2.56-0.43-3.86-0.87c-1.35-0.55-2.69-1.32-3.99-2.46C265.17-2.56,216.98-3.9,168.51,4.28
		C114.01,13.48,38.59,35.66,0,38.78z M18.59,49.31c76.23,6.39,279.69,30.4,279.69,30.4c3.53-0.23,17.64-0.23,21.16,0
		c0,0,207.03-24,283.25-30.4c-24.53,2.05-129.9,94.99-163.06,112.9c-27.33,14.76-72.03,23.49-120.18,24.05v-0.27
		c-3.6,0.13-17.69,0.13-21.16,0v0.27c-48.14-0.56-92.85-9.29-120.19-24.05C144.94,144.3,43.12,51.36,18.59,49.31z"/>
</g>
</svg>
