<?xml version="1.0" encoding="utf-8"?>
<!-- Generator: Adobe Illustrator 23.0.6, SVG Export Plug-In . SVG Version: 6.00 Build 0)  -->
<svg version="1.1" id="Capa_1" xmlns="http://www.w3.org/2000/svg" xmlns:xlink="http://www.w3.org/1999/xlink" x="0px" y="0px"
	 viewBox="0 0 637.57 320.55" style="enable-background:new 0 0 637.57 320.55;" xml:space="preserve">
<style type="text/css">
	.st0{fill:#674234;}
	.st1{fill:#563930;}
	.st2{fill-rule:evenodd;clip-rule:evenodd;fill:#674234;}
	.st3{fill:#FFFFFF;}
	.st4{fill:#D68B62;}
	.st5{fill:#AC5F4A;}
	.st6{fill-rule:evenodd;clip-rule:evenodd;fill:#FFFFFF;}
	.st7{fill:#DF6958;}
	.st8{fill:#37333D;}
	.st9{fill:#CD3D3C;}
	.st10{fill-rule:evenodd;clip-rule:evenodd;fill:#DA4D4B;}
	.st11{fill-rule:evenodd;clip-rule:evenodd;fill:#ED625F;}
	.st12{fill:#DA4D4B;}
	.st13{fill-rule:evenodd;clip-rule:evenodd;fill:#CD3D3C;}
	.st14{fill-rule:evenodd;clip-rule:evenodd;fill:#ED8173;}
	.st15{fill-rule:evenodd;clip-rule:evenodd;fill:#37333D;}
	.st16{fill:#ED625F;}
	.st17{fill:#ED8173;}
	.st18{fill:#B62D32;}
	.st19{fill-rule:evenodd;clip-rule:evenodd;fill:#B62D32;}
	.st20{fill:#CE5D51;}
	.st21{fill:#B73535;}
	.st22{fill:#D69062;}
</style>
<g>
	<path class="st16" d="M382.82,0.17c-20.67,1.44-41.57,13.55-62.62,12.93c-1.19,0-1.78,0-2.96,0c-21.05,0.63-41.97-11.5-62.61-12.94
		c-20.7-1.44-43.17,7.16-63.04,13.45c-28.42,9.01-56.57,18.86-85.01,27.82C70.45,52.83,47.34,61.15,10.54,70.17
		c6.27,8.49,19.97,20.37,29.55,23.49c20.65,6.72,28.14,27.6,49.59,30.87c41.85,6.4,84.42,6.96,126.04,9.69
		c34.22,2.25,68.56,11.8,101.31,23.02c1.35,0,2.02,0,3.37,0c32.75-11.22,67.11-20.77,101.32-23.01c39.6-2.59,80.13-3.08,120-8.78
		c22-3.15,37.05-22.72,57.51-33.32c9.96-5.17,19.48-12.44,26.52-21.97c-38.66-9.49-62.44-18.35-100.36-30.43
		c-28.2-8.99-56.12-18.82-84.37-27.62C422.61,6.39,401.96-1.16,382.82,0.17z"/>
	<g>
		<path class="st18" d="M1.61,56.31c0,0,1.01,1.06,3.06,2.82c2.02,1.8,5.09,4.31,8.99,7.33c4,2.92,8.82,6.43,14.59,9.93
			c6.39,4.02,12.97,7.41,19.59,10.78c7.83,3.81,15.82,7.08,23.88,10.06c4.3,1.48,8.77,2.83,13.28,4.35
			c4.56,1.33,9.22,2.63,13.96,3.89c4.77,1.25,9.64,2.26,14.55,3.5c4.95,1,9.97,1.95,15.02,2.85c5.27,0.87,10.58,1.68,15.9,2.42
			c5.35,0.81,10.7,1.65,16.05,2.51c20.86,3.21,41.68,6.65,62.42,10.88c18.07,3.76,36.07,8.02,53.79,13.84
			c7.05,2.42,14.06,4.9,20.98,7.87c6.25,2.68,11.2,5.36,15.58,6.32c4.38,1.02,8.05,0.98,10.54,0.96c2.5-0.09,3.85-0.14,3.85-0.14
			c0.01,0,0.02,0,0.03,0c0.54-0.02,1,0.43,1.01,0.99c0.02,0.53-0.36,0.99-0.84,1.07c0,0-1.35,0.2-3.89,0.56
			c-2.54,0.29-6.35,0.77-11.3,0.16c-5.68-0.86-11.18-2.96-16.66-4.91c-6.94-2.26-13.94-4.04-20.98-5.77
			c-17.73-3.87-35.56-6.59-53.46-8.92c-20.59-2.45-41.2-4.57-61.84-6.36c-5.29-0.4-10.57-0.77-15.83-1.11
			c-5.26-0.39-10.37-0.51-15.8-0.89c-5.46-0.44-10.89-0.75-16.25-1.54c-5.37-0.85-10.67-1.87-15.87-3.03
			c-5.16-1.5-10.28-2.84-15.2-4.63c-4.9-1.91-9.7-3.74-14.27-5.94c-4.54-2.3-8.99-4.38-13.15-6.8c-4.12-2.57-8.14-4.86-11.81-7.54
			c-3.72-2.54-7.2-5.13-10.37-7.84c-3.22-2.62-6.21-5.17-8.85-7.83c-4.6-4.39-8.95-9.19-12.99-14.35
			c-3.27-4.31-5.62-7.84-7.04-10.39c-1.47-2.52-2.12-3.93-2.12-3.93c-0.01-0.01-0.01-0.02-0.01-0.03c-0.25-0.56-0.08-1.18,0.4-1.4
			C0.88,55.88,1.31,56,1.61,56.31z"/>
		<path class="st18" d="M637.44,57.48c0,0-0.66,1.42-2.12,3.94c-1.43,2.55-3.78,6.08-7.05,10.39c-4.04,5.16-8.38,9.96-12.98,14.34
			c-2.65,2.66-5.64,5.21-8.86,7.83c-3.17,2.71-6.66,5.3-10.37,7.84c-3.67,2.68-7.69,4.97-11.81,7.54c-4.17,2.43-8.61,4.5-13.16,6.8
			c-4.56,2.2-9.36,4.03-14.26,5.94c-4.92,1.79-10.04,3.12-15.2,4.63c-5.21,1.16-10.51,2.18-15.88,3.03
			c-5.36,0.79-10.8,1.09-16.25,1.54c-5.44,0.39-10.54,0.5-15.81,0.9c-5.26,0.34-10.53,0.71-15.82,1.11
			c-20.64,1.79-41.25,3.91-61.85,6.36c-17.91,2.32-35.74,5.04-53.47,8.92c-7.04,1.72-14.04,3.5-20.98,5.76
			c-5.48,1.95-10.98,4.04-16.66,4.91c-4.95,0.61-8.76,0.13-11.3-0.16c-2.54-0.36-3.88-0.56-3.88-0.56
			c-0.54-0.08-0.91-0.61-0.84-1.17c0.07-0.53,0.51-0.91,1-0.89c0.01,0,0.02,0,0.03,0c0,0,1.34,0.06,3.85,0.14
			c2.49,0.02,6.16,0.06,10.55-0.96c4.38-0.96,9.33-3.64,15.58-6.32c6.92-2.97,13.93-5.45,20.99-7.87
			c17.71-5.82,35.71-10.08,53.78-13.84c20.74-4.22,41.56-7.66,62.42-10.89c5.35-0.85,10.7-1.7,16.05-2.5
			c5.33-0.74,10.63-1.55,15.91-2.42c5.05-0.9,10.07-1.85,15.02-2.85c4.91-1.24,9.78-2.25,14.53-3.49c4.75-1.26,9.41-2.57,13.98-3.89
			c4.51-1.51,8.96-2.87,13.27-4.35c8.06-2.98,16.06-6.25,23.88-10.06c6.63-3.37,13.21-6.76,19.6-10.78c5.76-3.5,10.59-7,14.58-9.93
			c3.91-3.03,6.97-5.53,8.99-7.33c2.05-1.76,3.06-2.82,3.06-2.82c0.41-0.44,1.04-0.46,1.38-0.05c0.26,0.31,0.29,0.79,0.12,1.18
			C637.45,57.45,637.45,57.46,637.44,57.48z"/>
	</g>
	<path class="st16" d="M423.28,276.85c-37.71,5.11-75.47,7.53-113.42,7.29c-1.78-0.02-2.67-0.04-4.44-0.07
		c-37.95-0.88-75.67-4.44-113.29-10.68c-45.19-7.93-86.26-58.97-113.16-101.53C107.58,282.8,222.55,323.65,307.3,319.9
		c84.58,6.18,200.3-31.01,230.98-141.11C510.61,220.52,468.57,270.29,423.28,276.85z"/>
</g>
</svg>
