<?xml version="1.0" encoding="utf-8"?>
<!-- Generator: Adobe Illustrator 23.0.6, SVG Export Plug-In . SVG Version: 6.00 Build 0)  -->
<svg version="1.1" id="Capa_1" xmlns="http://www.w3.org/2000/svg" xmlns:xlink="http://www.w3.org/1999/xlink" x="0px" y="0px"
	 viewBox="0 0 625.11 293.92" enable-background="new 0 0 625.11 293.92" xml:space="preserve">
<g>
	<path fill-rule="evenodd" clip-rule="evenodd" fill="#FFFFFF" d="M444.17,20.56c-45.14-13.67-107.19,4.11-132.81,10.5
		c-26.8-4.86-83.14-22.07-129.21-6.25c-38.25,13.14-130.4,83.87-156.02,100.1c0.37,0.42,0.64,0.92,1.12,1.26
		c22.89,16.03,31.97,29.22,50.26,50.37c21.05,24.35,48.65,50,77.16,65.75c38.61,21.34,92.43,29.67,148.85,28.66
		c63.79,1.99,125.17-9.16,169.64-33.93c29.35-16.35,54.3-43.66,74.7-68.53c16.36-19.94,25.5-35.31,47.79-52.17
		c0.47-0.35,0.72-0.87,1.07-1.3C570.52,99.73,482.88,32.29,444.17,20.56z"/>
	<path fill-rule="evenodd" clip-rule="evenodd" fill="#37333D" d="M459.94,7.3c-49.16-16.73-117.48,2.48-145.67,9.32
		c-29.25-6.17-90.62-27.23-141.39-9.95C130.72,21.02,28.38,100.69,0,118.89c0.39,0.49,0.68,1.08,1.2,1.47
		c24.75,18.99,34.43,34.4,54.03,59.19c22.56,28.54,52.29,58.72,83.19,77.51c41.85,25.44,100.64,36.19,162.45,36.2
		c69.82,3.65,137.27-7.93,186.47-35.58c32.48-18.25,60.34-49.24,83.19-77.5c18.32-22.66,28.63-40.2,53.38-59.19
		c0.52-0.4,0.81-0.98,1.2-1.48C596.73,101.32,502.09,21.65,459.94,7.3z M328.64,147.61c-4.8,0.78-24.67,0.48-31.51-0.63
		c-49.76-8.07-120.11,6.85-164.22-14.72c33.69-19.09,99.5-22.93,126.36-19.24c35.63,4.89,71.57,5.52,107.23,0.63
		c26.86-3.69,92.01,0.15,125.71,19.24C448.09,154.46,378.39,139.53,328.64,147.61z"/>
</g>
</svg>
