<?xml version="1.0" encoding="utf-8"?>
<!-- Generator: Adobe Illustrator 23.0.6, SVG Export Plug-In . SVG Version: 6.00 Build 0)  -->
<svg version="1.1" id="Capa_1" xmlns="http://www.w3.org/2000/svg" xmlns:xlink="http://www.w3.org/1999/xlink" x="0px" y="0px"
	 viewBox="0 0 575.7 332.83" style="enable-background:new 0 0 575.7 332.83;" xml:space="preserve">
<style type="text/css">
	.st0{fill:#674234;}
	.st1{fill:#563930;}
	.st2{fill-rule:evenodd;clip-rule:evenodd;fill:#674234;}
	.st3{fill:#FFFFFF;}
	.st4{fill:#D68B62;}
	.st5{fill:#AC5F4A;}
	.st6{fill-rule:evenodd;clip-rule:evenodd;fill:#FFFFFF;}
	.st7{fill:#DF6958;}
	.st8{fill:#37333D;}
	.st9{fill:#CD3D3C;}
	.st10{fill-rule:evenodd;clip-rule:evenodd;fill:#DA4D4B;}
	.st11{fill-rule:evenodd;clip-rule:evenodd;fill:#ED625F;}
	.st12{fill:#DA4D4B;}
	.st13{fill-rule:evenodd;clip-rule:evenodd;fill:#CD3D3C;}
	.st14{fill-rule:evenodd;clip-rule:evenodd;fill:#ED8173;}
	.st15{fill-rule:evenodd;clip-rule:evenodd;fill:#37333D;}
	.st16{fill:#ED625F;}
	.st17{fill:#ED8173;}
	.st18{fill:#B62D32;}
	.st19{fill-rule:evenodd;clip-rule:evenodd;fill:#B62D32;}
	.st20{fill:#CE5D51;}
	.st21{fill:#B73535;}
	.st22{fill:#D69062;}
</style>
<g>
	<path class="st8" d="M575.42,132.85c-3.86-9.38-112.1-106.3-143.65-119.96C412,4.34,391.15,0,369.78,0
		c-28.93,0-57.03,7.93-81.93,22.73C262.94,7.93,234.84,0,205.92,0c-21.36,0-42.22,4.34-61.98,12.89
		C112.38,26.55,4.14,123.47,0.28,132.85c-6.36,15.46,98.68,133.65,119.47,148.83c42.57,31.07,101.26,51.15,149.52,51.15
		c2.76,0,5.52-0.06,8.22-0.19c3.52-0.05,6.96-0.15,10.37-0.26c3.41,0.11,6.85,0.2,10.37,0.26c2.7,0.13,5.46,0.19,8.22,0.19
		c48.25,0,106.94-20.08,149.52-51.15C476.74,266.5,581.79,148.31,575.42,132.85z"/>
	<path class="st6" d="M244.4,215.69c-17.04-27.47,61.22-18.46,70.31-18.06c9.56,0.41,82.76-2.32,67.91,24.11
		c-13.16,23.42-49.57,24.93-70.78,23.98C289.01,244.69,258.58,238.55,244.4,215.69z"/>
</g>
</svg>
