<?xml version="1.0" encoding="utf-8"?>
<!-- Generator: Adobe Illustrator 23.0.6, SVG Export Plug-In . SVG Version: 6.00 Build 0)  -->
<svg version="1.1" id="Capa_1" xmlns="http://www.w3.org/2000/svg" xmlns:xlink="http://www.w3.org/1999/xlink" x="0px" y="0px"
	 viewBox="0 0 757.15 282" enable-background="new 0 0 757.15 282" xml:space="preserve">
<g>
	<path fill="#D68B62" d="M535.15,275.3c19.27,16.29-63.65-2.25-142.16-2.25s-154.27,12.65-142.15,2.25
		c15.15-13.01,63.65-26.59,142.15-26.59S519.89,262.41,535.15,275.3z"/>
	<path fill="#FFFFFF" d="M379.84,173.23c85.91-0.61,209.14-4.38,291.82-8.32c28.76-10.25,56.72-21.43,83.41-33.18
		C645.95,52.83,515.33,28.03,380.21,27.9C245.11,27.79,112.33,52.6,3.09,131.29c23.69,13.28,50.39,25.35,79.01,36.03
		C181.41,174.86,281.15,173.94,379.84,173.23z"/>
	<path fill="#D68B62" d="M378.57,37.78c70.79,0.06,142.75,6.53,209.05,28.49c59.34,19.65,114.97,33.78,169.54,67.17
		C694.19,71.47,609.99,19.66,523.35,4.89c-46.96-8.01-96.87-3.5-144.79-3.53c-45.2-0.02-92.32-4.5-136.63,2.9
		c-56.08,9.34-108.46,33.15-156.7,63.89C54.64,87.63,26.19,108.12,0,133.45c56.82-34.71,115.31-50.88,178.53-70.09
		C243.16,43.75,310.99,37.74,378.57,37.78z"/>
	<path fill="#AC5F4A" d="M587.61,53.5c-66.3-21.95-138.25-28.43-209.05-28.49c-67.57-0.05-135.41,5.96-200.03,25.59
		C117.62,69.11,61.09,94.66,6.22,127.54c-2.08,1.97-4.17,3.92-6.22,5.91c56.82-34.71,115.31-50.88,178.53-70.09
		c64.63-19.62,132.46-25.63,200.03-25.58c70.79,0.06,142.75,6.53,209.05,28.49c59.34,19.65,114.97,33.78,169.54,67.17
		c-1.93-1.91-3.89-3.81-5.87-5.7C698.58,96.15,644.82,72.45,587.61,53.5z"/>
	<path fill="#674234" d="M100.18,86.46c-30.75,7.45-77.34,31.7-97.06,44.85c23.67,13.27,50.35,25.32,78.94,36
		c0.24,0.01,0.47,0.04,0.7,0.05c11.14,0.84,22.3,1.55,33.45,2.2c2.13,0.12,4.26,0.24,6.39,0.36c2.78,0.15,5.58,0.26,8.36,0.39
		c0.82-0.05,1.65-0.09,2.4-0.14c1.73-8.58,2.63-19.26,4.45-27.83c-9.06-2.64-13.61-3.92-22.77-6.45
		C110.07,122.6,105.12,99.73,100.18,86.46z"/>
	<path fill="#674234" d="M754.58,131.95c-11.87-7.76-60.13-39.54-98.35-48.8c-4.92,13.28-9.87,39.34-14.83,52.66
		c-9.17,2.51-13.72,3.81-22.78,6.45c1.06,8.28,2.05,16.55,3.01,24.83c0.53-0.02,1.03-0.04,1.56-0.07c4.79-0.19,9.51-0.38,14.15-0.58
		c1.89-0.07,3.72-0.16,5.58-0.24c3.39-0.14,6.76-0.29,10.06-0.43c1.97-0.09,3.9-0.18,5.83-0.26c3.11-0.14,6.15-0.28,9.16-0.42
		c1.24-0.06,2.47-0.12,3.7-0.17C700.26,154.72,728.04,143.61,754.58,131.95z"/>
</g>
</svg>
