<?xml version="1.0" encoding="utf-8"?>
<!-- Generator: Adobe Illustrator 23.0.6, SVG Export Plug-In . SVG Version: 6.00 Build 0)  -->
<svg version="1.1" id="Capa_1" xmlns="http://www.w3.org/2000/svg" xmlns:xlink="http://www.w3.org/1999/xlink" x="0px" y="0px"
	 viewBox="0 0 715.94 267.5" style="enable-background:new 0 0 715.94 267.5;" xml:space="preserve">
<style type="text/css">
	.st0{fill:#674234;}
	.st1{fill:#563930;}
	.st2{fill-rule:evenodd;clip-rule:evenodd;fill:#674234;}
	.st3{fill:#FFFFFF;}
	.st4{fill:#D68B62;}
	.st5{fill:#AC5F4A;}
	.st6{fill-rule:evenodd;clip-rule:evenodd;fill:#FFFFFF;}
	.st7{fill:#DF6958;}
	.st8{fill:#37333D;}
	.st9{fill:#CD3D3C;}
	.st10{fill-rule:evenodd;clip-rule:evenodd;fill:#DA4D4B;}
	.st11{fill-rule:evenodd;clip-rule:evenodd;fill:#ED625F;}
	.st12{fill:#DA4D4B;}
	.st13{fill-rule:evenodd;clip-rule:evenodd;fill:#CD3D3C;}
	.st14{fill-rule:evenodd;clip-rule:evenodd;fill:#ED8173;}
	.st15{fill-rule:evenodd;clip-rule:evenodd;fill:#37333D;}
	.st16{fill:#ED625F;}
	.st17{fill:#ED8173;}
	.st18{fill:#B62D32;}
	.st19{fill-rule:evenodd;clip-rule:evenodd;fill:#B62D32;}
	.st20{fill:#CE5D51;}
	.st21{fill:#B73535;}
	.st22{fill:#D69062;}
</style>
<g>
	<path class="st0" d="M691.91,0.58c0,55.11-89.16,17.12-127.75,7.57c-73.74-18.26-133.3-1.92-206.18,11.19
		C285.09,6.22,225.52-10.12,151.78,8.14C113.19,17.7,24.02,55.68,24.02,0.58C14.4,3.24-0.06,83.51,0,83.53
		C18.3,54.36,32.85,47.05,76.73,46.2c38.43-0.75,78,4.26,116.05,8.36c53.75,5.8,110.91,19.74,165.19,19.74
		c54.27,0,111.44-13.94,165.19-19.74c33.12-3.57,66.95-7.26,100.35-8.27c48.65-1.47,71.61,4.04,92.44,37.23
		C716,83.51,701.54,3.24,691.91,0.58C691.91,5.03,695.28,1.51,691.91,0.58z"/>
	<path class="st0" d="M357.98,260.29c-44.08-0.24-88.17-0.23-132.26-0.15c-0.52,0,86.5,7.55,130.27,7.35c0.66-0.01,3.3-0.01,3.96,0
		c43.77,0.19,130.79-7.35,130.27-7.35C446.13,260.06,402.06,260.05,357.98,260.29z"/>
	<path class="st0" d="M582.59,125.51c-30.96,23.27-69.49,33.53-108.63,38.82c-37.92,5.12-77.09,4.59-115.98,6.22
		c-38.9-1.63-78.07-1.1-116-6.22c-39.14-5.29-77.67-15.54-108.63-38.81c-4.98-3.66-7.32-4.26-1.42,2.6
		c44.5,41.73,125.9,61.87,221.22,69.01c0,0.22,9.62,0.22,9.62,0c95.33-7.15,176.73-27.28,221.22-69.01
		C589.91,121.26,587.57,121.85,582.59,125.51z"/>
</g>
</svg>
