<?xml version="1.0" encoding="utf-8"?>
<!-- Generator: Adobe Illustrator 23.0.6, SVG Export Plug-In . SVG Version: 6.00 Build 0)  -->
<svg version="1.1" id="Capa_1" xmlns="http://www.w3.org/2000/svg" xmlns:xlink="http://www.w3.org/1999/xlink" x="0px" y="0px"
	 viewBox="0 0 673.49 306.46" style="enable-background:new 0 0 673.49 306.46;" xml:space="preserve">
<style type="text/css">
	.st0{fill:#674234;}
	.st1{fill:#563930;}
	.st2{fill-rule:evenodd;clip-rule:evenodd;fill:#674234;}
	.st3{fill:#FFFFFF;}
	.st4{fill:#D68B62;}
	.st5{fill:#AC5F4A;}
	.st6{fill-rule:evenodd;clip-rule:evenodd;fill:#FFFFFF;}
	.st7{fill:#DF6958;}
	.st8{fill:#37333D;}
	.st9{fill:#CD3D3C;}
	.st10{fill-rule:evenodd;clip-rule:evenodd;fill:#DA4D4B;}
	.st11{fill-rule:evenodd;clip-rule:evenodd;fill:#ED625F;}
	.st12{fill:#DA4D4B;}
	.st13{fill-rule:evenodd;clip-rule:evenodd;fill:#CD3D3C;}
	.st14{fill-rule:evenodd;clip-rule:evenodd;fill:#ED8173;}
	.st15{fill-rule:evenodd;clip-rule:evenodd;fill:#37333D;}
	.st16{fill:#ED625F;}
	.st17{fill:#ED8173;}
	.st18{fill:#B62D32;}
	.st19{fill-rule:evenodd;clip-rule:evenodd;fill:#B62D32;}
	.st20{fill:#CE5D51;}
	.st21{fill:#B73535;}
	.st22{fill:#D69062;}
</style>
<path class="st15" d="M667.07,132.96c-13.19-6.84-26.1-11.01-38.03-20.47C574.82,69.59,545.47,8.45,469.92,1.15
	c-30.24-2.94-61.3,2.52-87.93,17.53c-16.5,9.31-38.37,44.36-56.21,26.91C281.6,2.42,217.24-13.03,159.25,12.05
	C98.08,38.53,70.19,106.67,8.61,132.4c-22.2,9.27,4.55,20.01,13.16,25.34c13.7,8.45,25.77,19.25,37.31,30.43
	c22.77,22.02,45.22,44.1,71.48,61.99c49.39,33.63,123.94,59,184.22,56.08c32.94-0.43,65.93-2.48,98.43-7.92
	c58.72-9.85,118.49-31.58,162.42-73.21c25.04-23.75,49.67-51.76,79.6-69.34C661.77,151.92,684.45,141.92,667.07,132.96z
	 M258.58,206.43c-16.36-26.02,32.2-23.34,70.42-21.85c38.22,1.48,81.03,3.15,68,27.23c-7.48,13.83-32.34,25.5-70.58,24.02
	C288.2,234.34,267.27,220.26,258.58,206.43z"/>
</svg>
