<?xml version="1.0" encoding="utf-8"?>
<!-- Generator: Adobe Illustrator 23.0.6, SVG Export Plug-In . SVG Version: 6.00 Build 0)  -->
<svg version="1.1" id="Capa_1" xmlns="http://www.w3.org/2000/svg" xmlns:xlink="http://www.w3.org/1999/xlink" x="0px" y="0px"
	 viewBox="0 0 738.13 263.91" enable-background="new 0 0 738.13 263.91" xml:space="preserve">
<g>
	<path fill="#37333D" d="M129.44,51.03l-53.62,2.36c32.19,33.9,102.13,129.11,102.13,129.11s173.06,32.24,279.83,36.51
		c106.77,4.25,204.25-169.03,204.25-169.03C518.45,92.04,129.44,51.03,129.44,51.03z"/>
	<g>
		<path fill-rule="evenodd" clip-rule="evenodd" fill="#FFFFFF" d="M566.31,169.63c0.05,0.11,0.09,0.19,0.09,0.19L372.28,231.8
			l-207.73-61.98c0,0,0.03-0.08,0.08-0.19h-0.08c0,0,0.1-0.17,0.29-0.45c2.45-5.29,9.86-33.89,22.9-40.29
			c35.73-17.56,102.55-5.04,177.73-3.37c75.18-1.67,144.08-14.78,179.78,3.37c12.74,6.47,18.41,35,20.85,40.29
			c0.19,0.28,0.29,0.45,0.29,0.45H566.31z"/>
		<path fill-rule="evenodd" clip-rule="evenodd" fill="#FFFFFF" d="M603.72,57.15h-0.1c0.06-0.18,0.1-0.29,0.1-0.29l-236.37,0.15
			l-236.37-0.15c0,0,0.04,0.12,0.1,0.29h-0.1c0,0,0.12,0.27,0.34,0.72c0.5,1.48,1.12,3.53,1.88,5.97l-2.22,0c0,0,0.04,0.12,0.1,0.3
			h-0.1c0,0,0.12,0.26,0.34,0.72c2.88,8.5,9.59,36.05,26.94,47.04c44.45,28.15,120.64,44.59,209.09,41.92
			c88.45,2.66,167.06-13.77,211.5-41.92c17.35-10.99,21.65-38.54,24.53-47.04c0.22-0.45,0.34-0.72,0.34-0.72h-0.1
			c0.06-0.18,0.1-0.3,0.1-0.3l-2.03,0c0.65-2.44,1.19-4.49,1.69-5.97C603.59,57.42,603.72,57.15,603.72,57.15z"/>
	</g>
	<g>
		<path fill="#ED625F" d="M662.95,50.12c-69.74,68.93-137.01,128.27-204.09,136.51c-17.04,2.09-50.86,8.95-90.03,8.95
			c-39.17,0-73-6.87-90.03-8.95c-67.01-8.23-134.2-67.47-203.9-136.32c0.01,0.15-5.01,2.01-4.38,2.9
			c19.23,23.45,68.43,99.91,110.16,140.82c50.87,49.9,97.98,69.87,188.16,69.87c90.18,0,137.28-19.97,188.17-69.87
			c41.71-40.91,90.91-117.38,110.15-140.82C667.81,52.27,662.94,50.27,662.95,50.12z"/>
		<path fill="#ED625F" d="M691.58,42.07c-55.47,4.3-222.13-15.05-308.3,1.26c-2.46,0.47-8.83,1.59-14.34,2.3
			c-5.52-0.71-11.89-1.84-14.34-2.3c-86.18-16.31-252.85,3.04-308.32-1.26c-6.92-0.54-20.7-3.21-44.26-7.69
			c5.85,4.69,17.24,7.41,27.45,10.04C132.65,70.98,258.73,67.2,368.42,67.45h1.01c109.69-0.25,235.77,3.53,338.96-23.03
			c10.2-2.63,21.59-5.34,27.45-10.04C712.27,38.86,698.5,41.54,691.58,42.07z"/>
	</g>
	<g>
		<path fill="#ED8173" d="M22.88,21.83C28.75,15.18,42.16,4.41,49.9,0.47c4.66-2.38-39.46,4-47.87,26.57
			C-5.31,46.78,9.06,65.89,16.56,88.5c-4.03-28.41-4.07-35.43-2.56-48.86C14.77,32.77,18.77,26.5,22.88,21.83z"/>
		<path fill="#ED8173" d="M715.25,21.83c-5.86-6.66-19.28-17.42-27.02-21.37c-4.65-2.38,39.46,4,47.87,26.57
			c7.35,19.74-7.03,38.86-14.52,61.47c4.03-28.41,4.08-35.43,2.57-48.86C723.37,32.77,719.36,26.5,715.25,21.83z"/>
	</g>
</g>
</svg>
