<?xml version="1.0" encoding="utf-8"?>
<!-- Generator: Adobe Illustrator 23.0.6, SVG Export Plug-In . SVG Version: 6.00 Build 0)  -->
<svg version="1.1" id="Capa_1" xmlns="http://www.w3.org/2000/svg" xmlns:xlink="http://www.w3.org/1999/xlink" x="0px" y="0px"
	 viewBox="0 0 676.59 238.27" enable-background="new 0 0 676.59 238.27" xml:space="preserve">
<path fill="#CD3D3C" d="M553.44,65.83c-21.54-14.81-43.14-29.12-66.01-41.81C456.67,6.95,429.21-0.3,393.96,0.95
	c-21.98,4.55-39.47,7.09-54.8,8.23c-15.32-1.34-32.78-4.1-54.69-8.93c-35.25-1.71-62.81,5.21-93.78,21.88
	c-23.01,12.37-44.89,26.18-66.53,40.94C84,90.49,41.32,114.61,0,140.54c26.3-3.34,94.43,26.78,112.94,40.2
	c31.04,20.17,61.04,31.42,95.62,43.32c41.67,14.33,85.43,13.79,129.13,14.07c43.7,0.28,87.45,1.39,129.3-12.42
	c34.73-11.45,64.88-22.32,96.16-42.09c18.67-13.19,87.19-42.43,113.43-38.75C636.3,117.28,593.44,93.32,553.44,65.83z"/>
</svg>
