<?xml version="1.0" encoding="utf-8"?>
<!-- Generator: Adobe Illustrator 23.0.6, SVG Export Plug-In . SVG Version: 6.00 Build 0)  -->
<svg version="1.1" id="Capa_1" xmlns="http://www.w3.org/2000/svg" xmlns:xlink="http://www.w3.org/1999/xlink" x="0px" y="0px"
	 viewBox="0 0 715.86 233.77" style="enable-background:new 0 0 715.86 233.77;" xml:space="preserve">
<style type="text/css">
	.st0{fill:#674234;}
	.st1{fill:#563930;}
	.st2{fill-rule:evenodd;clip-rule:evenodd;fill:#674234;}
	.st3{fill:#FFFFFF;}
	.st4{fill:#D68B62;}
	.st5{fill:#AC5F4A;}
	.st6{fill-rule:evenodd;clip-rule:evenodd;fill:#FFFFFF;}
	.st7{fill:#DF6958;}
	.st8{fill:#37333D;}
	.st9{fill:#CD3D3C;}
	.st10{fill-rule:evenodd;clip-rule:evenodd;fill:#DA4D4B;}
	.st11{fill-rule:evenodd;clip-rule:evenodd;fill:#ED625F;}
	.st12{fill:#DA4D4B;}
	.st13{fill-rule:evenodd;clip-rule:evenodd;fill:#CD3D3C;}
	.st14{fill-rule:evenodd;clip-rule:evenodd;fill:#ED8173;}
	.st15{fill-rule:evenodd;clip-rule:evenodd;fill:#37333D;}
	.st16{fill:#ED625F;}
	.st17{fill:#ED8173;}
	.st18{fill:#B62D32;}
	.st19{fill-rule:evenodd;clip-rule:evenodd;fill:#B62D32;}
	.st20{fill:#CE5D51;}
	.st21{fill:#B73535;}
	.st22{fill:#D69062;}
</style>
<g>
	<path class="st8" d="M144.63,56.72l-84.34-4.3C88.37,80.47,186.92,165.5,186.92,165.5s150.9,26.68,244.01,30.2
		C524.03,199.22,645.05,51,645.05,51C519.84,85.81,144.63,56.72,144.63,56.72z"/>
	<path class="st6" d="M142.99,62.38l69.69,35.34c0,0,72.68,18.39,140.7,18.62c80.43,0.29,131.21-17.94,131.21-17.94L558,63.85
		L142.99,62.38z"/>
	<path class="st16" d="M715.62,33.78c-4.33-23.24-25.94-23.23-52.3-31.64c16.97,9.4,24.81,16.82,27.93,24.81
		c-7.59,5.19-21.7,14.06-44.41,15.91c-245.33-17.78-261.7,9.27-261.7,9.27l-23.83,7.72l-19.24-5.54
		C271.22,24.24,118.09,45.71,69.5,43.56c-36.77-2.49-43.02-14.53-44.86-18.83C27.79,16.71,35.67,9.33,52.79,0
		C26.37,8.22,4.76,8.05,0.27,31.27c-3.48,18.05,28.29,40.56,27.85,59.28c0.56-23.93-4.09-39.3-5.08-51.35
		c11.7,4.5,23.71,8.38,35.94,11.71c17.5,18.26,74.26,89.87,95.24,107.62c61.64,52.44,134.96,91.33,259.65,68.64
		C545,203.31,612.72,87.2,641.47,56.52c-44.07,38.65-310.43,250.8-582.24-5.54c92.87,25.24,199.46,19.28,295.51,19.53
		c97.14,0.15,197.01,3.47,290.36-17.57c-1.13,1.01-2.34,2.2-3.63,3.57c1.74-1.51,3.12-2.76,4.15-3.71
		c15.98-3.61,31.77-7.97,47.31-13.14c-0.7,12.32-5.99,28-5.59,53.2C687.04,74.15,718.98,51.86,715.62,33.78z"/>
</g>
</svg>
