<?xml version="1.0" encoding="utf-8"?>
<!-- Generator: Adobe Illustrator 23.0.6, SVG Export Plug-In . SVG Version: 6.00 Build 0)  -->
<svg version="1.1" id="Capa_1" xmlns="http://www.w3.org/2000/svg" xmlns:xlink="http://www.w3.org/1999/xlink" x="0px" y="0px"
	 viewBox="0 0 612.45 81.41" enable-background="new 0 0 612.45 81.41" xml:space="preserve">
<g>
	<path fill-rule="evenodd" clip-rule="evenodd" fill="#674234" d="M0,46.11c6.87-6.85,14.03-13.52,20.54-20.48
		c4.34-4.65,23.54-26.06,25.68-25.63c2.06,0.41-17.25,26.22-11.35,29.04c1.66,0.77,59.8-8.13,74.95-13.62
		c8.92-3.24,16.78-4.73,27.08-2.53c21.63,4.59,43.51,8.84,65.56,12.51c8.47,1.41,17.79,0.82,26.69,1.26
		c22.17,1.11,44.41,3.25,66.6,3.21c23.44,0,46.91-1.78,70.26-3.21c13.67-0.87,27.48-2.05,40.9-4.08c17.9-2.75,35.68-6.01,52.98-9.91
		c9.33-2.14,16.6-0.5,24.25,1.86c18.27,5.76,36.23,11.76,54.61,17.27c8.68,2.58,18.12,4.24,27.24,6.36c7.3,1.71,33.8,4.41,26.3-6.95
		c-1.32-1.99-6.31-18.85-4.98-18.93c1.89-0.1,29.17,52.25,24.62,56.02c-0.17,0.1-102.43-34.05-128.28-43.36
		c-16.1-5.83-29.77,0.24-43.22,2.92c-18.33,3.65-36.29,6.27-55.72,6.18c-13.2-0.05-26.4,1.62-39.74,2.14
		c-19.97,0.7-40.03,1.64-59.96,1.28c-28.89-0.58-57.6-2.51-86.43-3.47c-14.64-0.48-28.38-2.94-42.08-5.87
		c-11.07-2.35-22.33-4.95-33.77-5.81c-5.76-0.48-89,17.17-93.02,18.3C20.68,43.1,0.91,46.76,0,46.11z"/>
	<path fill-rule="evenodd" clip-rule="evenodd" fill="#674234" d="M371.19,81.41c-4.63-0.45-8.02-0.93-11.71-1.12
		c-15.19-0.83-30.53-1.57-45.75-2.32c-1.19-0.07-2.41,0-3.62-0.07c-24.88-1.47-49.72-2.94-74.67-4.43
		c-4.84-0.3-9.69-0.75-14.69-0.97c-7.18-0.29-9.26-1.56-9.14-3.11c0.07-0.5,3.14-1.42,4.59-1.4c6.48,0.09,12.83,0.53,19.24,0.69
		c8.14,0.21,16.31,0.39,24.52,0.39c25.2,0.08,50.44,0.13,75.69-0.02c9.14-0.06,18.33-0.79,27.58-1.06
		c5.86-0.17,11.97-0.14,17.8,0.04c1.18,0.04,3.04,1.28,2.49,1.81C379.83,73.61,375.6,77.34,371.19,81.41z"/>
</g>
</svg>
