<?xml version="1.0" encoding="utf-8"?>
<!-- Generator: Adobe Illustrator 23.0.6, SVG Export Plug-In . SVG Version: 6.00 Build 0)  -->
<svg version="1.1" id="Capa_1" xmlns="http://www.w3.org/2000/svg" xmlns:xlink="http://www.w3.org/1999/xlink" x="0px" y="0px"
	 viewBox="0 0 443.56 71.98" style="enable-background:new 0 0 443.56 71.98;" xml:space="preserve">
<style type="text/css">
	.st0{fill:#674234;}
	.st1{fill:#563930;}
	.st2{fill-rule:evenodd;clip-rule:evenodd;fill:#674234;}
	.st3{fill:#FFFFFF;}
	.st4{fill:#D68B62;}
	.st5{fill:#AC5F4A;}
	.st6{fill-rule:evenodd;clip-rule:evenodd;fill:#FFFFFF;}
	.st7{fill:#DF6958;}
	.st8{fill:#37333D;}
	.st9{fill:#CD3D3C;}
	.st10{fill-rule:evenodd;clip-rule:evenodd;fill:#DA4D4B;}
	.st11{fill-rule:evenodd;clip-rule:evenodd;fill:#ED625F;}
	.st12{fill:#DA4D4B;}
	.st13{fill-rule:evenodd;clip-rule:evenodd;fill:#CD3D3C;}
	.st14{fill-rule:evenodd;clip-rule:evenodd;fill:#ED8173;}
	.st15{fill-rule:evenodd;clip-rule:evenodd;fill:#37333D;}
	.st16{fill:#ED625F;}
	.st17{fill:#ED8173;}
	.st18{fill:#B62D32;}
	.st19{fill-rule:evenodd;clip-rule:evenodd;fill:#B62D32;}
	.st20{fill:#CE5D51;}
	.st21{fill:#B73535;}
	.st22{fill:#D69062;}
</style>
<path class="st0" d="M437.02,57.53c-2.22-2.08-4.45-4.16-6.72-6.22c-2.25-2.07-4.53-4.13-6.83-6.18c-2.29-2.05-4.58-4.11-6.92-6.14
	c-2.33-2.04-4.63-4.08-6.99-6.11l-7.08-6.07c-2.34-2.03-4.76-4.03-7.15-6.04l-7.19-6.02L381.9,9.5l-9.61,4.7l-10.03,4.9l-10.01,4.91
	l-19.86,9.9l-19.68,10.01c-2.78,1.41-5.53,2.85-8.29,4.28c-0.39-0.2-0.77-0.4-1.16-0.6l-11.7-5.99l-11.74-5.96l-11.78-5.93
	c-7.88-3.94-15.77-7.88-23.71-11.78l-11.91-5.85l-11.96-5.83L207.65,0l-11.72,6.82l-9.82,5.71l-9.77,5.74l-9.72,5.76l-9.67,5.78
	l-9.63,5.81l-9.59,5.83l-9.53,5.86l-0.26,0.15l-8.21-3.45l-10.11-4.24c-3.35-1.43-6.78-2.8-10.17-4.2l-10.19-4.19
	c-3.38-1.41-6.84-2.77-10.26-4.15l-10.28-4.13l-10.36-4.08l-9-3.55l-4.95,4.5l-5.79,5.26l-5.72,5.29c-1.92,1.76-3.81,3.53-5.67,5.31
	l-5.62,5.33l-5.54,5.36l-5.46,5.39c-1.82,1.8-3.58,3.62-5.38,5.43C3.46,59.16,1.71,60.99,0,62.83c2.64-1.47,5.24-2.97,7.82-4.46
	c2.56-1.51,5.14-3,7.67-4.52l7.58-4.55l7.51-4.58l7.42-4.62c2.48-1.53,4.94-3.08,7.38-4.64l7.33-4.65l0.09-0.06l2.28,1.24l9.15,4.86
	c3.06,1.62,6.09,3.25,9.18,4.85l9.24,4.81c3.09,1.6,6.14,3.22,9.26,4.8l9.32,4.75l9.33,4.75l9.41,4.7l10.32,5.15l10.81-5.8
	l10.24-5.49l10.18-5.52l10.12-5.55l10.07-5.58l10.03-5.6l9.98-5.63l8.02-4.56l11.23,5.43c8.02,3.86,16.06,7.7,24.13,11.52
	l12.14,5.71l12.18,5.69l12.23,5.66c4.07,1.89,8.17,3.76,12.29,5.62l11.95,5.41l9.74-5.79l9.09-5.41c3.02-1.81,6.07-3.6,9.07-5.41
	l18.01-10.92l17.83-11.01l8.83-5.55l1.44-0.91l0.28,0.17c2.93,1.78,5.82,3.58,8.79,5.35l8.87,5.32c2.96,1.77,5.97,3.52,8.95,5.28
	c2.98,1.76,6,3.51,9.02,5.25c3.01,1.75,6.05,3.49,9.12,5.21c3.05,1.74,6.14,3.45,9.23,5.17c3.1,1.71,6.23,3.41,9.4,5.09
	C441.42,61.71,439.23,59.61,437.02,57.53z"/>
</svg>
