<?xml version="1.0" encoding="utf-8"?>
<!-- Generator: Adobe Illustrator 23.0.6, SVG Export Plug-In . SVG Version: 6.00 Build 0)  -->
<svg version="1.1" id="Capa_1" xmlns="http://www.w3.org/2000/svg" xmlns:xlink="http://www.w3.org/1999/xlink" x="0px" y="0px"
	 viewBox="0 0 658.21 295.67" style="enable-background:new 0 0 658.21 295.67;" xml:space="preserve">
<style type="text/css">
	.st0{fill:#674234;}
	.st1{fill:#563930;}
	.st2{fill-rule:evenodd;clip-rule:evenodd;fill:#674234;}
	.st3{fill:#FFFFFF;}
	.st4{fill:#D68B62;}
	.st5{fill:#AC5F4A;}
	.st6{fill-rule:evenodd;clip-rule:evenodd;fill:#FFFFFF;}
	.st7{fill:#DF6958;}
	.st8{fill:#37333D;}
	.st9{fill:#CD3D3C;}
	.st10{fill-rule:evenodd;clip-rule:evenodd;fill:#DA4D4B;}
	.st11{fill-rule:evenodd;clip-rule:evenodd;fill:#ED625F;}
	.st12{fill:#DA4D4B;}
	.st13{fill-rule:evenodd;clip-rule:evenodd;fill:#CD3D3C;}
	.st14{fill-rule:evenodd;clip-rule:evenodd;fill:#ED8173;}
	.st15{fill-rule:evenodd;clip-rule:evenodd;fill:#37333D;}
	.st16{fill:#ED625F;}
	.st17{fill:#ED8173;}
	.st18{fill:#B62D32;}
	.st19{fill-rule:evenodd;clip-rule:evenodd;fill:#B62D32;}
	.st20{fill:#CE5D51;}
	.st21{fill:#B73535;}
	.st22{fill:#D69062;}
</style>
<g>
	<path class="st6" d="M467.11,16.28c-28.15-2.05-55.88-3.02-82.62,5.83c-13.6,4.5-27.1,11.31-40.63,16.87
		c-5.43,2.24-10.92,3.99-16.45,4.87c-5.53-0.88-11.02-2.63-16.45-4.87c-13.53-5.56-27.03-12.37-40.63-16.87
		c-26.73-8.85-54.46-7.88-82.62-5.83C151.98,18.88,36.83,63.64,14.08,64.87c41.01,61.32,68.03,105.94,117.72,151.09
		c34.88,31.69,76.4,52.43,120.81,60.83c24.39,4.61,49.89,6.66,74.79,6.66c24.89,0,50.4-2.05,74.79-6.66
		c44.4-8.39,85.92-29.13,120.81-60.82c49.71-45.15,79.69-91.05,117.72-151.1C617.98,63.64,502.83,18.88,467.11,16.28z"/>
	<path class="st13" d="M475.84,1.53c-29.57-2.26-58.7-3.32-86.78,6.42c-14.28,4.95-28.47,12.45-42.68,18.58
		c-5.7,2.46-11.47,4.39-17.28,5.36c-5.81-0.97-11.57-2.9-17.28-5.36c-14.21-6.13-28.39-13.62-42.67-18.58
		c-28.08-9.75-57.21-8.68-86.78-6.42C144.84,4.4,23.89,53.67,0,55.03c43.07,67.51,71.45,116.64,123.65,166.35
		c36.64,34.89,80.25,57.73,126.9,66.97c25.62,5.08,52.41,7.33,78.56,7.33c26.15,0,52.94-2.25,78.56-7.33
		c46.64-9.24,90.24-32.08,126.89-66.97c52.22-49.71,83.71-100.24,123.65-166.35C634.32,53.67,513.36,4.4,475.84,1.53z M405.69,145.2
		c-24.88,4.29-49.75,7.22-74.96,7.55c0-0.01-53.34-3.26-78.22-7.55c-32.84-5.67-141.15-51.12-169.99-69.01
		c15.22,2.14,479.26,2.6,494.38,0C548.07,93.77,438.44,139.55,405.69,145.2z"/>
	<path class="st6" d="M337.54,192.22c-29.58,1.15-62.68,2.46-52.76,15.92c5.7,7.74,24.86,14.11,54.43,12.94
		c29.58-1.16,45.85-9.27,52.67-17.14C404.7,189.15,367.12,191.06,337.54,192.22z"/>
</g>
</svg>
