<?xml version="1.0" encoding="utf-8"?>
<!-- Generator: Adobe Illustrator 23.0.6, SVG Export Plug-In . SVG Version: 6.00 Build 0)  -->
<svg version="1.1" id="Capa_1" xmlns="http://www.w3.org/2000/svg" xmlns:xlink="http://www.w3.org/1999/xlink" x="0px" y="0px"
	 viewBox="0 0 713.56 309.15" style="enable-background:new 0 0 713.56 309.15;" xml:space="preserve">
<style type="text/css">
	.st0{fill:#674234;}
	.st1{fill:#563930;}
	.st2{fill-rule:evenodd;clip-rule:evenodd;fill:#674234;}
	.st3{fill:#FFFFFF;}
	.st4{fill:#D68B62;}
	.st5{fill:#AC5F4A;}
	.st6{fill-rule:evenodd;clip-rule:evenodd;fill:#FFFFFF;}
	.st7{fill:#DF6958;}
	.st8{fill:#37333D;}
	.st9{fill:#CD3D3C;}
	.st10{fill-rule:evenodd;clip-rule:evenodd;fill:#DA4D4B;}
	.st11{fill-rule:evenodd;clip-rule:evenodd;fill:#ED625F;}
	.st12{fill:#DA4D4B;}
	.st13{fill-rule:evenodd;clip-rule:evenodd;fill:#CD3D3C;}
	.st14{fill-rule:evenodd;clip-rule:evenodd;fill:#ED8173;}
	.st15{fill-rule:evenodd;clip-rule:evenodd;fill:#37333D;}
	.st16{fill:#ED625F;}
	.st17{fill:#ED8173;}
	.st18{fill:#B62D32;}
	.st19{fill-rule:evenodd;clip-rule:evenodd;fill:#B62D32;}
	.st20{fill:#CE5D51;}
	.st21{fill:#B73535;}
	.st22{fill:#D69062;}
</style>
<g>
	<path class="st16" d="M614.54,114.77c-27.91,0.22-73.98,10.91-107.99,10.67c-5.67-0.03-11-0.39-15.86-1.13
		c-7.99-1.23-16.46-1.79-25.12-1.84c-43.39-0.26-91.74,12.2-110.5,17.56c-0.01,0.18-68.77-17.82-112.14-17.56
		c-8.67,0.05-17.14,0.61-25.13,1.84c-4.86,0.74-10.19,1.1-15.86,1.13c-34,0.24-80.08-10.45-107.99-10.67
		c-14.34-0.11-62.65,17.52-51.99,20.83c36.31,11.26,56.71,45.63,77.9,72.12c74.74,93.42,143.1,97.08,229.02,101.32
		c1.75,0.15,9,0.15,10.74,0c85.93-4.24,154.29-7.9,229.02-101.32c21.19-26.48,41.58-60.86,77.9-72.12
		C677.19,132.29,628.89,114.65,614.54,114.77z"/>
	<path class="st12" d="M691.73,126.17c1.12-0.29,2.26-0.57,3.36-0.86c-27.85,0.66-28.82,1.46-52.36-19.26
		c-28.68-25.24-68.7-57.59-112.28-79.15C480.78-2,423.23-14.89,361.23,25.82c-2.83,1.85-5.59,3.07-8.27,3.77
		c-2.67-0.7-5.44-1.92-8.27-3.77c-62-40.71-119.55-27.81-169.22,1.08c-43.59,21.56-83.6,53.91-112.27,79.15
		c-23.55,20.72-24.52,19.92-52.37,19.26c1.11,0.29,2.25,0.56,3.36,0.85c-1.11,0.01-2.19,0.03-3.37,0.06
		c50.29,10.75,92.79,17.9,139.69,6.26c7.64-1.91,16.51-3.28,26.1-4.23c46.05-1.85,103.71,9.66,126.2,13.39
		c5.65,0.94,11.31,2.9,16.89,4.21c9.34,2.2,18.64,7.11,28.27,7.33c16.84,0.38,32.7-5.82,48.87-9.97c2.06-0.53,4.16-1.23,6.25-1.58
		c22.5-3.74,80.15-15.25,126.21-13.39c9.59,0.95,18.46,2.32,26.1,4.23c46.9,11.64,89.41,4.48,139.69-6.27
		C693.92,126.2,692.84,126.18,691.73,126.17z"/>
	<g>
		<path class="st18" d="M0,115.43c34.67,35.44,103.78,29.51,154.13,23.29c124.63-15.37,156.52,17.51,211.43,15.53
			c-42.83-6.44-65.66-32.76-142.18-35.28C163.22,116.99,95.47,143.4,0,115.43z"/>
		<path class="st18" d="M713.56,115.43c-34.66,35.44-103.78,29.51-154.13,23.29c-124.62-15.37-156.51,17.51-211.43,15.53
			c42.83-6.44,65.66-32.76,142.18-35.28C550.34,116.99,618.09,143.4,713.56,115.43z"/>
	</g>
</g>
</svg>
