<?xml version="1.0" encoding="utf-8"?>
<!-- Generator: Adobe Illustrator 23.0.6, SVG Export Plug-In . SVG Version: 6.00 Build 0)  -->
<svg version="1.1" id="Capa_1" xmlns="http://www.w3.org/2000/svg" xmlns:xlink="http://www.w3.org/1999/xlink" x="0px" y="0px"
	 viewBox="0 0 653.33 183.03" style="enable-background:new 0 0 653.33 183.03;" xml:space="preserve">
<style type="text/css">
	.st0{fill:#674234;}
	.st1{fill:#563930;}
	.st2{fill-rule:evenodd;clip-rule:evenodd;fill:#674234;}
	.st3{fill:#FFFFFF;}
	.st4{fill:#D68B62;}
	.st5{fill:#AC5F4A;}
	.st6{fill-rule:evenodd;clip-rule:evenodd;fill:#FFFFFF;}
	.st7{fill:#DF6958;}
	.st8{fill:#37333D;}
	.st9{fill:#CD3D3C;}
	.st10{fill-rule:evenodd;clip-rule:evenodd;fill:#DA4D4B;}
	.st11{fill-rule:evenodd;clip-rule:evenodd;fill:#ED625F;}
	.st12{fill:#DA4D4B;}
	.st13{fill-rule:evenodd;clip-rule:evenodd;fill:#CD3D3C;}
	.st14{fill-rule:evenodd;clip-rule:evenodd;fill:#ED8173;}
	.st15{fill-rule:evenodd;clip-rule:evenodd;fill:#37333D;}
	.st16{fill:#ED625F;}
	.st17{fill:#ED8173;}
	.st18{fill:#B62D32;}
	.st19{fill-rule:evenodd;clip-rule:evenodd;fill:#B62D32;}
	.st20{fill:#CE5D51;}
	.st21{fill:#B73535;}
	.st22{fill:#D69062;}
</style>
<g>
	<path class="st3" d="M653.33,93.24c0,0-145.65,83.62-325.3,83.62c-179.66,0-325.3-83.62-325.3-83.62S148.37,15.1,328.03,15.1
		C507.68,15.1,653.33,93.24,653.33,93.24z"/>
	<g>
		<path class="st8" d="M90.05,58.24l7.87,38.7l18.61,8.91l-6.21,19.15c0,0-61.87-5.7-90.24-19.39C8.23,99.89,0,93.24,0,93.24
			S60.1,59.82,90.05,58.24z"/>
		<path class="st8" d="M562.66,58.24l-7.86,38.7l-18.61,8.91l6.2,25.92c0,0,61.88-12.47,90.25-26.16
			c11.84-5.72,20.08-12.37,20.08-12.37S592.61,59.82,562.66,58.24z"/>
	</g>
	<g>
		<path class="st16" d="M326.65,24.26c57.1-0.05,117.84,1.65,176.38,15.17c53.41,12.34,105,35.66,150.29,53.81
			c-10.27-7.92-128.06-80.33-206.04-90.95C401.91-3.89,361.76,4.4,326.65,4.4c-35.09-0.01-68.46-8.3-113.85-2.11
			C134.82,12.91,10.27,85.32,0,93.24c47.47-19.01,101.84-43.05,158-55.55C214.14,25.19,272.07,24.22,326.65,24.26z"/>
		<path class="st16" d="M327.79,138C52.56,130.88,13.31,97.93,0,93.24c87.14,69,153.74,85.5,264.54,89.69
			c0,0.13,126.51,0.13,126.51,0c110.63-4.2,175.14-20.7,262.28-89.69C640.02,97.93,592.08,144.85,327.79,138z"/>
	</g>
</g>
</svg>
