<?xml version="1.0" encoding="utf-8"?>
<!-- Generator: Adobe Illustrator 23.0.6, SVG Export Plug-In . SVG Version: 6.00 Build 0)  -->
<svg version="1.1" id="Capa_1" xmlns="http://www.w3.org/2000/svg" xmlns:xlink="http://www.w3.org/1999/xlink" x="0px" y="0px"
	 viewBox="0 0 660.15 441.55" style="enable-background:new 0 0 660.15 441.55;" xml:space="preserve">
<style type="text/css">
	.st0{fill:#674234;}
	.st1{fill:#563930;}
	.st2{fill-rule:evenodd;clip-rule:evenodd;fill:#674234;}
	.st3{fill:#FFFFFF;}
	.st4{fill:#D68B62;}
	.st5{fill:#AC5F4A;}
	.st6{fill-rule:evenodd;clip-rule:evenodd;fill:#FFFFFF;}
	.st7{fill:#DF6958;}
	.st8{fill:#37333D;}
	.st9{fill:#CD3D3C;}
	.st10{fill-rule:evenodd;clip-rule:evenodd;fill:#DA4D4B;}
	.st11{fill-rule:evenodd;clip-rule:evenodd;fill:#ED625F;}
	.st12{fill:#DA4D4B;}
	.st13{fill-rule:evenodd;clip-rule:evenodd;fill:#CD3D3C;}
	.st14{fill-rule:evenodd;clip-rule:evenodd;fill:#ED8173;}
	.st15{fill-rule:evenodd;clip-rule:evenodd;fill:#37333D;}
	.st16{fill:#ED625F;}
	.st17{fill:#ED8173;}
	.st18{fill:#B62D32;}
	.st19{fill-rule:evenodd;clip-rule:evenodd;fill:#B62D32;}
	.st20{fill:#CE5D51;}
	.st21{fill:#B73535;}
	.st22{fill:#D69062;}
</style>
<g>
	<path class="st8" d="M3.16,190.09c102.43,192.05,184.22,184.48,184.22,184.48s111.99,7.18,217.76,14.81
		c105.76,7.57,254.37-197.05,254.37-197.05C305.31-110.81,3.16,190.09,3.16,190.09z"/>
	<path class="st20" d="M248.18,372.7c72.92,6.66,147.02-3.95,217.94-25.98c41.49-12.89,84.01-29.29,123.13-53.41
		c-31.35-36.62-86.41-60.97-149.16-61.06c-39.44-0.06-75.85,9.48-105.29,25.64c-29.38-16.25-65.78-25.89-105.22-25.94
		c-64.84-0.09-114.47,25.74-145.29,64.31C141.74,328.66,188.77,367.28,248.18,372.7z"/>
	<path class="st3" d="M469.97,294.83c-23.76,2.75-78.46,7.68-133.14,7.68c-54.68,0-109.35-4.93-133.11-7.68
		c-93.55-10.79-175.54-45.84-117.3,7.84c71.04,65.46,124.54,107.14,250.41,107.14c125.88,0,187.61-49.7,258.64-115.16
		C653.7,240.96,563.59,284.02,469.97,294.83z"/>
	<path class="st3" d="M331.46,54.82c-98.05,0-186.06,25.89-246.29,49.72c2.04-0.37,4-0.61,5.82-0.71l26.19,38.25
		c0,0,97.23,6.52,215.53,6.52c113.44,0,211.51-6.52,211.51-6.52l24.3-38.25C572.65,104.06,432.06,54.82,331.46,54.82z"/>
	<g>
		<path class="st9" d="M330.06,76.17c57.7-0.08,119.07,2.78,178.23,25.56c53.96,20.78,106.09,60.06,151.87,90.62
			C649.77,179.01,530.76,21.74,451.96,3.87c-45.86-10.42-86.43,3.55-121.9,3.55c-35.45-0.02-69.17-13.97-115.04-3.55
			C136.23,21.74,10.38,179.01,0,192.34c47.97-32.01,102.9-72.51,159.65-93.56C216.37,77.72,274.91,76.09,330.06,76.17z"/>
		<path class="st21" d="M508.28,79.13C449.13,56.34,387.76,53.5,330.06,53.57c-55.15-0.07-113.68,1.56-170.41,22.62
			C102.91,97.24,47.97,160.32,0.01,192.33c-0.01,0-0.01,0-0.01,0.01c47.97-32.01,102.9-72.51,159.65-93.56
			c56.72-21.06,115.26-22.69,170.41-22.61c57.7-0.08,119.07,2.78,178.23,25.56c53.96,20.78,106.09,60.06,151.87,90.62
			c0-0.01-0.02-0.01-0.02-0.01C614.37,161.77,562.24,99.91,508.28,79.13z"/>
		<path class="st9" d="M331.21,334.2C50.1,332.43,13.44,204.45,0,192.34C88.06,370.6,155.34,430.48,267.3,441.29
			c0,0.34,127.82,0.34,127.83,0c111.77-10.84,178.55-51.37,265.02-248.95C646.69,204.45,598.46,335.89,331.21,334.2z"/>
	</g>
</g>
</svg>
