<?xml version="1.0" encoding="utf-8"?>
<!-- Generator: Adobe Illustrator 23.0.6, SVG Export Plug-In . SVG Version: 6.00 Build 0)  -->
<svg version="1.1" id="Capa_1" xmlns="http://www.w3.org/2000/svg" xmlns:xlink="http://www.w3.org/1999/xlink" x="0px" y="0px"
	 viewBox="0 0 598.76 366.93" style="enable-background:new 0 0 598.76 366.93;" xml:space="preserve">
<style type="text/css">
	.st0{fill:#674234;}
	.st1{fill:#563930;}
	.st2{fill-rule:evenodd;clip-rule:evenodd;fill:#674234;}
	.st3{fill:#FFFFFF;}
	.st4{fill:#D68B62;}
	.st5{fill:#AC5F4A;}
	.st6{fill-rule:evenodd;clip-rule:evenodd;fill:#FFFFFF;}
	.st7{fill:#DF6958;}
	.st8{fill:#37333D;}
	.st9{fill:#CD3D3C;}
	.st10{fill-rule:evenodd;clip-rule:evenodd;fill:#DA4D4B;}
	.st11{fill-rule:evenodd;clip-rule:evenodd;fill:#ED625F;}
	.st12{fill:#DA4D4B;}
	.st13{fill-rule:evenodd;clip-rule:evenodd;fill:#CD3D3C;}
	.st14{fill-rule:evenodd;clip-rule:evenodd;fill:#ED8173;}
	.st15{fill-rule:evenodd;clip-rule:evenodd;fill:#37333D;}
	.st16{fill:#ED625F;}
	.st17{fill:#ED8173;}
	.st18{fill:#B62D32;}
	.st19{fill-rule:evenodd;clip-rule:evenodd;fill:#B62D32;}
	.st20{fill:#CE5D51;}
	.st21{fill:#B73535;}
	.st22{fill:#D69062;}
</style>
<g>
	<path class="st0" d="M2.85,141.11c13.89,23.43,27.34,43.15,40.2,59.87c34.49,23.41,99.85,34.54,257.35,35.43
		c239.61,1.36,257.86-29.01,296.98-91.27c0.53-1.37,0.81-2.19,0.81-2.19C276.92-104.52,2.85,141.11,2.85,141.11z"/>
	<path class="st3" d="M300.63,22.24c-88.93,0-168.76,25.73-223.39,49.4c1.85-0.37,3.62-0.61,5.27-0.72l23.77,38.01
		c0,0,88.18,11.62,195.49,11.62c102.89,0,191.84-11.62,191.84-11.62l22.05-38.01C519.41,71.17,391.87,22.24,300.63,22.24z"/>
	<path class="st4" d="M299.36,48.11c52.34-0.07,108,2.27,161.66,20.86c48.95,16.97,96.23,49.03,137.74,73.98
		c-9.42-10.89-117.37-125.2-188.83-139.8c-41.6-8.5-78.4,2.9-110.57,2.9c-32.15-0.02-62.74-11.4-104.34-2.9
		C123.56,17.75,9.41,132.06,0,142.95c43.5-26.14,93.33-59.18,144.79-76.37C196.25,49.38,249.34,48.05,299.36,48.11z"/>
	<path class="st5" d="M461.02,50.52C407.37,31.93,351.7,29.61,299.36,29.66c-50.02-0.06-103.11,1.28-154.57,18.47
		C93.33,65.31,43.51,116.8,0.01,142.94C0,142.94,0,142.95,0,142.95c43.5-26.14,93.33-59.18,144.79-76.37
		c51.46-17.2,104.54-18.54,154.57-18.47c52.34-0.07,108,2.27,161.66,20.86c48.95,16.97,96.23,49.03,137.74,73.98l-0.01-0.01
		C557.24,118,509.96,67.5,461.02,50.52z"/>
	<path class="st7" d="M399.17,200.84c-35.78-0.05-68.8,7.73-95.5,20.92c-26.65-13.27-59.68-21.13-95.44-21.17
		c-38.62-0.05-71.25,9.07-97.05,24.22c41.2,7.34,100.63,11.09,189.23,11.59c95.24,0.54,155.5-3.94,196-13.43
		C469.44,209.16,435.77,200.88,399.17,200.84z"/>
	<path class="st4" d="M358.39,332.12c-0.01,0.27-115.95,0.27-115.95,0c-39.7-3.46-74.76-8.26-106.92-22.51
		c-1.96,0.07-3.17,0.38-3.12,1.03c1.81,24.91,99.18,58.04,164.23,56.21c77.74-2.18,148.27-33.88,159.94-55.22
		C457.09,302.5,395.67,328.86,358.39,332.12z"/>
</g>
</svg>
