<?xml version="1.0" encoding="utf-8"?>
<!-- Generator: Adobe Illustrator 23.0.6, SVG Export Plug-In . SVG Version: 6.00 Build 0)  -->
<svg version="1.1" id="Capa_1" xmlns="http://www.w3.org/2000/svg" xmlns:xlink="http://www.w3.org/1999/xlink" x="0px" y="0px"
	 viewBox="0 0 680.61 286.11" enable-background="new 0 0 680.61 286.11" xml:space="preserve">
<path fill-rule="evenodd" clip-rule="evenodd" fill="#37333D" d="M624.89,88.56c-30.79-27.17-64.74-55.6-105.28-71.06
	C486.05,4.69,451.65-4.19,414.91,2.03c-18.3,3.09-36.09,8.97-53.72,14.55c-7.01,2.22-13.93,4.04-20.9,5.01
	c-6.96-0.97-13.88-2.8-20.89-5.01C301.79,11,283.99,5.12,265.7,2.03c-36.73-6.22-71.14,2.66-104.71,15.47
	C120.45,32.96,86.5,61.39,55.71,88.56C49.82,93.76,0,139.4,0,139.4s109.35,77.56,163.57,108.55
	c34.03,19.44,72.06,32.45,112.81,35.79c21.19,1.74,42.57,2.39,63.92,2.38c21.36,0.01,42.74-0.64,63.93-2.38
	c40.75-3.34,78.78-16.34,112.81-35.79c54.22-30.98,163.57-108.55,163.57-108.55S630.78,93.76,624.89,88.56z"/>
</svg>
