<?xml version="1.0" encoding="utf-8"?>
<!-- Generator: Adobe Illustrator 23.0.6, SVG Export Plug-In . SVG Version: 6.00 Build 0)  -->
<svg version="1.1" id="Capa_1" xmlns="http://www.w3.org/2000/svg" xmlns:xlink="http://www.w3.org/1999/xlink" x="0px" y="0px"
	 viewBox="0 0 598.77 411.57" style="enable-background:new 0 0 598.77 411.57;" xml:space="preserve">
<style type="text/css">
	.st0{fill:#674234;}
	.st1{fill:#563930;}
	.st2{fill-rule:evenodd;clip-rule:evenodd;fill:#674234;}
	.st3{fill:#FFFFFF;}
	.st4{fill:#D68B62;}
	.st5{fill:#AC5F4A;}
	.st6{fill-rule:evenodd;clip-rule:evenodd;fill:#FFFFFF;}
	.st7{fill:#DF6958;}
	.st8{fill:#37333D;}
	.st9{fill:#CD3D3C;}
	.st10{fill-rule:evenodd;clip-rule:evenodd;fill:#DA4D4B;}
	.st11{fill-rule:evenodd;clip-rule:evenodd;fill:#ED625F;}
	.st12{fill:#DA4D4B;}
	.st13{fill-rule:evenodd;clip-rule:evenodd;fill:#CD3D3C;}
	.st14{fill-rule:evenodd;clip-rule:evenodd;fill:#ED8173;}
	.st15{fill-rule:evenodd;clip-rule:evenodd;fill:#37333D;}
	.st16{fill:#ED625F;}
	.st17{fill:#ED8173;}
	.st18{fill:#B62D32;}
	.st19{fill-rule:evenodd;clip-rule:evenodd;fill:#B62D32;}
	.st20{fill:#CE5D51;}
	.st21{fill:#B73535;}
	.st22{fill:#D69062;}
</style>
<g>
	<g>
		<path class="st0" d="M300.41,330.8c133.08,0.92,206.28-51.08,247.27-100.17c10.84-14.07,20.04-27.59,27.5-39.39
			c11.32-19.43,17.65-35.06,21.54-41.77C276.15-125.83,2.82,148.82,2.82,148.82c22.51,42.61,43.91,75.5,63.44,100.91
			C108.89,291.42,179.86,329.97,300.41,330.8z"/>
	</g>
	<path class="st3" d="M300.64,22.8c-88.93,0-168.76,26.81-223.38,51.47c1.85-0.37,3.62-0.63,5.27-0.73l23.76,36.41
		c0,0,88.18,12.1,195.48,12.1c102.89,0,191.84-12.1,191.84-12.1l22.06-36.41C519.41,73.79,391.88,22.8,300.64,22.8z"/>
	<path class="st4" d="M299.37,49.33c52.33-0.07,108,2.32,161.66,21.38c48.95,17.4,96.23,50.27,137.74,75.84
		C589.36,135.4,481.41,18.2,409.94,3.24c-41.6-8.73-78.39,2.97-110.57,2.97c-32.15-0.02-62.74-11.7-104.34-2.97
		C123.56,18.2,9.42,135.39,0,146.56c43.5-26.79,93.33-60.68,144.8-78.29C196.26,50.63,249.34,49.26,299.37,49.33z"/>
	<path class="st5" d="M461.03,51.81C407.37,32.74,351.7,30.36,299.37,30.42c-50.03-0.06-103.11,1.3-154.56,18.93
		c-51.47,17.61-101.29,70.4-144.8,97.2L0,146.56c43.5-26.79,93.33-60.68,144.8-78.29c51.46-17.63,104.54-19,154.56-18.93
		c52.33-0.07,108,2.32,161.66,21.38c48.95,17.4,96.23,50.27,137.74,75.84l0-0.01C557.26,120.98,509.97,69.2,461.03,51.81z"/>
	<path class="st4" d="M464.06,347.19c-31.21,18.45-65.19,24.73-105.67,29.02c-0.01,0.33-115.95,0.33-115.95,0
		c-34.5-3.65-64.31-10.96-91.78-25.91c-1.94-0.26-3.11-0.12-3.06,0.66c1.81,25.53,67.12,56.85,157.33,60.43
		c53.94,2.14,141.4-14.81,161.39-59.46C467.58,349.13,466.48,347.74,464.06,347.19z"/>
	<path class="st7" d="M300.41,330.8c87.65,0.6,149.31-21.75,192.91-51.1c-24.87-17.15-56.94-27.76-98.24-27.81
		c-33.91-0.05-65.21,7.03-90.53,19.01c-25.27-12.05-56.58-19.2-90.48-19.23c-45.92-0.06-80.78,10.79-106.47,30.59
		C151.02,309.54,212.55,330.19,300.41,330.8z"/>
</g>
</svg>
