<?xml version="1.0" encoding="utf-8"?>
<!-- Generator: Adobe Illustrator 23.0.6, SVG Export Plug-In . SVG Version: 6.00 Build 0)  -->
<svg version="1.1" id="Capa_1" xmlns="http://www.w3.org/2000/svg" xmlns:xlink="http://www.w3.org/1999/xlink" x="0px" y="0px"
	 viewBox="0 0 645.45 490.64" enable-background="new 0 0 645.45 490.64" xml:space="preserve">
<g>
	<path fill="#37333D" d="M0,194.79C89.54,408.35,183.12,423.7,183.12,423.7s109.55,26.98,212.9,16.36
		c166-17.07,248.41-243.23,248.41-243.23C298.2-139.55,0,194.79,0,194.79z"/>
	<path fill="#CE5D51" d="M248.01,448.86c67.59,5.99,136.26-3.54,202.01-23.37c38.46-11.59,68.07-26.33,104.34-48.05
		c-29.06-32.94-70.3-54.85-128.48-54.93c-36.54-0.06-70.29,8.53-97.58,23.06c-27.25-14.62-60.98-23.28-97.54-23.33
		c-60.08-0.09-102.65,19.28-131.22,53.97C152.79,405.37,192.95,443.98,248.01,448.86z"/>
	<path fill="#FFFFFF" d="M435.74,378.07c-18.75,2.01-61.9,5.63-105.05,5.63c-43.15,0-86.29-3.62-105.05-5.63
		c-73.82-7.89-138.53-33.54-92.56,5.74c56.06,47.9,98.28,78.4,197.61,78.4c99.34,0,148.06-36.37,204.1-84.27
		C580.74,338.66,509.64,370.17,435.74,378.07z"/>
	<path fill="#FFFFFF" d="M324.08,44.71c-95.87,0-181.91,32.51-240.8,62.41c2-0.45,3.89-0.76,5.69-0.88l25.61,44.14
		c0,0,95.06,14.68,210.72,14.68c110.91,0,206.79-14.68,206.79-14.68l23.78-44.14C559.89,106.55,422.44,44.71,324.08,44.71z"/>
	<g>
		<path fill="#CD3D3C" d="M322.7,76.87c56.41-0.08,116.43,2.82,174.27,25.94c52.76,21.1,103.73,60.96,148.48,91.98
			C635.3,181.25,518.94,22.07,441.9,3.92c-44.84-10.58-84.5,3.61-119.19,3.61c-34.66-0.02-67.62-14.19-112.47-3.61
			C133.2,22.07,10.16,181.25,0,194.79c46.9-32.49,100.61-73.59,156.1-94.94C211.56,78.46,268.78,76.79,322.7,76.87z"/>
		<path fill="#B73535" d="M496.97,79.88C439.13,56.76,379.12,53.87,322.7,53.95c-53.92-0.08-111.14,1.57-166.6,22.96
			C100.61,98.26,46.9,162.28,0.02,194.78L0,194.79c46.9-32.49,100.61-73.59,156.1-94.94c55.46-21.38,112.68-23.05,166.6-22.97
			c56.41-0.08,116.43,2.82,174.27,25.94c52.76,21.1,103.73,60.96,148.48,91.98l-0.01-0.01C600.71,163.77,549.72,100.97,496.97,79.88
			z"/>
		<path fill="#CD3D3C" d="M323.84,418.21C48.98,416.07,30.93,238.96,0,194.79c80.45,226.38,151.88,282.53,261.35,295.56
			c0,0.39,124.97,0.39,124.98,0c109.29-13.04,174.58-58.11,259.13-295.56C632.3,209.33,585.13,420.24,323.84,418.21z"/>
	</g>
</g>
</svg>
