<?xml version="1.0" encoding="utf-8"?>
<!-- Generator: Adobe Illustrator 23.0.6, SVG Export Plug-In . SVG Version: 6.00 Build 0)  -->
<svg version="1.1" id="Capa_1" xmlns="http://www.w3.org/2000/svg" xmlns:xlink="http://www.w3.org/1999/xlink" x="0px" y="0px"
	 viewBox="0 0 613.25 287.46" enable-background="new 0 0 613.25 287.46" xml:space="preserve">
<path fill="#37333D" d="M610.04,196.64c0.38-0.25,0.75-0.49,1.13-0.73c-0.78-0.48-1.54-0.94-2.32-1.41
	c-19.22-34.73-42.18-66.69-67.87-95.02C501.8,56.27,449.43,10.18,395.53,1.24c-29.51-4.9-57.63,6.35-87.25,5.64
	c-1.5,0-2.25,0-3.74,0.01c-29.62,0.79-57.76-10.38-87.26-5.42c-55.46,9.33-109.19,57.67-148.95,102.71
	c-25.83,29.26-48.86,62.25-67.83,98.06c-9.55,6.34,120.94,80.77,183.41,83.08c81.71,3.02,162.89,2.87,244.62-0.53
	c62.3-2.59,194.03-76.6,184.2-83.15C611.84,199.96,610.95,198.3,610.04,196.64z"/>
</svg>
