<?xml version="1.0" encoding="utf-8"?>
<!-- Generator: Adobe Illustrator 23.0.6, SVG Export Plug-In . SVG Version: 6.00 Build 0)  -->
<svg version="1.1" id="Capa_1" xmlns="http://www.w3.org/2000/svg" xmlns:xlink="http://www.w3.org/1999/xlink" x="0px" y="0px"
	 viewBox="0 0 731.4 342.39" style="enable-background:new 0 0 731.4 342.39;" xml:space="preserve">
<style type="text/css">
	.st0{fill:#674234;}
	.st1{fill:#563930;}
	.st2{fill-rule:evenodd;clip-rule:evenodd;fill:#674234;}
	.st3{fill:#FFFFFF;}
	.st4{fill:#D68B62;}
	.st5{fill:#AC5F4A;}
	.st6{fill-rule:evenodd;clip-rule:evenodd;fill:#FFFFFF;}
	.st7{fill:#DF6958;}
	.st8{fill:#37333D;}
	.st9{fill:#CD3D3C;}
	.st10{fill-rule:evenodd;clip-rule:evenodd;fill:#DA4D4B;}
	.st11{fill-rule:evenodd;clip-rule:evenodd;fill:#ED625F;}
	.st12{fill:#DA4D4B;}
	.st13{fill-rule:evenodd;clip-rule:evenodd;fill:#CD3D3C;}
	.st14{fill-rule:evenodd;clip-rule:evenodd;fill:#ED8173;}
	.st15{fill-rule:evenodd;clip-rule:evenodd;fill:#37333D;}
	.st16{fill:#ED625F;}
	.st17{fill:#ED8173;}
	.st18{fill:#B62D32;}
	.st19{fill-rule:evenodd;clip-rule:evenodd;fill:#B62D32;}
	.st20{fill:#CE5D51;}
	.st21{fill:#B73535;}
	.st22{fill:#D69062;}
</style>
<g>
	<path class="st8" d="M63.17,74.28C142.91,226,231.15,283.01,231.15,283.01s86.01,3.85,194.34,9.78
		C533.79,298.68,665.3,74.28,665.3,74.28C502.07,101.01,63.17,74.28,63.17,74.28z"/>
	<g>
		<path class="st6" d="M362.71,69.32l-216.04-1.58c0,0,8.49,32.19,25.48,41.29c43.51,23.32,103.94,24.05,190.56,24.05
			c86.6,0,147.04-0.73,190.55-24.05c16.99-9.09,22.33-33.41,25.16-40.45C578.63,68.19,362.71,69.32,362.71,69.32z"/>
		<path class="st3" d="M470.43,231.97c-19.09,2.83-63.03,7.92-106.98,7.92c-43.94,0-87.87-5.09-106.98-7.92
			c-75.17-11.11-156.9-77.9-110.09-22.62c57.08,67.42,115.9,130.4,217.06,130.4s159.99-62.97,217.06-130.4
			C627.32,154.07,545.68,220.84,470.43,231.97z"/>
	</g>
	<path class="st9" d="M473.64,254.81c-17.29,2.85-70,12.25-109.74,12.25c-39.74,0-92.46-9.4-109.74-12.25
		C186.18,243.55,60.63,70.98,61.27,72.2c19.51,32.09,69.42,129.46,111.75,185.48c51.61,68.3,99.39,84.71,190.88,84.71
		c91.49,0,139.27-16.42,190.9-84.71c42.32-56.01,92.23-153.39,111.74-185.48C667.21,70.9,541.69,243.54,473.64,254.81z"/>
	<path class="st9" d="M650.38,74.36C601.2,80.32,453.38,3.64,376.96,26.24c-2.19,0.65-7.84,2.22-12.72,3.21
		c-4.9-0.98-10.54-2.55-12.71-3.21C275.08,3.64,127.27,80.32,78.08,74.36c-6.14-0.75-24.22-2.53-14.91-0.08
		c92.02,24.28,203.32-0.38,300.62-0.04h0.9c97.27-0.34,205.92,24.32,300.62,0.04C674.61,71.89,656.53,73.6,650.38,74.36z"/>
	<path class="st21" d="M364.68,62.44h-0.9c-97.29-0.33-208.59,36.12-300.62,11.84c92.02,24.28,203.32-0.38,300.62-0.04h0.9
		c97.27-0.34,205.92,24.32,300.62,0.04C570.6,98.56,461.95,62.11,364.68,62.44z"/>
	<g>
		<path class="st22" d="M27.13,32.74C34.08,22.75,49.97,6.6,59.16,0.7c5.52-3.57-46.84,5.96-56.78,39.81
			c-8.67,29.63,8.43,58.33,17.39,92.28c-4.85-42.66-4.91-53.18-3.16-73.34C17.52,49.15,22.25,39.74,27.13,32.74z"/>
		<path class="st22" d="M704.27,32.74c-6.95-9.98-22.84-26.13-32.04-32.03c-5.52-3.57,46.84,5.96,56.78,39.81
			c8.68,29.63-8.43,58.33-17.39,92.28c4.85-42.65,4.92-53.18,3.16-73.34C713.88,49.15,709.14,39.75,704.27,32.74z"/>
	</g>
</g>
</svg>
