<?xml version="1.0" encoding="utf-8"?>
<!-- Generator: Adobe Illustrator 23.0.6, SVG Export Plug-In . SVG Version: 6.00 Build 0)  -->
<svg version="1.1" id="Capa_1" xmlns="http://www.w3.org/2000/svg" xmlns:xlink="http://www.w3.org/1999/xlink" x="0px" y="0px"
	 viewBox="0 0 620.98 292.85" enable-background="new 0 0 620.98 292.85" xml:space="preserve">
<g>
	<path fill-rule="evenodd" clip-rule="evenodd" fill="#CD3D3C" d="M424.63,0.29c-26.74,0.43-52.84,7.25-75.52,21.99
		c-11.72,7.61-33.54,42.98-49.5,25.95c-37.58-40.08-93.1-58.28-144.83-42.64C98.42,22.62,0,78.51,0,78.51s58.43,105.01,98.62,144.07
		c48.47,47.12,121.7,71.74,187.48,70.19c34.99-0.02,69.98-2.51,104.03-9.74c58.45-12.41,119.46-39,159.43-89.67
		c21.47-27.22,71.43-114.85,71.43-114.85S486.46-0.71,424.63,0.29z"/>
	<path fill-rule="evenodd" clip-rule="evenodd" fill="#FFFFFF" d="M237.74,198.35c-17.04-27.47,61.22-18.46,70.31-18.06
		c9.56,0.41,82.76-2.32,67.91,24.11c-13.16,23.42-49.57,24.93-70.78,23.98C282.35,227.36,251.92,221.22,237.74,198.35z"/>
</g>
</svg>
