<?xml version="1.0" encoding="utf-8"?>
<!-- Generator: Adobe Illustrator 23.0.6, SVG Export Plug-In . SVG Version: 6.00 Build 0)  -->
<svg version="1.1" id="Capa_1" xmlns="http://www.w3.org/2000/svg" xmlns:xlink="http://www.w3.org/1999/xlink" x="0px" y="0px"
	 viewBox="0 0 753.66 268.2" style="enable-background:new 0 0 753.66 268.2;" xml:space="preserve">
<style type="text/css">
	.st0{fill:#674234;}
	.st1{fill:#563930;}
	.st2{fill-rule:evenodd;clip-rule:evenodd;fill:#674234;}
	.st3{fill:#FFFFFF;}
	.st4{fill:#D68B62;}
	.st5{fill:#AC5F4A;}
	.st6{fill-rule:evenodd;clip-rule:evenodd;fill:#FFFFFF;}
	.st7{fill:#DF6958;}
	.st8{fill:#37333D;}
	.st9{fill:#CD3D3C;}
	.st10{fill-rule:evenodd;clip-rule:evenodd;fill:#DA4D4B;}
	.st11{fill-rule:evenodd;clip-rule:evenodd;fill:#ED625F;}
	.st12{fill:#DA4D4B;}
	.st13{fill-rule:evenodd;clip-rule:evenodd;fill:#CD3D3C;}
	.st14{fill-rule:evenodd;clip-rule:evenodd;fill:#ED8173;}
	.st15{fill-rule:evenodd;clip-rule:evenodd;fill:#37333D;}
	.st16{fill:#ED625F;}
	.st17{fill:#ED8173;}
	.st18{fill:#B62D32;}
	.st19{fill-rule:evenodd;clip-rule:evenodd;fill:#B62D32;}
	.st20{fill:#CE5D51;}
	.st21{fill:#B73535;}
	.st22{fill:#D69062;}
</style>
<g>
	<path class="st0" d="M369.49,115.12c0,0,1.62,0.32,2.41,0.23c0.8,0.08,2.41-0.27,2.41-0.27c61.69-6.93,126.45-31.02,188.41-15.5
		c63.74,15.97,127.7,29.14,190.94,48.37c-35-29.92-72.01-56.54-110.41-79.61C596.03,39.97,542.01,9.1,489.38,1.42
		c-38.53-5.62-81.17,6.23-117.91,20.79C334.57,8.15,291.83-3.09,253.35,3.05c-51.68,8.25-104.54,39.87-150.57,68.67
		C67.06,94.07,32.63,119.54,0,147.95c59.85-18.14,120.75-29.77,180.89-45.72C242.7,85.84,307.72,109.01,369.49,115.12z"/>
	<path class="st0" d="M571.05,229.09c-22.44-0.91-45.01-1.42-67.31-3.99c-43.58-5-87.48-4.13-131.32-2.81
		c-43.87-0.72-87.79-0.97-131.33,4.63c-22.31,2.87-44.93,3.49-67.41,4.43c-6.39,0.27-25.27-1.36-28.74,2.23
		c31.25,4.09,61.63,15.27,92.48,22.17c44.69,10,89.97,12.73,135.21,12.43c45.23-0.3,90.52-3.4,135.15-13.75
		c30.67-7.12,60.82-18.49,91.87-23.03C596.45,227.74,577.23,229.34,571.05,229.09z"/>
</g>
</svg>
