<?xml version="1.0" encoding="utf-8"?>
<!-- Generator: Adobe Illustrator 23.0.6, SVG Export Plug-In . SVG Version: 6.00 Build 0)  -->
<svg version="1.1" id="Capa_1" xmlns="http://www.w3.org/2000/svg" xmlns:xlink="http://www.w3.org/1999/xlink" x="0px" y="0px"
	 viewBox="0 0 633.1 165.62" style="enable-background:new 0 0 633.1 165.62;" xml:space="preserve">
<style type="text/css">
	.st0{fill:#674234;}
	.st1{fill:#563930;}
	.st2{fill-rule:evenodd;clip-rule:evenodd;fill:#674234;}
	.st3{fill:#FFFFFF;}
	.st4{fill:#D68B62;}
	.st5{fill:#AC5F4A;}
	.st6{fill-rule:evenodd;clip-rule:evenodd;fill:#FFFFFF;}
	.st7{fill:#DF6958;}
	.st8{fill:#37333D;}
	.st9{fill:#CD3D3C;}
	.st10{fill-rule:evenodd;clip-rule:evenodd;fill:#DA4D4B;}
	.st11{fill-rule:evenodd;clip-rule:evenodd;fill:#ED625F;}
	.st12{fill:#DA4D4B;}
	.st13{fill-rule:evenodd;clip-rule:evenodd;fill:#CD3D3C;}
	.st14{fill-rule:evenodd;clip-rule:evenodd;fill:#ED8173;}
	.st15{fill-rule:evenodd;clip-rule:evenodd;fill:#37333D;}
	.st16{fill:#ED625F;}
	.st17{fill:#ED8173;}
	.st18{fill:#B62D32;}
	.st19{fill-rule:evenodd;clip-rule:evenodd;fill:#B62D32;}
	.st20{fill:#CE5D51;}
	.st21{fill:#B73535;}
	.st22{fill:#D69062;}
</style>
<g>
	<g>
		<path class="st0" d="M73.77,4.69c0,0-0.48-0.2-1.39-0.52c-0.91-0.31-2.25-0.78-3.97-1.24c-1.72-0.47-3.82-1.03-6.23-1.47
			c-1.21-0.24-2.5-0.45-3.85-0.66c-1.36-0.2-2.78-0.37-4.27-0.5c-2.97-0.27-6.19-0.36-9.55-0.22c-3.36,0.16-6.87,0.58-10.38,1.4
			c-1.75,0.41-3.52,0.89-5.24,1.52c-0.87,0.29-1.72,0.65-2.58,0.99c-0.84,0.38-1.7,0.74-2.52,1.17c-1.67,0.82-3.27,1.78-4.82,2.83
			c-1.54,1.07-3.01,2.23-4.4,3.5c-2.75,2.55-5.13,5.5-7.06,8.68c-0.49,0.79-0.92,1.62-1.38,2.42c-0.4,0.84-0.83,1.66-1.2,2.5
			c-0.74,1.68-1.41,3.38-1.95,5.1c-1.1,3.44-1.85,6.89-2.3,10.22c-0.44,3.34-0.66,6.54-0.69,9.52c-0.02,1.49,0.02,2.93,0.04,4.28
			c0.08,1.37,0.16,2.67,0.23,3.88c0.11,1.22,0.2,2.36,0.31,3.41c0.13,1.06,0.26,2.03,0.38,2.9c0.06,0.44,0.11,0.85,0.17,1.24
			c0.06,0.38,0.13,0.75,0.18,1.09c0.12,0.68,0.22,1.26,0.3,1.73c0.17,0.93,0.27,1.43,0.27,1.43s0.01-0.49,0.03-1.41
			c0.02-0.92,0.01-2.27,0.07-3.97c0.02-0.85,0.04-1.79,0.08-2.82c0.07-1.02,0.1-2.12,0.16-3.29c0.09-1.16,0.18-2.4,0.28-3.71
			c0.16-1.29,0.25-2.66,0.44-4.06c0.09-0.7,0.19-1.41,0.28-2.14c0.09-0.73,0.23-1.46,0.36-2.2c0.12-0.74,0.24-1.5,0.41-2.26
			c0.16-0.75,0.29-1.53,0.48-2.29c0.68-3.09,1.62-6.24,2.81-9.36c1.21-3.11,2.7-6.17,4.54-9.02c1.86-2.83,4.02-5.49,6.53-7.78
			c2.49-2.31,5.29-4.28,8.27-5.88c2.98-1.61,6.15-2.84,9.34-3.78c1.59-0.48,3.21-0.83,4.8-1.19c1.6-0.32,3.19-0.58,4.75-0.79
			c3.13-0.41,6.16-0.61,8.98-0.67c2.83-0.06,5.46,0.01,7.8,0.14c2.34,0.15,4.41,0.33,6.11,0.52c1.7,0.21,3.04,0.37,3.96,0.53
			C73.28,4.6,73.77,4.69,73.77,4.69z"/>
		<path class="st0" d="M559.33,11.17c0,0,0.48-0.2,1.39-0.52c0.91-0.31,2.25-0.77,3.97-1.24c1.72-0.47,3.82-1.02,6.23-1.47
			c1.21-0.24,2.5-0.45,3.85-0.66c1.36-0.2,2.78-0.36,4.27-0.5c2.97-0.27,6.19-0.36,9.55-0.21c3.36,0.15,6.87,0.57,10.38,1.39
			c1.76,0.41,3.51,0.9,5.24,1.52c0.88,0.29,1.72,0.65,2.58,0.99c0.84,0.38,1.7,0.74,2.52,1.17c1.67,0.82,3.27,1.78,4.82,2.83
			c1.54,1.07,3.01,2.23,4.4,3.5c2.75,2.55,5.12,5.5,7.06,8.68c0.49,0.79,0.92,1.61,1.38,2.42c0.4,0.84,0.83,1.65,1.2,2.5
			c0.74,1.68,1.41,3.38,1.95,5.1c1.1,3.44,1.85,6.89,2.3,10.22c0.44,3.34,0.66,6.54,0.69,9.52c0.02,1.49-0.02,2.92-0.04,4.28
			c-0.08,1.36-0.16,2.66-0.23,3.88c-0.11,1.22-0.2,2.36-0.31,3.41c-0.13,1.06-0.26,2.03-0.37,2.9c-0.06,0.45-0.11,0.85-0.17,1.24
			c-0.06,0.39-0.13,0.76-0.18,1.09c-0.12,0.68-0.22,1.26-0.3,1.73c-0.17,0.94-0.27,1.44-0.27,1.44s-0.01-0.49-0.03-1.41
			c-0.02-0.91-0.01-2.27-0.07-3.97c-0.03-0.85-0.04-1.79-0.09-2.81c-0.07-1.02-0.1-2.12-0.16-3.29c-0.09-1.17-0.18-2.4-0.28-3.71
			c-0.16-1.29-0.25-2.66-0.44-4.07c-0.09-0.7-0.18-1.41-0.28-2.14c-0.09-0.73-0.24-1.46-0.36-2.2c-0.12-0.74-0.24-1.5-0.41-2.26
			c-0.16-0.76-0.29-1.53-0.48-2.3c-0.68-3.09-1.62-6.24-2.81-9.36c-1.21-3.11-2.7-6.18-4.54-9.02c-1.86-2.84-4.02-5.49-6.53-7.78
			c-2.49-2.31-5.28-4.28-8.27-5.88c-2.98-1.61-6.15-2.84-9.34-3.79c-1.59-0.48-3.21-0.84-4.79-1.18c-1.6-0.33-3.19-0.58-4.75-0.79
			c-3.13-0.41-6.16-0.61-8.99-0.67c-2.83-0.06-5.46,0-7.8,0.13c-2.34,0.15-4.4,0.33-6.1,0.52c-1.7,0.21-3.04,0.38-3.96,0.53
			C559.82,11.08,559.33,11.17,559.33,11.17z"/>
	</g>
	<g>
		<path class="st2" d="M231.18,144.77c65.21,16.38,154.92,7.69,197.85,0.12c-27.49,9.83-50.42,16.67-80.05,19.37
			C307.47,168.05,261.68,164.71,231.18,144.77z"/>
		<path class="st0" d="M21.06,21.08c0,0,1.34,1.29,4.13,3.63c2.82,2.31,6.94,5.73,12.75,9.86c5.8,4.13,12.97,9.12,21.98,14.49
			c4.46,2.72,9.37,5.52,14.59,8.46c5.29,2.9,11,5.88,17.14,8.9c12.26,6.04,26.29,12.18,42,18.08c15.74,5.88,33.2,11.51,52.3,16.32
			c9.53,2.41,19.44,4.66,29.73,6.58c5.1,1.03,10.37,1.85,15.62,2.76c5.33,0.78,10.66,1.64,16.11,2.26
			c10.83,1.41,21.97,2.43,33.2,3.14c11.25,0.66,22.62,1.01,34,0.99c22.75-0.11,45.45-1.73,67.09-4.63
			c5.42-0.71,10.74-1.58,16.05-2.38c5.21-0.97,10.44-1.84,15.56-2.88c10.18-2.06,20.1-4.28,29.54-6.79
			c18.94-4.95,36.37-10.6,51.98-16.55c15.58-5.99,29.62-12.09,41.89-18.1c6.17-2.99,11.81-6,17.25-8.8
			c5.2-2.92,10.14-5.71,14.77-8.32c4.48-2.69,8.73-5.17,12.49-7.53c3.74-2.38,7.09-4.62,10.13-6.6c1.54-1,2.98-1.95,4.33-2.84
			c1.32-0.89,2.49-1.78,3.63-2.57c2.24-1.61,4.13-2.97,5.69-4.07c3.04-2.23,4.67-3.42,4.67-3.42s-2.04,0.98-5.87,2.82
			c-3.82,1.83-9.27,4.6-16.47,7.96c-3.59,1.68-7.5,3.58-11.85,5.58c-4.44,1.94-9.09,4.13-14.12,6.41
			c-5.14,2.2-10.61,4.55-16.37,7.03c-5.95,2.34-11.94,4.96-18.52,7.46c-3.27,1.25-6.6,2.53-10,3.84c-3.38,1.31-7,2.53-10.56,3.82
			c-3.58,1.29-7.21,2.61-11.03,3.84c-3.79,1.25-7.55,2.59-11.52,3.8c-15.64,5.04-32.7,9.72-50.76,13.88
			c-18.08,4.1-37.27,7.59-57.16,9.96c-19.9,2.33-40.42,3.77-61.02,3.78c-20.59,0.11-41.18-1.06-61.12-3.3
			c-19.95-2.21-39.22-5.57-57.39-9.54c-9.12-1.95-17.83-4.23-26.39-6.44c-8.51-2.29-16.68-4.71-24.55-7.16
			c-15.72-4.96-30.15-10.14-43.06-15.25c-12.95-5.11-24.51-10.08-34.49-14.68c-9.93-4.63-18.46-8.79-25.31-12.33
			c-6.81-3.56-12.14-6.38-15.64-8.38C22.91,22.17,21.06,21.08,21.06,21.08z"/>
	</g>
</g>
</svg>
