<?xml version="1.0" encoding="utf-8"?>
<!-- Generator: Adobe Illustrator 23.0.6, SVG Export Plug-In . SVG Version: 6.00 Build 0)  -->
<svg version="1.1" id="Capa_1" xmlns="http://www.w3.org/2000/svg" xmlns:xlink="http://www.w3.org/1999/xlink" x="0px" y="0px"
	 viewBox="0 0 822.95 278.9" enable-background="new 0 0 822.95 278.9" xml:space="preserve">
<g>
	<path fill="#674234" d="M429.53,237.27c-96.38,0-189.4-15.54-174.52-2.76c18.61,15.97,78.14,44.39,174.52,44.39
		c96.38,0,155.79-28.57,174.52-44.39C627.71,214.51,525.91,237.27,429.53,237.27z"/>
	<path fill="#674234" d="M765.79,19.44c-69.79,3.97-143.49-3.75-213.92-0.34c-46.77,2.27-96.23,3.57-140.4,18.37
		c-46.03-15.03-97.55-16.87-146.26-18.72c-68.57-2.61-140.14,4.59-208.04,0.69C15.04,17.01,0,0,0,0s1.36,12.56,10.07,18.76
		c52.41,37.3,132.91,51.19,202.45,58.64c65.27,6.99,130.62,14.97,196.6,19.01c0.38,0.1,4.33,0.1,4.7,0
		c65.98-4.04,131.29-11.97,196.61-18.99c69.63-7.49,150.01-21.31,202.45-58.66C821.59,12.56,822.95,0,822.95,0
		S807.89,17.04,765.79,19.44z"/>
</g>
</svg>
