<?xml version="1.0" encoding="utf-8"?>
<!-- Generator: Adobe Illustrator 23.0.6, SVG Export Plug-In . SVG Version: 6.00 Build 0)  -->
<svg version="1.1" id="Capa_1" xmlns="http://www.w3.org/2000/svg" xmlns:xlink="http://www.w3.org/1999/xlink" x="0px" y="0px"
	 viewBox="0 0 663.57 264.39" style="enable-background:new 0 0 663.57 264.39;" xml:space="preserve">
<style type="text/css">
	.st0{fill:#674234;}
	.st1{fill:#563930;}
	.st2{fill-rule:evenodd;clip-rule:evenodd;fill:#674234;}
	.st3{fill:#FFFFFF;}
	.st4{fill:#D68B62;}
	.st5{fill:#AC5F4A;}
	.st6{fill-rule:evenodd;clip-rule:evenodd;fill:#FFFFFF;}
	.st7{fill:#DF6958;}
	.st8{fill:#37333D;}
	.st9{fill:#CD3D3C;}
	.st10{fill-rule:evenodd;clip-rule:evenodd;fill:#DA4D4B;}
	.st11{fill-rule:evenodd;clip-rule:evenodd;fill:#ED625F;}
	.st12{fill:#DA4D4B;}
	.st13{fill-rule:evenodd;clip-rule:evenodd;fill:#CD3D3C;}
	.st14{fill-rule:evenodd;clip-rule:evenodd;fill:#ED8173;}
	.st15{fill-rule:evenodd;clip-rule:evenodd;fill:#37333D;}
	.st16{fill:#ED625F;}
	.st17{fill:#ED8173;}
	.st18{fill:#B62D32;}
	.st19{fill-rule:evenodd;clip-rule:evenodd;fill:#B62D32;}
	.st20{fill:#CE5D51;}
	.st21{fill:#B73535;}
	.st22{fill:#D69062;}
</style>
<g>
	<g>
		<path class="st12" d="M223.61,107.46c-34.67-0.19-98.76,1.57-121.34,29.77c-27.76,34.69,23.47,64.61,51.54,79.08
			c79.18,40.8,181.94,49.31,269.99,29.56c42.91-9.63,89.7-26.91,122.43-54.35c35.05-29.4,14.71-63.66-26.48-73.86
			c-49.81-12.33-102.08-13-152.5-3.21C317.81,124.05,273.31,107.89,223.61,107.46C191.12,107.28,249.85,107.69,223.61,107.46z"/>
		<path class="st12" d="M224.66,12.12c-52.72,0.33-93.22,30.32-128.2,66.31c-6.41,6.6-32.65,34.65-13.13,41.86
			c21.34,7.9,53.24-6.87,74.3-10.96c28.01-5.43,56.72-7.61,85.24-5.85c28.74,1.78,56.29,11.77,84.87,12.86
			c28.14,1.07,55.15-9.34,83.02-12c30.76-2.91,61.84-1.09,92.19,4.3c22.86,4.05,46.98,13.26,70.29,13.72
			c28.98,0.6,6.27-31.49-1.1-40.73c-24.46-30.66-69.29-60.39-108.66-67.83c-42-7.93-85.49,4.51-117.17,32.09
			c-7.37,6.42-13.77,14.65-22.35,4.63c-8.02-9.4-17.77-17.33-28.8-23.2C273.67,15.9,248.83,12.73,224.66,12.12
			C205.53,12.23,262.59,13.08,224.66,12.12z"/>
	</g>
	<path class="st13" d="M310.13,264.08c-59.39,2.52-132.85-19.37-181.51-48.36c-25.87-15.43-47.98-34.46-70.41-53.46
		c-11.37-9.64-23.27-18.95-36.77-26.24c-8.48-4.59-34.83-13.85-12.96-21.84C69.17,91.98,96.64,33.22,156.91,10.4
		c57.12-21.64,120.54-8.31,164.07,28.93c17.57,15.04,39.14-15.19,55.39-23.21c26.24-12.96,56.84-17.65,86.64-15.13
		c74.43,6.29,103.35,59.02,156.77,96.02c11.76,8.15,24.47,11.75,37.47,17.64c17.1,7.73-5.23,16.35-11.68,19.67
		c-29.48,15.16-53.75,39.31-78.43,59.78c-43.29,35.92-102.18,54.65-160.03,63.13C375.09,261.93,342.57,263.7,310.13,264.08
		C284.2,265.17,405.53,262.97,310.13,264.08z M227.68,110.65c-34.05-0.17-97.01,1.52-119.17,28.74
		c-27.29,33.49,23.02,62.38,50.6,76.34c77.77,39.37,178.7,47.59,265.18,28.52c42.16-9.29,88.12-25.97,120.25-52.46
		c34.44-28.38,14.44-61.45-26-71.3c-48.93-11.9-100.27-12.55-149.82-3.1C320.21,126.66,276.49,111.09,227.68,110.65
		C195.77,110.49,253.45,110.88,227.68,110.65z M228.44,20.59c-50.61,0.3-89.48,26.56-123.06,58.07
		c-6.15,5.77-31.34,30.33-12.61,36.65c20.49,6.9,51.12-6.02,71.33-9.6c26.88-4.75,54.42-6.66,81.81-5.12
		c27.59,1.55,54.03,10.31,81.46,11.26c27.02,0.94,52.94-8.18,79.7-10.5c29.51-2.55,59.33-0.96,88.47,3.76
		c21.94,3.55,45.1,11.61,67.46,12.02c27.81,0.52,6.03-27.57-1.05-35.67c-23.48-26.84-66.51-52.86-104.3-59.38
		c-40.31-6.94-82.06,3.94-112.46,28.09c-7.08,5.62-13.22,12.83-21.45,4.05c-7.7-8.22-17.04-15.17-27.65-20.31
		C275.47,23.91,251.63,21.13,228.44,20.59C210.08,20.7,264.85,21.44,228.44,20.59z"/>
	<g>
		<path class="st11" d="M220.28,175.42c-29.47-41.03,58-36.8,126.87-34.46c68.86,2.34,145.97,4.96,122.51,42.93
			c-13.49,21.81-58.28,40.2-127.14,37.86C273.64,219.41,235.94,197.23,220.28,175.42z"/>
		<path class="st14" d="M254.76,178.01c-16.11-22.44,31.73-20.13,69.39-18.85c37.66,1.28,79.84,2.72,67.01,23.49
			c-7.38,11.93-31.87,21.99-69.54,20.71C283.95,202.07,263.33,189.94,254.76,178.01z"/>
	</g>
</g>
</svg>
