<?xml version="1.0" encoding="utf-8"?>
<!-- Generator: Adobe Illustrator 23.0.6, SVG Export Plug-In . SVG Version: 6.00 Build 0)  -->
<svg version="1.1" id="Capa_1" xmlns="http://www.w3.org/2000/svg" xmlns:xlink="http://www.w3.org/1999/xlink" x="0px" y="0px"
	 viewBox="0 0 661.15 288.52" style="enable-background:new 0 0 661.15 288.52;" xml:space="preserve">
<style type="text/css">
	.st0{fill:#674234;}
	.st1{fill:#563930;}
	.st2{fill-rule:evenodd;clip-rule:evenodd;fill:#674234;}
	.st3{fill:#FFFFFF;}
	.st4{fill:#D68B62;}
	.st5{fill:#AC5F4A;}
	.st6{fill-rule:evenodd;clip-rule:evenodd;fill:#FFFFFF;}
	.st7{fill:#DF6958;}
	.st8{fill:#37333D;}
	.st9{fill:#CD3D3C;}
	.st10{fill-rule:evenodd;clip-rule:evenodd;fill:#DA4D4B;}
	.st11{fill-rule:evenodd;clip-rule:evenodd;fill:#ED625F;}
	.st12{fill:#DA4D4B;}
	.st13{fill-rule:evenodd;clip-rule:evenodd;fill:#CD3D3C;}
	.st14{fill-rule:evenodd;clip-rule:evenodd;fill:#ED8173;}
	.st15{fill-rule:evenodd;clip-rule:evenodd;fill:#37333D;}
	.st16{fill:#ED625F;}
	.st17{fill:#ED8173;}
	.st18{fill:#B62D32;}
	.st19{fill-rule:evenodd;clip-rule:evenodd;fill:#B62D32;}
	.st20{fill:#CE5D51;}
	.st21{fill:#B73535;}
	.st22{fill:#D69062;}
</style>
<path class="st9" d="M637.88,121.52c-39.1-26.07-73.42-85.21-133.79-110.16c-57.21-23.64-120.72-9.08-164.33,31.61
	c-2.96,2.76-6.04,4.09-9.18,4.41c-3.14-0.32-6.22-1.65-9.17-4.41C277.8,2.27,214.28-12.28,157.08,11.36
	C96.7,36.3,62.38,95.45,23.28,121.52C16.52,126.03,0,131.45,0,131.45s15.72,10.35,21.59,14.86c13.17,10.11,25.23,20.43,36.63,30.97
	c22.46,20.75,44.61,41.55,70.52,58.4c48.74,31.68,121.1,52.09,181.79,52.83c6.68-0.08,33.41-0.08,40.1,0
	c59.27-0.18,133.06-21.15,181.8-52.83c25.91-16.85,48.05-37.65,70.52-58.4c11.4-10.53,23.46-20.86,36.62-30.97
	c5.87-4.5,21.59-14.86,21.59-14.86S644.64,126.03,637.88,121.52z"/>
</svg>
