<?xml version="1.0" encoding="utf-8"?>
<!-- Generator: Adobe Illustrator 23.0.6, SVG Export Plug-In . SVG Version: 6.00 Build 0)  -->
<svg version="1.1" id="Capa_1" xmlns="http://www.w3.org/2000/svg" xmlns:xlink="http://www.w3.org/1999/xlink" x="0px" y="0px"
	 viewBox="0 0 559.32 387.13" style="enable-background:new 0 0 559.32 387.13;" xml:space="preserve">
<style type="text/css">
	.st0{fill:#674234;}
	.st1{fill:#563930;}
	.st2{fill-rule:evenodd;clip-rule:evenodd;fill:#674234;}
	.st3{fill:#FFFFFF;}
	.st4{fill:#D68B62;}
	.st5{fill:#AC5F4A;}
	.st6{fill-rule:evenodd;clip-rule:evenodd;fill:#FFFFFF;}
	.st7{fill:#DF6958;}
	.st8{fill:#37333D;}
	.st9{fill:#CD3D3C;}
	.st10{fill-rule:evenodd;clip-rule:evenodd;fill:#DA4D4B;}
	.st11{fill-rule:evenodd;clip-rule:evenodd;fill:#ED625F;}
	.st12{fill:#DA4D4B;}
	.st13{fill-rule:evenodd;clip-rule:evenodd;fill:#CD3D3C;}
	.st14{fill-rule:evenodd;clip-rule:evenodd;fill:#ED8173;}
	.st15{fill-rule:evenodd;clip-rule:evenodd;fill:#37333D;}
	.st16{fill:#ED625F;}
	.st17{fill:#ED8173;}
	.st18{fill:#B62D32;}
	.st19{fill-rule:evenodd;clip-rule:evenodd;fill:#B62D32;}
	.st20{fill:#CE5D51;}
	.st21{fill:#B73535;}
	.st22{fill:#D69062;}
</style>
<g>
	<path class="st19" d="M261.41,386.67c-50.05,3.68-111.98-28.35-153-70.81c-21.81-22.59-40.44-50.46-59.35-78.27
		c-9.59-14.12-19.62-27.75-30.99-38.42c-7.15-6.72-29.36-20.28-10.93-31.98C58.3,134.68,81.45,48.65,132.26,15.22
		c30.09-19.8,62.26-19.6,91.11-3.36c17.31,9.75,14.3,11.93,35.04,23.69c24.22,13.73,45.13-0.21,58.83-11.95
		c22.12-18.97,47.91-25.84,73.03-22.15c62.72,9.22,87.11,86.42,132.14,140.6c9.91,11.93,20.61,17.2,31.58,25.82
		c14.42,11.32-4.4,23.94-9.85,28.8c-24.83,22.2-45.3,57.56-66.1,87.53c-36.48,52.59-86.13,80.01-134.88,92.44
		C316.16,383.52,288.75,386.11,261.41,386.67C239.55,388.27,341.81,385.06,261.41,386.67z"/>
	<path class="st12" d="M186.5,163.4c-31.21-1.31-88.95,2.21-109.29,41.89c-25.01,48.81,21.13,90.91,46.42,111.26
		c71.31,57.41,163.86,69.39,243.17,41.6c38.65-13.54,80.78-37.85,110.27-76.47c31.56-41.38,13.24-89.58-23.85-103.93
		c-44.87-17.36-76.95-22.38-127.02,5.38C263.08,218.15,231.26,164.02,186.5,163.4C157.24,163.16,203.24,164.1,186.5,163.4z"/>
	<path class="st12" d="M189.58,17.28c-44.48,0.43-78.65,39.21-108.17,85.76c-5.41,8.53-27.54,44.81-11.07,54.13
		c18,10.22,44.92-8.88,62.68-14.17c23.64-7.02,47.86-9.84,71.92-7.56c24.25,2.31,47.49,8.43,71.61,9.83
		c23.74,1.39,46.54-5.27,70.05-8.71c25.95-3.77,52.17-1.4,77.78,5.55c19.28,5.25,39.63,17.15,59.3,17.75
		c24.45,0.77,5.3-40.73-0.93-52.68c-20.64-39.64-58.46-78.1-91.69-87.71c-35.43-10.26-72.12,5.82-98.86,41.5
		c-6.21,8.31-11.61,18.95-18.85,5.98c-6.77-12.16-14.99-22.42-24.3-30C230.92,22.17,209.97,18.07,189.58,17.28
		C173.44,17.43,221.58,18.52,189.58,17.28z"/>
	<path class="st10" d="M178.16,260.29c-27.65-58.49,54.43-52.46,119.06-49.12c64.62,3.34,136.99,7.08,114.97,61.21
		c-12.66,31.09-54.69,57.31-119.32,53.97C228.25,323.01,192.87,291.38,178.16,260.29z"/>
	<g>
		<path class="st16" d="M204.41,198.95c-9.62-7.58-28.25-14.85-36.66-2.7c-18.64,26.93-42.78,106.51-7.6,131.31
			C154.51,279.62,170.99,220.92,204.41,198.95z"/>
		<path class="st16" d="M228.9,207.3c-12.19,1.96-28.27,2.22-37.51,13.44c-19.89,24.19-48.92,95.37-9.65,116.57
			C175.26,288.34,196.02,229.82,228.9,207.3z"/>
		<path class="st16" d="M163.78,185.44c-10.42-2.98-19.32-3.77-29.61,0.33c-0.52-0.13-1.03-0.26-1.54-0.38
			c-0.46-0.14-0.91-0.23-1.33-0.33c-31.01-7.08-52.06,20.3-36.92,61.18c-3.99-28.98,9.85-53.52,30.84-58.89
			c-20.82,28.39-27.79,63.91-7.68,95.86C111.32,241.55,134.37,196.79,163.78,185.44z"/>
		<path class="st16" d="M249.24,217.52c-57.16-1.91-48.62,87.32-31.91,135.56C213.62,307.26,214.28,241.91,249.24,217.52z"/>
		<path class="st16" d="M247,231.75c-17.38,21.78-12.15,115.5-12.15,115.5c0.67,0.18,25.53-83.75,28.4-125.87
			C263.25,221.38,255.63,220.93,247,231.75z"/>
		<path class="st16" d="M340.87,214.95c32.54,22.37,43.79,76.35,37.59,122.33c39.03-21.24,12.78-96.24-7.7-120.16
			C363.08,208.16,350.58,215.57,340.87,214.95z"/>
		<path class="st16" d="M409.02,187.17c0,0-11.65,7.62-9.67,8.56c-8.73-0.17-15.94,6.98-24.7,6.38
			c32.45,20.79,43.21,70.4,38.25,115.69c32.46-23.42,18.32-75.84,1.95-107.76c21.77,17.07,28.15,49.53,24.71,81.6
			c20.64-27,14.82-75.1-7.88-96.61C425.09,188.79,417,186.18,409.02,187.17z"/>
		<path class="st16" d="M471.8,208.39c-2.99-29.44-30.2-27.05-46.06-22.61c24.26,1.14,44.77,25.82,40.07,60.4
			C470.07,234.59,473.12,221.43,471.8,208.39z"/>
		<path class="st16" d="M314.47,220.34c34.95,24.42,35.47,89.85,31.76,135.6C362.93,307.77,371.63,218.53,314.47,220.34z"/>
		<path class="st16" d="M280.09,249.41c-0.77-10.87-0.4-21.95-1.92-32.71c-27.75,34.07-21.03,103.27-13.51,147.19
			c7.74-22.69,12.27-45.6,15.43-70.17c3.17,24.57,7.69,47.48,15.44,70.16c7.31-42.21,18.59-107.97-8.83-141.65
			C285.52,228.15,280.69,243.44,280.09,249.41z"/>
		<path class="st16" d="M300.93,221.43c2.82,42.54,24.42,125.81,24.42,125.81c0.41-0.07,5.71-97.35-13.86-115.53
			C301.68,222.59,300.93,221.43,300.93,221.43z"/>
	</g>
	<g>
		<path class="st16" d="M311.6,69.27l37.02-15.35l1.09,22.18c0,0,15.32-3.91,15.32-15.65c0-11.74,6.79,1.69,10.01,15.76
			c3.28,14.35,21.31-4.87,28.5-5.95c11.27-1.68,42.48,17.58,42.48,17.58s-40.5-41.75-54.73-49.57c-14.23-7.83-9.85,13.05-9.85,24.79
			c0,11.74-10.94-28.7-10.94-28.7l-15.32,23.48l-6.57-22.18C348.62,35.66,322.55,51.01,311.6,69.27z"/>
		<path class="st16" d="M254.66,69.27l-35.74-15.35l-1.1,22.18c0,0-15.32-3.91-15.32-15.66c0-11.74-20.79,26.09-25.17,14.35
			c-4.47-11.98-20.31-8.3-26.56-5.53c-11.24,4.97-42.29,25.75-42.29,25.75S162,46.1,176.23,38.27c14.23-7.83,9.85,13.05,9.85,24.79
			c0,11.74,10.94-28.7,10.94-28.7l15.32,23.48l6.57-22.18C218.92,35.66,243.71,51.01,254.66,69.27z"/>
	</g>
</g>
</svg>
