<?xml version="1.0" encoding="utf-8"?>
<!-- Generator: Adobe Illustrator 23.0.6, SVG Export Plug-In . SVG Version: 6.00 Build 0)  -->
<svg version="1.1" id="Capa_1" xmlns="http://www.w3.org/2000/svg" xmlns:xlink="http://www.w3.org/1999/xlink" x="0px" y="0px"
	 viewBox="0 0 575.7 332.83" enable-background="new 0 0 575.7 332.83" xml:space="preserve">
<g>
	<path fill="#37333D" d="M575.42,132.85c-3.86-9.38-112.1-106.3-143.65-119.96C412,4.34,391.15,0,369.78,0
		c-28.93,0-57.03,7.93-81.93,22.73C262.94,7.93,234.84,0,205.92,0c-21.36,0-42.22,4.34-61.98,12.89
		C112.38,26.55,4.14,123.47,0.28,132.85c-6.36,15.46,98.68,133.65,119.47,148.83c42.57,31.07,101.26,51.15,149.52,51.15
		c2.76,0,5.52-0.06,8.22-0.19c3.52-0.05,6.96-0.15,10.37-0.26c3.41,0.11,6.85,0.2,10.37,0.26c2.7,0.13,5.46,0.19,8.22,0.19
		c48.25,0,106.94-20.08,149.52-51.15C476.74,266.5,581.79,148.31,575.42,132.85z"/>
	<path fill-rule="evenodd" clip-rule="evenodd" fill="#FFFFFF" d="M244.4,215.69c-17.04-27.47,61.22-18.46,70.31-18.06
		c9.56,0.41,82.76-2.32,67.91,24.11c-13.16,23.42-49.57,24.93-70.78,23.98C289.01,244.69,258.58,238.55,244.4,215.69z"/>
</g>
</svg>
