<?xml version="1.0" encoding="utf-8"?>
<!-- Generator: Adobe Illustrator 23.0.6, SVG Export Plug-In . SVG Version: 6.00 Build 0)  -->
<svg version="1.1" id="Capa_1" xmlns="http://www.w3.org/2000/svg" xmlns:xlink="http://www.w3.org/1999/xlink" x="0px" y="0px"
	 viewBox="0 0 805.67 211.56" style="enable-background:new 0 0 805.67 211.56;" xml:space="preserve">
<style type="text/css">
	.st0{fill:#674234;}
	.st1{fill:#563930;}
	.st2{fill-rule:evenodd;clip-rule:evenodd;fill:#674234;}
	.st3{fill:#FFFFFF;}
	.st4{fill:#D68B62;}
	.st5{fill:#AC5F4A;}
	.st6{fill-rule:evenodd;clip-rule:evenodd;fill:#FFFFFF;}
	.st7{fill:#DF6958;}
	.st8{fill:#37333D;}
	.st9{fill:#CD3D3C;}
	.st10{fill-rule:evenodd;clip-rule:evenodd;fill:#DA4D4B;}
	.st11{fill-rule:evenodd;clip-rule:evenodd;fill:#ED625F;}
	.st12{fill:#DA4D4B;}
	.st13{fill-rule:evenodd;clip-rule:evenodd;fill:#CD3D3C;}
	.st14{fill-rule:evenodd;clip-rule:evenodd;fill:#ED8173;}
	.st15{fill-rule:evenodd;clip-rule:evenodd;fill:#37333D;}
	.st16{fill:#ED625F;}
	.st17{fill:#ED8173;}
	.st18{fill:#B62D32;}
	.st19{fill-rule:evenodd;clip-rule:evenodd;fill:#B62D32;}
	.st20{fill:#CE5D51;}
	.st21{fill:#B73535;}
	.st22{fill:#D69062;}
</style>
<g>
	<path class="st0" d="M589.32,159.24c-47.4,18.79-142.97,31.83-197.39,33.01c-54.44-1.18-149.39-16.73-197.4-35.39
		c-47.76-18.56,56.55,53.51,190.65,54.57c0,0.17,13.48,0.17,13.48,0C534.87,210.38,636.82,140.4,589.32,159.24z"/>
	<path class="st0" d="M532.6,0.07c-61.93,2.94-66.57,8.23-127.83,19.16C343.53,8.3,338.88,3.02,276.99,0.07
		C233.48-1.99-6.21,40.03,0.12,40.52C62.97,45.37,97.73,55.78,151.7,63.1c48.97,6.64,194.57,27.45,246.6,32.48
		c0,0.36,12.97,0.36,12.97,0c52.03-5.03,197.82-24.38,246.6-32.48c62.41-10.37,76.8-16.2,147.67-22.58
		C811.9,39.94,576.1-1.99,532.6,0.07z"/>
</g>
</svg>
