<?xml version="1.0" encoding="utf-8"?>
<!-- Generator: Adobe Illustrator 23.0.6, SVG Export Plug-In . SVG Version: 6.00 Build 0)  -->
<svg version="1.1" id="Capa_1" xmlns="http://www.w3.org/2000/svg" xmlns:xlink="http://www.w3.org/1999/xlink" x="0px" y="0px"
	 viewBox="0 0 883.27 402.12" style="enable-background:new 0 0 883.27 402.12;" xml:space="preserve">
<style type="text/css">
	.st0{fill:#674234;}
	.st1{fill:#563930;}
	.st2{fill-rule:evenodd;clip-rule:evenodd;fill:#674234;}
	.st3{fill:#FFFFFF;}
	.st4{fill:#D68B62;}
	.st5{fill:#AC5F4A;}
	.st6{fill-rule:evenodd;clip-rule:evenodd;fill:#FFFFFF;}
	.st7{fill:#DF6958;}
	.st8{fill:#37333D;}
	.st9{fill:#CD3D3C;}
	.st10{fill-rule:evenodd;clip-rule:evenodd;fill:#DA4D4B;}
	.st11{fill-rule:evenodd;clip-rule:evenodd;fill:#ED625F;}
	.st12{fill:#DA4D4B;}
	.st13{fill-rule:evenodd;clip-rule:evenodd;fill:#CD3D3C;}
	.st14{fill-rule:evenodd;clip-rule:evenodd;fill:#ED8173;}
	.st15{fill-rule:evenodd;clip-rule:evenodd;fill:#37333D;}
	.st16{fill:#ED625F;}
	.st17{fill:#ED8173;}
	.st18{fill:#B62D32;}
	.st19{fill-rule:evenodd;clip-rule:evenodd;fill:#B62D32;}
	.st20{fill:#CE5D51;}
	.st21{fill:#B73535;}
	.st22{fill:#D69062;}
</style>
<g>
	<path class="st4" d="M440.18,146.98c67.18,0.03,134.74-5.82,201.58-18.68c64.65-12.43,128.93-25.93,190.57-54.12
		c-11.35,2.25-36.63,13.86-67.51,15.82c-66.79,4.24-159.75,1.77-194.58,6.87c-42.96,6.29-86.5,16.79-130.05,16.8
		c-41.06,0.02-82.2-9.43-122.84-14.68c-34.76-4.49-122.64-2.73-189.88-7.46C91.02,88.97,60.64,76.8,48.05,74.18
		c64.55,29.6,131.9,43.55,199.7,55.83C311.59,141.59,376.08,146.96,440.18,146.98z"/>
	<path class="st5" d="M641.75,118.86c-66.83,10.57-134.39,15.38-201.57,15.36c-64.1-0.02-128.59-4.44-192.43-13.95
		c-67.03-9.98-133.61-21.33-197.5-45.1c63.89,28.91,130.47,42.72,197.5,54.86c63.85,11.57,128.33,16.94,192.43,16.96
		c67.18,0.03,134.74-5.82,201.58-18.68c63.89-12.29,127.4-25.63,188.37-53.14C769.15,97.78,705.64,108.75,641.75,118.86z"/>
	<path class="st3" d="M441.72,301.26c114.29,2.4,236.57-36.47,326.87-129.85c26.72-27.63,44.69-58.91,63.74-94.03
		c-128.39,45.76-257.23,67.24-390.61,67.7c-133.3,0.45-262.23-20.08-390.76-64.92c1.65,3.66,3.39,7.25,5.12,10.84
		C144.77,235.73,301.32,298.3,441.72,301.26z"/>
	<g>
		<path class="st0" d="M196.17,230.7c4.96-6.15,8.05-12.13,13.47-18.46c-6.22-7.58-27.16-15.31-33.13-23.2
			c-6.32-19.08-18.01-61.78-14.93-78.26C110.57,94.98,50.85,73.47,48.06,77.37c0,0,0.02,0.05,0.02,0.06
			C85.86,144.43,137.73,194.83,196.17,230.7z"/>
		<path class="st0" d="M766.66,173.33c0.94-0.96,1.87-1.92,2.8-2.88c25.57-26.72,43.15-56.85,61.46-90.53
			c0.47-1.2,0.75-1.93,0.75-1.93c-2.8-3.91-64.06,21.96-113.56,30.03c3.08,16.48-8.78,67.48-14.96,84.65
			c-5.98,7.87-26.93,18.8-33.16,26.36c4.62,6.57,9.35,13.03,14.06,19.49C713.48,220.85,741.31,199.22,766.66,173.33z"/>
	</g>
	<path class="st4" d="M577.77,363.34c6.17-11.4-65.42,11.14-133.71,11.25c-68.28-0.11-139.88-22.66-133.7-11.25
		c-0.62,0.64-0.42,1.49,0.82,2.63c14.09,13,59.18,36.15,132.18,36.15c0.24,0,0.47,0,0.71,0c0.24,0,0.48,0,0.72,0
		c73,0,118.08-23.15,132.18-36.15C578.19,364.83,578.39,363.98,577.77,363.34z"/>
	<g>
		<path class="st4" d="M35.29,36.17C44.32,25.14,65,7.3,76.96,0.78C84.13-3.16,16.03,7.36,3.1,44.77
			C-8.18,77.49,14.08,109.21,25.73,146.7c-6.31-47.12-6.4-58.75-4.12-81.01C22.79,54.3,28.95,43.91,35.29,36.17z"/>
		<path class="st4" d="M847.98,36.17c-9.03-11.03-29.71-28.86-41.66-35.39c-7.18-3.94,60.92,6.59,73.85,43.99
			c11.28,32.73-10.98,64.44-22.63,101.94c6.31-47.12,6.4-58.75,4.11-81.01C860.48,54.3,854.33,43.91,847.98,36.17z"/>
	</g>
</g>
</svg>
