<?xml version="1.0" encoding="utf-8"?>
<!-- Generator: Adobe Illustrator 23.0.6, SVG Export Plug-In . SVG Version: 6.00 Build 0)  -->
<svg version="1.1" id="Capa_1" xmlns="http://www.w3.org/2000/svg" xmlns:xlink="http://www.w3.org/1999/xlink" x="0px" y="0px"
	 viewBox="0 0 620.82 319.44" enable-background="new 0 0 620.82 319.44" xml:space="preserve">
<g>
	<path fill-rule="evenodd" clip-rule="evenodd" fill="#FFFFFF" d="M489.26,75.1c-18.17-13.64-36.32-27.62-56.14-38.95
		c-22.89-13.08-47.04-27.53-75.91-19.95c-18.69,5.92-33.49,8.92-46.42,10.1c-12.92-1.18-27.72-4.18-46.42-10.09
		c-28.88-7.58-53.02,6.87-75.91,19.95c-19.82,11.33-37.97,25.31-56.14,38.95c-37.78,28.35-68.69,50.59-110.71,82.71
		c20.71,16.83,34.96,30.05,58.11,48.66c29.94,21.06,58.27,46.06,94.9,59.59c44.74,16.53,89.89,24.45,136.18,24.3
		c46.29,0.15,91.44-7.77,136.17-24.3c36.63-13.53,64.97-38.54,94.9-59.6c23.15-18.61,37.4-31.84,58.11-48.66
		C557.95,125.68,527.04,103.45,489.26,75.1z"/>
	<path fill-rule="evenodd" clip-rule="evenodd" fill="#37333D" d="M501.98,70.53c-19.51-15.77-38.98-31.94-60.26-45.04
		c-24.57-15.12-50.49-31.84-81.49-23.07c-20.07,6.84-35.95,10.31-49.82,11.67c-13.87-1.36-29.76-4.84-49.82-11.67
		c-30.99-8.77-56.91,7.95-81.49,23.07c-21.28,13.1-40.75,29.27-60.26,45.04C78.28,103.31,45.11,129.02,0,166.16
		c22.24,19.46,37.52,34.75,62.38,56.27c32.13,24.34,62.55,53.26,101.86,68.91c48.02,19.11,96.49,28.27,146.17,28.1
		c49.68,0.17,98.15-8.99,146.17-28.1c39.32-15.65,69.73-44.56,101.86-68.91c24.85-21.52,40.14-36.81,62.38-56.27
		C575.71,129.02,542.53,103.31,501.98,70.53z M310.41,174.54c-49.83-0.52-101.75-4.61-115.1-12.1c19.75-9.76,48.47-17.09,70.09-16.6
		c14.23,0.32,28.47,0.48,42.71,0.61v0.05c0.77-0.01,1.54-0.01,2.31-0.02c0.77,0.01,1.54,0.02,2.31,0.02v-0.05
		c14.24-0.14,28.48-0.3,42.71-0.61c21.61-0.49,50.34,6.84,70.09,16.6C412.16,169.93,360.24,174.02,310.41,174.54z"/>
</g>
</svg>
