<?xml version="1.0" encoding="utf-8"?>
<!-- Generator: Adobe Illustrator 23.0.6, SVG Export Plug-In . SVG Version: 6.00 Build 0)  -->
<svg version="1.1" id="Capa_1" xmlns="http://www.w3.org/2000/svg" xmlns:xlink="http://www.w3.org/1999/xlink" x="0px" y="0px"
	 viewBox="0 0 522.37 172.47" enable-background="new 0 0 522.37 172.47" xml:space="preserve">
<g>
	<path fill="#CD3D3C" d="M373.83,50.05c-4.39,0.03-8.51-0.17-12.27-0.63c-6.19-0.77-12.73-1.1-19.43-1.06
		c-33.54,0.15-70.84,8.98-85.31,12.76c0,0.12-53.28-11.59-86.8-11.08c-6.72,0.09-13.26,0.54-19.44,1.44
		c-3.74,0.54-7.85,0.82-12.24,0.88c-26.29,0.43-130.5,49.32-122.16,51.07c23.76,4.97,54.86,28.74,74.39,43.06
		c38.83,28.48,100.98,28.48,173.52,23.43c2.25-0.19,7.19-0.82,8.54-0.93c72.97-5.67,93.76-3.6,137.13-27.37
		c28.93-15.85,44.94-40.89,84.19-36.44C502.41,106.14,400.13,49.97,373.83,50.05z"/>
	<path fill="#CD3D3C" d="M479.2,83.03C451.39,52.29,409.67-2.71,355.44,0.1c-33.66,1.74-69.53,14.09-99.78,30.18
		c-43.52-13.59-67.65-12.08-100.49-2.09c-50.09,15.23-56.5,25.59-111.79,57.9C18.52,100.64,0,98.86,0,98.86s1.16,8.18,6.08,9.35
		c41.77,9.85,83.81-15.72,120.55-26.6c38.67-11.45,81.97-3.44,124-1.99c0.23,0.09,2.78-0.11,3.02-0.22
		c42.76-6.99,87.21-28.48,129.45-20.16c35.74,7.05,87.11,67.98,124.98,46.75c6.22-3.48,14.28-12.28,14.28-12.28
		S497.23,102.96,479.2,83.03z"/>
	<path fill="#B73535" d="M485.44,99.06c-34.66-15.94-63.39-43.95-100.66-52.56c-42.96-9.94-87,8.29-129.91,16.04
		c-0.24,0.12-2.81,0.36-3.04,0.29c-42.32-0.66-86.39,0.63-125.25,13.2c-34.9,11.27-47.62,21.11-83.96,27.94
		c-3.56,0.67-18.75,2.68-25.55,3.53c-6.22,0.78-12.54,0.41-10.99,0.72c42.42,8.43,82.66-7.39,119.95-18.35
		c38.75-11.38,82.57-11.69,124.6-10.24c0.23,0.09,2.78-0.11,3.02-0.22c42.76-7.01,86.8-22.94,129.05-14.66
		c36.13,7.09,87.01,61.81,125.38,41.25c1.56-0.83-3.27-0.03-9.08-1.3C494.38,103.66,489.03,100.72,485.44,99.06z"/>
</g>
</svg>
