<?xml version="1.0" encoding="utf-8"?>
<!-- Generator: Adobe Illustrator 23.0.6, SVG Export Plug-In . SVG Version: 6.00 Build 0)  -->
<svg version="1.1" id="Capa_1" xmlns="http://www.w3.org/2000/svg" xmlns:xlink="http://www.w3.org/1999/xlink" x="0px" y="0px"
	 viewBox="0 0 641.92 231.2" enable-background="new 0 0 641.92 231.2" xml:space="preserve">
<g>
	<g>
		<g>
			<path fill="#D68B62" d="M460.07,222.71c-4.9,9.1-88.52,3.33-129.69,1.85c-45.11-1.63-137.88,6.64-137.88,6.64
				c-1.49-3.37,33.45-29.96,139.57-37.03C374.51,191.33,464.46,214.6,460.07,222.71z"/>
			<path fill="#D68B62" d="M595.5,75.93C554.75,42.62,493.24-7.09,426.1,0.85c-41.66,4.92-79.02,13.89-115.17,35.08
				c-38.39-9.3-87.83-5.01-125.04,6.25C123.83,60.96,91.74,83.15,41.5,124.35C14.56,146.45,0,134.26,0,134.26s1.56,12.21,7.78,13.12
				c52.78,7.77,102.74-25.37,147.41-41.09c47.03-16.56,101.54-11.04,153.88-13c0.29,0.08,3.44-0.35,3.73-0.52
				c52.5-11.75,105.82-40.39,159.04-34.42c45.05,5.04,114.27,70.93,159.43,43.16c7.42-4.56,10.64-27.69,10.64-27.69
				S622.95,98.36,595.5,75.93z"/>
			<path fill="#AC5F4A" d="M602.52,95.47c-44.48-15.42-82.67-45.25-129.74-51.99c-54.27-7.76-107.36,17.08-159.97,29.72
				c-0.29,0.17-3.45,0.67-3.75,0.59c-52.64,2.89-107.27,8.19-154.44,26.03c-42.35,16.02-57.28,28.48-101.82,39.49
				c-4.37,1.08-23.06,4.71-31.44,6.29c-7.66,1.44-15.54,1.55-13.59,1.77c53.46,6.06,102.04-15.65,147.41-31.52
				c47.12-16.47,101.54-20.62,153.88-22.57c0.29,0.08,3.44-0.35,3.73-0.52C365.3,81,418.61,58.81,471.84,64.72
				c45.51,5.06,113.6,63.81,159.43,36.78c1.87-1.09-4.07,0.25-11.41-0.72C614.03,100.01,607.14,97.06,602.52,95.47z"/>
		</g>
	</g>
</g>
</svg>
