<?xml version="1.0" encoding="utf-8"?>
<!-- Generator: Adobe Illustrator 23.0.6, SVG Export Plug-In . SVG Version: 6.00 Build 0)  -->
<svg version="1.1" id="Capa_1" xmlns="http://www.w3.org/2000/svg" xmlns:xlink="http://www.w3.org/1999/xlink" x="0px" y="0px"
	 viewBox="0 0 672.99 277.58" style="enable-background:new 0 0 672.99 277.58;" xml:space="preserve">
<style type="text/css">
	.st0{fill:#674234;}
	.st1{fill:#563930;}
	.st2{fill-rule:evenodd;clip-rule:evenodd;fill:#674234;}
	.st3{fill:#FFFFFF;}
	.st4{fill:#D68B62;}
	.st5{fill:#AC5F4A;}
	.st6{fill-rule:evenodd;clip-rule:evenodd;fill:#FFFFFF;}
	.st7{fill:#DF6958;}
	.st8{fill:#37333D;}
	.st9{fill:#CD3D3C;}
	.st10{fill-rule:evenodd;clip-rule:evenodd;fill:#DA4D4B;}
	.st11{fill-rule:evenodd;clip-rule:evenodd;fill:#ED625F;}
	.st12{fill:#DA4D4B;}
	.st13{fill-rule:evenodd;clip-rule:evenodd;fill:#CD3D3C;}
	.st14{fill-rule:evenodd;clip-rule:evenodd;fill:#ED8173;}
	.st15{fill-rule:evenodd;clip-rule:evenodd;fill:#37333D;}
	.st16{fill:#ED625F;}
	.st17{fill:#ED8173;}
	.st18{fill:#B62D32;}
	.st19{fill-rule:evenodd;clip-rule:evenodd;fill:#B62D32;}
	.st20{fill:#CE5D51;}
	.st21{fill:#B73535;}
	.st22{fill:#D69062;}
</style>
<g>
	<path class="st6" d="M528.89,18.99C463.96,9.8,422.87,2.3,343.23,23.53c-0.97,0.2-1.94,0.36-2.91,0.52
		c-0.98-0.15-1.95-0.32-2.91-0.52C257.78,2.3,216.68,9.8,151.75,18.99C116.37,24.12,52,29.61,33.83,33.27
		C50.19,47.31,58.1,60.11,67.15,72.12c9.55,12.67,18.25,26.05,26.37,39.66c39.57,58.98,100.86,112.17,152.41,129.91
		c14.23,5.19,54.1,15.67,94.04,15.69c40.17,0.02,80.42-10.47,94.73-15.69c51.55-17.73,112.85-70.93,152.41-129.91
		c8.12-13.61,16.82-26.99,26.37-39.66c9.05-12.01,16.96-24.81,33.32-38.85C628.64,29.61,564.28,24.12,528.89,18.99z"/>
	<path class="st13" d="M543.52,10.28C472.24-0.03,427.12-8.44,339.69,15.37c-1.06,0.22-2.13,0.41-3.19,0.58
		c-1.07-0.17-2.14-0.35-3.19-0.58c-87.43-23.82-132.55-15.4-203.83-5.09C90.62,16.03,19.95,22.19,0,26.29
		c17.97,15.74,26.65,30.1,36.58,43.56c10.49,14.21,20.04,29.21,28.95,44.47c43.44,66.14,110.74,125.79,167.33,145.67
		c15.62,5.81,59.39,17.57,103.24,17.59c44.1,0.02,88.29-11.74,104.01-17.59c56.59-19.89,123.89-79.53,167.33-145.67
		c8.92-15.26,18.46-30.27,28.95-44.47c9.94-13.46,18.62-27.82,36.58-43.56C653.04,22.19,582.37,16.03,543.52,10.28z M336.49,169.94
		c-79.16-0.42-172.66-59.28-235.2-113.66c47.08,0.31,108.64,3.18,150.09,4.99c28.26,1.23,56.5,2.42,84.73,3.12v0.02
		c0.13-0.01,0.26-0.01,0.38-0.01c0.13,0,0.26,0.01,0.38,0.01V64.4c28.23-0.7,56.47-1.89,84.73-3.12
		c41.45-1.81,102.36-4.68,149.45-4.99C508.51,110.66,421.76,169.53,336.49,169.94z"/>
</g>
</svg>
