<?xml version="1.0" encoding="utf-8"?>
<!-- Generator: Adobe Illustrator 23.0.6, SVG Export Plug-In . SVG Version: 6.00 Build 0)  -->
<svg version="1.1" id="Capa_1" xmlns="http://www.w3.org/2000/svg" xmlns:xlink="http://www.w3.org/1999/xlink" x="0px" y="0px"
	 viewBox="0 0 565.46 67.86" style="enable-background:new 0 0 565.46 67.86;" xml:space="preserve">
<style type="text/css">
	.st0{fill:#674234;}
	.st1{fill:#563930;}
	.st2{fill-rule:evenodd;clip-rule:evenodd;fill:#674234;}
	.st3{fill:#FFFFFF;}
	.st4{fill:#D68B62;}
	.st5{fill:#AC5F4A;}
	.st6{fill-rule:evenodd;clip-rule:evenodd;fill:#FFFFFF;}
	.st7{fill:#DF6958;}
	.st8{fill:#37333D;}
	.st9{fill:#CD3D3C;}
	.st10{fill-rule:evenodd;clip-rule:evenodd;fill:#DA4D4B;}
	.st11{fill-rule:evenodd;clip-rule:evenodd;fill:#ED625F;}
	.st12{fill:#DA4D4B;}
	.st13{fill-rule:evenodd;clip-rule:evenodd;fill:#CD3D3C;}
	.st14{fill-rule:evenodd;clip-rule:evenodd;fill:#ED8173;}
	.st15{fill-rule:evenodd;clip-rule:evenodd;fill:#37333D;}
	.st16{fill:#ED625F;}
	.st17{fill:#ED8173;}
	.st18{fill:#B62D32;}
	.st19{fill-rule:evenodd;clip-rule:evenodd;fill:#B62D32;}
	.st20{fill:#CE5D51;}
	.st21{fill:#B73535;}
	.st22{fill:#D69062;}
</style>
<path class="st0" d="M557.11,54.24c-2.83-1.96-5.67-3.92-8.56-5.87c-2.87-1.95-5.77-3.89-8.71-5.83c-2.91-1.94-5.84-3.87-8.82-5.78
	c-2.97-1.92-5.9-3.85-8.91-5.76l-9.02-5.73c-2.99-1.91-6.07-3.8-9.11-5.69l-9.16-5.68l-7.97-4.94l-12.25,4.43l-12.78,4.62
	l-12.76,4.63l-25.32,9.34l-25.09,9.43c-3.55,1.33-7.05,2.69-10.57,4.04c-0.5-0.19-0.98-0.38-1.48-0.57l-14.9-5.65l-14.96-5.62
	l-15.02-5.59c-10.04-3.72-20.1-7.43-30.22-11.11l-15.19-5.51l-15.24-5.5L264.71,0l-14.95,6.43l-12.51,5.39l-12.45,5.41l-12.39,5.43
	l-12.33,5.45l-12.28,5.48l-12.22,5.5l-12.15,5.52l-0.33,0.15l-10.46-3.25l-12.89-4c-4.27-1.34-8.64-2.64-12.97-3.96l-12.99-3.95
	c-4.31-1.33-8.72-2.61-13.08-3.91l-13.1-3.9l-13.2-3.85l-11.48-3.35l-6.32,4.24l-7.38,4.96l-7.29,4.99
	c-2.44,1.66-4.86,3.33-7.23,5.01l-7.17,5.02l-7.06,5.06l-6.96,5.08c-2.32,1.69-4.57,3.41-6.85,5.11C4.41,55.77,2.18,57.5,0,59.23
	c3.37-1.39,6.68-2.79,9.97-4.2c3.27-1.42,6.56-2.83,9.78-4.26l9.67-4.29l9.57-4.32l9.46-4.35c3.17-1.45,6.3-2.9,9.4-4.37l9.34-4.38
	l0.12-0.06l2.91,1.16l11.67,4.59c3.9,1.53,7.75,3.07,11.7,4.57l11.77,4.54c3.94,1.51,7.82,3.04,11.8,4.52l11.89,4.48l11.89,4.48
	l12,4.43l13.15,4.86l13.78-5.47l13.05-5.17l12.97-5.21l12.9-5.24l12.84-5.26L244.43,35l12.73-5.3l10.22-4.29l14.32,5.12
	c10.22,3.64,20.48,7.26,30.76,10.86l15.47,5.39l15.53,5.36l15.59,5.33c5.19,1.78,10.41,3.55,15.66,5.3l15.24,5.09l12.42-5.46
	l11.59-5.1c3.85-1.7,7.74-3.39,11.57-5.1l22.95-10.29l22.73-10.38l11.26-5.23l1.83-0.85l0.36,0.16c3.74,1.68,7.42,3.38,11.21,5.04
	l11.3,5.01c3.77,1.67,7.61,3.32,11.41,4.98c3.8,1.66,7.64,3.31,11.5,4.95c3.85,1.64,7.71,3.28,11.62,4.91
	c3.88,1.64,7.82,3.25,11.76,4.87c3.95,1.61,7.94,3.22,11.98,4.8C562.73,58.18,559.94,56.2,557.11,54.24z"/>
</svg>
