<?xml version="1.0" encoding="utf-8"?>
<!-- Generator: Adobe Illustrator 23.0.6, SVG Export Plug-In . SVG Version: 6.00 Build 0)  -->
<svg version="1.1" id="Capa_1" xmlns="http://www.w3.org/2000/svg" xmlns:xlink="http://www.w3.org/1999/xlink" x="0px" y="0px"
	 viewBox="0 0 656.92 183.84" enable-background="new 0 0 656.92 183.84" xml:space="preserve">
<g>
	<path fill="#FFFFFF" d="M656.92,151.97c-108.02,13.67-218.83,21.47-327.16,21.3C221.44,173.1,110.64,165,2.68,150.94
		C87.76,59.72,213.53,11.33,329.97,11.51C446.36,11.7,572.14,60.46,656.92,151.97z"/>
	<g>
		<path fill="#37333D" d="M80.88,88.43c5.61,11.75,11.14,23.54,16.62,35.36c8.18,1.48,12.25,2.27,20.34,3.94
			c-0.91,8.07-1.34,12.11-2.16,20.18c-30.13,4.55-62.63,11.55-92.42,8.35c-7.71-0.83-23.24-4.27-23.25-4.3
			C-1.14,147.44,49.91,98.99,80.88,88.43z"/>
		<path fill="#37333D" d="M575.42,88.26c-5.59,11.76-11.13,23.55-16.59,35.38c-8.19,1.48-12.26,2.27-20.35,3.95
			c0.31,8.92,0.56,17.85,0.76,26.77c31.05,1.31,63.46,5.01,93.83,1.69c7.72-0.84,23.24-4.29,23.25-4.31
			C657.48,147.2,606.4,98.8,575.42,88.26z"/>
	</g>
	<g>
		<path fill="#ED625F" d="M328.46,20.67c64.14,0.01,129.16,8.44,188.41,34.26c51.34,22.38,96.89,58.47,140.05,97.04
			C610.91,87.05,534.61,26.34,461.95,7.94c-43.9-11.12-88.45-7.14-133.5-7.13c-42.6,0.01-84.41-4.12-126.02,6.12
			c-49.33,12.13-95.87,43.59-135.91,77.36c-23.59,19.89-47.97,41.98-66.5,67.69c45.35-40.5,93.66-77.81,147.93-100.38
			C204.97,27.88,267.13,20.66,328.46,20.67z"/>
		<path fill="#ED625F" d="M329.57,134.41c-110.06-3-219.43,18.12-329.54,17.57c44.61,13.18,89.5,25.14,135.69,29.38
			c44.84,4.12,89.88,1.5,134.76,0.06c39.42-2.33,78.67-2.27,118.08,0.15c44.52,1.54,89.19,4.23,133.66,0.02
			c45.86-4.34,90.4-16.51,134.7-29.61c-24.89,0.67-49.04,3.66-74.15,2.27C498.2,149.6,413.98,136.71,329.57,134.41z"/>
	</g>
</g>
</svg>
