<?xml version="1.0" encoding="utf-8"?>
<!-- Generator: Adobe Illustrator 23.0.6, SVG Export Plug-In . SVG Version: 6.00 Build 0)  -->
<svg version="1.1" id="Capa_1" xmlns="http://www.w3.org/2000/svg" xmlns:xlink="http://www.w3.org/1999/xlink" x="0px" y="0px"
	 viewBox="0 0 785.58 242.78" enable-background="new 0 0 785.58 242.78" xml:space="preserve">
<g>
	<path fill="#674234" d="M499.9,1.09c-37.39-4.56-74.56,5.88-112.31,19.41C349.75,7.47,312.95-1.96,275.19,2.68
		C181.47,14.16,87.73,62.41,0,117.31c63.52-14.62,128.52-5.78,191.51-18.8c64.38-13.31,128.6,2.59,193.59,10.07
		c0,0,1.71,0.31,2.53,0.22c0.83,0.07,2.53-0.26,2.53-0.26c64.88-8.36,129.05-25.33,193.36-12.75c66.45,13,135.07,5.63,202.07,21.52
		C693.7,60.44,596.63,12.88,499.9,1.09z"/>
	<path fill="#563930" d="M499.9,85.7c-37.39-1.12-74.56,1.45-112.31,4.78c-37.83-3.21-74.64-5.52-112.39-4.38
		C181.47,88.92,87.73,103.8,0,117.31c63.52-3.6,128.52-4.43,191.51-7.64c64.38-3.27,128.6,0.64,193.59,2.48c0,0,1.7,0.07,2.53,0.05
		c0.83,0.02,2.53-0.06,2.53-0.06c64.88-2.06,129.05-6.23,193.36-3.13c66.45,3.19,135.07,4.39,202.07,8.3
		C693.7,103.31,596.63,88.6,499.9,85.7z"/>
	<path fill="#674234" d="M536.1,205.88c-48.85,1.01-98.87,1.9-148.3,2.86c-49.46-0.75-99.45-1.47-148.37-2.23
		c-35.62-0.55-71.76-5.82-107.68-8.89c85.18,19.88,170.61,44.81,256.15,45.15c51.79,0.2,105.21-5.15,155.88-18.37
		c33-8.61,66.55-21.15,100.16-29.97C607.97,199.23,571.85,205.14,536.1,205.88z"/>
</g>
</svg>
