<?xml version="1.0" encoding="utf-8"?>
<!-- Generator: Adobe Illustrator 23.0.6, SVG Export Plug-In . SVG Version: 6.00 Build 0)  -->
<svg version="1.1" id="Capa_1" xmlns="http://www.w3.org/2000/svg" xmlns:xlink="http://www.w3.org/1999/xlink" x="0px" y="0px"
	 viewBox="0 0 722.62 255.48" style="enable-background:new 0 0 722.62 255.48;" xml:space="preserve">
<style type="text/css">
	.st0{fill:#674234;}
	.st1{fill:#563930;}
	.st2{fill-rule:evenodd;clip-rule:evenodd;fill:#674234;}
	.st3{fill:#FFFFFF;}
	.st4{fill:#D68B62;}
	.st5{fill:#AC5F4A;}
	.st6{fill-rule:evenodd;clip-rule:evenodd;fill:#FFFFFF;}
	.st7{fill:#DF6958;}
	.st8{fill:#37333D;}
	.st9{fill:#CD3D3C;}
	.st10{fill-rule:evenodd;clip-rule:evenodd;fill:#DA4D4B;}
	.st11{fill-rule:evenodd;clip-rule:evenodd;fill:#ED625F;}
	.st12{fill:#DA4D4B;}
	.st13{fill-rule:evenodd;clip-rule:evenodd;fill:#CD3D3C;}
	.st14{fill-rule:evenodd;clip-rule:evenodd;fill:#ED8173;}
	.st15{fill-rule:evenodd;clip-rule:evenodd;fill:#37333D;}
	.st16{fill:#ED625F;}
	.st17{fill:#ED8173;}
	.st18{fill:#B62D32;}
	.st19{fill-rule:evenodd;clip-rule:evenodd;fill:#B62D32;}
	.st20{fill:#CE5D51;}
	.st21{fill:#B73535;}
	.st22{fill:#D69062;}
</style>
<g>
	<path class="st0" d="M3.45,101.65C115.57,227.79,205.11,222.8,205.11,222.8s122.58,4.72,238.37,9.73
		c115.77,4.97,278.45-129.41,278.45-129.41C334.2-95.96,3.45,101.65,3.45,101.65z"/>
	<path class="st3" d="M362.82,6.02c-107.33,0-203.66,23.28-269.59,44.7c2.23-0.32,4.36-0.54,6.37-0.64l28.67,34.39
		c0,0,106.42,19.41,235.91,19.41c124.19,0,231.53-19.41,231.53-19.41l26.62-34.39C626.85,50.3,472.94,6.02,362.82,6.02z"/>
	<g>
		<path class="st4" d="M361.3,26.83c63.15-0.05,130.33,1.82,195.09,16.78c59.07,13.66,116.14,39.45,166.23,59.52
			C711.26,94.37,580.98,14.28,494.73,2.54c-50.2-6.85-94.61,2.33-133.43,2.33c-38.81-0.01-75.72-9.17-125.93-2.33
			C149.12,14.28,11.36,94.37,0,103.13c52.5-21.02,112.64-47.62,174.75-61.44C236.85,27.86,300.92,26.79,361.3,26.83z"/>
		<path class="st4" d="M362.55,179.07C54.83,177.9,14.72,111.08,0,103.13C96.38,220.2,170.04,248.2,292.59,255.31
			c0,0.22,139.93,0.22,139.93,0c122.36-7.12,195.45-22.43,290.09-152.18C707.9,111.08,655.1,180.17,362.55,179.07z"/>
	</g>
</g>
</svg>
