<?xml version="1.0" encoding="utf-8"?>
<!-- Generator: Adobe Illustrator 23.0.6, SVG Export Plug-In . SVG Version: 6.00 Build 0)  -->
<svg version="1.1" id="Capa_1" xmlns="http://www.w3.org/2000/svg" xmlns:xlink="http://www.w3.org/1999/xlink" x="0px" y="0px"
	 viewBox="0 0 659.47 206.19" enable-background="new 0 0 659.47 206.19" xml:space="preserve">
<path fill-rule="evenodd" clip-rule="evenodd" fill="#CD3D3C" d="M658.47,13.01c-8.54,4.59-16.43,7.77-23.22,12.71
	c-14.51,10.55-91.55-2.42-113.2-8.5C487.41,7.47,452.22,0.4,416.44,0.01c-20.65-0.22-39.8,4.2-58.98,13.47
	c-28.54,13.8-23.08,17.39-56.16,3c-2.28-0.99-4.37-2.49-6.67-3.41c-17.15-6.86-34.46-13.5-53.14-11.38
	c-51.02,5.78-102.9,21.53-155.03,19.76c-17.75-0.61-43.3,2.03-64.07-0.33c-12.93,0.91-32.09-7.11-16.61,3.8
	C75.56,91.46,148.31,172.85,243.4,196.34c54.55,13.48,106.84,12.62,160.93,0.51c5.14-1.15,36.4-10.62,38.69-15.95
	c-16.25-4.68-34.22-6.97-41.79-7.75c-26.15-2.68-188.8-5.68-173.59-60.45c4.3-15.48,52.45-18.51,63.1-20.14
	c57.24-8.76,114.9-9.34,172.42-13.98c0.01,0,0.02,0,0.04,0c35.08-3.38,66.85-6.02,101.42-17c31.5-10,55.6-13.48,88.12-28.17
	C659.09,30.54,660.81,17.52,658.47,13.01z"/>
</svg>
