<?xml version="1.0" encoding="utf-8"?>
<!-- Generator: Adobe Illustrator 23.0.6, SVG Export Plug-In . SVG Version: 6.00 Build 0)  -->
<svg version="1.1" id="Capa_1" xmlns="http://www.w3.org/2000/svg" xmlns:xlink="http://www.w3.org/1999/xlink" x="0px" y="0px"
	 viewBox="0 0 591.64 160.83" enable-background="new 0 0 591.64 160.83" xml:space="preserve">
<g>
	<path fill="#674234" d="M569.03,8.46c-22.7-13.26-70.58-7.42-97.94-5.64C437.58,5,404.03,7.57,370.39,8.78
		c-24.47,0.88-48.97,1.34-73.47,1.35c-24.48,0-48.97-0.46-73.43-1.35C189.86,7.57,156.31,5,122.79,2.82
		C95.44,1.04,47.55-4.8,24.86,8.46C4.32,20.46,0,52.87,0,63.17c0,0.1,0.13,0.88,0.31,3.69c2.38,37.43,39.01,78.02,94.66,89.63
		c65.09,13.58,121.89-5.99,158.91-40.78c11.43-10.74,19.98-16.8,43.08-16.74c23.09-0.06,31.63,6,43.06,16.74
		c37.02,34.78,93.83,54.36,158.91,40.78c59.81-12.48,92.95-52.54,92.71-92.08c0-0.11-0.03-7.05-0.03-7.15
		C590.97,40.84,589.57,20.46,569.03,8.46z M197.99,130.18C133.42,160.57,61.08,141.29,26.4,98.27
		c-14.91-18.5-15.26-41.94-4.54-61.39c11.38-20.65,35.16-24.49,64.97-23.59c14.81,0.45,127.63,13.05,146.82,19.24
		C305,55.58,238.04,111.32,197.99,130.18z M567.48,98.27c-34.68,43.02-107.02,62.31-171.59,31.91
		c-40.05-18.85-107.01-74.6-35.66-97.64c19.19-6.2,132.01-18.79,146.82-19.24c29.81-0.91,53.59,2.93,64.97,23.59
		C582.74,56.33,582.39,79.77,567.48,98.27z"/>
</g>
</svg>
