<?xml version="1.0" encoding="utf-8"?>
<!-- Generator: Adobe Illustrator 23.0.6, SVG Export Plug-In . SVG Version: 6.00 Build 0)  -->
<svg version="1.1" id="Capa_1" xmlns="http://www.w3.org/2000/svg" xmlns:xlink="http://www.w3.org/1999/xlink" x="0px" y="0px"
	 viewBox="0 0 585.01 182.73" style="enable-background:new 0 0 585.01 182.73;" xml:space="preserve">
<style type="text/css">
	.st0{fill:#674234;}
	.st1{fill-rule:evenodd;clip-rule:evenodd;fill:#674234;}
</style>
<path class="st0" d="M563.82,10.04c-22.63-15.74-70.39-8.8-97.66-6.69c-33.42,2.58-66.03,8.41-100.42,13.94
	c-24.11,3.87-48.83,8.46-73.26,8.46c-24.42-0.01-48.6-4.89-73.22-8.46c-33.22-4.83-67-11.36-100.42-13.94
	C91.58,1.24,43.83-5.7,21.2,10.04C0.71,24.29,1.94,48.44,0.16,67.94c-0.01,0.12-0.02,0.24-0.03,0.36
	c-2.45,46.88,31.33,94.46,90.97,109.28c64.9,16.12,121.55-7.11,158.46-48.39c11.4-12.75,19.92-35.97,42.96-35.9
	c23.03-0.06,31.55,23.15,42.94,35.9c36.91,41.27,93.56,64.5,158.46,48.38c59.64-14.81,93.43-62.39,90.97-109.28
	c-0.01-0.12-0.02-0.24-0.03-0.36C583.07,48.44,584.3,24.28,563.82,10.04z M193.84,154.48c-64.38,36.07-136.52,13.19-171.1-37.87
	C7.86,94.66,7.52,66.84,18.21,43.76c11.34-24.51,35.06-29.07,64.78-27.99c14.77,0.54,127.27,15.48,146.41,22.84
	C300.54,65.95,233.77,132.11,193.84,154.48z M562.28,116.61c-34.58,51.05-106.72,73.94-171.1,37.87
	c-39.94-22.37-106.71-88.52-35.56-115.87c19.14-7.35,131.64-22.3,146.41-22.84c29.72-1.08,53.44,3.48,64.78,27.99
	C577.49,66.84,577.15,94.66,562.28,116.61z"/>
</svg>
