<?xml version="1.0" encoding="utf-8"?>
<!-- Generator: Adobe Illustrator 23.0.6, SVG Export Plug-In . SVG Version: 6.00 Build 0)  -->
<svg version="1.1" id="Capa_1" xmlns="http://www.w3.org/2000/svg" xmlns:xlink="http://www.w3.org/1999/xlink" x="0px" y="0px"
	 viewBox="0 0 604.43 197.25" style="enable-background:new 0 0 604.43 197.25;" xml:space="preserve">
<style type="text/css">
	.st0{fill:#674234;}
	.st1{fill-rule:evenodd;clip-rule:evenodd;fill:#674234;}
</style>
<path class="st1" d="M604.38,74.01c-0.09-3.85,0.35-7.06-4.49-8.32c-2.87-0.75-7.69-1.03-9.02-3.83c-1.34-2.8-2.38-5.71-3.57-8.56
	c-6.18-14.9-15.84-27.71-31.8-36.15C518.63-2.35,458.64-0.57,417.1,0.74c-22.36,0.7-44.64,1.9-66.9,3.81
	c-22.24,1.91-44.56,1.92-66.88,1.57c-26.54-0.42-53.01-3.69-79.5-4.98c-13.88-0.68-27.77-0.51-41.66-0.63
	c1.63,0.01,3.27,0.02,4.9,0.03c-0.45,0-0.9,0-1.35-0.01C127.35,0.45,67.25-1.02,38.08,24.41C25.85,35.07,19.97,46.57,14.39,59.74
	c-2.36,5.56-8.52,4.36-12.36,8.28c-3.52,3.59-2.43,25.5,3.2,27.66c3.81,1.44,6.99,3.5,7.92,7.29c5.36,22.01,8.39,46.88,25.08,65.14
	c33.31,36.46,111.64,34.12,155.9,17.86c12.21-4.49,23.6-11.14,33.38-18.87c18.76-14.84,32.87-42.11,41.77-62.3
	c4.21-9.54,6.16-20.61,15.02-28c7.01-5.84,22.14-6.43,30.65-2.9c12.23,5.06,14.3,19.03,18.3,28.87
	c4.95,12.2,11.51,24.07,19.21,35.15c16.06,23.08,38.84,42.94,68.89,51.75c21.32,6.25,44.72,8.1,67.08,6.48
	c5.42-0.39,10.81-1.01,16.17-1.85c49.02-7.69,73.6-31.3,81.43-73.64c1.4-7.6,0.28-20.73,9.42-23.05
	C604.4,95.31,604.59,82.67,604.38,74.01z"/>
</svg>
