<?xml version="1.0" encoding="utf-8"?>
<!-- Generator: Adobe Illustrator 23.0.6, SVG Export Plug-In . SVG Version: 6.00 Build 0)  -->
<svg version="1.1" id="Capa_1" xmlns="http://www.w3.org/2000/svg" xmlns:xlink="http://www.w3.org/1999/xlink" x="0px" y="0px"
	 viewBox="0 0 587.68 236.41" enable-background="new 0 0 587.68 236.41" xml:space="preserve">
<g>
	<path fill="#674234" d="M565.92,12.99c-22.7-20.37-70.59-11.39-97.94-8.66c-33.51,3.34-67.07,7.29-100.7,9.15
		c-24.47,1.36-48.97,2.06-73.47,2.07c-24.48-0.01-48.97-0.71-73.43-2.07c-33.64-1.86-67.19-5.8-100.7-9.15
		C92.34,1.6,44.45-7.37,21.75,12.99C1.22,31.42,2.45,62.67,0.65,87.89c-0.01,0.16-0.02,0.31-0.03,0.47
		c-2.46,60.66,31.42,122.22,91.23,141.38c65.08,20.85,121.89-9.2,158.91-62.6c11.43-16.49,19.98-46.54,43.08-46.44
		c23.09-0.08,31.63,29.95,43.06,46.44c37.02,53.4,93.83,83.45,158.91,62.6c59.81-19.16,93.69-80.72,91.23-141.38
		c-0.01-0.16-0.02-0.32-0.03-0.47C585.23,62.67,586.46,31.42,565.92,12.99z M194.89,199.86c-64.57,46.66-136.91,17.06-171.59-48.99
		c-14.91-28.4-15.26-64.38-4.54-94.25C30.13,24.9,53.91,19.01,83.72,20.4c14.81,0.7,127.63,20.03,146.82,29.54
		C301.89,85.33,234.93,170.91,194.89,199.86z M564.38,150.87c-34.68,66.05-107.02,95.66-171.59,48.99
		c-40.05-28.95-107.01-114.53-35.66-149.91c19.19-9.51,132.01-28.85,146.82-29.54c29.81-1.4,53.59,4.5,64.97,36.21
		C579.63,86.48,579.29,122.46,564.38,150.87z"/>
	<path fill="#674234" d="M586.97,86.41c0.05,0.98,0.1,1.89,0.15,2.74c0.01,0.17,0.02,0.34,0.04,0.51c-0.01-0.15-0.03-0.29-0.04-0.44
		C588.46,114.15,586.97,84.88,586.97,86.41z"/>
	<path fill="#674234" d="M587.05,88.29c0,0.02,0,0.05,0.01,0.07c0.02,0.28,0.04,0.57,0.07,0.85c0-0.02,0-0.04,0-0.07
		C587.09,88.86,587.07,88.58,587.05,88.29z"/>
	<path fill="#674234" d="M586.97,86.41c0,0.49,0.03,0.98,0.05,1.48c0.01,0.13,0.02,0.27,0.03,0.4
		C587.02,87.67,587,87.04,586.97,86.41z"/>
	<path fill="#674234" d="M0.56,89.15c0.05-0.85,0.1-1.76,0.15-2.74c0-1.53-1.49,27.74-0.15,2.8c-0.01,0.15-0.03,0.29-0.03,0.44
		C0.54,89.49,0.55,89.32,0.56,89.15z"/>
	<path fill="#674234" d="M0.56,89.15c0,0.02,0,0.04,0,0.07c0.02-0.28,0.04-0.57,0.06-0.85c0-0.03,0-0.05,0-0.07
		C0.61,88.58,0.58,88.86,0.56,89.15z"/>
	<path fill="#674234" d="M0.65,87.89c0.03-0.5,0.05-0.99,0.05-1.48c-0.03,0.63-0.06,1.25-0.08,1.88
		C0.64,88.16,0.64,88.02,0.65,87.89z"/>
</g>
</svg>
