<?xml version="1.0" encoding="utf-8"?>
<!-- Generator: Adobe Illustrator 23.0.6, SVG Export Plug-In . SVG Version: 6.00 Build 0)  -->
<svg version="1.1" id="Capa_1" xmlns="http://www.w3.org/2000/svg" xmlns:xlink="http://www.w3.org/1999/xlink" x="0px" y="0px"
	 viewBox="0 0 595.31 136.17" style="enable-background:new 0 0 595.31 136.17;" xml:space="preserve">
<style type="text/css">
	.st0{fill:#674234;}
	.st1{fill-rule:evenodd;clip-rule:evenodd;fill:#674234;}
</style>
<path class="st1" d="M595.24,53.31c0.13,19.02-2.35,41.84-18.93,59.22c-13.3,13.94-45.89,19.29-73.47,21.49
	c-33.4,2.66-70.48,4.02-102.28-3.1c-30.68-6.87-51.95-30.57-64.09-45.45c-7.24-8.88-19.9-24.26-43.57-21.66
	c-27.77,3.06-36.92,27.19-49.54,38.2c-17.64,15.38-34.1,29.45-70.88,32.32c-35.58,2.78-74.85,2.51-108.83-4.14
	C-3.21,117.11-1.98,70.73,1.1,39.24C2.57,24.17,11.05,4.87,44.34,1.69c37.03-3.54,80.54-0.1,116.58,4.59
	c35.35,4.6,65.18,13.99,96.64,23.07c37.83,10.92,66.28,3.52,101.05-6.27c31.48-8.86,65.44-16.05,100.87-19.23
	c30.48-2.74,73.99-6.86,103.67-0.4c35.88,7.82,31.94,35.6,32.11,51.88C595.25,55.61,595.24,52.6,595.24,53.31
	C595.37,72.35,595.24,51.54,595.24,53.31z M67.43,16.9c-25.37,0.53-45.82-0.69-49.46,15.24c-4,17.53-2.99,36.04,3.67,53.34
	c5.85,15.21,15.83,26.42,45.8,31.68c34.82,6.11,74.52,7.36,110.46,3.44c25.63-2.79,38.44-15.49,47.63-26.93
	c11.06-13.77,27.18-31.31,14.96-46.24c-11.68-14.26-44.99-18.98-71.17-22.69c-34.99-4.95-68.67-5.06-103.89-7.79
	C65.81,16.98,70.75,16.9,67.43,16.9C56.15,17.13,72.24,16.9,67.43,16.9z M519.93,16.99c-33.06,0-65.23,3.61-96.82,8.35
	c-23.26,3.49-51.92,7.52-64.72,19.26c-16,14.69-0.54,32.85,10.6,46.88c10.85,13.66,25.57,27.19,56.28,29.83
	c34.25,2.94,69.95,1.63,102.9-4.08c33.96-5.9,42.43-19.36,47.73-36.36c5-16.04,5-31.73,2.09-47.87
	C574.85,15.59,548.59,16.2,519.93,16.99c1.34,0,2.79-0.06,4.15-0.13C522.7,16.91,521.32,16.95,519.93,16.99
	C489.39,16.99,530.63,16.69,519.93,16.99z"/>
</svg>
