<?xml version="1.0" encoding="utf-8"?>
<!-- Generator: Adobe Illustrator 23.0.6, SVG Export Plug-In . SVG Version: 6.00 Build 0)  -->
<svg version="1.1" id="Capa_1" xmlns="http://www.w3.org/2000/svg" xmlns:xlink="http://www.w3.org/1999/xlink" x="0px" y="0px"
	 viewBox="0 0 573.95 238.71" style="enable-background:new 0 0 573.95 238.71;" xml:space="preserve">
<style type="text/css">
	.st0{fill:#674234;}
	.st1{fill-rule:evenodd;clip-rule:evenodd;fill:#674234;}
</style>
<path class="st1" d="M556.41,98.09c-1.55-8.63-4.05-17.05-7.5-25.19c-6.01-14.21-14.62-26.98-25.58-37.94
	C512.38,24,499.62,15.39,485.4,9.38C470.68,3.16,455.05,0,438.94,0c-16.11,0-31.74,3.16-46.46,9.38
	C378.27,15.39,365.5,24,354.55,34.96c-10.96,10.96-19.57,23.72-25.58,37.94c-3.44,8.14-5.94,16.57-7.5,25.19h-73.41
	c-1.55-8.63-4.05-17.05-7.5-25.19c-6.01-14.21-14.62-26.98-25.58-37.94C204.03,24,191.26,15.39,177.05,9.38
	C162.33,3.16,146.7,0,130.59,0c-16.11,0-31.74,3.16-46.46,9.38C69.91,15.39,57.15,24,46.19,34.96
	C35.23,45.92,26.63,58.68,20.61,72.89c-3.44,8.14-5.94,16.57-7.5,25.19H0v21.27h11.23c0,16.11,3.15,31.74,9.38,46.46
	c6.01,14.21,14.62,26.98,25.58,37.94c10.96,10.96,23.72,19.56,37.94,25.58c14.72,6.23,30.35,9.38,46.46,9.38
	c16.11,0,31.74-3.15,46.46-9.38c14.22-6.01,26.98-14.62,37.94-25.58c10.96-10.96,19.56-23.73,25.58-37.94
	c6.23-14.72,9.38-30.35,9.38-46.46h69.64c0,16.11,3.15,31.74,9.38,46.46c6.02,14.21,14.62,26.98,25.58,37.94
	c10.96,10.96,23.72,19.56,37.93,25.58c14.72,6.23,30.35,9.38,46.46,9.38c16.11,0,31.74-3.15,46.46-9.38
	c14.21-6.01,26.98-14.62,37.94-25.58c10.96-10.96,19.57-23.73,25.58-37.94c6.23-14.72,9.38-30.35,9.38-46.46h15.65V98.09H556.41z
	 M130.59,227.47c-59.62,0-108.12-48.5-108.12-108.12c0-59.62,48.5-108.12,108.12-108.12c59.62,0,108.12,48.5,108.12,108.12
	C238.7,178.97,190.21,227.47,130.59,227.47z M438.94,227.47c-59.62,0-108.12-48.5-108.12-108.12c0-59.62,48.5-108.12,108.12-108.12
	s108.12,48.5,108.12,108.12C547.06,178.97,498.56,227.47,438.94,227.47z"/>
</svg>
