<?xml version="1.0" encoding="utf-8"?>
<!-- Generator: Adobe Illustrator 23.0.6, SVG Export Plug-In . SVG Version: 6.00 Build 0)  -->
<svg version="1.1" id="Capa_1" xmlns="http://www.w3.org/2000/svg" xmlns:xlink="http://www.w3.org/1999/xlink" x="0px" y="0px"
	 viewBox="0 0 599.67 198.32" enable-background="new 0 0 599.67 198.32" xml:space="preserve">
<path fill="#674234" d="M33.89,159.73c17.71,39.01,60.4,38.32,94.55,38.58c44.31,0.34,76.79-5.3,108.91-40.06
	c15.16-16.41,26.53-43.39,43-58.23c5.53-4.69,11.86-7.98,19.48-9.09c7.62,1.11,13.94,4.4,19.48,9.09
	c16.47,14.83,27.84,41.82,43,58.23c32.13,34.76,64.62,40.4,108.92,40.06c34.14-0.25,76.83,0.43,94.55-38.58
	c8.94-19.65,8.48-49.35,13.98-70.33c4.49-17.06,16.81-28.34,18.62-41.1c1.1-7.77,1.29-12.82,1.29-26.59
	c0-18.45-56.87-17.95-74.79-19.76c-44.1-4.47-91.59-0.96-135.25,7.73c-28.44,5.66-60.36,25.76-89.8,27.9
	c-29.44-2.13-61.35-22.23-89.8-27.9C166.39,0.99,118.89-2.52,74.78,1.94C56.86,3.76,0,3.26,0,21.71c0,13.76,0.18,18.81,1.29,26.59
	c1.8,12.76,14.12,24.04,18.62,41.1C25.4,110.37,24.95,140.08,33.89,159.73z"/>
</svg>
