<?xml version="1.0" encoding="utf-8"?>
<!-- Generator: Adobe Illustrator 23.0.6, SVG Export Plug-In . SVG Version: 6.00 Build 0)  -->
<svg version="1.1" id="Capa_1" xmlns="http://www.w3.org/2000/svg" xmlns:xlink="http://www.w3.org/1999/xlink" x="0px" y="0px"
	 viewBox="0 0 569.92 224.76" style="enable-background:new 0 0 569.92 224.76;" xml:space="preserve">
<style type="text/css">
	.st0{fill:#674234;}
	.st1{fill-rule:evenodd;clip-rule:evenodd;fill:#674234;}
</style>
<path class="st1" d="M569.85,88c0.13,31.4-2.25,69.06-18.12,97.75c-12.73,23.01-43.93,31.85-70.33,35.47
	c-31.98,4.39-67.47,6.63-97.91-5.11c-29.37-11.34-49.74-50.46-61.36-75.03c-6.93-14.66-19.05-40.05-41.72-35.74
	c-26.58,5.05-35.35,44.88-47.43,63.05c-16.89,25.39-32.65,48.6-67.86,53.35c-34.06,4.59-71.66,4.14-104.19-6.83
	C-3.07,193.31-1.89,116.75,1.05,64.77c1.41-24.88,9.53-56.74,41.4-61.99c35.45-5.84,77.1-0.17,111.6,7.57
	c33.84,7.59,62.4,23.09,92.52,38.08c36.22,18.03,63.45,5.8,96.74-10.35c30.14-14.63,62.65-26.49,96.57-31.74
	c29.18-4.52,70.84-11.33,99.24-0.66c34.35,12.9,30.58,58.76,30.74,85.63C569.87,91.78,569.85,86.82,569.85,88
	C569.98,119.42,569.85,85.07,569.85,88z M64.56,27.89c-24.29,0.87-43.87-1.14-47.35,25.15c-3.84,28.93-2.87,59.49,3.51,88.05
	c5.6,25.11,15.15,43.6,43.85,52.29c33.33,10.09,71.34,12.14,105.75,5.68c24.53-4.61,36.8-25.57,45.6-44.45
	c10.59-22.74,26.03-51.69,14.32-76.32c-11.19-23.54-43.07-31.34-68.14-37.45c-33.5-8.17-65.74-8.36-99.46-12.86
	C63.01,28.03,67.73,27.89,64.56,27.89C53.76,28.27,69.16,27.89,64.56,27.89z M497.76,28.04c-31.66,0-62.45,5.96-92.69,13.78
	c-22.27,5.76-49.71,12.41-61.96,31.8c-15.32,24.25-0.52,54.22,10.15,77.38c10.39,22.54,24.48,44.88,53.88,49.23
	c32.79,4.85,66.96,2.7,98.51-6.74c32.52-9.73,40.63-31.96,45.7-60.02c4.79-26.48,4.79-52.38,2-79
	C550.34,25.73,525.19,26.73,497.76,28.04c1.28,0,2.67-0.1,3.97-0.2C500.41,27.9,499.08,27.97,497.76,28.04
	C468.52,28.04,507.99,27.55,497.76,28.04z"/>
</svg>
