<?xml version="1.0" encoding="utf-8"?>
<!-- Generator: Adobe Illustrator 23.0.6, SVG Export Plug-In . SVG Version: 6.00 Build 0)  -->
<svg version="1.1" id="Capa_1" xmlns="http://www.w3.org/2000/svg" xmlns:xlink="http://www.w3.org/1999/xlink" x="0px" y="0px"
	 viewBox="0 0 616.77 180.54" style="enable-background:new 0 0 616.77 180.54;" xml:space="preserve">
<style type="text/css">
	.st0{fill:#674234;}
	.st1{fill-rule:evenodd;clip-rule:evenodd;fill:#674234;}
</style>
<g>
	<path class="st0" d="M214.88,148.25c16.97-11.28,35.57-31.71,43.22-50.45c4.89-12.03,6.43-21.52,5.43-28.95
		c0.12-7.04-3.11-12.79-8.55-17.48c-0.03-0.03-8.97-6.45-9.03-6.48c-24.49-14.66-51.5-17.24-78.79-19.3
		c-30.06-2.26-61.47-2.92-90.58,7.42c-28.76,10.22-36.15,43.04-34.74,69.3c1.18,21.89,3.73,44.85,25.66,53.4
		C106.86,171.05,177.66,173.03,214.88,148.25z M574.93,102.32c1.42-26.26-5.98-59.09-34.74-69.31
		c-29.11-10.35-60.52-9.69-90.58-7.42c-27.29,2.06-54.3,4.65-78.8,19.31c-0.04,0.03-8.99,6.45-9.02,6.48
		c-5.44,4.69-8.67,10.43-8.56,17.48c-0.98,7.44,0.55,16.92,5.45,28.95c7.64,18.73,26.25,39.17,43.22,50.45
		c37.22,24.77,108.02,22.8,147.37,7.47C571.19,147.17,573.75,124.21,574.93,102.32z M596.29,81.38
		c-5.65,19.1-5.19,46.14-14.38,64.03c-18.23,35.51-62.13,34.88-97.25,35.12c-45.57,0.31-78.98-4.82-112.02-36.46
		c-15.59-14.94-27.29-39.5-44.22-53.01c-5.7-4.27-12.2-7.26-20.04-8.27c-7.83,1.01-14.35,4-20.04,8.27
		c-16.94,13.51-28.63,38.07-44.23,53.01c-33.04,31.64-66.45,36.77-112.02,36.46c-35.12-0.23-79.02,0.4-97.25-35.12
		c-9.19-17.89-8.73-44.93-14.38-64.03C15.85,65.84,3.18,55.58,1.33,43.96C0.19,36.89,0,32.29,0,19.76C0,2.97,58.48,3.42,76.91,1.77
		c45.36-4.06,94.22-0.87,139.11,7.03c29.26,5.16,62.08,23.46,92.36,25.4c30.28-1.94,63.11-20.24,92.36-25.4
		c44.89-7.91,93.74-11.1,139.1-7.03c18.43,1.65,76.92,1.2,76.92,17.99c0,12.52-0.19,17.13-1.33,24.2
		C613.59,55.58,600.91,65.84,596.29,81.38z"/>
</g>
</svg>
