<?xml version="1.0" encoding="utf-8"?>
<!-- Generator: Adobe Illustrator 23.0.6, SVG Export Plug-In . SVG Version: 6.00 Build 0)  -->
<svg version="1.1" id="Capa_1" xmlns="http://www.w3.org/2000/svg" xmlns:xlink="http://www.w3.org/1999/xlink" x="0px" y="0px"
	 viewBox="0 0 405.63 338.43" style="enable-background:new 0 0 405.63 338.43;" xml:space="preserve">
<style type="text/css">
	.st0{fill-rule:evenodd;clip-rule:evenodd;fill:#563930;}
	.st1{fill:#674234;}
	.st2{fill-rule:evenodd;clip-rule:evenodd;fill:#674234;}
	.st3{fill:#563930;}
</style>
<g>
	<path class="st0" d="M399.45,175.72c-9.26-40.77-25.63-68.42-37.88-86.74C283.11-28.48,128.33-30.83,44.05,88.97
		C31.36,107,15.44,134.94,6.17,175.72c-7.46,32.83-11.02,84.71,6.28,79.57c0.33-0.08,7.34,2.15,7.16,45.1
		c-0.08,18.33,18.13,32.68,36.25,35.66c46.73,7.7,99.9-5.88,146.78-4.26v0.01c0.06,0,0.12,0,0.17,0c0.06,0,0.12,0,0.18,0v-0.01
		c46.88-1.62,101.31,11.96,148.04,4.26c18.12-2.98,36.32-17.33,36.25-35.66c-0.18-42.94,5.57-45.22,5.89-45.1
		C410.47,260.43,406.91,208.55,399.45,175.72z"/>
	<path class="st2" d="M392.71,256.74c-39.06,3.36-108.06-18.65-189.67-16.48v0.01c-0.08,0-0.15,0-0.23-0.01
		c-0.07,0-0.15,0-0.23,0.01v-0.01c-83.42-2.22-151.56,20.37-189.65,16.33c1.65,5.42,6.83,6.81,6.67,43.81
		c-0.08,18.33,18.13,32.68,36.25,35.66c46.73,7.7,99.9-5.88,146.78-4.26v0.01c0.06,0,0.12,0,0.17,0c0.06,0,0.12,0,0.18,0v-0.01
		c46.88-1.62,101.31,11.96,148.04,4.26c18.12-2.98,36.32-17.33,36.25-35.66C387.12,263.75,391.28,262.42,392.71,256.74z"/>
</g>
</svg>
