<?xml version="1.0" encoding="utf-8"?>
<!-- Generator: Adobe Illustrator 23.0.6, SVG Export Plug-In . SVG Version: 6.00 Build 0)  -->
<svg version="1.1" id="Capa_1" xmlns="http://www.w3.org/2000/svg" xmlns:xlink="http://www.w3.org/1999/xlink" x="0px" y="0px"
	 viewBox="0 0 405.73 240.9" enable-background="new 0 0 405.73 240.9" xml:space="preserve">
<g>
	<path fill-rule="evenodd" clip-rule="evenodd" fill="#563930" d="M366.88,129.16c-31.7,29.27-31.07,7.56-31.07,7.56
		s9.93-71.12-0.8-91.25C309.67-2.09,246.84,3,207.81,0.78l0-0.1c-0.58-0.01-1.17,0.01-1.75,0c-0.58-0.03-1.17-0.08-1.75-0.1l0,0.1
		C165.2,0.65,102.78-8.07,74.74,37.95c-11.87,19.48-6.06,91.06-6.06,91.06s-0.63,21.71-30.59-9.34c0,0-71.75-68.11-18.31,40.44
		c38.97,79.15,135.85,78.2,179.35,80.56c46.24,0.23,140.23,6.7,183.7-70.08C442.44,65.3,366.88,129.16,366.88,129.16z"/>
	<path fill-rule="evenodd" clip-rule="evenodd" fill="#674234" d="M200.06,223.31c-99.29-2.87-181.22-57.88-200.03-118.51
		c-0.49,7.95,4.59,24.52,19.75,55.32c38.97,79.15,135.85,78.2,179.35,80.56c46.24,0.23,140.23,6.7,183.7-70.08
		c16.91-29.87,22.94-46.13,22.91-54.09C383.46,175.95,299.35,226.17,200.06,223.31z"/>
</g>
</svg>
