<?xml version="1.0" encoding="utf-8"?>
<!-- Generator: Adobe Illustrator 23.0.6, SVG Export Plug-In . SVG Version: 6.00 Build 0)  -->
<svg version="1.1" id="Capa_1" xmlns="http://www.w3.org/2000/svg" xmlns:xlink="http://www.w3.org/1999/xlink" x="0px" y="0px"
	 viewBox="0 0 391.62 267.65" enable-background="new 0 0 391.62 267.65" xml:space="preserve">
<path fill="#563930" d="M367.02,153.44c-11.8-11.25-19.41-12.01-27.62-25.53c-9.64-15.87-13.4-45.57-21.84-62.07
	c-7.63-14.91-15.21-30.9-25.41-44.74C272.88-5.07,230.98,0.47,199.33,0.52c-1.09,0-2.19-0.01-3.3-0.02V0.45
	c-0.43,0.01-0.86,0.02-1.28,0.03c-0.43-0.01-0.85-0.02-1.28-0.03V0.5c-1.11,0.01-2.21,0.02-3.3,0.02
	c-31.66-0.05-73.55-5.59-92.83,20.59c-10.19,13.84-17.77,29.83-25.4,44.74c-8.44,16.5-12.2,46.2-21.84,62.07
	c-8.21,13.51-13.74,14.27-25.54,25.53c0,0,0,0-0.01,0c-18.73,17.86-31.33,39.64-20.6,64.14c8.23,18.8,27.42,45.9,50.33,50.06
	c-1.79-0.96,1.93-33.6,2.27-36.04c3.31-23.31,14.9-40.25,31.65-52.33c26.8-19.32,65.07-25.29,106.55-26.41
	c41.47,1.12,79.74,7.08,106.55,26.41c16.75,12.07,28.35,29.02,31.65,52.33c0.34,2.45,4.06,35.09,2.28,36.04
	c23.17-4.21,43.52-28.21,52.16-47.56C398.5,195.15,386.35,171.87,367.02,153.44z"/>
</svg>
