<?xml version="1.0" encoding="utf-8"?>
<!-- Generator: Adobe Illustrator 23.0.6, SVG Export Plug-In . SVG Version: 6.00 Build 0)  -->
<svg version="1.1" id="Capa_1" xmlns="http://www.w3.org/2000/svg" xmlns:xlink="http://www.w3.org/1999/xlink" x="0px" y="0px"
	 viewBox="0 0 405.64 248.51" enable-background="new 0 0 405.64 248.51" xml:space="preserve">
<g>
	<path fill-rule="evenodd" clip-rule="evenodd" fill="#563930" d="M326.38,151.74c-0.34-5.69-8.43-116.21-59.16-149.78
		c-9.65-6.39-37.2,4.86-64.74,4.86c-27.54,0-55.09-11.25-64.74-4.86C87,35.53,79.67,146.06,79.32,151.74
		c-61.4,22.6-85.48,17.55-78,41.13c10.07,31.74,78.02,55.63,200.43,55.63c124.61,0,192.49-23.89,202.56-55.63
		C411.8,169.3,387.78,174.34,326.38,151.74z"/>
	<path fill="#674234" d="M321.97,116.91c-30.37,7.35-73.71,12.01-118.88,12.01c-45.06,0-88.96-4.64-119.63-11.96
		c-2.99,18.02-3.96,31.53-4.15,34.43c34.41,7.7,77.92,11.91,123.77,11.91c45.62,0,88.92-4.17,123.25-11.79
		C326.16,148.89,325.11,135.22,321.97,116.91z"/>
</g>
</svg>
