<?xml version="1.0" encoding="utf-8"?>
<!-- Generator: Adobe Illustrator 23.0.6, SVG Export Plug-In . SVG Version: 6.00 Build 0)  -->
<svg version="1.1" id="Capa_1" xmlns="http://www.w3.org/2000/svg" xmlns:xlink="http://www.w3.org/1999/xlink" x="0px" y="0px"
	 viewBox="0 0 400.17 308.87" style="enable-background:new 0 0 400.17 308.87;" xml:space="preserve">
<style type="text/css">
	.st0{fill-rule:evenodd;clip-rule:evenodd;fill:#563930;}
	.st1{fill:#674234;}
	.st2{fill-rule:evenodd;clip-rule:evenodd;fill:#674234;}
	.st3{fill:#563930;}
</style>
<g>
	<path class="st0" d="M346.24,104.47C320.84,40.27,263.2,5.99,205.47,0H194.7C136.96,5.99,79.33,40.27,53.93,104.47
		C25.43,176.51,19.83,216.61,0,292.46c69.28,12.56,125.57,14.08,194.7,16.12v0.29c1.79-0.04,3.59-0.09,5.38-0.14
		c1.8,0.05,3.59,0.1,5.39,0.14v-0.29c69.13-2.04,125.42-3.56,194.7-16.12C380.33,216.61,374.74,176.51,346.24,104.47z"/>
	<path class="st2" d="M205.47,235.15v0.29c-1.8-0.04-3.59-0.09-5.39-0.14c-1.79,0.05-3.59,0.1-5.38,0.14v-0.29
		c-63.25-1.87-121.8-2.59-183.33-13.06C6.25,243.06,0,267.68,0,292.46c69.28,12.56,125.57,14.08,194.7,16.12v0.29
		c1.79-0.04,3.59-0.09,5.38-0.14c1.8,0.05,3.59,0.1,5.39,0.14v-0.29c69.13-2.04,125.42-3.56,194.7-16.12
		c0-24.78-6.25-49.4-11.37-70.37C327.27,232.56,268.71,233.28,205.47,235.15z"/>
</g>
</svg>
