<?xml version="1.0" encoding="utf-8"?>
<!-- Generator: Adobe Illustrator 23.0.6, SVG Export Plug-In . SVG Version: 6.00 Build 0)  -->
<svg version="1.1" id="Capa_1" xmlns="http://www.w3.org/2000/svg" xmlns:xlink="http://www.w3.org/1999/xlink" x="0px" y="0px"
	 viewBox="0 0 673.89 152.41" enable-background="new 0 0 673.89 152.41" xml:space="preserve">
<g>
	<g>
		<g>
			<path fill-rule="evenodd" clip-rule="evenodd" fill="#674234" d="M169.9,124.09c0,18.37-15.84,28.32-35.38,28.32
				c-19.54,0-35.38-9.95-35.38-28.32c0-18.37,15.85-27.29,35.38-27.29C154.06,96.8,169.9,105.72,169.9,124.09z"/>
			<path fill-rule="evenodd" clip-rule="evenodd" fill="#674234" d="M205.94,123.36c-35.74-31.45-68.58-33.69-105.76-21.59
				c-41.3,13.43-58.54,45.81-59.56,47.31c2.21,0.79,100.47-74.33,184.07-1.73C225.79,146.06,213.25,129.8,205.94,123.36z"/>
			<path fill-rule="evenodd" clip-rule="evenodd" fill="#AC5F4A" d="M169.32,85.08c-24.78-12.32-72.34-12.04-109.28,17.25
				c-7.56,5.99-20.52,21.14-19.38,22.33c95.33-84.39,169.45-3.69,171.74-4.43C211.36,118.85,204.32,102.49,169.32,85.08z"/>
		</g>
		<g>
			<path fill-rule="evenodd" clip-rule="evenodd" fill="#674234" d="M575.14,124.09c0,18.37-15.84,28.32-35.38,28.32
				c-19.55,0-35.38-9.95-35.38-28.31c0-18.37,15.84-27.29,35.38-27.29C559.29,96.8,575.14,105.72,575.14,124.09z"/>
			<path fill-rule="evenodd" clip-rule="evenodd" fill="#674234" d="M573.7,101.77c-37.17-12.1-70.02-9.86-105.76,21.59
				c-7.31,6.44-19.85,22.7-18.75,23.98c83.61-72.6,181.86,2.52,184.07,1.73C632.25,147.58,615.01,115.2,573.7,101.77z"/>
			<path fill-rule="evenodd" clip-rule="evenodd" fill="#AC5F4A" d="M504.56,85.08c24.78-12.32,72.35-12.04,109.28,17.25
				c7.56,6,20.52,21.14,19.38,22.33c-95.33-84.39-169.45-3.69-171.74-4.43C462.53,118.85,469.57,102.49,504.56,85.08z"/>
		</g>
	</g>
	<g>
		<path fill-rule="evenodd" clip-rule="evenodd" fill="#674234" d="M60.03,0.14C33.81,1.13-19.55,86.86,7.4,76.9
			c22.2-8.2,57.14-27.29,67.6-26.32c94.49,8.78,187.56,28.58,187.65,27.67c1.63-16.47-10.48-40.49-19.05-53.26
			C235.83,13.41,106.07-1.6,60.03,0.14z"/>
		<path fill-rule="evenodd" clip-rule="evenodd" fill="#674234" d="M615.77,0.14c-45.8,1.09-177.29,13.27-185.07,24.85
			c-8.57,12.77-20.68,36.79-19.05,53.26c0.09,0.92,94.65-18.89,189.15-27.67c10.46-0.97,38.93,16.47,64.61,26.32
			C694.36,88.01,641.99-0.49,615.77,0.14z"/>
	</g>
</g>
</svg>
