<?xml version="1.0" encoding="utf-8"?>
<!-- Generator: Adobe Illustrator 23.0.6, SVG Export Plug-In . SVG Version: 6.00 Build 0)  -->
<svg version="1.1" id="Capa_1" xmlns="http://www.w3.org/2000/svg" xmlns:xlink="http://www.w3.org/1999/xlink" x="0px" y="0px"
	 viewBox="0 0 741.66 173.28" style="enable-background:new 0 0 741.66 173.28;" xml:space="preserve">
<style type="text/css">
	.st0{fill-rule:evenodd;clip-rule:evenodd;fill:#37333D;}
	.st1{fill:#37333D;}
	.st2{fill-rule:evenodd;clip-rule:evenodd;fill:#2D4B5E;}
	.st3{fill-rule:evenodd;clip-rule:evenodd;fill:#CF8362;}
	.st4{fill-rule:evenodd;clip-rule:evenodd;fill:#325568;}
	.st5{fill:#674234;}
	.st6{fill-rule:evenodd;clip-rule:evenodd;fill:#674234;}
	.st7{fill-rule:evenodd;clip-rule:evenodd;fill:#AC5F4A;}
	.st8{fill:#FC2B0E;}
	.st9{fill:#FF3F20;}
	.st10{fill:#CC1305;}
	.st11{fill:#E02008;}
	.st12{fill:#EC1C24;}
</style>
<g>
	<g>
		<g>
			<g>
				<path class="st1" d="M241.41,37.24c-12.54-8.89-25.87-13.91-45.6-20.27c-18.98-6.12-41.95-16.06-64.61-16.9
					C77.53-1.92,23.85,37.84,0,64.68C51.69,40.82,89.98,21.3,137.17,27.9c40.8,5.71,77.53,19.88,117.29,33.8
					c6.65-6.68-7.31-19.11-9.55-26.34C242.55,35.59,241.38,36.21,241.41,37.24z"/>
				<path class="st1" d="M276.98,55.03c-3.93,0.94-5.93,2.42-6.01,4.45c-1.36-2.89,3.91-6.19-1.06-9.3
					c1.31,4.48-3.37,9.7-10.84,12.15C272.92,63.24,274.87,60.46,276.98,55.03z"/>
				<path class="st1" d="M279.58,58.04c-3.43,2.24-10.13,5.15-10.15,7.73C275.98,65.67,281.13,61.7,279.58,58.04z"/>
				<path class="st1" d="M274.1,67.14l15.52,0.84C284.59,65.38,278.41,67.22,274.1,67.14z"/>
			</g>
			<g>
				<path class="st0" d="M261.9,129.7c-2.54-3.56-5.48-7.43-8.8-11.5c-15.56-19.09-36.43-35.17-60.4-42.85
					c-31.75-10.17-68.54-6.17-98.52,6.53c-7.56,3.2-15.18,6.69-22.32,10.76c-12.79,7.28-22.67,15.08-33.12,23.33
					c-3.42,2.7-6.96,5.49-10.6,8.26c-0.29,0.4-0.51,1.71-0.36,2.16l0.1,0.2c0,0,42.5,32.55,45.36,34.34
					c17.47,10.95,36.66,12.35,51.43,12.35c7.09,0,14.31-0.36,21.29-0.71c5.87-0.29,11.94-0.6,17.81-0.68
					c15.7-0.21,31.52-1.89,46.82-3.5c9.94-1.05,20.22-2.14,30.42-2.83c4.15-0.28,8.6-3.53,12.52-6.71
					c-0.27-1.46-1.78-5.27-3.36-7.39c-24.84-33.44-52.77-51.75-85.38-55.99c-7.42-0.97-14.92-1.46-22.27-1.46
					c-25.28,0-48.1,6.74-71.44,15.77c-11.96,4.63-23.36,10.1-34.79,15.85l16.2-12.34c16.42-12.01,33.36-21.22,50.37-27.38
					c16.98-6.15,34.05-9.27,50.72-9.27c23.44,0,45.85,6.1,66.62,18.13C235.2,103.47,249.16,115.17,261.9,129.7z M193.16,109.02
					c16.49,8.01,28.24,18.31,40.8,31.31c3.43,2.92,9.08,9.41,7.68,14.29c-1.5,5.22-10.04,7.35-14.95,8.01
					c-11.93,1.62-24.08,2.57-36.94,3.57c-5.65,0.44-11.49,0.9-17.6,1.43l-7.53,0.66l6.33-4.13c19.8-12.92,25.65-28.76,19.54-52.99
					l-0.99-3.94L193.16,109.02z M49.13,135.57c15.35-12.37,28.7-19.05,47.62-23.85l2.65-0.67l-0.3,2.72
					c-2.81,25.18,5.79,41.41,27.89,52.63l6.38,3.24l-7.15,0.34c-1.7,0.08-3.41,0.12-5.07,0.12c0,0,0,0,0,0
					c-14.18,0-27.13-2.9-39.6-8.86c-10.49-5.02-20.82-12.26-32.49-22.79l-1.65-1.49L49.13,135.57z"/>
			</g>
		</g>
	</g>
	<g>
		<g>
			<g>
				<path class="st1" d="M500.24,37.24c12.54-8.89,25.87-13.91,45.6-20.27c18.98-6.12,41.95-16.06,64.61-16.9
					c53.67-1.99,107.35,37.77,131.2,64.61C689.97,40.82,651.67,21.3,604.49,27.9c-40.8,5.71-77.53,19.88-117.29,33.8
					c-6.64-6.68,7.31-19.11,9.55-26.34C499.1,35.59,500.27,36.21,500.24,37.24z"/>
				<path class="st1" d="M464.68,55.03c3.93,0.94,5.94,2.42,6.01,4.45c1.35-2.89-3.91-6.19,1.06-9.3
					c-1.31,4.48,3.37,9.7,10.84,12.15C468.73,63.24,466.78,60.46,464.68,55.03z"/>
				<path class="st1" d="M462.08,58.04c3.43,2.24,10.13,5.15,10.15,7.73C465.68,65.67,460.52,61.7,462.08,58.04z"/>
				<path class="st1" d="M467.55,67.14l-15.52,0.84C457.07,65.38,463.25,67.22,467.55,67.14z"/>
			</g>
			<g>
				<path class="st0" d="M521.46,94.77c20.76-12.03,43.18-18.13,66.62-18.13c16.67,0,33.73,3.12,50.72,9.27
					c17.01,6.16,33.95,15.37,50.37,27.38l16.2,12.34c-11.42-5.75-22.82-11.22-34.79-15.85c-23.33-9.03-46.15-15.77-71.44-15.77
					c-7.35,0-14.84,0.49-22.27,1.46c-32.61,4.24-60.54,22.55-85.38,55.99c-1.58,2.12-3.09,5.93-3.36,7.39
					c3.92,3.17,8.38,6.43,12.52,6.71c10.2,0.69,20.48,1.77,30.42,2.83c15.3,1.62,31.12,3.29,46.82,3.5
					c5.87,0.08,11.94,0.38,17.81,0.68c6.98,0.35,14.2,0.71,21.29,0.71c14.77,0,33.96-1.4,51.42-12.35
					c2.85-1.79,45.36-34.34,45.36-34.34l0.1-0.2c0.15-0.45-0.07-1.76-0.36-2.16c-3.64-2.77-7.18-5.56-10.6-8.26
					c-10.45-8.25-20.33-16.04-33.12-23.33c-7.14-4.07-14.76-7.56-22.32-10.76c-29.98-12.7-66.77-16.7-98.52-6.53
					c-23.97,7.67-44.84,23.76-60.4,42.85c-3.32,4.07-6.25,7.93-8.79,11.5C492.49,115.17,506.46,103.47,521.46,94.77z M552.15,107.25
					l-0.99,3.94c-6.11,24.23-0.26,40.07,19.54,52.99l6.33,4.13l-7.53-0.66c-6.11-0.54-11.95-0.99-17.6-1.43
					c-12.87-1.01-25.02-1.96-36.95-3.57c-4.9-0.66-13.44-2.8-14.94-8.01c-1.4-4.88,4.25-11.38,7.68-14.29
					c12.56-13,24.32-23.31,40.8-31.31L552.15,107.25z M694.25,136.96l-1.65,1.49c-11.68,10.53-22,17.77-32.5,22.79
					c-12.47,5.96-25.42,8.86-39.6,8.86h0c-1.66,0-3.37-0.04-5.07-0.12l-7.15-0.34l6.39-3.24c22.1-11.22,30.71-27.45,27.89-52.63
					l-0.3-2.72l2.65,0.67c18.92,4.79,32.27,11.48,47.62,23.85L694.25,136.96z"/>
			</g>
		</g>
	</g>
</g>
</svg>
