<?xml version="1.0" encoding="utf-8"?>
<!-- Generator: Adobe Illustrator 23.0.6, SVG Export Plug-In . SVG Version: 6.00 Build 0)  -->
<svg version="1.1" id="Capa_1" xmlns="http://www.w3.org/2000/svg" xmlns:xlink="http://www.w3.org/1999/xlink" x="0px" y="0px"
	 viewBox="0 0 714.23 163.63" style="enable-background:new 0 0 714.23 163.63;" xml:space="preserve">
<style type="text/css">
	.st0{fill-rule:evenodd;clip-rule:evenodd;fill:#37333D;}
	.st1{fill:#37333D;}
	.st2{fill-rule:evenodd;clip-rule:evenodd;fill:#2D4B5E;}
	.st3{fill-rule:evenodd;clip-rule:evenodd;fill:#CF8362;}
	.st4{fill-rule:evenodd;clip-rule:evenodd;fill:#325568;}
	.st5{fill:#674234;}
	.st6{fill-rule:evenodd;clip-rule:evenodd;fill:#674234;}
	.st7{fill-rule:evenodd;clip-rule:evenodd;fill:#AC5F4A;}
	.st8{fill:#FC2B0E;}
	.st9{fill:#FF3F20;}
	.st10{fill:#CC1305;}
	.st11{fill:#E02008;}
	.st12{fill:#EC1C24;}
</style>
<g>
	<g>
		<path class="st6" d="M56.55,149.89c-1.05,0.47,11.74,3.94,17.09,5.44c34.22,9.56,64.68,10.01,101.54,5.66
			c20.4-2.41,61.86-13.38,62.82-13.93C235.81,146.82,126.27,157.31,56.55,149.89z"/>
		<g>
			<path class="st6" d="M111.9,96.83h68.55c5.21,7.69,7.88,17.17,6.92,27.14c-2.19,22.75-22.4,39.41-45.15,37.22
				c-22.75-2.19-39.41-22.4-37.22-45.14C105.68,108.91,108.14,102.37,111.9,96.83z"/>
			<path class="st5" d="M77.98,111.43c-20.36,15.31-25.78,39.56-25.78,39.56c46.1-82.33,190.47-19.47,190.47-19.47
				C181.38,66.18,104.11,91.79,77.98,111.43z"/>
		</g>
		<path class="st5" d="M270.31,27.16C222.4,18.22,136.07-2.43,109.26,0.24C58.36,5.28,26.49,30.99,0,52.39
			c59.82-15.64,72.9-24.14,132.27-18.46c49.89,4.77,109.07,17.31,159,31.83C283.17,48.28,279.13,43.82,270.31,27.16z"/>
	</g>
	<g>
		<path class="st6" d="M653.27,149.89c-69.72,7.42-179.25-3.07-181.45-2.82c0.96,0.54,42.42,11.52,62.82,13.92
			c36.86,4.35,67.32,3.89,101.54-5.66C641.54,153.83,654.33,150.36,653.27,149.89z"/>
		<g>
			<path class="st6" d="M597.93,96.83h-68.55c-5.21,7.69-7.87,17.17-6.91,27.14c2.19,22.75,22.4,39.41,45.15,37.22
				c22.74-2.19,39.41-22.39,37.22-45.14C604.15,108.91,601.69,102.37,597.93,96.83z"/>
			<path class="st5" d="M631.84,111.44c20.36,15.3,25.79,39.56,25.79,39.56c-46.1-82.33-190.47-19.47-190.47-19.47
				C528.45,66.18,605.71,91.79,631.84,111.44z"/>
		</g>
		<path class="st5" d="M604.97,0.24c-26.82-2.67-113.14,17.98-161.05,26.93c-8.82,16.66-12.86,21.12-20.97,38.59
			c49.93-14.52,109.11-27.06,159-31.83c59.38-5.68,72.46,2.82,132.27,18.46C687.73,30.99,655.87,5.28,604.97,0.24z"/>
	</g>
</g>
</svg>
