<?xml version="1.0" encoding="utf-8"?>
<!-- Generator: Adobe Illustrator 23.0.6, SVG Export Plug-In . SVG Version: 6.00 Build 0)  -->
<svg version="1.1" id="Capa_1" xmlns="http://www.w3.org/2000/svg" xmlns:xlink="http://www.w3.org/1999/xlink" x="0px" y="0px"
	 viewBox="0 0 813.98 174.13" style="enable-background:new 0 0 813.98 174.13;" xml:space="preserve">
<style type="text/css">
	.st0{fill-rule:evenodd;clip-rule:evenodd;fill:#37333D;}
	.st1{fill:#37333D;}
	.st2{fill-rule:evenodd;clip-rule:evenodd;fill:#2D4B5E;}
	.st3{fill-rule:evenodd;clip-rule:evenodd;fill:#CF8362;}
	.st4{fill-rule:evenodd;clip-rule:evenodd;fill:#325568;}
	.st5{fill:#674234;}
	.st6{fill-rule:evenodd;clip-rule:evenodd;fill:#674234;}
	.st7{fill-rule:evenodd;clip-rule:evenodd;fill:#AC5F4A;}
	.st8{fill:#FC2B0E;}
	.st9{fill:#FF3F20;}
	.st10{fill:#CC1305;}
	.st11{fill:#E02008;}
	.st12{fill:#EC1C24;}
</style>
<g>
	<g>
		<g>
			<path class="st0" d="M202.12,133.24c0,22.58-19.48,40.89-43.51,40.89c-24.03,0-43.5-18.31-43.5-40.89
				c0-22.59,19.47-33.57,43.5-33.57C182.64,99.67,202.12,110.65,202.12,133.24z"/>
			<path class="st2" d="M201.4,85.27c-30.47-15.15-88.96-14.81-134.36,21.2c-9.29,7.37-25.23,25.99-23.83,27.46
				c119.97-65.54,209.18,8.57,211.98,7.66C253.91,139.9,244.43,106.67,201.4,85.27z"/>
			<path class="st0" d="M246.42,132.34c-43.95-38.67-84.34-41.42-130.04-26.55c-50.78,16.52-71.99,56.32-73.24,58.17
				c2.71,0.97,123.52-91.4,226.33-2.13C270.84,160.25,255.41,140.25,246.42,132.34z"/>
		</g>
		<g>
			<path class="st0" d="M700.37,133.23c0,22.59-19.48,40.89-43.5,40.89c-24.04,0-43.52-18.31-43.52-40.89
				c0-22.59,19.48-33.57,43.52-33.57C680.89,99.67,700.37,110.65,700.37,133.23z"/>
			<path class="st2" d="M613.59,85.27c30.47-15.15,88.95-14.81,134.37,21.2c9.29,7.37,25.23,25.99,23.82,27.46
				c-127.15-74.95-200.93,4.97-214.41,9.92C558.66,142.16,570.57,106.67,613.59,85.27z"/>
			<path class="st0" d="M698.61,105.79c-45.71-14.88-86.09-12.12-130.04,26.55c-8.99,7.91-24.41,27.91-23.05,29.49
				c102.8-89.27,223.61,3.1,226.32,2.13C770.59,162.11,749.39,122.31,698.61,105.79z"/>
		</g>
		<g>
			<path class="st1" d="M106.34,103.84c-15.77,4.08-52.91,13.61-67.04,12c-24.7-2.82-30.07-10.72-30.35-8.47
				C4,148.3,43.11,163.14,43.11,163.14c15.66-22.04,43.07-52.22,132.71-64.92C176.44,98.13,145.32,93.74,106.34,103.84z"/>
			<path class="st1" d="M805.86,108.09c-0.27-2.25-5.64,5.65-30.35,8.47c-14.14,1.61-51.25-8-67.04-12
				c-40.19-10.17-69.8-6.21-69.18-6.12c89.63,12.7,116.76,43.38,132.41,65.42C771.69,163.86,810.79,149.02,805.86,108.09z"/>
		</g>
	</g>
	<g>
		<path class="st0" d="M85.42,0.01C74.23-1.03-15.42,81.77,2.31,75.22c27.29-10.09,70.25-33.56,83.11-32.37
			C201.61,53.65,316.05,78,316.16,76.87c1.3-13.09-4.49-30.06-11.58-44.67C272.7,26.43,179.64,8.76,85.42,0.01z"/>
		<path class="st0" d="M731.92,0.01C637.51,8.78,543.07,26.5,510.9,32.23c-7.08,14.61-12.85,31.55-11.54,44.64
			c0.11,1.13,116.37-23.23,232.56-34.02c12.87-1.2,47.85,20.24,79.44,32.36C829.95,82.35,743.8-1.1,731.92,0.01z"/>
	</g>
</g>
</svg>
