<?xml version="1.0" encoding="utf-8"?>
<!-- Generator: Adobe Illustrator 23.0.6, SVG Export Plug-In . SVG Version: 6.00 Build 0)  -->
<svg version="1.1" id="Capa_1" xmlns="http://www.w3.org/2000/svg" xmlns:xlink="http://www.w3.org/1999/xlink" x="0px" y="0px"
	 viewBox="0 0 673.89 172.18" style="enable-background:new 0 0 673.89 172.18;" xml:space="preserve">
<style type="text/css">
	.st0{fill-rule:evenodd;clip-rule:evenodd;fill:#37333D;}
	.st1{fill:#37333D;}
	.st2{fill-rule:evenodd;clip-rule:evenodd;fill:#2D4B5E;}
	.st3{fill-rule:evenodd;clip-rule:evenodd;fill:#CF8362;}
	.st4{fill-rule:evenodd;clip-rule:evenodd;fill:#325568;}
	.st5{fill:#674234;}
	.st6{fill-rule:evenodd;clip-rule:evenodd;fill:#674234;}
	.st7{fill-rule:evenodd;clip-rule:evenodd;fill:#AC5F4A;}
	.st8{fill:#FC2B0E;}
	.st9{fill:#FF3F20;}
	.st10{fill:#CC1305;}
	.st11{fill:#E02008;}
	.st12{fill:#EC1C24;}
</style>
<g>
	<g>
		<g>
			<path class="st6" d="M169.91,138.92c0,18.37-15.85,33.26-35.39,33.26c-19.54,0-35.38-14.89-35.38-33.26
				c0-18.37,15.84-27.29,35.38-27.29C154.06,111.63,169.91,120.55,169.91,138.92z"/>
			<path class="st6" d="M205.94,138.19c-35.74-31.45-68.58-33.69-105.76-21.59c-41.3,13.43-58.54,45.81-59.56,47.31
				c2.21,0.79,100.46-74.34,184.07-1.73C225.8,160.89,213.25,144.62,205.94,138.19z"/>
			<path class="st7" d="M169.33,93.32C144.54,81,96.98,81.27,60.05,110.57c-7.55,5.99-20.52,21.14-19.37,22.33
				c95.33-84.39,169.46-3.69,171.74-4.43C211.36,127.08,204.32,110.73,169.33,93.32z"/>
		</g>
		<g>
			<path class="st6" d="M575.14,138.92c0,18.37-15.84,33.26-35.38,33.26c-19.54,0-35.38-14.89-35.38-33.26
				c0-18.37,15.84-27.29,35.38-27.3C559.29,111.62,575.14,120.55,575.14,138.92z"/>
			<path class="st6" d="M573.71,116.6c-37.17-12.1-70.02-9.85-105.76,21.59c-7.3,6.44-19.85,22.7-18.75,23.99
				c83.61-72.6,181.86,2.52,184.07,1.73C632.25,162.41,615.01,130.03,573.71,116.6z"/>
			<path class="st7" d="M504.57,93.32c24.78-12.32,72.34-12.05,109.28,17.24c7.55,5.99,20.52,21.14,19.38,22.33
				c-95.33-84.39-169.45-3.69-171.74-4.43C462.53,127.08,469.57,110.73,504.57,93.32z"/>
		</g>
	</g>
	<g>
		<path class="st6" d="M60.03,0.14C33.81,1.13-19.55,86.86,7.4,76.9c22.2-8.2,57.14-27.29,67.6-26.32
			c94.5,8.78,187.56,28.58,187.66,27.67c1.63-16.47-10.49-40.49-19.06-53.26C235.83,13.41,106.08-1.6,60.03,0.14z"/>
		<path class="st6" d="M615.77,0.13c-45.8,1.1-177.3,13.27-185.07,24.85c-8.57,12.77-20.69,36.79-19.05,53.26
			c0.09,0.92,94.64-18.89,189.14-27.66c10.46-0.97,38.93,16.46,64.62,26.32C694.36,88.01,642-0.49,615.77,0.13z"/>
	</g>
</g>
</svg>
