<?xml version="1.0" encoding="utf-8"?>
<!-- Generator: Adobe Illustrator 23.0.6, SVG Export Plug-In . SVG Version: 6.00 Build 0)  -->
<svg version="1.1" id="Capa_1" xmlns="http://www.w3.org/2000/svg" xmlns:xlink="http://www.w3.org/1999/xlink" x="0px" y="0px"
	 viewBox="0 0 714.17 185.63" style="enable-background:new 0 0 714.17 185.63;" xml:space="preserve">
<style type="text/css">
	.st0{fill-rule:evenodd;clip-rule:evenodd;fill:#37333D;}
	.st1{fill:#37333D;}
	.st2{fill-rule:evenodd;clip-rule:evenodd;fill:#2D4B5E;}
	.st3{fill-rule:evenodd;clip-rule:evenodd;fill:#CF8362;}
	.st4{fill-rule:evenodd;clip-rule:evenodd;fill:#325568;}
	.st5{fill:#674234;}
	.st6{fill-rule:evenodd;clip-rule:evenodd;fill:#674234;}
	.st7{fill-rule:evenodd;clip-rule:evenodd;fill:#AC5F4A;}
	.st8{fill:#FC2B0E;}
	.st9{fill:#FF3F20;}
	.st10{fill:#CC1305;}
	.st11{fill:#E02008;}
	.st12{fill:#EC1C24;}
</style>
<g>
	<g>
		<path class="st5" d="M497.49,104.79c51.25-40.13,157.75-12.11,182.06,29.48c-33.8-39.34-119.82-60.6-173.08-26.93
			c-15.21,9.62-21.36,22.72-35.9,32.06C481.29,128.54,485.32,114.32,497.49,104.79z"/>
		<path class="st5" d="M468,170.17c20.91-62.64,158.43-76.6,194.88-14.11c-25.5,17.59-57.07,30.63-96.16,29.49
			c-23.62-0.69-47.31-10.26-69.23-11.53C487.73,173.45,474.1,179.91,468,170.17z M605.19,126.58
			c17.95,53.97-57.75,69.45-73.08,32.05c-3.72-9.08-0.27-24.79-2.56-33.33c-14.09,12.17-45.45,13.26-41.03,39.74
			c45.33,22.1,131.86,23.44,166.67-8.98 M488.52,168.89c-6.05-0.78-0.77-12.91-6.41-14.11c-2.65,5.91-11.56,5.54-10.26,15.39
			C476.35,171.99,485.6,172.38,488.52,168.89z"/>
	</g>
	<g>
		<path class="st5" d="M713.93,80.15c0.17,1.3,0.25,2.63,0.23,3.97c-35.53-4.3-67.15-27.4-102.56-32.05
			c-56.42-7.4-101.38,25.33-150,26.92c-4.56-9.71-5.05-23.57-2.56-37.18c2.8,2.32,0.21,10.04,2.56,12.82
			c2.54-6.44,5.32-12.64,7.69-19.23c11.19,4.75,11.79-15.15,23.08-17.95c-0.1,5.02-2.26,8-3.85,11.54
			c17.3-11.09,41.4-12.39,66.67-20.51c20.33-6.54,37.89-8.06,53.65-5.97l-0.09,0.69c-20.1-2.64-32.88,3.51-54.84,10.41
			c-29.85,9.37-52.63,7.16-67.95,23.08c-1.9-3.76,1.45-4.76-2.56-6.41c-5.49,17.74-24.66,21.03-20.52,44.87
			C509,74.32,556.03,41.5,614.16,49.5c34.94,4.81,66.11,28,98.72,30.77L713.93,80.15z"/>
		<path class="st5" d="M713.93,80.15l-1.05,0.13c-23.01-28.69-54.43-66.28-96.15-75.65c-2.8-0.63-5.45-1.1-7.99-1.43l0.09-0.69
			c25.64,3.4,46.52,16.36,66.87,32.89C690.32,47.28,711.51,61.56,713.93,80.15z"/>
		<path class="st5" d="M616.73,4.63c41.73,9.36,73.14,46.95,96.15,75.65c-32.61-2.77-63.77-25.96-98.72-30.77
			c-58.13-8-105.17,24.82-151.29,25.64c-4.14-23.84,15.03-27.13,20.52-44.87c4.01,1.65,0.66,2.65,2.56,6.41
			c15.32-15.92,38.1-13.7,67.95-23.08c21.96-6.9,34.74-13.04,54.84-10.41C611.28,3.53,613.93,4,616.73,4.63z"/>
		<path class="st5" d="M459.03,78.99c-3.75-1.15-3.94-1.15-7.69,0c-5.22-5.89-6.69-15.54-6.41-26.92c4.5,1.49,2.81,9.17,3.85,14.11
			c2.62-6.79,0.17-18.63,5.13-23.08C451.22,51.95,453.65,70.5,459.03,78.99z"/>
		<path class="st5" d="M441.08,58.48c2.32,7.3,7.53,17.81,6.41,24.36C441.2,79.51,437.97,67.01,441.08,58.48z"/>
		<path class="st5" d="M442.36,84.12c-4.09,2.33-9.99-4.5-15.38-5.13C433,74.73,438.16,82.3,442.36,84.12z"/>
	</g>
	<g>
		<path class="st5" d="M246.2,168.89c-3.85,11.61-19.46,4.75-28.21,5.13c-22.07,0.96-46.22,10.83-70.51,11.53
			c-39.07,1.14-70.99-12.11-96.16-29.49C87.79,93.5,223.74,108.06,246.2,168.89z M242.35,170.17c0.28-9.67-7.09-11.71-12.82-15.39
			c0.63,7.03-0.9,11.92-3.85,15.39C230.69,171.28,237.63,172.43,242.35,170.17z M225.69,165.05c4.01-26.5-27-28.37-42.31-39.74
			c23.71,65.76-94.9,73.02-74.37,1.28c-21.24,5.68-36.74,17.11-50,30.77C95.65,187.58,180.3,187.49,225.69,165.05z"/>
		<path class="st5" d="M216.71,104.79c12.52,9.8,16.04,23.64,26.93,34.61c-14.72-8.48-19.77-22.29-34.62-32.06
			C156.79,73,67.98,94.54,35.94,134.27C56.3,93.14,165.56,64.72,216.71,104.79z"/>
	</g>
	<g>
		<path class="st5" d="M271.84,85.4c3.53-4.17,7.18-8.21,15.38-7.69C283.39,81.56,277.33,83.19,271.84,85.4z"/>
		<path class="st5" d="M271.84,58.48c5.9,6.22,0.75,21.58-5.13,24.36C264.75,75.85,272.04,67.88,271.84,58.48z"/>
		<path class="st5" d="M269.28,52.07c0.28,11.39-1.19,21.03-6.41,26.92c-3.75-1.15-3.94-1.15-7.69,0
			c3.56-8.53,10.27-24.22,3.85-34.62c4.94-1.07,5.72,13.06,5.13,21.8C267.91,63.52,263.93,53.12,269.28,52.07z"/>
		<path class="st5" d="M253.9,41.81c5.34,11.07,2.42,28.3-1.28,37.18c-47.95-2.11-92.37-32.86-147.44-26.92
			C67.96,56.08,36.44,79.54,0.04,84.12c-0.08-1.34-0.05-2.67,0.09-3.96l1.19,0.11C34.34,77.43,65.49,53.9,101.33,49.5
			c57.54-7.06,104.16,24.4,150,25.64c3.54-23.64-14.39-28.53-21.8-44.87c-0.71,2.28-0.66,5.32-2.57,6.41
			c-5.01-5.63-11.14-9.06-18.15-11.53l0.49-1.37c5.2,1.86,10.25,3.63,15.09,5.21c2.26-1.92-3.54-6.64-2.57-11.54
			c11.29,2.79,11.88,22.7,23.08,17.95c1.48,7.07,6.34,10.76,6.41,19.23C254.9,53.07,253.71,46.76,253.9,41.81z"/>
		<path class="st5" d="M229.54,30.27c7.41,16.34,25.34,21.23,21.8,44.87c-45.85-1.25-92.46-32.7-150-25.64
			C65.49,53.9,34.34,77.43,1.32,80.27C14.69,63.56,31.1,43.66,50.79,28.18C64.69,17.24,80.24,8.5,97.48,4.63
			c28.12-6.3,44.23,2.84,69.24,10.26c15.69,4.65,30.16,6.05,42.11,10.26c7.01,2.47,13.14,5.9,18.15,11.53
			C228.88,35.59,228.83,32.56,229.54,30.27z"/>
		<path class="st5" d="M209.31,23.78l-0.49,1.37c-11.95-4.21-26.42-5.61-42.11-10.26C141.71,7.46,125.6-1.68,97.48,4.63
			C80.24,8.5,64.69,17.24,50.79,28.18l-0.79-1C70.84,10.73,93.4-3.56,130.81,0.79C155.81,3.69,184.27,14.82,209.31,23.78z"/>
		<path class="st5" d="M50,27.18l0.79,1C31.1,43.66,14.69,63.56,1.32,80.27l-1.19-0.11C1.96,61.52,24.18,48.05,39.79,35.4
			C43.18,32.65,46.56,29.88,50,27.18z"/>
	</g>
</g>
</svg>
