<?xml version="1.0" encoding="utf-8"?>
<!-- Generator: Adobe Illustrator 23.0.6, SVG Export Plug-In . SVG Version: 6.00 Build 0)  -->
<svg version="1.1" id="Capa_1" xmlns="http://www.w3.org/2000/svg" xmlns:xlink="http://www.w3.org/1999/xlink" x="0px" y="0px"
	 viewBox="0 0 725.36 182.58" enable-background="new 0 0 725.36 182.58" xml:space="preserve">
<g>
	<g>
		<path fill-rule="evenodd" clip-rule="evenodd" fill="#674234" d="M444.92,39.99c0.32,0.18,46.22-15.44,54.44-18.48
			c16.35-4.58,96.82-27.83,133.71-19.87c26.77,5.78,70.76,47.15,71.11,48.03c-1.19,0.31-10.26-0.6-16.57-2.04
			c9.28,11.49,37.06,36.79,37.75,39.86c-3.2-0.63-6.44-1.16-9.61-1.89c-23.87-5.54-39.94-13.02-64.21-16.2
			c-29.76-3.89-60.17-5.87-90.23-5.41c-17.21,0.27-68.17,7.71-91.75,10.91C450.08,68.46,429.52,53.22,444.92,39.99z"/>
		<path fill-rule="evenodd" clip-rule="evenodd" fill="#674234" d="M280.44,39.99c-0.32,0.18-42.99-15.02-54.44-18.48
			c-14.55-4.48-95.8-27.83-132.69-19.87C66.54,7.43,22.56,48.8,22.21,49.68c1.18,0.31,10.26-0.6,16.57-2.04
			C29.5,59.13,0.69,84.44,0,87.5c3.2-0.63,6.44-1.16,9.61-1.89c23.88-5.54,39.94-13.02,64.21-16.2c29.76-3.89,60.17-5.87,90.23-5.41
			c17.21,0.27,72.07,7.91,91.74,10.91C268.06,74.79,300.61,58.51,280.44,39.99z"/>
	</g>
	<g>
		<g>
			<path fill-rule="evenodd" clip-rule="evenodd" fill="#674234" d="M644.21,109.16c-29.43-17.1-55.25-23.87-95.19-21.8
				c-35.49,4.83-54.21,14.84-79.54,35.95c-5.26,5.44-17.99,15.55-19.41,14.86c0.82-4.71,36.28-49.2,58.27-53.37
				c43.76-8.3,82.89-4.51,127.47,8.62C647.99,97.96,657.91,117.12,644.21,109.16z"/>
			<path fill-rule="evenodd" clip-rule="evenodd" fill="#674234" d="M636.67,164.84c-31.31,19.29-65.47,21.05-100.3,13.81
				c-19.27-4-58.89-17.9-59.82-18.92c2.04-0.53,28.44,6.58,39.96,9.08c42.15,9.15,84.07,13.91,122.53-12.89
				c2.57-1.79,4.93-3.87,7.39-5.82C647.44,150.97,641.57,161.82,636.67,164.84z"/>
			<path fill-rule="evenodd" clip-rule="evenodd" fill="#674234" d="M659.49,146.33c-0.75,0.21-1.64-4.43-0.61-4.84
				c9.48-3.8,19.03-7.45,28.65-10.89C688.47,130.26,667.72,144,659.49,146.33z"/>
			<path fill-rule="evenodd" clip-rule="evenodd" fill="#674234" d="M666.28,152.77c1.52-0.44,3.2-1.54,4.54-1.23
				c6.48,1.52,12.9,3.33,19.25,5.29C691.25,157.2,666.84,153.91,666.28,152.77z"/>
			<path fill-rule="evenodd" clip-rule="evenodd" fill="#674234" d="M637.95,132.49c-20.95-20.07-46.41-29.17-70.91-32.17
				c-40.81,0-69.71,16.39-94.81,41.55c-1.92,1.92-1.16,7.52-0.11,10.94c0.5,1.65,4.5,2.85,7.04,3.15
				c10.97,1.28,21.98,2.87,32.99,3.01c24.66,0.32,49.44,1.15,73.97-0.78c16.58-1.3,33.03-6.21,49.12-10.91
				C645.71,144.23,645.54,139.77,637.95,132.49z M494,151.3c-4.46-0.64-5.92-0.75-10.49-0.81c-1.48-0.02-3.83-0.6-4.21-1.54
				c-0.68-1.7-0.95-1.77,0-2.46c3.79-2.73,4.91-2.58,8.26-4.41c3.56,2.44,4.29,4.59,6.02,8.16c-0.94-14.46,18.44-29.64,34.88-31.98
				c-4.48,11.61-0.74,28.08,12.62,36.3C524.73,154.56,509.73,153.54,494,151.3z M585.34,155.71c12.43-10.34,14.46-19.3,11.81-34.72
				c10.87,4.17,26.17,9.6,35.69,21.83C615.32,147.8,598.71,151.91,585.34,155.71z M554.8,124.71c0,3.89-3.15,7.04-7.03,7.04
				c-3.88,0-7.04-3.15-7.04-7.04c0-3.88,3.15-7.03,7.04-7.03C551.65,117.68,554.8,120.83,554.8,124.71z M571.94,148.88
				c-10.84,3.88-21.52,2.96-23.85-2.05c-2.33-5.01,8.13-4.57,18.97-8.45c10.84-3.88,17.97-10.61,20.3-5.59
				C589.68,137.8,582.78,145,571.94,148.88z"/>
		</g>
		<g>
			<path fill-rule="evenodd" clip-rule="evenodd" fill="#674234" d="M81.15,109.16c29.43-17.1,55.25-23.87,95.19-21.8
				c35.49,4.83,54.2,14.84,79.54,35.95c5.26,5.44,17.99,15.55,19.41,14.86c-0.82-4.71-36.28-49.2-58.27-53.37
				c-43.76-8.3-78.12-4.99-127.47,8.62C77.37,97.96,67.45,117.12,81.15,109.16z"/>
			<path fill-rule="evenodd" clip-rule="evenodd" fill="#674234" d="M88.7,164.84c31.31,19.29,65.47,21.05,100.3,13.81
				c19.27-4,58.89-17.9,59.83-18.92c-2.04-0.53-28.45,6.58-39.96,9.08c-42.16,9.15-84.08,13.91-122.53-12.89
				c-2.57-1.79-4.93-3.87-7.39-5.82C77.92,150.98,83.8,161.82,88.7,164.84z"/>
			<path fill-rule="evenodd" clip-rule="evenodd" fill="#674234" d="M65.87,146.33c0.75,0.21,1.64-4.43,0.61-4.84
				c-9.48-3.8-19.03-7.45-28.65-10.89C36.89,130.26,57.65,144,65.87,146.33z"/>
			<path fill-rule="evenodd" clip-rule="evenodd" fill="#674234" d="M59.09,152.77c-1.53-0.44-3.2-1.54-4.55-1.23
				c-6.48,1.52-12.89,3.33-19.25,5.29C34.12,157.2,58.52,153.91,59.09,152.77z"/>
			<path fill-rule="evenodd" clip-rule="evenodd" fill="#674234" d="M253.13,141.87c-25.1-25.16-53.99-41.55-94.81-41.55
				c-24.51,3-49.96,12.09-70.91,32.17c-7.59,7.27-7.76,11.74,2.7,14.8c16.09,4.7,32.54,9.61,49.11,10.91
				c24.53,1.92,49.31,1.09,73.97,0.78c11.01-0.14,22.02-1.74,32.99-3.01c2.54-0.3,6.54-1.5,7.04-3.15
				C254.29,149.39,255.05,143.79,253.13,141.87z M92.52,142.82c9.52-12.23,24.82-17.66,35.69-21.83
				c-2.65,15.42-0.61,24.37,11.81,34.72C126.65,151.91,110.04,147.8,92.52,142.82z M246.06,148.94c-0.38,0.95-2.73,1.52-4.21,1.54
				c-4.57,0.06-6.03,0.17-10.49,0.81c-15.73,2.24-30.73,3.27-47.08,3.27c13.36-8.22,17.09-24.69,12.61-36.3
				c16.46,2.34,35.82,17.51,34.88,31.98c1.73-3.57,2.46-5.72,6.02-8.16c3.35,1.84,4.47,1.68,8.26,4.41
				C247.02,147.17,246.74,147.24,246.06,148.94z M155.15,125.94c0,3.89-3.15,7.04-7.03,7.04c-3.88,0-7.04-3.15-7.04-7.04
				c0-3.88,3.15-7.03,7.04-7.03C152,118.9,155.15,122.05,155.15,125.94z M172.29,148.48c-10.84,3.88-21.52,2.96-23.85-2.05
				c-2.33-5.01,8.13-4.57,18.97-8.45c10.84-3.88,17.97-10.6,20.29-5.59C190.03,137.39,183.13,144.6,172.29,148.48z"/>
		</g>
	</g>
</g>
</svg>
