<?xml version="1.0" encoding="utf-8"?>
<!-- Generator: Adobe Illustrator 23.0.6, SVG Export Plug-In . SVG Version: 6.00 Build 0)  -->
<svg version="1.1" id="Capa_1" xmlns="http://www.w3.org/2000/svg" xmlns:xlink="http://www.w3.org/1999/xlink" x="0px" y="0px"
	 viewBox="0 0 688.84 206.31" enable-background="new 0 0 688.84 206.31" xml:space="preserve">
<g>
	<g>
		<g>
			<path fill-rule="evenodd" clip-rule="evenodd" fill="#674234" d="M177.45,170.92c0,19.54-15.84,35.39-35.38,35.39
				c-19.54,0-35.38-15.84-35.38-35.39c0-19.54,15.84-29.04,35.38-29.04C161.61,141.88,177.45,151.38,177.45,170.92z"/>
			<path fill-rule="evenodd" clip-rule="evenodd" fill="#674234" d="M213.48,150.31c-35.74-31.45-68.59-33.69-105.76-21.59
				c-41.3,13.43-58.54,45.81-59.56,47.31c2.21,0.79,100.46-74.33,184.08-1.74C233.33,173.01,220.79,156.75,213.48,150.31z"/>
			<path fill-rule="evenodd" clip-rule="evenodd" fill="#AC5F4A" d="M176.87,112.03c-24.78-12.32-72.34-12.04-109.28,17.25
				c-7.56,6-20.52,21.14-19.37,22.33c95.33-84.4,169.46-3.69,171.74-4.43C218.9,145.79,211.86,129.44,176.87,112.03z"/>
		</g>
		<g>
			<path fill-rule="evenodd" clip-rule="evenodd" fill="#674234" d="M582.68,170.92c0,19.54-15.84,35.39-35.38,35.39
				c-19.54,0-35.39-15.84-35.39-35.39c0-19.54,15.84-29.04,35.39-29.04C566.84,141.88,582.68,151.38,582.68,170.92z"/>
			<path fill-rule="evenodd" clip-rule="evenodd" fill="#674234" d="M581.25,128.72c-37.18-12.1-70.02-9.86-105.76,21.59
				c-7.31,6.43-19.85,22.7-18.75,23.98c83.6-72.6,181.86,2.52,184.07,1.74C639.79,174.53,622.55,142.15,581.25,128.72z"/>
			<path fill-rule="evenodd" clip-rule="evenodd" fill="#AC5F4A" d="M512.1,112.03c24.78-12.32,72.35-12.04,109.27,17.25
				c7.56,6,20.52,21.14,19.38,22.33c-95.33-84.4-169.46-3.69-171.74-4.43C470.07,145.79,477.1,129.44,512.1,112.03z"/>
		</g>
	</g>
	<g>
		<path fill-rule="evenodd" clip-rule="evenodd" fill="#674234" d="M241.08,14.32c-6.23-2.2-12.73-3.69-19.18-5.03
			c-18.45-3.85-37.25-6.08-56.02-7.55C128.12-1.24,100.37-0.7,63.02,5.81c-9.65,1.68-17.58,10.75-23.38,17.99
			C31.89,33.44,0.23,73.35,0,83.31c-0.14,5.88,2.71,9.13,8.38,5.73C20.51,81.76,38.26,69,50.42,61.52
			c8.28-5.09,13.26-8.73,23.21-9.19c44.34-2,90.12,1.91,134.59,9.19c14.18,2.32,28.29,5.06,42.34,8.13
			c5.53,1.2,15.77,4.54,16.95,3.61c4.62-3.64-7.42-40.13-17.42-54.08C248.21,16.57,244.1,15.38,241.08,14.32z"/>
		<path fill-rule="evenodd" clip-rule="evenodd" fill="#674234" d="M653.47,21.54c-5.44-6.62-12.93-14.8-21.94-15.87
			c-38.36-4.57-69.87-5.4-108.51-2.7c-19.22,1.35-38.51,3.38-57.43,7.14c-7.37,1.46-21.92,2.78-26.55,9.1
			c-10.04,13.68-22.05,50.44-17.44,54.08c1.09,0.86,10.55-2.17,15.66-3.28c14.72-3.19,29.52-6.04,44.38-8.43
			c44.74-7.2,90.74-11.02,135.39-8.95c8.77,0.41,22.51,1.57,29.71,6.17c12.44,7.94,19.98,22.38,32.47,30.09
			c6.1,3.77,9.59,0.66,9.63-5.94C688.89,72.93,661.54,31.39,653.47,21.54z"/>
	</g>
</g>
</svg>
