<?xml version="1.0" encoding="utf-8"?>
<!-- Generator: Adobe Illustrator 23.0.6, SVG Export Plug-In . SVG Version: 6.00 Build 0)  -->
<svg version="1.1" id="Capa_1" xmlns="http://www.w3.org/2000/svg" xmlns:xlink="http://www.w3.org/1999/xlink" x="0px" y="0px"
	 viewBox="0 0 674.49 173.08" enable-background="new 0 0 674.49 173.08" xml:space="preserve">
<g>
	<g>
		<g>
			<g>
				<path fill-rule="evenodd" clip-rule="evenodd" fill="#AC5F4A" d="M33.32,145.98c0.83,0.21,1.8-4.27,0.67-4.67
					c-10.31-3.66-20.71-7.18-31.17-10.51C1.79,130.47,24.37,143.74,33.32,145.98z"/>
				<path fill-rule="evenodd" clip-rule="evenodd" fill="#AC5F4A" d="M25.94,152.2c-1.65-0.43-3.48-1.48-4.94-1.18
					c-7.05,1.47-14.04,3.21-20.96,5.1C-1.23,156.46,25.33,153.3,25.94,152.2z"/>
			</g>
			<path fill-rule="evenodd" clip-rule="evenodd" fill="#674234" d="M112.33,114.53c-43.47,3.95-65.55,35.98-66.72,37.19
				c46.95-25.33,100.71-22.17,186.09-1.61C174.79,119.27,149.35,111.17,112.33,114.53z"/>
			<path fill-rule="evenodd" clip-rule="evenodd" fill="#AC5F4A" d="M227.69,154.53c-47.85,13.82-69.36,17.96-100.96,18.52
				c-37.11,0.67-56.55-9.8-57.57-10.18C109.66,169.74,155.39,166.02,227.69,154.53z"/>
			<path fill-rule="evenodd" clip-rule="evenodd" fill="#AC5F4A" d="M98.15,91.9c24.89-12.38,72.66-12.09,109.76,17.33
				c7.59,6.02,20.61,21.23,19.46,22.43c-95.75-84.77-170.2-3.71-172.49-4.45C55.93,125.81,63,109.39,98.15,91.9z"/>
		</g>
		<g>
			<g>
				<path fill-rule="evenodd" clip-rule="evenodd" fill="#AC5F4A" d="M641.17,145.98c8.95-2.25,31.54-15.51,30.51-15.18
					c-10.46,3.33-20.86,6.85-31.17,10.51C639.38,141.71,640.34,146.19,641.17,145.98z"/>
				<path fill-rule="evenodd" clip-rule="evenodd" fill="#AC5F4A" d="M674.45,156.12c-6.92-1.89-13.91-3.63-20.95-5.1
					c-1.46-0.3-3.29,0.76-4.94,1.18C649.17,153.3,675.73,156.46,674.45,156.12z"/>
			</g>
			<path fill-rule="evenodd" clip-rule="evenodd" fill="#674234" d="M562.17,114.53c-37.02-3.36-62.46,4.74-119.38,35.57
				c85.38-20.55,139.14-23.71,186.09,1.61C627.71,150.51,605.64,118.48,562.17,114.53z"/>
			<path fill-rule="evenodd" clip-rule="evenodd" fill="#AC5F4A" d="M446.8,154.53c47.85,13.82,69.37,17.96,100.96,18.52
				c37.11,0.67,56.56-9.8,57.58-10.18C564.84,169.74,519.11,166.02,446.8,154.53z"/>
			<path fill-rule="evenodd" clip-rule="evenodd" fill="#AC5F4A" d="M576.34,91.9c-24.88-12.38-72.66-12.09-109.76,17.33
				c-7.58,6.02-20.61,21.23-19.46,22.43c95.75-84.77,170.2-3.71,172.49-4.45C618.56,125.81,611.5,109.39,576.34,91.9z"/>
		</g>
	</g>
	<g>
		<path fill-rule="evenodd" clip-rule="evenodd" fill="#674234" d="M60.33,0.14C34.11,1.12-19.25,86.87,7.71,76.9
			c22.2-8.2,57.14-27.29,67.6-26.32c94.5,8.78,187.56,28.59,187.66,27.67c1.63-16.47-10.48-40.5-19.05-53.26
			C236.13,13.41,106.38-1.6,60.33,0.14z"/>
		<path fill-rule="evenodd" clip-rule="evenodd" fill="#674234" d="M616.08,0.14C570.27,1.23,438.78,13.41,431,24.99
			c-8.57,12.77-20.68,36.79-19.05,53.26c0.09,0.92,94.64-18.89,189.15-27.66c10.46-0.97,38.93,16.46,64.61,26.32
			C694.66,88.01,642.3-0.49,616.08,0.14z"/>
	</g>
</g>
</svg>
