<?xml version="1.0" encoding="utf-8"?>
<!-- Generator: Adobe Illustrator 23.0.6, SVG Export Plug-In . SVG Version: 6.00 Build 0)  -->
<svg version="1.1" id="Capa_1" xmlns="http://www.w3.org/2000/svg" xmlns:xlink="http://www.w3.org/1999/xlink" x="0px" y="0px"
	 viewBox="0 0 706.17 161.77" style="enable-background:new 0 0 706.17 161.77;" xml:space="preserve">
<style type="text/css">
	.st0{fill-rule:evenodd;clip-rule:evenodd;fill:#37333D;}
	.st1{fill:#37333D;}
	.st2{fill-rule:evenodd;clip-rule:evenodd;fill:#2D4B5E;}
	.st3{fill-rule:evenodd;clip-rule:evenodd;fill:#CF8362;}
	.st4{fill-rule:evenodd;clip-rule:evenodd;fill:#325568;}
	.st5{fill:#674234;}
	.st6{fill-rule:evenodd;clip-rule:evenodd;fill:#674234;}
	.st7{fill-rule:evenodd;clip-rule:evenodd;fill:#AC5F4A;}
	.st8{fill:#FC2B0E;}
	.st9{fill:#FF3F20;}
	.st10{fill:#CC1305;}
	.st11{fill:#E02008;}
	.st12{fill:#EC1C24;}
</style>
<g>
	<g>
		<path class="st6" d="M255.28,26.19C247.13,14.05,111.16-1.68,62.9,0.14C35.43,1.18-20.49,91.03,7.76,80.59
			c23.26-8.6,59.87-28.6,70.83-27.58C177.62,62.2,275.14,82.96,275.24,82C276.95,64.74,264.26,39.57,255.28,26.19z"/>
		<path class="st5" d="M169.44,161.77c4.89-8.16,7.27-24.96,6.14-35.46c-2.62-24.52-21-20.46-43.97-18.21
			c-22.97,2.26-41.83,1.86-39.2,26.39c1.12,10.5,5.57,19.81,12.08,26.84L169.44,161.77z"/>
	</g>
	<g>
		<path class="st5" d="M602.22,161.77c6.63-6.94,11.24-16.16,12.54-26.64c3.05-24.48-15.81-24.38-38.74-26.99
			c-22.93-2.61-41.23-6.95-44.28,17.52c-1.3,10.49,0.91,27.31,5.65,35.54L602.22,161.77z"/>
		<path class="st6" d="M495.84,127.9c44.14-31.28,69.79-32.22,115.7-20.19c51,13.38,69.22,42.32,70.47,43.8
			c-2.73,0.78-89.94-55.15-209.33,0.25C471.33,150.48,486.82,134.3,495.84,127.9z"/>
		<path class="st6" d="M211.1,126.55c-44.13-31.28-68.23-32.22-114.14-20.19c-51.01,13.37-69.22,42.31-70.47,43.8
			c2.73,0.79,88.38-55.15,207.76,0.25C235.62,149.13,220.13,132.95,211.1,126.55z"/>
		<path class="st6" d="M451.34,26.19c8.15-12.14,145.94-24.9,193.94-26.04c27.48-0.66,82.35,92.08,52.02,80.44
			c-26.92-10.33-56.75-28.6-67.71-27.58C530.55,62.2,431.47,82.96,431.37,82C429.66,64.74,442.35,39.57,451.34,26.19z"/>
	</g>
</g>
</svg>
