<?xml version="1.0" encoding="utf-8"?>
<!-- Generator: Adobe Illustrator 23.0.6, SVG Export Plug-In . SVG Version: 6.00 Build 0)  -->
<svg version="1.1" id="Capa_1" xmlns="http://www.w3.org/2000/svg" xmlns:xlink="http://www.w3.org/1999/xlink" x="0px" y="0px"
	 viewBox="0 0 673.91 171.77" style="enable-background:new 0 0 673.91 171.77;" xml:space="preserve">
<style type="text/css">
	.st0{fill-rule:evenodd;clip-rule:evenodd;fill:#37333D;}
	.st1{fill:#37333D;}
	.st2{fill-rule:evenodd;clip-rule:evenodd;fill:#2D4B5E;}
	.st3{fill-rule:evenodd;clip-rule:evenodd;fill:#CF8362;}
	.st4{fill-rule:evenodd;clip-rule:evenodd;fill:#325568;}
	.st5{fill:#674234;}
	.st6{fill-rule:evenodd;clip-rule:evenodd;fill:#674234;}
	.st7{fill-rule:evenodd;clip-rule:evenodd;fill:#AC5F4A;}
	.st8{fill:#FC2B0E;}
	.st9{fill:#FF3F20;}
	.st10{fill:#CC1305;}
	.st11{fill:#E02008;}
	.st12{fill:#EC1C24;}
</style>
<g>
	<g>
		<g>
			<g>
				<path class="st7" d="M640.95,144.96c8.85-2.22,31.19-15.34,30.18-15.02c-10.35,3.29-20.64,6.77-30.84,10.4
					C639.17,140.73,640.12,145.17,640.95,144.96z"/>
				<path class="st7" d="M673.87,154.99c-6.85-1.87-13.75-3.59-20.73-5.05c-1.45-0.29-3.25,0.75-4.89,1.17
					C648.85,152.2,675.13,155.33,673.87,154.99z"/>
			</g>
			<path class="st6" d="M562.78,113.84c-36.62-3.33-61.79,4.69-118.1,35.2c84.47-20.34,137.65-23.46,184.1,1.6
				C627.63,149.45,605.79,117.75,562.78,113.84z"/>
			<path class="st7" d="M576.81,91.46c-24.62-12.25-71.89-11.97-108.59,17.14c-7.51,5.96-20.39,21.01-19.25,22.2
				c94.73-83.86,168.38-3.67,170.65-4.4C618.58,125.01,611.58,108.76,576.81,91.46z"/>
			<path class="st7" d="M448.65,153.43c47.34,13.67,68.62,17.76,99.88,18.32c36.71,0.66,55.95-9.7,56.96-10.07
				C565.42,168.46,520.18,164.79,448.65,153.43z"/>
		</g>
		<g>
			<path class="st5" d="M137.87,100.08c-19.82,0-35.88,13.46-35.88,30.06c0,4.28,1.07,8.34,2.99,12.02l65.79,0
				c1.92-3.69,2.99-7.75,2.99-12.03C173.76,113.54,157.69,100.08,137.87,100.08z"/>
			<path class="st6" d="M208.51,126.48C172.99,95.23,140.36,93,103.42,105.02c-41.04,13.35-58.17,45.53-59.18,47.01
				c2.19,0.79,99.82-73.86,182.91-1.73C228.23,149.03,215.77,132.87,208.51,126.48z"/>
			<path class="st7" d="M172.12,88.44c-24.62-12.24-71.88-11.97-108.58,17.14c-7.51,5.96-20.39,21.01-19.25,22.19
				c94.72-83.86,168.38-3.67,170.65-4.4C213.89,121.99,206.9,105.73,172.12,88.44z"/>
		</g>
	</g>
	<g>
		<path class="st6" d="M60.03,0.14C33.81,1.13-19.55,86.87,7.4,76.9c22.2-8.2,57.14-27.29,67.6-26.32
			c94.5,8.77,187.57,28.58,187.66,27.66c1.63-16.46-10.48-40.49-19.05-53.26C235.82,13.41,106.08-1.6,60.03,0.14z"/>
		<path class="st6" d="M615.77,0.14c-45.8,1.09-177.29,13.27-185.07,24.85c-8.57,12.77-20.69,36.8-19.05,53.26
			c0.1,0.92,94.65-18.89,189.15-27.66c10.46-0.98,38.93,16.46,64.61,26.32C694.36,88.01,642-0.49,615.77,0.14z"/>
	</g>
</g>
</svg>
