<?xml version="1.0" encoding="utf-8"?>
<!-- Generator: Adobe Illustrator 23.0.6, SVG Export Plug-In . SVG Version: 6.00 Build 0)  -->
<svg version="1.1" id="Capa_1" xmlns="http://www.w3.org/2000/svg" xmlns:xlink="http://www.w3.org/1999/xlink" x="0px" y="0px"
	 viewBox="0 0 797.78 226.24" enable-background="new 0 0 797.78 226.24" xml:space="preserve">
<g>
	<g>
		<g>
			<path fill-rule="evenodd" clip-rule="evenodd" fill="#37333D" d="M193.6,185.34c0,22.59-19.48,40.9-43.51,40.9
				c-24.03,0-43.5-18.31-43.5-40.9c0-22.58,19.47-33.56,43.5-33.56C174.12,151.78,193.6,162.76,193.6,185.34z"/>
			<path fill-rule="evenodd" clip-rule="evenodd" fill="#2D4B5E" d="M192.89,140.05c-30.47-15.15-88.95-14.81-134.36,21.21
				c-9.3,7.37-25.23,25.99-23.83,27.45c119.98-65.54,209.18,8.56,211.99,7.67C245.39,194.68,235.92,161.45,192.89,140.05z"/>
			<path fill-rule="evenodd" clip-rule="evenodd" fill="#37333D" d="M237.91,187.12c-43.95-38.67-84.33-41.42-130.04-26.55
				c-50.78,16.52-71.98,56.32-73.24,58.17c2.72,0.97,116.03-74.05,226.33-2.13C262.32,215.03,246.89,195.03,237.91,187.12z"/>
		</g>
		<g>
			<path fill-rule="evenodd" clip-rule="evenodd" fill="#37333D" d="M691.86,185.34c0,22.59-19.48,40.9-43.5,40.9
				c-24.03,0-43.51-18.31-43.51-40.9c0-22.58,19.48-33.56,43.51-33.56C672.38,151.78,691.86,162.74,691.86,185.34z"/>
			<path fill-rule="evenodd" clip-rule="evenodd" fill="#2D4B5E" d="M605.09,140.05c30.47-15.15,88.95-14.81,134.36,21.2
				c9.29,7.38,25.23,25.99,23.83,27.46c-127.15-74.95-200.92,4.97-214.41,9.93C550.15,196.93,562.05,161.45,605.09,140.05z"/>
			<path fill-rule="evenodd" clip-rule="evenodd" fill="#37333D" d="M690.1,160.57c-45.7-14.87-86.09-12.12-130.04,26.55
				c-8.99,7.91-24.41,27.91-23.05,29.49c109.72-71.91,223.6,3.1,226.32,2.13C762.08,216.89,740.88,177.09,690.1,160.57z"/>
		</g>
		<g>
			<path fill="#37333D" d="M97.82,158.62c-15.77,4.09-52.9,13.62-67.05,12C6.08,167.8,0.7,159.9,0.43,162.15
				c-4.94,40.94,34.17,55.77,34.17,55.77c15.65-22.04,43.07-52.22,132.7-64.92C167.91,152.91,136.81,148.53,97.82,158.62z"/>
			<path fill="#37333D" d="M797.35,162.87c-0.27-2.25-5.65,5.64-30.35,8.46c-14.15,1.62-51.24-8-67.04-12
				c-40.19-10.18-69.81-6.21-69.19-6.12c89.62,12.7,116.75,43.38,132.4,65.42C763.17,218.64,802.29,203.8,797.35,162.87z"/>
		</g>
	</g>
	<g>
		<path fill-rule="evenodd" clip-rule="evenodd" fill="#37333D" d="M710.94,41.19c-52.96-8.17-94-4.5-146.64-16.5
			C547.48,20.86,525.02,14,504.8,5.31c-1.87-0.8-5.95-2.87-10.6-5.31c-12.74,13.81-21.74,33.91-21.74,33.91s26.58,11.76,32.34,14.24
			c20.22,8.69,42.67,12.87,59.5,16.71c52.63,11.99,93.68,11,146.64,19.17c11.77,1.82,24.36,10.04,34.84,15.34
			c13.47,6.83,27.27,13.47,41.69,17.87C808.04,123.54,722.71,43,710.94,41.19z"/>
		<path fill-rule="evenodd" clip-rule="evenodd" fill="#37333D" d="M295.23,5.31c-20.22,8.7-42.67,15.55-59.5,19.39
			c-52.63,11.98-93.68,8.32-146.63,16.49C77.33,43-8.01,123.54,12.57,117.25c14.42-4.41,28.22-11.05,41.69-17.88
			c10.47-5.31,23.07-13.52,34.83-15.34c52.96-8.17,94.01-7.18,146.63-19.17c16.83-3.84,39.28-8.02,59.5-16.71
			c5.75-2.48,32.33-14.24,32.33-14.24s-9-20.1-21.73-33.91C301.18,2.44,297.1,4.5,295.23,5.31z"/>
	</g>
</g>
</svg>
