<?xml version="1.0" encoding="utf-8"?>
<!-- Generator: Adobe Illustrator 23.0.6, SVG Export Plug-In . SVG Version: 6.00 Build 0)  -->
<svg version="1.1" id="Capa_1" xmlns="http://www.w3.org/2000/svg" xmlns:xlink="http://www.w3.org/1999/xlink" x="0px" y="0px"
	 viewBox="0 0 660.26 163.16" style="enable-background:new 0 0 660.26 163.16;" xml:space="preserve">
<style type="text/css">
	.st0{fill-rule:evenodd;clip-rule:evenodd;fill:#37333D;}
	.st1{fill:#37333D;}
	.st2{fill-rule:evenodd;clip-rule:evenodd;fill:#2D4B5E;}
	.st3{fill-rule:evenodd;clip-rule:evenodd;fill:#CF8362;}
	.st4{fill-rule:evenodd;clip-rule:evenodd;fill:#325568;}
	.st5{fill:#674234;}
	.st6{fill-rule:evenodd;clip-rule:evenodd;fill:#674234;}
	.st7{fill-rule:evenodd;clip-rule:evenodd;fill:#AC5F4A;}
	.st8{fill:#FC2B0E;}
	.st9{fill:#FF3F20;}
	.st10{fill:#CC1305;}
	.st11{fill:#E02008;}
	.st12{fill:#EC1C24;}
</style>
<g>
	<g>
		<g>
			<path class="st6" d="M135.65,11.63c19.7-20.12-11.91-8.31-16.21-7.04C101.11,9.97,23.76,34.17,3.7,47.72
				c-5.77,3.9-4.12,47.17,0.36,46.16C30.56,73.43,61.51,67.2,92.49,65.12c17.98-1.2,36.45,6.04,54.7,9.57
				c26.8,5.19,53.62,10.27,80.36,15.77c14.23,2.93,48.21,5.51,47.87,4.16c-3.76-15.62-7.98-31.12-12.45-46.52
				c-4-13.82-18.02-13.5-27.04-15.71C201.8,24.03,169.4,19.43,135.65,11.63z"/>
		</g>
		<g>
			<path class="st6" d="M524.6,11.85c-16.23-18.29,11.92-8.32,16.21-7.05c18.33,5.38,95.69,29.57,115.75,43.13
				c5.76,3.9,4.12,47.17-0.35,46.16c-26.51-20.44-57.46-26.68-88.44-28.75c-17.98-1.2-36.46,6.04-54.69,9.57
				c-26.8,5.19-53.62,10.27-80.37,15.77c-14.22,2.93-48.2,5.52-47.88,4.16c3.77-15.62,7.99-31.11,12.46-46.52
				c4.01-13.82,18.03-13.49,27.05-15.7C458.46,24.25,490.86,19.64,524.6,11.85z"/>
		</g>
	</g>
	<g>
		<g>
			<path class="st5" d="M234.49,137.11c-17.61-26.76-80.02-55.88-120.84-56.54c-17.14-0.28-81.53,34.64-81.61,34.7
				c6.13,6.71,38.39,29.25,48.88,37.1c6.07,3.38,13.63,7.27,23.14,8.86c19.34,1.88,32.68,2.76,49.86,0.88
				c21.92-2.39,43.68-6.35,65.48-9.83c9.33-1.49,14.24-0.97,27.06,2.64C246.21,154.12,239.69,145,234.49,137.11z M85.47,143.5
				c-3.38-3.95-17.07-17.8-17.61-21.98c1.5-2.41,25.08-13.63,39.25-15.04c-0.19,0.51-5.21,15.02-5.21,23.51
				c0,8.95,4.12,17.04,10.78,22.87c0.97,1.63,2.09,3.25,3.35,4.84C101.62,155.86,87.95,146.4,85.47,143.5z M209.16,145.26
				c-13.13,0.68-32.38,7.99-43.12,8.22c1.13-1.9,2.08-4.02,2.86-6.26c3.57-4.98,5.64-10.88,5.64-17.22c0-4.74,1.4-9.24-0.67-13.3
				c11.2,2.57,25.49,8.66,35.72,20.05C210.66,138.41,217.14,144.88,209.16,145.26z"/>
		</g>
		<g>
			<path class="st5" d="M632.06,115.27c-0.08-0.06-64.48-34.98-81.62-34.7c-40.81,0.66-103.23,29.78-120.84,56.54
				c-5.19,7.88-11.72,17.01-11.95,17.81c12.82-3.61,17.73-4.13,27.06-2.64c21.81,3.48,43.57,7.44,65.48,9.83
				c17.18,1.88,30.52,0.99,49.85-0.88c9.52-1.59,17.07-5.48,23.15-8.86C593.67,144.53,625.92,121.99,632.06,115.27z M454.93,145.26
				c-7.97-0.38-1.51-6.85-0.43-8.51c9.83-10.95,23.67-17,34.41-19.74c-1.98,3.97-0.52,8.37-0.52,12.99c0,7.6,2.98,14.58,7.95,20.08
				c0.53,1.18,1.09,2.33,1.72,3.4C487.3,153.25,468.06,145.95,454.93,145.26z M578.62,143.5c-2.47,2.9-16.14,12.36-30.57,14.21
				c1.89-2.36,3.43-4.78,4.68-7.24c5.18-5.56,8.29-12.7,8.29-20.47c0-7.63-3.63-22.4-4.05-23.51c14.18,1.42,36.54,12.63,38.04,15.04
				C594.47,125.7,582,139.55,578.62,143.5z"/>
		</g>
	</g>
</g>
</svg>
