<?xml version="1.0" encoding="utf-8"?>
<!-- Generator: Adobe Illustrator 23.0.6, SVG Export Plug-In . SVG Version: 6.00 Build 0)  -->
<svg version="1.1" id="Capa_1" xmlns="http://www.w3.org/2000/svg" xmlns:xlink="http://www.w3.org/1999/xlink" x="0px" y="0px"
	 viewBox="0 0 667.26 180.53" enable-background="new 0 0 667.26 180.53" xml:space="preserve">
<g>
	<g>
		<g>
			<path fill-rule="evenodd" clip-rule="evenodd" fill="#674234" d="M527.17,9.81c-16.23-15.13,11.91-6.88,16.21-5.83
				c18.33,4.45,95.71,24.48,115.78,35.69c5.76,3.22,4.12,39.04-0.35,38.2c-26.51-16.92-57.48-22.07-88.46-23.79
				c-17.98-1-36.47,5-54.71,7.92c-26.81,4.29-53.64,8.5-80.39,13.05c-14.23,2.42-48.21,4.56-47.9,3.45
				c3.78-12.93,8-25.75,12.46-38.51c4.01-11.44,18.03-11.17,27.06-13C461,20.07,493.42,16.26,527.17,9.81z"/>
			<path fill-rule="evenodd" clip-rule="evenodd" fill="#674234" d="M376.46,80.45c-0.76-2.07,4.65-29.93,8.59-41.66
				c0.82-2.43,3.83-4.28,5.83-6.39c0.34,2.38,1.54,4.96,0.9,7.11C387.72,52.98,377.28,80.22,376.46,80.45z"/>
		</g>
		<g>
			<g>
				<path fill-rule="evenodd" clip-rule="evenodd" fill="#674234" d="M627.35,158.9c0.61-1.28,0.92-3.47,2-3.83
					c1.43-0.47,19.62,17.14,26.58,25.45C656.48,181.17,627.9,160.78,627.35,158.9z"/>
				<path fill-rule="evenodd" clip-rule="evenodd" fill="#674234" d="M634.29,143.88c-0.82,0.21-1.78-4.23-0.66-4.62
					c10.21-3.63,20.49-7.11,30.84-10.4C665.49,128.54,643.14,141.66,634.29,143.88z"/>
				<path fill-rule="evenodd" clip-rule="evenodd" fill="#674234" d="M641.59,150.03c1.64-0.42,3.45-1.47,4.89-1.17
					c6.97,1.45,13.88,3.18,20.73,5.05C668.48,154.25,642.2,151.12,641.59,150.03z"/>
			</g>
			<g>
				<path fill-rule="evenodd" clip-rule="evenodd" fill="#674234" d="M556.13,112.76c43.01,3.91,64.84,35.6,66,36.79
					c-46.45-25.06-99.63-21.93-184.1-1.59C494.35,117.45,519.51,109.44,556.13,112.76z"/>
			</g>
			<path fill-rule="evenodd" clip-rule="evenodd" fill="#674234" d="M442.01,152.34c47.34,13.67,68.62,17.76,99.87,18.32
				c36.71,0.66,55.95-9.7,56.96-10.07C558.77,167.38,513.53,163.71,442.01,152.34z"/>
		</g>
		<path fill-rule="evenodd" clip-rule="evenodd" fill="#674234" d="M570.15,90.38c-24.62-12.24-71.88-11.96-108.58,17.14
			c-7.51,5.96-20.39,21-19.25,22.19c94.72-83.86,168.37-3.67,170.64-4.4C611.93,123.93,604.93,107.68,570.15,90.38z"/>
	</g>
	<g>
		<g>
			<g>
				<g>
					<path fill-rule="evenodd" clip-rule="evenodd" fill="#674234" d="M39.91,158.9c-0.61-1.28-0.93-3.47-2-3.83
						c-1.43-0.47-19.62,17.14-26.58,25.45C10.78,181.17,39.35,160.78,39.91,158.9z"/>
					<path fill-rule="evenodd" clip-rule="evenodd" fill="#674234" d="M32.96,143.88c0.82,0.21,1.78-4.23,0.66-4.62
						c-10.21-3.63-20.49-7.11-30.84-10.4C1.77,128.54,24.11,141.66,32.96,143.88z"/>
					<path fill-rule="evenodd" clip-rule="evenodd" fill="#674234" d="M25.66,150.03c-1.64-0.42-3.45-1.47-4.89-1.17
						c-6.97,1.45-13.89,3.18-20.73,5.05C-1.22,154.25,25.05,151.12,25.66,150.03z"/>
				</g>
				<g>
					<path fill-rule="evenodd" clip-rule="evenodd" fill="#674234" d="M111.13,112.76c-43.01,3.91-64.84,35.6-66,36.79
						c46.45-25.06,99.63-21.93,184.09-1.59C172.91,117.45,147.74,109.44,111.13,112.76z"/>
				</g>
				<path fill-rule="evenodd" clip-rule="evenodd" fill="#674234" d="M225.25,152.34c-47.33,13.67-68.62,17.76-99.87,18.32
					c-36.71,0.66-55.95-9.7-56.96-10.07C108.48,167.38,153.72,163.71,225.25,152.34z"/>
			</g>
			<path fill-rule="evenodd" clip-rule="evenodd" fill="#674234" d="M97.1,90.38c24.62-12.24,71.88-11.96,108.58,17.14
				c7.5,5.96,20.39,21,19.25,22.19c-94.72-83.86-168.38-3.67-170.64-4.4C55.33,123.93,62.32,107.68,97.1,90.38z"/>
		</g>
		<g>
			<path fill-rule="evenodd" clip-rule="evenodd" fill="#674234" d="M138.09,9.63c19.72-16.65-11.9-6.88-16.21-5.83
				C103.55,8.25,26.17,28.27,6.11,39.49c-5.77,3.22-4.12,39.04,0.35,38.19C32.97,60.77,63.93,55.61,94.92,53.9
				c17.99-1,36.47,4.99,54.72,7.92c26.81,4.3,53.63,8.5,80.38,13.06c14.23,2.42,48.22,4.56,47.88,3.45
				c-3.77-12.93-7.99-25.75-12.46-38.5c-4-11.44-18.03-11.17-27.05-13C204.27,19.89,171.85,16.08,138.09,9.63z"/>
			<path fill-rule="evenodd" clip-rule="evenodd" fill="#674234" d="M288.8,80.28c0.76-2.07-4.65-29.94-8.6-41.67
				c-0.82-2.43-3.83-4.27-5.83-6.39c-0.34,2.38-1.54,4.97-0.89,7.12C277.54,52.8,287.98,80.04,288.8,80.28z"/>
		</g>
	</g>
</g>
</svg>
