<?xml version="1.0" encoding="utf-8"?>
<!-- Generator: Adobe Illustrator 23.0.6, SVG Export Plug-In . SVG Version: 6.00 Build 0)  -->
<svg version="1.1" id="Capa_1" xmlns="http://www.w3.org/2000/svg" xmlns:xlink="http://www.w3.org/1999/xlink" x="0px" y="0px"
	 viewBox="0 0 745.19 229.81" style="enable-background:new 0 0 745.19 229.81;" xml:space="preserve">
<style type="text/css">
	.st0{fill-rule:evenodd;clip-rule:evenodd;fill:#37333D;}
	.st1{fill:#37333D;}
	.st2{fill-rule:evenodd;clip-rule:evenodd;fill:#2D4B5E;}
	.st3{fill-rule:evenodd;clip-rule:evenodd;fill:#CF8362;}
	.st4{fill-rule:evenodd;clip-rule:evenodd;fill:#325568;}
	.st5{fill:#674234;}
	.st6{fill-rule:evenodd;clip-rule:evenodd;fill:#674234;}
	.st7{fill-rule:evenodd;clip-rule:evenodd;fill:#AC5F4A;}
	.st8{fill:#FC2B0E;}
	.st9{fill:#FF3F20;}
	.st10{fill:#CC1305;}
	.st11{fill:#E02008;}
	.st12{fill:#EC1C24;}
</style>
<g>
	<g>
		<g>
			<g>
				<path class="st6" d="M674.82,212.37c-33.76,18.97-70.59,20.7-108.13,13.58c-20.78-3.94-63.49-17.6-64.5-18.6
					c2.2-0.52,30.67,6.47,43.08,8.93c45.45,9,90.64,13.67,132.1-12.67c2.77-1.76,5.32-3.81,7.96-5.73
					C686.44,198.73,680.1,209.4,674.82,212.37z"/>
				<path class="st6" d="M692.48,199.64c0.61-1.32,0.92-3.58,2.01-3.94c1.43-0.49,19.64,17.65,26.61,26.21
					C721.65,222.58,693.04,201.58,692.48,199.64z"/>
				<path class="st6" d="M699.42,184.17c-0.81,0.21-1.77-4.35-0.66-4.76c10.22-3.74,20.52-7.32,30.89-10.71
					C730.67,168.37,708.29,181.88,699.42,184.17z"/>
				<path class="st6" d="M706.74,190.5c1.64-0.44,3.45-1.52,4.9-1.2c6.98,1.5,13.9,3.27,20.75,5.2
					C733.66,194.85,707.35,191.63,706.74,190.5z"/>
			</g>
			<g>
				<g>
					<g>
						<path class="st5" d="M493.07,195.47c-0.02,0.01-0.04,0.01-0.06,0.02C489.46,196.73,491.19,196.13,493.07,195.47z"/>
						<path class="st5" d="M617.02,122.75c-20-6.35-49.73-12.01-72.97-3.52c-20.84,7.61-31.67,19-42.84,34.56
							c-3.48,4.86-26.4,39.64-8.2,34.41c4.35-1.25,2.12-0.61,0.06-0.01c19.38-5.55,35.39,3.8,54.74,6.25
							c17.52,2.21,33.64,5.86,61.97,1.45c14.67-2.28,64.51-17.14,69.45-19.47C688.08,172.24,641.74,130.6,617.02,122.75z
							 M495.5,180.79c-5.11,0.42,6.16-16.18,9.57-10.43c1.79,3.02,0.87,1.35,2.27,3.75C510.76,179.98,505.8,179.96,495.5,180.79z
							 M645.88,178.95c-29.02,15.97-77.72,14.11-110.26,7.74c-2.32-0.23-30.75-7.06-25.24-17.5c5.73-10.83,18.86-19.91,31.72-25.05
							c24.05-9.62,53.39-8.31,76.45,1.57C629.7,150.5,667.18,167.24,645.88,178.95z"/>
					</g>
					<path class="st6" d="M622.46,163.2c-4.39,21.47-26.75,35.58-49.92,31.51c-23.18-4.07-38.41-24.78-34.02-46.25
						c4.39-21.48,26.74-35.58,49.93-31.51C611.63,121.02,626.86,141.73,622.46,163.2z M597.19,136.48
						c-7.1-1.25-13.95,3.08-15.3,9.66c-1.35,6.58,3.32,12.92,10.42,14.17c7.1,1.24,13.95-3.08,15.3-9.66
						C608.96,144.07,604.29,137.73,597.19,136.48z M583.68,171.12c-15.84,0.24-28.8-6.25-28.63,3.1
						c0.17,9.36,13.14,16.75,28.97,16.51c15.84-0.24,28.54-8.02,28.37-17.38C612.23,163.99,599.51,170.88,583.68,171.12z"/>
				</g>
				<path class="st6" d="M531.49,102.22c-8.03,5.43-15.44,11.92-22.78,18.39c-4.36,3.84-18.65,18.07-21.36,22.97
					c-0.86,1.56,15.33-14.86,22.81-20.64c7.74-5.98,9.28-7.87,18.61-13.9c16.31-10.54,37.46-18.12,56.58-18.44
					c17.69-0.3,27.48,3.8,47.74,15.95c7.91,4.74,22.2,15.11,36.53,25.53c2.48,1.81-29.38-26.13-33.44-29.15
					c-21.48-15.96-36.92-20.85-52.96-19.91C560.02,84.39,547.27,91.53,531.49,102.22z"/>
			</g>
		</g>
		<g>
			<g>
				<g>
					<g>
						<path class="st5" d="M250.52,153.79c-11.16-15.56-22-26.95-42.84-34.56c-23.23-8.48-52.97-2.82-72.96,3.52
							c-24.72,7.85-71.06,49.48-62.21,53.66c4.94,2.33,54.78,17.19,69.44,19.47c28.33,4.4,44.46,0.76,61.98-1.45
							c19.36-2.44,35.37-11.8,54.75-6.24c-2.06-0.59-4.31-1.24,0.04,0.01C276.93,193.43,254.01,158.64,250.52,153.79z
							 M216.13,186.69c-32.54,6.37-81.24,8.23-110.26-7.74c-21.3-11.71,16.17-28.45,27.33-33.24c23.06-9.88,52.4-11.18,76.45-1.57
							c12.85,5.14,25.99,14.22,31.71,25.05C246.88,179.62,218.45,186.46,216.13,186.69z M256.24,180.79
							c-10.3-0.83-15.26-0.81-11.83-6.69c1.4-2.4,0.47-0.73,2.26-3.75C250.08,164.6,261.35,181.21,256.24,180.79z"/>
						<path class="st5" d="M258.73,188.19c-0.01,0-0.02-0.01-0.04-0.01C260.56,188.72,262.27,189.21,258.73,188.19z"/>
					</g>
					<path class="st6" d="M163.29,116.95c23.18-4.07,45.53,10.04,49.93,31.51c4.39,21.47-10.84,42.18-34.02,46.25
						c-23.18,4.07-45.53-10.04-49.93-31.51C124.88,141.73,140.12,121.02,163.29,116.95z M173.76,150.65
						c1.35,6.58,8.2,10.9,15.3,9.66c7.11-1.25,11.77-7.59,10.43-14.17c-1.35-6.58-8.2-10.91-15.3-9.66
						C177.09,137.73,172.41,144.07,173.76,150.65z M139.34,173.35c-0.17,9.36,12.54,17.13,28.37,17.38
						c15.84,0.24,28.81-7.15,28.97-16.51c0.17-9.36-12.79-2.86-28.63-3.1C152.22,170.88,139.51,163.99,139.34,173.35z"/>
				</g>
				<path class="st6" d="M220.25,102.22c8.03,5.43,15.44,11.92,22.78,18.39c4.36,3.84,18.66,18.07,21.36,22.97
					c0.86,1.56-15.33-14.86-22.81-20.64c-7.74-5.98-9.28-7.87-18.61-13.9C206.66,98.5,185.5,90.92,166.39,90.6
					c-17.7-0.3-27.49,3.8-47.74,15.95c-7.9,4.74-22.2,15.11-36.53,25.53c-2.48,1.81,29.38-26.13,33.44-29.15
					c21.48-15.96,36.92-20.85,52.96-19.91C191.72,84.39,204.47,91.53,220.25,102.22z"/>
			</g>
			<g>
				<path class="st6" d="M70.37,212.37c33.75,18.97,70.58,20.7,108.13,13.58c20.78-3.94,63.49-17.6,64.5-18.6
					c-2.2-0.52-30.67,6.47-43.08,8.93c-45.45,9-90.64,13.67-132.1-12.67c-2.77-1.76-5.32-3.81-7.97-5.73
					C58.75,198.73,65.08,209.4,70.37,212.37z"/>
				<path class="st6" d="M52.71,199.64c-0.61-1.32-0.92-3.58-2-3.94c-1.43-0.49-19.65,17.65-26.62,26.21
					C23.54,222.58,52.15,201.58,52.71,199.64z"/>
				<path class="st6" d="M45.76,184.17c0.81,0.21,1.77-4.35,0.66-4.76c-10.22-3.74-20.51-7.32-30.88-10.71
					C14.52,168.37,36.89,181.88,45.76,184.17z"/>
				<path class="st6" d="M38.45,190.5c-1.64-0.44-3.45-1.52-4.9-1.2c-6.98,1.5-13.9,3.27-20.76,5.2
					C11.52,194.85,37.84,191.63,38.45,190.5z"/>
			</g>
		</g>
	</g>
	<g>
		<g>
			<path class="st5" d="M249.8,41.82c-21.06-27.32-55.82-21.38-82.24-30.06c-25.41-8.35-48.53-18.61-74.23-5.52
				C44.55,31.06,23.52,78.97,0,137.02c53.48-15.03,80.26-55.8,138.33-56.92c48.8-0.94,95.15,32.86,143.86,27.1
				c1.12-36.71-21.63-47.12-30.36-77.36C249.55,33.25,248.87,37.25,249.8,41.82z"/>
			<path class="st5" d="M299.66,62.58c-3.32,8.18-4.12,16.87-2.41,26.07c-3.97-11.62-1.33-31.77-9.32-40.71
				c5.33,18.78,5,46.99-0.72,65.54C302.62,103.53,302.22,89.06,299.66,62.58z"/>
			<path class="st5" d="M305.06,73.48c-1.64,13.54-6.14,33.37-3.89,44.97C307.99,111.38,309.92,88.33,305.06,73.48z"/>
			<path class="st5" d="M307.31,119.89l17.11-11.84C316.81,101.38,311.92,115.89,307.31,119.89z"/>
		</g>
		<g>
			<path class="st5" d="M651.86,6.25c-25.7-13.09-48.82-2.83-74.22,5.52c-26.42,8.68-61.18,2.73-82.25,30.06
				c0.93-4.58,0.25-8.57-2.03-11.99c-8.73,30.24-31.48,40.65-30.36,77.36c48.72,5.75,95.06-28.05,143.86-27.1
				c58.07,1.13,84.86,41.89,138.33,56.92C721.67,78.97,700.64,31.06,651.86,6.25z"/>
			<path class="st5" d="M457.25,47.94c-7.98,8.93-5.35,29.09-9.32,40.71c1.71-9.2,0.91-17.88-2.41-26.07
				c-2.57,26.49-2.96,40.95,12.45,50.9C452.25,94.93,451.92,66.72,457.25,47.94z"/>
			<path class="st5" d="M444.01,118.45c2.26-11.6-2.25-31.44-3.89-44.97C435.27,88.33,437.2,111.38,444.01,118.45z"/>
			<path class="st5" d="M420.77,108.05l17.11,11.84C433.27,115.89,428.38,101.38,420.77,108.05z"/>
		</g>
	</g>
</g>
</svg>
