<?xml version="1.0" encoding="utf-8"?>
<!-- Generator: Adobe Illustrator 23.0.6, SVG Export Plug-In . SVG Version: 6.00 Build 0)  -->
<svg version="1.1" id="Capa_1" xmlns="http://www.w3.org/2000/svg" xmlns:xlink="http://www.w3.org/1999/xlink" x="0px" y="0px"
	 viewBox="0 0 721.33 186.4" style="enable-background:new 0 0 721.33 186.4;" xml:space="preserve">
<style type="text/css">
	.st0{fill-rule:evenodd;clip-rule:evenodd;fill:#37333D;}
	.st1{fill:#37333D;}
	.st2{fill-rule:evenodd;clip-rule:evenodd;fill:#2D4B5E;}
	.st3{fill-rule:evenodd;clip-rule:evenodd;fill:#CF8362;}
	.st4{fill-rule:evenodd;clip-rule:evenodd;fill:#325568;}
	.st5{fill:#674234;}
	.st6{fill-rule:evenodd;clip-rule:evenodd;fill:#674234;}
	.st7{fill-rule:evenodd;clip-rule:evenodd;fill:#AC5F4A;}
	.st8{fill:#FC2B0E;}
	.st9{fill:#FF3F20;}
	.st10{fill:#CC1305;}
	.st11{fill:#E02008;}
	.st12{fill:#EC1C24;}
</style>
<g>
	<g>
		<g>
			<path class="st0" d="M661.59,167.7c0,0-129.9,48.85-198.83-59.21c0,0,156.44,88.25,207.83,6.11c0,0,19.4,24.47,33.45,71.8
				C704.04,186.4,682.82,160.62,661.59,167.7z"/>
			<path class="st0" d="M59.74,167.7c-21.23-7.08-42.46,18.7-42.46,18.7c14.05-47.32,33.46-71.8,33.46-71.8
				c51.39,82.13,207.84-6.11,207.84-6.11C189.64,216.55,59.74,167.7,59.74,167.7z"/>
		</g>
	</g>
	<g>
		<g>
			<path class="st1" d="M93.88,6.41C46.18,21.64,20.96,53.12,0,79.32c54.06-27.35,64.83-38.28,122.86-44.78
				c48.77-5.46,108.02-5.24,158.82-1.22C270.32,17.95,265.54,14.43,253.66,0C205.94,0.99,119.01-1.62,93.88,6.41z"/>
		</g>
		<g>
			<path class="st1" d="M627.58,8.02c47.67,15.32,72.83,46.85,93.75,73.09c-54.01-27.45-64.76-38.4-122.78-45.01
				c-48.75-5.56-108.01-5.45-158.82-1.53c11.39-15.35,16.19-18.86,28.09-33.27C515.54,2.4,602.46-0.06,627.58,8.02z"/>
		</g>
	</g>
</g>
</svg>
