<?xml version="1.0" encoding="utf-8"?>
<!-- Generator: Adobe Illustrator 23.0.6, SVG Export Plug-In . SVG Version: 6.00 Build 0)  -->
<svg version="1.1" id="Capa_1" xmlns="http://www.w3.org/2000/svg" xmlns:xlink="http://www.w3.org/1999/xlink" x="0px" y="0px"
	 viewBox="0 0 679.39 208.26" style="enable-background:new 0 0 679.39 208.26;" xml:space="preserve">
<style type="text/css">
	.st0{fill-rule:evenodd;clip-rule:evenodd;fill:#37333D;}
	.st1{fill:#37333D;}
	.st2{fill-rule:evenodd;clip-rule:evenodd;fill:#2D4B5E;}
	.st3{fill-rule:evenodd;clip-rule:evenodd;fill:#CF8362;}
	.st4{fill-rule:evenodd;clip-rule:evenodd;fill:#325568;}
	.st5{fill:#674234;}
	.st6{fill-rule:evenodd;clip-rule:evenodd;fill:#674234;}
	.st7{fill-rule:evenodd;clip-rule:evenodd;fill:#AC5F4A;}
	.st8{fill:#FC2B0E;}
	.st9{fill:#FF3F20;}
	.st10{fill:#CC1305;}
	.st11{fill:#E02008;}
	.st12{fill:#EC1C24;}
</style>
<g>
	<g>
		<g>
			<path class="st6" d="M172.66,172.87c0,19.54-15.84,35.39-35.38,35.39c-19.54,0-35.39-15.84-35.39-35.39
				c0-19.54,15.85-29.03,35.39-29.03C156.82,143.84,172.66,153.33,172.66,172.87z"/>
			<path class="st6" d="M208.69,152.26c-35.74-31.44-68.59-33.69-105.76-21.59c-41.3,13.44-58.55,45.81-59.56,47.31
				c2.21,0.79,100.46-74.33,184.08-1.73C228.55,174.96,216.01,158.7,208.69,152.26z"/>
			<path class="st7" d="M172.07,113.98c-24.78-12.32-72.34-12.04-109.27,17.25c-7.55,5.99-20.52,21.14-19.38,22.33
				c95.33-84.4,169.46-3.7,171.74-4.43C214.11,147.75,207.07,131.39,172.07,113.98z"/>
		</g>
		<g>
			<path class="st6" d="M577.89,172.87c0,19.54-15.84,35.39-35.38,35.39c-19.54,0-35.38-15.84-35.38-35.39
				c0-19.54,15.84-29.03,35.38-29.03C562.05,143.84,577.89,153.33,577.89,172.87z"/>
			<path class="st6" d="M576.46,130.67c-37.18-12.1-70.02-9.86-105.76,21.59c-7.31,6.43-19.85,22.7-18.75,23.98
				c83.61-72.6,181.87,2.52,184.07,1.73C635,176.48,617.76,144.11,576.46,130.67z"/>
			<path class="st7" d="M507.31,113.98c24.79-12.32,72.35-12.04,109.28,17.25c7.56,5.99,20.52,21.14,19.38,22.33
				c-95.34-84.4-169.46-3.7-171.74-4.43C465.28,147.75,472.32,131.39,507.31,113.98z"/>
		</g>
	</g>
	<g>
		<path class="st6" d="M230.91,3.9c-6.45-1.43-13.08-2.11-19.66-2.65c-18.78-1.57-37.72-1.49-56.53-0.67
			c-37.84,1.65-65.31,5.56-101.6,16.58C43.76,20,36.99,29.97,32.11,37.86C25.6,48.38-0.96,91.85,0.03,101.76
			c0.58,5.85,3.8,8.73,9.01,4.66c11.14-8.7,27.21-23.54,38.37-32.44c7.6-6.06,12.09-10.28,21.92-11.94
			c43.77-7.4,89.68-9.09,134.71-7.28c14.36,0.58,28.7,1.57,43.01,2.91c5.63,0.52,16.21,2.58,17.26,1.52
			c4.14-4.18-12.26-38.93-23.88-51.56C238.25,5.27,234.02,4.58,230.91,3.9z"/>
		<path class="st6" d="M651.71,36.12c-4.59-7.23-11.04-16.26-19.84-18.43C594.35,8.48,563.18,3.81,524.5,1.79
			c-19.24-1-38.63-1.34-57.87,0.09c-7.49,0.55-22.09,0.09-27.46,5.79c-11.63,12.35-28.03,47.38-23.9,51.55
			c0.98,0.98,10.74-0.88,15.95-1.35c15-1.37,30.03-2.4,45.08-2.96c45.28-1.69,91.41,0.13,135.47,7.62
			c8.65,1.47,22.15,4.3,28.74,9.74c11.38,9.4,17.1,24.65,28.56,33.82c5.6,4.48,9.44,1.83,10.28-4.72
			C680.61,91.44,658.53,46.87,651.71,36.12z"/>
	</g>
</g>
</svg>
