<?xml version="1.0" encoding="utf-8"?>
<!-- Generator: Adobe Illustrator 23.0.6, SVG Export Plug-In . SVG Version: 6.00 Build 0)  -->
<svg version="1.1" id="Capa_1" xmlns="http://www.w3.org/2000/svg" xmlns:xlink="http://www.w3.org/1999/xlink" x="0px" y="0px"
	 viewBox="0 0 698.48 162.1" style="enable-background:new 0 0 698.48 162.1;" xml:space="preserve">
<style type="text/css">
	.st0{fill-rule:evenodd;clip-rule:evenodd;fill:#37333D;}
	.st1{fill:#37333D;}
	.st2{fill-rule:evenodd;clip-rule:evenodd;fill:#2D4B5E;}
	.st3{fill-rule:evenodd;clip-rule:evenodd;fill:#CF8362;}
	.st4{fill-rule:evenodd;clip-rule:evenodd;fill:#325568;}
	.st5{fill:#674234;}
	.st6{fill-rule:evenodd;clip-rule:evenodd;fill:#674234;}
	.st7{fill-rule:evenodd;clip-rule:evenodd;fill:#AC5F4A;}
	.st8{fill:#FC2B0E;}
	.st9{fill:#FF3F20;}
	.st10{fill:#CC1305;}
	.st11{fill:#E02008;}
	.st12{fill:#EC1C24;}
</style>
<g>
	<path class="st5" d="M527.37,160.92c16.2,1.3,34.12,1.73,52.27,0.28c6.55-5.64,10.59-13.41,10.59-21.99
		c0-17.27-16.37-31.26-36.56-31.26c-20.19,0-36.56,14-36.56,31.26C517.1,147.64,521.02,155.29,527.37,160.92z"/>
	<path class="st6" d="M479.85,126.52c36.01-35.22,69.11-34.28,106.56-20.74c41.63,15.05,59,47.86,60.02,49.53
		c-2.22,0.88-104.18-55.45-185.48-1.94C459.84,151.93,472.49,133.72,479.85,126.52z"/>
	<path class="st6" d="M428.43,37.95c0.31,0.17,44.5-14.65,52.42-17.53C496.6,16.06,574.08-5.99,609.6,1.56
		c25.79,5.48,68.14,44.73,68.47,45.58c-1.14,0.29-9.88-0.57-15.96-1.94c8.93,10.9,35.69,34.91,36.36,37.82
		c-3.09-0.6-6.2-1.1-9.26-1.79c-22.99-5.26-38.45-12.36-61.83-15.38c-28.66-3.69-57.94-5.57-86.89-5.13
		c-16.57,0.25-65.65,7.31-88.35,10.35C433.39,64.95,413.6,50.49,428.43,37.95z"/>
	<path class="st5" d="M122.37,160.9c18.3,1.21,36.76,0.6,53.49-0.79c5.83-5.54,9.38-12.86,9.38-20.9
		c0-17.27-16.37-31.26-36.56-31.26c-20.19,0-36.56,13.99-36.56,31.26C112.12,147.63,116.02,155.28,122.37,160.9z"/>
	<path class="st6" d="M222.49,126.51c-36.01-35.22-69.11-34.28-106.57-20.74c-41.62,15.05-59,47.86-60.02,49.53
		c2.23,0.89,104.19-55.45,185.48-1.94C242.5,151.93,229.86,133.72,222.49,126.51z"/>
	<path class="st6" d="M270.05,37.95c-0.31,0.17-41.39-14.25-52.43-17.53C203.61,16.16,125.38-5.99,89.85,1.56
		C64.07,7.05,21.72,46.3,21.38,47.14c1.14,0.29,9.88-0.57,15.96-1.94C28.41,56.11,0.67,80.11,0,83.02c3.08-0.6,6.2-1.1,9.25-1.79
		c22.99-5.26,38.46-12.36,61.83-15.38c28.66-3.69,57.94-5.57,86.89-5.13c16.57,0.25,69.4,7.5,88.35,10.35
		C258.12,70.96,289.47,55.51,270.05,37.95z"/>
</g>
</svg>
