<?xml version="1.0" encoding="utf-8"?>
<!-- Generator: Adobe Illustrator 23.0.6, SVG Export Plug-In . SVG Version: 6.00 Build 0)  -->
<svg version="1.1" id="Capa_1" xmlns="http://www.w3.org/2000/svg" xmlns:xlink="http://www.w3.org/1999/xlink" x="0px" y="0px"
	 viewBox="0 0 713.02 166.47" style="enable-background:new 0 0 713.02 166.47;" xml:space="preserve">
<style type="text/css">
	.st0{fill-rule:evenodd;clip-rule:evenodd;fill:#37333D;}
	.st1{fill:#37333D;}
	.st2{fill-rule:evenodd;clip-rule:evenodd;fill:#2D4B5E;}
	.st3{fill-rule:evenodd;clip-rule:evenodd;fill:#CF8362;}
	.st4{fill-rule:evenodd;clip-rule:evenodd;fill:#325568;}
	.st5{fill:#674234;}
	.st6{fill-rule:evenodd;clip-rule:evenodd;fill:#674234;}
	.st7{fill-rule:evenodd;clip-rule:evenodd;fill:#AC5F4A;}
	.st8{fill:#FC2B0E;}
	.st9{fill:#FF3F20;}
	.st10{fill:#CC1305;}
	.st11{fill:#E02008;}
	.st12{fill:#EC1C24;}
</style>
<g>
	<g>
		<g>
			<path class="st5" d="M597.34,94.52c-19.14-6.08-47.58-11.49-69.82-3.38c-19.94,7.28-30.3,18.18-40.99,33.07
				c-3.33,4.65-25.27,37.93-7.85,32.92c4.16-1.19,2.02-0.58,0.05-0.01c18.54-5.3,33.86,3.64,52.38,5.97
				c16.76,2.12,32.19,5.61,59.29,1.4c14.04-2.18,61.73-16.41,66.45-18.63C665.33,141.86,620.99,102.02,597.34,94.52z M481.06,150.05
				c-4.89,0.4,5.9-15.49,9.15-9.99c1.72,2.9,0.83,1.29,2.17,3.59C495.67,149.27,490.92,149.25,481.06,150.05z M624.95,148.29
				c-27.77,15.28-74.37,13.5-105.5,7.4c-2.23-0.22-29.43-6.76-24.15-16.74c5.48-10.36,18.05-19.05,30.35-23.97
				c23-9.2,51.08-7.95,73.15,1.5C609.48,121.06,645.33,137.08,624.95,148.29z"/>
			<path class="st6" d="M570,88.97c-22.19-3.9-43.57,9.6-47.77,30.15c-4.2,20.55,10.37,40.36,32.55,44.25
				c22.17,3.9,43.56-9.6,47.77-30.15C606.75,112.67,592.18,92.86,570,88.97z"/>
		</g>
		<g>
			<path class="st5" d="M228.56,124.21c-10.68-14.89-21.05-25.79-40.99-33.07c-22.23-8.12-50.68-2.7-69.81,3.38
				c-23.66,7.51-67.99,47.34-59.52,51.34c4.72,2.22,52.41,16.45,66.44,18.63c27.11,4.21,42.54,0.72,59.3-1.4
				c18.52-2.34,33.84-11.29,52.39-5.97c-1.97-0.56-4.13-1.18,0.04,0.01C253.82,162.14,231.89,128.86,228.56,124.21z M195.65,155.69
				c-31.13,6.09-77.73,7.87-105.51-7.4c-20.38-11.21,15.47-27.23,26.16-31.8c22.07-9.45,50.14-10.7,73.14-1.5
				c12.3,4.92,24.87,13.6,30.35,23.97C225.07,148.93,197.87,155.47,195.65,155.69z M234.03,150.05c-9.86-0.79-14.61-0.78-11.32-6.4
				c1.34-2.3,0.45-0.7,2.16-3.59C228.13,134.56,238.92,150.45,234.03,150.05z"/>
			<path class="st6" d="M192.86,119.12c-4.2-20.55-25.59-34.05-47.77-30.15c-22.18,3.89-36.75,23.71-32.55,44.25
				c4.21,20.55,25.59,34.05,47.78,30.15C182.49,159.48,197.07,139.66,192.86,119.12z"/>
		</g>
	</g>
	<g>
		<g>
			<path class="st5" d="M239.02,27.66c-20.15-18.07-53.41-14.14-78.69-19.88c-24.31-5.52-46.44-12.3-71.02-3.64
				C42.62,20.53,22.5,52.22,0,90.61c51.17-9.94,76.8-36.9,132.36-37.64c46.69-0.63,91.04,21.73,137.66,17.92
				c1.07-24.28-20.7-31.16-29.05-51.16C238.78,21.99,238.13,24.63,239.02,27.66z"/>
		</g>
		<g>
			<path class="st5" d="M623.72,4.13c-24.59-8.66-46.71-1.87-71.02,3.64c-25.28,5.74-58.54,1.81-78.69,19.88
				c0.89-3.03,0.24-5.67-1.94-7.93c-8.35,20-30.12,26.88-29.05,51.16c46.61,3.81,90.95-18.55,137.65-17.92
				c55.56,0.74,81.2,27.7,132.36,37.64C690.52,52.22,670.4,20.53,623.72,4.13z"/>
		</g>
	</g>
</g>
</svg>
