<?xml version="1.0" encoding="utf-8"?>
<!-- Generator: Adobe Illustrator 23.0.6, SVG Export Plug-In . SVG Version: 6.00 Build 0)  -->
<svg version="1.1" id="Capa_1" xmlns="http://www.w3.org/2000/svg" xmlns:xlink="http://www.w3.org/1999/xlink" x="0px" y="0px"
	 viewBox="0 0 744.75 146.91" enable-background="new 0 0 744.75 146.91" xml:space="preserve">
<g>
	<g>
		<path fill-rule="evenodd" clip-rule="evenodd" fill="#37333D" d="M668.02,88.74c0,0-127.62-47.99-195.34,58.17
			c0,0,153.7-86.7,204.19-6c0,0,19.06-24.05,32.86-70.54C709.73,70.37,688.88,95.7,668.02,88.74z"/>
		<path fill-rule="evenodd" clip-rule="evenodd" fill="#37333D" d="M76.73,88.74C55.87,95.7,35.01,70.37,35.01,70.37
			c13.8,46.49,32.87,70.54,32.87,70.54c50.49-80.7,204.2,6,204.2,6C204.35,40.75,76.73,88.74,76.73,88.74z"/>
	</g>
	<g>
		<g>
			<path fill="#37333D" d="M240.2,49.17c-12.01-11.99-39.47-18.88-58.36-27.45C163.67,13.47,147.53,5.3,125.91,2.4
				C84.91-3.12,23.91,9.38,0,32.43c46.36-19.56,104.68-14.25,149.25-0.51c37.44,11.55,67.8,31.28,105.91,41.6
				c6.36-9-9.47-17.13-11.61-26.87C241.29,46.95,240.17,47.79,240.2,49.17z"/>
			<path fill="#37333D" d="M125.91,2.4C128.57,2.75,86.34-2.93,125.91,2.4L125.91,2.4z"/>
			<path fill="#37333D" d="M275.2,66.46c-3.76,1.26-5.68,3.26-5.76,6c-1.3-3.9,3.75-8.35-1.02-12.53
				c1.26,6.03-3.22,13.08-10.38,16.38C271.32,77.52,273.18,73.77,275.2,66.46z"/>
			<path fill="#37333D" d="M277.69,70.52c-3.28,3.02-9.7,6.94-9.72,10.42C274.24,80.8,279.18,75.44,277.69,70.52z"/>
			<path fill="#37333D" d="M272.45,82.79l14.85,1.14C282.48,80.4,276.57,82.88,272.45,82.79z"/>
		</g>
		<g>
			<path fill="#37333D" d="M618.83,2.29C658.4-3.03,616.17,2.65,618.83,2.29L618.83,2.29z"/>
			<path fill="#37333D" d="M618.83,2.29c-21.62,2.91-37.75,11.08-55.92,19.32c-18.89,8.57-46.36,15.47-58.36,27.46
				c0.03-1.38-1.09-2.22-3.35-2.54c-2.14,9.75-17.97,17.87-11.61,26.88c38.11-10.31,68.47-30.05,105.91-41.59
				c44.56-13.74,102.89-19.04,149.24,0.51C720.84,9.28,659.84-3.22,618.83,2.29z"/>
			<path fill="#37333D" d="M476.32,59.82c-4.76,4.19,0.28,8.64-1.02,12.53c-0.07-2.73-1.99-4.74-5.75-6
				c2.01,7.3,3.88,11.06,17.15,9.85C479.54,72.9,475.06,65.85,476.32,59.82z"/>
			<path fill="#37333D" d="M467.06,70.41c-1.48,4.93,3.45,10.28,9.72,10.42C476.76,77.36,470.34,73.43,467.06,70.41z"/>
			<path fill="#37333D" d="M457.45,83.82l14.85-1.14C468.18,82.78,462.26,80.3,457.45,83.82z"/>
		</g>
	</g>
</g>
</svg>
