<?xml version="1.0" encoding="utf-8"?>
<!-- Generator: Adobe Illustrator 23.0.6, SVG Export Plug-In . SVG Version: 6.00 Build 0)  -->
<svg version="1.1" id="Capa_1" xmlns="http://www.w3.org/2000/svg" xmlns:xlink="http://www.w3.org/1999/xlink" x="0px" y="0px"
	 viewBox="0 0 642.39 354.4" style="enable-background:new 0 0 642.39 354.4;" xml:space="preserve">
<style type="text/css">
	.st0{fill-rule:evenodd;clip-rule:evenodd;fill:#37333D;}
	.st1{fill:#37333D;}
	.st2{fill-rule:evenodd;clip-rule:evenodd;fill:#2D4B5E;}
	.st3{fill-rule:evenodd;clip-rule:evenodd;fill:#CF8362;}
	.st4{fill-rule:evenodd;clip-rule:evenodd;fill:#325568;}
	.st5{fill:#674234;}
	.st6{fill-rule:evenodd;clip-rule:evenodd;fill:#674234;}
	.st7{fill-rule:evenodd;clip-rule:evenodd;fill:#AC5F4A;}
	.st8{fill:#FC2B0E;}
	.st9{fill:#FF3F20;}
	.st10{fill:#CC1305;}
	.st11{fill:#E02008;}
	.st12{fill:#EC1C24;}
</style>
<g>
	<g>
		<g>
			<polygon class="st6" points="507.4,354.4 522.5,285.75 537.61,217.1 507.4,217.1 477.19,217.1 492.29,285.75 			"/>
			<polygon class="st6" points="126.87,354.4 141.97,285.75 157.08,217.1 119.72,217.1 96.66,217.1 111.76,285.75 			"/>
		</g>
		<g>
			<polygon class="st6" points="507.4,0 522.5,68.65 537.61,137.3 507.4,137.3 477.19,137.3 492.29,68.65 			"/>
			<polygon class="st6" points="126.87,0 141.97,68.65 157.08,137.3 119.72,137.3 96.66,137.3 111.76,68.65 			"/>
		</g>
	</g>
	<g>
		<g>
			<g>
				<g>
					<path class="st8" d="M541.48,176.73c3.45,16.23-7.73,32.36-24.98,36.03c-17.24,3.67-34.02-6.52-37.47-22.75
						c-3.45-16.23,7.74-32.36,24.98-36.03C521.25,150.31,538.03,160.5,541.48,176.73z"/>
					<path class="st6" d="M444.06,181.92c26.97-24.34,55.34-29.88,88.78-29.83c37.17,0.06,55.53,13.49,56.59,14.15
						c-1.81,0.85-94.93-9.13-158.62,32.69C429.7,198.4,438.54,186.9,444.06,181.92z"/>
				</g>
				<g>
					<path class="st6" d="M584.97,190.44c-23.71,32-55.07,41.13-89.59,38.35c-19.11-1.54-61.68-20.15-62.84-21.32
						C434.29,206.35,588.68,185.43,584.97,190.44z"/>
					<path class="st6" d="M598.45,187.32c0.28-1.28,0.12-3.34,0.99-3.87c1.15-0.69,20.32,12.07,27.97,18.38
						C628.01,202.32,599.3,188.93,598.45,187.32z"/>
					<path class="st6" d="M598.72,177.36c2.54-1.31,5.13-3.76,7.62-3.74c12,0.08,24.02,0.66,35.97,1.52
						C644.51,175.3,600.12,179.04,598.72,177.36z"/>
				</g>
			</g>
			<path class="st6" d="M372.14,192.52c0.35,0.02,35.06-12.25,41.19-16.16c12.73-6.94,75.13-50.3,110.69-55.6
				c25.81-3.85,80.09,7.89,80.73,8.3c-0.93,0.49-9.28,2.39-15.4,3.25c12.48,4.04,46.46,10.99,48.22,12.54
				c-3.06,0.5-6.12,1.06-9.2,1.48c-23.15,3.21-40.13,3.24-62.76,7.9c-27.74,5.71-55.34,12.67-81.72,20.93
				C468.8,179.89,363.47,204.1,372.14,192.52z"/>
		</g>
		<g>
			<g>
				<g>
					<path class="st9" d="M100.24,176.67c-3.45,16.23,7.73,32.36,24.98,36.02c17.24,3.67,34.02-6.52,37.47-22.75
						c3.45-16.23-7.73-32.36-24.98-36.03C120.47,150.25,103.69,160.44,100.24,176.67z"/>
					<path class="st6" d="M197.66,181.86c-26.97-24.34-55.34-29.88-88.78-29.83c-37.16,0.05-55.53,13.49-56.58,14.15
						c1.81,0.85,94.93-9.13,158.61,32.69C212.01,198.35,203.18,186.84,197.66,181.86z"/>
				</g>
				<g>
					<path class="st6" d="M56.44,191.82c23.71,32,55.07,41.13,89.6,38.35c19.11-1.54,61.68-20.15,62.84-21.32
						C207.13,207.73,52.73,186.8,56.44,191.82z"/>
					<path class="st6" d="M43.94,187.41c-0.27-1.28-0.12-3.34-0.99-3.87c-1.14-0.69-20.32,12.07-27.96,18.38
						C14.38,202.41,43.1,189.02,43.94,187.41z"/>
					<path class="st6" d="M43.68,177.45c-2.54-1.31-5.13-3.76-7.62-3.74c-12.01,0.09-24.02,0.66-35.98,1.52
						C-2.12,175.39,42.28,179.13,43.68,177.45z"/>
				</g>
			</g>
			<path class="st6" d="M266.08,192.39c-0.35,0.02-32.37-11.15-41.19-16.16c-11.18-6.41-74.23-50.03-109.79-55.33
				c-25.8-3.84-80.08,7.89-80.72,8.3c0.93,0.49,9.29,2.39,15.4,3.25C37.29,136.5,2.4,143.17,0.65,144.73
				c3.06,0.5,6.12,1.05,9.19,1.48c23.15,3.21,40.13,3.24,62.76,7.89c27.74,5.71,55.34,12.67,81.72,20.93
				C169.42,179.76,276.98,208.24,266.08,192.39z"/>
		</g>
	</g>
</g>
</svg>
