<?xml version="1.0" encoding="utf-8"?>
<!-- Generator: Adobe Illustrator 23.0.6, SVG Export Plug-In . SVG Version: 6.00 Build 0)  -->
<svg version="1.1" id="Capa_1" xmlns="http://www.w3.org/2000/svg" xmlns:xlink="http://www.w3.org/1999/xlink" x="0px" y="0px"
	 viewBox="0 0 680.78 146.23" style="enable-background:new 0 0 680.78 146.23;" xml:space="preserve">
<style type="text/css">
	.st0{fill-rule:evenodd;clip-rule:evenodd;fill:#37333D;}
	.st1{fill:#37333D;}
	.st2{fill-rule:evenodd;clip-rule:evenodd;fill:#2D4B5E;}
	.st3{fill-rule:evenodd;clip-rule:evenodd;fill:#CF8362;}
	.st4{fill-rule:evenodd;clip-rule:evenodd;fill:#325568;}
	.st5{fill:#674234;}
	.st6{fill-rule:evenodd;clip-rule:evenodd;fill:#674234;}
	.st7{fill-rule:evenodd;clip-rule:evenodd;fill:#AC5F4A;}
	.st8{fill:#FC2B0E;}
	.st9{fill:#FF3F20;}
	.st10{fill:#CC1305;}
	.st11{fill:#E02008;}
	.st12{fill:#EC1C24;}
</style>
<g>
	<g>
		<g>
			<path class="st5" d="M228.21,31.32c-19.24-20.46-51-16-75.13-22.51c-23.21-6.25-44.33-13.94-67.81-4.13
				C40.7,23.26,21.49,59.13,0,102.61c48.85-11.26,73.33-41.79,126.38-42.62c44.58-0.71,86.92,24.6,131.43,20.29
				c1.03-27.5-19.76-35.29-27.73-57.94C227.98,24.9,227.36,27.89,228.21,31.32z"/>
		</g>
		<g>
			<path class="st5" d="M595.51,4.68c-23.47-9.8-44.6-2.12-67.8,4.13c-24.14,6.5-55.89,2.05-75.14,22.51
				c0.84-3.43,0.23-6.42-1.86-8.98c-7.98,22.65-28.76,30.44-27.74,57.93c44.5,4.31,86.84-21,131.43-20.29
				c53.04,0.84,77.52,31.37,126.37,42.62C659.3,59.13,640.08,23.26,595.51,4.68z"/>
		</g>
	</g>
	<g>
		<g>
			<path class="st6" d="M550.85,74.87c-37.35-3.17-58.33,2.3-85.37,24.77c-7.32,6.08-16.56,14.38-22.27,22.25
				c-6.41,8.82,8.29,11.64,12.42,12.52c19.8,4.17,38.97,11.02,59.52,11.61c8.92,0.26,18.54,0.42,27.51-0.21
				c9.14-0.63,18.17-1.94,27.49-4c10.09-2.24,20.5-7.29,30.43-10.49c13.74-4.43,24-16.61,24-16.61s-15.16-13.62-23.37-20.71
				C583.19,78.44,566.56,76.2,550.85,74.87z M456.07,130.35c-2.42-0.31-8.39-1.43-9.17-4.79c-0.94-4.09,4.51-8.04,7.61-8.88
				c3.47-0.95,1.93,3.29,2.33,5.26C457.58,125.69,463.2,131.26,456.07,130.35z M592.2,125.02c-20.61,17.65-51.58,18.08-75.31,16.17
				c2.47,0.21,3.7,0.32-1.38-0.11c-10.53-0.92-66.83-4.15-47.94-28.27c7.63-9.73,20.05-15.61,30.71-19.39
				c13.33-4.74,27.25-6.21,40.69-4.44c12.2,1.6,24.86,5.45,35.37,11.72C578.58,103.22,599.29,118.95,592.2,125.02z"/>
			<path class="st6" d="M570.13,107.29c-1.32-19.53-18.39-34.31-38.15-33.01c-19.75,1.3-34.7,18.18-33.39,37.72
				c1.31,19.53,18.4,34.31,38.15,33C556.5,143.7,571.45,126.81,570.13,107.29z"/>
		</g>
		<g>
			<path class="st6" d="M79.57,93.8c-8.22,7.09-23.38,20.71-23.38,20.71s10.26,12.19,24,16.62c9.93,3.2,20.34,8.25,30.43,10.49
				c9.33,2.07,18.34,3.37,27.49,4c8.97,0.62,18.58,0.46,27.51,0.21c20.55-0.59,39.71-7.43,59.52-11.6
				c4.13-0.88,18.82-3.69,12.42-12.52c-5.71-7.87-14.95-16.17-22.27-22.25c-27.03-22.46-48.01-27.94-85.37-24.77
				C114.21,76.02,97.58,78.25,79.57,93.8z M223.94,121.76c0.4-1.97-1.14-6.21,2.33-5.27c3.09,0.85,8.55,4.8,7.6,8.89
				c-0.78,3.35-6.75,4.48-9.17,4.79C217.58,131.08,223.2,125.51,223.94,121.76z M106.43,100.51c10.5-6.27,23.16-10.12,35.37-11.72
				c13.44-1.77,27.36-0.3,40.69,4.44c10.66,3.79,23.08,9.66,30.7,19.39c18.9,24.12-37.4,27.35-47.93,28.27
				c-5.08,0.43-3.84,0.33-1.38,0.11c-23.73,1.92-54.7,1.49-75.31-16.17C81.49,118.77,102.2,103.04,106.43,100.51z"/>
			<path class="st6" d="M148.79,74.09c-19.76-1.3-36.84,13.48-38.15,33c-1.32,19.53,13.63,36.42,33.39,37.72
				c19.76,1.29,36.83-13.48,38.15-33.01C183.5,92.28,168.55,75.4,148.79,74.09z"/>
		</g>
	</g>
</g>
</svg>
