<?xml version="1.0" encoding="utf-8"?>
<!-- Generator: Adobe Illustrator 23.0.6, SVG Export Plug-In . SVG Version: 6.00 Build 0)  -->
<svg version="1.1" id="Capa_1" xmlns="http://www.w3.org/2000/svg" xmlns:xlink="http://www.w3.org/1999/xlink" x="0px" y="0px"
	 viewBox="0 0 712.49 172.74" enable-background="new 0 0 712.49 172.74" xml:space="preserve">
<g>
	<g>
		<g>
			<path fill-rule="evenodd" clip-rule="evenodd" fill="#674234" d="M146.38,11.71c21.26-20.26-12.85-8.37-17.49-7.1
				C109.11,10.03,25.64,34.4,3.99,48.05c-6.22,3.92-4.44,47.5,0.38,46.47c28.61-20.58,62-26.86,95.43-28.95
				c19.4-1.21,39.34,6.08,59.02,9.64c28.92,5.23,57.86,10.34,86.72,15.88c15.35,2.95,52.02,5.55,51.66,4.19
				c-4.07-15.73-8.62-31.33-13.44-46.85c-4.32-13.92-19.45-13.59-29.19-15.82C217.77,24.2,182.79,19.56,146.38,11.71z"/>
			<path fill-rule="evenodd" clip-rule="evenodd" fill="#674234" d="M308.97,97.67c0.81-2.52-5.02-36.42-9.27-50.7
				c-0.88-2.96-4.13-5.2-6.29-7.77c-0.37,2.9-1.66,6.05-0.96,8.66C296.81,64.24,308.07,97.38,308.97,97.67z"/>
		</g>
		<g>
			<path fill-rule="evenodd" clip-rule="evenodd" fill="#674234" d="M566.11,11.93c-17.51-18.42,12.85-8.37,17.49-7.1
				c19.77,5.41,103.25,29.78,124.9,43.43c6.22,3.92,4.44,47.5-0.38,46.48c-28.6-20.58-62.01-26.86-95.43-28.95
				c-19.4-1.21-39.34,6.08-59.02,9.64c-28.92,5.23-57.86,10.34-86.72,15.88c-15.35,2.95-52.01,5.55-51.66,4.19
				c4.07-15.73,8.63-31.33,13.44-46.85c4.33-13.92,19.45-13.59,29.19-15.82C494.72,24.42,529.69,19.78,566.11,11.93z"/>
			<path fill-rule="evenodd" clip-rule="evenodd" fill="#674234" d="M403.52,97.89c-0.81-2.52,5.02-36.42,9.27-50.7
				c0.88-2.96,4.13-5.2,6.28-7.77c0.37,2.9,1.67,6.05,0.97,8.66C415.67,64.46,404.41,97.6,403.52,97.89z"/>
		</g>
	</g>
	<g>
		<path fill="#674234" d="M448.61,160.83c13.83-3.41,19.13,0.21,29.2,1.62c23.53,3.3,47.02,7.04,70.66,9.31
			c18.54,1.78,32.93,0.94,53.79-0.84c10.27-1.5,18.42-5.18,24.98-8.39c11.32-7.43,35.38-26.01,48.93-14.26
			c-8.14-11.35-16.34-11.13-24.68-16.39c12.59-2.81,27.12-6.22,39.71-9.03c-0.03-0.83-19.9-0.14-29.82,1.02
			c-0.42-0.98,11.98-3.31,18.6-9.67c-0.1-0.06-22.81-19.25-32.67-21.46c-18.44-4.14-36.91-11.64-55.4-11.38
			c-44.05,0.62-111.4,28.19-130.4,53.52C455.91,142.34,448.86,160.07,448.61,160.83z M562.87,140.29c-1.98,0.38-5.53,0.58-9.18,0.48
			c-7.83-0.23-15.47-4.83-17.3-10.85c-2.78-9.1,4.6-20.12,9.58-11.78c3.31,5.55-2.38,11.28,6.05,14.97
			c5.44,2.38,11.38,1.52,15.96-1.62c3.13-2.15,5.75-6.61,8.65-9.03C577.26,123.13,575.39,137.87,562.87,140.29z M609.92,139.6
			c-10.08,2.88-16.89,4.12-32.44,5.86c13.61-14.91,16.17-23.35,9.36-39.57c15.29,1.34,23.66,3.74,34.17,8.32
			c1.9,0.83,6.87,3.64,8.49,5.92c-0.58,3.96-3.53,8.15-7.18,11.89C619.65,134.75,613.66,138.53,609.92,139.6z M492.86,149.72
			c50.03,3.17,77.04,5.28,117.73-1.8c6.76-1.99,9.11,2.6,3.43,6c-9.73,6.79-11.76,6.05-21.91,8.8c-25.23,2.86-39.05,0.56-61.51-3.08
			C512.36,156.67,512.77,156.46,492.86,149.72z M488.38,134.53c11.33-11.08,23.29-16.86,35.74-19.18c-2.96,8.9-2.03,18.39,4.7,28.33
			c-11.6-0.22-25.8-0.44-39.96-1.09C480.24,142.23,487.22,136.1,488.38,134.53z"/>
		<path fill="#674234" d="M250.97,134.88c-19.01-25.33-86.35-52.9-130.4-53.52c-18.5-0.26-36.96,7.24-55.41,11.38
			c-9.85,2.21-32.57,21.41-32.66,21.46c6.62,6.36,19.02,8.69,18.6,9.67c-9.91-1.17-29.79-1.85-29.81-1.02
			c12.59,2.81,27.12,6.22,39.71,9.03c-8.34,5.26-16.54,5.04-24.69,16.39c13.55-11.75,37.62,6.83,48.94,14.26
			c6.55,3.21,14.71,6.88,24.97,8.39c20.86,1.78,35.26,2.62,53.8,0.84c23.64-2.27,47.13-6.01,70.66-9.31
			c10.07-1.41,15.37-5.03,29.19-1.62C263.62,160.07,256.58,142.34,250.97,134.88z M135.87,122.45c2.89,2.42,5.51,6.87,8.65,9.03
			c4.57,3.14,10.52,4,15.96,1.62c8.43-3.68,2.73-9.41,6.04-14.97c4.98-8.34,12.37,2.68,9.59,11.78
			c-1.83,6.02-9.47,10.62-17.31,10.85c-3.65,0.11-7.21-0.1-9.17-0.48C137.09,137.87,135.23,123.13,135.87,122.45z M90.17,132.01
			c-3.65-3.74-6.6-7.93-7.17-11.89c1.62-2.28,6.58-5.09,8.48-5.92c10.5-4.57,18.87-6.97,34.17-8.32
			c-6.8,16.23-4.25,24.66,9.36,39.57c-15.56-1.74-22.36-2.98-32.44-5.86C98.83,138.53,92.84,134.75,90.17,132.01z M181.89,159.63
			c-22.46,3.65-36.28,5.94-61.52,3.08c-10.15-2.75-12.18-2-21.91-8.8c-5.67-3.39-3.33-7.99,3.43-6c40.69,7.08,67.71,4.96,117.73,1.8
			C199.71,156.46,200.13,156.67,181.89,159.63z M223.64,142.59c-14.17,0.65-28.37,0.87-39.96,1.09c6.73-9.93,7.66-19.43,4.7-28.33
			c12.44,2.32,24.4,8.1,35.73,19.18C225.27,136.1,232.25,142.23,223.64,142.59z"/>
	</g>
</g>
</svg>
