<?xml version="1.0" encoding="utf-8"?>
<!-- Generator: Adobe Illustrator 23.0.6, SVG Export Plug-In . SVG Version: 6.00 Build 0)  -->
<svg version="1.1" id="Capa_1" xmlns="http://www.w3.org/2000/svg" xmlns:xlink="http://www.w3.org/1999/xlink" x="0px" y="0px"
	 viewBox="0 0 739.68 163.94" style="enable-background:new 0 0 739.68 163.94;" xml:space="preserve">
<style type="text/css">
	.st0{fill-rule:evenodd;clip-rule:evenodd;fill:#37333D;}
	.st1{fill:#37333D;}
	.st2{fill-rule:evenodd;clip-rule:evenodd;fill:#2D4B5E;}
	.st3{fill-rule:evenodd;clip-rule:evenodd;fill:#CF8362;}
	.st4{fill-rule:evenodd;clip-rule:evenodd;fill:#325568;}
	.st5{fill:#674234;}
	.st6{fill-rule:evenodd;clip-rule:evenodd;fill:#674234;}
	.st7{fill-rule:evenodd;clip-rule:evenodd;fill:#AC5F4A;}
	.st8{fill:#FC2B0E;}
	.st9{fill:#FF3F20;}
	.st10{fill:#CC1305;}
	.st11{fill:#E02008;}
	.st12{fill:#EC1C24;}
</style>
<g>
	<g>
		<g>
			<g>
				<path class="st1" d="M114.43,0.22C63.59-2.19,28.87,15.59,0,30.41c61-5.47,74.98-11.02,132.81,1.71
					c48.6,10.69,105.36,29.26,152.74,48.3c-5.76-16.03-9.17-20.38-15.74-35.81C223.71,30.6,141.21,1.49,114.43,0.22z"/>
			</g>
			<g>
				<path class="st1" d="M259.99,163.71c0.08,0.05,0.12,0.09,0.12,0.09c-0.09-0.16-0.19-0.3-0.29-0.46
					C223.22,79.83,135.9,67.7,81.93,81.81c-34.52,9.02-58.51-19.44-58.51-19.44s-0.05,25.25,17.22,37.8
					C13.12,94.58,4.57,75.88,4.4,78.42c-3.32,49.02,52.55,61.8,52.55,61.8c63.65-69.55,190.98,15.22,202.33,23
					c0.53,0.47,0.8,0.71,0.8,0.71C260.06,163.86,260.02,163.79,259.99,163.71z"/>
			</g>
		</g>
	</g>
	<g>
		<g>
			<g>
				<path class="st1" d="M625.25,0.22c50.84-2.41,85.56,15.37,114.43,30.18c-61-5.47-74.98-11.02-132.82,1.71
					c-48.6,10.69-105.35,29.26-152.73,48.3c5.76-16.03,9.17-20.38,15.74-35.81C515.97,30.6,598.46,1.49,625.25,0.22z"/>
			</g>
			<g>
				<path class="st1" d="M479.69,163.71c-0.08,0.06-0.12,0.09-0.12,0.09c0.1-0.16,0.2-0.3,0.29-0.46
					c36.6-83.51,123.92-95.63,177.89-81.53c34.52,9.02,58.51-19.43,58.51-19.43s0.05,25.25-17.22,37.8
					c27.52-5.59,36.07-24.29,36.24-21.75c3.32,49.01-52.55,61.8-52.55,61.8c-63.65-69.55-190.98,15.22-202.33,23
					c-0.53,0.46-0.8,0.71-0.8,0.71C479.62,163.86,479.66,163.79,479.69,163.71z"/>
			</g>
		</g>
	</g>
</g>
</svg>
