<?xml version="1.0" encoding="utf-8"?>
<!-- Generator: Adobe Illustrator 23.0.6, SVG Export Plug-In . SVG Version: 6.00 Build 0)  -->
<svg version="1.1" id="Capa_1" xmlns="http://www.w3.org/2000/svg" xmlns:xlink="http://www.w3.org/1999/xlink" x="0px" y="0px"
	 viewBox="0 0 657.75 178.6" style="enable-background:new 0 0 657.75 178.6;" xml:space="preserve">
<style type="text/css">
	.st0{fill-rule:evenodd;clip-rule:evenodd;fill:#37333D;}
	.st1{fill:#37333D;}
	.st2{fill-rule:evenodd;clip-rule:evenodd;fill:#2D4B5E;}
	.st3{fill-rule:evenodd;clip-rule:evenodd;fill:#CF8362;}
	.st4{fill-rule:evenodd;clip-rule:evenodd;fill:#325568;}
	.st5{fill:#674234;}
	.st6{fill-rule:evenodd;clip-rule:evenodd;fill:#674234;}
	.st7{fill-rule:evenodd;clip-rule:evenodd;fill:#AC5F4A;}
	.st8{fill:#FC2B0E;}
	.st9{fill:#FF3F20;}
	.st10{fill:#CC1305;}
	.st11{fill:#E02008;}
	.st12{fill:#EC1C24;}
</style>
<g>
	<g>
		<g>
			<path class="st6" d="M519.16,9.7C503.1-5.27,530.94,2.9,535.2,3.94c18.14,4.4,94.69,24.22,114.54,35.31
				c5.7,3.19,4.08,38.62-0.35,37.79C623.16,60.3,592.53,55.2,561.87,53.5c-17.79-0.99-36.08,4.94-54.12,7.84
				c-26.52,4.25-53.07,8.4-79.53,12.91c-14.08,2.4-47.7,4.52-47.39,3.41c3.74-12.79,7.92-25.48,12.33-38.09
				c3.97-11.32,17.83-11.05,26.77-12.86C453.69,19.85,485.77,16.08,519.16,9.7z"/>
			<path class="st6" d="M370.06,79.6c-0.75-2.05,4.6-29.62,8.5-41.22c0.81-2.41,3.79-4.23,5.77-6.32c0.34,2.35,1.52,4.91,0.89,7.04
				C381.2,52.42,370.87,79.36,370.06,79.6z"/>
		</g>
		<g>
			<g>
				<path class="st6" d="M618.27,157.21c0.6-1.27,0.92-3.43,1.98-3.79c1.42-0.46,19.41,16.96,26.29,25.17
					C647.09,179.23,618.82,159.06,618.27,157.21z"/>
				<path class="st6" d="M625.14,142.35c-0.81,0.2-1.76-4.19-0.65-4.57c10.09-3.59,20.27-7.03,30.51-10.29
					C656,127.17,633.9,140.14,625.14,142.35z"/>
				<path class="st6" d="M632.36,148.42c1.62-0.42,3.41-1.45,4.84-1.16c6.9,1.44,13.74,3.14,20.51,4.99
					C658.96,152.6,632.96,149.5,632.36,148.42z"/>
			</g>
			<g>
				<path class="st6" d="M547.81,111.56c42.55,3.87,64.15,35.22,65.3,36.39c-45.96-24.79-98.57-21.69-182.13-1.58
					C486.69,116.2,511.58,108.27,547.81,111.56z"/>
			</g>
			<path class="st6" d="M434.91,150.72c46.83,13.53,67.89,17.57,98.81,18.12c36.32,0.65,55.35-9.6,56.35-9.96
				C550.43,165.59,505.67,161.96,434.91,150.72z"/>
		</g>
		<path class="st6" d="M561.69,89.42c-24.36-12.11-71.11-11.84-107.42,16.95c-7.42,5.89-20.17,20.78-19.04,21.96
			c93.7-82.96,166.57-3.63,168.81-4.36C603.01,122.61,596.09,106.53,561.69,89.42z"/>
	</g>
	<g>
		<g>
			<path class="st6" d="M134.23,9.53c19.5-16.47-11.77-6.8-16.04-5.77C100.06,8.16,23.51,27.97,3.66,39.07
				C-2.04,42.26-0.42,77.69,4,76.86c26.23-16.73,56.86-21.84,87.52-23.53c17.79-0.98,36.08,4.94,54.13,7.84
				c26.52,4.25,53.06,8.41,79.53,12.91c14.08,2.4,47.7,4.51,47.37,3.41c-3.73-12.79-7.9-25.48-12.32-38.09
				c-3.96-11.32-17.84-11.05-26.77-12.86C199.71,19.68,167.63,15.91,134.23,9.53z"/>
			<path class="st6" d="M283.34,79.42c0.75-2.05-4.6-29.62-8.51-41.23c-0.81-2.4-3.78-4.23-5.77-6.32
				c-0.34,2.36-1.52,4.92-0.89,7.04C272.19,52.24,282.53,79.18,283.34,79.42z"/>
		</g>
		<path class="st5" d="M127.47,97.95c-19.61,0-35.5,13.31-35.5,29.73c0,4.23,1.06,8.25,2.96,11.9l65.08,0
			c1.9-3.65,2.96-7.67,2.96-11.9C162.97,111.26,147.07,97.95,127.47,97.95z"/>
		<g>
			<g>
				<path class="st6" d="M197.34,124.06c-35.13-30.92-67.41-33.12-103.96-21.23c-40.6,13.21-57.55,45.04-58.55,46.51
					c2.17,0.78,98.75-73.07,180.94-1.71C216.86,146.37,204.53,130.38,197.34,124.06z"/>
			</g>
		</g>
		<path class="st6" d="M161.35,86.43c-24.36-12.11-71.11-11.84-107.42,16.96c-7.42,5.89-20.17,20.78-19.04,21.95
			c93.71-82.96,166.58-3.63,168.82-4.35C202.67,119.62,195.74,103.54,161.35,86.43z"/>
	</g>
</g>
</svg>
