<?xml version="1.0" encoding="utf-8"?>
<!-- Generator: Adobe Illustrator 23.0.6, SVG Export Plug-In . SVG Version: 6.00 Build 0)  -->
<svg version="1.1" id="Capa_1" xmlns="http://www.w3.org/2000/svg" xmlns:xlink="http://www.w3.org/1999/xlink" x="0px" y="0px"
	 viewBox="0 0 668.57 194.96" enable-background="new 0 0 668.57 194.96" xml:space="preserve">
<g>
	<g>
		<g>
			<g>
				<g>
					<path fill="#CC1305" d="M547.7,144.05c3.36,13.85-7.52,27.63-24.29,30.75c-16.76,3.13-33.07-5.57-36.43-19.42
						c-3.35-13.85,7.52-27.62,24.28-30.75C528.04,121.5,544.35,130.19,547.7,144.05z"/>
					<path fill-rule="evenodd" clip-rule="evenodd" fill="#674234" d="M456.06,150.16c24.97-27.25,51.23-33.45,82.2-33.39
						c34.41,0.06,51.42,15.1,52.39,15.84c-1.67,0.95-87.89-10.22-146.86,36.59C442.76,168.62,450.95,155.74,456.06,150.16z"/>
				</g>
				<g>
					<path fill-rule="evenodd" clip-rule="evenodd" fill="#674234" d="M586.53,162.28c-21.96,26.02-50.99,33.44-82.96,31.18
						c-17.7-1.25-57.11-16.38-58.18-17.33C447.01,175.21,589.96,158.2,586.53,162.28z"/>
				</g>
			</g>
			<path fill-rule="evenodd" clip-rule="evenodd" fill="#674234" d="M389.47,161.69c0.33,0.02,32.46-12.87,38.14-16.98
				c11.79-7.29,69.56-52.86,102.49-58.42c23.89-4.04,74.15,8.29,74.74,8.72c-0.86,0.51-8.59,2.51-14.26,3.42
				c11.55,4.25,43.02,11.55,44.64,13.18c-2.84,0.52-5.66,1.11-8.51,1.56c-21.44,3.38-37.15,3.41-58.11,8.3
				c-25.69,6-51.23,13.32-75.66,22C478.96,148.43,381.44,173.87,389.47,161.69z"/>
		</g>
		<g>
			<g>
				<g>
					<path fill="#E02008" d="M136.27,144c-3.35,13.85,7.52,27.62,24.29,30.75c16.76,3.13,33.07-5.57,36.42-19.42
						c3.36-13.85-7.52-27.62-24.28-30.75C155.94,121.45,139.63,130.15,136.27,144z"/>
					<path fill-rule="evenodd" clip-rule="evenodd" fill="#674234" d="M227.92,150.1c-24.97-27.25-51.23-33.45-82.2-33.39
						c-34.41,0.06-51.42,15.1-52.39,15.84c1.67,0.95,87.9-10.21,146.86,36.59C241.21,168.55,233.03,155.68,227.92,150.1z"/>
				</g>
				<g>
					<path fill-rule="evenodd" clip-rule="evenodd" fill="#674234" d="M97.17,163.39c21.96,26.02,50.99,33.44,82.96,31.18
						c17.69-1.25,57.11-16.38,58.18-17.33C236.69,176.33,93.73,159.32,97.17,163.39z"/>
				</g>
			</g>
			<path fill-rule="evenodd" clip-rule="evenodd" fill="#674234" d="M291.27,161.56c-0.33,0.02-29.97-11.72-38.14-16.98
				c-10.36-6.74-68.73-52.58-101.65-58.14c-23.89-4.04-74.15,8.29-74.74,8.73c0.86,0.51,8.59,2.5,14.25,3.42
				c-11.55,4.25-43.85,11.26-45.47,12.89c2.83,0.52,5.67,1.11,8.51,1.56c21.44,3.37,37.16,3.41,58.1,8.3
				c25.69,6,51.24,13.32,75.66,22C201.77,148.29,301.37,178.22,291.27,161.56z"/>
		</g>
	</g>
	<g>
		<path fill-rule="evenodd" clip-rule="evenodd" fill="#674234" d="M97.04,34.12c75.12-1.34,183.84,77.61,207.25,95.31
			C286.03,110.37,189.14,12.56,113.55,2C29.75-9.72,5.46,31.42,0.68,91.87c-0.34,4.28-0.57,8.54-0.68,12.76
			C5.28,63.22,30.3,35.31,97.04,34.12z"/>
		<path fill-rule="evenodd" clip-rule="evenodd" fill="#674234" d="M572.43,34.12c-74.43-1.34-182.14,77.61-205.34,95.31
			C385.18,110.37,481.17,12.56,556.07,2C639.09-9.72,663.16,31.42,667.9,91.87c0.34,4.28,0.56,8.54,0.67,12.76
			C663.34,63.22,638.56,35.31,572.43,34.12z"/>
	</g>
</g>
</svg>
