<?xml version="1.0" encoding="utf-8"?>
<!-- Generator: Adobe Illustrator 23.0.6, SVG Export Plug-In . SVG Version: 6.00 Build 0)  -->
<svg version="1.1" id="Capa_1" xmlns="http://www.w3.org/2000/svg" xmlns:xlink="http://www.w3.org/1999/xlink" x="0px" y="0px"
	 viewBox="0 0 793.33 172.87" style="enable-background:new 0 0 793.33 172.87;" xml:space="preserve">
<style type="text/css">
	.st0{fill-rule:evenodd;clip-rule:evenodd;fill:#37333D;}
	.st1{fill:#37333D;}
	.st2{fill-rule:evenodd;clip-rule:evenodd;fill:#2D4B5E;}
	.st3{fill-rule:evenodd;clip-rule:evenodd;fill:#CF8362;}
	.st4{fill-rule:evenodd;clip-rule:evenodd;fill:#325568;}
	.st5{fill:#674234;}
	.st6{fill-rule:evenodd;clip-rule:evenodd;fill:#674234;}
	.st7{fill-rule:evenodd;clip-rule:evenodd;fill:#AC5F4A;}
	.st8{fill:#FC2B0E;}
	.st9{fill:#FF3F20;}
	.st10{fill:#CC1305;}
	.st11{fill:#E02008;}
	.st12{fill:#EC1C24;}
</style>
<g>
	<g>
		<g>
			<g>
				<path class="st0" d="M238.31,114.64c8.33,8.77,18.76,20.67,24.72,31.71c6.69,12.38-12.62,14.95-18.07,15.78
					c-26.09,3.97-51.81,11.57-78.23,10.67c-11.48-0.39-23.83-0.98-35.22-2.55c-11.6-1.61-22.94-4.11-34.53-7.66
					c-12.54-3.84-26.29-10.22-37.69-17.02C40.82,134.56,28.81,124,28.81,124s26.87-29.61,38.62-38.46
					c25.74-19.39,47.42-21.01,67.78-21.51C183.62,62.88,207.53,82.23,238.31,114.64z M167.11,166.14
					c13.65-0.35,86.33-0.03,66.25-33.98c-8.1-13.7-23.01-22.63-36.02-28.59c-16.28-7.46-33.85-10.59-51.37-9.34
					c-15.91,1.15-32.78,5.27-47.32,12.82c-5.85,3.04-35.08,22.45-27.04,31.19C95.45,164.14,136.15,166.9,167.11,166.14
					C186.84,165.63,150.31,166.55,167.11,166.14z M257.68,150.99c1.91-5.41-4.4-11.17-8.22-12.56c-4.3-1.56-3.04,4.27-3.89,6.88
					c-1.59,4.97-9.76,11.99-0.46,11.35C248.25,156.44,256.11,155.43,257.68,150.99z"/>
			</g>
			<path class="st0" d="M158.42,77.16c24.45,0,44.27,17.85,44.27,39.86s-19.82,39.86-44.27,39.86c-24.45,0-44.28-17.84-44.28-39.86
				S133.97,77.16,158.42,77.16z M165.28,112.33c0,6.75,6.08,12.21,13.57,12.21c7.49,0,13.57-5.46,13.57-12.21
				c0-6.74-6.07-12.22-13.57-12.22C171.36,100.11,165.28,105.59,165.28,112.33z M125.51,128.81c-2.11,9.23,9.2,19.14,25.27,22.13
				c16.07,2.99,30.83-2.07,32.94-11.3c2.13-9.23-12.43-5.06-28.49-8.04C139.15,128.6,127.63,119.58,125.51,128.81z"/>
		</g>
		<path class="st1" d="M287.03,55.71C249.83,37.38,181.24,5.72,145.72,1.3C98.15-4.61,27.67,9.9,0,38.24
			c53.65-24.05,113.57-24.23,162.73-7.78c71.63,23.98,99.78,45.85,116.29,51.44C291.6,86.18,301.59,62.88,287.03,55.71z"/>
	</g>
	<g>
		<g>
			<g>
				<path class="st0" d="M661.81,64.04c20.36,0.49,42.04,2.11,67.78,21.51c11.74,8.85,38.62,38.46,38.62,38.46
					s-12.01,10.56-30.49,21.57c-11.4,6.8-25.15,13.18-37.69,17.02c-11.59,3.55-22.93,6.05-34.53,7.66
					c-11.39,1.57-23.74,2.16-35.22,2.55c-26.42,0.9-52.15-6.7-78.24-10.67c-5.44-0.82-24.76-3.39-18.07-15.78
					c5.97-11.05,16.39-22.94,24.73-31.71C589.49,82.23,613.4,62.88,661.81,64.04z M629.9,166.14c30.97,0.76,71.66-2,95.5-27.9
					c8.04-8.74-21.19-28.15-27.04-31.19c-14.54-7.54-31.41-11.67-47.32-12.82c-17.53-1.26-35.09,1.87-51.38,9.34
					c-13,5.96-27.91,14.89-36.02,28.59C543.57,166.11,616.26,165.79,629.9,166.14C646.71,166.55,610.18,165.63,629.9,166.14z
					 M551.91,156.66c9.29,0.64,1.13-6.38-0.46-11.35c-0.84-2.61,0.41-8.44-3.89-6.88c-3.82,1.39-10.13,7.15-8.22,12.56
					C540.91,155.43,548.77,156.44,551.91,156.66z"/>
			</g>
			<path class="st0" d="M682.88,117.02c0,22.01-19.83,39.86-44.28,39.86c-24.45,0-44.27-17.84-44.27-39.86s19.82-39.86,44.27-39.86
				C663.05,77.16,682.88,95.01,682.88,117.02z M618.16,100.11c-7.49,0-13.56,5.47-13.56,12.22c0,6.74,6.07,12.21,13.56,12.21
				c7.5,0,13.58-5.46,13.58-12.21C631.74,105.59,625.66,100.11,618.16,100.11z M641.79,131.59c-16.07,2.99-30.62-1.19-28.49,8.04
				c2.11,9.23,16.87,14.29,32.94,11.3c16.07-2.99,27.38-12.89,25.27-22.12C669.39,119.58,657.87,128.6,641.79,131.59z"/>
		</g>
		<path class="st1" d="M647.62,1.3C612.09,5.72,543.5,37.38,506.3,55.71c-14.56,7.17-4.56,30.47,8.02,26.19
			c16.5-5.6,44.66-27.47,116.28-51.44c49.16-16.45,109.08-16.27,162.73,7.78C765.66,9.9,695.18-4.61,647.62,1.3z"/>
	</g>
</g>
</svg>
