<?xml version="1.0" encoding="utf-8"?>
<!-- Generator: Adobe Illustrator 23.0.6, SVG Export Plug-In . SVG Version: 6.00 Build 0)  -->
<svg version="1.1" id="Capa_1" xmlns="http://www.w3.org/2000/svg" xmlns:xlink="http://www.w3.org/1999/xlink" x="0px" y="0px"
	 viewBox="0 0 748.51 158.87" style="enable-background:new 0 0 748.51 158.87;" xml:space="preserve">
<style type="text/css">
	.st0{fill-rule:evenodd;clip-rule:evenodd;fill:#37333D;}
	.st1{fill:#37333D;}
	.st2{fill-rule:evenodd;clip-rule:evenodd;fill:#2D4B5E;}
	.st3{fill-rule:evenodd;clip-rule:evenodd;fill:#CF8362;}
	.st4{fill-rule:evenodd;clip-rule:evenodd;fill:#325568;}
	.st5{fill:#674234;}
	.st6{fill-rule:evenodd;clip-rule:evenodd;fill:#674234;}
	.st7{fill-rule:evenodd;clip-rule:evenodd;fill:#AC5F4A;}
	.st8{fill:#FC2B0E;}
	.st9{fill:#FF3F20;}
	.st10{fill:#CC1305;}
	.st11{fill:#E02008;}
	.st12{fill:#EC1C24;}
</style>
<g>
	<g>
		<path class="st1" d="M270.28,27.16c-47.9-8.94-134.22-29.59-161.03-26.93C58.35,5.28,26.49,26.43,0,47.83
			c59.81-15.64,72.89-24.14,132.26-18.46c49.89,4.77,109.06,17.31,158.99,31.82C283.14,43.72,279.1,43.82,270.28,27.16z"/>
		<path class="st0" d="M127.45,158.87h76.16c5.79-8.54,8.75-19.08,7.68-30.15c-2.43-25.27-24.89-43.78-50.16-41.35
			c-25.27,2.43-43.78,24.88-41.35,50.15C120.55,145.45,123.28,152.71,127.45,158.87z"/>
		<path class="st1" d="M31.48,83.41c-1.05-4.33,25.05,11.33,57.36-1.23c32.31-12.56,130.85-17.13,186.93,66.45
			c0,0-139.09-88.26-191.38,5.69C84.39,154.32,43.39,132.72,31.48,83.41z"/>
	</g>
	<g>
		<path class="st1" d="M639.26,0.24c-26.81-2.67-113.13,17.98-161.03,26.93c-8.82,16.65-12.86,16.56-20.97,34.03
			c49.92-14.52,109.1-27.06,158.99-31.82c59.37-5.68,72.45,2.82,132.26,18.46C722.01,26.43,690.15,5.28,639.26,0.24z"/>
		<path class="st0" d="M621.05,158.87c4.17-6.16,6.91-13.42,7.67-21.35c2.43-25.27-16.08-47.72-41.36-50.15
			c-25.27-2.43-47.73,16.08-50.16,41.35c-1.06,11.07,1.9,21.61,7.68,30.15H621.05z"/>
		<path class="st1" d="M717.03,83.4c1.04-4.33-25.06,11.33-57.36-1.23c-32.31-12.56-130.85-17.13-186.93,66.45
			c0,0,139.09-88.26,191.38,5.69C664.11,154.32,705.12,132.72,717.03,83.4z"/>
	</g>
</g>
</svg>
