<?xml version="1.0" encoding="utf-8"?>
<!-- Generator: Adobe Illustrator 23.0.6, SVG Export Plug-In . SVG Version: 6.00 Build 0)  -->
<svg version="1.1" id="Capa_1" xmlns="http://www.w3.org/2000/svg" xmlns:xlink="http://www.w3.org/1999/xlink" x="0px" y="0px"
	 viewBox="0 0 813.98 165.24" enable-background="new 0 0 813.98 165.24" xml:space="preserve">
<g>
	<g>
		<g>
			<g>
				<path fill-rule="evenodd" clip-rule="evenodd" fill="#37333D" d="M231.78,128.26c0,22.27-20.35,33.29-44.37,33.29
					c-24.02,0-39.12-16.13-39.12-38.4C148.29,100.89,231.78,105.99,231.78,128.26z"/>
				<path fill-rule="evenodd" clip-rule="evenodd" fill="#2D4B5E" d="M200.89,86.38c-30.47-15.15-88.96-14.81-134.37,21.21
					c-9.29,7.37-25.23,25.99-23.83,27.46c119.97-65.55,209.19,8.57,211.99,7.67C253.38,141.01,243.91,107.79,200.89,86.38z"/>
				<path fill-rule="evenodd" clip-rule="evenodd" fill="#37333D" d="M245.91,133.45c-43.94-38.67-84.34-41.42-130.04-26.55
					c-50.78,16.52-71.99,56.32-73.23,58.17c2.71,0.97,123.52-91.4,226.33-2.13C270.31,161.36,254.89,141.37,245.91,133.45z"/>
			</g>
			<g>
				<path fill-rule="evenodd" clip-rule="evenodd" fill="#37333D" d="M730.03,128.26c0,22.27-20.34,33.29-44.37,33.29
					c-24.02,0-39.11-16.13-39.11-38.4C646.55,100.89,730.03,105.99,730.03,128.26z"/>
				<path fill-rule="evenodd" clip-rule="evenodd" fill="#2D4B5E" d="M615.66,86.38c30.47-15.15,88.95-14.81,134.36,21.21
					c9.29,7.37,25.23,25.99,23.82,27.46c-119.97-65.55-209.17,8.57-211.99,7.67C563.15,141.01,572.63,107.79,615.66,86.38z"/>
				<path fill-rule="evenodd" clip-rule="evenodd" fill="#37333D" d="M570.63,133.45c43.94-38.67,84.33-41.42,130.04-26.55
					c50.78,16.52,71.98,56.32,73.23,58.17c-2.72,0.97-123.53-91.4-226.33-2.13C546.22,161.36,561.65,141.37,570.63,133.45z"/>
			</g>
		</g>
		<path fill="#37333D" d="M105.82,104.95c-15.78,4.08-52.9,13.62-67.05,12c-24.7-2.82-30.07-10.71-30.34-8.47
			c-4.94,40.93,34.17,55.77,34.17,55.77c15.66-22.04,43.07-52.22,132.7-64.92C175.91,99.25,144.81,94.86,105.82,104.95z"/>
		<path fill="#37333D" d="M808.06,109.47c-0.27-2.25-5.65,5.64-30.35,8.47c-14.15,1.62-51.27-7.91-67.04-12
			c-39-10.09-70.09-5.7-69.48-5.62c89.62,12.7,117.05,42.88,132.7,64.92C773.89,165.24,813,150.4,808.06,109.47z"/>
	</g>
	<g>
		<path fill-rule="evenodd" clip-rule="evenodd" fill="#37333D" d="M85.42,0.01C74.23-1.03-15.42,81.77,2.31,75.22
			c27.29-10.09,70.25-33.56,83.11-32.37C201.62,53.64,316.05,78,316.15,76.87c1.3-13.1-4.48-30.06-11.57-44.67
			C272.7,26.43,179.64,8.76,85.42,0.01z"/>
		<path fill-rule="evenodd" clip-rule="evenodd" fill="#37333D" d="M731.91,0.01C637.51,8.78,543.07,26.5,510.9,32.23
			c-7.08,14.6-12.85,31.55-11.55,44.64c0.11,1.13,116.36-23.22,232.56-34.01c12.87-1.19,47.87,20.25,79.46,32.36
			C829.95,82.35,743.81-1.1,731.91,0.01z"/>
	</g>
</g>
</svg>
