<?xml version="1.0" encoding="utf-8"?>
<!-- Generator: Adobe Illustrator 23.0.6, SVG Export Plug-In . SVG Version: 6.00 Build 0)  -->
<svg version="1.1" id="Capa_1" xmlns="http://www.w3.org/2000/svg" xmlns:xlink="http://www.w3.org/1999/xlink" x="0px" y="0px"
	 viewBox="0 0 780.78 181.94" enable-background="new 0 0 780.78 181.94" xml:space="preserve">
<g>
	<g>
		<g>
			<g>
				<path fill-rule="evenodd" clip-rule="evenodd" fill="#37333D" d="M247.6,129.74c7.99,7.86,17.98,18.54,23.7,28.43
					c6.42,11.1-12.09,13.41-17.31,14.15c-25.01,3.56-49.67,10.37-75,9.56c-11-0.35-22.84-0.88-33.75-2.29
					c-11.12-1.44-21.99-3.68-33.1-6.86c-12.02-3.45-24.46-7.99-36.13-12.58c-16.15-6.35-38.31-22.01-38.31-22.01
					s34.84-26.55,46.1-34.48c24.67-17.38,45.46-18.84,64.97-19.28C195.17,83.34,218.1,100.69,247.6,129.74z M179.35,175.91
					c13.09-0.32,82.76-0.03,63.51-30.47c-7.77-12.28-22.06-20.28-34.52-25.63c-15.6-6.69-32.45-9.5-49.24-8.37
					c-15.26,1.03-31.43,4.72-45.37,11.49c-5.61,2.72-33.63,20.12-25.92,27.96C110.66,174.12,149.67,176.6,179.35,175.91
					C198.26,175.45,163.24,176.28,179.35,175.91z M266.16,162.33c1.84-4.85-4.22-10.01-7.88-11.26c-4.11-1.4-2.91,3.82-3.72,6.16
					c-1.53,4.46-9.35,10.75-0.45,10.18C257.13,167.22,264.66,166.31,266.16,162.33z"/>
				<path fill-rule="evenodd" clip-rule="evenodd" fill="#37333D" d="M201.47,78.05c10.13,6.4,19.49,14.05,28.76,21.68
					c5.5,4.53,23.55,21.31,26.97,27.08c1.09,1.84-19.35-17.52-28.79-24.33c-9.77-7.05-11.71-9.28-23.5-16.39
					c-20.59-12.42-47.3-21.36-71.43-21.74c-22.33-0.35-34.7,4.48-60.27,18.8c-9.98,5.59-28.02,17.81-46.12,30.1
					c-3.13,2.13,37.09-30.81,42.22-34.36c27.12-18.81,46.61-24.58,66.86-23.47C165.45,57.03,181.55,65.46,201.47,78.05z"/>
			</g>
			<path fill-rule="evenodd" clip-rule="evenodd" fill="#37333D" d="M163.45,99.39c20.82,0,37.69,17.34,37.69,38.74
				s-16.87,38.74-37.69,38.74c-20.82,0-37.69-17.34-37.69-38.74S142.63,99.39,163.45,99.39z M169.3,133.57
				c0,6.56,5.17,11.87,11.55,11.87c6.38,0,11.55-5.32,11.55-11.87c0-6.56-5.17-11.87-11.55-11.87
				C174.47,121.7,169.3,127.02,169.3,133.57z M135.43,149.59c-1.8,8.97,7.83,18.6,21.52,21.51c13.69,2.91,26.24-2.01,28.05-10.98
				c1.8-8.97-10.58-4.91-24.27-7.82C147.04,149.39,137.23,140.62,135.43,149.59z"/>
		</g>
		<g>
			<g>
				<path fill-rule="evenodd" clip-rule="evenodd" fill="#37333D" d="M633.44,84.38c19.51,0.44,40.3,1.89,64.98,19.28
					c11.26,7.93,46.09,34.48,46.09,34.48s-22.16,15.67-38.31,22.01c-11.67,4.59-24.11,9.14-36.13,12.58
					c-11.11,3.18-21.98,5.42-33.1,6.86c-10.91,1.41-22.76,1.93-33.75,2.29c-25.33,0.81-49.99-6-75-9.56
					c-5.22-0.74-23.73-3.05-17.31-14.15c5.72-9.9,15.71-20.57,23.7-28.43C564.11,100.69,587.04,83.34,633.44,84.38z M602.86,175.91
					c29.68,0.69,68.69-1.79,91.54-25.01c7.71-7.84-20.31-25.24-25.92-27.96c-13.94-6.77-30.11-10.47-45.37-11.49
					c-16.79-1.13-33.64,1.68-49.24,8.37c-12.47,5.35-26.76,13.35-34.52,25.63C520.1,175.88,589.77,175.59,602.86,175.91
					C618.97,176.28,583.95,175.45,602.86,175.91z M528.1,167.41c8.9,0.57,1.08-5.72-0.45-10.18c-0.81-2.34,0.39-7.57-3.72-6.16
					c-3.66,1.25-9.72,6.41-7.88,11.26C517.55,166.31,525.07,167.22,528.1,167.41z"/>
				<path fill-rule="evenodd" clip-rule="evenodd" fill="#37333D" d="M579.3,78.05c-10.13,6.4-19.49,14.05-28.76,21.68
					c-5.5,4.53-23.55,21.31-26.97,27.08c-1.09,1.84,19.35-17.52,28.79-24.33c9.77-7.05,11.71-9.28,23.5-16.39
					c20.59-12.42,47.3-21.36,71.43-21.74c22.34-0.35,34.7,4.48,60.27,18.8c9.98,5.59,28.03,17.81,46.12,30.1
					c3.13,2.13-37.1-30.81-42.22-34.36c-27.12-18.81-46.61-24.58-66.86-23.47C615.32,57.03,599.22,65.46,579.3,78.05z"/>
			</g>
			<path fill-rule="evenodd" clip-rule="evenodd" fill="#37333D" d="M617.32,99.39c20.82,0,37.69,17.34,37.69,38.74
				s-16.88,38.74-37.69,38.74c-20.82,0-37.7-17.34-37.7-38.74S596.5,99.39,617.32,99.39z M623.17,133.57
				c0,6.56,5.17,11.87,11.55,11.87c6.38,0,11.55-5.32,11.55-11.87c0-6.56-5.17-11.87-11.55-11.87
				C628.34,121.7,623.17,127.02,623.17,133.57z M589.3,149.59c-1.8,8.97,7.83,18.6,21.52,21.51c13.68,2.91,26.24-2.01,28.05-10.98
				c1.8-8.97-10.58-4.91-24.27-7.82C600.91,149.39,591.11,140.62,589.3,149.59z"/>
		</g>
	</g>
	<g>
		<path fill-rule="evenodd" clip-rule="evenodd" fill="#37333D" d="M76.6,30.23c-7.64,0.26-75.88,5.8-76.6,0.39
			c-0.53-4.02,55.4-19.1,62.09-21.16c32.19-9.89,62.6-13.54,94.97-3.52c29.35,9.08,57.84,21.33,86.63,31.89
			c16.01,5.87,32.21,11.39,48.92,15.24c19.83,4.57,9.41,5.15,13.76,16.3c1.16,2.99,16.8-3.43,20.31-3.55
			c-3.68,6.13-29.89,28.77-37.82,26.13c-23.66-7.89-46-19.66-69.42-28.29C171.2,45.88,128.74,30.2,76.6,30.23
			C54.21,30.99,85.84,30.23,76.6,30.23z"/>
		<path fill-rule="evenodd" clip-rule="evenodd" fill="#37333D" d="M704.17,30.23c7.64,0.26,75.88,5.8,76.6,0.39
			c0.53-4.02-55.4-19.1-62.09-21.16c-32.2-9.89-62.6-13.54-94.96-3.52c-29.35,9.08-57.84,21.33-86.63,31.89
			c-16.01,5.87-32.21,11.39-48.93,15.24c-19.83,4.57-9.41,5.15-13.75,16.3c-1.17,2.99-16.8-3.43-20.31-3.55
			c3.68,6.13,29.89,28.77,37.82,26.13c23.66-7.89,46-19.66,69.42-28.29C609.58,45.88,652.03,30.2,704.17,30.23
			C726.57,30.99,694.94,30.23,704.17,30.23z"/>
	</g>
</g>
</svg>
