<?xml version="1.0" encoding="utf-8"?>
<!-- Generator: Adobe Illustrator 23.0.6, SVG Export Plug-In . SVG Version: 6.00 Build 0)  -->
<svg version="1.1" id="Capa_1" xmlns="http://www.w3.org/2000/svg" xmlns:xlink="http://www.w3.org/1999/xlink" x="0px" y="0px"
	 viewBox="0 0 744.75 226.83" enable-background="new 0 0 744.75 226.83" xml:space="preserve">
<g>
	<g>
		<g>
			<path fill-rule="evenodd" clip-rule="evenodd" fill="#37333D" d="M610.59,137.27c-26.64-10.31-58.2,0.51-70.48,24.16
				c-12.28,23.65-0.65,51.19,25.99,61.49c26.63,10.32,58.19-0.5,70.48-24.15C648.86,175.12,637.23,147.58,610.59,137.27z"/>
			<path fill-rule="evenodd" clip-rule="evenodd" fill="#37333D" d="M738.99,124.29c0,0-11.91,25.44-33.53,13.7
				c0,0-109.04-70.03-214.57,21.38c-8.34,7.22-31.28,44.41-22.88,38.67c70.91-48.54,149.28-55.48,220.24-16.4
				C688.24,181.63,755.61,181.84,738.99,124.29z"/>
		</g>
		<g>
			<path fill-rule="evenodd" clip-rule="evenodd" fill="#37333D" d="M134.08,135.09c26.72-10.13,58.19,0.9,70.3,24.63
				c12.11,23.74,0.27,51.19-26.44,61.33c-26.72,10.12-58.19-0.9-70.3-24.64C95.53,172.67,107.36,145.22,134.08,135.09z"/>
			<path fill-rule="evenodd" clip-rule="evenodd" fill="#37333D" d="M255.91,158.24c-104.73-92-216.58-22.59-216.58-22.59
				C17.6,147.28,5.91,121.77,5.91,121.77c-17.13,57.46,50.24,57.62,50.24,57.62c71.31-38.67,149.62-31.29,220.1,17.65
				C284.59,202.83,264.18,165.51,255.91,158.24z"/>
		</g>
	</g>
	<g>
		<g>
			<path fill="#37333D" d="M240.2,63.22c-12.01-15.41-39.47-24.28-58.36-35.3c-18.17-10.6-34.31-21.11-55.92-24.84
				C84.91-4.01,23.91,12.06,0,41.69c46.36-25.14,104.68-18.32,149.25-0.66c37.44,14.85,67.8,40.22,105.91,53.48
				c6.36-11.57-9.47-22.02-11.61-34.55C241.29,60.36,240.17,61.44,240.2,63.22z"/>
			<path fill="#37333D" d="M125.91,3.08C128.57,3.54,86.34-3.77,125.91,3.08L125.91,3.08z"/>
			<path fill="#37333D" d="M275.2,85.45c-3.76,1.62-5.68,4.2-5.75,7.71c-1.3-5.01,3.75-10.73-1.02-16.11
				c1.26,7.76-3.22,16.81-10.38,21.06C271.32,99.66,273.18,94.84,275.2,85.45z"/>
			<path fill="#37333D" d="M277.69,90.66c-3.28,3.89-9.7,8.93-9.72,13.4C274.24,103.88,279.17,96.99,277.69,90.66z"/>
			<path fill="#37333D" d="M272.45,106.43l14.85,1.46C282.48,103.37,276.57,106.56,272.45,106.43z"/>
		</g>
		<g>
			<path fill="#37333D" d="M618.83,2.94C658.4-3.9,616.17,3.4,618.83,2.94L618.83,2.94z"/>
			<path fill="#37333D" d="M618.83,2.94c-21.62,3.74-37.75,14.24-55.92,24.84c-18.89,11.02-46.36,19.88-58.36,35.3
				c0.03-1.77-1.09-2.86-3.35-3.26c-2.14,12.53-17.97,22.98-11.61,34.55C527.7,81.11,558.06,55.75,595.5,40.9
				c44.56-17.67,102.89-24.48,149.24,0.66C720.84,11.92,659.84-4.15,618.83,2.94z"/>
			<path fill="#37333D" d="M476.32,76.91c-4.76,5.38,0.28,11.11-1.02,16.11c-0.07-3.52-1.99-6.09-5.75-7.71
				c2.01,9.39,3.88,14.22,17.15,12.66C479.54,93.73,475.06,84.67,476.32,76.91z"/>
			<path fill="#37333D" d="M467.06,90.52c-1.48,6.33,3.45,13.22,9.72,13.4C476.76,99.45,470.34,94.41,467.06,90.52z"/>
			<path fill="#37333D" d="M457.44,107.76l14.85-1.47C468.18,106.42,462.26,103.23,457.44,107.76z"/>
		</g>
	</g>
</g>
</svg>
