<?xml version="1.0" encoding="utf-8"?>
<!-- Generator: Adobe Illustrator 23.0.6, SVG Export Plug-In . SVG Version: 6.00 Build 0)  -->
<svg version="1.1" id="Capa_1" xmlns="http://www.w3.org/2000/svg" xmlns:xlink="http://www.w3.org/1999/xlink" x="0px" y="0px"
	 viewBox="0 0 822 236.31" style="enable-background:new 0 0 822 236.31;" xml:space="preserve">
<style type="text/css">
	.st0{fill-rule:evenodd;clip-rule:evenodd;fill:#37333D;}
	.st1{fill:#37333D;}
	.st2{fill-rule:evenodd;clip-rule:evenodd;fill:#2D4B5E;}
	.st3{fill-rule:evenodd;clip-rule:evenodd;fill:#CF8362;}
	.st4{fill-rule:evenodd;clip-rule:evenodd;fill:#325568;}
	.st5{fill:#674234;}
	.st6{fill-rule:evenodd;clip-rule:evenodd;fill:#674234;}
	.st7{fill-rule:evenodd;clip-rule:evenodd;fill:#AC5F4A;}
	.st8{fill:#FC2B0E;}
	.st9{fill:#FF3F20;}
	.st10{fill:#CC1305;}
	.st11{fill:#E02008;}
	.st12{fill:#EC1C24;}
</style>
<g>
	<g>
		<g>
			<path class="st0" d="M206.46,195.41c0,22.59-19.48,40.9-43.51,40.9c-24.03,0-43.5-18.31-43.5-40.9
				c0-22.58,19.47-33.56,43.5-33.56C186.98,161.85,206.46,172.83,206.46,195.41z"/>
			<path class="st2" d="M205.75,126.02c-30.47-15.15-88.96-14.81-134.37,21.21c-9.29,7.37-25.23,25.99-23.82,27.46
				c119.97-65.55,209.17,8.56,211.99,7.66C258.25,180.65,248.78,147.43,205.75,126.02z"/>
			<path class="st0" d="M250.77,173.09c-43.95-38.66-84.33-41.42-130.04-26.54c-50.78,16.52-75.37,51.65-73.23,58.17
				c2.72,0.97,123.53-91.4,226.33-2.13C275.18,201,259.75,181.01,250.77,173.09z"/>
		</g>
		<g>
			<path class="st0" d="M704.71,195.41c0,22.59-19.47,40.9-43.5,40.9S617.7,218,617.7,195.41c0-22.58,19.48-33.56,43.51-33.56
				S704.71,172.82,704.71,195.41z"/>
			<path class="st2" d="M617.95,126.02c30.46-15.15,88.95-14.81,134.35,21.21c9.29,7.37,25.24,25.99,23.83,27.46
				c-127.15-74.95-200.93,4.96-214.41,9.92C563.01,182.91,574.91,147.43,617.95,126.02z"/>
			<path class="st0" d="M702.96,146.54c-45.71-14.88-86.09-12.12-130.04,26.54c-8.98,7.91-24.41,27.91-23.05,29.49
				c102.81-89.27,223.61,3.1,226.33,2.13C774.94,202.87,753.74,163.06,702.96,146.54z"/>
		</g>
		<g>
			<path class="st1" d="M110.69,144.59c-15.78,4.09-52.9,13.62-67.05,12c-24.7-2.82-30.07-10.72-30.34-8.47
				c-4.94,40.93,34.17,55.77,34.17,55.77c15.65-22.04,43.07-52.21,132.69-64.92C180.77,138.88,149.67,134.5,110.69,144.59z"/>
			<path class="st1" d="M810.2,148.84c-0.27-2.25-5.64,5.65-30.34,8.47c-14.15,1.62-51.25-8-67.05-12
				c-40.19-10.18-69.81-6.21-69.19-6.12c89.63,12.7,116.76,43.38,132.4,65.43C776.03,204.61,815.15,189.77,810.2,148.84z"/>
		</g>
	</g>
	<g>
		<path class="st0" d="M281.07,0c-17.67,0.21-35.34,0.83-52.97,1.97C172.81,5.55,116.88,13.51,64.31,28.19
			c-11.81,3.29-16.76,9.03-25.26,17.42C28.68,55.83-5.54,119.19,0.77,114.07c13.6-11.02,24.12-17.61,38-27.53
			c9.2-6.59,18.22-12.45,30.03-15.75c52.56-14.67,108.49-22.64,163.78-26.21c17.63-1.14,35.3-1.76,52.97-1.97
			c6.96-0.09,20.15,1.07,21.3-0.37c3.19-3.97-7.99-25.1-20.41-42.16C284.47,0.03,282.62-0.01,281.07,0z"/>
		<path class="st0" d="M794.77,44.65c-7.35-7.49-23.5-12.7-33.89-15.61C707.97,14.23,651.8,6.08,596.21,2.32
			c-18.48-1.24-36.99-1.92-55.51-2.18c-1.13-0.01-2.41,0-3.8,0.04c-12.39,17.01-23.52,38.22-20.36,42.18
			c1.07,1.32,13.24,0.31,19.68,0.39c18.52,0.25,37.03,0.93,55.51,2.18c55.59,3.75,111.76,11.9,164.67,26.72
			c10.39,2.91,25.27,9.62,33.9,15.6c14.56,10.12,17.91,12.76,30.57,26.29C826.89,119.99,807.48,57.6,794.77,44.65z"/>
	</g>
</g>
</svg>
