<?xml version="1.0" encoding="utf-8"?>
<!-- Generator: Adobe Illustrator 23.0.6, SVG Export Plug-In . SVG Version: 6.00 Build 0)  -->
<svg version="1.1" id="Capa_1" xmlns="http://www.w3.org/2000/svg" xmlns:xlink="http://www.w3.org/1999/xlink" x="0px" y="0px"
	 viewBox="0 0 820.69 140.9" enable-background="new 0 0 820.69 140.9" xml:space="preserve">
<g>
	<g>
		<g>
			<g>
				<path fill-rule="evenodd" clip-rule="evenodd" fill="#37333D" d="M235.14,109.27c0,22.28-20.35,27.94-44.37,27.94
					c-24.03,0-39.12-16.14-39.12-38.4C151.65,76.54,235.14,87,235.14,109.27z"/>
				<path fill-rule="evenodd" clip-rule="evenodd" fill="#2D4B5E" d="M204.24,62.04C173.77,46.9,115.28,47.23,69.87,83.25
					c-9.29,7.38-25.22,25.99-23.82,27.46c119.97-65.54,209.18,8.56,211.99,7.67C256.75,116.67,247.26,83.45,204.24,62.04z"/>
				<path fill-rule="evenodd" clip-rule="evenodd" fill="#37333D" d="M249.26,109.11c-43.95-38.67-84.34-41.42-130.04-26.55
					c-50.78,16.52-71.98,56.32-73.24,58.17c2.71,0.97,123.52-91.39,226.33-2.13C273.67,137.02,258.25,117.03,249.26,109.11z"/>
			</g>
			<g>
				<path fill-rule="evenodd" clip-rule="evenodd" fill="#37333D" d="M733.39,109.27c0,22.28-20.34,27.94-44.37,27.94
					c-24.03,0-39.11-16.13-39.11-38.4C649.9,76.54,733.39,87,733.39,109.27z"/>
				<path fill-rule="evenodd" clip-rule="evenodd" fill="#2D4B5E" d="M619.01,62.04c30.47-15.14,88.95-14.81,134.36,21.21
					c9.3,7.38,25.23,25.99,23.82,27.46c-119.97-65.54-209.18,8.56-211.98,7.67C566.51,116.67,575.98,83.45,619.01,62.04z"/>
				<path fill-rule="evenodd" clip-rule="evenodd" fill="#37333D" d="M573.98,109.11c43.95-38.67,84.33-41.42,130.04-26.55
					c50.78,16.52,71.98,56.32,73.24,58.17c-2.72,0.97-123.52-91.4-226.33-2.13C549.58,137.02,565,117.03,573.98,109.11z"/>
			</g>
		</g>
		<path fill="#37333D" d="M109.18,80.61c-15.78,4.09-52.9,13.62-67.05,12c-24.7-2.82-30.07-10.71-30.35-8.47
			c-4.94,40.93,34.17,55.77,34.17,55.77c15.65-22.04,43.07-52.22,132.7-64.92C179.26,74.91,148.16,70.52,109.18,80.61z"/>
		<path fill="#37333D" d="M811.41,85.13c-0.27-2.25-5.65,5.65-30.35,8.47c-14.15,1.62-51.27-7.92-67.04-12
			c-38.99-10.1-70.09-5.71-69.48-5.62c89.63,12.7,117.04,42.88,132.7,64.91C777.24,140.9,816.36,126.06,811.41,85.13z"/>
	</g>
	<g>
		<path fill-rule="evenodd" clip-rule="evenodd" fill="#37333D" d="M95.03,0.43C84.1-2.16-16.2,67.36,2.26,63.35
			c28.44-6.19,74.23-23.46,86.8-20.49c113.56,26.86,223.49,66.9,223.76,65.79c3.1-12.79-0.26-30.39-5.25-45.85
			C276.81,52.66,187.12,22.22,95.03,0.43z"/>
		<path fill-rule="evenodd" clip-rule="evenodd" fill="#37333D" d="M728.99,0.08C636.73,21.9,545.67,52.59,514.62,62.74
			c-4.98,15.44-8.34,33.03-5.23,45.81c0.27,1.1,112-39.19,225.57-66.05c12.58-2.97,50.21,13.39,83.18,20.99
			C837.53,67.96,740.62-2.67,728.99,0.08z"/>
	</g>
</g>
</svg>
