<?xml version="1.0" encoding="utf-8"?>
<!-- Generator: Adobe Illustrator 23.0.6, SVG Export Plug-In . SVG Version: 6.00 Build 0)  -->
<svg version="1.1" id="Capa_1" xmlns="http://www.w3.org/2000/svg" xmlns:xlink="http://www.w3.org/1999/xlink" x="0px" y="0px"
	 viewBox="0 0 790.27 161.25" style="enable-background:new 0 0 790.27 161.25;" xml:space="preserve">
<style type="text/css">
	.st0{fill-rule:evenodd;clip-rule:evenodd;fill:#37333D;}
	.st1{fill:#37333D;}
	.st2{fill-rule:evenodd;clip-rule:evenodd;fill:#2D4B5E;}
	.st3{fill-rule:evenodd;clip-rule:evenodd;fill:#CF8362;}
	.st4{fill-rule:evenodd;clip-rule:evenodd;fill:#325568;}
	.st5{fill:#674234;}
	.st6{fill-rule:evenodd;clip-rule:evenodd;fill:#674234;}
	.st7{fill-rule:evenodd;clip-rule:evenodd;fill:#AC5F4A;}
	.st8{fill:#FC2B0E;}
	.st9{fill:#FF3F20;}
	.st10{fill:#CC1305;}
	.st11{fill:#E02008;}
	.st12{fill:#EC1C24;}
</style>
<g>
	<g>
		<path class="st1" d="M276.47,29.25c-49-9.63-137.3-31.86-164.73-28.99C59.69,5.69,27.1,33.36,0,56.4
			c61.18-16.84,74.56-26,135.29-19.88c51.03,5.14,111.56,18.64,162.63,34.27C289.63,51.98,285.49,47.18,276.47,29.25z"/>
		<path class="st1" d="M292.91,155.02c-0.11-0.14-0.22-0.28-0.32-0.43c-43.21-79.85-127.73-84.43-177.71-64.61
			c-31.97,12.68-57.5-11.69-57.5-11.69s2.48,25.31,20.19,36.07c-26.77-2.7-36.79-20.55-36.69-17.98
			c1.75,49.48,56.23,56.41,56.23,56.41c53.64-76.42,183.38-4.87,194.97,1.74c0.55,0.41,0.84,0.63,0.84,0.63
			c-0.04-0.07-0.08-0.14-0.12-0.22C292.87,154.99,292.91,155.02,292.91,155.02z"/>
		<path class="st0" d="M141.25,161.25h77.91c5.92-9.2,8.95-20.54,7.86-32.46c-2.49-27.21-25.46-47.14-51.31-44.53
			c-25.85,2.62-44.79,26.79-42.3,54C134.18,146.8,136.98,154.62,141.25,161.25z"/>
	</g>
	<g>
		<path class="st1" d="M678.52,0.25C651.1-2.62,562.8,19.61,513.8,29.25c-9.02,17.93-13.16,22.73-21.45,41.54
			c51.07-15.63,111.59-29.13,162.63-34.27c60.73-6.12,74.11,3.04,135.29,19.88C763.17,33.36,730.58,5.69,678.52,0.25z"/>
		<path class="st1" d="M714.02,114.36c17.7-10.76,20.18-36.07,20.18-36.07s-25.53,24.37-57.5,11.69
			C626.73,70.16,542.21,74.74,499,154.59c-0.11,0.14-0.22,0.28-0.33,0.43c0,0,0.05-0.03,0.13-0.07c-0.04,0.07-0.08,0.14-0.12,0.22
			c0,0,0.29-0.22,0.83-0.63c11.59-6.61,141.33-78.16,194.97-1.74c0,0,54.48-6.93,56.23-56.41
			C750.8,93.81,740.79,111.66,714.02,114.36z"/>
		<path class="st0" d="M650.58,161.25c4.27-6.63,7.07-14.45,7.85-22.99c2.48-27.21-16.45-51.39-42.3-54
			c-25.85-2.62-48.82,17.32-51.31,44.53c-1.09,11.92,1.94,23.26,7.86,32.46H650.58z"/>
	</g>
</g>
</svg>
