<?xml version="1.0" encoding="utf-8"?>
<!-- Generator: Adobe Illustrator 23.0.6, SVG Export Plug-In . SVG Version: 6.00 Build 0)  -->
<svg version="1.1" id="Capa_1" xmlns="http://www.w3.org/2000/svg" xmlns:xlink="http://www.w3.org/1999/xlink" x="0px" y="0px"
	 viewBox="0 0 821.84 189.29" enable-background="new 0 0 821.84 189.29" xml:space="preserve">
<g>
	<g>
		<g>
			<path fill-rule="evenodd" clip-rule="evenodd" fill="#37333D" d="M131.98,165.52h53.26c10.25-7.48,16.88-19.14,16.88-32.29
				c0-22.59-19.48-33.56-43.51-33.56c-24.03,0-43.5,10.97-43.5,33.56C115.1,146.38,121.72,158.04,131.98,165.52z"/>
			<path fill-rule="evenodd" clip-rule="evenodd" fill="#2D4B5E" d="M201.4,85.27c-30.47-15.15-88.95-14.81-134.36,21.2
				c-9.29,7.37-25.23,25.99-23.83,27.46c119.97-65.54,209.18,8.57,211.99,7.66C253.91,139.9,244.43,106.67,201.4,85.27z"/>
			<path fill-rule="evenodd" clip-rule="evenodd" fill="#37333D" d="M246.42,132.33c-43.94-38.67-84.33-41.42-130.04-26.55
				c-50.78,16.52-71.98,56.33-73.24,58.17c2.72,0.97,123.52-91.4,226.33-2.13C270.83,160.25,255.41,140.25,246.42,132.33z"/>
		</g>
		<g>
			<g>
				<path fill-rule="evenodd" clip-rule="evenodd" fill="#CF8362" d="M781.42,167.76c11.22-0.13,41.69-9.45,40.38-9.36
					c-13.32,0.98-26.62,2.21-39.85,3.65C780.5,162.2,780.38,167.79,781.42,167.76z"/>
				<path fill-rule="evenodd" clip-rule="evenodd" fill="#CF8362" d="M817.94,189.15c-7.65-4.19-15.43-8.22-23.36-11.95
					c-1.65-0.76-4.1-0.03-6.17,0.01C788.82,178.68,819.35,189.92,817.94,189.15z"/>
			</g>
			<path fill-rule="evenodd" clip-rule="evenodd" fill="#325568" d="M704.62,98.25c-31.76-12.24-89.83-15.29-131.71,23.42
				c-8.31,7.67-31.52,37.8-30.03,39.04c146.85-61.48,214.6-25.55,217.45-26.43C758.96,132.83,749.49,115.54,704.62,98.25z"/>
			<path fill-rule="evenodd" clip-rule="evenodd" fill="#37333D" d="M685.23,117.21c-45.14-2.48-68.8-0.66-143.2,43.69
				c103.38-16.32,163.58-7.03,225.76-3.72C766.32,155.85,738.24,120.13,685.23,117.21z"/>
			<path fill-rule="evenodd" clip-rule="evenodd" fill="#CF8362" d="M545.16,166.73c58.21,16.81,84.38,21.84,122.81,22.52
				c45.14,0.81,68.79-11.92,70.04-12.38C688.74,185.21,633.12,180.7,545.16,166.73z"/>
		</g>
		<g>
			<path fill="#37333D" d="M106.33,103.84c-15.77,4.08-52.89,13.61-67.04,12c-24.7-2.82-30.07-10.71-30.35-8.47
				c-4.94,40.93,34.17,55.77,34.17,55.77c15.65-22.04,43.07-52.21,132.7-64.92C176.43,98.13,145.33,93.74,106.33,103.84z"/>
			<path fill="#37333D" d="M801.84,104.51c-0.34-2.11-16.32,9.67-44.59,15.16c-8.68,1.68-13.38,2.67-48.37,0.58
				c-68-4.08-96.68,6.4-96.05,6.42c90.45,3.25,136.43,11.63,154.26,30.7C767.08,157.37,809.27,150.6,801.84,104.51z"/>
		</g>
	</g>
	<g>
		<path fill-rule="evenodd" clip-rule="evenodd" fill="#37333D" d="M85.43,0.01C74.24-1.03-15.41,81.77,2.31,75.22
			c27.3-10.09,70.25-33.56,83.11-32.37C201.62,53.65,316.05,78,316.16,76.87c1.3-13.09-4.49-30.06-11.57-44.67
			C272.7,26.43,179.64,8.76,85.43,0.01z"/>
		<path fill-rule="evenodd" clip-rule="evenodd" fill="#37333D" d="M731.92,0.01c-94.4,8.76-188.85,26.49-221.01,32.22
			c-7.08,14.61-12.85,31.55-11.56,44.64c0.12,1.12,116.37-23.23,232.57-34.02c12.86-1.19,47.86,20.24,79.45,32.36
			C829.95,82.34,743.81-1.1,731.92,0.01z"/>
	</g>
</g>
</svg>
