<?xml version="1.0" encoding="utf-8"?>
<!-- Generator: Adobe Illustrator 23.0.6, SVG Export Plug-In . SVG Version: 6.00 Build 0)  -->
<svg version="1.1" id="Capa_1" xmlns="http://www.w3.org/2000/svg" xmlns:xlink="http://www.w3.org/1999/xlink" x="0px" y="0px"
	 viewBox="0 0 656.39 150.29" enable-background="new 0 0 656.39 150.29" xml:space="preserve">
<g>
	<g>
		<g>
			<path fill-rule="evenodd" clip-rule="evenodd" fill="#674234" d="M135.09,9.59c19.63-16.58-11.85-6.85-16.15-5.8
				C100.7,8.21,23.66,28.15,3.68,39.32c-5.74,3.2-4.1,38.86,0.35,38.03c26.4-16.84,57.22-21.98,88.08-23.69
				c17.9-0.99,36.3,4.98,54.47,7.89c26.69,4.28,53.4,8.46,80.03,13c14.17,2.41,48,4.54,47.68,3.43
				c-3.76-12.87-7.95-25.64-12.4-38.33c-3.99-11.39-17.95-11.12-26.94-12.94C200.98,19.8,168.7,16.01,135.09,9.59z"/>
			<path fill-rule="evenodd" clip-rule="evenodd" fill="#674234" d="M285.14,79.92c0.75-2.06-4.63-29.8-8.56-41.48
				c-0.81-2.42-3.81-4.26-5.8-6.36c-0.34,2.37-1.53,4.95-0.89,7.08C273.93,52.57,284.32,79.69,285.14,79.92z"/>
		</g>
		<path fill="#674234" d="M128.28,98.57c-19.74,0-35.73,13.4-35.73,29.93c0,4.26,1.07,8.31,2.98,11.97h65.49
			c1.91-3.67,2.98-7.71,2.98-11.97C164,111.97,148.01,98.57,128.28,98.57z"/>
		<g>
			<g>
				<path fill-rule="evenodd" clip-rule="evenodd" fill="#674234" d="M198.6,124.85c-35.36-31.11-67.85-33.33-104.62-21.36
					c-40.86,13.29-57.92,45.32-58.92,46.8c2.19,0.78,99.38-73.54,182.1-1.72C218.24,147.3,205.83,131.21,198.6,124.85z"/>
			</g>
		</g>
		<path fill-rule="evenodd" clip-rule="evenodd" fill="#674234" d="M162.37,86.98C137.86,74.79,90.8,75.06,54.27,104.04
			c-7.47,5.93-20.3,20.91-19.17,22.1c94.31-83.49,167.64-3.65,169.9-4.38C203.96,120.38,197,104.2,162.37,86.98z"/>
	</g>
	<g>
		<g>
			<path fill-rule="evenodd" clip-rule="evenodd" fill="#674234" d="M521.3,9.59c-19.63-16.58,11.85-6.85,16.14-5.8
				c18.25,4.43,95.29,24.37,115.26,35.54c5.75,3.21,4.1,38.86-0.35,38.03c-26.4-16.84-57.22-21.98-88.08-23.69
				c-17.91-0.99-36.31,4.98-54.47,7.89c-26.69,4.28-53.4,8.46-80.03,12.99c-14.17,2.41-48.01,4.54-47.68,3.43
				c3.75-12.87,7.95-25.64,12.4-38.33c3.99-11.39,17.95-11.12,26.94-12.94C455.41,19.8,487.69,16.01,521.3,9.59z"/>
			<path fill-rule="evenodd" clip-rule="evenodd" fill="#674234" d="M371.25,79.92c-0.75-2.06,4.63-29.8,8.56-41.48
				c0.81-2.42,3.81-4.26,5.8-6.36c0.34,2.37,1.53,4.95,0.89,7.08C382.47,52.57,372.07,79.69,371.25,79.92z"/>
		</g>
		<path fill="#674234" d="M528.12,98.57c19.73,0,35.72,13.4,35.72,29.93c0,4.26-1.07,8.3-2.98,11.97h-65.5
			c-1.91-3.67-2.98-7.71-2.98-11.97C492.39,111.97,508.38,98.57,528.12,98.57z"/>
		<g>
			<g>
				<path fill-rule="evenodd" clip-rule="evenodd" fill="#674234" d="M457.79,124.85c35.36-31.11,67.85-33.33,104.62-21.36
					c40.86,13.29,57.92,45.32,58.92,46.8c-2.18,0.78-99.38-73.54-182.09-1.72C438.15,147.3,450.56,131.21,457.79,124.85z"/>
			</g>
		</g>
		<path fill-rule="evenodd" clip-rule="evenodd" fill="#674234" d="M494.02,86.98c24.52-12.19,71.57-11.92,108.1,17.06
			c7.48,5.93,20.3,20.91,19.17,22.09c-94.31-83.49-167.64-3.65-169.89-4.38C452.43,120.38,459.39,104.2,494.02,86.98z"/>
	</g>
</g>
</svg>
