<?xml version="1.0" encoding="utf-8"?>
<!-- Generator: Adobe Illustrator 23.0.6, SVG Export Plug-In . SVG Version: 6.00 Build 0)  -->
<svg version="1.1" id="Capa_1" xmlns="http://www.w3.org/2000/svg" xmlns:xlink="http://www.w3.org/1999/xlink" x="0px" y="0px"
	 viewBox="0 0 673.47 131.75" enable-background="new 0 0 673.47 131.75" xml:space="preserve">
<g>
	<g>
		<g>
			<path fill="#EC1C24" d="M140.6,112.67c0,0,24.26-65.07,4.28-70.12C124.9,37.48,140.6,112.67,140.6,112.67z"/>
			<path fill-rule="evenodd" clip-rule="evenodd" fill="#674234" d="M224.38,77.67C193.88,47.55,161,39.81,121.95,38.54
				c-43.38-1.42-65.37,13.89-66.63,14.63c2.08,1.08,111.19-7.11,183.83,45.32C240.46,97.91,230.61,83.83,224.38,77.67z"/>
		</g>
		<path fill-rule="evenodd" clip-rule="evenodd" fill="#674234" d="M59.53,82.23c26.38,39.13,62.61,51.27,103.03,49.33
			c22.37-1.08,72.82-21.58,74.22-22.93C234.79,107.21,55.41,76.1,59.53,82.23z"/>
		<path fill-rule="evenodd" clip-rule="evenodd" fill="#674234" d="M280.55,102.3c-0.41,0.01-38.75-41.18-45.05-45.46
			c-14.09-9.57-60.68-47.6-101.98-55.33C103.56-4.11,39.71,7.74,38.95,8.2c1.07,0.62,10.74,3.22,17.84,4.49
			C42.06,17.02,2.11,23.95,0,25.74c3.56,0.71,7.1,1.5,10.67,2.14c26.9,4.75,46.72,5.47,72.94,11.92
			c32.15,7.92,64.08,17.33,94.54,28.23C195.58,74.27,265.12,98.63,280.55,102.3z"/>
	</g>
	<g>
		<g>
			<path fill="#EC1C24" d="M532.87,112.67c0,0-24.26-65.07-4.28-70.12C548.57,37.48,532.87,112.67,532.87,112.67z"/>
			<path fill-rule="evenodd" clip-rule="evenodd" fill="#674234" d="M449.09,77.67c30.5-30.13,63.38-37.86,102.43-39.13
				c43.38-1.42,65.37,13.88,66.63,14.63c-2.07,1.08-111.19-7.11-183.83,45.32C433.01,97.91,442.86,83.83,449.09,77.67z"/>
		</g>
		<path fill-rule="evenodd" clip-rule="evenodd" fill="#674234" d="M613.94,82.23c-26.38,39.13-62.61,51.27-103.03,49.33
			c-22.37-1.08-72.82-21.58-74.22-22.93C438.68,107.21,618.06,76.1,613.94,82.23z"/>
		<path fill-rule="evenodd" clip-rule="evenodd" fill="#674234" d="M392.92,102.3c0.42,0.01,41.49-43.05,45.05-45.46
			c14.11-9.53,60.68-47.6,101.98-55.33c29.97-5.62,93.81,6.22,94.57,6.69c-1.07,0.62-10.74,3.22-17.85,4.49
			c14.73,4.33,54.68,11.26,56.79,13.05c-3.56,0.71-7.1,1.5-10.67,2.14c-26.9,4.75-46.71,5.47-72.94,11.92
			c-32.15,7.92-64.08,17.33-94.54,28.24C477.89,74.27,408.36,98.63,392.92,102.3z"/>
	</g>
</g>
</svg>
