<?xml version="1.0" encoding="utf-8"?>
<!-- Generator: Adobe Illustrator 23.0.6, SVG Export Plug-In . SVG Version: 6.00 Build 0)  -->
<svg version="1.1" id="Capa_1" xmlns="http://www.w3.org/2000/svg" xmlns:xlink="http://www.w3.org/1999/xlink" x="0px" y="0px"
	 viewBox="0 0 716.47 166.92" style="enable-background:new 0 0 716.47 166.92;" xml:space="preserve">
<style type="text/css">
	.st0{fill-rule:evenodd;clip-rule:evenodd;fill:#37333D;}
	.st1{fill:#37333D;}
	.st2{fill-rule:evenodd;clip-rule:evenodd;fill:#2D4B5E;}
	.st3{fill-rule:evenodd;clip-rule:evenodd;fill:#CF8362;}
	.st4{fill-rule:evenodd;clip-rule:evenodd;fill:#325568;}
	.st5{fill:#674234;}
	.st6{fill-rule:evenodd;clip-rule:evenodd;fill:#674234;}
	.st7{fill-rule:evenodd;clip-rule:evenodd;fill:#AC5F4A;}
	.st8{fill:#FC2B0E;}
	.st9{fill:#FF3F20;}
	.st10{fill:#CC1305;}
	.st11{fill:#E02008;}
	.st12{fill:#EC1C24;}
</style>
<g>
	<g>
		<g>
			<g>
				<path class="st6" d="M647.06,137.29c-31.03,21.07-64.96,29.87-106.72,22.55c-23.81-4.85-47.21-15.28-67.28-25.86
					c61.23,3.95,126.82,8.21,182.93-14.88C657.2,120.08,652.03,133.4,647.06,137.29z"/>
				<path class="st6" d="M663.4,106.71c0.51-1.45,0.66-3.87,1.72-4.34c1.39-0.61,20.94,17.38,28.52,25.99
					C694.24,129.04,664.1,108.72,663.4,106.71z"/>
				<path class="st6" d="M669.24,89.77c-0.8,0.29-2.08-4.5-1-5.01c9.97-4.7,20.03-9.23,30.17-13.54
					C699.41,70.8,677.96,86.71,669.24,89.77z"/>
				<path class="st6" d="M677.02,95.99c1.62-0.58,3.35-1.85,4.82-1.63c7.1,1.1,14.15,2.51,21.15,4.08
					C704.29,98.74,677.71,97.14,677.02,95.99z"/>
			</g>
			<g>
				<path class="st5" d="M599.58,104.32c1.31,19.45-14.43,36.32-33.76,37.8c-19.26,1.47-37.22-12.9-38.53-32.31
					c-1.32-19.46,14.41-36.38,33.74-37.87C580.31,70.47,598.26,84.92,599.58,104.32z"/>
				<path class="st6" d="M489.11,88.3c28.62-29.69,62.2-40.03,104-28.26c24.82,6.99,47.82,22.37,62.61,43.78
					c-61.07-18.43-128.44-29.79-183.49,12.04C471.03,114.56,482.29,95.38,489.11,88.3z"/>
			</g>
		</g>
		<path class="st6" d="M419.35,55.61c18.75-7.42,37.27-15.51,55.72-23.64C517.43,16.47,567.95-4.35,613.81,0.8
			c28.6,5.04,56.04,25.72,77.86,44c-1.22,0.4-10.79,0.13-17.51-0.88c13.43,13.45,29.43,24.25,42.3,38.2
			c-3.4-0.42-6.82-0.73-10.2-1.26c-22.84-3.9-45.16-10.41-68.38-11.9c-31.8-1.33-63.77-1.42-94.9,1.5
			c-31.58,2.97-63.83,11.95-95.33,18.83C435.06,86.63,402.33,73.63,419.35,55.61z"/>
	</g>
	<g>
		<g>
			<g>
				<path class="st6" d="M73.59,143.47c28.48,21.99,68,27.91,106.86,20.28c23.88-5.37,47.12-16.26,67.12-27.24
					c-59.62,4.22-128.17,11.97-183.04-11.01C63.34,126.52,68.6,139.69,73.59,143.47z"/>
				<path class="st6" d="M57.9,115.54c-0.52-1.43-0.68-3.85-1.74-4.28c-1.39-0.57-20.84,17.93-28.39,26.72
					C27.18,138.67,57.22,117.56,57.9,115.54z"/>
				<path class="st6" d="M51.98,98.8c0.81,0.26,2.07-4.55,0.98-5.03c-9.99-4.4-20.07-8.64-30.23-12.65
					C21.72,80.72,43.24,95.99,51.98,98.8z"/>
				<path class="st6" d="M44.23,105.22c-1.61-0.53-3.36-1.75-4.83-1.48c-7.09,1.3-14.14,2.9-21.13,4.67
					C16.98,108.73,43.55,106.38,44.23,105.22z"/>
			</g>
			<g>
				<path class="st5" d="M120.91,111.32c-1.25,19.36,14.68,35.9,33.94,36.79c19.38,0.89,37.12-13.89,38.38-33.34
					c1.26-19.37-14.65-35.97-33.93-36.86C139.91,77.02,122.17,91.86,120.91,111.32z"/>
				<path class="st6" d="M231.32,92.19c-29.04-29.14-62.83-38.08-104.13-25.26c-24.74,7.68-47.89,23.66-62.4,45.47
					c60.31-19.85,127.72-33.77,183.55,6.85C249.53,117.91,238.16,99.06,231.32,92.19z"/>
			</g>
		</g>
		<path class="st6" d="M296.98,57.34c-18.7-7.1-37.09-15.02-55.83-22.01C199.28,20.48,148.27,1.94,103.33,8.28
			c-28.74,5.92-55.9,27.31-77.64,46.16c1.22,0.37,10.79-0.18,17.51-1.39C29.59,67.01,13.23,78.07,0,92.33
			c3.4-0.51,6.82-0.92,10.19-1.54c22.83-4.55,45.06-11.68,68.33-13.84c31.75-2.24,63.72-3.27,94.91-1.23
			c31.48,2.06,63.98,9.69,95.42,16.08C283.34,91.11,317.52,75.45,296.98,57.34z"/>
	</g>
</g>
</svg>
