<?xml version="1.0" encoding="utf-8"?>
<!-- Generator: Adobe Illustrator 23.0.6, SVG Export Plug-In . SVG Version: 6.00 Build 0)  -->
<svg version="1.1" id="Capa_1" xmlns="http://www.w3.org/2000/svg" xmlns:xlink="http://www.w3.org/1999/xlink" x="0px" y="0px"
	 viewBox="0 0 744.51 162.08" style="enable-background:new 0 0 744.51 162.08;" xml:space="preserve">
<style type="text/css">
	.st0{fill-rule:evenodd;clip-rule:evenodd;fill:#37333D;}
	.st1{fill:#37333D;}
	.st2{fill-rule:evenodd;clip-rule:evenodd;fill:#2D4B5E;}
	.st3{fill-rule:evenodd;clip-rule:evenodd;fill:#CF8362;}
	.st4{fill-rule:evenodd;clip-rule:evenodd;fill:#325568;}
	.st5{fill:#674234;}
	.st6{fill-rule:evenodd;clip-rule:evenodd;fill:#674234;}
	.st7{fill-rule:evenodd;clip-rule:evenodd;fill:#AC5F4A;}
	.st8{fill:#FC2B0E;}
	.st9{fill:#FF3F20;}
	.st10{fill:#CC1305;}
	.st11{fill:#E02008;}
	.st12{fill:#EC1C24;}
</style>
<g>
	<g>
		<g>
			<path class="st1" d="M96.9,6.61C47.67,22.33,21.64,54.82,0,81.87c55.8-28.23,66.91-39.51,126.81-46.22
				c50.33-5.64,111.49-5.41,163.93-1.26C279.01,18.53,274.07,14.89,261.81,0C212.55,1.03,122.84-1.68,96.9,6.61z"/>
		</g>
		<path class="st0" d="M123.15,161.61l76.95,0.07c5.85-8.77,8.85-19.59,7.79-30.96c-2.43-25.97-25.1-45-50.64-42.53
			c-25.53,2.47-44.26,25.52-41.83,51.48C116.18,147.81,118.94,155.27,123.15,161.61z"/>
		<path class="st1" d="M26.24,96.47c-1.05-4.45,25.3,11.66,57.96-1.21c32.66-12.87,132.24-29.96,188.82,55.97
			c0,0-140.45-90.81-193.38,5.66C79.64,156.89,38.22,147.14,26.24,96.47z"/>
	</g>
	<g>
		<g>
			<path class="st1" d="M647.74,8.28c49.2,15.81,75.17,48.35,96.76,75.44c-55.75-28.33-66.84-39.63-126.73-46.46
				c-50.32-5.74-111.48-5.62-163.92-1.57c11.76-15.84,16.7-19.47,28.99-34.34C532.1,2.47,621.82-0.06,647.74,8.28z"/>
		</g>
		<path class="st0" d="M621.87,162.08c4.22-6.32,6.99-13.78,7.77-21.92c2.48-25.96-16.2-49.04-41.73-51.57
			c-25.53-2.52-48.24,16.47-50.72,42.43c-1.09,11.37,1.89,22.2,7.73,30.98L621.87,162.08z"/>
		<path class="st1" d="M718.9,97.12c1.06-4.45-25.32,11.61-57.96-1.32c-32.63-12.93-132.18-30.21-188.93,55.61
			c0,0,140.62-90.54,193.36,6.03C665.38,157.44,706.83,147.78,718.9,97.12z"/>
	</g>
</g>
</svg>
