<?xml version="1.0" encoding="utf-8"?>
<!-- Generator: Adobe Illustrator 23.0.6, SVG Export Plug-In . SVG Version: 6.00 Build 0)  -->
<svg version="1.1" id="Capa_1" xmlns="http://www.w3.org/2000/svg" xmlns:xlink="http://www.w3.org/1999/xlink" x="0px" y="0px"
	 viewBox="0 0 741.66 173.28" enable-background="new 0 0 741.66 173.28" xml:space="preserve">
<g>
	<g>
		<g>
			<g>
				<path fill="#37333D" d="M241.41,37.24c-12.54-8.89-25.87-13.91-45.6-20.27c-18.98-6.12-41.95-16.06-64.61-16.9
					C77.53-1.91,23.85,37.84,0,64.68C51.68,40.83,89.98,21.3,137.17,27.9c40.8,5.71,77.53,19.88,117.29,33.8
					c6.65-6.68-7.31-19.11-9.55-26.34C242.55,35.59,241.38,36.21,241.41,37.24z"/>
				<path fill="#37333D" d="M276.98,55.03c-3.93,0.94-5.93,2.42-6.01,4.45c-1.36-2.89,3.91-6.19-1.06-9.3
					c1.31,4.48-3.37,9.7-10.84,12.15C272.92,63.24,274.87,60.46,276.98,55.03z"/>
				<path fill="#37333D" d="M279.58,58.04c-3.43,2.24-10.13,5.15-10.15,7.73C275.98,65.67,281.13,61.7,279.58,58.04z"/>
				<path fill="#37333D" d="M274.11,67.15l15.52,0.84C284.59,65.38,278.41,67.22,274.11,67.15z"/>
			</g>
			<g>
				<path fill-rule="evenodd" clip-rule="evenodd" fill="#37333D" d="M261.9,129.7c-2.55-3.56-5.48-7.42-8.8-11.49
					c-15.56-19.09-36.43-35.17-60.4-42.85c-31.75-10.17-68.54-6.17-98.52,6.53c-7.56,3.2-15.18,6.69-22.32,10.76
					c-12.79,7.28-22.67,15.07-33.12,23.33c-3.42,2.7-6.96,5.5-10.6,8.26c-0.29,0.4-0.51,1.71-0.36,2.16l0.1,0.2
					c0,0,42.5,32.55,45.36,34.34c17.47,10.95,36.66,12.35,51.43,12.35c7.09,0,14.31-0.36,21.29-0.71c5.87-0.29,11.94-0.6,17.81-0.68
					c15.7-0.21,31.52-1.89,46.82-3.5c9.94-1.05,20.21-2.14,30.42-2.83c4.15-0.28,8.6-3.53,12.52-6.71
					c-0.27-1.46-1.78-5.27-3.36-7.39c-24.84-33.44-52.77-51.75-85.38-55.99c-7.42-0.96-14.92-1.46-22.26-1.46
					c-25.29,0-48.11,6.74-71.44,15.77c-11.96,4.63-23.36,10.1-34.79,15.85l16.2-12.35c16.42-12.01,33.36-21.22,50.37-27.38
					c16.98-6.16,34.05-9.27,50.72-9.27c23.44,0,45.85,6.1,66.62,18.13C235.2,103.47,249.16,115.17,261.9,129.7z M193.16,109.02
					c16.49,8.01,28.24,18.31,40.8,31.31c3.43,2.91,9.09,9.41,7.68,14.29c-1.5,5.22-10.04,7.35-14.95,8.02
					c-11.93,1.61-24.08,2.57-36.94,3.57c-5.65,0.44-11.49,0.9-17.6,1.43l-7.53,0.66l6.33-4.13c19.8-12.92,25.65-28.76,19.54-52.99
					l-0.99-3.94L193.16,109.02z M106.12,125.61l0.06-0.23c4.07-13.14,15.37-20.08,32.69-20.08c3.18,0,5.82,0.24,7.47,0.4l0.01-0.08
					l5.91,0.6c8.81,0.85,10.98,1.49,18.81,4.6c8.99,3.58,15.27,10.8,16.78,19.32c1.44,8.12-1.58,16.22-8.31,22.24
					c-8.79,7.87-20.82,13.42-33.4,13.42c-9.28,0-18.42-3.42-25.99-7.92C108.98,151.23,103.73,139.17,106.12,125.61z M49.13,135.57
					c15.35-12.37,28.7-19.05,47.62-23.85l2.65-0.67l-0.3,2.72c-2.81,25.18,5.79,41.41,27.89,52.63l6.38,3.24l-7.15,0.34
					c-1.7,0.08-3.41,0.12-5.07,0.12c0,0,0,0,0,0c-14.18,0-27.13-2.9-39.6-8.86c-10.49-5.02-20.82-12.26-32.5-22.79l-1.65-1.49
					L49.13,135.57z"/>
				<path fill="#37333D" d="M159.71,117.35c-3.59-3.47-8.28-5.39-13.23-5.39c-10.17,0-18.45,8.28-18.45,18.45
					c0,10.17,8.28,18.45,18.45,18.45c4.94,0,9.64-1.91,13.23-5.38c3.63-3.51,5.62-8.15,5.62-13.06
					C165.34,125.5,163.34,120.86,159.71,117.35z"/>
			</g>
		</g>
	</g>
	<g>
		<g>
			<g>
				<path fill="#37333D" d="M500.24,37.24c12.54-8.89,25.87-13.91,45.6-20.27c18.98-6.12,41.95-16.06,64.61-16.9
					c53.67-1.99,107.35,37.77,131.2,64.61C689.97,40.83,651.67,21.3,604.49,27.9c-40.8,5.71-77.53,19.88-117.29,33.8
					c-6.65-6.68,7.31-19.11,9.55-26.34C499.1,35.59,500.27,36.21,500.24,37.24z"/>
				<path fill="#37333D" d="M464.68,55.03c3.93,0.94,5.94,2.42,6.01,4.45c1.35-2.89-3.91-6.19,1.06-9.3
					c-1.31,4.48,3.37,9.7,10.84,12.15C468.73,63.24,466.79,60.46,464.68,55.03z"/>
				<path fill="#37333D" d="M462.08,58.04c3.43,2.24,10.13,5.15,10.15,7.73C465.68,65.67,460.52,61.7,462.08,58.04z"/>
				<path fill="#37333D" d="M467.55,67.15l-15.52,0.84C457.07,65.38,463.25,67.22,467.55,67.15z"/>
			</g>
			<g>
				<path fill-rule="evenodd" clip-rule="evenodd" fill="#37333D" d="M521.46,94.77c20.77-12.03,43.18-18.13,66.62-18.13
					c16.67,0,33.73,3.12,50.72,9.27c17.01,6.16,33.95,15.37,50.37,27.38l16.2,12.35c-11.42-5.75-22.82-11.22-34.79-15.85
					c-23.33-9.03-46.15-15.77-71.44-15.77c-7.35,0-14.84,0.49-22.27,1.46c-32.61,4.24-60.54,22.55-85.38,55.99
					c-1.58,2.12-3.09,5.93-3.36,7.39c3.92,3.18,8.38,6.43,12.52,6.71c10.2,0.69,20.48,1.78,30.42,2.83
					c15.3,1.62,31.12,3.29,46.82,3.5c5.87,0.08,11.94,0.38,17.81,0.68c6.98,0.35,14.2,0.71,21.29,0.71
					c14.77,0,33.96-1.4,51.43-12.35c2.85-1.79,45.36-34.34,45.36-34.34l0.1-0.2c0.15-0.45-0.07-1.76-0.36-2.16
					c-3.64-2.77-7.18-5.56-10.6-8.26c-10.46-8.25-20.33-16.04-33.12-23.33c-7.14-4.07-14.76-7.55-22.32-10.76
					c-29.98-12.7-66.77-16.7-98.52-6.53c-23.97,7.68-44.84,23.76-60.4,42.85c-3.32,4.07-6.25,7.93-8.79,11.49
					C492.49,115.17,506.46,103.47,521.46,94.77z M552.15,107.25l-0.99,3.94c-6.11,24.22-0.26,40.07,19.54,52.99l6.33,4.13
					l-7.53-0.66c-6.11-0.54-11.95-0.99-17.6-1.43c-12.87-1.01-25.02-1.96-36.94-3.57c-4.9-0.66-13.44-2.8-14.95-8.02
					c-1.4-4.88,4.26-11.38,7.68-14.29c12.56-13,24.32-23.31,40.8-31.31L552.15,107.25z M621.49,157.88
					c-7.56,4.5-16.71,7.92-25.99,7.92c-12.59,0-24.61-5.55-33.4-13.42c-6.72-6.02-9.75-14.12-8.31-22.24
					c1.51-8.52,7.79-15.75,16.78-19.32c7.83-3.12,9.99-3.75,18.81-4.6l5.91-0.6l0.01,0.08c1.66-0.16,4.29-0.4,7.47-0.4
					c17.32,0,28.63,6.94,32.69,20.08l0.06,0.23C637.92,139.17,632.68,151.23,621.49,157.88z M694.25,136.96l-1.65,1.49
					c-11.67,10.53-22,17.77-32.5,22.79c-12.47,5.96-25.42,8.86-39.6,8.86h-0.01c-1.66,0-3.37-0.04-5.07-0.12l-7.15-0.34l6.39-3.24
					c22.1-11.21,30.7-27.44,27.89-52.63l-0.31-2.72l2.65,0.67c18.92,4.79,32.27,11.48,47.62,23.85L694.25,136.96z"/>
				<path fill="#37333D" d="M581.94,117.35c3.59-3.47,8.28-5.39,13.23-5.39c10.17,0,18.45,8.28,18.45,18.45
					c0,10.17-8.28,18.45-18.45,18.45c-4.94,0-9.64-1.91-13.23-5.38c-3.62-3.51-5.62-8.15-5.62-13.06
					C576.32,125.5,578.32,120.86,581.94,117.35z"/>
			</g>
		</g>
	</g>
</g>
</svg>
