<?xml version="1.0" encoding="utf-8"?>
<!-- Generator: Adobe Illustrator 23.0.6, SVG Export Plug-In . SVG Version: 6.00 Build 0)  -->
<svg version="1.1" id="Capa_1" xmlns="http://www.w3.org/2000/svg" xmlns:xlink="http://www.w3.org/1999/xlink" x="0px" y="0px"
	 viewBox="0 0 678.51 165.57" enable-background="new 0 0 678.51 165.57" xml:space="preserve">
<g>
	<g>
		<path fill-rule="evenodd" clip-rule="evenodd" fill="#674234" d="M658.74,17.69c-8.61-5.5-17.86-10.23-27.47-13.69
			c-7.44-2.68-16.84-5.67-24.64-2.91c-33.69,11.86-56.23,27.35-87.68,42.62c-16.33,7.93-34.45,14.87-53.34,17.22
			c-15.03,1.87-31.31-2.39-36.47,2.04C414,75.97,414.48,113.7,414.48,113.7s26.74,0.85,31.79,0.16
			c17.74-2.44,36.25-7.11,49.58-11.52c41.68-13.78,68.71-33.59,109.03-50.16c8.95-3.68,21.18-3.25,30.7-3.96
			c12.24-0.91,24.65-2.09,36.54-5.08C689.09,38.88,663.68,20.85,658.74,17.69z"/>
		<path fill-rule="evenodd" clip-rule="evenodd" fill="#674234" d="M249.37,62.99c-5.16-4.43-21.44-0.17-36.46-2.04
			c-18.89-2.35-37.01-9.29-53.35-17.22c-31.45-15.27-53.99-30.76-87.68-42.63c-7.81-2.75-17.21,0.24-24.64,2.91
			c-9.62,3.45-18.87,8.19-27.47,13.69c-4.94,3.16-30.35,21.18-13.37,25.45c11.88,2.99,24.29,4.18,36.54,5.08
			c9.52,0.71,21.75,0.28,30.7,3.96c40.31,16.57,67.35,36.38,109.03,50.16c13.33,4.41,31.85,9.07,49.58,11.52
			c5.05,0.69,31.79-0.16,31.79-0.16S264.5,75.97,249.37,62.99z"/>
	</g>
	<g>
		<g>
			<g>
				<path fill-rule="evenodd" clip-rule="evenodd" fill="#AC5F4A" d="M37.78,140.55C36.42,140,15.73,152.52,7.6,158.62
					c-0.65,0.48,30.82-13.15,31.65-14.65C38.82,142.83,38.81,140.97,37.78,140.55z"/>
				<path fill-rule="evenodd" clip-rule="evenodd" fill="#AC5F4A" d="M34.41,130.65c0.8,0.27,2.38-3.31,1.31-3.77
					c-9.7-4.22-19.51-8.32-29.4-12.26C5.34,114.24,25.86,127.77,34.41,130.65z"/>
				<path fill-rule="evenodd" clip-rule="evenodd" fill="#AC5F4A" d="M26.23,134.92c-1.58-0.54-3.24-1.62-4.73-1.55
					c-7.19,0.4-14.35,1.02-21.46,1.78C-1.27,135.29,25.47,135.75,26.23,134.92z"/>
			</g>
			<path fill-rule="evenodd" clip-rule="evenodd" fill="#674234" d="M117.03,113.9c-43.61-1.78-69.92,22.04-71.24,22.9
				c50.02-15.42,102.81-6.6,184.51,20.2C178.22,125.03,154.15,115.41,117.03,113.9z"/>
			<path fill-rule="evenodd" clip-rule="evenodd" fill="#AC5F4A" d="M225.69,160.19c-49.31,5.84-71.19,6.76-102.55,3.56
				c-36.84-3.75-54.64-14.61-55.6-15.04C106.7,159.05,152.5,161.28,225.69,160.19z"/>
			<path fill-rule="evenodd" clip-rule="evenodd" fill="#AC5F4A" d="M106.13,93.63c26.37-7.31,73.63-1.55,106.28,26.96
				c6.68,5.84,17.45,19.87,16.15,20.73c-83.02-80.87-168.03-22.75-170.2-23.63C59.61,116.67,68.89,103.96,106.13,93.63z"/>
		</g>
		<g>
			<g>
				<path fill-rule="evenodd" clip-rule="evenodd" fill="#AC5F4A" d="M639.26,143.97c0.43-1.14,0.44-2.99,1.46-3.42
					c1.37-0.55,22.06,11.97,30.19,18.07C671.55,159.1,640.08,145.46,639.26,143.97z"/>
				<path fill-rule="evenodd" clip-rule="evenodd" fill="#AC5F4A" d="M644.09,130.66c-0.79,0.27-2.37-3.31-1.31-3.77
					c9.7-4.21,19.51-8.31,29.4-12.26C673.17,114.24,652.64,127.77,644.09,130.66z"/>
				<path fill-rule="evenodd" clip-rule="evenodd" fill="#AC5F4A" d="M652.27,134.92c1.58-0.54,3.25-1.62,4.73-1.54
					c7.18,0.4,14.35,1.02,21.47,1.78C679.78,135.29,653.04,135.75,652.27,134.92z"/>
			</g>
			<path fill-rule="evenodd" clip-rule="evenodd" fill="#674234" d="M561.48,113.9c-37.13,1.51-61.19,11.13-113.26,43.1
				c81.69-26.8,134.49-35.63,184.51-20.2C631.4,135.94,605.08,112.12,561.48,113.9z"/>
			<path fill-rule="evenodd" clip-rule="evenodd" fill="#AC5F4A" d="M452.81,160.19c49.31,5.84,71.19,6.76,102.55,3.56
				c36.84-3.75,54.64-14.61,55.6-15.04C571.81,159.05,526.01,161.28,452.81,160.19z"/>
			<path fill-rule="evenodd" clip-rule="evenodd" fill="#AC5F4A" d="M572.36,93.63c-26.36-7.31-73.63-1.55-106.27,26.96
				c-6.67,5.84-17.45,19.87-16.15,20.72c83.02-80.87,168.03-22.75,170.19-23.63C618.9,116.67,609.61,103.96,572.36,93.63z"/>
		</g>
	</g>
</g>
</svg>
