<?xml version="1.0" encoding="utf-8"?>
<!-- Generator: Adobe Illustrator 23.0.6, SVG Export Plug-In . SVG Version: 6.00 Build 0)  -->
<svg version="1.1" id="Capa_1" xmlns="http://www.w3.org/2000/svg" xmlns:xlink="http://www.w3.org/1999/xlink" x="0px" y="0px"
	 viewBox="0 0 826.53 229.09" enable-background="new 0 0 826.53 229.09" xml:space="preserve">
<g>
	<g>
		<path fill-rule="evenodd" clip-rule="evenodd" fill="#37333D" d="M210.15,188.19c0,22.59-19.49,40.9-43.51,40.9
			c-24.04,0-43.5-18.31-43.5-40.9c0-22.58,19.47-33.56,43.5-33.56C190.67,154.63,210.15,165.6,210.15,188.19z"/>
		<path fill-rule="evenodd" clip-rule="evenodd" fill="#2D4B5E" d="M209.44,121.48c-30.47-15.15-88.96-14.81-134.36,21.2
			c-9.29,7.37-25.23,25.99-23.83,27.46c119.97-65.55,209.18,8.57,211.98,7.66C261.94,176.11,252.46,142.89,209.44,121.48z"/>
		<path fill-rule="evenodd" clip-rule="evenodd" fill="#37333D" d="M254.46,168.55c-43.94-38.67-84.34-41.43-130.04-26.55
			c-50.78,16.52-71.98,56.32-73.23,58.16c2.72,0.97,123.52-91.4,226.33-2.13C278.87,196.46,263.45,176.47,254.46,168.55z"/>
	</g>
	<g>
		<path fill-rule="evenodd" clip-rule="evenodd" fill="#37333D" d="M708.41,188.19c0,22.59-19.48,40.9-43.51,40.9
			c-24.03,0-43.51-18.3-43.51-40.89c0-22.58,19.48-33.56,43.51-33.56C688.93,154.63,708.41,165.6,708.41,188.19z"/>
		<path fill-rule="evenodd" clip-rule="evenodd" fill="#2D4B5E" d="M621.63,121.48c30.47-15.15,88.95-14.81,134.36,21.2
			c9.29,7.38,25.24,26,23.83,27.46c-127.15-74.95-200.93,4.97-214.41,9.92C566.7,178.37,578.6,142.89,621.63,121.48z"/>
		<path fill-rule="evenodd" clip-rule="evenodd" fill="#37333D" d="M706.64,142c-45.7-14.88-86.09-12.12-130.04,26.55
			c-8.99,7.91-24.41,27.91-23.05,29.49c102.8-89.26,223.61,3.1,226.32,2.13C778.62,198.33,757.43,158.52,706.64,142z"/>
	</g>
	<g>
		<path fill="#37333D" d="M114.37,140.05c-15.78,4.08-52.9,13.61-67.05,12c-24.7-2.82-30.08-10.72-30.35-8.47
			c-4.93,40.93,34.17,55.77,34.17,55.77c15.65-22.04,43.07-52.22,132.7-64.92C184.47,134.34,153.36,129.96,114.37,140.05z"/>
		<path fill="#37333D" d="M813.9,144.3c-0.27-2.25-5.65,5.64-30.35,8.47c-14.15,1.62-51.25-8-67.05-12
			c-40.18-10.18-69.8-6.21-69.18-6.12c89.63,12.7,116.75,43.38,132.4,65.42C779.72,200.07,818.83,185.23,813.9,144.3z"/>
	</g>
	<g>
		<path fill-rule="evenodd" clip-rule="evenodd" fill="#37333D" d="M298.44,21.94c-17.26-3.78-34.62-7.14-52.06-10
			C191.71,2.99,135.42-1.82,80.89,0.64C68.66,1.2,62.54,5.67,52.36,11.93C42.98,17.71-6.3,92.8,0.67,88.61
			c14.91-8.95,36.74-24.64,51.69-33.83c10.18-6.26,16.3-10.74,28.53-11.3c54.53-2.47,110.82,2.34,165.49,11.3
			c17.44,2.86,34.79,6.22,52.06,10c6.8,1.48,19.39,5.58,20.84,4.44c3.91-3.08-1.89-25.31-9.9-44.46
			C305.58,23.76,301.44,22.6,298.44,21.94z"/>
		<path fill-rule="evenodd" clip-rule="evenodd" fill="#37333D" d="M785.57,8.58c-8.85-5.64-25.75-7.08-36.53-7.58
			C694.15-1.55,637.6,3.15,582.58,12c-18.29,2.95-36.47,6.45-54.58,10.37c-2.59,0.56-6.09,1.52-9.41,2.39
			c-7.98,19.11-13.74,41.41-9.84,44.49c1.33,1.06,12.96-2.67,19.25-4.03c18.1-3.92,36.29-7.42,54.58-10.37
			c55.02-8.85,111.58-13.55,166.46-11.01c10.78,0.5,27.68,1.94,36.53,7.58c15.3,9.76,24.56,27.52,39.92,37
			C832.99,93.05,797.61,16.26,785.57,8.58z"/>
	</g>
</g>
</svg>
