<?xml version="1.0" encoding="utf-8"?>
<!-- Generator: Adobe Illustrator 23.0.6, SVG Export Plug-In . SVG Version: 6.00 Build 0)  -->
<svg version="1.1" id="Capa_1" xmlns="http://www.w3.org/2000/svg" xmlns:xlink="http://www.w3.org/1999/xlink" x="0px" y="0px"
	 viewBox="0 0 668.14 189.89" enable-background="new 0 0 668.14 189.89" xml:space="preserve">
<g>
	<g>
		<g>
			<path fill-rule="evenodd" clip-rule="evenodd" fill="#674234" d="M613.14,144.84c-39.38,30.45-82.38,33.28-126.24,21.93
				c-10.93-2.83-27.07-10.7-41.61-18.64c11.32,8.73,41.78,30.28,58.16,35.4c36.38,11.36,72.05,8.55,104.72-21.9
				c4.99-4.64,10.92-21.01,10.23-23.09C616.7,141.19,614.87,143.5,613.14,144.84z"/>
		</g>
		<path fill-rule="evenodd" clip-rule="evenodd" fill="#674234" d="M409.76,36.49c0.3,0.16,42.55-14.06,50.13-16.84
			c15.06-4.18,89.15-25.37,123.14-18.18c24.67,5.22,65.23,42.71,65.55,43.52c-1.09,0.28-9.45-0.53-15.26-1.83
			c8.56,10.42,34.18,33.35,34.82,36.13c-2.95-0.57-5.93-1.04-8.86-1.7c-21.99-5-36.8-11.78-59.16-14.64
			c-27.42-3.5-55.43-5.26-83.12-4.81c-15.85,0.26-62.79,7.07-84.5,10.01C414.54,62.31,395.59,48.51,409.76,36.49z"/>
	</g>
	<g>
		<g>
			<path fill-rule="evenodd" clip-rule="evenodd" fill="#674234" d="M58.98,146.97c40.8,29.39,84.78,31.12,129.39,18.69
				c11.12-3.1,27.46-11.36,42.17-19.65c-11.41,8.99-42.13,31.26-58.77,36.78c-36.97,12.26-73.47,10.35-107.4-19.2
				c-5.18-4.51-11.54-20.68-10.87-22.78C55.28,143.42,57.18,145.68,58.98,146.97z"/>
		</g>
		<path fill-rule="evenodd" clip-rule="evenodd" fill="#674234" d="M258.26,36.67c-0.29,0.17-39.61-13.58-50.16-16.71
			C194.69,15.91,119.83-5.19,85.86,2.08C61.2,7.36,20.74,44.95,20.41,45.76c1.09,0.28,9.45-0.56,15.26-1.87
			C27.14,54.33,0.64,77.33,0,80.1c2.95-0.57,5.93-1.06,8.85-1.73c21.98-5.05,36.77-11.87,59.12-14.78
			c27.41-3.57,55.42-5.4,83.11-5.01c15.85,0.23,66.4,7.1,84.52,9.8C246.89,68.26,276.86,53.45,258.26,36.67z"/>
	</g>
</g>
</svg>
