<?xml version="1.0" encoding="utf-8"?>
<!-- Generator: Adobe Illustrator 23.0.6, SVG Export Plug-In . SVG Version: 6.00 Build 0)  -->
<svg version="1.1" id="Capa_1" xmlns="http://www.w3.org/2000/svg" xmlns:xlink="http://www.w3.org/1999/xlink" x="0px" y="0px"
	 viewBox="0 0 828.04 153.17" enable-background="new 0 0 828.04 153.17" xml:space="preserve">
<g>
	<g>
		<g>
			<path fill-rule="evenodd" clip-rule="evenodd" fill="#37333D" d="M205.05,141.26c4.4-6.76,6.97-14.82,6.97-23.49
				c0-23.93-19.49-35.56-43.51-35.56s-43.51,11.63-43.51,35.56c0,8.67,2.57,16.73,6.97,23.49H205.05z"/>
			<path fill-rule="evenodd" clip-rule="evenodd" fill="#2D4B5E" d="M211.31,74.37c-30.47-16.06-88.95-15.7-134.36,22.47
				c-9.29,7.81-25.23,27.54-23.82,29.1c119.96-69.46,209.17,9.08,211.99,8.12C263.81,132.26,254.34,97.05,211.31,74.37z"/>
			<path fill-rule="evenodd" clip-rule="evenodd" fill="#37333D" d="M256.33,123.49C212.39,84.58,172,81.8,126.3,96.77
				c-50.78,16.62-71.99,45.97-73.24,47.83c2.72,0.97,123.52-81.27,226.33,8.56C280.75,151.58,265.32,131.46,256.33,123.49z"/>
			<path fill="#37333D" d="M116.25,94.81c-15.78,4.11-52.9,13.7-67.04,12.07c-24.7-2.84-30.08-10.79-30.35-8.52
				c-4.94,41.19,34.17,48.09,34.17,48.09c15.66-22.17,43.07-44.51,132.7-57.29C186.34,89.07,155.23,84.66,116.25,94.81z"/>
		</g>
		<g>
			<path fill-rule="evenodd" clip-rule="evenodd" fill="#37333D" d="M700.28,141.26c4.4-6.76,6.97-14.82,6.97-23.49
				c0-23.93-19.48-35.56-43.51-35.56c-24.03,0-43.52,11.63-43.52,35.56c0,8.67,2.57,16.73,6.98,23.49H700.28z"/>
			<path fill-rule="evenodd" clip-rule="evenodd" fill="#2D4B5E" d="M620.95,74.37c30.47-16.06,88.96-15.7,134.36,22.47
				c9.29,7.81,25.23,27.54,23.82,29.1c-119.97-69.46-209.17,9.08-211.98,8.12C568.45,132.26,577.92,97.05,620.95,74.37z"/>
			<path fill-rule="evenodd" clip-rule="evenodd" fill="#37333D" d="M575.92,123.49c43.95-38.91,84.34-41.68,130.04-26.71
				c50.79,16.62,71.98,45.96,73.24,47.82c-2.72,0.97-123.52-81.26-226.33,8.56C551.52,151.58,566.94,131.46,575.92,123.49z"/>
			<path fill="#37333D" d="M716.01,94.81c15.77,4.11,52.9,13.7,67.04,12.07c24.7-2.84,30.08-10.79,30.35-8.52
				c4.94,41.19-34.17,48.1-34.17,48.1c-15.65-22.18-43.07-44.52-132.7-57.3C645.92,89.07,677.02,84.66,716.01,94.81z"/>
		</g>
	</g>
	<g>
		<path fill-rule="evenodd" clip-rule="evenodd" fill="#37333D" d="M283.29,62.3c-21.96-1.48-45.06-5.61-61.79-9.87
			c-52.31-13.32-87.18-35.3-138.04-52.17C72.17-3.48-17.97,33.9,3.21,37.68c14.84,2.64,30.15,3.03,45.25,3.1
			c11.74,0.05,26.7-1.52,37.99,2.22c50.86,16.87,85.73,38.85,138.03,52.17c16.73,4.26,39.84,8.4,61.8,9.88
			c6.25,0.41,38.98-2.92,38.98-2.92s-1.34-23.35-9.17-42.13C306.3,60.93,287.83,62.61,283.29,62.3z"/>
		<path fill-rule="evenodd" clip-rule="evenodd" fill="#37333D" d="M744.58,0.26c-50.86,16.87-85.73,38.84-138.03,52.17
			c-16.73,4.26-39.84,8.39-61.8,9.87c-4.53,0.31-23-1.37-32.8-2.31c-7.83,18.78-9.17,42.13-9.17,42.13s32.73,3.34,38.98,2.92
			c21.95-1.48,45.07-5.62,61.8-9.88c52.31-13.32,87.17-35.3,138.03-52.16c11.29-3.74,26.26-2.17,37.99-2.23
			c15.1-0.06,30.42-0.45,45.26-3.1C846.02,33.9,755.87-3.48,744.58,0.26z"/>
	</g>
</g>
</svg>
