<?xml version="1.0" encoding="utf-8"?>
<!-- Generator: Adobe Illustrator 23.0.6, SVG Export Plug-In . SVG Version: 6.00 Build 0)  -->
<svg version="1.1" id="Capa_1" xmlns="http://www.w3.org/2000/svg" xmlns:xlink="http://www.w3.org/1999/xlink" x="0px" y="0px"
	 viewBox="0 0 832.01 226.93" style="enable-background:new 0 0 832.01 226.93;" xml:space="preserve">
<style type="text/css">
	.st0{fill-rule:evenodd;clip-rule:evenodd;fill:#37333D;}
	.st1{fill:#37333D;}
	.st2{fill-rule:evenodd;clip-rule:evenodd;fill:#2D4B5E;}
	.st3{fill-rule:evenodd;clip-rule:evenodd;fill:#CF8362;}
	.st4{fill-rule:evenodd;clip-rule:evenodd;fill:#325568;}
	.st5{fill:#674234;}
	.st6{fill-rule:evenodd;clip-rule:evenodd;fill:#674234;}
	.st7{fill-rule:evenodd;clip-rule:evenodd;fill:#AC5F4A;}
	.st8{fill:#FC2B0E;}
	.st9{fill:#FF3F20;}
	.st10{fill:#CC1305;}
	.st11{fill:#E02008;}
	.st12{fill:#EC1C24;}
</style>
<g>
	<g>
		<g>
			<path class="st3" d="M792.79,192.28c11.14-1.31,40.47-13.76,39.18-13.53c-13.14,2.37-26.24,4.99-39.25,7.79
				C791.3,186.84,791.75,192.41,792.79,192.28z"/>
			<path class="st3" d="M831.34,209.72c-8.05-3.37-16.2-6.56-24.48-9.45c-1.71-0.59-4.08,0.4-6.14,0.66
				C801.29,202.36,832.83,210.34,831.34,209.72z"/>
		</g>
		<path class="st4" d="M709.14,131.17c-32.87-8.86-90.93-5.82-128.54,37.06c-7.45,8.5-27.39,40.9-25.79,41.97
			c139.62-76.49,210.75-47.84,213.5-49.02C766.8,159.88,755.57,143.67,709.14,131.17z"/>
		<path class="st0" d="M691.84,152.05c-45.15,2.25-68.5,6.53-137.86,58.42c101.12-27.03,161.96-24.09,224.14-27.29
			C776.53,182,744.87,149.41,691.84,152.05z"/>
		<path class="st3" d="M557.71,215.94c59.65,10.63,86.2,12.9,124.49,9.56c44.98-3.92,67.17-19.05,68.36-19.63
			C702.44,219.32,646.65,220.64,557.71,215.94z"/>
		<path class="st1" d="M806.49,127.24c-0.56-2.05-15.23,11.33-42.76,19.74c-8.46,2.58-13.03,4.06-48.05,5.63
			c-68.05,3.05-95.48,16.47-94.86,16.42c90.3-6.22,136.91-2.69,156.62,14.41C777.44,183.44,818.7,172.29,806.49,127.24z"/>
	</g>
	<g>
		<g>
			<path class="st3" d="M39.22,192.27c-11.15-1.3-40.48-13.75-39.18-13.52c13.14,2.37,26.24,4.99,39.25,7.79
				C40.71,186.84,40.25,192.41,39.22,192.27z"/>
			<path class="st3" d="M0.66,209.72c8.06-3.37,16.2-6.56,24.48-9.45c1.72-0.59,4.09,0.4,6.14,0.66
				C30.73,202.36-0.82,210.34,0.66,209.72z"/>
		</g>
		<path class="st4" d="M122.86,131.17c32.87-8.86,90.94-5.82,128.54,37.06c7.46,8.5,27.4,40.9,25.78,41.97
			c-139.62-76.49-210.75-47.84-213.5-49.02C65.21,159.88,76.43,143.67,122.86,131.17z"/>
		<path class="st0" d="M140.18,152.05c45.14,2.25,68.49,6.53,137.85,58.42c-101.11-27.03-161.95-24.09-224.13-27.29
			C55.48,182,87.14,149.41,140.18,152.05z"/>
		<path class="st3" d="M274.3,215.94c-59.65,10.63-86.19,12.9-124.49,9.56c-44.98-3.92-67.17-19.05-68.36-19.63
			C129.57,219.32,185.36,220.64,274.3,215.94z"/>
		<path class="st1" d="M25.52,127.24c0.56-2.05,15.22,11.33,42.77,19.74c8.45,2.58,13.02,4.06,48.04,5.63
			c68.05,3.05,95.47,16.47,94.86,16.42c-90.3-6.22-136.91-2.69-156.62,14.41C54.57,183.44,13.31,172.29,25.52,127.24z"/>
	</g>
	<g>
		<path class="st0" d="M744.12,0.45c-49.56,20.37-82.81,44.74-134.06,61.67c-16.4,5.42-39.16,11.15-60.96,14.16
			c-4.5,0.62-23.05,0.23-32.88-0.02c-6.49,19.28-6.2,42.66-6.2,42.66s32.88,1.05,39.09,0.2c21.8-3,44.57-8.74,60.96-14.16
			c51.25-16.94,84.49-41.29,134.06-61.67c11.01-4.52,26.04-4,37.75-4.87c15.05-1.12,30.31-2.57,44.93-6.25
			C847.67,26.93,755.13-4.07,744.12,0.45z"/>
		<path class="st0" d="M285.94,76.28c-21.8-3.01-44.56-8.74-60.96-14.16c-51.25-16.93-84.5-41.3-134.06-61.67
			c-11-4.52-103.54,26.48-82.66,31.73c14.61,3.67,29.87,5.13,44.93,6.25c11.7,0.87,26.74,0.35,37.74,4.87
			c49.56,20.37,82.81,44.73,134.06,61.67c16.4,5.42,39.16,11.16,60.96,14.16c6.21,0.86,39.09-0.2,39.09-0.2s0.28-23.39-6.2-42.66
			C308.98,76.51,290.43,76.9,285.94,76.28z"/>
	</g>
</g>
</svg>
