<?xml version="1.0" encoding="utf-8"?>
<!-- Generator: Adobe Illustrator 23.0.6, SVG Export Plug-In . SVG Version: 6.00 Build 0)  -->
<svg version="1.1" id="Capa_1" xmlns="http://www.w3.org/2000/svg" xmlns:xlink="http://www.w3.org/1999/xlink" x="0px" y="0px"
	 viewBox="0 0 737.63 192.71" style="enable-background:new 0 0 737.63 192.71;" xml:space="preserve">
<style type="text/css">
	.st0{fill-rule:evenodd;clip-rule:evenodd;fill:#37333D;}
	.st1{fill:#37333D;}
	.st2{fill-rule:evenodd;clip-rule:evenodd;fill:#2D4B5E;}
	.st3{fill-rule:evenodd;clip-rule:evenodd;fill:#CF8362;}
	.st4{fill-rule:evenodd;clip-rule:evenodd;fill:#325568;}
	.st5{fill:#674234;}
	.st6{fill-rule:evenodd;clip-rule:evenodd;fill:#674234;}
	.st7{fill-rule:evenodd;clip-rule:evenodd;fill:#AC5F4A;}
	.st8{fill:#FC2B0E;}
	.st9{fill:#FF3F20;}
	.st10{fill:#CC1305;}
	.st11{fill:#E02008;}
	.st12{fill:#EC1C24;}
</style>
<g>
	<g>
		<path class="st1" d="M465.99,60.83c9.65,3.79,31.8,3.17,39.92,1.3c8.12-1.87,13.76-5.33,18.18-7.49
			c48.19-23.58,126.74-53.7,213.54-21.23c0,0-42.45-39.96-124.26-32.47S454.96,56.49,465.99,60.83z"/>
		<path class="st1" d="M271.63,60.83c-9.64,3.79-31.8,3.17-39.91,1.3c-8.12-1.87-13.76-5.33-18.18-7.49
			C165.35,31.05,86.79,0.93,0,33.4c0,0,42.45-39.96,124.26-32.47C206.06,8.43,282.66,56.49,271.63,60.83z"/>
	</g>
	<g>
		<g>
			<path class="st1" d="M45.46,138.63c0,0,101.8-117.05,198.44,25.15C243.91,163.78,78.6,218.01,45.46,138.63z M255.27,166.28
				c0,0-62.83-115.94-167.06-91.81c-18.57,4.3-46.24,14.31-77.31,57.76C10.9,132.23,10.9,241.52,255.27,166.28z"/>
			<path class="st1" d="M194.45,131.94c0,27.35-22.18,49.52-49.53,49.52c-27.35,0-49.52-22.17-49.52-49.52
				c0-27.35,22.17-49.53,49.52-49.53C172.27,82.42,194.45,104.59,194.45,131.94z"/>
		</g>
		<g>
			<path class="st1" d="M497.75,163.78c96.64-142.2,197.56-25.15,197.56-25.15C662.18,218.01,497.75,163.78,497.75,163.78z
				 M729.87,132.23c-31.07-43.45-58.74-53.46-77.31-57.76C548.33,50.34,485.5,166.28,485.5,166.28
				C729.87,241.52,729.87,132.23,729.87,132.23z"/>
			<path class="st1" d="M645.97,133.94c0,27.35-22.18,49.52-49.53,49.52c-27.35,0-49.52-22.17-49.52-49.52
				c0-27.35,22.17-49.52,49.52-49.52C623.79,84.42,645.97,106.59,645.97,133.94z"/>
		</g>
	</g>
</g>
</svg>
