<?xml version="1.0" encoding="utf-8"?>
<!-- Generator: Adobe Illustrator 23.0.6, SVG Export Plug-In . SVG Version: 6.00 Build 0)  -->
<svg version="1.1" id="Capa_1" xmlns="http://www.w3.org/2000/svg" xmlns:xlink="http://www.w3.org/1999/xlink" x="0px" y="0px"
	 viewBox="0 0 647.39 187.9" style="enable-background:new 0 0 647.39 187.9;" xml:space="preserve">
<style type="text/css">
	.st0{fill-rule:evenodd;clip-rule:evenodd;fill:#37333D;}
	.st1{fill:#37333D;}
	.st2{fill-rule:evenodd;clip-rule:evenodd;fill:#2D4B5E;}
	.st3{fill-rule:evenodd;clip-rule:evenodd;fill:#CF8362;}
	.st4{fill-rule:evenodd;clip-rule:evenodd;fill:#325568;}
	.st5{fill:#674234;}
	.st6{fill-rule:evenodd;clip-rule:evenodd;fill:#674234;}
	.st7{fill-rule:evenodd;clip-rule:evenodd;fill:#AC5F4A;}
	.st8{fill:#FC2B0E;}
	.st9{fill:#FF3F20;}
	.st10{fill:#CC1305;}
	.st11{fill:#E02008;}
	.st12{fill:#EC1C24;}
</style>
<g>
	<g>
		<path class="st6" d="M640.51,79.97c-4.52-9.16-10-17.99-16.45-25.92c-4.98-6.13-11.48-13.55-19.59-15.23
			c-34.97-7.25-62.27-5.65-97.1-8.83c-18.08-1.65-37.18-5.08-54.57-12.83c-13.83-6.16-25.57-18.22-32.27-17.1
			c-19.66,3.3-37.92,38.64-37.92,38.64s21.61,11.75,26.3,13.76c16.44,7.06,34.7,12.64,48.39,15.76
			c42.8,9.75,76.18,6.77,119.26,13.41c9.56,1.48,19.81,8.16,28.33,12.48c10.95,5.55,22.18,10.95,33.91,14.53
			C655.54,113.79,643.11,85.23,640.51,79.97z"/>
		<path class="st6" d="M226.85,0.07c-6.71-1.12-18.44,10.93-32.27,17.1c-17.39,7.75-36.49,11.18-54.57,12.83
			c-34.83,3.18-62.12,1.57-97.09,8.83c-8.11,1.68-14.61,9.09-19.59,15.23C16.88,61.98,11.4,70.81,6.88,79.97
			c-2.6,5.25-15.04,33.82,1.7,28.7c11.72-3.58,22.95-8.99,33.91-14.54c8.51-4.32,18.76-11,28.33-12.47
			c43.07-6.65,76.46-3.67,119.26-13.42c13.69-3.12,31.95-8.7,48.4-15.77c4.68-2.02,26.29-13.76,26.29-13.76S246.52,3.37,226.85,0.07
			z"/>
	</g>
	<g>
		<g>
			<path class="st6" d="M156.45,152.52c0,19.54-15.84,35.38-35.38,35.38c-19.54,0-35.38-15.84-35.38-35.38
				c0-19.54,15.84-29.04,35.38-29.04C140.6,123.48,156.45,132.97,156.45,152.52z"/>
			<path class="st6" d="M192.48,145.45C156.75,114,123.9,111.76,86.73,123.86c-41.3,13.44-58.55,45.81-59.56,47.31
				c2.21,0.79,100.46-74.33,184.07-1.74C212.33,168.15,199.79,151.88,192.48,145.45z"/>
			<path class="st7" d="M155.87,107.17c-24.78-12.32-72.35-12.05-109.28,17.25c-7.56,6-20.52,21.14-19.38,22.33
				c95.33-84.4,169.46-3.7,171.74-4.43C197.9,140.94,190.87,124.58,155.87,107.17z"/>
		</g>
		<g>
			<path class="st6" d="M561.68,152.51c0,19.55-15.84,35.38-35.38,35.39c-19.54,0-35.39-15.84-35.39-35.39
				c0-19.54,15.85-29.03,35.39-29.03C545.84,123.48,561.68,132.97,561.68,152.51z"/>
			<path class="st6" d="M560.25,123.86c-37.17-12.1-70.02-9.86-105.76,21.59c-7.31,6.43-19.86,22.7-18.75,23.98
				c83.61-72.6,181.86,2.52,184.07,1.73C618.79,169.67,601.55,137.29,560.25,123.86z"/>
			<path class="st7" d="M491.11,107.17c24.78-12.32,72.34-12.05,109.27,17.25c7.56,5.99,20.53,21.14,19.38,22.33
				c-95.33-84.4-169.45-3.7-171.74-4.43C449.08,140.94,456.11,124.58,491.11,107.17z"/>
		</g>
	</g>
</g>
</svg>
