<?xml version="1.0" encoding="utf-8"?>
<!-- Generator: Adobe Illustrator 23.0.6, SVG Export Plug-In . SVG Version: 6.00 Build 0)  -->
<svg version="1.1" id="Capa_1" xmlns="http://www.w3.org/2000/svg" xmlns:xlink="http://www.w3.org/1999/xlink" x="0px" y="0px"
	 viewBox="0 0 768.68 165.53" enable-background="new 0 0 768.68 165.53" xml:space="preserve">
<g>
	<g>
		<g>
			<path fill-rule="evenodd" clip-rule="evenodd" fill="#37333D" d="M689.49,91.59c0,0-131.72-49.53-201.62,60.04
				c0,0,158.64-89.48,210.75-6.2c0,0,19.67-24.82,33.92-72.81C732.54,72.63,711.02,98.77,689.49,91.59z"/>
			<path fill-rule="evenodd" clip-rule="evenodd" fill="#37333D" d="M79.19,91.59c-21.53,7.18-43.06-18.96-43.06-18.96
				c14.25,47.99,33.92,72.81,33.92,72.81c52.12-83.29,210.76,6.2,210.76,6.2C210.91,42.06,79.19,91.59,79.19,91.59z"/>
		</g>
		<g>
			<g>
				<path fill="#37333D" d="M247.92,50.75c-12.39-12.37-40.74-19.49-60.24-28.34c-18.75-8.51-35.41-16.95-57.72-19.94
					C87.64-3.22,24.68,9.68,0,33.47c47.85-20.18,108.05-14.71,154.04-0.53c38.65,11.92,69.98,32.29,109.31,42.93
					c6.57-9.29-9.77-17.68-11.98-27.74C249.04,48.46,247.89,49.33,247.92,50.75z"/>
				<path fill="#37333D" d="M129.96,2.47C132.7,2.84,89.12-3.03,129.96,2.47L129.96,2.47z"/>
				<path fill="#37333D" d="M284.04,68.6c-3.88,1.3-5.86,3.37-5.94,6.19c-1.34-4.02,3.87-8.61-1.05-12.94
					c1.3,6.23-3.33,13.5-10.71,16.91C280.04,80.01,281.96,76.14,284.04,68.6z"/>
				<path fill="#37333D" d="M286.61,72.78c-3.39,3.12-10.02,7.17-10.03,10.75C283.06,83.4,288.14,77.87,286.61,72.78z"/>
				<path fill="#37333D" d="M281.2,85.45l15.33,1.18C291.56,82.99,285.45,85.55,281.2,85.45z"/>
			</g>
			<g>
				<path fill="#37333D" d="M638.72,2.36C679.56-3.13,635.97,2.73,638.72,2.36L638.72,2.36z"/>
				<path fill="#37333D" d="M638.72,2.36c-22.31,3-38.96,11.43-57.72,19.94c-19.5,8.85-47.85,15.96-60.24,28.34
					c0.03-1.42-1.13-2.3-3.46-2.62c-2.21,10.06-18.55,18.45-11.98,27.74c39.34-10.64,70.67-31.01,109.31-42.93
					c45.99-14.18,106.19-19.66,154.04,0.53C744,9.57,681.04-3.33,638.72,2.36z"/>
				<path fill="#37333D" d="M491.63,61.74c-4.92,4.32,0.28,8.92-1.05,12.94c-0.07-2.82-2.06-4.89-5.94-6.19
					c2.08,7.54,4,11.41,17.7,10.16C494.95,75.24,490.32,67.97,491.63,61.74z"/>
				<path fill="#37333D" d="M482.06,72.67c-1.53,5.08,3.56,10.61,10.03,10.76C492.08,79.84,485.45,75.79,482.06,72.67z"/>
				<path fill="#37333D" d="M472.14,86.51l15.33-1.18C483.22,85.44,477.12,82.88,472.14,86.51z"/>
			</g>
		</g>
	</g>
	<path fill-rule="evenodd" clip-rule="evenodd" fill="#37333D" d="M196.17,130.56c0,19.31-15.65,34.97-34.97,34.97
		c-19.31,0-34.97-15.66-34.97-34.97s15.65-34.97,34.97-34.97C180.52,95.59,196.17,111.25,196.17,130.56z"/>
	<path fill-rule="evenodd" clip-rule="evenodd" fill="#37333D" d="M641.64,130.56c0,19.31-15.65,34.97-34.97,34.97
		c-19.31,0-34.97-15.66-34.97-34.97s15.66-34.97,34.97-34.97C625.99,95.59,641.64,111.25,641.64,130.56z"/>
</g>
</svg>
