<?xml version="1.0" encoding="utf-8"?>
<!-- Generator: Adobe Illustrator 23.0.6, SVG Export Plug-In . SVG Version: 6.00 Build 0)  -->
<svg version="1.1" id="Capa_1" xmlns="http://www.w3.org/2000/svg" xmlns:xlink="http://www.w3.org/1999/xlink" x="0px" y="0px"
	 viewBox="0 0 693.91 189.64" style="enable-background:new 0 0 693.91 189.64;" xml:space="preserve">
<style type="text/css">
	.st0{fill-rule:evenodd;clip-rule:evenodd;fill:#37333D;}
	.st1{fill:#37333D;}
	.st2{fill-rule:evenodd;clip-rule:evenodd;fill:#2D4B5E;}
	.st3{fill-rule:evenodd;clip-rule:evenodd;fill:#CF8362;}
	.st4{fill-rule:evenodd;clip-rule:evenodd;fill:#325568;}
	.st5{fill:#674234;}
	.st6{fill-rule:evenodd;clip-rule:evenodd;fill:#674234;}
	.st7{fill-rule:evenodd;clip-rule:evenodd;fill:#AC5F4A;}
	.st8{fill:#FC2B0E;}
	.st9{fill:#FF3F20;}
	.st10{fill:#CC1305;}
	.st11{fill:#E02008;}
	.st12{fill:#EC1C24;}
</style>
<g>
	<path class="st5" d="M226.47,25.54c-19.09-16.68-50.61-13.06-74.56-18.35c-23.04-5.09-44-11.36-67.3-3.37
		C40.39,18.97,21.32,48.22,0,83.67c48.48-9.18,72.77-34.07,125.42-34.76c44.24-0.58,86.26,20.06,130.43,16.55
		c1.02-22.42-19.61-28.77-27.52-47.24C226.25,20.3,225.63,22.74,226.47,25.54z"/>
	<path class="st5" d="M271.68,38.21c-3.01,5-3.73,10.3-2.19,15.92c-3.6-7.09-1.21-19.4-8.45-24.86c4.84,11.47,4.54,28.7-0.65,40.02
		C274.36,63.22,274.01,54.39,271.68,38.21z"/>
	<path class="st5" d="M273.05,72.33c6.18-4.32,7.93-18.39,3.52-27.46C275.09,53.13,271.01,65.25,273.05,72.33z"/>
	<path class="st5" d="M568.49,48.91c52.65,0.69,76.94,25.58,125.42,34.76c-21.32-35.45-40.39-64.7-84.61-79.85
		c-23.3-8-44.26-1.73-67.3,3.37c-23.96,5.3-55.47,1.67-74.56,18.35c0.84-2.8,0.23-5.24-1.84-7.32
		c-7.92,18.47-28.54,24.82-27.53,47.24C482.23,68.97,524.25,48.33,568.49,48.91z"/>
	<path class="st5" d="M432.86,29.27c-7.24,5.46-4.85,17.76-8.45,24.86c1.55-5.61,0.82-10.92-2.18-15.92
		c-2.33,16.17-2.68,25.01,11.28,31.08C428.32,57.97,428.03,40.74,432.86,29.27z"/>
	<path class="st5" d="M420.86,72.33c2.04-7.08-2.04-19.2-3.53-27.46C412.93,53.94,414.68,68.01,420.86,72.33z"/>
	<path class="st5" d="M610.73,101.24c-23.51-13.18-46.05-22.03-75.91-21.28c-15.32-0.5-21.23,2.23-34.66,7.38
		c-29.56,15.94-56.59,59.19-56.94,65.78c47.45-72.97,104.54-78.57,169.49-36.43c-0.98-0.37-1.98-0.66-2.92-1.12
		c-24.21-11.69-49.86-15.67-75.9-12.09c-30.56,4.21-52.88,23.56-70.78,49.07c-1.67,2.38-3.65,7.63-2.93,8.25
		c3.36,2.9,7.5,6.27,11.55,6.55c21.17,1.51,42.39,2.64,63.6,2.94c24.7,0.35,50.14,7.75,73.51-7.75c2.7-1.79,11.26-6.79,14.01-7.12
		c-12.22,14.36-16.17,17.2-26.64,21.7c-11.94,5.14-24.3,8.01-36.48,12.51c6.66-0.21,54.11-4.1,67.69-17.25
		c10.92-11.09,16.78-24.57,19.96-39.8c0.47-0.95,0.07-3.26-0.69-3.87C634.85,119.22,624.84,109.75,610.73,101.24z M483.71,161.58
		c-7.19-1.03-10.41-11.77-5.09-16.47c10.15-11.13,19.65-19.97,32.95-26.8c-0.02,0.11-0.04,0.21-0.07,0.32
		c-4.14,3.15-2.32,8.14-2.32,16.94c0,9.38,3.23,17.44,10.54,23.18c2.36,2.49,5.16,4.88,8.47,7.16
		C511.7,164.38,497.63,163.58,483.71,161.58z M565.65,167.91c2.4-1.29,4.61-2.66,6.63-4.1c7.3-3.86,11.25-10,13.81-16.43
		c0.95-2.14,1.7-4.39,2.27-6.74c0.36-1.25,0.69-2.48,1.01-3.68c1.27-4.74,1.23-8.58,0.24-11.71c-0.07-1.46-0.18-2.96-0.34-4.49
		c15.81,4.24,26.46,10.2,38.31,20.31C609.96,157.88,591.82,169.23,565.65,167.91z"/>
	<path class="st5" d="M250.69,153.13c-0.35-6.59-27.38-49.84-56.94-65.78c-13.43-5.15-19.34-7.89-34.66-7.38
		c-29.86-0.75-52.4,8.1-75.91,21.28c-14.12,8.51-24.13,17.98-35.96,27.48c-0.76,0.62-1.16,2.93-0.69,3.87
		c3.19,15.22,9.05,28.7,19.96,39.8c13.58,13.15,61.03,17.04,67.69,17.25c-12.18-4.5-24.54-7.38-36.48-12.51
		c-10.46-4.5-8.94-3.5-26.64-21.7c2.75,0.33,11.31,5.33,14.01,7.12c23.37,15.5,48.81,8.1,73.51,7.75c21.21-0.3,42.43-1.43,63.6-2.94
		c4.05-0.29,8.2-3.65,11.56-6.55c0.71-0.62-1.26-5.87-2.94-8.25c-17.9-25.51-40.22-44.86-70.78-49.07
		c-26.04-3.58-51.69,0.4-75.9,12.09c-0.94,0.46-1.94,0.75-2.91,1.12C146.15,74.56,203.24,80.16,250.69,153.13z M215.29,145.12
		c5.32,4.7,2.11,15.43-5.09,16.47c-13.92,2-27.99,2.8-44.48,4.32c10.93-7.55,16.45-16.19,18.04-26.26c0.21-0.76,0.42-1.53,0.63-2.29
		c1.71-6.38,1.06-11.13-1.14-14.68c-0.26-1.43-0.56-2.89-0.91-4.37C195.64,125.15,205.14,133.99,215.29,145.12z M104.64,120.76
		c-0.02,0.2-0.04,0.39-0.06,0.59c-1.52,3.17-0.39,7.73-0.39,14.63c0,10.5,4.72,19.88,14.56,25.61c2.75,2.29,5.91,4.39,9.51,6.32
		c-26.18,1.32-44.32-10.03-61.93-26.84C78.18,130.96,88.83,125,104.64,120.76z"/>
</g>
</svg>
