<?xml version="1.0" encoding="utf-8"?>
<!-- Generator: Adobe Illustrator 23.0.6, SVG Export Plug-In . SVG Version: 6.00 Build 0)  -->
<svg version="1.1" id="Capa_1" xmlns="http://www.w3.org/2000/svg" xmlns:xlink="http://www.w3.org/1999/xlink" x="0px" y="0px"
	 viewBox="0 0 724.84 217.69" enable-background="new 0 0 724.84 217.69" xml:space="preserve">
<g>
	<g>
		<g>
			<path fill-rule="evenodd" clip-rule="evenodd" fill="#674234" d="M653.28,187.32c-35,33.02-73.18,36.03-112.11,23.64
				c-21.54-6.86-65.82-30.65-66.87-32.38c2.28-0.92,31.79,11.27,44.66,15.55c47.12,15.67,93.97,23.8,136.96-22.06
				c2.87-3.06,5.51-6.63,8.26-9.96C665.33,163.6,658.76,182.16,653.28,187.32z"/>
			<path fill-rule="evenodd" clip-rule="evenodd" fill="#674234" d="M672,159.78c0.63-1.5,0.96-4.07,2.08-4.49
				c1.49-0.55,20.37,20.07,27.6,29.79C702.24,185.86,672.57,161.98,672,159.78z"/>
			<path fill-rule="evenodd" clip-rule="evenodd" fill="#674234" d="M679.2,142.19c-0.84,0.24-1.84-4.95-0.68-5.41
				c10.59-4.25,21.27-8.32,32.02-12.17C711.59,124.23,688.39,139.59,679.2,142.19z"/>
			<path fill-rule="evenodd" clip-rule="evenodd" fill="#674234" d="M686.78,149.39c1.7-0.49,3.58-1.72,5.08-1.37
				c7.24,1.7,14.41,3.72,21.52,5.91C714.69,154.34,687.41,150.67,686.78,149.39z"/>
			<path fill-rule="evenodd" clip-rule="evenodd" fill="#674234" d="M655.12,126.72c-23.42-22.44-51.87-32.61-79.26-35.96
				c-45.62,0-77.92,18.32-105.97,46.44c-2.14,2.14-1.3,8.4-0.12,12.23c0.56,1.85,5.03,3.19,7.87,3.53
				c12.26,1.43,24.57,3.21,36.88,3.37c27.57,0.35,55.26,1.29,82.68-0.87c18.53-1.46,36.91-6.94,54.9-12.2
				C663.79,139.85,663.61,134.85,655.12,126.72z M494.22,147.74c-4.99-0.71-6.62-0.84-11.73-0.9c-1.65-0.02-4.28-0.67-4.7-1.73
				c-0.76-1.9-1.07-1.98,0-2.75c4.24-3.05,5.49-2.88,9.23-4.93c3.99,2.73,4.8,5.13,6.74,9.12c-1.06-16.16,20.6-33.13,38.99-35.74
				c-5,12.98-0.83,31.39,14.1,40.58C528.57,151.39,511.81,150.25,494.22,147.74z M596.31,152.67
				c13.89-11.56,16.16-21.57,13.21-38.81c12.14,4.67,29.25,10.73,39.89,24.4C629.83,143.83,611.27,148.43,596.31,152.67z"/>
		</g>
		<g>
			<path fill-rule="evenodd" clip-rule="evenodd" fill="#674234" d="M70.75,187.32c34.99,33.02,73.18,36.03,112.1,23.64
				c21.54-6.86,65.83-30.65,66.87-32.38c-2.28-0.92-31.8,11.27-44.66,15.55c-47.12,15.67-93.97,23.8-136.96-22.06
				c-2.87-3.06-5.52-6.63-8.26-9.96C58.7,163.6,65.27,182.16,70.75,187.32z"/>
			<path fill-rule="evenodd" clip-rule="evenodd" fill="#674234" d="M52.84,159.78c-0.63-1.5-0.95-4.07-2.08-4.49
				c-1.48-0.55-20.37,20.07-27.59,29.79C22.6,185.86,52.27,161.98,52.84,159.78z"/>
			<path fill-rule="evenodd" clip-rule="evenodd" fill="#674234" d="M45.64,142.19c0.84,0.24,1.84-4.95,0.68-5.41
				c-10.59-4.25-21.26-8.32-32.02-12.17C13.25,124.23,36.45,139.59,45.64,142.19z"/>
			<path fill-rule="evenodd" clip-rule="evenodd" fill="#674234" d="M38.06,149.39c-1.7-0.49-3.58-1.72-5.08-1.37
				c-7.24,1.7-14.42,3.72-21.52,5.91C10.15,154.34,37.43,150.67,38.06,149.39z"/>
			<path fill-rule="evenodd" clip-rule="evenodd" fill="#674234" d="M254.95,137.21c-28.05-28.12-60.35-46.44-105.97-46.44
				c-27.39,3.35-55.84,13.52-79.26,35.96c-8.48,8.13-8.67,13.12,3.02,16.54c17.99,5.26,36.37,10.74,54.9,12.2
				c27.42,2.15,55.12,1.22,82.69,0.87c12.31-0.16,24.61-1.94,36.87-3.37c2.85-0.33,7.31-1.68,7.87-3.53
				C256.24,145.61,257.09,139.35,254.95,137.21z M75.43,138.27c10.63-13.67,27.74-19.73,39.89-24.4
				c-2.96,17.24-0.69,27.24,13.2,38.81C113.57,148.43,95.01,143.83,75.43,138.27z M247.05,145.11c-0.42,1.06-3.06,1.71-4.7,1.73
				c-5.11,0.07-6.74,0.19-11.73,0.9c-17.58,2.51-34.35,3.65-52.62,3.66c14.93-9.19,19.11-27.6,14.1-40.58
				c18.39,2.61,40.04,19.58,38.99,35.74c1.93-3.99,2.74-6.39,6.73-9.12c3.75,2.05,5,1.88,9.24,4.93
				C248.11,143.13,247.81,143.21,247.05,145.11z"/>
		</g>
	</g>
	<g>
		<path fill-rule="evenodd" clip-rule="evenodd" fill="#674234" d="M712.67,73.39c-16.2-17.8-28.96-38.07-31.64-50.5
			c-4.19-19.46-37.77-3.78-55.31-3.85c2.59-4.47,10.9-14.33,3.34-17.52c-9.79-4.13-24.55,1.12-33.97,4.29
			c-21.99,7.39-43.97,15.21-64.62,26.51c-62.93,34.45-101.93,12.25-103.39,22.41c-4.05,28.09,31.69,81.5,41.24,74.22
			c18.9-14.39,38.02-25.16,58.06-37.22c42.21-25.41,88.8-7.35,131.2,10.68c23.6,10.04,32.45,12.07,56.3,23.14
			C730.06,133.08,727.19,89.35,712.67,73.39z"/>
		<path fill-rule="evenodd" clip-rule="evenodd" fill="#674234" d="M194.32,32.32c-20.65-11.3-42.63-19.12-64.62-26.51
			c-9.43-3.17-24.19-8.42-33.97-4.29c-7.56,3.19,0.74,13.05,3.34,17.52c-17.55,0.07-51.13-15.61-55.32,3.85
			c-2.68,12.43-15.43,32.7-31.64,50.5c-14.53,15.96-17.25,60-1.2,52.17c22.84-11.13,32.83-15.23,56.3-23.14
			c42.44-14.31,88.98-36.09,131.19-10.68c20.05,12.06,39.17,22.82,58.07,37.22c9.54,7.27,45.28-46.13,41.24-74.22
			C296.25,44.57,257.25,66.78,194.32,32.32z"/>
	</g>
</g>
</svg>
