<?xml version="1.0" encoding="utf-8"?>
<!-- Generator: Adobe Illustrator 23.0.6, SVG Export Plug-In . SVG Version: 6.00 Build 0)  -->
<svg version="1.1" id="Capa_1" xmlns="http://www.w3.org/2000/svg" xmlns:xlink="http://www.w3.org/1999/xlink" x="0px" y="0px"
	 viewBox="0 0 673.89 147.13" enable-background="new 0 0 673.89 147.13" xml:space="preserve">
<g>
	<g>
		<g>
			<path fill-rule="evenodd" clip-rule="evenodd" fill="#674234" d="M194.03,124.41c0,18.11-16.54,22.72-36.08,22.72
				c-19.55,0-31.82-13.12-31.82-31.23C126.13,97.78,194.03,106.29,194.03,124.41z"/>
			<path fill-rule="evenodd" clip-rule="evenodd" fill="#674234" d="M205.94,124.78c-35.74-23.33-68.58-25-105.76-16.02
				c-41.3,9.96-58.55,33.99-59.56,35.1c2.21,0.58,100.46-55.15,184.07-1.29C225.79,141.62,213.26,129.55,205.94,124.78z"/>
			<path fill-rule="evenodd" clip-rule="evenodd" fill="#AC5F4A" d="M169.32,76.56c-24.78-14.4-72.35-14.08-109.28,20.16
				c-7.55,7.01-20.51,24.72-19.38,26.11c95.33-98.67,169.46-4.32,171.74-5.18C211.36,116.04,204.32,96.91,169.32,76.56z"/>
		</g>
		<g>
			<path fill-rule="evenodd" clip-rule="evenodd" fill="#674234" d="M599.26,124.41c0,18.11-16.54,22.72-36.09,22.72
				c-19.54,0-31.81-13.12-31.81-31.23C531.37,97.78,599.26,106.29,599.26,124.41z"/>
			<path fill-rule="evenodd" clip-rule="evenodd" fill="#674234" d="M573.71,108.76c-37.18-8.98-70.02-7.32-105.76,16.02
				c-7.31,4.77-19.85,16.84-18.74,17.79c83.61-53.86,181.86,1.87,184.07,1.29C632.25,142.74,615.01,118.73,573.71,108.76z"/>
			<path fill-rule="evenodd" clip-rule="evenodd" fill="#AC5F4A" d="M504.57,76.56c24.78-14.4,72.34-14.08,109.28,20.16
				c7.56,7.01,20.52,24.72,19.38,26.12c-95.33-98.67-169.45-4.32-171.74-5.18C462.53,116.04,469.56,96.91,504.57,76.56z"/>
		</g>
	</g>
	<g>
		<path fill-rule="evenodd" clip-rule="evenodd" fill="#674234" d="M60.03,0.14C33.81,1.13-19.55,86.87,7.4,76.91
			C29.61,68.7,64.54,49.61,75,50.59c94.5,8.77,187.57,28.58,187.66,27.66c1.64-16.47-10.48-40.49-19.05-53.26
			C235.83,13.41,106.07-1.6,60.03,0.14z"/>
		<path fill-rule="evenodd" clip-rule="evenodd" fill="#674234" d="M615.77,0.14c-45.8,1.09-177.3,13.27-185.07,24.85
			c-8.57,12.77-20.69,36.79-19.05,53.26c0.09,0.92,94.64-18.89,189.14-27.67c10.46-0.97,38.93,16.47,64.62,26.32
			C694.36,88.01,642-0.49,615.77,0.14z"/>
	</g>
</g>
</svg>
