<?xml version="1.0" encoding="utf-8"?>
<!-- Generator: Adobe Illustrator 23.0.6, SVG Export Plug-In . SVG Version: 6.00 Build 0)  -->
<svg version="1.1" id="Capa_1" xmlns="http://www.w3.org/2000/svg" xmlns:xlink="http://www.w3.org/1999/xlink" x="0px" y="0px"
	 viewBox="0 0 673.89 159.17" enable-background="new 0 0 673.89 159.17" xml:space="preserve">
<g>
	<g>
		<g>
			<path fill="#674234" d="M134.86,106.89c-19.94,0-36.11,13.54-36.11,30.25c0,4.3,1.08,8.4,3.02,12.1h66.2
				c1.94-3.71,3.02-7.8,3.02-12.1C170.98,120.44,154.8,106.89,134.86,106.89z"/>
			<path fill-rule="evenodd" clip-rule="evenodd" fill="#674234" d="M205.94,133.45C170.2,102,137.36,99.76,100.18,111.86
				c-41.3,13.43-58.54,45.81-59.56,47.3c2.21,0.79,100.46-74.33,184.07-1.73C225.79,156.15,213.25,139.88,205.94,133.45z"/>
			<path fill-rule="evenodd" clip-rule="evenodd" fill="#AC5F4A" d="M169.33,95.17c-24.78-12.32-72.34-12.04-109.28,17.25
				c-7.56,6-20.52,21.14-19.37,22.33c95.33-84.39,169.45-3.69,171.74-4.43C211.36,128.94,204.32,112.58,169.33,95.17z"/>
		</g>
		<g>
			<path fill="#674234" d="M539.03,106.89c19.95,0,36.11,13.54,36.11,30.25c0,4.3-1.08,8.4-3.01,12.1h-66.21
				c-1.93-3.71-3.01-7.8-3.01-12.1C502.92,120.44,519.09,106.89,539.03,106.89z"/>
			<path fill-rule="evenodd" clip-rule="evenodd" fill="#674234" d="M573.71,111.86c-37.17-12.1-70.02-9.86-105.76,21.59
				c-7.31,6.43-19.85,22.7-18.75,23.98c83.61-72.59,181.86,2.52,184.07,1.73C632.25,157.67,615.01,125.29,573.71,111.86z"/>
			<path fill-rule="evenodd" clip-rule="evenodd" fill="#AC5F4A" d="M504.57,95.17c24.78-12.32,72.34-12.04,109.27,17.25
				c7.56,6,20.52,21.14,19.38,22.33c-95.33-84.39-169.45-3.69-171.74-4.43C462.53,128.94,469.57,112.58,504.57,95.17z"/>
		</g>
	</g>
	<g>
		<path fill-rule="evenodd" clip-rule="evenodd" fill="#674234" d="M60.03,0.14C33.81,1.13-19.55,86.87,7.4,76.91
			c22.2-8.21,57.14-27.3,67.6-26.32c94.5,8.78,187.57,28.58,187.65,27.66c1.63-16.47-10.48-40.5-19.05-53.26
			C235.83,13.41,106.07-1.6,60.03,0.14z"/>
		<path fill-rule="evenodd" clip-rule="evenodd" fill="#674234" d="M615.77,0.14c-45.8,1.09-177.3,13.27-185.07,24.86
			c-8.57,12.76-20.69,36.79-19.05,53.26c0.09,0.92,94.65-18.89,189.15-27.66c10.47-0.98,38.93,16.47,64.61,26.32
			C694.36,88.01,642-0.49,615.77,0.14z"/>
	</g>
</g>
</svg>
