<?xml version="1.0" encoding="utf-8"?>
<!-- Generator: Adobe Illustrator 23.0.6, SVG Export Plug-In . SVG Version: 6.00 Build 0)  -->
<svg version="1.1" id="Capa_1" xmlns="http://www.w3.org/2000/svg" xmlns:xlink="http://www.w3.org/1999/xlink" x="0px" y="0px"
	 viewBox="0 0 710.88 196.69" style="enable-background:new 0 0 710.88 196.69;" xml:space="preserve">
<style type="text/css">
	.st0{fill-rule:evenodd;clip-rule:evenodd;fill:#37333D;}
	.st1{fill:#37333D;}
	.st2{fill-rule:evenodd;clip-rule:evenodd;fill:#2D4B5E;}
	.st3{fill-rule:evenodd;clip-rule:evenodd;fill:#CF8362;}
	.st4{fill-rule:evenodd;clip-rule:evenodd;fill:#325568;}
	.st5{fill:#674234;}
	.st6{fill-rule:evenodd;clip-rule:evenodd;fill:#674234;}
	.st7{fill-rule:evenodd;clip-rule:evenodd;fill:#AC5F4A;}
	.st8{fill:#FC2B0E;}
	.st9{fill:#FF3F20;}
	.st10{fill:#CC1305;}
	.st11{fill:#E02008;}
	.st12{fill:#EC1C24;}
</style>
<g>
	<g>
		<g>
			<path class="st5" d="M238.3,35.79c-20.09-23.38-53.25-18.29-78.46-25.72c-24.24-7.14-46.29-15.93-70.81-4.72
				C42.5,26.58,22.44,67.58,0,117.27c51.02-12.87,76.57-47.75,131.96-48.72c46.55-0.81,90.77,28.12,137.24,23.19
				c1.07-31.42-20.64-40.33-28.96-66.21C238.06,28.46,237.41,31.88,238.3,35.79z"/>
			<path class="st5" d="M285.87,53.56c-3.17,7-3.93,14.44-2.3,22.31c-3.79-9.95-1.27-27.19-8.89-34.84
				c5.09,16.07,4.78,40.22-0.68,56.09C288.69,88.61,288.31,76.23,285.87,53.56z"/>
			<path class="st5" d="M291.02,62.89c-1.56,11.58-5.86,28.56-3.71,38.49C293.81,95.33,295.66,75.6,291.02,62.89z"/>
			<path class="st5" d="M293.17,102.61l16.32-10.14C302.23,86.77,297.56,99.19,293.17,102.61z"/>
		</g>
		<g>
			<path class="st5" d="M621.85,5.35c-24.52-11.21-46.58-2.42-70.81,4.72c-25.21,7.43-58.37,2.34-78.46,25.72
				c0.88-3.92,0.24-7.34-1.94-10.26c-8.33,25.88-30.03,34.79-28.96,66.21c46.47,4.93,90.68-24,137.24-23.19
				c55.39,0.96,80.95,35.85,131.96,48.72C688.45,67.58,668.38,26.58,621.85,5.35z"/>
			<path class="st5" d="M436.2,41.03c-7.62,7.65-5.1,24.89-8.89,34.84c1.63-7.87,0.87-15.31-2.29-22.31
				c-2.45,22.67-2.83,35.05,11.87,43.56C431.43,81.25,431.12,57.1,436.2,41.03z"/>
			<path class="st5" d="M423.58,101.38c2.15-9.93-2.15-26.91-3.71-38.49C415.23,75.6,417.07,95.33,423.58,101.38z"/>
			<path class="st5" d="M401.4,92.47l16.32,10.14C413.33,99.19,408.66,86.77,401.4,92.47z"/>
		</g>
	</g>
	<g>
		<g>
			<g>
				<path class="st6" d="M652.39,176.01c-31.11,19.7-66.34,23.46-102.87,18.99c-20.22-2.47-62.15-12.76-63.19-13.63
					c2.07-0.62,29.88,4.27,41.97,5.84c44.25,5.77,87.94,7.51,125.94-19.53c2.54-1.81,4.85-3.87,7.26-5.81
					C662.62,162.59,657.26,172.92,652.39,176.01z"/>
				<g>
					<path class="st6" d="M538.31,164.79c0.47,0.03,0.96,0.07,1.44,0.11C535.74,164.57,528.64,164.02,538.31,164.79z"/>
					<path class="st6" d="M575.21,101.09c-39.01-3.05-60.92,2.22-89.14,23.83c-7.64,5.85-17.29,13.83-23.25,21.41
						c-6.69,8.49,8.65,11.2,12.97,12.04c20.68,4.02,40.69,10.6,62.15,11.17c9.31,0.25,19.36,0.4,28.73-0.2
						c9.55-0.61,18.97-1.87,28.7-3.85c10.53-2.16,21.41-7.02,31.77-10.09c14.35-4.26,25.07-15.99,25.07-15.99
						s-15.83-13.1-24.41-19.93C608.98,104.52,591.62,102.37,575.21,101.09z M476.24,154.47c-2.52-0.3-8.76-1.38-9.57-4.61
						c-0.99-3.94,4.71-7.74,7.94-8.55c3.63-0.92,2.02,3.17,2.43,5.07C477.81,149.98,483.68,155.35,476.24,154.47z M618.39,149.34
						c-21.52,16.98-53.86,17.4-78.64,15.55c2.58,0.2,3.87,0.31-1.44-0.11c-11-0.88-69.79-3.99-50.05-27.2
						c7.96-9.36,20.93-15.02,32.07-18.66c13.92-4.56,28.45-5.98,42.49-4.28c12.75,1.54,25.96,5.25,36.93,11.28
						C604.16,128.36,625.79,143.5,618.39,149.34z"/>
					<path class="st6" d="M634.82,101.01c-20.07-16.17-35.39-21.65-52.13-21.71c-24.2-0.09-38.37,5.83-56.16,14.89
						c-9.04,4.61-17.6,10.23-26.08,15.85c-5.03,3.34-21.76,15.79-25.23,20.21c-1.1,1.41,17.88-12.98,26.41-17.94
						c8.82-5.13,10.67-6.81,21.15-11.9c18.31-8.89,41.24-14.73,61.07-13.9c18.35,0.77,27.95,5.17,47.26,17.71
						c7.55,4.9,20.93,15.43,34.36,26.01C667.81,132.05,638.61,104.07,634.82,101.01z"/>
				</g>
				<path class="st6" d="M595.34,132.28c1.37,18.79-14.24,35.03-34.87,36.28c-20.63,1.25-38.46-12.97-39.84-31.76
					c-1.37-18.79,14.24-35.04,34.87-36.29C576.13,99.27,593.97,113.48,595.34,132.28z M554.24,121.15
					c-6.32,0.38-11.11,5.36-10.69,11.12c0.42,5.75,5.89,10.11,12.21,9.73c6.32-0.38,11.1-5.36,10.69-11.12
					C566.02,125.13,560.56,120.77,554.24,121.15z M561.6,146.81c-13.38,3.37-25.91,0.55-23.54,8.32c2.36,7.77,15.12,11.33,28.5,7.96
					c13.38-3.37,22.3-12.41,19.94-20.18C584.13,135.15,574.97,143.44,561.6,146.81z"/>
			</g>
		</g>
		<g>
			<g>
				<path class="st6" d="M58.49,175.83c31.11,19.7,66.34,23.46,102.87,18.99c20.22-2.47,62.15-12.76,63.19-13.63
					c-2.07-0.62-29.88,4.26-41.97,5.84c-44.24,5.77-87.95,7.51-125.94-19.53c-2.54-1.81-4.85-3.87-7.26-5.82
					C48.27,162.41,53.62,172.75,58.49,175.83z"/>
				<g>
					<path class="st6" d="M172.57,164.61c-0.48,0.04-0.96,0.07-1.44,0.11C175.14,164.4,182.23,163.84,172.57,164.61z"/>
					<path class="st6" d="M83.09,119.3c-8.58,6.82-24.41,19.92-24.41,19.92s10.72,11.73,25.06,15.99
						c10.36,3.07,21.24,7.93,31.77,10.09c9.74,1.99,19.16,3.24,28.71,3.85c9.36,0.6,19.41,0.44,28.72,0.2
						c21.46-0.57,41.47-7.15,62.15-11.17c4.31-0.84,19.66-3.55,12.97-12.04c-5.96-7.57-15.61-15.55-23.25-21.4
						c-28.23-21.61-50.14-26.88-89.15-23.83C119.26,102.19,101.9,104.34,83.09,119.3z M233.85,146.2c0.42-1.89-1.2-5.98,2.43-5.06
						c3.23,0.82,8.93,4.61,7.94,8.55c-0.81,3.23-7.05,4.31-9.57,4.6C227.2,155.17,233.07,149.81,233.85,146.2z M111.14,125.76
						c10.97-6.03,24.19-9.74,36.93-11.28c14.03-1.7,28.56-0.28,42.49,4.27c11.13,3.64,24.11,9.3,32.06,18.66
						c19.73,23.21-39.05,26.31-50.05,27.19c-5.31,0.42-4.01,0.31-1.44,0.11c-24.78,1.84-57.12,1.43-78.64-15.55
						C85.09,143.32,106.72,128.19,111.14,125.76z"/>
					<path class="st6" d="M76.06,100.83c20.07-16.17,35.39-21.65,52.12-21.72c24.2-0.09,38.37,5.84,56.16,14.89
						c9.05,4.6,17.6,10.23,26.08,15.85c5.03,3.33,21.76,15.79,25.23,20.21c1.1,1.41-17.88-12.98-26.41-17.94
						c-8.82-5.13-10.67-6.81-21.15-11.9c-18.32-8.89-41.24-14.73-61.07-13.9c-18.35,0.77-27.94,5.17-47.26,17.71
						c-7.55,4.9-20.93,15.43-34.36,26.01C43.07,131.87,72.27,103.89,76.06,100.83z"/>
				</g>
				<path class="st6" d="M155.38,100.34c20.63,1.25,36.24,17.5,34.86,36.28c-1.37,18.79-19.21,33.01-39.84,31.76
					c-20.63-1.25-36.24-17.5-34.87-36.29C116.91,113.31,134.75,99.09,155.38,100.34z M136.61,130.71
					c-0.43,5.76,4.36,10.73,10.68,11.12c6.32,0.38,11.79-3.97,12.21-9.73c0.42-5.76-4.36-10.73-10.68-11.12
					C142.5,120.59,137.03,124.95,136.61,130.71z M124.39,142.74c-2.36,7.77,6.57,16.8,19.94,20.18c13.38,3.37,26.13-0.19,28.5-7.96
					c2.36-7.77-10.17-4.95-23.54-8.32C135.91,143.26,126.75,134.97,124.39,142.74z"/>
			</g>
		</g>
	</g>
</g>
</svg>
