<?xml version="1.0" encoding="utf-8"?>
<!-- Generator: Adobe Illustrator 23.0.6, SVG Export Plug-In . SVG Version: 6.00 Build 0)  -->
<svg version="1.1" id="Capa_1" xmlns="http://www.w3.org/2000/svg" xmlns:xlink="http://www.w3.org/1999/xlink" x="0px" y="0px"
	 viewBox="0 0 740.94 149.74" enable-background="new 0 0 740.94 149.74" xml:space="preserve">
<g>
	<g>
		<path fill="#37333D" d="M490.4,25.6C534.8,17.17,614.82-2.29,639.67,0.22c47.17,4.76,76.71,28.98,101.27,49.16
			c-55.45-14.74-67.56-22.75-122.6-17.41c-46.25,4.5-101.1,16.31-147.38,30C478.48,45.5,482.23,41.3,490.4,25.6z"/>
		<path fill-rule="evenodd" clip-rule="evenodd" fill="#37333D" d="M622.8,149.74h-70.61c-5.36-8.05-8.1-17.98-7.12-28.41
			c2.25-23.82,23.07-36.53,46.5-34.23c23.42,2.29,40.59,18.71,38.34,42.53C629.2,137.09,626.67,143.93,622.8,149.74z"/>
		<path fill="#37333D" d="M711.76,90.06c0.97-4.08-23.22,20.93-53.17,9.09c-29.95-11.84-121.3-37.85-173.28,40.92
			c0,0,128.93-83.18,177.41,5.37C662.71,145.45,700.72,136.54,711.76,90.06z"/>
	</g>
	<g>
		<path fill="#37333D" d="M101.27,0.22c24.86-2.51,104.87,16.95,149.28,25.38c8.17,15.7,11.91,19.9,19.44,36.36
			c-46.29-13.69-101.14-25.5-147.38-30C67.57,26.62,55.44,34.63,0,49.38C24.56,29.21,54.1,4.98,101.27,0.22z"/>
		<path fill-rule="evenodd" clip-rule="evenodd" fill="#37333D" d="M118.15,149.74c-3.87-5.81-6.41-12.65-7.11-20.12
			c-2.26-23.82,14.91-40.24,38.33-42.53c23.43-2.29,44.25,10.41,46.5,34.23c0.98,10.43-1.76,20.36-7.12,28.41H118.15z"/>
		<path fill="#37333D" d="M29.19,90.06c-0.98-4.08,23.22,20.93,53.17,9.09c29.94-11.84,121.29-37.85,173.28,40.92
			c0,0-128.93-83.18-177.41,5.37C78.23,145.45,40.22,136.54,29.19,90.06z"/>
	</g>
</g>
</svg>
