<?xml version="1.0" encoding="utf-8"?>
<!-- Generator: Adobe Illustrator 23.0.6, SVG Export Plug-In . SVG Version: 6.00 Build 0)  -->
<svg version="1.1" id="Capa_1" xmlns="http://www.w3.org/2000/svg" xmlns:xlink="http://www.w3.org/1999/xlink" x="0px" y="0px"
	 viewBox="0 0 684.57 219.07" enable-background="new 0 0 684.57 219.07" xml:space="preserve">
<g>
	<g>
		<g>
			<path fill="#674234" d="M82.49,3.82c21.08-7.99,40.04-1.73,60.88,3.37c21.67,5.3,50.18,1.67,67.45,18.35
				c-0.77-2.79-0.21-5.23,1.66-7.32c7.16,18.46,25.82,24.81,24.9,47.23c-39.95,3.51-77.97-17.13-117.99-16.55
				C71.78,49.59,43.86,87.79,0,96.96C19.29,61.52,42.49,18.96,82.49,3.82C85.08,2.83,43.88,18.43,82.49,3.82z"/>
			<path fill="#674234" d="M241.5,69.28c4.69-11.32,4.96-28.55,0.59-40.01c6.55,5.45,4.38,17.76,7.64,24.85
				c-1.4-5.61-0.74-10.92,1.98-15.91C253.81,54.37,254.14,63.2,241.5,69.28C245.61,59.38,244.94,67.62,241.5,69.28z"/>
			<path fill="#674234" d="M252.95,72.31c-1.85-7.08,1.84-19.19,3.19-27.45C260.12,53.92,258.54,68,252.95,72.31z"/>
			<path fill="#674234" d="M257.98,73.19c3.78-2.44,7.79-11.3,14.03-7.23"/>
		</g>
		<g>
			<path fill="#674234" d="M602.09,3.82c-21.08-7.99-40.04-1.73-60.88,3.37c-21.66,5.3-50.17,1.67-67.45,18.35
				c0.76-2.79,0.2-5.23-1.67-7.32c-7.16,18.46-25.82,24.81-24.9,47.23c39.96,3.51,77.96-17.13,117.98-16.55
				c47.63,0.69,75.54,38.89,119.4,48.06C665.29,61.52,642.09,18.96,602.09,3.82C599.5,2.83,640.69,18.43,602.09,3.82z"/>
			<path fill="#674234" d="M443.07,69.28c-4.7-11.32-4.96-28.55-0.59-40.01c-6.54,5.45-4.38,17.76-7.64,24.85
				c1.41-5.61,0.75-10.92-1.97-15.91C430.76,54.37,430.44,63.2,443.07,69.28C438.97,59.38,439.64,67.62,443.07,69.28z"/>
			<path fill="#674234" d="M431.63,72.31c1.85-7.08-1.85-19.19-3.19-27.45C424.45,53.92,426.04,68,431.63,72.31z"/>
			<path fill="#674234" d="M426.59,73.19c-3.78-2.44-7.79-11.3-14.03-7.23"/>
		</g>
	</g>
	<g>
		<g>
			<path fill-rule="evenodd" clip-rule="evenodd" fill="#674234" d="M123.53,219.07c-26.41-0.96-48.58-8.87-66.37-27.41
				c-48.89-47.13-11.26-69.68-0.06-76.16c18.63-10.78,37.46-21.4,58.55-26.24c26.08-5.97,50.91-4.26,73.96,11.85
				c20.13,14.07,36.37,32.13,51.02,51.97c1.39,1.88,4.48,5.03,1.95,6.72c-2.25,1.51-3.27-2.93-4.68-4.82
				c-14.16-18.96-29.16-36.9-49.8-48.62c-16.88-9.59-34.66-14.59-53.96-13.25c-8.66,0.6-16.98,3.18-25.12,5.72
				c-18.65,5.82-35.88,15.2-52.4,25.96c-0.75,0.49-15.17,11.5-14.19,17.2c0.17,0.55,24.13-14.97,28.68-17.03
				c23.02-10.4,47.07-12.65,71.89-10.65c24.62,1.99,44.36,14.89,63.68,29.14c13.32,9.83,24.35,22.46,36.96,33.17
				c2.74,2.33,5.11,5.04,6.55,8.5c3.87,9.31-1.05,19.86-10.16,20.23c-25.23,1.04-49.79,6.55-74.49,11.18
				c-5.36,1-10.73,1.4-16.14,1.68C140.19,218.68,130.92,217.45,123.53,219.07z M131.41,214.17c30.23-0.95,59.93-7.08,89.89-10.72
				c4.8-0.59,7.79-4.19,8.84-9.28c1.07-5.13,0.13-9.96-2.28-14.44c-6.52-12.14-15.31-22.52-26.57-29.57
				c-17.47-10.94-35.56-20.22-56.9-20.91c-25.34-0.82-49.63,2.92-72.15,15.09c-12.69,6.86-21.22,21.42-11.48,34.47
				c6.55,8.78,13.37,17.63,23.05,23.46C98.65,211.18,114.47,214.84,131.41,214.17z M237.07,201.84c7.91-0.1,11.75-4.96,10.01-12.02
				c-0.91-3.66-3.25-5.7-6.79-5.54c-3.2,0.14-5.08,1.92-5.09,5.7c-0.01,2.24-0.46,4.67-1.38,6.67
				C231.64,201.38,233.39,202.47,237.07,201.84z"/>
			<g>
				<path fill-rule="evenodd" clip-rule="evenodd" fill="#674234" d="M187.03,168.83c0,25.65-19.84,46.44-44.31,46.44
					c-24.48,0-44.32-20.79-44.32-46.44c0-25.65,19.84-46.44,44.32-46.44C167.19,122.39,187.03,143.18,187.03,168.83z"/>
				<path fill-rule="evenodd" clip-rule="evenodd" fill="#674234" d="M135.85,163.36c0,7.86-6.08,14.23-13.58,14.23
					c-7.5,0-13.58-6.37-13.58-14.23c0-7.86,6.08-14.23,13.58-14.23C129.77,149.13,135.85,155.5,135.85,163.36z"/>
				<path fill-rule="evenodd" clip-rule="evenodd" fill="#674234" d="M175.66,182.57c2.12,10.75-9.2,22.3-25.3,25.78
					c-16.09,3.48-30.85-2.41-32.97-13.17c-2.12-10.75,12.44-5.89,28.53-9.37C162.01,182.32,173.54,171.81,175.66,182.57z"/>
			</g>
		</g>
		<g>
			<path fill-rule="evenodd" clip-rule="evenodd" fill="#674234" d="M535.18,218.2c-5.41-0.28-10.78-0.67-16.14-1.68
				c-24.7-4.63-49.27-10.15-74.49-11.18c-9.11-0.37-14.03-10.92-10.16-20.23c1.44-3.46,3.81-6.17,6.55-8.5
				c12.61-10.71,23.64-23.35,36.96-33.17c19.33-14.25,39.06-27.15,63.68-29.14c24.82-2.01,48.88,0.25,71.89,10.65
				c4.54,2.05,28.51,17.57,28.68,17.03c0.98-5.7-13.44-16.71-14.19-17.2c-16.52-10.76-33.75-20.14-52.4-25.96
				c-8.15-2.54-16.46-5.12-25.12-5.72c-19.3-1.34-37.08,3.66-53.96,13.25c-20.64,11.72-35.63,29.67-49.8,48.62
				c-1.42,1.9-2.43,6.33-4.68,4.82c-2.53-1.7,0.56-4.84,1.95-6.72c14.65-19.84,30.89-37.9,51.02-51.97
				c23.04-16.11,47.88-17.82,73.96-11.85c21.09,4.84,39.92,15.45,58.55,26.24c11.21,6.48,48.84,29.03-0.06,76.16
				c-17.79,18.54-39.96,26.46-66.37,27.41C553.65,217.45,544.38,218.68,535.18,218.2z M600.75,202.27
				c9.69-5.83,16.5-14.68,23.06-23.46c9.74-13.05,1.21-27.61-11.48-34.47c-22.52-12.17-46.81-15.91-72.15-15.09
				c-21.35,0.69-39.44,9.97-56.91,20.91c-11.25,7.05-20.05,17.42-26.56,29.57c-2.41,4.48-3.35,9.3-2.28,14.44
				c1.06,5.09,4.04,8.69,8.84,9.28c29.96,3.65,59.66,9.78,89.89,10.72C570.11,214.84,585.93,211.18,600.75,202.27z M450.76,196.66
				c-0.92-2-1.37-4.43-1.38-6.67c-0.02-3.79-1.9-5.56-5.09-5.7c-3.54-0.16-5.88,1.88-6.79,5.54c-1.75,7.06,2.1,11.92,10,12.02
				C451.19,202.47,452.94,201.38,450.76,196.66z"/>
			<g>
				<path fill-rule="evenodd" clip-rule="evenodd" fill="#674234" d="M497.54,168.83c0,25.65,19.84,46.44,44.32,46.44
					c24.47,0,44.31-20.79,44.31-46.44c0-25.65-19.84-46.44-44.31-46.44C517.38,122.39,497.54,143.18,497.54,168.83z"/>
				<path fill-rule="evenodd" clip-rule="evenodd" fill="#674234" d="M548.73,163.36c0,7.86,6.08,14.23,13.58,14.23
					c7.5,0,13.58-6.37,13.58-14.23c0-7.86-6.08-14.23-13.58-14.23C554.81,149.13,548.73,155.5,548.73,163.36z"/>
				<path fill-rule="evenodd" clip-rule="evenodd" fill="#674234" d="M508.92,182.57c-2.12,10.75,9.2,22.29,25.3,25.78
					c16.09,3.48,30.85-2.41,32.97-13.17c2.12-10.75-12.44-5.89-28.53-9.37C522.57,182.32,511.04,171.81,508.92,182.57z"/>
			</g>
		</g>
	</g>
</g>
</svg>
