<?xml version="1.0" encoding="utf-8"?>
<!-- Generator: Adobe Illustrator 23.0.6, SVG Export Plug-In . SVG Version: 6.00 Build 0)  -->
<svg version="1.1" id="Capa_1" xmlns="http://www.w3.org/2000/svg" xmlns:xlink="http://www.w3.org/1999/xlink" x="0px" y="0px"
	 viewBox="0 0 831.21 200.88" style="enable-background:new 0 0 831.21 200.88;" xml:space="preserve">
<style type="text/css">
	.st0{fill-rule:evenodd;clip-rule:evenodd;fill:#37333D;}
	.st1{fill:#37333D;}
	.st2{fill-rule:evenodd;clip-rule:evenodd;fill:#2D4B5E;}
	.st3{fill-rule:evenodd;clip-rule:evenodd;fill:#CF8362;}
	.st4{fill-rule:evenodd;clip-rule:evenodd;fill:#325568;}
	.st5{fill:#674234;}
	.st6{fill-rule:evenodd;clip-rule:evenodd;fill:#674234;}
	.st7{fill-rule:evenodd;clip-rule:evenodd;fill:#AC5F4A;}
	.st8{fill:#FC2B0E;}
	.st9{fill:#FF3F20;}
	.st10{fill:#CC1305;}
	.st11{fill:#E02008;}
	.st12{fill:#EC1C24;}
</style>
<g>
	<g>
		<g>
			<g>
				<path class="st3" d="M791.33,173.23c11.19-0.72,41.13-11.62,39.83-11.46c-13.25,1.68-26.47,3.6-39.61,5.73
					C790.12,167.73,790.29,173.31,791.33,173.23z"/>
				<path class="st3" d="M828.92,192.68c-7.86-3.79-15.84-7.4-23.95-10.72c-1.68-0.67-4.1,0.19-6.17,0.33
					C799.29,183.75,830.37,193.37,828.92,192.68z"/>
			</g>
			<path class="st4" d="M711,107.83c-32.37-10.56-90.51-10.56-130.31,30.28c-7.89,8.1-29.5,39.4-27.94,40.56
				c143.42-69.08,212.96-36.74,215.76-37.78C767.07,139.52,756.71,122.75,711,107.83z"/>
			<path class="st0" d="M692.62,127.78c-45.21-0.12-68.74,2.94-140.72,51.12c102.4-21.71,162.99-15.58,225.26-15.53
				C775.62,162.12,745.71,127.92,692.62,127.78z"/>
			<path class="st3" d="M555.33,184.57c59.01,13.74,85.41,17.39,123.83,16.06c45.12-1.56,68.07-15.51,69.29-16.03
				C699.69,195.51,643.91,193.91,555.33,184.57z"/>
			<path class="st1" d="M808.41,109c-0.45-2.08-15.8,10.51-43.74,17.47c-8.58,2.13-13.23,3.37-48.28,3.11
				c-68.11-0.52-96.21,11.45-95.59,11.43c90.51-1.49,136.86,4.48,155.65,22.58C776.46,163.6,818.24,154.63,808.41,109z"/>
		</g>
		<g>
			<g>
				<path class="st3" d="M39.87,173.23c-11.2-0.72-41.13-11.62-39.83-11.46c13.25,1.68,26.47,3.6,39.61,5.73
					C41.08,167.73,40.91,173.31,39.87,173.23z"/>
				<path class="st3" d="M2.29,192.68c7.87-3.79,15.84-7.4,23.95-10.72c1.69-0.67,4.1,0.19,6.17,0.33
					C31.92,183.75,0.84,193.37,2.29,192.68z"/>
			</g>
			<path class="st4" d="M120.21,107.83c32.36-10.56,90.51-10.56,130.31,30.28c7.89,8.1,29.5,39.4,27.95,40.56
				C135.03,109.6,65.5,141.93,62.69,140.9C64.14,139.52,74.5,122.75,120.21,107.83z"/>
			<path class="st0" d="M138.58,127.78c45.2-0.12,68.75,2.94,140.72,51.12c-102.39-21.71-162.99-15.58-225.26-15.53
				C55.58,162.12,85.5,127.92,138.58,127.78z"/>
			<path class="st3" d="M275.87,184.57c-59.01,13.74-85.41,17.39-123.82,16.06c-45.13-1.56-68.08-15.51-69.3-16.03
				C131.52,195.51,187.3,193.91,275.87,184.57z"/>
			<path class="st1" d="M22.79,109c0.45-2.08,15.8,10.51,43.74,17.47c8.58,2.13,13.22,3.37,48.27,3.11
				c68.12-0.52,96.21,11.45,95.59,11.43c-90.51-1.48-136.85,4.48-155.65,22.58C54.74,163.6,12.96,154.63,22.79,109z"/>
		</g>
	</g>
	<g>
		<path class="st0" d="M94,0.01C82.81-1.02-6.85,81.77,10.88,75.22C38.18,65.14,81.14,41.66,94,42.85
			C210.18,53.65,324.62,78,324.73,76.87c1.3-13.1-4.48-30.06-11.57-44.67C281.28,26.44,188.22,8.77,94,0.01z"/>
		<path class="st0" d="M740.49,0.01c-94.4,8.77-188.85,26.49-221.02,32.22c-7.08,14.6-12.85,31.55-11.56,44.64
			C508.03,78,624.3,53.65,740.49,42.85c12.86-1.19,47.86,20.25,79.44,32.36C838.52,82.35,752.37-1.09,740.49,0.01z"/>
	</g>
</g>
</svg>
