<?xml version="1.0" encoding="utf-8"?>
<!-- Generator: Adobe Illustrator 23.0.6, SVG Export Plug-In . SVG Version: 6.00 Build 0)  -->
<svg version="1.1" id="Capa_1" xmlns="http://www.w3.org/2000/svg" xmlns:xlink="http://www.w3.org/1999/xlink" x="0px" y="0px"
	 viewBox="0 0 700.13 173.12" style="enable-background:new 0 0 700.13 173.12;" xml:space="preserve">
<style type="text/css">
	.st0{fill-rule:evenodd;clip-rule:evenodd;fill:#37333D;}
	.st1{fill:#37333D;}
	.st2{fill-rule:evenodd;clip-rule:evenodd;fill:#2D4B5E;}
	.st3{fill-rule:evenodd;clip-rule:evenodd;fill:#CF8362;}
	.st4{fill-rule:evenodd;clip-rule:evenodd;fill:#325568;}
	.st5{fill:#674234;}
	.st6{fill-rule:evenodd;clip-rule:evenodd;fill:#674234;}
	.st7{fill-rule:evenodd;clip-rule:evenodd;fill:#AC5F4A;}
	.st8{fill:#FC2B0E;}
	.st9{fill:#FF3F20;}
	.st10{fill:#CC1305;}
	.st11{fill:#E02008;}
	.st12{fill:#EC1C24;}
</style>
<g>
	<g>
		<path class="st6" d="M674.01,34.22c9.19,13.52,28.28,50.09,25.91,52.31c-1.86,1.76-50.52-20.31-71.27-27.19
			c-63.61-21.08-159.3-9.73-213.39,27.02c-7.42,5.04-23.91,2.42-2.62-45.2c4.6-10.29,11.8-19.75,18.82-28.96
			c2.31-3.04,7.56-5.5,11.73-5.89c35.15-3.34,158.86-8.53,185.6-5.3C653.43,4,692.26,31.9,691.92,33.17
			C691.66,34.16,677.16,34.48,674.01,34.22z"/>
		<path class="st6" d="M26.12,34.22C16.93,47.75-2.16,84.31,0.2,86.53c1.86,1.76,50.53-20.31,71.27-27.19
			c63.61-21.08,159.3-9.73,213.39,27.02c7.42,5.04,23.91,2.42,2.62-45.2c-4.6-10.29-11.8-19.75-18.82-28.96
			c-2.31-3.04-7.56-5.5-11.73-5.89C221.78,2.98,98.07-2.21,71.34,1.02C46.7,4,7.87,31.89,8.21,33.17
			C8.47,34.16,22.97,34.48,26.12,34.22z"/>
	</g>
	<g>
		<g>
			<path class="st6" d="M534.08,173.12c-18.93-5.38-33.4-10.76-52.36-17.25c-4.43-1.82-9.84-4.38-9.29-6.06
				C491.13,156.1,534.4,172.35,534.08,173.12z"/>
			<path class="st6" d="M609.48,96.45c-65.99-40.44-123.99-35.07-172.2,34.96c0.36-6.33,27.82-47.83,57.85-63.13
				c13.65-4.95,19.65-7.57,35.21-7.09c30.34-0.72,53.24,7.78,77.13,20.42c14.34,8.16,24.52,17.25,36.53,26.38
				c0.77,0.59,1.18,2.81,0.7,3.71c-3.24,14.61-9.19,27.54-20.28,38.19c-13.8,12.63-62,16.35-68.77,16.56
				c12.37-4.32,24.93-7.08,37.06-12.01c10.63-4.32,14.65-7.04,27.07-20.83c-2.79,0.32-11.49,5.11-14.23,6.83
				c-23.75,14.88-49.59,7.78-74.69,7.44c-21.55-0.29-43.11-1.37-64.62-2.82c-4.12-0.28-8.33-3.5-11.74-6.29
				c-0.72-0.59,1.28-5.63,2.98-7.92c18.19-24.48,40.87-43.05,71.92-47.09c26.46-3.44,52.52,0.38,77.12,11.6
				C607.47,95.81,608.49,96.09,609.48,96.45z M543.53,95.87c-7.39,0.72-12.39,1.2-18.58,3.66c-14.17,5.64-17.88,21.73-6.56,31.87
				c12.67,11.34,32.85,13.06,47.44,4.38c9.05-5.38,12.71-14.96,10.9-25.16C570.18,88.43,543.6,96.35,543.53,95.87z M473.26,123.72
				c-5.41,4.51-2.14,14.81,5.16,15.8c14.14,1.92,28.44,2.68,45.19,4.15c-18.25-11.91-21.68-26.65-16.88-45.68
				C493.22,104.56,483.56,113.04,473.26,123.72z M561.68,145.6c26.6,1.26,45.03-9.63,62.92-25.76
				c-12.03-9.7-22.86-15.42-38.92-19.49C588.02,121.36,581.05,135.77,561.68,145.6z"/>
			<path class="st6" d="M544.41,97.79c-9.51,0-17.23,7.71-17.23,17.23c0,9.51,7.71,17.23,17.23,17.23c9.51,0,17.63-7.71,17.63-17.23
				C562.04,105.5,553.92,97.79,544.41,97.79z"/>
		</g>
		<g>
			<path class="st6" d="M166.05,173.12c18.93-5.38,33.4-10.76,52.36-17.25c4.43-1.82,9.84-4.38,9.29-6.06
				C209.01,156.1,165.73,172.35,166.05,173.12z"/>
			<path class="st6" d="M93.61,95.37c24.6-11.22,50.66-15.04,77.12-11.6c31.05,4.04,53.73,22.61,71.92,47.09
				c1.7,2.28,3.71,7.32,2.98,7.92c-3.41,2.79-7.63,6.01-11.74,6.29c-21.51,1.45-43.07,2.53-64.62,2.82
				c-25.1,0.34-50.94,7.44-74.69-7.44c-2.74-1.72-11.44-6.52-14.24-6.83c17.99,17.47,16.43,16.51,27.07,20.83
				c12.13,4.93,24.69,7.68,37.06,12.01c-6.77-0.2-54.98-3.93-68.77-16.56c-11.09-10.65-17.04-23.58-20.28-38.19
				c-0.48-0.91-0.07-3.13,0.7-3.71c12.01-9.13,22.19-18.22,36.53-26.38c23.89-12.64,46.78-21.14,77.12-20.42
				c15.56-0.48,21.57,2.14,35.21,7.09c30.04,15.29,57.5,56.8,57.85,63.13c-48.21-70.03-106.21-75.4-172.2-34.96
				C91.64,96.09,92.66,95.81,93.61,95.37z M123.4,110.62c-1.8,10.2,1.86,19.78,10.9,25.16c14.59,8.68,34.77,6.95,47.44-4.38
				c11.32-10.13,7.61-26.23-6.57-31.87c-6.19-2.46-11.19-3.35-18.58-4.07C156.53,95.95,129.73,90.16,123.4,110.62z M193.4,98
				c4.8,19.03,1.37,33.77-16.88,45.68c16.75-1.46,31.05-2.23,45.19-4.15c7.31-0.99,10.57-11.3,5.17-15.8
				C216.57,113.04,206.91,104.56,193.4,98z M114.46,100.34c-16.07,4.07-26.89,9.79-38.92,19.49c17.89,16.13,36.32,27.03,62.92,25.76
				C119.09,135.77,112.11,121.36,114.46,100.34z"/>
			<path class="st6" d="M155.31,97.11c-9.51,0-17.23,7.71-17.23,17.23s7.71,17.23,17.23,17.23c9.51,0,17.63-7.71,17.63-17.23
				S164.83,97.11,155.31,97.11z"/>
		</g>
	</g>
</g>
</svg>
