<?xml version="1.0" encoding="utf-8"?>
<!-- Generator: Adobe Illustrator 23.0.6, SVG Export Plug-In . SVG Version: 6.00 Build 0)  -->
<svg version="1.1" id="Capa_1" xmlns="http://www.w3.org/2000/svg" xmlns:xlink="http://www.w3.org/1999/xlink" x="0px" y="0px"
	 viewBox="0 0 679.39 171.37" style="enable-background:new 0 0 679.39 171.37;" xml:space="preserve">
<style type="text/css">
	.st0{fill-rule:evenodd;clip-rule:evenodd;fill:#37333D;}
	.st1{fill:#37333D;}
	.st2{fill-rule:evenodd;clip-rule:evenodd;fill:#2D4B5E;}
	.st3{fill-rule:evenodd;clip-rule:evenodd;fill:#CF8362;}
	.st4{fill-rule:evenodd;clip-rule:evenodd;fill:#325568;}
	.st5{fill:#674234;}
	.st6{fill-rule:evenodd;clip-rule:evenodd;fill:#674234;}
	.st7{fill-rule:evenodd;clip-rule:evenodd;fill:#AC5F4A;}
	.st8{fill:#FC2B0E;}
	.st9{fill:#FF3F20;}
	.st10{fill:#CC1305;}
	.st11{fill:#E02008;}
	.st12{fill:#EC1C24;}
</style>
<g>
	<g>
		<path class="st6" d="M230.91,3.9c-6.45-1.42-13.08-2.11-19.66-2.66c-18.78-1.56-37.71-1.49-56.52-0.67
			c-37.84,1.65-65.31,5.57-101.6,16.58C43.75,20,36.99,29.97,32.11,37.86C25.6,48.38-0.96,91.85,0.03,101.76
			c0.58,5.84,3.8,8.74,9.01,4.66c11.14-8.7,27.21-23.54,38.37-32.44c7.59-6.07,12.09-10.29,21.91-11.94
			c43.77-7.4,89.68-9.09,134.71-7.28c14.36,0.58,28.71,1.58,43.02,2.91c5.63,0.53,16.21,2.59,17.26,1.52
			c4.14-4.18-12.26-38.93-23.88-51.56C238.25,5.27,234.02,4.59,230.91,3.9z"/>
		<path class="st6" d="M651.71,36.13c-4.58-7.23-11.04-16.27-19.84-18.43c-37.51-9.22-68.69-13.88-107.36-15.9
			c-19.25-1-38.64-1.34-57.88,0.09c-7.49,0.56-22.09,0.09-27.46,5.79c-11.63,12.36-28.04,47.38-23.9,51.55
			c0.98,0.99,10.74-0.87,15.95-1.35c15-1.37,30.03-2.4,45.08-2.96c45.29-1.69,91.41,0.13,135.47,7.61
			c8.65,1.48,22.15,4.31,28.74,9.75c11.38,9.4,17.1,24.65,28.56,33.82c5.6,4.48,9.44,1.83,10.28-4.72
			C680.61,91.44,658.53,46.87,651.71,36.13z"/>
	</g>
	<g>
		<g>
			<path class="st6" d="M172.66,138.18c0,17.71-15.84,32.07-35.39,32.07c-19.54,0-35.38-14.36-35.38-32.07
				C101.89,120.47,172.66,120.47,172.66,138.18z"/>
			<path class="st6" d="M208.7,151.35c-35.74-28.67-68.59-31.13-105.76-20.1C61.63,143.5,44.39,170,43.37,171.36
				c2.21,0.71,100.46-67.75,184.07-1.58C228.55,168.61,216,157.22,208.7,151.35z"/>
			<path class="st7" d="M172.07,89.25C147.3,74.85,99.73,75.17,62.8,109.42c-7.55,7.01-20.52,24.72-19.38,26.11
				c95.33-98.67,169.45-4.32,171.74-5.18C214.11,128.73,207.08,109.61,172.07,89.25z"/>
		</g>
		<g>
			<path class="st6" d="M577.89,138.18c0,17.71-15.84,32.07-35.39,32.07c-19.54,0-35.38-14.36-35.38-32.07
				C507.12,120.47,577.89,120.47,577.89,138.18z"/>
			<path class="st6" d="M576.46,131.25c-37.18-11.02-70.02-8.57-105.76,20.1c-7.31,5.87-19.85,17.26-18.75,18.43
				c83.61-66.17,181.86,2.3,184.07,1.58C635.01,170,617.76,143.5,576.46,131.25z"/>
			<path class="st7" d="M507.31,89.25c24.78-14.41,72.35-14.08,109.28,20.16c7.56,7.01,20.52,24.72,19.37,26.11
				c-95.33-98.67-169.45-4.32-171.74-5.18C465.28,128.73,472.32,109.61,507.31,89.25z"/>
		</g>
	</g>
</g>
</svg>
