<?xml version="1.0" encoding="utf-8"?>
<!-- Generator: Adobe Illustrator 23.0.6, SVG Export Plug-In . SVG Version: 6.00 Build 0)  -->
<svg version="1.1" id="Capa_1" xmlns="http://www.w3.org/2000/svg" xmlns:xlink="http://www.w3.org/1999/xlink" x="0px" y="0px"
	 viewBox="0 0 813.98 173.93" style="enable-background:new 0 0 813.98 173.93;" xml:space="preserve">
<style type="text/css">
	.st0{fill-rule:evenodd;clip-rule:evenodd;fill:#37333D;}
	.st1{fill:#37333D;}
	.st2{fill-rule:evenodd;clip-rule:evenodd;fill:#2D4B5E;}
	.st3{fill-rule:evenodd;clip-rule:evenodd;fill:#CF8362;}
	.st4{fill-rule:evenodd;clip-rule:evenodd;fill:#325568;}
	.st5{fill:#674234;}
	.st6{fill-rule:evenodd;clip-rule:evenodd;fill:#674234;}
	.st7{fill-rule:evenodd;clip-rule:evenodd;fill:#AC5F4A;}
	.st8{fill:#FC2B0E;}
	.st9{fill:#FF3F20;}
	.st10{fill:#CC1305;}
	.st11{fill:#E02008;}
	.st12{fill:#EC1C24;}
</style>
<g>
	<g>
		<g>
			<path class="st0" d="M195.14,170.05c4.4-6.76,6.98-14.82,6.98-23.48c0-23.94-19.48-35.57-43.51-35.57
				c-24.03,0-43.5,11.63-43.5,35.57c0,8.67,2.56,16.72,6.97,23.48H195.14z"/>
			<path class="st2" d="M201.4,95.13c-30.47-16.06-88.95-15.7-134.36,22.48c-9.29,7.81-25.23,27.54-23.82,29.1
				c119.98-69.47,209.18,9.08,211.99,8.13C253.91,153.02,244.43,117.81,201.4,95.13z"/>
			<path class="st0" d="M246.42,144.25c-43.94-38.91-84.33-41.69-130.04-26.72c-50.78,16.62-71.98,45.97-73.23,47.83
				c2.72,0.97,123.52-81.26,226.32,8.57C270.83,172.34,255.41,152.22,246.42,144.25z"/>
			<path class="st1" d="M106.34,115.57c-15.78,4.11-52.9,13.7-67.04,12.08c-24.7-2.84-30.08-10.79-30.35-8.52
				C4,160.32,43.11,167.21,43.11,167.21c15.66-22.17,43.08-44.51,132.7-57.29C176.43,109.83,145.33,105.41,106.34,115.57z"/>
		</g>
		<g>
			<path class="st0" d="M690.37,170.05c4.4-6.76,6.97-14.82,6.97-23.49c0-23.94-19.48-35.56-43.51-35.56
				c-24.03,0-43.51,11.63-43.51,35.56c0,8.67,2.57,16.72,6.97,23.49H690.37z"/>
			<path class="st2" d="M611.04,95.13c30.47-16.06,88.95-15.7,134.36,22.47c9.29,7.81,25.23,27.54,23.83,29.1
				c-119.97-69.47-209.18,9.08-211.99,8.12C558.54,153.02,568.02,117.81,611.04,95.13z"/>
			<path class="st0" d="M566.02,144.25c43.95-38.91,84.34-41.69,130.04-26.72c50.78,16.62,71.98,45.97,73.24,47.83
				c-2.72,0.97-123.53-81.26-226.33,8.56C541.6,172.34,557.03,152.22,566.02,144.25z"/>
			<path class="st1" d="M706.11,115.57c15.77,4.11,52.9,13.7,67.04,12.08c24.7-2.84,30.08-10.79,30.35-8.52
				c4.94,41.19-34.17,48.09-34.17,48.09c-15.65-22.18-43.07-44.52-132.7-57.29C636.01,109.83,667.12,105.42,706.11,115.57z"/>
		</g>
	</g>
	<g>
		<path class="st0" d="M85.43,0.01C74.24-1.02-15.41,81.77,2.31,75.22c27.3-10.09,70.26-33.56,83.12-32.37
			C201.62,53.65,316.05,78,316.15,76.87c1.31-13.1-4.47-30.06-11.56-44.67C272.7,26.44,179.65,8.76,85.43,0.01z"/>
		<path class="st0" d="M731.91,0.01C637.52,8.78,543.08,26.5,510.9,32.23c-7.08,14.6-12.85,31.56-11.56,44.64
			c0.12,1.12,116.38-23.23,232.57-34.02c12.87-1.2,47.86,20.24,79.46,32.37C829.95,82.35,743.81-1.09,731.91,0.01z"/>
	</g>
</g>
</svg>
