<?xml version="1.0" encoding="utf-8"?>
<!-- Generator: Adobe Illustrator 23.0.6, SVG Export Plug-In . SVG Version: 6.00 Build 0)  -->
<svg version="1.1" id="Capa_1" xmlns="http://www.w3.org/2000/svg" xmlns:xlink="http://www.w3.org/1999/xlink" x="0px" y="0px"
	 viewBox="0 0 342.34 439.84" style="enable-background:new 0 0 342.34 439.84;" xml:space="preserve">
<style type="text/css">
	.st0{fill:#674234;}
	.st1{fill-rule:evenodd;clip-rule:evenodd;fill:#D68B62;}
	.st2{fill-rule:evenodd;clip-rule:evenodd;fill:#AC5F4A;}
	.st3{fill:#F7B48F;}
	.st4{fill:#D68B62;}
	.st5{fill:#AC5F4A;}
	.st6{fill:#C4734A;}
	.st7{fill:#C17B57;}
	.st8{fill-rule:evenodd;clip-rule:evenodd;fill:#F7B48F;}
	.st9{fill-rule:evenodd;clip-rule:evenodd;fill:#F7BEA1;}
	.st10{fill-rule:evenodd;clip-rule:evenodd;fill:#674234;}
</style>
<g>
	<path class="st0" d="M39.28,379.06c-3.63-3.14-6.93-6.61-9.83-10.33c-1.32-1.67-2.63-3.56-4.2-6.03c-1.23-2.1-2.52-4.36-3.64-6.81
		c-1.07-2.18-1.91-4.51-2.81-6.97l-0.05-0.13c-0.67-2.06-1.52-4.77-2.15-7.68c-0.22-0.84-0.38-1.7-0.55-2.56l-0.46-2.53
		c-0.14-0.85-0.29-1.7-0.39-2.66c-0.33-2.38-0.58-4.98-0.75-7.86l-0.05-1.25c-0.04-0.91-0.08-1.82-0.08-2.82
		c-0.04-1.31-0.04-2.62-0.02-3.91c0.03-2.47,0.15-5.02,0.34-7.81c0.34-4.85,7.75-59.43,6.88-58.18c0,0-0.45,0.65-1.24,1.93
		l-0.32,0.52c-0.7,1.16-1.65,2.74-2.71,4.73c-1.14,2.13-2.66,5.01-4.2,8.41c-1.7,3.71-3.25,7.51-4.63,11.3
		c-1.73,4.76-3.13,9.29-4.3,13.86c-1.4,5.42-2.45,10.82-3.12,16.01c-0.17,1.16-0.29,2.33-0.42,3.51l-0.19,2.07
		c-0.09,1.05-0.17,2.1-0.22,3.11c-0.18,2.74-0.23,5.69-0.16,9.03c0.19,6.48,0.95,12.69,2.27,18.47l1.17,4.48
		c0.28,1.04,0.62,2.07,0.96,3.09c0.16,0.46,0.31,0.93,0.5,1.51c1.21,3.34,2.43,6.18,3.7,8.64c2.67,5.43,6.12,10.56,10.25,15.27
		c3.66,4.19,7.9,8.03,12.61,11.44c3.94,2.83,8.14,5.33,12.97,7.68l1.67,0.75c1.42,0.64,2.89,1.31,4.31,1.83l0.95,0.37
		c0.62,0.24,1.23,0.48,1.91,0.73l2.6,0.88c1.86,0.64,3.67,1.14,4.94,1.48c1.47,0.43,2.85,0.74,4.22,1.05c2.01,0.5,3.74,0.8,5,1.02
		l3.12,0.52c0.16,0.03,0.33,0.04,0.49,0.04c0.01,0,0.03,0,0.04,0C75.39,405.27,42.39,381.77,39.28,379.06z"/>
	<path class="st0" d="M342.15,317.04c-0.05-1.1-0.14-2.19-0.23-3.28l-0.17-1.87c-0.13-1.21-0.25-2.41-0.42-3.56
		c-0.67-5.2-1.72-10.6-3.12-16.05c-1.16-4.52-2.6-9.18-4.3-13.86c-1.37-3.78-2.93-7.59-4.63-11.29c-1.57-3.46-3.07-6.32-4.19-8.4
		c-1.09-2.07-2.07-3.68-2.78-4.85l-0.28-0.45c-0.77-1.25-1.22-1.9-1.22-1.9c-0.87-1.25,6.53,53.33,6.87,58.17
		c0.19,2.83,0.3,5.38,0.33,7.81c0.02,1.3,0.02,2.61-0.02,4.01c0,0.92-0.04,1.84-0.08,2.77l-0.05,1.13
		c-0.19,3.04-0.42,5.56-0.77,8.02c-0.09,0.86-0.24,1.71-0.38,2.56l-0.46,2.56c-0.16,0.85-0.33,1.71-0.57,2.66
		c-0.59,2.74-1.4,5.36-2.13,7.58c-0.91,2.5-1.77,4.86-2.88,7.14c-1.09,2.39-2.38,4.66-3.55,6.65c-1.59,2.51-2.94,4.46-4.26,6.14
		c-0.65,0.83-1.33,1.65-2.02,2.46c0.06-0.23,0.14-0.47,0.16-0.7c0.19-1.75-0.27-4.98-5.49-6.88c-3.38-1.23-7.17-1.85-11.27-1.85
		c-13.68,0-29.45,6.9-42.98,14.76c3.14-6.79,5.71-13.59,7.66-20.3c0.66-2.27,1.25-4.63,1.81-7.25l0.37-1.86l0.85-5.49
		c0.63-4.71,1.13-9.52,1.48-14.28c0.81-10.45,1.06-20.68,1.19-28.44c0.13-9.19,0.09-18.7-0.12-28.27
		c-0.21-8.84-0.52-17.98-0.97-27.93c-0.39-8.7-0.87-17.67-1.46-27.44l-1.84-26.72c-1.32-17.11-2.79-34.1-4.36-50.49
		c-1.43-14.5-2.98-29.26-4.73-45.13c-1.69-14.93-3.31-28.19-4.54-38.08c-1.32-10.5-2.56-19.75-3.6-27.51l-0.24-1.8
		c-0.95-6.91-1.76-12.57-2.37-16.77l-1.3-8.74c-0.24-1.63,0.51,79.17,1.63,93.89c1.25,15.83,2.33,30.59,3.3,45.12
		c1.01,14.56,2.18,31.93,3.18,50.35l1.35,26.62c0.45,9.67,0.81,18.57,1.08,27.23c0.3,9.58,0.5,18.88,0.59,27.64
		c0.09,8.33,0.15,18.14-0.04,27.78c-0.24,11.19-0.63,19.68-1.27,27.55c-0.35,4.51-0.84,9.03-1.45,13.41l-0.24,1.71l-0.84,4.61
		c-0.41,1.9-0.93,3.93-1.58,6.22c-2.27,7.9-5.51,15.99-9.63,24.03c-3.82,7.44-8.09,14.23-12.68,20.25
		c-1.75,1.42-2.86,2.35-3.11,2.57c-0.76,0.65-1.13,1.62-1.04,2.57c-4.41,5.12-8.94,9.46-13.51,12.9c-3.14,2.35-6.35,4.36-9.54,5.96
		c-1.63,0.81-3.31,1.55-5,2.19c-0.69,0.27-1.35,0.49-2.06,0.72l-3.96,1.32c-1.67,0.57-3.25,1.1-4.69,1.46
		c-0.1,0.03-0.2,0.04-0.3,0.06c-2.29,0.29-4.34,0.48-6.29,0.53c-1.9-0.07-3.92-0.26-6.13-0.53c-0.11-0.03-0.22-0.04-0.33-0.07
		c-1.4-0.35-2.98-0.88-4.64-1.44l-3.97-1.32c-0.71-0.24-1.38-0.46-2.08-0.73c-1.68-0.64-3.36-1.38-4.98-2.18
		c-3.19-1.6-6.4-3.61-9.54-5.96c-5.74-4.32-11.41-10.02-16.85-16.93c-4.92-6.29-9.46-13.48-13.51-21.37
		c-4.11-8.04-7.35-16.12-9.63-24.03c-0.65-2.28-1.17-4.31-1.58-6.19l-1.08-6.34c-0.61-4.4-1.1-8.92-1.45-13.43
		c-0.64-7.87-1.03-16.37-1.27-27.54c-0.19-9.65-0.13-19.46-0.04-27.79c0.09-8.76,0.28-18.06,0.59-27.64
		c0.27-8.7,0.62-17.61,1.07-27.22l1.35-26.61c0.99-18.33,2.16-35.75,3.18-50.37c0.97-14.56,2.06-29.32,3.3-45.12
		c1.12-14.83,1.87-95.51,1.62-93.88l-1.26,8.45c-0.61,4.23-1.44,9.99-2.41,17.06l-0.24,1.76c-1.04,7.77-2.28,17.02-3.61,27.55
		c-1.22,9.84-2.83,23.05-4.54,38.08c-1.75,15.88-3.3,30.64-4.73,45.13c-1.56,16.31-3.03,33.29-4.36,50.49L85,201.2l-0.91,14.07
		c-0.59,9.79-1.07,18.76-1.46,27.43c-0.45,9.91-0.76,19.04-0.97,27.94c-0.21,9.57-0.25,19.08-0.12,28.28
		c0.13,7.75,0.38,17.98,1.19,28.42c0.35,4.76,0.84,9.56,1.48,14.3l0.25,1.79l0.99,5.58c0.55,2.59,1.14,4.95,1.8,7.21
		c2.26,7.77,5.39,15.66,9.23,23.51c-14.58-9.09-32.79-17.97-48.32-17.97c-4.09,0-7.88,0.63-11.26,1.85
		c-5.23,1.9-5.69,5.12-5.49,6.88c1.27,11.58,45.33,26.23,78.99,32.24c0.93,1.26,1.85,2.52,2.82,3.73
		c6.01,7.57,12.68,14.05,19.84,19.27c0.18,0.14,0.37,0.25,0.56,0.39c2.15,1.72,4.34,3.27,6.54,4.6c3.46,2.13,7.19,3.83,11.17,5.08
		l0.77,0.22c0.81,0.23,1.62,0.45,2.21,0.57l1.43,0.31l2.52,0.76c1.65,0.51,3.36,1.03,5.28,1.46c2.14,0.46,4.49,0.71,6.78,0.71
		l0.57,0c0.76-0.02,1.48-0.07,2.21-0.12c0.73,0.05,1.46,0.1,2.22,0.12l0.56,0c2.29,0,4.64-0.25,6.79-0.71
		c1.91-0.42,3.62-0.94,5.27-1.45l2.51-0.76l1.34-0.29c0.7-0.14,1.51-0.37,2.32-0.6l0.87-0.25c3.88-1.22,7.6-2.92,11.04-5.04
		c2.26-1.36,4.43-2.89,6.59-4.63c0.18-0.13,0.36-0.24,0.54-0.37c7.15-5.21,13.82-11.69,19.82-19.26c1.18-1.48,2.31-3.01,3.44-4.56
		c23.42-4.58,50.59-12.91,64.8-21.32c-2.62,2.15-5.45,4.22-8.58,6.25l-1.52,0.94c-1.21,0.75-2.38,1.48-3.61,2.14l-0.74,0.42
		c-0.57,0.33-19.43,14.92-18.1,14.92c0.16,0,0.33-0.01,0.49-0.04l3.12-0.53c1.26-0.22,2.98-0.52,4.92-1l0.21-0.05
		c1.24-0.28,2.61-0.6,4.02-1c1.41-0.38,3.16-0.86,4.96-1.48l2.68-0.91c0.61-0.22,1.23-0.46,1.86-0.71l0.9-0.35
		c1.47-0.54,2.95-1.21,4.37-1.85l1.77-0.8c4.73-2.31,8.93-4.8,12.87-7.63c4.7-3.4,8.94-7.25,12.59-11.43
		c4.13-4.7,7.58-9.83,10.24-15.23c1.3-2.52,2.51-5.36,3.76-8.8c0.14-0.45,0.3-0.9,0.45-1.36c0.35-1.03,0.69-2.07,0.96-3.08
		l1.19-4.56c1.32-5.76,2.08-11.96,2.26-18.46C342.38,322.71,342.33,319.76,342.15,317.04z"/>
</g>
</svg>
