<?xml version="1.0" encoding="utf-8"?>
<!-- Generator: Adobe Illustrator 23.0.6, SVG Export Plug-In . SVG Version: 6.00 Build 0)  -->
<svg version="1.1" id="Capa_1" xmlns="http://www.w3.org/2000/svg" xmlns:xlink="http://www.w3.org/1999/xlink" x="0px" y="0px"
	 viewBox="0 0 350.08 388.35" style="enable-background:new 0 0 350.08 388.35;" xml:space="preserve">
<style type="text/css">
	.st0{fill:#674234;}
	.st1{fill-rule:evenodd;clip-rule:evenodd;fill:#D68B62;}
	.st2{fill-rule:evenodd;clip-rule:evenodd;fill:#AC5F4A;}
	.st3{fill:#F7B48F;}
	.st4{fill:#D68B62;}
	.st5{fill:#AC5F4A;}
	.st6{fill:#C4734A;}
	.st7{fill:#C17B57;}
	.st8{fill-rule:evenodd;clip-rule:evenodd;fill:#F7B48F;}
	.st9{fill-rule:evenodd;clip-rule:evenodd;fill:#F7BEA1;}
	.st10{fill-rule:evenodd;clip-rule:evenodd;fill:#674234;}
</style>
<g>
	<path class="st0" d="M224.65,0c-0.07,5.35-0.03,10.69,0.12,16.03c0.12,5.33,0.31,10.68,0.58,16c0.29,5.33,0.6,10.65,1,15.96
		c0.4,5.31,0.88,10.62,1.45,15.91c0.55,5.29,1.14,10.58,1.85,15.85c0.7,5.27,1.5,10.52,2.38,15.76c0.9,5.24,1.84,10.46,2.88,15.65
		c1.04,5.19,2.2,10.37,3.47,15.5c1.27,5.14,2.65,10.24,4.17,15.3c1.52,5.06,3.1,10.08,4.87,15.05c3.52,9.92,7.63,19.62,12.48,28.88
		c2.44,4.62,5.01,9.15,7.82,13.54c2.79,4.39,5.81,8.62,9.03,12.66c3.23,4.04,6.65,7.92,10.33,11.52c3.66,3.62,7.57,6.96,11.67,10.03
		l2.14,1.6l-0.36,2.62c-0.28,1.97-0.59,3.75-0.92,5.59c-0.33,1.83-0.68,3.66-1.06,5.47c-0.74,3.64-1.56,7.25-2.44,10.84
		c-1.76,7.19-3.82,14.3-6.13,21.34c-1.15,3.51-2.37,7.02-3.67,10.49c-1.29,3.47-2.68,6.91-4.12,10.32
		c-1.45,3.41-2.98,6.8-4.58,10.14c-1.6,3.35-3.27,6.67-5.04,9.93c-3.53,6.54-7.38,12.92-11.63,19.03c-2.15,3.05-4.39,6.03-6.72,8.94
		c-2.34,2.9-4.79,5.72-7.32,8.46c-5.1,5.45-10.59,10.56-16.56,15.08c-2.98,2.26-6.08,4.35-9.25,6.34c-3.18,1.96-6.46,3.75-9.81,5.41
		l-0.3,0.15l-0.23,0.05c-1.83,0.4-3.55,0.71-5.32,1c-1.76,0.29-3.52,0.54-5.28,0.77c-3.53,0.44-7.07,0.74-10.61,0.93
		c-7.09,0.38-14.2,0.27-21.25-0.44c-7.05-0.75-14.05-2.15-20.76-4.41c-3.35-1.13-6.61-2.53-9.75-4.15c-1.56-0.81-3.09-1.7-4.58-2.63
		c-1.48-0.95-2.91-1.97-4.3-3.03c2.94,1.9,6.04,3.54,9.23,4.92c3.19,1.37,6.5,2.47,9.85,3.38c6.7,1.8,13.61,2.71,20.52,3.02
		c6.91,0.33,13.85,0.07,20.72-0.66c3.44-0.36,6.86-0.85,10.26-1.43c1.7-0.29,3.4-0.6,5.08-0.95c1.67-0.35,3.4-0.73,4.97-1.14
		l-0.53,0.2c3.12-1.73,6.16-3.58,9.1-5.59c2.92-2.03,5.77-4.17,8.5-6.44c2.72-2.3,5.38-4.65,7.92-7.15
		c2.53-2.51,4.98-5.09,7.32-7.78c2.32-2.7,4.56-5.47,6.71-8.32c2.13-2.86,4.17-5.79,6.13-8.77c1.94-3,3.84-6.03,5.64-9.11
		c1.8-3.09,3.5-6.24,5.14-9.42c1.64-3.18,3.18-6.41,4.67-9.67c1.49-3.26,2.89-6.56,4.22-9.89c1.34-3.33,2.59-6.69,3.82-10.07
		c1.22-3.38,2.36-6.78,3.45-10.2c2.17-6.85,4.09-13.78,5.79-20.76c0.84-3.49,1.63-7,2.33-10.51c0.35-1.77,0.69-3.52,1-5.28
		c0.3-1.74,0.6-3.55,0.84-5.2l1.77,4.21c-4.44-3.34-8.66-6.97-12.58-10.88c-3.94-3.9-7.61-8.04-11.01-12.38
		c-3.39-4.35-6.54-8.86-9.43-13.52c-2.91-4.65-5.58-9.43-8.02-14.33c-4.87-9.77-8.92-19.9-12.35-30.19
		c-1.71-5.15-3.28-10.33-4.67-15.56c-1.39-5.22-2.63-10.49-3.76-15.76c-2.23-10.56-4.04-21.2-5.34-31.88
		c-0.65-5.34-1.21-10.69-1.68-16.04c-0.46-5.35-0.86-10.71-1.12-16.08c-0.26-5.36-0.44-10.73-0.54-16.09
		c-0.09-5.36-0.12-10.72-0.01-16.09c0.1-5.36,0.27-10.71,0.54-16.06C223.72,10.66,224.06,5.32,224.65,0z"/>
	<path class="st0" d="M35.34,229.73c0,0-0.28,0.69-0.82,1.97c-0.53,1.28-1.3,3.17-2.29,5.57c-0.98,2.4-2.13,5.33-3.44,8.67
		c-1.3,3.35-2.74,7.13-4.25,11.27c-3.02,8.27-6.34,17.97-9.23,28.46c-0.7,2.63-1.41,5.3-2.05,8.01c-0.31,1.36-0.64,2.72-0.92,4.1
		c-0.3,1.37-0.59,2.75-0.85,4.14c-1.08,5.55-1.9,11.22-2.27,16.86c-0.11,1.41-0.16,2.82-0.22,4.22c-0.01,1.4-0.07,2.81-0.01,4.2
		c0.04,2.79,0.25,5.53,0.58,8.24c0.19,1.34,0.38,2.68,0.67,3.98c0.21,1.32,0.58,2.58,0.89,3.87c0.18,0.63,0.38,1.25,0.57,1.87
		l0.29,0.93l0.34,0.9c0.22,0.61,0.45,1.2,0.68,1.79c0.25,0.58,0.51,1.17,0.77,1.74c0.23,0.58,0.54,1.13,0.83,1.69
		c0.3,0.54,0.57,1.11,0.89,1.63c0.68,1.03,1.27,2.11,2.01,3.07c1.36,2.02,3.02,3.73,4.66,5.41c3.37,3.24,7.17,5.74,10.92,7.7
		c3.74,1.99,7.48,3.32,10.84,4.42c0.85,0.25,1.66,0.51,2.45,0.75c0.79,0.25,1.58,0.41,2.32,0.62c1.49,0.4,2.87,0.76,4.13,1
		c1.26,0.27,2.39,0.51,3.37,0.72c0.99,0.18,1.83,0.33,2.52,0.45c1.37,0.26,2.1,0.4,2.1,0.4s-0.75,0.05-2.14,0.12
		c-0.7,0.03-1.56,0.07-2.57,0.12c-1.02,0.04-2.19,0-3.49-0.02c-1.32,0-2.77-0.1-4.35-0.2c-1.59-0.06-3.29-0.32-5.12-0.56
		c-3.64-0.56-7.79-1.39-12.15-3.02c-4.35-1.61-8.98-3.94-13.29-7.36c-4.25-3.45-8.22-7.95-11.06-13.3
		c-0.35-0.67-0.71-1.34-1.06-2.01c-0.33-0.69-0.62-1.4-0.93-2.09l-0.45-1.06l-0.39-1.08c-0.26-0.72-0.54-1.44-0.77-2.17
		c-0.93-2.94-1.66-5.96-2.14-9.03c-0.98-6.13-1.09-12.4-0.69-18.54c0.46-6.15,1.38-12.21,2.72-18.03c0.62-2.93,1.39-5.79,2.18-8.59
		c0.4-1.41,0.83-2.78,1.23-4.16c0.44-1.37,0.87-2.72,1.34-4.06c3.64-10.69,7.98-20.26,12.08-28.21c2.06-3.98,4.06-7.57,5.9-10.69
		c1.83-3.14,3.55-5.8,4.97-7.98c1.41-2.19,2.62-3.85,3.42-5C34.88,230.31,35.34,229.73,35.34,229.73z"/>
	<path class="st0" d="M314.73,235.33c0,0,0.46,0.59,1.27,1.72c0.8,1.15,2.01,2.81,3.42,5c1.42,2.19,3.14,4.85,4.97,7.99
		c1.85,3.12,3.84,6.71,5.91,10.69c4.11,7.96,8.44,17.52,12.08,28.21c0.47,1.33,0.9,2.69,1.34,4.06c0.41,1.37,0.84,2.76,1.23,4.16
		c0.8,2.81,1.57,5.67,2.19,8.59c1.34,5.82,2.26,11.88,2.72,18.03c0.4,6.14,0.29,12.41-0.68,18.54c-0.48,3.07-1.21,6.09-2.14,9.03
		c-0.24,0.73-0.51,1.45-0.77,2.17l-0.39,1.08l-0.45,1.06c-0.31,0.7-0.6,1.41-0.93,2.09c-0.35,0.67-0.71,1.34-1.06,2.01
		c-2.84,5.35-6.8,9.85-11.06,13.29c-4.32,3.43-8.94,5.75-13.29,7.37c-4.36,1.63-8.5,2.46-12.15,3.03c-1.83,0.24-3.53,0.49-5.12,0.56
		c-1.59,0.11-3.03,0.21-4.34,0.21c-1.31,0.02-2.48,0.05-3.5,0.02c-1.01-0.04-1.88-0.08-2.58-0.11c-1.39-0.08-2.13-0.13-2.13-0.13
		s0.73-0.14,2.1-0.4c0.68-0.12,1.53-0.27,2.52-0.45c0.98-0.21,2.11-0.45,3.37-0.71c1.26-0.24,2.64-0.61,4.13-1.01
		c0.74-0.2,1.52-0.36,2.32-0.62c0.79-0.24,1.61-0.49,2.45-0.75c3.35-1.1,7.09-2.42,10.84-4.42c3.75-1.95,7.55-4.45,10.92-7.7
		c1.63-1.67,3.29-3.39,4.65-5.41c0.74-0.96,1.34-2.04,2.01-3.07c0.32-0.52,0.59-1.09,0.9-1.63c0.29-0.55,0.6-1.1,0.84-1.68
		c0.26-0.58,0.52-1.16,0.78-1.73c0.23-0.6,0.45-1.2,0.68-1.8l0.34-0.9l0.29-0.93c0.19-0.62,0.39-1.24,0.58-1.87
		c0.3-1.28,0.66-2.55,0.88-3.87c0.29-1.3,0.48-2.64,0.67-3.98c0.33-2.7,0.54-5.45,0.58-8.23c0.06-1.4,0-2.8-0.01-4.2
		c-0.06-1.4-0.11-2.82-0.22-4.23c-0.38-5.64-1.2-11.31-2.28-16.86c-0.26-1.39-0.55-2.77-0.85-4.14c-0.28-1.38-0.61-2.74-0.92-4.1
		c-0.65-2.71-1.35-5.38-2.05-8c-2.89-10.5-6.21-20.2-9.23-28.47c-1.51-4.13-2.95-7.92-4.25-11.27c-1.31-3.34-2.45-6.27-3.43-8.67
		c-0.99-2.4-1.76-4.28-2.29-5.57C315.02,236.02,314.73,235.33,314.73,235.33z"/>
	<path class="st0" d="M233.52,373.48c0,0,53.04-58.13,83.88-40.7C317.4,332.78,356.65,353.13,233.52,373.48z"/>
	<path class="st0" d="M128.93,373.48c0,0-53.03-58.13-83.88-40.7C45.05,332.78,5.8,353.13,128.93,373.48z"/>
</g>
</svg>
