<?xml version="1.0" encoding="utf-8"?>
<!-- Generator: Adobe Illustrator 23.0.6, SVG Export Plug-In . SVG Version: 6.00 Build 0)  -->
<svg version="1.1" id="Capa_1" xmlns="http://www.w3.org/2000/svg" xmlns:xlink="http://www.w3.org/1999/xlink" x="0px" y="0px"
	 viewBox="0 0 421.64 245.17" enable-background="new 0 0 421.64 245.17" xml:space="preserve">
<g>
	<g>
		<path fill="#674234" d="M80.89,232.71l-2.56,0.01c-0.84,0.01-1.86,0.02-2.97,0.04c-0.61-0.01-1.26-0.03-1.95-0.06
			c-0.68-0.03-1.39-0.06-2.2-0.07c-1.19,0-2.57-0.13-4.03-0.27l-0.86-0.08c-1.29-0.08-2.72-0.29-4.23-0.52l-1.34-0.19
			c-3.49-0.62-8.11-1.57-12.98-3.47c-4.8-1.86-9.25-4.42-13.3-7.67c-0.69-0.52-1.37-1.14-2.1-1.8c-0.33-0.3-0.66-0.6-0.9-0.81
			c-0.29-0.28-0.58-0.58-0.87-0.87l-2.49-2.71c-0.28-0.32-0.56-0.63-0.86-1.02l-1.45-1.88c-0.83-1.16-1.61-2.26-2.33-3.45
			c-1.61-2.62-2.99-5.3-4.12-8c-0.29-0.68-0.57-1.36-0.86-2.17c-0.27-0.69-0.51-1.39-0.76-2.15c-0.5-1.46-0.93-2.93-1.3-4.42
			c-0.18-0.73-0.34-1.46-0.47-2.14l-0.18-1.05c-0.01-0.08-0.04-0.26-0.06-0.45l-0.64-5.8c-0.07-0.49-0.09-0.98-0.11-1.47l-0.17-3.29
			c-0.01-0.34-0.03-0.68-0.05-1.01c-0.03-0.47-0.06-0.94-0.06-1.39l0.02-2.57c0-6.74,0.68-13.28,2-19.39
			c0.2-0.89,0.43-1.77,0.65-2.66c0.18-0.71,0.36-1.43,0.55-2.2c0.1-0.45,0.24-0.89,0.38-1.33l0.95-3.06
			c1.03-3.07,2.18-6.01,3.41-8.72c2.42-5.35,5.4-10.57,8.86-15.5c3.03-4.34,6.5-8.56,10.29-12.57c3.1-3.27,6.5-6.49,10.11-9.55
			c3.1-2.6,5.97-4.85,8.53-6.66c2.52-1.77,4.48-3.08,5.83-3.91c1.14-0.72,1.85-1.13,2.04-1.24c0.94-0.55,1.57-1.58,1.57-2.66
			c0-0.97-28.8,10.09-35.7,16.03c-4.63,4.01-8.89,8.38-12.66,12.99c-4.4,5.39-8.17,11.15-11.2,17.11c-1.56,3-3,6.27-4.41,10.05
			l-1.17,3.33c-0.24,0.67-0.47,1.33-0.63,1.97l-0.37,1.32c-0.37,1.32-0.74,2.66-1.08,4.01c-1.69,6.9-2.58,14.5-2.64,22.58L0,174.73
			c0.01,0.65,0.04,1.3,0.09,1.95l0.27,4.48c0.04,0.76,0.09,1.51,0.19,2.17l0.76,6.09c0.04,0.31,0.06,0.49,0.14,0.9l0.31,1.56
			c0.21,1,0.45,1.97,0.71,2.9c0.95,3.57,2.28,7.22,3.96,10.85c1.63,3.52,3.5,6.81,5.57,9.79c2.31,3.34,4.6,6.1,6.98,8.42l2.53,2.38
			c0.46,0.42,0.92,0.83,1.48,1.3l0.89,0.71c1.03,0.82,2.1,1.67,3.19,2.36c5.28,3.64,11.08,6.34,17.23,8.03
			C49.05,239.93,82.46,232.68,80.89,232.71z"/>
		<path fill="#674234" d="M421.63,171.92c-0.06-8.07-0.95-15.66-2.65-22.59c-0.35-1.4-0.74-2.79-1.12-4.18l-0.3-1.08
			c-0.18-0.72-0.42-1.41-0.67-2.1l-0.26-0.74c-0.3-0.84-0.59-1.67-0.91-2.59c-1.39-3.72-2.83-6.99-4.38-9.96
			c-3.05-5.98-6.82-11.74-11.22-17.13c-3.76-4.61-8.02-8.98-12.66-12.99c-6.9-5.95-35.7-17-35.7-16.03c0,1.08,0.63,2.12,1.57,2.66
			c0.19,0.11,0.9,0.52,2.06,1.25c1.36,0.84,3.31,2.15,5.8,3.9c2.57,1.82,5.44,4.06,8.52,6.65c3.63,3.08,7.04,6.3,10.12,9.56
			c3.8,4.02,7.27,8.25,10.29,12.57c3.45,4.91,6.43,10.12,8.86,15.5c1.23,2.72,2.38,5.65,3.39,8.65l0.71,2.3
			c0.08,0.28,0.17,0.56,0.26,0.84c0.14,0.43,0.28,0.86,0.39,1.39c0.17,0.68,0.34,1.36,0.51,2.05c0.23,0.91,0.46,1.82,0.66,2.7
			c1.33,6.16,2,12.69,2.01,19.45l0.02,2.52c0,0.49-0.03,0.98-0.06,1.48l-0.22,4.2c-0.02,0.51-0.04,1.01-0.12,1.6l-0.63,5.74
			c-0.01,0.11-0.02,0.26-0.05,0.4l-0.18,1.03c-0.14,0.72-0.3,1.45-0.49,2.19c-0.35,1.43-0.78,2.91-1.3,4.42
			c-0.24,0.72-0.48,1.44-0.79,2.23c-0.23,0.66-0.5,1.31-0.82,2.07c-1.13,2.69-2.52,5.38-4.15,8.02c-0.69,1.15-1.46,2.25-2.29,3.4
			l-1.5,1.94c-0.26,0.35-0.55,0.67-0.84,1l-2.48,2.68c-0.28,0.3-0.57,0.59-0.79,0.81l-0.94,0.84c-0.74,0.67-1.44,1.31-2.22,1.9
			c-3.97,3.19-8.42,5.75-13.23,7.62c-4.86,1.89-9.48,2.85-12.87,3.45l-1.43,0.21c-1.51,0.22-2.94,0.44-4.32,0.53l-0.78,0.07
			c-1.46,0.14-2.84,0.27-4.08,0.27c-0.75,0.02-1.47,0.04-2.15,0.07c-0.7,0.02-1.35,0.05-1.85,0.06c-1.21-0.02-2.24-0.03-3.1-0.04
			l-2.54-0.01c-0.01,0-0.02,0-0.03,0c-1.56,0,31.87,7.22,36.63,5.91c6.16-1.69,11.96-4.39,17.14-7.97c1.2-0.76,2.28-1.62,3.31-2.45
			l0.94-0.74c0.47-0.39,0.93-0.8,1.38-1.21l2.51-2.37c2.41-2.35,4.71-5.11,7.02-8.46c2.05-2.96,3.93-6.26,5.58-9.8
			c1.71-3.7,3.01-7.25,3.96-10.82c0.26-0.96,0.5-1.93,0.72-2.95l0.3-1.52c0.07-0.36,0.09-0.54,0.14-0.88l0.75-6.05
			c0.11-0.72,0.15-1.45,0.19-2.18l0.27-4.53c0.04-0.66,0.09-1.32,0.09-1.99L421.63,171.92z"/>
	</g>
	<path fill="#674234" d="M373.53,194.47c-8.55-7.42-19.2-11.18-31.65-11.18c-10.37,0-20.99,2.59-30.86,6.27
		c0.64-0.71,1.29-1.42,1.92-2.14c3.33-3.81,6.58-7.72,9.68-11.63c1.56-1.98,3.11-3.98,4.62-6c1.42-1.91,2.96-3.99,4.49-6.23
		l0.33-0.47c0.18-0.26,0.33-0.55,0.42-0.86l0.19-0.62c2.37-7.88,4.1-15.1,5.29-22.07c0.68-3.84,1.23-7.62,1.63-11.24
		c0.45-3.85,0.78-7.66,0.98-11.31c0.86-14.8,0.03-30.01-2.47-45.21c-1.22-7.26-2.88-14.69-4.93-22.08
		c-1.99-7.18-4.41-14.39-7.18-21.45c-3.06-7.73-6.19-14.5-9.6-20.71l-1.08-1.89c-0.02-0.04-0.04-0.07-0.05-0.1l-0.59-1.11
		c-0.26-0.48-0.51-0.95-0.76-1.46c-0.49-0.98-0.96-1.97-1.42-2.96c0,0,8.8,60.22,11.14,74.2c2.39,14.12,3.24,28.24,2.51,41.99
		c-0.18,3.43-0.46,6.95-0.85,10.49c-0.36,3.34-0.85,6.84-1.46,10.4c-1.12,6.57-2.59,13.13-4.37,19.49c-1.1,1.62-2.29,3.28-3.46,4.89
		c-1.41,1.94-2.85,3.86-4.32,5.76c-2.91,3.78-5.97,7.56-9.09,11.23c-3.07,3.61-6.31,7.22-9.63,10.74
		c-3.22,3.41-6.64,6.83-10.18,10.17c-7.54,7.13-14.76,13.01-22.09,17.99c-8.58,5.82-16.68,9.97-24.75,12.69
		c-0.02,0.01-0.21,0.07-0.23,0.08c-0.07,0.03-0.23,0.09-0.3,0.12c-0.25,0.11-0.65,0.27-1,0.4c-0.39,0.14-0.78,0.29-1.19,0.43
		c-0.82,0.28-1.66,0.54-2.47,0.77c-1.72,0.48-3.46,0.89-5.18,1.22c-3.45,0.66-7.05,1.06-10.72,1.19c-0.58,0.02-1.16-0.01-1.74,0
		c-0.29-0.01-0.58,0.01-0.87,0c-3.67-0.13-7.27-0.53-10.71-1.19c-1.73-0.33-3.47-0.74-5.16-1.21c-0.84-0.25-1.68-0.5-2.52-0.79
		c-0.4-0.13-0.78-0.28-1.17-0.42c-0.34-0.13-0.75-0.29-1-0.4c-0.03-0.02-0.27-0.11-0.3-0.12c-0.02-0.01-0.21-0.07-0.23-0.08
		c-8.07-2.72-16.17-6.87-24.74-12.68c-7.33-4.98-14.55-10.87-22.09-18c-3.56-3.37-6.98-6.79-10.18-10.17
		c-3.33-3.53-6.57-7.14-9.63-10.74c-3.1-3.64-6.15-7.42-9.09-11.23c-1.47-1.9-2.91-3.82-4.32-5.76c-1.17-1.61-2.36-3.27-3.46-4.89
		c-1.78-6.37-3.25-12.93-4.37-19.49c-0.61-3.57-1.1-7.07-1.46-10.41c-0.39-3.52-0.68-7.04-0.85-10.48
		c-0.73-13.73,0.12-27.86,2.51-41.99C105.78,60.22,114.58,0,114.58,0c-0.47,1-0.93,1.99-1.44,2.98c-0.24,0.49-0.5,0.96-0.76,1.44
		l-1.74,3.12c-3.39,6.19-6.53,12.95-9.59,20.69c-2.77,7.05-5.18,14.27-7.17,21.45c-2.06,7.41-3.72,14.83-4.94,22.09
		c-2.5,15.19-3.33,30.39-2.47,45.19c0.2,3.65,0.53,7.46,0.97,11.31c0.41,3.61,0.96,7.4,1.64,11.24c1.19,6.99,2.93,14.22,5.29,22.1
		l0.19,0.61c0.09,0.3,0.23,0.59,0.41,0.85l0.31,0.45c1.57,2.3,3.1,4.36,4.51,6.25c1.51,2.03,3.06,4.02,4.62,6.01
		c3.09,3.91,6.35,7.82,9.67,11.63c1.04,1.19,2.1,2.35,3.16,3.52c-9.07-3.34-18.74-5.63-28.19-5.63c-12.09,0-22.43,3.78-30.74,11.24
		c-2.21,2.01-5.42,6.78-3.44,11.91c3.86,9.98,25.32,14.84,65.62,14.84c0,0,0.01,0,0.01,0c9.32,0,19.74-0.27,31.03-0.8
		c2.61,1.91,5.22,3.72,7.84,5.42c9.59,6.2,18.7,10.62,27.85,13.5c0.54,0.21,0.97,0.36,1.46,0.52c0.53,0.17,1.05,0.33,1.57,0.48
		c1.04,0.3,2.07,0.56,3.13,0.81c2.03,0.47,4.12,0.86,6.22,1.15c3.71,0.53,7.57,0.8,11.47,0.8l1-0.01c0.48,0,0.95-0.05,1.43-0.07
		c0.48,0.01,0.95,0.06,1.43,0.07l0.99,0.01c3.9,0,7.76-0.27,11.46-0.8c2.1-0.29,4.19-0.68,6.24-1.15c1.04-0.25,2.08-0.51,3.11-0.81
		c0.52-0.15,1.04-0.31,1.57-0.48c0.49-0.16,0.93-0.31,1.46-0.51c9.15-2.89,18.26-7.31,27.86-13.51c3.51-2.28,7-4.75,10.49-7.41
		c11.34,0.51,21.82,0.77,31.22,0.77c41.82,0,64-4.9,67.81-14.97C379.09,201.18,375.79,196.46,373.53,194.47z"/>
</g>
</svg>
