<?xml version="1.0" encoding="utf-8"?>
<!-- Generator: Adobe Illustrator 23.0.6, SVG Export Plug-In . SVG Version: 6.00 Build 0)  -->
<svg version="1.1" id="Capa_1" xmlns="http://www.w3.org/2000/svg" xmlns:xlink="http://www.w3.org/1999/xlink" x="0px" y="0px"
	 viewBox="0 0 336.65 170.6" enable-background="new 0 0 336.65 170.6" xml:space="preserve">
<g>
	<path fill-rule="evenodd" clip-rule="evenodd" fill="#D68B62" d="M307.81,0c12.3,19.63,8.08,32.76,13.57,51.71
		c7.06,24.38-1.67,44.82-19.27,51.12c-2.94-14.7-23.29-18.76-40.95-8.96c-30.05,16.7-58.33,7.49-93.45,9.44
		c-35.11-1.96-63.4,7.26-93.44-9.44c-17.65-9.8-38.01-5.74-40.94,8.96c-17.61-6.3-26.34-26.74-19.27-51.12
		C19.54,32.76,17.65,19.63,29.95,0C-18.36,48.28,6.29,107.47,6.29,107.47s77.05,57.09,161.09,63.12c0.11,0.01,0.55,0.01,0.65,0
		c84.07-5.84,161.11-63.12,161.11-63.12S356.12,48.27,307.81,0z"/>
	<g>
		<path fill-rule="evenodd" clip-rule="evenodd" fill="#AC5F4A" d="M112.71,135.94c-4.92,0.36-22.53-3.49-44.45-10.37
			c-24.94-7.84-34.53-12.59-27.87-21.08c11.9-15.15,30.97-0.25,53.59,12.29C120.35,131.39,125.98,134.96,112.71,135.94z"/>
		<path fill-rule="evenodd" clip-rule="evenodd" fill="#AC5F4A" d="M222.52,135.94c4.92,0.36,22.53-3.48,44.45-10.37
			c24.95-7.84,34.54-12.59,27.87-21.08c-11.9-15.15-30.97-0.25-53.59,12.29C214.89,131.39,209.26,134.96,222.52,135.94z"/>
	</g>
</g>
</svg>
