<?xml version="1.0" encoding="utf-8"?>
<!-- Generator: Adobe Illustrator 23.0.6, SVG Export Plug-In . SVG Version: 6.00 Build 0)  -->
<svg version="1.1" id="Capa_1" xmlns="http://www.w3.org/2000/svg" xmlns:xlink="http://www.w3.org/1999/xlink" x="0px" y="0px"
	 viewBox="0 0 411.65 245.17" style="enable-background:new 0 0 411.65 245.17;" xml:space="preserve">
<style type="text/css">
	.st0{fill:#674234;}
	.st1{fill-rule:evenodd;clip-rule:evenodd;fill:#D68B62;}
	.st2{fill-rule:evenodd;clip-rule:evenodd;fill:#AC5F4A;}
	.st3{fill:#F7B48F;}
	.st4{fill:#D68B62;}
	.st5{fill:#AC5F4A;}
	.st6{fill:#C4734A;}
	.st7{fill:#C17B57;}
	.st8{fill-rule:evenodd;clip-rule:evenodd;fill:#F7B48F;}
	.st9{fill-rule:evenodd;clip-rule:evenodd;fill:#F7BEA1;}
	.st10{fill-rule:evenodd;clip-rule:evenodd;fill:#674234;}
</style>
<g>
	<g>
		<path class="st0" d="M74.63,226.37l-2.5-0.47c-0.78-0.14-1.74-0.31-2.78-0.5l-3.96-0.84c-1.33-0.25-2.88-0.66-4.43-1.08
			c-0.4-0.11-0.8-0.22-1.21-0.32c-0.45-0.11-0.9-0.23-1.39-0.38l-2.78-0.85c-3.8-1.24-7.87-2.69-11.96-4.87
			c-4.57-2.38-8.53-5.17-11.68-8.2c-1.99-2.03-3.62-3.75-5.1-5.93c-0.51-0.65-0.94-1.37-1.38-2.08c-0.25-0.4-0.5-0.81-0.72-1.14
			c-0.19-0.31-0.36-0.65-0.53-0.98l-0.45-0.86c-0.26-0.48-0.52-0.95-0.79-1.6l-0.8-1.77l-1.7-4.82c-0.13-0.41-0.26-0.81-0.33-1.07
			l-0.33-1.34c-0.24-0.95-0.48-1.9-0.68-3.09c-0.29-1.28-0.48-2.62-0.68-4.05l-0.03-0.2c-0.38-3.11-0.6-6.17-0.65-9.21
			c-0.04-1.08-0.02-2.18-0.01-3.27l0.05-2.1c0.06-1.3,0.11-2.61,0.22-3.96c0.39-5.92,1.23-12.14,2.57-19.03
			c0.3-1.58,0.63-3.13,0.98-4.74c0.23-1.13,0.49-2.26,0.75-3.38l0.28-1.23c0.74-3.1,1.54-6.15,2.34-9.13
			c2.8-10.16,6.15-20.51,10.56-32.59c1.73-4.75,3.38-9.1,4.87-12.92l0.79-2.02c1.18-3.01,2.23-5.69,3.16-7.94l3.58-8.71
			C48.6,58,12.84,107.98,9.09,119c-0.52,1.5-1,3.01-1.49,4.53c-0.01,0.02-0.09,0.28-0.1,0.3l-0.39,1.3
			c-0.35,1.18-0.71,2.36-1.04,3.55c-0.78,2.74-1.78,6.37-2.57,10.1c-1.59,6.94-2.68,14.14-3.22,21.41
			c-0.53,7.99-0.25,15.47,0.83,22.21c0.56,3.61,1.43,7.3,2.61,11.02c0.2,0.59,0.41,1.18,0.62,1.76l1.64,4.14
			c0.28,0.64,0.55,1.28,0.92,2.04l1.23,2.35c3.27,6.16,8.01,11.87,13.74,16.52c4.71,3.74,10.21,6.79,16.34,9.07
			C43.76,231.39,76.45,226.72,74.63,226.37z"/>
		<path class="st0" d="M411.39,166.63c-0.54-7.23-1.62-14.42-3.2-21.32c-0.79-3.68-1.75-7.19-2.59-10.14
			c-0.33-1.17-0.68-2.32-1.02-3.47l-0.44-1.46c-0.52-1.61-1.03-3.2-1.57-4.75c-3.75-11.01-39.52-61.01-38.81-59.31l3.58,8.7
			c1.07,2.63,2.32,5.8,3.74,9.43l0.2,0.52c1.5,3.84,3.15,8.19,4.88,12.94c4.34,11.9,7.8,22.55,10.56,32.57
			c0.81,3,1.61,6.05,2.34,9.1l0.3,1.29c0.26,1.11,0.52,2.23,0.76,3.41c0.34,1.55,0.67,3.11,0.97,4.7c1.33,6.87,2.17,13.1,2.57,19.07
			c0.11,1.37,0.16,2.74,0.22,4.11l0.04,1.98c0.02,1.07,0.04,2.14-0.01,3.3c-0.04,2.94-0.26,6.01-0.63,9.03l-0.06,0.43
			c-0.19,1.37-0.38,2.67-0.7,4.1c-0.16,1-0.41,1.96-0.65,2.92l-0.28,1.15c-0.11,0.4-0.24,0.79-0.36,1.19l-2.57,6.77
			c-0.21,0.52-0.48,1.01-0.79,1.57l-0.4,0.75c-0.18,0.34-0.35,0.68-0.48,0.9c-0.27,0.41-0.53,0.84-0.79,1.26
			c-0.43,0.7-0.86,1.41-1.49,2.23c-1.44,2.12-3.31,4.04-4.88,5.65c-3.25,3.12-7.21,5.91-11.8,8.3c-4.11,2.19-8.34,3.68-11.85,4.83
			l-2.91,0.89c-0.46,0.15-0.92,0.26-1.37,0.37c-0.39,0.1-0.78,0.2-1.32,0.34c-1.54,0.41-2.98,0.79-4.36,1.06
			c-1.47,0.31-2.78,0.58-3.79,0.8l-5.37,0.99c-1.83,0.35,30.83,5.04,36.41,2.95c6.14-2.27,11.64-5.33,16.39-9.1
			c5.7-4.62,10.44-10.32,13.73-16.52l1.28-2.45c0.27-0.58,0.53-1.17,0.79-1.75l1.7-4.29c0.21-0.59,0.43-1.18,0.64-1.81
			c1.16-3.67,2.04-7.36,2.59-10.96C411.64,182.14,411.92,174.65,411.39,166.63z"/>
	</g>
	<path class="st0" d="M372.04,174.1c-4.98-2.81-10.65-4.24-16.86-4.24c-13.19,0-27.57,6.45-40.67,14.8
		c3.74-5.67,7.36-11.72,10.79-18.07c1.88-3.46,3.76-7.15,5.9-11.63c1.86-3.88,3.66-7.87,5.36-11.87c1.89-4.46,3.47-8.41,4.82-12.07
		c1.44-3.85,2.84-7.86,4.29-12.24c2.77-8.43,5.17-16.82,7.16-24.92c1.1-4.5,2.03-8.64,2.85-12.65c0.44-2.13,0.85-4.26,1.24-6.41
		c0.39-2.18,0.76-4.29,1.08-6.61l0.42-3.02c0.18-1.33-0.37-2.65-1.44-3.46l-2.46-1.84c-4.71-3.52-9.12-7.31-13.12-11.27
		c-3.88-3.81-7.69-8.05-11.62-12.97c-3.65-4.59-7.08-9.4-10.2-14.32c-2.91-4.55-5.81-9.59-8.87-15.36
		c-1.01-1.93-1.99-3.94-2.97-5.96c0,0,28.13,67.74,31.86,70.78c-0.05,0.3-0.1,0.6-0.16,0.9c-0.36,2-0.74,4-1.14,6.01
		c-0.78,3.9-1.68,7.93-2.66,11.99c-2,8.2-4.22,16.19-6.62,23.73c-1.32,4.16-2.61,7.97-3.94,11.64c-1.24,3.4-2.73,7.43-4.37,11.52
		c-1.57,3.91-3.18,7.7-4.81,11.26c-1.96,4.3-3.64,7.8-5.31,11.02c-1.98,3.84-3.89,7.35-5.85,10.71c-1.76,3.03-3.73,6.23-6.4,10.36
		c-2.22,3.38-4.56,6.73-6.95,9.93c-2.4,3.19-4.95,6.35-7.59,9.4c-2.51,2.89-5.29,5.84-8.25,8.77c-2.5,2.47-5.26,4.96-8.92,8.05
		c-2.92,2.43-6.05,4.8-9.54,7.22c-2.23,1.52-4.63,3-7.11,4.47c-2.47,0.94-5.13,1.79-8.06,2.6c-0.6,0.16-1.24,0.28-1.85,0.43
		c-1.01,0.19-2.01,0.39-3.02,0.57c-3.98,0.68-7.89,1.22-11.62,1.62c-5.04,0.53-9.97,0.8-14.82,0.86c-4.88-0.05-9.89-0.32-14.98-0.86
		c-3.73-0.4-7.64-0.95-11.61-1.62c-1.02-0.18-2.03-0.38-3.05-0.57c-0.6-0.15-1.23-0.27-1.82-0.43c-2.94-0.8-5.61-1.66-8.08-2.6
		c-2.48-1.46-4.88-2.95-7.08-4.45c-3.5-2.43-6.63-4.8-9.54-7.22c-3.62-3.07-6.46-5.63-8.94-8.07c-2.96-2.93-5.74-5.88-8.25-8.77
		c-2.64-3.06-5.2-6.23-7.59-9.39c-2.43-3.27-4.77-6.61-6.94-9.93c-2.68-4.15-4.66-7.35-6.42-10.38c-1.95-3.34-3.86-6.84-5.85-10.71
		c-1.66-3.21-3.35-6.71-5.31-11.02c-1.63-3.56-3.24-7.35-4.81-11.26c-1.63-4.07-3.13-8.11-4.36-11.5
		c-1.32-3.65-2.61-7.46-3.94-11.65c-2.4-7.59-4.63-15.57-6.61-23.73c-1-4.11-1.89-8.14-2.67-11.98c-0.4-2.01-0.78-4.01-1.14-6.01
		c-0.05-0.3-0.1-0.6-0.16-0.9C85.24,67.75,113.36,0,113.36,0c-0.98,2.01-1.95,4.01-2.96,5.94c-3.06,5.79-5.97,10.82-8.88,15.39
		c-3.13,4.92-6.56,9.74-10.19,14.31c-3.94,4.93-7.75,9.17-11.64,12.99c-3.98,3.94-8.38,7.72-13.1,11.25l-2.47,1.84
		c-1.07,0.81-1.63,2.13-1.44,3.46l0.42,3.03c0.32,2.32,0.69,4.42,1.08,6.61c0.39,2.14,0.8,4.28,1.24,6.4
		c0.81,3.96,1.74,8.1,2.85,12.66c1.98,8.11,4.39,16.49,7.16,24.93c1.45,4.38,2.85,8.39,4.28,12.22c1.36,3.68,2.94,7.63,4.83,12.08
		c1.69,3.99,3.49,7.98,5.36,11.87c2.11,4.39,4.04,8.19,5.9,11.61c2.51,4.65,5.12,9.12,7.81,13.43
		c-10.86-5.97-22.24-10.15-32.84-10.15c-6.2,0-11.88,1.43-16.74,4.18c-3.77,1.95-9.85,7.17-8.72,14.29
		c2.32,14.66,34.94,27.25,99.62,38.42c0.22,0.17,0.43,0.35,0.65,0.52c3.37,2.54,6.95,4.99,10.97,7.52c3.6,2.21,7.51,4.37,11.6,6.39
		l0.35,0.18c0.28,0.14,0.57,0.25,0.87,0.31l0.26,0.06c2.43,0.54,4.66,0.92,6.34,1.19c2.07,0.34,4.15,0.64,6.24,0.91
		c4.06,0.5,8.27,0.86,12.51,1.09c3.16,0.17,6.32,0.25,9.39,0.25c2.17,0,4.31-0.07,6.45-0.16c2.14,0.09,4.29,0.16,6.46,0.16
		c3.07,0,6.22-0.09,9.39-0.25c4.24-0.23,8.45-0.59,12.53-1.09c2.08-0.27,4.15-0.57,6.23-0.91c1.68-0.28,3.91-0.66,6.33-1.19
		l0.26-0.06c0.31-0.07,0.6-0.17,0.88-0.31l0.33-0.16c4.11-2.04,8.02-4.2,11.65-6.42c3.72-2.33,7.06-4.61,10.22-6.96
		c68.82-11.44,103.45-24.35,105.85-39.47C381.78,181.21,375.7,176,372.04,174.1z"/>
</g>
</svg>
