<?xml version="1.0" encoding="utf-8"?>
<!-- Generator: Adobe Illustrator 23.0.6, SVG Export Plug-In . SVG Version: 6.00 Build 0)  -->
<svg version="1.1" id="Capa_1" xmlns="http://www.w3.org/2000/svg" xmlns:xlink="http://www.w3.org/1999/xlink" x="0px" y="0px"
	 viewBox="0 0 364.14 428.98" enable-background="new 0 0 364.14 428.98" xml:space="preserve">
<g>
	<path fill="#674234" d="M57.81,410.75l-3.84-1.97c-0.44-0.23-0.91-0.49-1.41-0.76c-0.48-0.27-0.98-0.55-1.51-0.82l-3.48-1.99
		c-0.66-0.4-1.35-0.81-2-1.19c-0.42-0.26-0.85-0.54-1.29-0.83l-0.81-0.53c-2.97-1.88-5.99-4.1-8.98-6.62
		c-3.45-2.9-6.45-5.97-8.92-9.13c-2.85-3.62-5.2-7.61-6.99-11.89c-1.74-4.06-2.91-8.7-3.59-14.12c-0.53-5.3-0.47-10.53,0.16-15.61
		c0.5-4.7,1.53-9.85,3.12-15.74c1.28-4.64,2.94-9.58,5.08-15.11c1.77-4.51,3.74-9.05,6.04-13.9c1.83-3.88,3.86-7.88,6.19-12.24
		c1.72-3.23,3.57-6.56,5.67-10.2c1.75-3.02,3.29-5.65,4.59-7.78l1.48-2.39c0.64-1.04,1.17-1.9,1.62-2.6l1.12-1.77
		c0.81-1.29,0.55-2.98-0.62-3.96c-1.17-0.98-2.88-0.95-4.01,0.08c0,0-0.58,0.53-1.63,1.58l-0.46,0.47
		c-0.94,0.96-2.23,2.26-3.71,3.93c-1.76,1.96-3.86,4.33-6.11,7.12c-2.53,3.12-5,6.39-7.35,9.73c-2.91,4.14-5.48,8.11-7.86,12.15
		c-2.95,5.04-5.43,9.75-7.56,14.4c-1.33,2.89-2.44,5.51-3.37,7.94c-0.37,0.9-0.7,1.82-1.03,2.75l-0.75,2.11
		c-0.41,1.21-0.81,2.43-1.18,3.65c-0.44,1.46-0.88,2.91-1.24,4.33c-0.36,1.28-0.66,2.59-0.96,3.9l-0.15,0.68
		c-0.52,2.51-1.16,5.82-1.53,9.21c-0.76,6.5-0.72,12.9,0.12,19.08c0.46,2.97,1.03,6.14,2.02,9.23l1.53,4.53
		c0.29,0.71,0.59,1.42,0.88,2.08c0.32,0.77,0.65,1.51,0.98,2.14c2.58,5.28,5.93,10.14,9.98,14.43c3.39,3.6,7.37,6.9,11.84,9.81
		c3.74,2.41,7.49,4.44,11.15,6.02l0.83,0.37c0.55,0.24,1.08,0.48,1.67,0.72c0.8,0.31,1.58,0.61,2.31,0.87l4.09,1.42
		c2.14,0.74,3.93,1.2,5.24,1.53l2.77,0.69c0.24,0.06,0.48,0.09,0.72,0.09c0.02,0,0.04,0,0.05,0c1.67-0.01,3.03-1.37,3.03-3.04
		C59.76,412.29,58.95,411.19,57.81,410.75z"/>
	<path fill="#674234" d="M363.61,341.8c-0.37-3.35-0.98-6.54-1.55-9.28l-0.1-0.44c-0.31-1.37-0.62-2.74-0.98-4.01
		c-0.38-1.48-0.81-2.94-1.25-4.39c-0.35-1.17-0.73-2.31-1.11-3.45l-0.81-2.29c-0.34-0.93-0.67-1.86-1.02-2.72
		c-0.94-2.47-2.05-5.09-3.39-8c-2.14-4.66-4.62-9.38-7.57-14.41c-2.33-3.96-4.9-7.93-7.86-12.15c-2.36-3.36-4.84-6.63-7.34-9.72
		c-2.27-2.82-4.36-5.18-6.1-7.11c-1.4-1.57-2.62-2.82-3.56-3.78l-0.65-0.66c-1.03-1.03-1.61-1.55-1.61-1.55
		c-1.13-1.02-2.84-1.06-4.01-0.07c-1.17,0.98-1.43,2.68-0.61,3.96l1.13,1.78c0.42,0.64,0.92,1.47,1.52,2.46l1.54,2.5
		c1.31,2.14,2.85,4.78,4.6,7.79c2.06,3.57,3.92,6.91,5.67,10.21c2.34,4.38,4.36,8.39,6.19,12.24c2.31,4.89,4.29,9.44,6.03,13.89
		c2.15,5.55,3.81,10.5,5.08,15.11c1.6,5.91,2.63,11.06,3.14,15.8c0.63,5.03,0.68,10.27,0.16,15.48c-0.68,5.5-1.86,10.14-3.61,14.21
		c-1.78,4.26-4.13,8.25-6.99,11.87c-2.5,3.2-5.42,6.19-8.92,9.13c-2.97,2.5-5.99,4.73-9.01,6.65l-0.68,0.44
		c-0.47,0.31-0.94,0.61-1.31,0.85c-0.72,0.42-1.42,0.83-2.06,1.22l-3.49,1.99c-0.56,0.29-1.08,0.59-1.58,0.86
		c-0.49,0.27-0.94,0.52-1.36,0.74l-4.12,2.12c-1.37,0.72-1.98,2.34-1.43,3.78c0.46,1.2,1.61,1.96,2.84,1.96
		c0.25,0,0.5-0.03,0.75-0.1l2.81-0.71c1.3-0.33,3.07-0.78,5.12-1.49l4.13-1.43c0.75-0.27,1.53-0.57,2.4-0.91
		c0.64-0.26,1.29-0.55,1.96-0.85l0.47-0.21c3.66-1.58,7.42-3.61,11.16-6.03c4.44-2.89,8.42-6.18,11.83-9.8
		c4.06-4.31,7.42-9.17,9.93-14.34c0.38-0.72,0.71-1.47,1.03-2.2c0.3-0.7,0.6-1.4,0.94-2.23l1.46-4.32c1.03-3.19,1.61-6.5,2.06-9.37
		C364.32,354.68,364.36,348.28,363.61,341.8z"/>
	<path fill="#674234" d="M304.95,376.81c0.23-5.34-0.77-9.1-3.06-11.49c-1.65-1.73-3.94-2.64-6.62-2.64c-0.25,0-0.51,0.04-0.77,0.06
		c3.57-5.87,6.65-12.32,9.15-19.33c2.75-7.79,4.78-16.39,6.03-25.53c1.13-8.18,1.63-16.77,1.51-26.25
		c-0.05-4.24-0.23-8.65-0.55-13.13c-0.32-4.26-0.75-8.65-1.29-13.02c-1.94-15.63-5.21-32.18-10-50.6l-12.49-47.51
		c-2.7-10-5.4-19.76-8.02-29.24c-1.41-5.11-2.8-10.13-4.15-15.06c-1.39-5.15-2.85-10.19-4.27-15.05l-7.12-24.55
		c-1.77-6.13-3.48-12-5.15-17.59l-4.77-15.77c-1.97-6.56-3.83-12.55-5.49-17.92c-0.85-2.74-1.65-5.33-2.39-7.75l-7-22.3
		c-0.5-1.56-2.14-2.45-3.71-2.01c-1.58,0.44-2.53,2.04-2.15,3.63l5.46,22.75c0.62,2.51,1.28,5.2,1.98,8.07
		c1.32,5.4,2.79,11.42,4.45,17.97l4,15.98c1.36,5.65,2.83,11.58,4.38,17.76l9.95,39.89l22.67,92.21c4.67,18.91,7.62,34.44,9.3,48.85
		c0.48,4.08,0.86,8.23,1.15,12.35c0.31,4.19,0.49,8.32,0.55,12.28c0.14,8.33-0.28,16.44-1.25,24.13c-0.98,7.87-2.7,15.55-5.1,22.81
		c-2.52,7.51-5.76,14.32-9.62,20.24c-2,3.07-4.19,6.01-6.54,8.72c-1.08,1.26-2.27,2.55-3.64,3.94c-1.3,1.31-2.71,2.69-4.03,3.98
		c-5.49,5.38-10.95,10.32-16.23,14.67c-5.62,4.63-11.18,8.71-16.56,12.14c-5.62,3.64-11.21,6.71-16.62,9.11
		c-10.19,4.54-21.17,7.29-31.77,7.94c-0.67,0.04-1.38,0.04-2.07,0.06c-0.48-0.02-0.96-0.04-1.44-0.06
		c-10.59-0.65-21.57-3.39-31.76-7.94c-5.4-2.4-10.99-5.46-16.63-9.11c-5.36-3.43-10.92-7.51-16.54-12.14
		c-5.29-4.35-10.75-9.29-16.25-14.68c-1.31-1.28-2.72-2.67-4.01-3.96c-1.38-1.4-2.57-2.69-3.66-3.96c-2.34-2.71-4.53-5.64-6.53-8.72
		c-3.86-5.92-7.1-12.72-9.61-20.22c-2.4-7.27-4.12-14.96-5.1-22.83c-0.97-7.68-1.39-15.8-1.25-24.13c0.06-3.93,0.24-8.06,0.55-12.28
		c0.28-4.11,0.67-8.26,1.15-12.33c1.68-14.42,4.63-29.94,9.3-48.86l7.21-29.41l25.41-102.68c1.55-6.18,3.02-12.12,4.37-17.74
		l4-15.99c1.65-6.52,3.12-12.52,4.43-17.9c0.71-2.89,1.37-5.61,2-8.16l5.46-22.73c0.38-1.59-0.57-3.2-2.15-3.63
		c-1.58-0.44-3.22,0.45-3.71,2.01l-7.01,22.32c-0.75,2.44-1.56,5.07-2.42,7.86c-1.65,5.33-3.49,11.28-5.44,17.78l-4.78,15.79
		c-1.66,5.58-3.38,11.45-5.14,17.58l-7.1,24.48c-1.42,4.89-2.9,9.95-4.29,15.11c-1.34,4.87-2.71,9.83-4.1,14.86
		c-2.63,9.54-5.35,19.38-8.08,29.46l-12.48,47.5c-4.79,18.41-8.06,34.95-10,50.6c-0.54,4.39-0.97,8.78-1.29,13.03
		c-0.31,4.46-0.5,8.87-0.55,13.11c-0.12,9.5,0.38,18.08,1.51,26.25c1.25,9.15,3.28,17.74,6.04,25.55
		c2.81,7.9,6.38,15.13,10.56,21.57c-1.23-0.3-2.39-0.46-3.47-0.46c-2.68,0-4.97,0.91-6.62,2.64c-2.29,2.39-3.29,6.15-3.06,11.49
		c0,0.08,0.01,0.17,0.02,0.25c0.17,1.33,4.86,32.59,70.87,39.81c0.11,0.01,0.22,0.02,0.33,0.02c0.86,0,1.67-0.37,2.24-0.99
		c0.32,0.34,0.7,0.63,1.17,0.8l1.98,0.74c0.95,0.35,2.24,0.82,3.93,1.41c2.48,0.84,5.82,1.98,9.92,3.16c4.34,1.45,8.7,2.62,13,3.45
		c5.67,1.07,11.48,1.64,17.26,1.69l1.02,0.01c0.37,0,0.72-0.02,1.08-0.02c0.36,0.01,0.71,0.02,1.08,0.02l1.01-0.01
		c5.79-0.05,11.6-0.61,17.28-1.69c4.3-0.83,8.66-2,13.01-3.46c4.1-1.17,7.45-2.32,9.99-3.18c1.61-0.55,2.89-1.02,3.85-1.38
		l1.97-0.73c0.83-0.31,1.44-0.94,1.75-1.71c0.12,0.01,0.24,0.05,0.37,0.05c0.11,0,0.22,0,0.33-0.02
		c66.01-7.23,70.71-38.48,70.88-39.81C304.94,376.97,304.94,376.89,304.95,376.81z"/>
</g>
</svg>
