<?xml version="1.0" encoding="utf-8"?>
<!-- Generator: Adobe Illustrator 23.0.6, SVG Export Plug-In . SVG Version: 6.00 Build 0)  -->
<svg version="1.1" id="Capa_1" xmlns="http://www.w3.org/2000/svg" xmlns:xlink="http://www.w3.org/1999/xlink" x="0px" y="0px"
	 viewBox="0 0 384.19 430.51" enable-background="new 0 0 384.19 430.51" xml:space="preserve">
<g>
	<path fill="#674234" d="M246.67,0c0,0-0.04,2.27-0.01,6.53c0.02,4.26,0.15,10.5,0.41,18.44c0.27,7.94,0.77,17.57,1.53,28.59
		c0.41,5.51,0.88,11.37,1.48,17.53c0.59,6.16,1.23,12.64,2.06,19.38c0.81,6.74,1.76,13.74,2.88,20.97
		c1.07,7.23,2.32,14.68,3.74,22.31c1.41,7.63,3.08,15.43,4.92,23.36c0.47,1.98,0.93,3.97,1.4,5.97c0.5,2,1,4,1.51,6.01l0.38,1.51
		l0.04,0.19c0.05,0.18-0.01-0.03,0.02,0.05l0.11,0.38l0.06,0.19c0.02,0.05,0.02,0.06,0.04,0.09l0.06,0.16
		c0.24,0.59,0.63,1.33,1.11,2.04c0.96,1.45,2.23,2.94,3.6,4.4c2.76,2.94,5.88,5.85,9.02,8.81c3.15,2.96,6.35,5.98,9.51,9.1
		c6.35,6.22,12.46,12.92,18.15,20.07c5.69,7.15,10.96,14.75,15.67,22.71c2.36,3.98,4.58,8.05,6.68,12.19
		c1.04,2.07,2.06,4.16,3.03,6.27l0.73,1.57l0.09,0.2l0.15,0.33l0.16,0.39l0.33,0.79l0.08,0.2l0.09,0.25l0.17,0.5l0.34,1.01
		c0.19,0.65,0.35,1.26,0.53,1.89c1.24,5.03,1.44,9.98,1.28,14.8c-0.2,4.83-0.85,9.54-1.75,14.17c-1.85,9.23-4.74,18.08-8.2,26.57
		c-3.46,8.49-7.6,16.58-12.11,24.3c-4.54,7.71-9.5,15.03-14.76,21.91c-5.27,6.89-10.9,13.32-16.76,19.25
		c-2.93,2.96-5.91,5.81-8.93,8.55c-3.04,2.72-6.11,5.32-9.19,7.8c-3.11,2.47-6.24,4.82-9.38,7.05c-3.18,2.19-6.33,4.29-9.52,6.23
		c-3.18,1.95-6.35,3.78-9.53,5.47c-0.79,0.42-1.59,0.84-2.37,1.26c-0.79,0.4-1.59,0.8-2.37,1.2l-1.18,0.59
		c-0.02,0.01-0.38,0.18-0.31,0.14l-0.17,0.07l-0.32,0.13l-0.64,0.24c-0.84,0.32-1.67,0.61-2.5,0.89
		c-6.63,2.21-13.15,3.62-19.41,4.49c-6.27,0.87-12.28,1.17-17.9,0.97c-11.28-0.35-20.92-2.89-28.33-5.99
		c-7.44-3.1-12.63-6.77-16.01-9.36c-1.69-1.32-2.92-2.4-3.74-3.14c-0.81-0.74-1.23-1.12-1.23-1.12s0.45,0.35,1.31,1.03
		c0.87,0.68,2.18,1.64,3.93,2.85c3.51,2.37,8.9,5.58,16.33,8.21c3.7,1.32,7.92,2.43,12.57,3.21c4.65,0.77,9.76,1.17,15.2,1.11
		c10.87-0.12,23.18-2.23,35.67-6.83c0.77-0.29,1.55-0.59,2.31-0.91l0.57-0.24l0.28-0.12l0.13-0.06c0.17-0.08-0.09,0.05-0.01,0.01
		l1.12-0.63c0.74-0.41,1.5-0.83,2.26-1.25c0.75-0.44,1.5-0.88,2.25-1.32c3.01-1.77,6.02-3.68,9.03-5.69
		c6-4.04,11.97-8.56,17.84-13.51c2.92-2.49,5.81-5.1,8.67-7.81c2.84-2.73,5.64-5.57,8.39-8.52c2.74-2.94,5.42-6.02,8.03-9.18
		c2.63-3.16,5.2-6.41,7.69-9.78c9.92-13.45,18.6-28.55,25.06-44.76c3.23-8.09,5.85-16.49,7.51-25.02c0.82-4.26,1.39-8.56,1.55-12.8
		c0.14-4.23-0.09-8.45-1.05-12.25l-0.4-1.39l-0.21-0.6l-0.1-0.3l-0.05-0.15l-0.08-0.19l-0.32-0.79l-0.16-0.4
		c-0.04-0.1,0.05,0.12-0.03-0.06l-0.09-0.19l-0.69-1.52c-0.92-2.02-1.88-4.02-2.87-6.01c-1.98-3.97-4.08-7.88-6.32-11.69
		c-4.46-7.64-9.45-14.92-14.86-21.8c-5.41-6.88-11.26-13.32-17.3-19.51c-3.03-3.09-6.11-6.1-9.21-9.12
		c-3.1-3.03-6.23-6.02-9.24-9.35c-1.5-1.67-2.99-3.43-4.33-5.52c-0.67-1.06-1.29-2.18-1.81-3.55l-0.2-0.58l-0.1-0.28l-0.05-0.19
		l-0.1-0.38l-0.08-0.32l-0.04-0.2l-0.35-1.54c-0.47-2.05-0.95-4.1-1.42-6.13c-0.43-2.04-0.86-4.07-1.29-6.09
		c-1.63-8.1-3.09-16.04-4.28-23.81c-1.22-7.76-2.27-15.32-3.11-22.66c-0.83-7.34-1.49-14.44-2.02-21.26
		c-0.55-6.82-0.95-13.37-1.26-19.59c-0.28-6.22-0.44-12.13-0.56-17.68c-0.21-11.1-0.09-20.78,0.16-28.74
		c0.22-7.96,0.62-14.21,0.9-18.46C246.42,2.26,246.67,0,246.67,0z"/>
	<path fill="#674234" d="M38.43,252.71c0,0-0.33,0.75-0.93,2.16c-0.6,1.41-1.47,3.47-2.57,6.1c-1.1,2.62-2.39,5.83-3.86,9.5
		c-1.46,3.67-3.07,7.82-4.76,12.37c-3.37,9.08-7.07,19.75-10.29,31.3c-0.79,2.89-1.56,5.84-2.29,8.82c-0.34,1.5-0.71,3-1.02,4.52
		c-0.16,0.76-0.33,1.51-0.5,2.28c-0.15,0.76-0.3,1.53-0.45,2.29c-1.19,6.12-2.1,12.37-2.52,18.61c-0.13,1.56-0.17,3.11-0.24,4.67
		c-0.01,1.55-0.08,3.1-0.01,4.64c0.05,3.08,0.28,6.12,0.65,9.11c0.22,1.48,0.42,2.97,0.75,4.41c0.24,1.46,0.65,2.87,0.99,4.29
		c0.2,0.7,0.43,1.38,0.64,2.07l0.32,1.03l0.38,1c0.26,0.66,0.51,1.33,0.76,1.99c0.29,0.64,0.58,1.29,0.87,1.92
		c0.27,0.65,0.6,1.26,0.93,1.87c0.33,0.61,0.63,1.23,0.99,1.82c0.75,1.14,1.42,2.33,2.25,3.39c1.52,2.23,3.37,4.13,5.19,5.98
		c3.76,3.57,7.98,6.32,12.13,8.45c4.16,2.17,8.29,3.61,11.99,4.79c0.93,0.28,1.84,0.54,2.71,0.81c0.87,0.28,1.74,0.44,2.56,0.67
		c0.82,0.21,1.62,0.41,2.38,0.6c0.75,0.2,1.49,0.31,2.18,0.46c1.39,0.28,2.64,0.54,3.71,0.76c1.09,0.18,2.02,0.34,2.77,0.47
		c1.51,0.27,2.32,0.41,2.32,0.41s-0.82,0.03-2.35,0.1c-0.77,0.02-1.72,0.06-2.83,0.09c-1.11,0.04-2.4-0.02-3.83-0.05
		c-0.72-0.03-1.49-0.02-2.28-0.08c-0.8-0.06-1.63-0.12-2.5-0.18c-1.74-0.08-3.61-0.38-5.62-0.66c-3.99-0.65-8.53-1.58-13.3-3.4
		c-4.76-1.79-9.8-4.35-14.5-8.11c-4.64-3.8-8.95-8.72-12.04-14.56c-0.38-0.73-0.76-1.47-1.15-2.21c-0.35-0.75-0.67-1.52-1.01-2.28
		l-0.49-1.16l-0.43-1.18c-0.28-0.79-0.58-1.58-0.84-2.38c-1.01-3.21-1.8-6.52-2.32-9.87c-0.49-3.35-0.87-6.74-0.93-10.14
		c-0.08-1.7-0.03-3.39-0.03-5.09c0.06-1.69,0.1-3.38,0.23-5.07c0.51-6.73,1.51-13.38,2.97-19.78c0.68-3.21,1.52-6.35,2.38-9.43
		c0.43-1.54,0.9-3.05,1.35-4.57c0.48-1.5,0.96-3,1.46-4.46c3.97-11.76,8.68-22.28,13.15-31.05c2.24-4.38,4.4-8.33,6.4-11.79
		c1.99-3.46,3.85-6.4,5.4-8.82c1.53-2.41,2.84-4.25,3.7-5.52C37.93,253.36,38.43,252.71,38.43,252.71z"/>
	<path fill="#674234" d="M345.77,258.88c0,0,0.5,0.65,1.38,1.9c0.86,1.27,2.17,3.1,3.7,5.53c1.54,2.41,3.4,5.35,5.4,8.81
		c2.01,3.45,4.17,7.4,6.41,11.79c4.47,8.77,9.18,19.3,13.15,31.05c0.5,1.47,0.98,2.96,1.46,4.46c0.45,1.51,0.92,3.03,1.34,4.57
		c0.87,3.08,1.7,6.22,2.39,9.43c1.46,6.4,2.46,13.04,2.96,19.77c0.13,1.68,0.17,3.38,0.23,5.07c0,1.7,0.05,3.39-0.03,5.09
		c-0.06,3.39-0.44,6.79-0.94,10.14c-0.52,3.35-1.31,6.66-2.32,9.87c-0.26,0.8-0.57,1.59-0.84,2.38l-0.43,1.18l-0.49,1.16
		c-0.33,0.77-0.66,1.54-1,2.29c-0.38,0.74-0.77,1.47-1.15,2.2c-3.08,5.84-7.4,10.76-12.04,14.55c-4.7,3.76-9.74,6.33-14.51,8.12
		c-4.76,1.82-9.3,2.75-13.29,3.4c-2.01,0.28-3.87,0.57-5.62,0.65c-0.87,0.06-1.7,0.12-2.5,0.18c-0.79,0.06-1.56,0.05-2.28,0.08
		c-1.44,0.03-2.72,0.08-3.83,0.05c-1.12-0.03-2.06-0.07-2.84-0.09c-1.53-0.07-2.35-0.1-2.35-0.1s0.8-0.15,2.32-0.41
		c0.75-0.13,1.68-0.29,2.77-0.47c1.08-0.22,2.32-0.47,3.71-0.75c0.7-0.15,1.43-0.27,2.19-0.46c0.76-0.19,1.55-0.39,2.38-0.6
		c0.81-0.23,1.69-0.4,2.55-0.67c0.88-0.26,1.78-0.53,2.72-0.81c3.7-1.18,7.83-2.62,11.98-4.79c4.15-2.13,8.38-4.87,12.14-8.45
		c1.82-1.85,3.67-3.74,5.19-5.97c0.83-1.06,1.5-2.25,2.25-3.4c0.36-0.58,0.66-1.21,1-1.82c0.33-0.61,0.66-1.21,0.93-1.87
		c0.29-0.63,0.58-1.27,0.86-1.92c0.25-0.66,0.51-1.33,0.76-1.99l0.38-1l0.32-1.03c0.21-0.69,0.44-1.38,0.64-2.07
		c0.34-1.42,0.75-2.83,0.99-4.29c0.33-1.44,0.54-2.92,0.75-4.41c0.37-2.98,0.61-6.03,0.66-9.11c0.06-1.54,0-3.09-0.01-4.64
		c-0.07-1.55-0.13-3.11-0.25-4.67c-0.41-6.23-1.32-12.48-2.52-18.61c-0.15-0.77-0.3-1.53-0.45-2.29c-0.17-0.76-0.33-1.52-0.5-2.28
		c-0.31-1.52-0.67-3.02-1.02-4.52c-0.72-2.99-1.49-5.93-2.28-8.83c-3.21-11.55-6.91-22.21-10.29-31.29
		c-1.69-4.55-3.3-8.7-4.76-12.37c-1.47-3.67-2.75-6.88-3.86-9.5c-1.1-2.63-1.98-4.69-2.57-6.1
		C346.09,259.63,345.77,258.88,345.77,258.88z"/>
	<path fill="#674234" d="M256.43,410.85c0,0,58.33-63.95,92.27-44.78C348.7,366.07,391.87,388.46,256.43,410.85z"/>
	<path fill="#674234" d="M141.36,410.84c0,0-58.34-63.94-92.27-44.77C49.1,366.07,5.93,388.46,141.36,410.84z"/>
</g>
</svg>
