<?xml version="1.0" encoding="utf-8"?>
<!-- Generator: Adobe Illustrator 23.0.6, SVG Export Plug-In . SVG Version: 6.00 Build 0)  -->
<svg version="1.1" id="Capa_1" xmlns="http://www.w3.org/2000/svg" xmlns:xlink="http://www.w3.org/1999/xlink" x="0px" y="0px"
	 viewBox="0 0 397.49 159.99" enable-background="new 0 0 397.49 159.99" xml:space="preserve">
<g>
	<path fill="#674234" d="M397.46,77.41c-0.47-14.27-8.68-29.39-13.05-38.77c-8.19-17.58-32.27-39.57-32.96-38.56
		c16,20.03,38.17,45.91,38.93,77.42c0.2,8.5-1.16,17.42-4.62,26.73c-11.42,30.73-103.96,40.56-117.16,10.93
		c13.75,11.92,70.71,17.35,70.7-8.75c0-11.8-11.83-16.27-22.21-17.48c-24.81-2.9-39.99,8.5-53.27,22.75
		c-2.65,2.85-5.24,5.81-7.81,8.8c-9.04,10.3-18.17,21.02-31.45,26.19c-29.46,10.73-64.73,1.19-82.81-23.68
		c-2.33-2.75-4.62-5.49-6.91-8.14c-6.87-7.95-13.73-15.11-21.75-19.36c-18.36-9.72-60.39-11.42-54.54,15.3
		c5.68,25.96,62.35,5.64,70.69,8.75c-0.67,0-1.34,0-2.02,0c-28.27,17.65-91.17,14.19-111.09-8.75c-6.91-7.95-9.73-17.62-9.73-27.96
		c0-30.27,24.11-66.42,40.45-82.79c-0.75-1.02-25.58,25.09-35.01,41.56C5.02,53.47-0.07,67.03,0,82.93
		c0.04,11.01,4.79,23.36,8.52,29.8c18.15,31.25,95.03,31.48,123.39,15.32c3.19,2.27,6.1,4.64,8.88,6.98
		c29.81,33.08,89.98,34.28,117.55-2.44c2.28-2.87,4.36-5.88,6.21-8.92c27.77,27.46,110.75,17.46,125.46-12.89
		C393.87,102.84,397.89,90.34,397.46,77.41z"/>
</g>
</svg>
