<?xml version="1.0" encoding="utf-8"?>
<!-- Generator: Adobe Illustrator 23.0.6, SVG Export Plug-In . SVG Version: 6.00 Build 0)  -->
<svg version="1.1" id="Capa_1" xmlns="http://www.w3.org/2000/svg" xmlns:xlink="http://www.w3.org/1999/xlink" x="0px" y="0px"
	 viewBox="0 0 304.35 235.17" style="enable-background:new 0 0 304.35 235.17;" xml:space="preserve">
<style type="text/css">
	.st0{fill:#674234;}
	.st1{fill-rule:evenodd;clip-rule:evenodd;fill:#D68B62;}
	.st2{fill-rule:evenodd;clip-rule:evenodd;fill:#AC5F4A;}
	.st3{fill:#F7B48F;}
	.st4{fill:#D68B62;}
	.st5{fill:#AC5F4A;}
	.st6{fill:#C4734A;}
	.st7{fill:#C17B57;}
	.st8{fill-rule:evenodd;clip-rule:evenodd;fill:#F7B48F;}
	.st9{fill-rule:evenodd;clip-rule:evenodd;fill:#F7BEA1;}
	.st10{fill-rule:evenodd;clip-rule:evenodd;fill:#674234;}
</style>
<g>
	<path class="st1" d="M19.65,153.96l264.88,7.26c0,0-93.77,77.09-135.4,73.85C111.51,232.14,19.65,153.96,19.65,153.96z"/>
	<path class="st7" d="M299.46,145.52c-3.11-6.43-8.52-9.92-16.67-10.76c-2.69-0.27-5.56-0.36-8.15,0.16
		c-4.54,0.91-22.3,7.95-38.17,15.8c5.43-7.42,8.18-14.67,6.03-20.88C227.98,87.69,84.88,89.6,64.43,129.22
		c-2.92,5.65-0.86,12.68,4.02,20.04c-15.33-7.6-31.91-14.3-36.28-15.19c-2.59-0.55-5.47-0.48-8.16-0.23
		c-8.16,0.79-13.59,4.23-16.74,10.64c-3.21,6.5,0.94,10.81,5.77,14.77c7.42,6.12,16.71,9.84,27.25,10.72
		c14.97,1.26,30.03,1.97,48.85,3.13c-18.82-1.16,0.82-0.03,0,0c0.83-0.04,1.57-0.11,2.27-0.2c11.98,9.66,25.03,17.73,33.21,21.32
		c12.84,5.63,43.51,6.49,56.04,0.2c8.08-4.07,20.97-11.97,32.96-21.34c1.05,0.22,2.29,0.38,3.77,0.47c-0.82-0.05,18.84-1.04,0,0
		c18.84-1.04,33.89-1.64,48.88-2.79c10.54-0.8,19.85-4.46,27.33-10.52C298.45,156.32,302.63,152.03,299.46,145.52z"/>
	<g>
		<path class="st2" d="M74.15,167.42c-11.3-0.7-20.32-1.11-29.31-1.84c-6.32-0.52-11.9-2.7-16.35-6.29
			c-2.9-2.33-5.39-4.85-3.46-8.66c1.9-3.75,5.15-5.77,10.04-6.22c1.61-0.15,3.35-0.18,4.9,0.13
			C46.19,145.78,94.06,166.31,74.15,167.42C62.85,166.72,74.65,167.39,74.15,167.42z"/>
		<path class="st2" d="M232.43,167.97c11.3-0.62,20.33-0.96,29.33-1.63c6.31-0.48,11.9-2.61,16.39-6.17
			c2.91-2.3,5.42-4.81,3.51-8.64c-1.86-3.76-5.1-5.8-10-6.29c-1.59-0.16-3.34-0.21-4.89,0.1
			C260.54,146.54,212.52,166.72,232.43,167.97C243.72,167.35,231.93,167.94,232.43,167.97z"/>
	</g>
	<g>
		<path class="st8" d="M242.51,131.08l-178.09-0.62c0,0,12.26-98.31,39.24-116.35c9.42-6.29,27.5-13.72,46.15-14.09
			c21.39-0.42,43.53,7.15,54.28,14.44C230.94,32.68,242.51,131.08,242.51,131.08z"/>
		<path class="st8" d="M59.42,136.78c0,0-29.32-46.1-59.42,0.66c0,0,3.43-50.83,83.31-91.48C83.31,45.96,37.53,98.33,59.42,136.78z"
			/>
		<path class="st8" d="M245.22,139.4c0,0,32.58-47.27,59.14-1.12c0,0,0.28-51.05-76.31-89.55
			C228.04,48.73,269.82,100.05,245.22,139.4z"/>
	</g>
	<path class="st8" d="M242.9,129.4c-0.06,18.53-41.41,24.46-89.65,24.3c-48.24-0.16-88.28-6.36-88.21-24.9
		c0.06-18.53,40.21-42.36,88.45-42.2C201.72,86.76,242.97,110.86,242.9,129.4z"/>
	<path class="st9" d="M239.3,109.94c-0.03,9.26-38.44,16.64-85.79,16.48c-47.35-0.17-85.71-7.82-85.68-17.08
		c0.04-9.26,38.44-16.65,85.8-16.47C200.98,93.04,239.33,100.68,239.3,109.94z"/>
</g>
</svg>
