<?xml version="1.0" encoding="utf-8"?>
<!-- Generator: Adobe Illustrator 23.0.6, SVG Export Plug-In . SVG Version: 6.00 Build 0)  -->
<svg version="1.1" id="Capa_1" xmlns="http://www.w3.org/2000/svg" xmlns:xlink="http://www.w3.org/1999/xlink" x="0px" y="0px"
	 viewBox="0 0 371.66 430.22" style="enable-background:new 0 0 371.66 430.22;" xml:space="preserve">
<style type="text/css">
	.st0{fill:#674234;}
	.st1{fill-rule:evenodd;clip-rule:evenodd;fill:#D68B62;}
	.st2{fill-rule:evenodd;clip-rule:evenodd;fill:#AC5F4A;}
	.st3{fill:#F7B48F;}
	.st4{fill:#D68B62;}
	.st5{fill:#AC5F4A;}
	.st6{fill:#C4734A;}
	.st7{fill:#C17B57;}
	.st8{fill-rule:evenodd;clip-rule:evenodd;fill:#F7B48F;}
	.st9{fill-rule:evenodd;clip-rule:evenodd;fill:#F7BEA1;}
	.st10{fill-rule:evenodd;clip-rule:evenodd;fill:#674234;}
</style>
<g>
	<g>
		<path class="st0" d="M371.63,336.62c-0.44-16.17-8.12-33.32-12.2-43.95c-7.66-19.94-30.17-44.86-30.82-43.71
			c14.96,22.7,35.69,52.04,36.4,87.75c0.19,9.64-1.08,19.74-4.32,30.3c-10.68,34.84-97.21,45.97-109.54,12.4
			c12.85,13.51,66.11,19.67,66.1-9.92c0-13.37-11.06-18.45-20.77-19.82c-23.2-3.29-37.39,9.64-49.81,25.79
			c-2.48,3.23-4.9,6.59-7.3,9.97c-8.45,11.67-16.99,23.83-29.41,29.69c-27.55,12.16-60.53,1.35-77.43-26.84
			c-2.18-3.12-4.32-6.22-6.47-9.23c-6.42-9.01-12.84-17.13-20.34-21.94c-17.16-11.02-56.46-12.95-50.99,17.34
			c5.31,29.44,58.3,6.39,66.1,9.92c-0.63,0-1.25,0-1.89,0c-26.43,20.01-85.25,16.08-103.88-9.92c-6.46-9.02-9.09-19.97-9.09-31.7
			c0-34.32,22.54-75.29,37.82-93.84c-0.7-1.15-23.92,28.44-32.74,47.11C4.69,309.47-0.06,324.84,0,342.86
			c0.04,12.48,4.47,26.48,7.97,33.78c16.97,35.43,88.85,35.69,115.37,17.36c2.98,2.58,5.7,5.26,8.31,7.92
			c27.87,37.5,84.13,38.85,109.9-2.77c2.14-3.25,4.08-6.66,5.82-10.11c25.97,31.12,103.55,19.79,117.31-14.61
			C368.28,365.44,372.03,351.27,371.63,336.62z"/>
	</g>
	<g>
		<g>
			<path class="st0" d="M251.91,0c0,0,0.13,0.14,0.38,0.42c0.25,0.28,0.62,0.69,1.08,1.24c0.91,1.12,2.27,2.74,3.84,4.93
				c0.81,1.08,1.63,2.33,2.56,3.67c0.89,1.36,1.86,2.83,2.83,4.44c1.99,3.2,4.04,6.92,6.15,11.06c2.07,4.15,4.16,8.75,6.11,13.71
				c1.92,4.98,3.8,10.3,5.36,15.92c0.2,0.71,0.4,1.41,0.6,2.11c0.2,0.71,0.41,1.42,0.57,2.14c0.34,1.44,0.69,2.89,1.04,4.35
				c0.37,1.46,0.66,2.95,0.96,4.43c0.29,1.49,0.58,3,0.87,4.5c0.24,1.51,0.48,3.04,0.72,4.56c0.12,0.76,0.24,1.53,0.36,2.29
				c0.13,0.76,0.18,1.54,0.28,2.31c0.34,3.09,0.72,6.19,0.9,9.3c0.1,1.55,0.2,3.11,0.3,4.67c0.03,1.56,0.07,3.12,0.11,4.67
				c0.02,1.55,0.11,3.11,0.05,4.65c-0.04,1.55-0.08,3.09-0.13,4.62c-0.02,3.07-0.32,6.11-0.55,9.1c-0.06,0.75-0.12,1.49-0.18,2.24
				c-0.06,0.74-0.17,1.48-0.25,2.21c-0.17,1.47-0.37,2.93-0.56,4.38c-0.19,1.45-0.36,2.88-0.63,4.29c-0.24,1.41-0.49,2.81-0.75,4.18
				c-0.13,0.69-0.25,1.37-0.38,2.05c-0.13,0.68-0.24,1.36-0.41,2.02c-0.31,1.34-0.61,2.65-0.92,3.95c-0.31,1.29-0.62,2.57-0.92,3.83
				c-0.14,0.63-0.32,1.25-0.5,1.86c-0.18,0.61-0.36,1.22-0.54,1.82c-0.73,2.4-1.38,4.73-2.1,6.93c-0.79,2.18-1.54,4.27-2.26,6.26
				c-0.37,0.99-0.72,1.95-1.07,2.88c-0.39,0.92-0.77,1.81-1.14,2.68c-0.75,1.73-1.44,3.34-2.1,4.82c-0.33,0.74-0.64,1.46-0.95,2.13
				c-0.34,0.66-0.66,1.3-0.96,1.9c-1.22,2.4-2.23,4.26-2.89,5.53c-0.67,1.27-1.05,1.94-1.05,1.94s0.16-0.76,0.5-2.15
				c0.35-1.39,0.82-3.45,1.5-6.02c0.17-0.64,0.35-1.32,0.53-2.03c0.17-0.72,0.33-1.47,0.5-2.26c0.34-1.57,0.74-3.25,1.15-5.05
				c0.21-0.9,0.43-1.82,0.65-2.77c0.18-0.96,0.37-1.95,0.57-2.97c0.4-2.02,0.83-4.14,1.27-6.36c0.37-2.22,0.75-4.54,1.15-6.94
				c0.18-1.2,0.45-2.4,0.59-3.65c0.16-1.24,0.32-2.5,0.49-3.78c0.16-1.28,0.34-2.57,0.52-3.87c0.1-0.65,0.15-1.31,0.22-1.97
				c0.06-0.66,0.12-1.33,0.19-2c0.22-2.69,0.61-5.41,0.72-8.2c0.4-5.57,0.62-11.33,0.63-17.17c-0.01-1.46-0.01-2.93-0.01-4.4
				c0.01-0.74-0.02-1.47-0.05-2.21l-0.07-2.21c-0.05-1.48-0.1-2.96-0.15-4.44c-0.11-1.48-0.21-2.96-0.32-4.44
				c-0.34-5.92-1.1-11.81-1.84-17.61c-0.23-1.44-0.47-2.88-0.7-4.31c-0.22-1.44-0.42-2.87-0.71-4.27c-0.26-1.41-0.53-2.81-0.79-4.2
				c-0.26-1.39-0.57-2.77-0.85-4.14c-0.3-1.36-0.55-2.73-0.89-4.05c-0.33-1.33-0.64-2.65-0.94-3.97c-0.29-1.31-0.67-2.59-1-3.87
				c-0.17-0.64-0.34-1.27-0.5-1.9c-0.16-0.63-0.33-1.26-0.51-1.88c-0.35-1.23-0.7-2.45-1.05-3.65c-0.33-1.21-0.74-2.36-1.08-3.53
				c-0.68-2.33-1.46-4.54-2.15-6.69c-1.46-4.26-2.86-8.17-4.22-11.59c-0.64-1.73-1.34-3.3-1.92-4.8c-0.63-1.47-1.19-2.83-1.73-4.04
				c-1.06-2.44-1.93-4.35-2.55-5.64C252.26,0.69,251.91,0,251.91,0z"/>
		</g>
		<g>
			<path class="st0" d="M119.74,0c0,0-0.35,0.69-0.96,1.98c-0.63,1.29-1.49,3.2-2.56,5.64c-0.54,1.22-1.1,2.58-1.73,4.04
				c-0.58,1.5-1.28,3.07-1.92,4.8c-1.36,3.42-2.76,7.33-4.22,11.59c-0.69,2.15-1.47,4.35-2.15,6.69c-0.34,1.17-0.75,2.32-1.07,3.53
				c-0.34,1.2-0.69,2.42-1.05,3.65c-0.18,0.62-0.35,1.25-0.51,1.88c-0.17,0.63-0.33,1.26-0.5,1.9c-0.33,1.27-0.71,2.55-1,3.87
				c-0.3,1.31-0.61,2.64-0.95,3.97c-0.35,1.33-0.59,2.69-0.89,4.05c-0.28,1.37-0.6,2.74-0.85,4.13c-0.26,1.39-0.53,2.79-0.79,4.21
				c-0.29,1.4-0.49,2.83-0.71,4.27c-0.23,1.43-0.46,2.87-0.7,4.31c-0.74,5.8-1.5,11.69-1.84,17.61c-0.11,1.48-0.21,2.96-0.32,4.44
				c-0.05,1.48-0.1,2.96-0.15,4.44l-0.07,2.21c-0.03,0.74-0.06,1.47-0.05,2.21c0,1.47-0.01,2.94-0.02,4.4
				c0.02,5.84,0.23,11.6,0.64,17.17c0.1,2.79,0.5,5.51,0.72,8.2c0.06,0.67,0.12,1.34,0.19,2c0.06,0.66,0.11,1.33,0.22,1.97
				c0.18,1.3,0.36,2.59,0.52,3.87c0.16,1.27,0.33,2.54,0.49,3.78c0.14,1.24,0.41,2.45,0.59,3.65c0.4,2.4,0.78,4.71,1.15,6.94
				c0.44,2.21,0.87,4.34,1.27,6.36c0.19,1.02,0.38,2.01,0.57,2.97c0.22,0.95,0.44,1.88,0.65,2.78c0.41,1.8,0.81,3.48,1.15,5.05
				c0.17,0.78,0.33,1.54,0.5,2.25c0.19,0.71,0.36,1.39,0.53,2.04c0.68,2.57,1.15,4.63,1.5,6.02c0.34,1.4,0.5,2.15,0.5,2.15
				s-0.38-0.67-1.05-1.94c-0.66-1.27-1.68-3.13-2.89-5.53c-0.31-0.6-0.63-1.23-0.96-1.9c-0.31-0.67-0.62-1.38-0.96-2.13
				c-0.67-1.48-1.35-3.09-2.1-4.82c-0.37-0.87-0.75-1.76-1.15-2.68c-0.35-0.93-0.7-1.9-1.07-2.88c-0.72-1.99-1.47-4.08-2.26-6.26
				c-0.72-2.2-1.38-4.53-2.1-6.93c-0.18-0.6-0.36-1.21-0.54-1.82c-0.18-0.61-0.36-1.23-0.5-1.86c-0.3-1.26-0.61-2.54-0.93-3.83
				c-0.32-1.3-0.62-2.61-0.92-3.95c-0.17-0.66-0.28-1.34-0.41-2.02c-0.13-0.68-0.25-1.36-0.38-2.05c-0.26-1.38-0.51-2.78-0.75-4.18
				c-0.27-1.41-0.44-2.84-0.63-4.29c-0.19-1.44-0.39-2.9-0.56-4.38c-0.08-0.74-0.19-1.47-0.25-2.22c-0.06-0.74-0.12-1.49-0.18-2.24
				c-0.23-3-0.53-6.03-0.55-9.1c-0.04-1.54-0.08-3.07-0.12-4.62c-0.06-1.54,0.03-3.1,0.05-4.65c0.04-1.55,0.07-3.11,0.11-4.67
				c0.1-1.55,0.2-3.11,0.29-4.67c0.18-3.12,0.56-6.22,0.9-9.3c0.09-0.77,0.15-1.55,0.28-2.31c0.12-0.77,0.24-1.53,0.36-2.29
				c0.24-1.53,0.48-3.05,0.72-4.56c0.29-1.51,0.58-3.01,0.88-4.5c0.3-1.48,0.59-2.97,0.96-4.43c0.35-1.46,0.7-2.91,1.04-4.35
				c0.16-0.72,0.37-1.43,0.57-2.14c0.2-0.71,0.4-1.41,0.6-2.11c1.55-5.62,3.43-10.94,5.35-15.92c1.96-4.96,4.04-9.56,6.11-13.71
				c2.11-4.14,4.16-7.86,6.15-11.06c0.97-1.61,1.94-3.08,2.83-4.44c0.93-1.34,1.75-2.58,2.56-3.67c1.57-2.19,2.94-3.82,3.84-4.93
				c0.46-0.55,0.83-0.97,1.08-1.25C119.62,0.14,119.74,0,119.74,0z"/>
		</g>
	</g>
</g>
</svg>
