<?xml version="1.0" encoding="utf-8"?>
<!-- Generator: Adobe Illustrator 23.0.6, SVG Export Plug-In . SVG Version: 6.00 Build 0)  -->
<svg version="1.1" id="Capa_1" xmlns="http://www.w3.org/2000/svg" xmlns:xlink="http://www.w3.org/1999/xlink" x="0px" y="0px"
	 viewBox="0 0 333.06 163.82" enable-background="new 0 0 333.06 163.82" xml:space="preserve">
<g>
	<path fill-rule="evenodd" clip-rule="evenodd" fill="#D68B62" d="M288.56,0c12.17,16.44,23.36,40.87,28.8,56.74
		c6.99,20.41-5.49,33.86-22.9,39.14c-2.91-12.32-23.04-15.72-40.51-7.51c-28.66,13.48-54.12,46.12-87.41,46.12
		c-33.29,0-58.75-32.63-87.41-46.12c-17.46-8.21-37.6-4.81-40.5,7.51C21.2,90.59,8.73,77.15,15.71,56.74
		C21.14,40.87,32.35,16.44,44.51,0C3.84,42.65-19.34,89.88,21.1,111.47c23.9,12.75,100.08,52.35,145.43,52.35
		c45.36,0,121.53-39.6,145.43-52.35C352.41,89.88,329.23,42.65,288.56,0z"/>
	<g>
		<path fill-rule="evenodd" clip-rule="evenodd" fill="#AC5F4A" d="M99.23,106.07C81.09,92.74,60.84,81.23,47.64,91.08
			c-8.23,6.13,1.76,10.97,25.05,19.85c20.46,7.8,37.16,12.66,42.03,12.83C127.88,124.2,121.09,122.14,99.23,106.07z"/>
		<path fill-rule="evenodd" clip-rule="evenodd" fill="#AC5F4A" d="M285.84,91.08c-13.2-9.85-33.45,1.66-51.6,14.99
			c-21.85,16.07-28.64,18.13-15.49,17.68c4.87-0.17,21.57-5.03,42.03-12.83C284.07,102.05,294.06,97.2,285.84,91.08z"/>
	</g>
</g>
</svg>
