<?xml version="1.0" encoding="utf-8"?>
<!-- Generator: Adobe Illustrator 23.0.6, SVG Export Plug-In . SVG Version: 6.00 Build 0)  -->
<svg version="1.1" id="Capa_1" xmlns="http://www.w3.org/2000/svg" xmlns:xlink="http://www.w3.org/1999/xlink" x="0px" y="0px"
	 viewBox="0 0 365.54 245.17" enable-background="new 0 0 365.54 245.17" xml:space="preserve">
<g>
	<g>
		<path fill="#674234" d="M59.53,225.94l-2.58-1.3c-0.51-0.26-1.09-0.54-1.67-0.83c-0.48-0.24-0.99-0.52-1.53-0.82
			c-0.54-0.3-1.12-0.61-1.71-0.92l-8.42-4.99c-1.22-0.75-2.48-1.65-3.81-2.6l-1-0.71c-0.47-0.34-0.94-0.71-1.41-1.08
			c-0.37-0.29-0.74-0.59-1.08-0.84l-0.47-0.37c-0.26-0.2-0.53-0.41-0.74-0.58l-1.3-1.15c-3.75-3.25-6.96-6.71-9.55-10.29
			c-3.09-4.27-5.45-8.79-6.97-13.37l-0.2-0.63c-0.34-1.1-0.67-2.13-0.94-3.32c-0.29-1.04-0.5-2.16-0.72-3.34l-0.09-0.47
			c-0.49-3.2-0.74-5.82-0.78-8.3c-0.15-5.19,0.39-10.99,1.62-17.2c0.59-2.81,1.26-5.8,2.15-8.74c0.19-0.69,0.4-1.38,0.63-2.11
			l1.14-3.56c0.31-0.94,0.62-1.87,0.98-2.83c0.51-1.4,1.03-2.79,1.61-4.23c0.4-1.07,0.84-2.12,1.27-3.17l0.37-0.91
			c1.08-2.53,2.26-5.16,3.6-8.01c2.49-5.2,5.08-10.21,7.72-14.91c2.39-4.28,21.97-44.47,20.8-43.47c0,0-0.65,0.55-1.83,1.65
			l-0.59,0.56c-1.07,1.01-2.5,2.36-4.15,4.07c-1.82,1.86-4.27,4.39-7.04,7.53c-2.93,3.3-5.81,6.75-8.57,10.26
			c-7.22,9.25-13.46,18.7-18.53,28.06c-0.58,1.04-1.13,2.11-1.69,3.18l-0.69,1.34c-0.65,1.32-1.3,2.64-1.93,3.99
			c-1.6,3.41-2.82,6.27-3.86,8.97c-2.42,6.1-4.38,12.62-5.82,19.44c-1.47,7.73-2.01,14.5-1.64,20.64
			c0.29,6.85,1.76,13.83,4.26,20.18c2.3,5.88,5.68,11.44,10.03,16.52c3.56,4.14,7.81,7.92,12.64,11.24l1.55,1.06
			c0.36,0.25,0.73,0.47,1.1,0.69l0.57,0.34c0.34,0.2,0.68,0.41,1.02,0.62c0.69,0.42,1.38,0.84,2.09,1.22
			C33.36,222.44,60.69,226.37,59.53,225.94z"/>
		<path fill="#674234" d="M363.77,149.87c-1.42-6.74-3.37-13.25-5.79-19.34c-1.05-2.75-2.29-5.62-3.87-9
			c-0.6-1.3-1.23-2.58-1.86-3.85l-0.68-1.34c-0.58-1.12-1.16-2.23-1.75-3.29c-5.09-9.39-11.33-18.84-18.55-28.09
			c-2.76-3.51-5.64-6.96-8.56-10.25c-2.83-3.21-5.37-5.83-7.02-7.51c-1.64-1.7-3.06-3.04-4.13-4.05l-0.65-0.62
			c-1.16-1.08-1.81-1.63-1.81-1.63c-1.17-1,18.42,39.2,20.81,43.48c2.65,4.73,5.25,9.75,7.7,14.88c1.36,2.89,2.54,5.51,3.59,7.99
			l0.42,1.02c0.43,1.02,0.85,2.06,1.27,3.15c0.55,1.38,1.07,2.77,1.59,4.21c0.34,0.9,0.64,1.82,0.95,2.73l1.17,3.67
			c0.22,0.68,0.43,1.37,0.64,2.14c0.88,2.93,1.54,5.9,2.12,8.63c1.23,6.25,1.78,12.05,1.63,17.28c-0.04,2.45-0.29,5.07-0.76,8.16
			l-0.12,0.63c-0.22,1.16-0.42,2.25-0.75,3.43c-0.23,1.03-0.55,2.05-0.89,3.13l-0.19,0.62c-1.54,4.64-3.9,9.15-6.99,13.42
			c-2.6,3.59-5.81,7.05-9.58,10.31l-1.23,1.08c-0.25,0.21-0.5,0.4-0.75,0.6l-0.47,0.36c-0.37,0.28-0.74,0.58-1.1,0.86
			c-0.48,0.38-0.95,0.75-1.4,1.08l-1.09,0.77c-1.31,0.94-2.56,1.82-3.82,2.6l-2.22,1.44l-6.12,3.5c-0.61,0.32-1.18,0.63-1.72,0.92
			c-0.55,0.3-1.06,0.58-1.49,0.8l-4.57,2.29c-1.38,0.7,23.53-2.09,25.06-2.91l1.41-0.75c0.68-0.36,1.36-0.77,2.05-1.19
			c0.34-0.21,0.68-0.42,1.11-0.67l0.51-0.32c0.36-0.22,0.72-0.44,1.12-0.7l1.52-1.04c4.82-3.32,9.07-7.1,12.63-11.24
			c4.35-5.07,7.73-10.63,10.03-16.51c2.5-6.35,3.97-13.33,4.26-20.13C365.8,164.42,365.26,157.65,363.77,149.87z"/>
	</g>
	<path fill="#674234" d="M309.88,173.49c-2.06,0-4.42,0.56-6.98,1.53c4.07-7.93,6.79-17.09,7.84-26.58
		c1.02-8.65,0.8-18.08-0.66-28.84c-1.17-8.51-3.21-17.65-6.24-27.9c-2.48-8.41-5.55-17.19-9.39-26.8
		c-3.72-9.38-7.64-18.31-10.99-25.82c-1.23-2.76-2.47-5.51-3.7-8.26c-2.54-5.64-5.06-11.25-7.46-16.8
		c-2.02-4.69-3.92-9.36-5.7-14.01c0,0,20.92,88.3,23.19,95.88c2.8,9.37,4.73,17.8,5.92,25.79c1.34,9.06,1.64,17.56,0.88,25.26
		c-0.78,8.33-2.95,15.99-6.43,22.76c-1.75,3.39-3.87,6.62-6.3,9.6c-1.07,1.32-2.32,2.72-3.8,4.24c-1.43,1.43-2.97,2.94-4.41,4.35
		c-6.02,5.88-12,11.27-17.78,16.01c-6.13,5.03-12.23,9.49-18.14,13.26c-6.14,3.96-12.27,7.3-18.23,9.93
		c-11.18,4.95-23.23,7.94-34.85,8.61c-1.14,0.07-2.33,0.07-3.51,0.11c-0.82-0.03-1.65-0.06-2.47-0.11
		c-11.61-0.68-23.66-3.66-34.84-8.62c-5.95-2.62-12.09-5.97-18.24-9.94c-5.9-3.76-12-8.22-18.13-13.25
		c-5.78-4.73-11.76-10.12-17.78-16.01c-1.44-1.41-2.98-2.92-4.38-4.32c-1.5-1.55-2.76-2.94-3.83-4.27
		c-2.42-2.98-4.54-6.21-6.29-9.59c-3.49-6.78-5.65-14.44-6.44-22.78c-0.76-7.7-0.46-16.19,0.89-25.25
		c1.19-7.98,3.12-16.42,5.92-25.78C79.81,88.29,100.73,0,100.73,0c-1.78,4.65-3.68,9.32-5.7,14.01c-2.39,5.52-4.89,11.09-7.41,16.69
		c-1.25,2.78-2.51,5.57-3.75,8.37c-3.34,7.5-7.26,16.44-10.98,25.81c-3.83,9.62-6.9,18.39-9.39,26.81
		c-3.03,10.27-5.07,19.39-6.24,27.91c-1.47,10.74-1.68,20.17-0.66,28.81c1.1,9.9,3.98,19.43,8.33,27.58
		c-1.31-0.31-2.56-0.5-3.71-0.5c-2.85,0-5.28,0.97-7.03,2.8c-2.45,2.55-3.52,6.59-3.27,12.34c0,0.09,0.01,0.17,0.02,0.25
		c0.18,1.44,5.28,35.36,77.14,43.23c0.11,0.01,0.22,0.02,0.33,0.02c0.96,0,1.85-0.48,2.42-1.24c0.34,0.47,0.82,0.84,1.4,1.05
		l1.85,0.68c1.06,0.39,2.57,0.94,4.6,1.63c0.32,0.1,0.67,0.22,1.01,0.34c0.62,0.26,1.24,0.54,1.85,0.78
		c6.67,2.64,13.41,4.64,20.06,5.93c6.16,1.17,12.47,1.8,18.75,1.86l1.3,0.01c0.69,0,1.35-0.03,2.02-0.04
		c0.68,0.01,1.34,0.04,2.02,0.04l1.3-0.01c6.29-0.06,12.6-0.69,18.77-1.86c6.63-1.29,13.38-3.29,20.05-5.93
		c0.61-0.24,1.24-0.52,1.85-0.78c0.37-0.13,0.76-0.25,1.1-0.37c1.95-0.66,3.46-1.21,4.53-1.61l1.83-0.67
		c0.77-0.29,1.36-0.85,1.69-1.55c1.11-0.55,2.21-1.13,3.32-1.72c0.56,0.89,1.51,1.45,2.56,1.45c0.11,0,0.22-0.01,0.33-0.02
		c71.86-7.87,76.95-41.78,77.13-43.22c0.01-0.08,0.02-0.17,0.02-0.25c0.25-5.75-0.82-9.78-3.27-12.34
		C315.16,174.45,312.73,173.49,309.88,173.49z"/>
</g>
</svg>
