<?xml version="1.0" encoding="utf-8"?>
<!-- Generator: Adobe Illustrator 23.0.6, SVG Export Plug-In . SVG Version: 6.00 Build 0)  -->
<svg version="1.1" id="Capa_1" xmlns="http://www.w3.org/2000/svg" xmlns:xlink="http://www.w3.org/1999/xlink" x="0px" y="0px"
	 viewBox="0 0 359.06 464.24" style="enable-background:new 0 0 359.06 464.24;" xml:space="preserve">
<style type="text/css">
	.st0{fill:#674234;}
	.st1{fill-rule:evenodd;clip-rule:evenodd;fill:#D68B62;}
	.st2{fill-rule:evenodd;clip-rule:evenodd;fill:#AC5F4A;}
	.st3{fill:#F7B48F;}
	.st4{fill:#D68B62;}
	.st5{fill:#AC5F4A;}
	.st6{fill:#C4734A;}
	.st7{fill:#C17B57;}
	.st8{fill-rule:evenodd;clip-rule:evenodd;fill:#F7B48F;}
	.st9{fill-rule:evenodd;clip-rule:evenodd;fill:#F7BEA1;}
	.st10{fill-rule:evenodd;clip-rule:evenodd;fill:#674234;}
</style>
<g>
	<path class="st10" d="M319.91,319.84c2.83,10.91,5.92,24,8.66,32.67c4.79,24.53,6.21,51.58-5.8,63.6
		c-16.14,16.17-34.83,19.52-57.6,10.47c11.69-2.95,20.97-1.94,30.81-8.33c3.28-2.12,5.64-8.83,6.85-13.94
		c0.41-1.75-5.39-14.65-32.6,3.84c-13.27,8.92-24.92,17.14-37.19,27.73c14.4-25.14,22.72-40.97,59.27-49.23
		c1.24-0.28-30.97-9.4-44.73,8.42c-18.3,23.71-35.97,40.8-68.05,43.15c-31.92-1.82-49.75-19.44-68.06-43.15
		c-13.76-17.83-45.97-8.68-44.73-8.42c36.25,7.61,44.87,24.09,59.27,49.23c-12.28-10.59-23.92-18.8-37.19-27.73
		c-27.21-18.49-33.02-5.59-32.6-3.84c1.2,5.12,3.57,11.82,6.85,13.94c9.85,6.39,19.12,5.39,30.82,8.33
		c-22.76,9.06-41.46,5.7-57.6-10.47c-12-12.02-10.59-39.07-5.8-63.6c2.74-8.68,5.83-21.76,8.66-32.67
		c-1.61-0.63-27.7,72.79-39.15,110.12c0.97,0.47,13.17-26.46,18.65-41.34c10.47,40.13,27.13,53.97,64.26,47.68
		c20.44-3.46,31.27,12.91,46.96,18.39c15.29,5.34,31.55,7.73,47.71,9.52c0.4,0.04,3.5,0.04,3.9,0c16.43-1.79,32.42-4.18,47.71-9.52
		c15.69-5.48,26.52-21.86,46.96-18.39c37.13,6.29,53.79-7.55,64.26-47.68c5.47,14.88,17.67,41.81,18.65,41.34
		C347.61,392.63,321.51,319.21,319.91,319.84z"/>
	<g>
		<path class="st0" d="M239.93,90.54c-0.12-13.42,8.39-84.6,32.41-90.54c-2.29,8.62-5.46,16.76-7.12,25.47
			c-2,10.58-15.3,118.72-19.93,141.96c-2.93,14.71-3.79,29.64-8.38,44.51c0-7.63,0.11-15.25-0.02-22.87
			C236.33,156.22,240.22,123.38,239.93,90.54z"/>
		<path class="st0" d="M119.13,90.54c0.12-13.42-8.39-84.6-32.41-90.54c2.3,8.62,5.47,16.76,7.11,25.47
			c2,10.58,15.32,118.72,19.93,141.96c2.92,14.71,3.79,29.64,8.37,44.51c0-7.63-0.11-15.25,0.03-22.87
			C122.73,156.22,118.84,123.38,119.13,90.54z"/>
	</g>
</g>
</svg>
