<?xml version="1.0" encoding="utf-8"?>
<!-- Generator: Adobe Illustrator 23.0.6, SVG Export Plug-In . SVG Version: 6.00 Build 0)  -->
<svg version="1.1" id="Capa_1" xmlns="http://www.w3.org/2000/svg" xmlns:xlink="http://www.w3.org/1999/xlink" x="0px" y="0px"
	 viewBox="0 0 359.41 123.93" style="enable-background:new 0 0 359.41 123.93;" xml:space="preserve">
<style type="text/css">
	.st0{fill:#674234;}
	.st1{fill-rule:evenodd;clip-rule:evenodd;fill:#D68B62;}
	.st2{fill-rule:evenodd;clip-rule:evenodd;fill:#AC5F4A;}
	.st3{fill:#F7B48F;}
	.st4{fill:#D68B62;}
	.st5{fill:#AC5F4A;}
	.st6{fill:#C4734A;}
	.st7{fill:#C17B57;}
	.st8{fill-rule:evenodd;clip-rule:evenodd;fill:#F7B48F;}
	.st9{fill-rule:evenodd;clip-rule:evenodd;fill:#F7BEA1;}
	.st10{fill-rule:evenodd;clip-rule:evenodd;fill:#674234;}
</style>
<g>
	<g>
		<path class="st10" d="M139.69,119.88c-17.18-1.05-30.93-1.67-44.62-2.79c-9.61-0.79-18.1-4.27-24.91-10
			c-4.43-3.72-8.21-7.75-5.31-13.89c2.85-6.03,7.81-9.29,15.24-10.05c2.45-0.25,5.09-0.32,7.45,0.18
			C97.03,85.3,169.97,117.99,139.69,119.88C122.5,118.83,140.43,119.83,139.69,119.88z"/>
		<path class="st10" d="M236.65,119.88c17.19-1.05,30.93-1.67,44.62-2.79c9.6-0.79,18.1-4.27,24.91-10
			c4.42-3.72,8.21-7.75,5.3-13.89c-2.85-6.03-7.8-9.29-15.24-10.05c-2.45-0.25-5.08-0.32-7.44,0.18
			C279.31,85.31,206.37,117.99,236.65,119.88C253.84,118.83,235.9,119.83,236.65,119.88z"/>
	</g>
	<g>
		<path class="st0" d="M35.02,0c0,0-0.3,0.57-0.85,1.64c-0.54,1.06-1.33,2.63-2.34,4.62c-1,1.98-2.18,4.41-3.52,7.19
			c-1.33,2.78-2.8,5.92-4.34,9.36c-3.08,6.87-6.45,14.94-9.37,23.69c-0.72,2.19-1.43,4.42-2.09,6.68c-0.31,1.13-0.65,2.27-0.92,3.42
			c-0.16,0.58-0.31,1.15-0.46,1.72c-0.14,0.58-0.27,1.16-0.42,1.74c-1.09,4.64-1.91,9.37-2.3,14.08c-0.1,1.18-0.16,2.36-0.22,3.54
			c-0.01,1.17-0.07,2.35-0.01,3.51c0.04,2.33,0.26,4.63,0.59,6.9c0.2,1.12,0.38,2.24,0.68,3.33c0.22,1.11,0.59,2.17,0.9,3.25
			c0.18,0.53,0.39,1.04,0.58,1.57L11.25,97l0.36,0.75c0.23,0.5,0.46,1.01,0.69,1.51c0.26,0.49,0.53,0.98,0.79,1.46
			c0.25,0.49,0.55,0.95,0.85,1.41c0.31,0.46,0.58,0.93,0.91,1.37c0.68,0.87,1.29,1.78,2.05,2.58c1.38,1.68,3.07,3.13,4.72,4.52
			c3.42,2.71,7.27,4.78,11.06,6.4c3.78,1.64,7.55,2.74,10.92,3.63c0.86,0.21,1.68,0.41,2.48,0.61c0.79,0.21,1.58,0.33,2.33,0.5
			c0.75,0.16,1.48,0.31,2.16,0.45c0.69,0.15,1.36,0.24,1.99,0.35c1.27,0.21,2.4,0.4,3.39,0.57c1,0.15,1.85,0.26,2.52,0.35
			c1.38,0.21,2.11,0.31,2.11,0.31s-0.75,0.03-2.14,0.08c-0.71,0.02-1.57,0.05-2.58,0.08c-1.02,0.02-2.18-0.02-3.5-0.04
			c-0.65-0.02-1.35-0.01-2.07-0.06c-0.72-0.05-1.48-0.1-2.28-0.14c-1.59-0.06-3.29-0.28-5.12-0.49c-3.64-0.49-7.78-1.2-12.12-2.57
			c-4.34-1.35-8.93-3.3-13.22-6.14c-4.22-2.87-8.15-6.59-10.97-11.01c-0.34-0.55-0.69-1.11-1.04-1.67
			c-0.32-0.57-0.62-1.15-0.92-1.73l-0.45-0.88l-0.39-0.89C3.52,97.69,3.25,97.1,3,96.5c-0.92-2.43-1.64-4.94-2.11-7.48
			c-0.46-2.53-0.8-5.11-0.85-7.68c-0.08-1.28-0.03-2.56-0.03-3.85c0.05-1.28,0.09-2.57,0.21-3.83c0.46-5.1,1.37-10.13,2.7-14.97
			c0.63-2.43,1.39-4.81,2.18-7.13c0.39-1.17,0.82-2.32,1.23-3.47c0.43-1.14,0.87-2.26,1.32-3.37c3.61-8.89,7.91-16.86,11.99-23.5
			c2.04-3.32,4.01-6.31,5.84-8.93c1.82-2.61,3.51-4.84,4.91-6.67c1.39-1.83,2.59-3.23,3.38-4.18C34.56,0.49,35.02,0,35.02,0z"/>
		<path class="st0" d="M324.38,0c0,0,0.46,0.5,1.26,1.45c0.79,0.95,1.98,2.35,3.37,4.18c1.41,1.83,3.09,4.06,4.92,6.67
			c1.82,2.62,3.8,5.61,5.84,8.93c4.07,6.64,8.37,14.6,11.98,23.5c0.46,1.11,0.89,2.23,1.32,3.37c0.41,1.15,0.84,2.3,1.23,3.46
			c0.79,2.33,1.55,4.71,2.17,7.14c1.33,4.84,2.24,9.87,2.7,14.97c0.12,1.27,0.15,2.56,0.2,3.84c0.01,1.29,0.05,2.57-0.02,3.85
			c-0.05,2.56-0.4,5.14-0.86,7.67c-0.46,2.54-1.19,5.04-2.11,7.48c-0.24,0.59-0.51,1.2-0.77,1.8l-0.39,0.89l-0.45,0.88
			c-0.31,0.58-0.59,1.16-0.92,1.72c-0.35,0.56-0.7,1.12-1.05,1.67c-2.81,4.42-6.74,8.14-10.97,11.01
			c-4.28,2.84-8.88,4.78-13.22,6.14c-4.35,1.38-8.48,2.08-12.12,2.57c-1.83,0.21-3.53,0.43-5.12,0.5c-0.79,0.04-1.55,0.09-2.28,0.13
			c-0.72,0.05-1.42,0.04-2.07,0.06c-1.31,0.03-2.48,0.07-3.49,0.04c-1.01-0.03-1.88-0.05-2.58-0.07c-1.39-0.06-2.14-0.09-2.14-0.09
			s0.74-0.11,2.12-0.31c0.69-0.1,1.53-0.21,2.52-0.35c0.99-0.16,2.12-0.35,3.39-0.57c0.63-0.12,1.3-0.2,1.99-0.35
			c0.68-0.15,1.41-0.3,2.16-0.45c0.75-0.17,1.54-0.29,2.33-0.5c0.8-0.2,1.62-0.4,2.47-0.61c3.37-0.89,7.14-1.98,10.92-3.63
			c3.78-1.62,7.64-3.69,11.06-6.4c1.66-1.39,3.34-2.83,4.73-4.52c0.75-0.8,1.36-1.71,2.05-2.58c0.32-0.44,0.6-0.91,0.9-1.37
			c0.3-0.46,0.61-0.91,0.85-1.41c0.26-0.48,0.53-0.97,0.79-1.45c0.23-0.51,0.46-1.01,0.69-1.51l0.35-0.75l0.29-0.78
			c0.19-0.53,0.4-1.04,0.58-1.57c0.32-1.07,0.68-2.14,0.91-3.25c0.3-1.09,0.49-2.21,0.68-3.34c0.34-2.26,0.55-4.55,0.6-6.89
			c0.06-1.16,0-2.34-0.01-3.51c-0.06-1.18-0.11-2.35-0.22-3.54c-0.38-4.72-1.21-9.45-2.3-14.08c-0.14-0.58-0.28-1.16-0.42-1.74
			c-0.15-0.57-0.3-1.14-0.45-1.72c-0.28-1.15-0.62-2.28-0.93-3.42c-0.65-2.26-1.37-4.49-2.09-6.68c-2.92-8.75-6.29-16.81-9.36-23.69
			c-1.54-3.44-3.02-6.58-4.35-9.36c-1.34-2.78-2.51-5.21-3.52-7.19c-1.01-1.99-1.8-3.55-2.35-4.62C324.68,0.57,324.38,0,324.38,0z"
			/>
	</g>
</g>
</svg>
