<?xml version="1.0" encoding="utf-8"?>
<!-- Generator: Adobe Illustrator 23.0.6, SVG Export Plug-In . SVG Version: 6.00 Build 0)  -->
<svg version="1.1" id="Capa_1" xmlns="http://www.w3.org/2000/svg" xmlns:xlink="http://www.w3.org/1999/xlink" x="0px" y="0px"
	 viewBox="0 0 358.19 144.53" style="enable-background:new 0 0 358.19 144.53;" xml:space="preserve">
<style type="text/css">
	.st0{fill:#674234;}
	.st1{fill-rule:evenodd;clip-rule:evenodd;fill:#D68B62;}
	.st2{fill-rule:evenodd;clip-rule:evenodd;fill:#AC5F4A;}
	.st3{fill:#F7B48F;}
	.st4{fill:#D68B62;}
	.st5{fill:#AC5F4A;}
	.st6{fill:#C4734A;}
	.st7{fill:#C17B57;}
	.st8{fill-rule:evenodd;clip-rule:evenodd;fill:#F7B48F;}
	.st9{fill-rule:evenodd;clip-rule:evenodd;fill:#F7BEA1;}
	.st10{fill-rule:evenodd;clip-rule:evenodd;fill:#674234;}
</style>
<g>
	<g>
		<path class="st10" d="M91.42,100.94c-12.74-0.79-22.92-1.26-33.06-2.11c-7.12-0.61-13.41-3.23-18.45-7.58
			c-3.27-2.83-6.09-5.89-3.94-10.54c2.12-4.57,5.79-7.05,11.3-7.63c1.81-0.18,3.77-0.24,5.51,0.13
			C59.81,74.72,113.86,99.51,91.42,100.94C78.68,100.15,91.98,100.91,91.42,100.94z"/>
		<path class="st10" d="M269.85,100.94c12.74-0.79,22.92-1.26,33.06-2.11c7.12-0.61,13.41-3.23,18.46-7.58
			c3.27-2.83,6.08-5.89,3.92-10.54c-2.12-4.57-5.78-7.05-11.3-7.63c-1.81-0.18-3.76-0.24-5.51,0.14
			C301.46,74.72,247.41,99.51,269.85,100.94C282.59,100.15,269.3,100.91,269.85,100.94z"/>
	</g>
	<path class="st0" d="M357.06,54.85c-0.17-0.73-0.3-1.47-0.49-2.19l-0.59-2.17c-0.18-0.72-0.41-1.43-0.65-2.13l-0.69-2.11
		c-0.24-0.71-0.52-1.39-0.77-2.08l-0.39-1.04l-0.2-0.52l-0.12-0.3l-0.11-0.25l-1.68-3.96c-0.57-1.32-1.08-2.64-1.73-3.96l-1.86-3.97
		c-0.32-0.66-0.61-1.33-0.94-1.97l-1-1.94l-1.99-3.87c-0.69-1.28-1.42-2.54-2.12-3.8C340.37,16.04,325.14,0,325.14,0
		c0.61,0.83,1.21,1.66,1.8,2.5l2.37,3.53c0.81,1.17,1.53,2.39,2.28,3.59c0.73,1.21,1.52,2.39,2.22,3.62c1.4,2.47,2.86,4.9,4.13,7.43
		c0.65,1.26,1.33,2.5,1.96,3.77l1.83,3.84l0.92,1.92c0.3,0.64,0.56,1.29,0.85,1.94l1.68,3.87c0.58,1.27,1.07,2.64,1.6,3.97
		l1.57,4.01l0.1,0.25c-0.02-0.07,0.01,0.01,0.01,0.01l0.02,0.06l0.04,0.13l0.17,0.49l0.34,0.99c0.22,0.66,0.46,1.31,0.67,1.97
		l0.58,2c0.2,0.66,0.39,1.33,0.54,2l0.48,2.01c0.17,0.66,0.26,1.34,0.39,2.02c0.29,1.34,0.42,2.69,0.6,4.04
		c0.25,2.69,0.32,5.38,0.08,8.02c-0.53,5.27-2.28,10.3-5.3,14.55c-3.03,4.24-7.19,7.68-11.84,10.41c-4.65,2.75-9.81,4.73-15.09,6.36
		c-5.3,1.59-10.77,2.76-16.31,3.6c-5.54,0.85-11.15,1.4-16.77,1.72c-5.63,0.32-11.28,0.42-16.93,0.32
		c-2.82-0.05-5.65-0.15-8.47-0.29c-1.41-0.08-2.81-0.16-4.22-0.26c-1.39-0.1-2.83-0.21-4.15-0.35l-1.57-0.16l-1.24,1
		c-3.9,3.14-7.83,6.22-11.84,9.16c-4,2.96-8.1,5.73-12.29,8.3c-4.19,2.58-8.48,4.95-12.91,6.96c-4.42,2.01-8.95,3.74-13.58,4.98
		c-2.32,0.56-4.69,1.16-6.93,1.46l-1.71,0.29c-0.59,0.08-1.25,0.12-1.86,0.19l-1.89,0.18l-0.94,0.09l-0.75,0.03
		c-4.7,0.18-9.51-0.16-14.3-0.93c-4.78-0.76-9.54-1.89-14.23-3.29c-4.68-1.39-9.32-3.12-13.75-5.04c-1.08-0.45-2.26-1.02-3.4-1.54
		l-0.22-0.1l-0.05-0.03c0.07,0.04,0,0,0.01,0.01l-0.07-0.04l-0.29-0.15l-0.65-0.37l-0.7-0.44l-0.72-0.47
		c-1.93-1.33-3.9-2.85-5.86-4.37c-3.93-3.08-7.83-6.3-11.91-9.44c-1.02-0.79-2.06-1.57-3.13-2.34c-1.08-0.77-2.17-1.54-3.43-2.29
		c-0.34-0.19-0.63-0.38-1.01-0.57l-0.56-0.28c-0.2-0.1-0.44-0.2-0.66-0.29l-0.17-0.07l-0.08-0.04c-0.02-0.01-0.05-0.03-0.12-0.04
		c-0.22-0.08-0.44-0.14-0.67-0.19c-0.23-0.06-0.45-0.1-0.68-0.14l-0.26-0.03l-0.12-0.01l-0.06,0c-0.92-0.03-0.29-0.01-0.51-0.01
		h-0.24l-0.47,0.01l-3.76,0.06l-7.52,0.12l-7.51-0.07c-1.25-0.02-2.5,0-3.75-0.05l-3.74-0.14c-2.49-0.1-5-0.16-7.48-0.36
		c-4.98-0.3-9.94-0.75-14.84-1.4l-3.67-0.51c-0.61-0.09-1.22-0.18-1.82-0.3l-1.81-0.34c-2.43-0.4-4.8-0.99-7.16-1.55l-3.48-0.99
		c-1.11-0.4-2.26-0.76-3.34-1.2l-1.6-0.67c-0.52-0.23-1-0.49-1.51-0.74c-0.26-0.12-0.48-0.25-0.71-0.39l-0.68-0.39l-0.57-0.4
		c-0.11-0.07-0.14-0.12-0.21-0.17l-0.1-0.07c-0.03-0.03,0.01,0,0.02,0.03c0.02,0.02,0.03,0.03,0.05,0.05l-1.3-0.92
		c-3.7-1.47-7.3-3.15-10.61-5.21c-3.31-2.05-6.27-4.55-8.67-7.45c-2.42-2.89-4.14-6.25-5.09-9.87c-0.96-3.62-1.15-7.48-0.73-11.34
		c0.41-3.87,1.38-7.73,2.69-11.51c1.31-3.78,2.97-7.48,4.83-11.09c1.86-3.61,3.94-7.14,6.18-10.57c2.23-3.44,4.59-6.81,7.06-10.11
		c2.48-3.29,5.04-6.52,7.67-9.71c1.88-2.26,3.81-4.49,5.76-6.71c0,0-21.89,20.52-24.29,23.99c-2.4,3.47-4.66,7.06-6.72,10.78
		c-2.06,3.73-3.93,7.59-5.46,11.62c-1.54,4.03-2.72,8.26-3.28,12.66c-0.56,4.39-0.46,8.98,0.62,13.43c1.06,4.46,3.14,8.71,6,12.27
		c2.84,3.57,6.28,6.56,9.99,8.97c3.51,2.29,7.22,4.13,10.99,5.74l0.01,0.01c0.17,0.15,0.37,0.32,0.52,0.43
		c0.32,0.23,0.64,0.48,0.97,0.7l0.94,0.59c0.32,0.2,0.63,0.39,0.94,0.54c0.63,0.32,1.25,0.67,1.88,0.96l1.88,0.82
		c1.26,0.52,2.52,0.93,3.78,1.41l3.8,1.14c2.54,0.64,5.08,1.3,7.63,1.75l1.91,0.38c0.63,0.14,1.27,0.25,1.91,0.34l3.83,0.59
		c5.1,0.74,10.21,1.27,15.32,1.64c2.55,0.24,5.1,0.33,7.65,0.46l3.83,0.2c1.28,0.07,2.55,0.07,3.83,0.11l7.65,0.17l7.64-0.03
		l3.82-0.02l0.35,0c0.07,0.03,0.12,0.05,0.2,0.09l0.29,0.15c0.19,0.09,0.43,0.25,0.64,0.37c0.91,0.55,1.89,1.24,2.86,1.94
		c0.97,0.71,1.95,1.46,2.92,2.21c3.9,3.05,7.79,6.29,11.79,9.47c2.01,1.59,4.04,3.17,6.26,4.72l0.86,0.58l0.9,0.58
		c0.33,0.2,0.64,0.38,0.99,0.58l0.55,0.29l0.3,0.15l0.21,0.1c1.16,0.53,2.26,1.07,3.5,1.59l1.82,0.79l1.81,0.73
		c1.2,0.51,2.43,0.94,3.65,1.41c1.22,0.46,2.45,0.87,3.68,1.3c1.24,0.39,2.47,0.81,3.72,1.18c4.99,1.5,10.08,2.72,15.28,3.56
		c5.19,0.85,10.51,1.25,15.9,1.02l0.5-0.01l0.26-0.01l0.06,0l0.2-0.01l0.12-0.01l0.94-0.09l1.89-0.18c0.64-0.07,1.24-0.11,1.9-0.2
		l2.03-0.33c2.76-0.39,5.3-1.04,7.89-1.67c5.13-1.38,10.06-3.29,14.83-5.47c4.78-2.17,9.32-4.74,13.72-7.48
		c4.4-2.74,8.66-5.66,12.77-8.74c3.71-2.75,7.31-5.6,10.87-8.5c0.95,0.07,1.89,0.14,2.83,0.2c1.46,0.09,2.92,0.16,4.37,0.21
		c2.91,0.11,5.82,0.18,8.73,0.19c5.82,0.03,11.64-0.15,17.46-0.55c5.82-0.41,11.64-1.05,17.42-2.01c5.79-0.96,11.55-2.26,17.21-4.04
		c2.84-0.89,5.63-1.95,8.37-3.14c2.75-1.2,5.44-2.56,8.03-4.16c5.16-3.18,9.98-7.27,13.52-12.47c1.76-2.59,3.17-5.44,4.17-8.41
		c1-2.97,1.59-6.05,1.84-9.12c0.22-3.08,0.07-6.14-0.27-9.15C357.59,57.81,357.4,56.31,357.06,54.85z M108.14,111.68
		c-0.03,0-0.06-0.01-0.09-0.03h0.08h0.01h0.02c0.07,0.01,0.18,0.02,0.22,0.03C108.29,111.69,108.22,111.69,108.14,111.68z"/>
</g>
</svg>
