<?xml version="1.0" encoding="utf-8"?>
<!-- Generator: Adobe Illustrator 23.0.6, SVG Export Plug-In . SVG Version: 6.00 Build 0)  -->
<svg version="1.1" id="Capa_1" xmlns="http://www.w3.org/2000/svg" xmlns:xlink="http://www.w3.org/1999/xlink" x="0px" y="0px"
	 viewBox="0 0 360.01 349.76" style="enable-background:new 0 0 360.01 349.76;" xml:space="preserve">
<style type="text/css">
	.st0{fill:#674234;}
	.st1{fill-rule:evenodd;clip-rule:evenodd;fill:#D68B62;}
	.st2{fill-rule:evenodd;clip-rule:evenodd;fill:#AC5F4A;}
	.st3{fill:#F7B48F;}
	.st4{fill:#D68B62;}
	.st5{fill:#AC5F4A;}
	.st6{fill:#C4734A;}
	.st7{fill:#C17B57;}
	.st8{fill-rule:evenodd;clip-rule:evenodd;fill:#F7B48F;}
	.st9{fill-rule:evenodd;clip-rule:evenodd;fill:#F7BEA1;}
	.st10{fill-rule:evenodd;clip-rule:evenodd;fill:#674234;}
</style>
<path class="st0" d="M358.98,144.44c-0.52-4.97-1.18-9.89-1.96-14.62c-0.4-2.41-0.84-4.82-1.3-7.24l-0.97-4.86
	c-0.01-0.05-0.05-0.21-0.06-0.25l-0.69-2.49c-1.22-4.23-2.64-8.65-4.47-13.9c-1.47-4.23-3.14-8.62-5.09-13.4
	c-1.82-4.48-3.73-8.79-5.65-12.82c-4-8.46-8.35-16.32-12.92-23.35c-4.79-7.35-9.83-13.77-14.98-19.05
	c-5.15-5.32-10.84-9.81-16.43-12.97c-6.19-3.55-11.83-5.05-15.47-5.69c-2.32-0.41-4.68-0.62-7.02-0.62c-1.51,0-2.77,0.08-3.6,0.15
	c-1.19,0.1-2.11,0.24-2.8,0.35l-0.56,0.09c-0.1-0.57-0.2-1.14-0.31-1.71c-0.79-4.33-1.54-8.3-2.28-12.03c0,0-2.56,78.98-2.04,87.83
	c0.44,7.92,0.73,16.21,0.87,24.64c0.1,8.37,0.03,16.65-0.21,24.61c-0.26,7.61-0.71,15.52-1.37,24.2c-0.71,4.04-1.5,8.15-2.3,12.22
	c-0.83,4.19-1.69,8.37-2.58,12.54c-1.82,8.51-3.74,16.91-5.7,24.96c-4.19,17.16-8.45,32.39-12.98,46.49
	c-1.74,4.44-3.54,8.89-5.44,13.33c-3.14,7.33-6.58,14.54-10.22,21.41c-2.01,3.73-3.91,7.08-5.81,10.22
	c-2.11,3.44-4.27,6.7-6.42,9.68c-5.09,7.05-10.02,12.44-15.07,16.49c-2.9,2.33-5.81,4.12-8.61,5.3c-1.42,0.58-2.66,0.95-3.82,1.19
	c-1.15-0.23-2.39-0.61-3.78-1.17c-2.84-1.2-5.75-2.99-8.65-5.32c-5.05-4.05-9.98-9.44-15.07-16.49c-2.17-3-4.27-6.17-6.41-9.67
	c-1.9-3.13-3.8-6.48-5.81-10.21c-3.65-6.89-7.09-14.1-10.22-21.42c-1.9-4.43-3.7-8.89-5.44-13.33c-4.53-14.1-8.79-29.34-12.98-46.49
	c-1.97-8.08-3.89-16.48-5.7-24.96c-0.89-4.17-1.75-8.35-2.58-12.54c-0.8-4.07-1.59-8.18-2.3-12.22c-0.66-8.72-1.11-16.64-1.37-24.18
	c-0.24-7.97-0.31-16.26-0.21-24.61c0.14-8.38,0.44-16.68,0.87-24.64C101.55,78.97,98.99,0,98.99,0c-0.73,3.74-1.49,7.7-2.28,12.03
	c-0.34,1.84-0.67,3.72-1.01,5.66c-0.21-0.07-0.41-0.16-0.64-0.18c-3.01-0.27-6.2-0.19-9.47,0.23c-2.94,0.39-6.05,1.16-9.22,2.27
	c-5.41,1.87-10.8,4.85-16.44,9.08c-2.37,1.77-4.76,3.8-7.1,6.02c-2.3,2.18-4.45,4.4-6.39,6.61c-3.85,4.34-7.49,9.06-11.11,14.41
	c-3.04,4.47-6.1,9.5-9.38,15.43c-1.33,2.43-2.68,5.04-4.15,7.97c-1.56,3.14-2.78,5.71-3.85,8.1c-2.68,5.96-4.92,11.36-6.85,16.51
	c-1.05,2.79-2.06,5.59-3.03,8.41c-0.78,2.28-1.8,5.33-2.8,8.78c-0.02,0.08-0.08,0.34-0.1,0.42c-0.71,3.47-1.37,6.97-1.96,10.37
	c-0.55,3.14-1.04,6.48-1.56,10.54c-0.47,3.72-0.83,7.19-1.1,10.62c-0.28,3.63-0.45,7.24-0.51,10.73c-0.15,7.77,0.28,14.89,1.3,21.76
	c0.52,3.56,1.3,7.23,2.32,10.93c1.11,3.98,2.38,7.49,3.88,10.7c1.7,3.67,3.68,7.05,5.88,10.03c2.39,3.22,5.12,6.11,8.12,8.57
	c3,2.48,6.36,4.59,9.97,6.27c3.3,1.55,7,2.76,10.97,3.61c3.41,0.74,7.07,1.15,11.21,1.25c0.54,0.01,1.08,0.02,1.62,0.02
	c3.15,0,6.3-0.2,9.38-0.59c3.47-0.46,7.04-1.15,10.67-2.06c4.12-1.11,7.38-2.2,10.27-3.44c1.46-0.63-28.28-3.2-31.29-3.56
	c-3.05-0.34-6.17-0.98-9.25-1.88c-2.93-0.86-5.76-2.04-8.42-3.51c-2.55-1.39-4.96-3.14-7.18-5.21c-4.11-3.81-7.42-8.78-9.85-14.76
	c-2.13-5.27-3.63-11.42-4.44-18.27c-0.38-3.12-0.62-6.38-0.72-9.66c-0.1-3.48-0.09-6.7,0.02-9.85c0.11-3.14,0.31-6.38,0.63-9.92
	c0.27-3.18,0.64-6.52,1.09-9.93c0.86-6.46,1.96-13.07,3.27-19.65c0.34-1.19,0.73-2.45,1.11-3.69c0.41-1.35,0.84-2.7,1.28-4.04
	c0.88-2.69,1.8-5.38,2.76-8.05c2.22-6.17,4.18-11.23,6.15-15.9c1.11-2.62,2.23-5.23,3.4-7.82c1.19-2.62,2.41-5.21,3.64-7.69
	c2.42-4.96,5.13-9.96,8.04-14.86c1.49-2.48,3-4.87,4.51-7.1c1.6-2.4,3.23-4.68,4.85-6.77c1.89-2.44,3.62-4.52,5.29-6.37
	c1.99-2.19,3.88-4.09,5.79-5.83c2.13-1.93,4.2-3.59,6.32-5.06c2.4-1.65,4.66-2.99,6.94-4.08c2.39-1.16,4.91-2.09,7.5-2.79
	c2.37-0.64,4.95-1.06,7.68-1.25c-0.66,4.07-1.34,8.45-2.05,13.27c-1.17,7.98-2.2,16.16-3.14,25c-0.1,0.93-0.19,1.89-0.28,2.84
	c-1.11,7-1.98,13.18-2.71,19.12c-2.33,18.99-3.42,34.59-3.41,49.09c0.01,9.61,0.42,17.53,1.29,24.91c0.25,2.14,0.57,4.28,0.95,6.33
	c0.09,0.51,0.19,1.01,0.33,1.71l3.71,16.39c1.89,8.1,3.88,16.09,5.93,23.75c0.69,2.57,1.35,5.02,2.01,7.41
	c-9.4-18.96-29.12-54.38-45.13-54.38c-4.2,0-7.79,2.16-10.68,6.43c-0.09,0.13-0.17,0.27-0.23,0.41c-0.15,0.32-3.63,7.92,0.68,18.96
	c6.35,16.29,25.41,30.98,56.66,43.68c0.37,0.15,0.76,0.22,1.15,0.22c0.64,0,1.26-0.21,1.79-0.59c0.14,0.48,0.29,0.98,0.44,1.46
	c0.01,0.04,0.03,0.09,0.04,0.13c3.26,12.5,6.6,24.04,10.13,34.96c2.89,8.85,5.8,16.94,8.91,24.72c3.69,9.22,7.32,17.12,11.08,24.18
	c2.28,4.26,4.55,8.09,6.94,11.7c2.87,4.32,5.7,7.95,8.64,11.1c3.87,4.15,7.73,7.26,11.84,9.51c2.69,1.44,5.25,2.43,7.8,2.99
	c2.44,0.58,5.02,0.8,7.6,0.64l0.1,0.02c0.44,0.07,0.86,0.11,1.23,0.14c0.61,0.06,1.19,0.08,1.77,0.08l0.51,0
	c0.7-0.02,1.4-0.07,2.09-0.14c0.7,0.07,1.4,0.12,2.1,0.14l0.49,0c0.58,0,1.17-0.02,1.73-0.07c0.41-0.03,0.83-0.07,1.29-0.14
	l0.08-0.02c2.57,0.15,5.18-0.07,7.57-0.63c2.58-0.58,5.14-1.56,7.86-3.02c4.08-2.24,7.95-5.34,11.82-9.49
	c2.94-3.16,5.76-6.79,8.64-11.11c2.38-3.6,4.65-7.42,6.93-11.69c3.76-7.06,7.39-14.97,11.09-24.18c3.11-7.8,6.03-15.89,8.91-24.73
	c3.52-10.89,6.86-22.42,10.12-34.91c0.02-0.05,0.03-0.1,0.05-0.17c0.37-1.23,0.75-2.51,1.13-3.79c0.56,0.63,5.85-2.73,6.28-3.72
	c65.38-27.93,51.73-56.85,51.73-56.85c-1.8-2.65-7.13-8.62-8.81-8.62c-4.78,0-9.82,2.74-15.42,8.37
	c-11.68,11.76-23.98,35.06-30.28,48.56c0.67-2.43,1.35-4.92,2.05-7.54c2.04-7.64,4.04-15.64,5.93-23.76l3.72-16.43
	c0.11-0.55,0.23-1.1,0.32-1.63c0.38-2.09,0.7-4.23,0.95-6.36c0.88-7.36,1.29-15.28,1.3-24.91c0.01-14.5-1.07-30.09-3.41-49.09
	c-0.72-5.91-1.59-12.09-2.7-19.11c-0.1-0.95-0.19-1.92-0.29-2.85c-0.94-8.84-1.97-17.02-3.14-25c-0.94-6.33-1.81-11.9-2.68-17.05
	l0.47,0c0.51,0,1.17,0.01,1.97,0.04c2.8,0.11,5.74,0.61,8.72,1.48c3.97,1.15,8.21,3.23,12.25,6.02c4.43,3.08,8.89,7.27,13.24,12.46
	c4.24,5.06,8.45,11.18,12.5,18.21c3.8,6.59,7.54,14.14,11.13,22.43c1.68,3.93,3.36,8.09,4.99,12.36c1.42,3.76,2.88,7.86,4.57,12.89
	c1.43,4.3,2.8,8.76,4.04,13.22l0.45,1.66l0.94,4.7c0.42,2.29,0.83,4.59,1.2,6.91c1.59,9.58,2.6,18.82,2.98,27.44
	c0.19,4.57,0.18,9.06-0.02,13.31c-0.23,4.46-0.7,8.72-1.4,12.66c-1.54,8.62-4.26,15.83-8.09,21.44c-3.71,5.54-8.88,9.94-14.99,12.72
	c-2.59,1.21-5.43,2.17-8.69,2.94c-2.68,0.63-5.52,1.07-8.42,1.3c-4.67,0.35-30.23,2.62-28.8,3.29c0.05,0.02,1.24,0.57,3.49,1.37
	c2.54,0.89,5.68,1.92,9.76,2.81c3.56,0.79,9.08,1.84,15.83,1.93l1.07,0.01c7.35,0,13.9-1.11,20.03-3.39c4.02-1.49,7.79-3.51,11.2-6
	c3.61-2.63,6.9-5.86,9.76-9.62c2.74-3.6,5.11-7.74,7.06-12.32c1.76-4.13,3.16-8.64,4.29-13.8c1.88-8.79,2.66-18.32,2.38-29.12
	C359.82,154.16,359.49,149.2,358.98,144.44z"/>
</svg>
