<?xml version="1.0" encoding="utf-8"?>
<!-- Generator: Adobe Illustrator 23.0.6, SVG Export Plug-In . SVG Version: 6.00 Build 0)  -->
<svg version="1.1" id="Capa_1" xmlns="http://www.w3.org/2000/svg" xmlns:xlink="http://www.w3.org/1999/xlink" x="0px" y="0px"
	 viewBox="0 0 335.03 173.9" style="enable-background:new 0 0 335.03 173.9;" xml:space="preserve">
<style type="text/css">
	.st0{fill:#674234;}
	.st1{fill-rule:evenodd;clip-rule:evenodd;fill:#D68B62;}
	.st2{fill-rule:evenodd;clip-rule:evenodd;fill:#AC5F4A;}
	.st3{fill:#F7B48F;}
	.st4{fill:#D68B62;}
	.st5{fill:#AC5F4A;}
	.st6{fill:#C4734A;}
	.st7{fill:#C17B57;}
	.st8{fill-rule:evenodd;clip-rule:evenodd;fill:#F7B48F;}
	.st9{fill-rule:evenodd;clip-rule:evenodd;fill:#F7BEA1;}
	.st10{fill-rule:evenodd;clip-rule:evenodd;fill:#674234;}
</style>
<g>
	<path class="st1" d="M296.06,0c12.31,17.4,19.76,39.36,25.25,56.15c7.07,21.6-1.67,39.72-19.29,45.3
		c-2.94-13.03-23.32-16.62-40.98-7.94c-30.08,14.8-66.17-9.02-101.31-7.28c-35.15-1.73-55.66,22.08-85.74,7.28
		c-17.67-8.68-38.04-5.09-40.98,7.94c-17.62-5.58-26.36-23.7-19.29-45.3C19.21,39.36,26.66,17.4,38.97,0
		C-9.38,42.77,0.92,117.96,0.92,117.96s82.14,50.59,166.25,55.94c0.11,0,0.55,0.01,0.65,0c84.14-5.18,166.28-55.94,166.28-55.94
		S344.41,42.77,296.06,0z"/>
	<g>
		<path class="st2" d="M112.47,124.56c-4.92,0.37-22.55-3.55-44.48-10.54c-24.97-7.96-34.57-12.78-27.89-21.41
			C52,77.23,71.09,92.36,93.73,105.1C120.11,119.94,125.74,123.57,112.47,124.56z"/>
		<path class="st2" d="M222.37,124.56c4.92,0.37,22.55-3.54,44.48-10.54c24.97-7.96,34.57-12.78,27.9-21.41
			c-11.91-15.39-30.99-0.26-53.64,12.48C214.73,119.94,209.1,123.57,222.37,124.56z"/>
	</g>
</g>
</svg>
