<?xml version="1.0" encoding="utf-8"?>
<!-- Generator: Adobe Illustrator 23.0.6, SVG Export Plug-In . SVG Version: 6.00 Build 0)  -->
<svg version="1.1" id="Capa_1" xmlns="http://www.w3.org/2000/svg" xmlns:xlink="http://www.w3.org/1999/xlink" x="0px" y="0px"
	 viewBox="0 0 376.48 483.48" enable-background="new 0 0 376.48 483.48" xml:space="preserve">
<g>
	<path fill="#674234" d="M58.01,296.07c0,0-0.49,0.69-1.41,1.96c-0.93,1.27-2.23,3.18-3.91,5.57c-1.67,2.4-3.65,5.35-5.88,8.74
		c-2.24,3.39-4.72,7.23-7.33,11.47c-2.62,4.24-5.36,8.87-8.12,13.82c-2.78,4.95-5.52,10.25-8.17,15.79
		c-1.31,2.78-2.6,5.62-3.83,8.52c-0.6,1.46-1.22,2.91-1.78,4.4c-0.59,1.47-1.15,2.97-1.69,4.47c-0.56,1.49-1.04,3.02-1.57,4.54
		l-0.71,2.3c-0.25,0.76-0.48,1.53-0.69,2.3c-0.93,3.08-1.63,6.2-2.29,9.33c-1.24,6.26-1.95,12.6-1.76,18.77
		c0.05,3.09,0.4,6.12,0.85,9.09c0.28,1.47,0.53,2.94,0.93,4.36c0.33,1.45,0.79,2.84,1.22,4.23c1.84,5.53,4.59,10.54,7.76,14.92
		c3.18,4.4,6.84,8.14,10.5,11.32c0.46,0.4,0.91,0.8,1.35,1.19c0.46,0.38,0.93,0.74,1.39,1.1c0.92,0.71,1.8,1.44,2.7,2.1
		c1.82,1.29,3.54,2.55,5.25,3.6c0.85,0.55,1.66,1.07,2.45,1.59c0.81,0.47,1.59,0.93,2.35,1.38c0.75,0.45,1.47,0.87,2.17,1.29
		c0.71,0.38,1.38,0.74,2.03,1.08c1.29,0.67,2.42,1.32,3.44,1.84c1.01,0.5,1.88,0.93,2.59,1.28c1.41,0.72,2.15,1.1,2.15,1.1
		s-0.81-0.21-2.34-0.61c-0.76-0.21-1.71-0.46-2.81-0.76c-1.11-0.29-2.35-0.74-3.76-1.2c-0.7-0.24-1.44-0.49-2.21-0.74
		c-0.76-0.3-1.57-0.6-2.4-0.92c-0.84-0.32-1.7-0.66-2.61-1.02c-0.88-0.4-1.8-0.81-2.74-1.24c-1.92-0.81-3.84-1.91-5.92-2.99
		c-1.05-0.55-2.05-1.22-3.11-1.85c-0.52-0.32-1.07-0.64-1.59-0.99c-0.53-0.36-1.06-0.72-1.58-1.09c-4.27-2.94-8.66-6.61-12.63-11.22
		c-3.94-4.6-7.5-10.12-9.95-16.39c-2.46-6.25-3.95-13.12-4.24-20.11c-0.42-6.99,0.36-14.04,1.67-20.89
		c1.44-6.82,3.42-13.48,5.92-19.78c1.21-3.16,2.57-6.23,3.96-9.22c0.7-1.5,1.43-2.96,2.15-4.42c0.75-1.44,1.48-2.88,2.26-4.28
		c6.09-11.25,12.9-20.99,19.13-28.98c3.13-3.98,6.12-7.53,8.85-10.6c2.72-3.08,5.2-5.66,7.26-7.76c2.05-2.12,3.75-3.69,4.9-4.77
		C57.36,296.62,58.01,296.07,58.01,296.07z"/>
	<path fill="#674234" d="M318.47,296.07c0,0,0.64,0.55,1.8,1.62c1.15,1.08,2.85,2.65,4.9,4.77c2.06,2.1,4.54,4.68,7.26,7.76
		c2.72,3.07,5.72,6.62,8.85,10.6c6.24,7.98,13.04,17.73,19.14,28.98c0.78,1.4,1.51,2.84,2.26,4.28c0.72,1.46,1.44,2.92,2.14,4.42
		c1.41,2.99,2.76,6.06,3.97,9.22c2.5,6.3,4.48,12.96,5.92,19.78c1.31,6.85,2.09,13.9,1.67,20.89c-0.3,6.99-1.79,13.86-4.24,20.11
		c-2.45,6.26-6.02,11.78-9.96,16.39c-3.96,4.61-8.35,8.28-12.62,11.22c-0.53,0.37-1.06,0.73-1.59,1.09
		c-0.53,0.35-1.07,0.66-1.6,0.99c-1.06,0.63-2.08,1.3-3.11,1.85c-2.09,1.08-4.01,2.17-5.93,2.99c-0.95,0.43-1.86,0.84-2.74,1.24
		c-0.9,0.36-1.77,0.7-2.6,1.02c-0.83,0.32-1.63,0.62-2.4,0.92c-0.77,0.26-1.52,0.51-2.22,0.74c-1.4,0.46-2.64,0.9-3.75,1.2
		c-1.1,0.3-2.05,0.55-2.81,0.76c-1.52,0.4-2.34,0.61-2.34,0.61s0.75-0.38,2.16-1.09c0.71-0.35,1.57-0.78,2.59-1.28
		c1.01-0.52,2.15-1.17,3.44-1.84c0.64-0.34,1.31-0.7,2.03-1.08c0.69-0.41,1.41-0.84,2.17-1.29c0.75-0.44,1.54-0.9,2.35-1.38
		c0.78-0.51,1.61-1.04,2.45-1.59c1.71-1.05,3.42-2.32,5.25-3.6c0.9-0.66,1.79-1.39,2.71-2.1c0.46-0.36,0.93-0.72,1.38-1.1
		c0.46-0.39,0.91-0.79,1.36-1.19c3.67-3.18,7.32-6.92,10.51-11.32c3.18-4.39,5.92-9.4,7.76-14.92c0.43-1.39,0.89-2.78,1.23-4.23
		c0.4-1.42,0.65-2.89,0.93-4.36c0.46-2.97,0.8-6,0.85-9.09c0.18-6.17-0.53-12.51-1.76-18.77c-0.66-3.13-1.37-6.26-2.29-9.33
		c-0.21-0.78-0.45-1.54-0.7-2.3l-0.71-2.3c-0.52-1.52-1-3.04-1.56-4.54c-0.54-1.5-1.11-2.99-1.7-4.47c-0.56-1.49-1.18-2.94-1.78-4.4
		c-1.23-2.9-2.51-5.74-3.83-8.52c-2.65-5.55-5.39-10.84-8.17-15.79c-2.77-4.96-5.51-9.58-8.12-13.82c-2.61-4.24-5.1-8.08-7.33-11.47
		c-2.24-3.38-4.21-6.33-5.88-8.74c-1.68-2.39-2.98-4.3-3.9-5.57C318.96,296.76,318.47,296.07,318.47,296.07z"/>
	<path fill="#674234" d="M53.3,429.41c0,0,4.36,34.44,77.98,42.5C131.28,471.91,51.4,385.28,53.3,429.41z"/>
	<path fill="#674234" d="M328.97,427.3c0,0-4.34,34.45-77.98,42.51C251,469.8,330.89,383.18,328.97,427.3z"/>
	<path fill="#674234" d="M262.63,0c0,0-0.51,2.38-1.46,6.83c-0.48,2.23-1.01,4.98-1.67,8.2c-0.34,1.62-0.64,3.36-0.99,5.22
		c-0.35,1.86-0.74,3.83-1.09,5.92c-1.51,8.34-3.08,18.52-4.48,30.23c-1.37,11.71-2.45,24.96-2.83,39.42
		c-0.4,14.46,0.11,30.13,1.75,46.57c0.83,8.22,1.95,16.63,3.5,25.16c1.52,8.53,3.45,17.17,5.66,25.89
		c4.43,17.45,10.57,35.02,18.07,52.39c3.75,8.67,7.77,17.43,11.71,26.28c3.95,8.85,7.84,17.81,11.45,26.92
		c3.63,9.1,6.95,18.37,9.74,27.8c2.78,9.43,5.1,19.02,6.44,28.76c1.33,9.74,1.83,19.64,0.68,29.39c-1.08,9.74-3.86,19.34-8.43,27.85
		c-2.29,4.25-5.02,8.23-8.07,11.84c-1.52,1.81-3.13,3.52-4.8,5.16c-1.64,1.59-3.18,3.07-4.84,4.6c-6.51,6.02-13.1,11.65-19.79,16.83
		c-6.69,5.18-13.47,9.89-20.32,14c-6.87,4.07-13.82,7.53-20.74,10.27c-6.91,2.74-13.78,4.75-20.44,6.04
		c-6.66,1.27-13.07,1.83-19.08,1.9c-12.05,0.14-22.38-1.72-30.68-3.65c-8.32-1.94-14.66-4.09-18.98-5.55
		c-2.16-0.73-3.8-1.33-4.9-1.74c-1.1-0.4-1.67-0.62-1.67-0.62s2.34,0.68,6.73,1.85c4.39,1.16,10.87,2.79,19.19,4.25
		c4.16,0.72,8.79,1.36,13.85,1.74c5.05,0.38,10.53,0.54,16.34,0.18c11.62-0.68,24.56-3.51,37.6-9.29
		c6.52-2.88,13.06-6.46,19.53-10.64c6.5-4.14,12.94-8.89,19.3-14.11c6.36-5.21,12.65-10.91,18.83-16.95
		c1.52-1.48,3.15-3.08,4.65-4.59c1.46-1.5,2.88-3.05,4.2-4.68c2.65-3.26,4.99-6.81,6.95-10.6c3.91-7.59,6.25-16.13,7.08-25.01
		c0.87-8.88,0.41-18.06-0.95-27.23c-1.36-9.17-3.58-18.36-6.3-27.46c-2.73-9.1-5.99-18.12-9.46-27.07
		c-3.5-8.96-7.29-17.82-11.16-26.65c-3.87-8.84-7.85-17.58-11.6-26.49c-7.37-17.83-13.4-35.96-17.65-53.87
		c-4.29-17.9-6.87-35.56-8.11-52.35c-0.63-8.39-0.97-16.58-0.93-24.49c0.03-7.91,0.21-15.55,0.7-22.86
		c0.09-1.83,0.23-3.64,0.37-5.42c0.14-1.79,0.25-3.55,0.42-5.3c0.34-3.49,0.67-6.89,1.09-10.2c0.2-1.66,0.4-3.29,0.59-4.9
		c0.23-1.61,0.45-3.19,0.67-4.76c0.41-3.13,0.94-6.15,1.39-9.08c1.89-11.72,4.13-21.83,6.07-30.11c1.94-8.28,3.73-14.73,4.94-19.11
		C261.96,2.33,262.63,0,262.63,0z"/>
</g>
</svg>
