<?xml version="1.0" encoding="utf-8"?>
<!-- Generator: Adobe Illustrator 23.0.6, SVG Export Plug-In . SVG Version: 6.00 Build 0)  -->
<svg version="1.1" id="Capa_1" xmlns="http://www.w3.org/2000/svg" xmlns:xlink="http://www.w3.org/1999/xlink" x="0px" y="0px"
	 viewBox="0 0 320.74 91.95" style="enable-background:new 0 0 320.74 91.95;" xml:space="preserve">
<style type="text/css">
	.st0{fill:#674234;}
	.st1{fill-rule:evenodd;clip-rule:evenodd;fill:#D68B62;}
	.st2{fill-rule:evenodd;clip-rule:evenodd;fill:#AC5F4A;}
	.st3{fill:#F7B48F;}
	.st4{fill:#D68B62;}
	.st5{fill:#AC5F4A;}
	.st6{fill:#C4734A;}
	.st7{fill:#C17B57;}
	.st8{fill-rule:evenodd;clip-rule:evenodd;fill:#F7B48F;}
	.st9{fill-rule:evenodd;clip-rule:evenodd;fill:#F7BEA1;}
	.st10{fill-rule:evenodd;clip-rule:evenodd;fill:#674234;}
</style>
<g>
	<path class="st4" d="M296.84,11.15c-8.86-3.53-27.15-10.9-35.35-11.13c-21.45-0.57-44.97,8.73-66,22.01
		c-8.37,5.29-28.13,7.72-37.52,7.72c-9.38,0-29.15-2.43-37.52-7.72C99.42,8.76,75.9-0.55,54.47,0.03c-8.2,0.22-26.5,7.6-35.35,11.13
		c-36.4,14.51-11.79,34.7,0.2,43.74c30.05,22.67,59.86,11.49,81.39,21.55c13.38,6.24,26.33,12.78,34.93,14.25
		c10.59,1.82,32.21,1.52,42.83,0.02c8.83-1.25,23.38-8.01,36.79-14.27c21.53-10.06,67.39-1.55,89.38-21.55
		C321.51,39.55,333.24,25.66,296.84,11.15z"/>
	<g>
		<path class="st6" d="M123.48,58.72c-3.05,10.07-29.33,4.86-47.72-1.06c-18.4-5.91-26.9-9.45-23.86-19.52
			c3.05-10.07,20.02-11.44,37.52-3.16C109.81,44.64,126.52,48.65,123.48,58.72z"/>
		<path class="st6" d="M199.15,58.72c3.05,10.07,29.33,4.86,47.73-1.06c18.39-5.91,26.89-9.45,23.85-19.52
			c-3.05-10.07-20.02-11.44-37.52-3.16C212.82,44.64,196.11,48.65,199.15,58.72z"/>
		<path class="st5" d="M116.42,46.78c16.94,11.19,4.36,18.46-12.08,9.36c-59.29-32.84-47.81-5.93-47.81-5.93
			c-10.91-12.01-4.5-22.26,8.71-22.27C83.38,27.92,113.05,44.56,116.42,46.78z"/>
		<path class="st5" d="M206.48,46.78c-16.94,11.19-4.37,18.46,12.08,9.36c59.29-32.84,47.81-5.93,47.81-5.93
			c10.92-12.01,4.5-22.26-8.7-22.27C239.52,27.92,209.84,44.56,206.48,46.78z"/>
	</g>
</g>
</svg>
