<?xml version="1.0" encoding="utf-8"?>
<!-- Generator: Adobe Illustrator 23.0.6, SVG Export Plug-In . SVG Version: 6.00 Build 0)  -->
<svg version="1.1" id="Capa_1" xmlns="http://www.w3.org/2000/svg" xmlns:xlink="http://www.w3.org/1999/xlink" x="0px" y="0px"
	 viewBox="0 0 344.1 407.56" style="enable-background:new 0 0 344.1 407.56;" xml:space="preserve">
<style type="text/css">
	.st0{fill:#674234;}
	.st1{fill-rule:evenodd;clip-rule:evenodd;fill:#D68B62;}
	.st2{fill-rule:evenodd;clip-rule:evenodd;fill:#AC5F4A;}
	.st3{fill:#F7B48F;}
	.st4{fill:#D68B62;}
	.st5{fill:#AC5F4A;}
	.st6{fill:#C4734A;}
	.st7{fill:#C17B57;}
	.st8{fill-rule:evenodd;clip-rule:evenodd;fill:#F7B48F;}
	.st9{fill-rule:evenodd;clip-rule:evenodd;fill:#F7BEA1;}
	.st10{fill-rule:evenodd;clip-rule:evenodd;fill:#674234;}
</style>
<g>
	<path class="st0" d="M40.51,370.45c-3.66-2.91-6.98-6.05-9.83-9.28c-0.59-0.7-1.18-1.41-1.78-2.14l-0.44-0.53
		c-0.28-0.38-0.57-0.76-0.86-1.14c-0.44-0.56-0.88-1.13-1.29-1.74l-0.38-0.55c-0.54-0.79-1.08-1.57-1.6-2.46l-0.36-0.58
		c-0.2-0.31-0.4-0.63-0.56-0.92l-0.96-1.72c-0.28-0.47-0.53-0.97-0.77-1.48l-1.58-3.38c-0.24-0.5-0.46-1.02-0.7-1.66
		c-0.96-2.27-1.69-4.69-2.35-6.91c-1.29-4.7-2.14-9.63-2.53-14.67c-0.18-2.14-0.27-4.44-0.3-7.42c0-2.63,0.12-5.2,0.24-7.32
		c0.32-4.64,8.03-56.34,7.1-55.14c0,0-0.46,0.6-1.26,1.79c-0.73,1.09-1.82,2.74-3.09,4.9c-3.4,5.76-6.42,12-8.97,18.56
		c-1.65,4.2-3.11,8.63-4.36,13.19c-1.39,5.14-2.42,10.31-3.07,15.35c-0.36,2.74-0.6,5.54-0.72,8.35c-0.14,3.37-0.14,6.13,0.01,8.63
		c0.24,5.75,1.17,11.7,2.78,17.74c1.84,6.34,4.22,11.95,7.06,16.71l1.11,1.85c0.28,0.45,0.57,0.9,0.87,1.34l0.35,0.53
		c0.76,1.17,1.58,2.25,2.37,3.29l0.22,0.29c0.59,0.8,1.22,1.55,1.86,2.3c0.3,0.35,0.59,0.7,0.97,1.15c0.94,1.06,1.92,2.09,2.93,3.12
		c3.69,3.71,7.91,7.12,12.55,10.15c3.68,2.41,7.65,4.54,12.57,6.74l2.96,1.25l2.73,1.02c1.46,0.56,2.84,1,4.17,1.43l1.19,0.37
		c3.31,0.99,6.25,1.76,8.67,2.25c1.8,0.42,3.31,0.68,4.53,0.87c0.43,0.07,0.81,0.14,1.22,0.21l1.95,0.31
		c0.17,0.03,0.33,0.04,0.49,0.04c0.02,0,0.03,0,0.04,0C75.36,395.14,44.31,373.5,40.51,370.45z"/>
	<path class="st0" d="M344,313.56c-0.13-2.8-0.37-5.61-0.73-8.35c-0.65-5.02-1.68-10.19-3.07-15.36c-1.23-4.53-2.7-8.97-4.35-13.18
		c-2.56-6.57-5.58-12.82-8.97-18.56c-1.24-2.12-2.32-3.76-3.1-4.93c-0.79-1.16-1.24-1.76-1.24-1.76c-0.92-1.2,6.78,50.48,7.09,55.09
		c0.11,2.03,0.24,4.7,0.24,7.33c-0.02,2.91-0.12,5.28-0.3,7.46c-0.39,5.03-1.24,9.96-2.51,14.6c-0.67,2.28-1.4,4.69-2.41,7.08
		c-0.19,0.52-0.42,1.04-0.68,1.61l-1.57,3.35c-0.24,0.49-0.48,0.99-0.8,1.52l-0.9,1.61c-0.18,0.31-0.37,0.61-0.57,0.92l-0.42,0.67
		c-0.48,0.84-1.03,1.63-1.57,2.41l-0.38,0.56c-0.4,0.6-0.84,1.17-1.28,1.73c-0.29,0.37-0.57,0.74-0.75,0.99l-0.49,0.59
		c-0.61,0.74-1.22,1.48-1.78,2.15c-2.9,3.28-6.22,6.42-9.89,9.34c-3.78,3.04-7.68,5.5-10.26,7.08l-2.44,1.46
		c0,0-21.74,16.15-20.42,16.15c0.16,0,0.33-0.01,0.49-0.04l2.02-0.33c0.34-0.06,0.72-0.13,1.15-0.2c1.21-0.2,2.72-0.45,4.43-0.85
		c2.49-0.51,5.44-1.27,8.82-2.28l1.14-0.36c1.33-0.42,2.71-0.86,4.13-1.41l5.77-2.32c4.85-2.16,8.82-4.29,12.5-6.7
		c4.64-3.03,8.86-6.44,12.58-10.18c0.97-1,1.94-2.02,2.98-3.19c0.29-0.35,0.58-0.7,0.87-1.04c0.63-0.75,1.27-1.51,1.84-2.28
		l0.24-0.32c0.79-1.04,1.61-2.12,2.37-3.29l0.37-0.55c0.29-0.44,0.59-0.87,0.87-1.35l1.1-1.84c2.84-4.74,5.21-10.36,7.07-16.76
		c1.59-5.97,2.52-11.92,2.76-17.62C344.13,319.71,344.14,317.03,344,313.56z"/>
	<path class="st0" d="M312.78,348.86c0.26-1.98-0.06-5.65-5.23-8.02c-3.45-1.58-7.32-2.38-11.49-2.38
		c-14.36,0-30.95,9.47-44.9,19.91c0.72-1.11,1.44-2.21,2.17-3.36c3.37-5.32,6.71-10.95,9.91-16.73c3.02-5.44,6.05-11.21,9-17.15
		c3.12-6.28,5.8-12.05,8.2-17.65l0.45-1.04c0.21-0.49,0.29-1.03,0.22-1.56l-4.71-38.64l-9.41-74.99
		c-0.79-6.26-1.59-12.51-2.42-18.76l-4.95-37.45c-0.75-5.75-1.54-11.49-2.33-17.23l-3.61-26.31c-0.57-4.22-1.15-8.44-1.76-12.65
		c-0.62-4.34-1.24-8.67-1.85-13.01c-1.15-8.14-2.3-16.28-3.51-24.41l-2.76-18.71l-2.86-18.68c-0.25-1.62,4.88,115.8,4.88,115.8
		c0.56,5.55,1.12,11.1,1.72,16.65l3.99,37.57c0.66,6.27,1.35,12.54,2.05,18.8l4.18,37.55l8.45,73.1c-0.98,2.22-2.02,4.46-3.07,6.68
		c-1.32,2.83-2.67,5.64-4.05,8.44c-2.84,5.76-5.75,11.33-8.64,16.58c-6.98,12.63-13.25,22.61-19.72,31.42
		c-4.15,5.64-7.81,10.09-11.51,14.02c-4.59,4.84-8.88,8.5-13.12,11.18c-2.27,1.43-4.62,2.57-7.12,3.42c-0.01,0-0.02,0.01-0.03,0.01
		l-3.88,1.06c-1.4,0.31-2.83,0.61-4.27,0.84c-3.04,0.5-6.02,0.86-8.85,1.08c-3.44,0.25-6.24,0.37-8.8,0.37h-0.04h-0.03
		c-2.57,0-5.36-0.12-8.79-0.37c-2.84-0.22-5.82-0.59-8.86-1.08c-1.44-0.23-2.87-0.53-4.19-0.82l-3.95-1.07
		c-0.05-0.01-0.09-0.03-0.11-0.04c-2.39-0.8-4.77-1.94-7.06-3.39c-4.24-2.68-8.53-6.34-13.12-11.18
		c-3.66-3.88-7.43-8.47-11.51-14.02c-6.46-8.8-12.73-18.78-19.72-31.42c-2.9-5.27-5.81-10.85-8.64-16.59
		c-1.38-2.8-2.72-5.62-4.05-8.45c-1.04-2.21-2.08-4.46-3.06-6.68l4.15-35.54l8.49-75.1c0.7-6.26,1.39-12.54,2.05-18.8l3.99-37.56
		c0.63-5.83,1.22-11.66,1.81-17.49c0,0,5.04-116.59,4.8-114.96l-2.86,18.7L99.65,37.4c-1.21,8.16-2.36,16.31-3.52,24.47
		c-0.61,4.32-1.22,8.64-1.84,12.95c-0.6,4.14-1.17,8.28-1.73,12.43l-3.69,26.87c-0.77,5.63-1.55,11.25-2.29,16.89l-4.95,37.45
		c-0.84,6.25-1.64,12.51-2.43,18.76l-4.77,37.48l-9.36,76.14c-0.07,0.53,0.01,1.07,0.22,1.57l0.45,1.05
		c2.4,5.6,5.08,11.37,8.2,17.65c2.94,5.92,5.97,11.69,9,17.15c3.21,5.8,6.54,11.43,9.91,16.73c0.78,1.24,1.56,2.43,2.34,3.62
		c-14.01-10.54-30.76-20.16-45.24-20.16c-4.18,0-8.04,0.8-11.49,2.38c-5.17,2.37-5.5,6.04-5.24,8.02
		c1.87,13.97,50.45,34.88,87.58,41.38c4.08,3.78,8,6.78,12.07,9.27c3.28,2,6.7,3.56,10.09,4.62c0.05,0.02,0.26,0.09,0.31,0.1
		l4.98,1.26c1.93,0.39,3.54,0.68,5.06,0.91c5.16,0.77,10.61,1.16,16.66,1.16c1.04,0,2.08-0.02,3.12-0.04
		c1.04,0.02,2.08,0.04,3.13,0.04c6.05,0,11.5-0.38,16.65-1.16c1.53-0.23,3.14-0.52,5.16-0.93l2.63-0.62l2.26-0.62
		c0.03-0.01,0.21-0.07,0.23-0.07c3.45-1.08,6.87-2.65,10.16-4.65c4.08-2.49,8.01-5.5,12.11-9.3
		C262.51,383.66,310.92,362.81,312.78,348.86z"/>
</g>
</svg>
