<?xml version="1.0" encoding="utf-8"?>
<!-- Generator: Adobe Illustrator 23.0.6, SVG Export Plug-In . SVG Version: 6.00 Build 0)  -->
<svg version="1.1" id="Capa_1" xmlns="http://www.w3.org/2000/svg" xmlns:xlink="http://www.w3.org/1999/xlink" x="0px" y="0px"
	 viewBox="0 0 358.72 447" enable-background="new 0 0 358.72 447" xml:space="preserve">
<g>
	<path fill-rule="evenodd" clip-rule="evenodd" fill="#674234" d="M296.93,292.83c5.93,16.41,12.96,32.45,17.51,49.33
		c5.86,21.72-1.38,39.94-16,45.55c-2.44-13.1-19.34-16.72-33.99-7.98c-27.02,16.11-52.35,37.28-84.94,37.66c-0.05,0-0.11,0-0.16,0
		c-0.06,0-0.11,0-0.17,0c-32.59-0.38-57.92-21.55-84.93-37.66c-14.65-8.74-31.55-5.12-33.99,7.98c-14.61-5.61-21.86-23.83-16-45.55
		c4.55-16.88,11.58-32.92,17.51-49.33C27.74,336.96,19.21,394.51,0,447c2.66-4.98,20.17-35.32,21.52-37.76
		c6.34-11.47,6.98-13.02,24.06-4.92c41.07,22.6,107.17,32.1,130.68,35.01c0,0.25,6.2,0.25,6.2,0c23.52-2.9,89.61-12.41,130.68-35.01
		c17.08-8.09,17.72-6.54,24.06,4.92c1.35,2.44,18.86,32.79,21.52,37.76C339.51,394.51,330.98,336.96,296.93,292.83z"/>
	<g>
		<path fill="#674234" d="M228.98,91.35c-0.1-13.54,6.89-85.37,26.62-91.35c-1.89,8.7-4.49,16.91-5.85,25.7
			c-1.65,10.68-12.57,119.79-16.37,143.24c-2.4,14.85-3.11,29.91-6.89,44.91c0-7.69,0.09-15.39-0.01-23.07
			C226.03,157.64,229.22,124.5,228.98,91.35z"/>
		<path fill="#674234" d="M129.74,91.35c0.1-13.54-6.89-85.37-26.62-91.35c1.88,8.7,4.49,16.91,5.84,25.7
			c1.65,10.68,12.58,119.79,16.37,143.24c2.4,14.84,3.11,29.91,6.88,44.91c0-7.69-0.09-15.39,0.01-23.08
			C132.69,157.64,129.5,124.5,129.74,91.35z"/>
	</g>
</g>
</svg>
