<?xml version="1.0" encoding="utf-8"?>
<!-- Generator: Adobe Illustrator 23.0.6, SVG Export Plug-In . SVG Version: 6.00 Build 0)  -->
<svg version="1.1" id="Capa_1" xmlns="http://www.w3.org/2000/svg" xmlns:xlink="http://www.w3.org/1999/xlink" x="0px" y="0px"
	 viewBox="0 0 383.81 245.17" style="enable-background:new 0 0 383.81 245.17;" xml:space="preserve">
<style type="text/css">
	.st0{fill:#674234;}
	.st1{fill-rule:evenodd;clip-rule:evenodd;fill:#D68B62;}
	.st2{fill-rule:evenodd;clip-rule:evenodd;fill:#AC5F4A;}
	.st3{fill:#F7B48F;}
	.st4{fill:#D68B62;}
	.st5{fill:#AC5F4A;}
	.st6{fill:#C4734A;}
	.st7{fill:#C17B57;}
	.st8{fill-rule:evenodd;clip-rule:evenodd;fill:#F7B48F;}
	.st9{fill-rule:evenodd;clip-rule:evenodd;fill:#F7BEA1;}
	.st10{fill-rule:evenodd;clip-rule:evenodd;fill:#674234;}
</style>
<g>
	<g>
		<path class="st0" d="M38.67,217.24c-4.22-2.17-7.89-4.72-10.81-7.49c-1.53-1.56-3.27-3.32-4.72-5.44
			c-0.44-0.57-0.86-1.23-1.29-1.93c-0.23-0.37-0.47-0.75-0.66-1.04c-0.19-0.31-0.36-0.64-0.53-0.96l-0.34-0.64
			c-0.26-0.48-0.53-0.96-0.79-1.57l-0.76-1.68l-1.58-4.45c-0.12-0.36-0.23-0.72-0.3-0.97l-0.3-1.2c-0.22-0.88-0.45-1.77-0.64-2.85
			c-0.25-1.15-0.43-2.34-0.62-3.61l-0.05-0.31c-0.37-2.95-0.56-5.69-0.6-8.45c-0.04-1-0.02-2.01-0.01-3.02l0.05-1.93
			c0.05-1.19,0.1-2.38,0.2-3.61c0.36-5.43,1.13-11.12,2.35-17.37l0.91-4.35c0.21-1.01,0.44-2.02,0.68-3.02l0.28-1.19
			c0.68-2.82,1.42-5.6,2.16-8.32c2.54-9.14,16.97-62.53,16.03-61.31c0,0-0.5,0.66-1.4,1.94l-0.48,0.69
			c-0.82,1.18-1.9,2.74-3.11,4.66c-1.52,2.38-3.3,5.2-5.22,8.53c-2.1,3.63-4.18,7.47-6.19,11.4c-5.08,9.97-9.36,20.09-12.72,30.03
			c-0.44,1.29-0.86,2.6-1.28,3.91l-0.56,1.86c-0.3,1-0.6,2.01-0.88,3.02c-0.75,2.67-1.61,5.85-2.31,9.16
			c-1.43,6.26-2.4,12.76-2.9,19.33c-0.1,1.34-0.14,2.68-0.19,4.03l-0.04,2.31c-0.01,1.25-0.02,2.49,0.04,3.63
			c0.05,2.96,0.33,6.06,0.92,10.1c0.51,3.27,1.29,6.6,2.33,9.9c0.17,0.52,0.36,1.04,0.55,1.57l1.51,3.84
			c0.24,0.54,0.47,1.08,0.78,1.74l1.1,2.12c2.92,5.53,7.16,10.66,12.28,14.86c4.22,3.37,9.16,6.14,14.66,8.21
			c5.03,1.92,9.75,2.83,13.37,3.42l1.05,0.15c1.59,0.22,3.09,0.44,4.49,0.5l2.38,0.18c0.54,0.04,1.07,0.05,1.57,0.06l1.87,0.05
			c0.71,0.02,1.37,0.03,1.98,0.03l5.71-0.2C68.17,231.48,42.44,219.22,38.67,217.24z"/>
		<path class="st0" d="M383.78,175.3c-0.05-1.46-0.09-2.91-0.2-4.36c-0.49-6.52-1.46-13.03-2.89-19.29
			c-0.74-3.43-1.63-6.71-2.32-9.18c-0.29-1.05-0.61-2.09-0.92-3.13l-0.52-1.72c-0.43-1.33-0.85-2.65-1.29-3.94
			c-3.37-9.98-7.65-20.1-12.73-30.05c-2.03-3.99-4.12-7.83-6.19-11.39c-1.87-3.24-3.61-6.02-5.21-8.52
			c-1.19-1.87-2.23-3.39-3.04-4.56l-0.58-0.83c-0.89-1.27-1.39-1.93-1.39-1.93c-0.94-1.22,13.49,52.14,16.04,61.3
			c0.62,2.26,1.42,5.24,2.15,8.31l0.22,0.94c0.25,1.09,0.51,2.19,0.75,3.34l0.9,4.28c1.22,6.26,1.99,11.95,2.36,17.41
			c0.1,1.26,0.15,2.51,0.2,3.76l0.04,1.85c0.02,0.98,0.03,1.95-0.01,3.01c-0.04,2.69-0.25,5.5-0.59,8.3l-0.05,0.32
			c-0.19,1.29-0.36,2.5-0.66,3.83c-0.16,0.94-0.39,1.86-0.63,2.77l-0.25,1c-0.12,0.41-0.25,0.82-0.38,1.23l-0.45,1.47l-1.88,4.6
			c-0.21,0.49-0.46,0.95-0.75,1.49l-0.31,0.59c-0.18,0.34-0.35,0.67-0.52,0.94c-0.23,0.36-0.46,0.71-0.68,1.07
			c-0.45,0.72-0.87,1.39-1.42,2.11c-1.26,1.84-2.77,3.41-4.55,5.22c-2.98,2.84-6.64,5.39-10.9,7.58
			c-3.73,1.95-29.48,14.23-27.94,14.29l2.25,0.1c0.74,0.03,1.66,0.06,2.73,0.09c0.27,0.01,0.54,0.01,0.83,0.01
			c0.74,0,1.54-0.02,2.4-0.05l1.23-0.03c0.55-0.01,1.13-0.02,1.7-0.07l2.29-0.17c1.56-0.07,3.13-0.3,4.8-0.53l0.91-0.13
			c3.55-0.58,8.27-1.49,13.28-3.4c5.51-2.07,10.45-4.83,14.7-8.24c5.09-4.16,9.33-9.29,12.26-14.84l1.16-2.24
			c0.27-0.58,0.53-1.18,0.78-1.77l1.41-3.58c0.2-0.55,0.4-1.11,0.59-1.7c1.04-3.32,1.83-6.65,2.32-9.89
			c0.58-3.96,0.88-7.16,0.92-9.98c0.06-1.23,0.05-2.46,0.04-3.68L383.78,175.3z"/>
	</g>
	<path class="st0" d="M337.46,177.95c-4.48-2.53-9.59-3.82-15.18-3.82c-8.11,0-16.72,2.7-25.13,6.8c4.77-6.36,9.2-12.96,13.14-19.66
		c4.77-8.14,8.62-15.86,11.76-23.59c3.71-9.09,6.33-17.57,8-25.93c0.97-4.98,1.54-9.55,1.72-14.01c0.2-5.81-0.22-10.56-1.32-15.04
		l-0.11-0.4c-0.13-0.49-0.27-0.97-0.45-1.58l-0.33-0.98l-1.82-4.32c-0.94-2.05-1.93-4.08-2.94-6.08C322.7,65.22,251.9,0,251.9,0
		c0.5,1.08,1.03,1.97,1.47,2.67c1.45,2.25,3.05,4.13,4.43,5.67c2.52,2.79,5.13,5.33,7.65,7.8l1.31,1.28
		c3.14,3.06,5.97,5.82,8.74,8.65c6.42,6.59,11.75,12.6,16.3,18.38c5.12,6.51,9.81,13.4,13.96,20.47c2.03,3.46,4.02,7.16,5.93,10.97
		c0.92,1.87,1.83,3.75,2.69,5.64l0.71,1.57c0.01,0.03,0.03,0.06,0.04,0.09l1.08,3.16c0.76,2.99,1.05,6.54,0.91,10.84
		c-0.14,3.67-0.61,7.52-1.43,11.76c-1.45,7.47-3.81,15.33-7.01,23.35c-5.83,14.62-13.75,28.77-23.55,42.06
		c-2.18,2.95-4.54,5.96-7.23,9.2c-2.66,3.22-5.13,6.05-7.55,8.63c-2.49,2.67-5.14,5.37-7.87,8c-2.66,2.53-5.41,5-8.15,7.33
		c-5.49,4.62-11.13,8.89-16.77,12.69c-2.91,1.95-5.76,3.75-8.47,5.34l-5.18,2.95l-0.73,0.31c-0.7,0.29-1.41,0.56-2.09,0.82
		c-9.69,3.56-19.74,5.68-29.3,6.2c-9.56-0.53-19.61-2.64-29.27-6.19c-0.71-0.27-1.42-0.54-2.08-0.82l-5.95-3.28
		c-2.7-1.58-5.55-3.38-8.46-5.33c-5.64-3.8-11.29-8.07-16.76-12.68c-2.75-2.35-5.5-4.82-8.14-7.33c-2.75-2.65-5.41-5.34-7.89-8.02
		c-2.43-2.59-4.89-5.42-7.56-8.64c-2.67-3.21-5.04-6.22-7.23-9.19c-9.8-13.29-17.72-27.43-23.55-42.06c-3.2-8.02-5.56-15.87-7-23.34
		c-0.82-4.25-1.29-8.1-1.43-11.74c-0.14-4.32,0.16-7.87,0.89-10.77l0.33-1.18l0.78-2.08c0.03-0.06,0.06-0.13,0.09-0.19l0.65-1.45
		c0.87-1.9,1.77-3.78,2.69-5.64c1.92-3.85,3.92-7.55,5.93-10.98c4.14-7.08,8.84-13.97,13.95-20.47c4.55-5.79,9.89-11.8,16.3-18.38
		c2.79-2.85,5.61-5.6,8.75-8.66l1.27-1.24c2.53-2.47,5.15-5.03,7.68-7.83c1.38-1.54,2.98-3.41,4.44-5.68
		c0.43-0.68,0.95-1.56,1.45-2.65c0,0-70.79,65.21-72.88,69.34c-1.01,2-2,4.03-2.94,6.07l-0.7,1.51l-1.5,3.9
		c-0.14,0.47-0.26,0.92-0.39,1.37l-0.16,0.58c-1.08,4.4-1.5,9.15-1.31,14.99c0.19,4.44,0.75,9.01,1.73,13.99
		c1.67,8.34,4.28,16.82,8,25.91c3.14,7.72,6.98,15.44,11.76,23.59c3.61,6.14,7.63,12.19,11.95,18.06
		c-7.29-3.19-14.67-5.21-21.67-5.21c-5.59,0-10.7,1.29-15.08,3.76c-3.36,1.74-8.77,6.37-7.77,12.68
		c2.12,13.34,32.35,24.81,92.35,35.03c2.09,1.41,4.37,2.9,6.71,4.31c3.14,1.93,6.25,3.72,9.25,5.32l5.62,2.89
		c0.2,0.11,0.46,0.25,0.78,0.35l0.99,0.38c0.83,0.31,1.66,0.6,2.5,0.88c5.04,1.68,10.36,2.97,15.85,3.89
		c3.95,0.77,8.35,1.33,13.16,1.47c1.09,0.04,2.2,0.06,3.32,0.06c0.18,0,0.35-0.01,0.53-0.01c0.18,0,0.36,0.01,0.53,0.01
		c1.12,0,2.22-0.02,3.3-0.06c4.82-0.15,9.22-0.7,13.16-1.47c5.49-0.92,10.82-2.21,15.87-3.9c0.82-0.28,1.65-0.56,2.49-0.88l1.03-0.4
		c0.28-0.1,0.53-0.22,0.71-0.32l5.63-2.9c3.02-1.61,6.13-3.4,9.24-5.31c2.07-1.25,4.06-2.55,5.94-3.8
		c62.03-10.35,93.26-21.98,95.41-35.55C346.13,184.27,340.72,179.64,337.46,177.95z"/>
</g>
</svg>
