<?xml version="1.0" encoding="utf-8"?>
<!-- Generator: Adobe Illustrator 23.0.6, SVG Export Plug-In . SVG Version: 6.00 Build 0)  -->
<svg version="1.1" id="Capa_1" xmlns="http://www.w3.org/2000/svg" xmlns:xlink="http://www.w3.org/1999/xlink" x="0px" y="0px"
	 viewBox="0 0 295.25 469.96" style="enable-background:new 0 0 295.25 469.96;" xml:space="preserve">
<style type="text/css">
	.st0{fill:#674234;}
	.st1{fill-rule:evenodd;clip-rule:evenodd;fill:#D68B62;}
	.st2{fill-rule:evenodd;clip-rule:evenodd;fill:#AC5F4A;}
	.st3{fill:#F7B48F;}
	.st4{fill:#D68B62;}
	.st5{fill:#AC5F4A;}
	.st6{fill:#C4734A;}
	.st7{fill:#C17B57;}
	.st8{fill-rule:evenodd;clip-rule:evenodd;fill:#F7B48F;}
	.st9{fill-rule:evenodd;clip-rule:evenodd;fill:#F7BEA1;}
	.st10{fill-rule:evenodd;clip-rule:evenodd;fill:#674234;}
</style>
<g>
	<path class="st3" d="M286.37,320.87c0.19-18.31-61.61-59.08-61.61-59.08L183.92,0h-75.46L65.45,261.79c0,0-55.55,40.77-55.36,59.08
		c-0.05,2.66-8.32,61.61-8.28,66c41.05-4.63,101.23,2.73,144.38,1.48c43.15,1.25,107.41-6.11,148.46-1.48
		C294.69,382.48,286.42,323.53,286.37,320.87z"/>
	<g>
		<path class="st4" d="M249.33,354.19c-22.15-0.46-27.67,11.6-49.4,22.16c-4.32,2.1-28.32,9.29-52.31,9.29
			c-23.99,0-47.98-7.19-52.3-9.29c-21.73-10.56-27.25-22.62-49.4-22.16c-8.47,0.17-53.22,29.24-44.89,39.31
			c5.8,7.01,105.67,76.48,146.68,76.46c43.12-0.02,141.35-70.22,146.51-76.46C302.54,383.43,257.8,354.36,249.33,354.19z"/>
		<g>
			<path class="st5" d="M23.52,398.94c0,0-0.67-6.11,6.44-10.14c11.86-6.73,37.19-10.33,63.37,10.14
				C93.33,398.94,82.59,414.53,23.52,398.94z"/>
			<path class="st5" d="M278.23,398.94c0,0,0.68-6.11-6.44-10.14c-11.86-6.73-37.18-10.34-63.37,10.14
				C208.42,398.94,219.17,414.53,278.23,398.94z"/>
		</g>
	</g>
</g>
</svg>
