<?xml version="1.0" encoding="utf-8"?>
<!-- Generator: Adobe Illustrator 23.0.6, SVG Export Plug-In . SVG Version: 6.00 Build 0)  -->
<svg version="1.1" id="Capa_1" xmlns="http://www.w3.org/2000/svg" xmlns:xlink="http://www.w3.org/1999/xlink" x="0px" y="0px"
	 viewBox="0 0 337.26 126.58" style="enable-background:new 0 0 337.26 126.58;" xml:space="preserve">
<style type="text/css">
	.st0{fill:#674234;}
	.st1{fill-rule:evenodd;clip-rule:evenodd;fill:#D68B62;}
	.st2{fill-rule:evenodd;clip-rule:evenodd;fill:#AC5F4A;}
	.st3{fill:#F7B48F;}
	.st4{fill:#D68B62;}
	.st5{fill:#AC5F4A;}
	.st6{fill:#C4734A;}
	.st7{fill:#C17B57;}
	.st8{fill-rule:evenodd;clip-rule:evenodd;fill:#F7B48F;}
	.st9{fill-rule:evenodd;clip-rule:evenodd;fill:#F7BEA1;}
	.st10{fill-rule:evenodd;clip-rule:evenodd;fill:#674234;}
</style>
<g>
	<path class="st4" d="M17.78,41.02c0,0,109.97,22.73,153.49,22.73c43.53,0,156.22-22.73,156.22-22.73s-92.65,85.54-156.22,85.56
		C110.31,126.6,17.78,41.02,17.78,41.02z"/>
	<path class="st4" d="M301.51,10.05c-9.75-3.18-29.89-9.84-38.92-10.03c-23.61-0.52-29.5,7.87-52.66,19.85
		c-9.21,4.77-30.97,6.96-41.3,6.96c-10.33,0-32.09-2.2-41.31-6.96C104.16,7.89,98.28-0.5,74.67,0.02
		c-9.03,0.2-29.17,6.85-38.92,10.03C-4.32,23.14-4.03,41.15,4.84,52.58c19.46,25.07,77.03,7.28,100.73,16.35
		c14.72,5.63,28.99,11.53,38.45,12.86c11.66,1.64,35.46,1.37,47.16,0.01c9.72-1.13,25.74-7.23,40.5-12.87
		c23.71-9.07,81.27,8.72,100.73-16.35C341.29,41.15,341.58,23.14,301.51,10.05z"/>
	<path class="st5" d="M30.71,43.84c0,0-0.72-6.22,6.87-10.32C50.22,26.68,77.22,23,105.12,43.84
		C105.12,43.84,93.67,59.71,30.71,43.84z"/>
	<path class="st5" d="M302.21,43.84c0,0,0.72-6.22-6.87-10.32C282.7,26.68,255.7,23,227.8,43.84
		C227.8,43.84,239.25,59.71,302.21,43.84z"/>
</g>
</svg>
