<?xml version="1.0" encoding="utf-8"?>
<!-- Generator: Adobe Illustrator 23.0.6, SVG Export Plug-In . SVG Version: 6.00 Build 0)  -->
<svg version="1.1" id="Capa_1" xmlns="http://www.w3.org/2000/svg" xmlns:xlink="http://www.w3.org/1999/xlink" x="0px" y="0px"
	 viewBox="0 0 366.65 224.74" style="enable-background:new 0 0 366.65 224.74;" xml:space="preserve">
<style type="text/css">
	.st0{fill:#674234;}
	.st1{fill-rule:evenodd;clip-rule:evenodd;fill:#D68B62;}
	.st2{fill-rule:evenodd;clip-rule:evenodd;fill:#AC5F4A;}
	.st3{fill:#F7B48F;}
	.st4{fill:#D68B62;}
	.st5{fill:#AC5F4A;}
	.st6{fill:#C4734A;}
	.st7{fill:#C17B57;}
	.st8{fill-rule:evenodd;clip-rule:evenodd;fill:#F7B48F;}
	.st9{fill-rule:evenodd;clip-rule:evenodd;fill:#F7BEA1;}
	.st10{fill-rule:evenodd;clip-rule:evenodd;fill:#674234;}
</style>
<path class="st10" d="M323.39,0.37c1.22,7.9,1.09,12.02,2.48,15.36c9.98,23.95,22.68,46.9,29.56,71.9
	c4.02,14.65,4.18,37.35-3.4,47.63c-9.47,12.87-45,20.82-45.69,19.03c10.32-5.79,20.84-11.18,30.8-17.67
	c11.5-7.5-0.16-18.26-8.23-18.4c-7.8-0.15-16.84,3.88-23.42,8.39c-14.85,10.21-28.52,23.61-42.51,33.91
	c-25.85,19.05-51.32,26.74-78.15,30.01c0-0.06,0-0.11,0-0.15c-27.49-3.14-53.49-10.75-79.91-30.23
	c-13.99-10.3-27.66-23.7-42.51-33.91c-6.58-4.52-15.61-8.54-23.43-8.38c-8.06,0.15-19.71,10.89-8.24,18.39
	c9.97,6.5,20.51,11.87,30.83,17.66c-0.69,1.81-36.25-6.14-45.71-19C8.3,124.6,8.45,101.9,12.49,87.25
	c6.86-24.99,19.57-47.94,29.54-71.9C43.42,12.02,43.3,7.9,44.51,0C13.09,51.93-12.81,102.3,6.82,136.89
	c10.63,18.72,32.12,20.45,49.39,24.65c18.22,4.45,33.1,9.79,47.73,24.88c21.51,22.21,48.2,36.82,79.55,37.9c0,0.15,0,0.28,0,0.43
	c31.74-0.82,58.74-15.52,80.48-37.95c14.61-15.09,29.49-20.43,47.73-24.87c17.25-4.2,37.46-6.74,49.39-24.66
	C377.68,112.37,354.83,52.29,323.39,0.37z"/>
</svg>
