<?xml version="1.0" encoding="utf-8"?>
<!-- Generator: Adobe Illustrator 23.0.6, SVG Export Plug-In . SVG Version: 6.00 Build 0)  -->
<svg version="1.1" id="Capa_1" xmlns="http://www.w3.org/2000/svg" xmlns:xlink="http://www.w3.org/1999/xlink" x="0px" y="0px"
	 viewBox="0 0 599.74 459.87" style="enable-background:new 0 0 599.74 459.87;" xml:space="preserve">
<style type="text/css">
	.st0{fill-rule:evenodd;clip-rule:evenodd;fill:#674234;}
	.st1{fill:#674234;}
</style>
<path class="st0" d="M568.59,16.3C525.07-9.26,465.92,3.21,417.95,1.96c-35.12-0.91-70.04,4.81-105.18,6.65
	c-0.09,19.48-0.14,21.29-0.24,40.47c54.03-0.03,107.06-1.41,160.91-5.12c25.2-1.74,52.22-1.56,68.53,19.64
	c5.54,7.21,7.26,17.38,6.84,28.7c-1.32,20.43-9.13,43.85-13.04,58.93c-2.85,10.96-5.73,22.03-8.74,33.1
	c-6.55,23.75-13.61,47.57-22.32,70.17c-0.05,0.13-0.1,0.25-0.14,0.37c-0.82,2.12-1.65,4.22-2.5,6.31c-0.4,0.98-0.81,1.95-1.21,2.92
	c-0.55,1.31-1.08,2.62-1.64,3.91c-1,2.33-2.02,4.65-3.06,6.95c-9.48,20.91-25.87,40.31-44.59,51.87c-2.93,1.81-5.91,3.43-8.94,4.83
	c-1.49,0.69-2.99,1.33-4.5,1.91c-29.71,11.48-50.92,11.83-81.62,1.35c-22.31-7.61-43.23-24.57-55.99-46.6
	c-12.76,21.98-33.64,38.98-55.9,46.6c-31.48,10.78-54.73,10.26-85.09-1.35c-24.18-9.25-46.48-32.81-58.18-58.68
	C83.1,234.47,71.3,188.13,60.84,143.83C55.48,121.1,43.2,82.48,57.77,63.6c14.28-18.52,36.94-20.92,59.3-20.3
	c56.81,1.56,113.12,5.76,170.14,5.78c-0.09-19.18-0.14-20.99-0.24-40.47c-35.14-1.84-70.06-7.57-105.18-6.65
	C133.82,3.21,74.69-9.24,31.15,16.3c-62.86,36.87-13.23,168.53-0.68,224.59c24.32,108.68,78.41,190.96,180.97,210.76
	c56.61,10.93,121.95,10.98,178.56,0c60.26-11.4,103.69-45.65,134.07-94.13c20.78-33.1,35.42-72.87,45.21-116.63
	c0.59-2.63,1.26-5.43,1.99-8.37C586.22,172.66,628.5,51.48,568.59,16.3z"/>
</svg>
