<?xml version="1.0" encoding="utf-8"?>
<!-- Generator: Adobe Illustrator 23.0.6, SVG Export Plug-In . SVG Version: 6.00 Build 0)  -->
<svg version="1.1" id="Capa_1" xmlns="http://www.w3.org/2000/svg" xmlns:xlink="http://www.w3.org/1999/xlink" x="0px" y="0px"
	 viewBox="0 0 608.88 182.67" style="enable-background:new 0 0 608.88 182.67;" xml:space="preserve">
<style type="text/css">
	.st0{fill-rule:evenodd;clip-rule:evenodd;fill:#674234;}
	.st1{fill:#674234;}
</style>
<path class="st1" d="M606.68,89.91c-9.34,52.85-131.71,96.25-236.25,92.54c-40.49-1.43-59.22-12.07-66-25.6
	c-6.78,13.53-25.5,24.17-65.99,25.6C133.91,186.16,11.54,142.76,2.2,89.91C-7.15,37.06,14.17,4.04,49.86,0.29
	c35.69-3.75,34.09,30.7,34.09,30.7S41.41-8.8,36.31,43.72c-1.38,14.2,8.79,33.19,37.01,43.42c0,0,22.24,11.38,106.56-3
	c0,0,74.77-21.16,105.72,11.63c5.78,6.12,14.28,17.72,18.84,30.49c4.56-12.78,13.07-24.37,18.85-30.49
	C354.23,62.98,429,84.14,429,84.14c84.32,14.38,106.56,3,106.56,3c28.21-10.23,38.39-29.22,37.01-43.42
	c-5.09-52.52-47.64-12.74-47.64-12.74s-1.6-34.45,34.09-30.7C594.71,4.04,616.03,37.06,606.68,89.91z"/>
</svg>
