<?xml version="1.0" encoding="utf-8"?>
<!-- Generator: Adobe Illustrator 23.0.6, SVG Export Plug-In . SVG Version: 6.00 Build 0)  -->
<svg version="1.1" id="Capa_1" xmlns="http://www.w3.org/2000/svg" xmlns:xlink="http://www.w3.org/1999/xlink" x="0px" y="0px"
	 viewBox="0 0 584.94 175.49" style="enable-background:new 0 0 584.94 175.49;" xml:space="preserve">
<style type="text/css">
	.st0{fill-rule:evenodd;clip-rule:evenodd;fill:#674234;}
	.st1{fill:#674234;}
</style>
<path class="st1" d="M582.84,89.11C573.86,38.35,456.3-3.35,355.87,0.21c-38.9,1.38-56.89,11.6-63.4,24.6
	c-6.51-13-24.5-23.22-63.4-24.6C128.65-3.35,11.08,38.35,2.11,89.12c-8.98,50.77,11.5,82.5,45.79,86.1
	c34.29,3.6,32.75-29.49,32.75-29.49s-40.87,38.22-45.76-12.24c-1.32-13.64,8.45-31.89,35.55-41.71c0,0,21.36-10.93,102.37,2.88
	c0,0,71.83,20.33,101.56-11.18c5.55-5.88,13.72-17.02,18.1-29.29c4.38,12.27,12.56,23.41,18.1,29.29
	c29.73,31.5,101.56,11.18,101.56,11.18c81-13.81,102.37-2.88,102.37-2.88c27.1,9.83,36.88,28.07,35.55,41.71
	c-4.89,50.45-45.76,12.24-45.76,12.24s-1.54,33.09,32.75,29.49C571.33,171.61,591.81,139.88,582.84,89.11z"/>
</svg>
