<?xml version="1.0" encoding="utf-8"?>
<!-- Generator: Adobe Illustrator 23.0.6, SVG Export Plug-In . SVG Version: 6.00 Build 0)  -->
<svg version="1.1" id="Capa_1" xmlns="http://www.w3.org/2000/svg" xmlns:xlink="http://www.w3.org/1999/xlink" x="0px" y="0px"
	 viewBox="0 0 587.66 476.06" style="enable-background:new 0 0 587.66 476.06;" xml:space="preserve">
<style type="text/css">
	.st0{fill-rule:evenodd;clip-rule:evenodd;fill:#674234;}
	.st1{fill:#674234;}
</style>
<g>
	<path class="st0" d="M298.97,106.98V0c0,0,185.06,2.01,242.45,57.46c58.45,56.46,48.49,125.4,38.97,175.33
		c-9.97,52.33-49.4,210.56-57.36,240.72c-8.15,30.87,31.39-226.85-2.16-283.31C488.16,135.15,452.67,106,298.97,106.98z"/>
	<path class="st0" d="M288.69,106.98V0c0,0-185.06,2.01-242.46,57.46c-58.45,56.46-48.49,125.4-38.97,175.33
		c9.97,52.33,49.4,210.56,57.36,240.72c8.15,30.87-31.39-226.85,2.16-283.31C99.5,135.15,134.99,106,288.69,106.98z"/>
</g>
</svg>
