<?xml version="1.0" encoding="utf-8"?>
<!-- Generator: Adobe Illustrator 23.0.6, SVG Export Plug-In . SVG Version: 6.00 Build 0)  -->
<svg version="1.1" id="Capa_1" xmlns="http://www.w3.org/2000/svg" xmlns:xlink="http://www.w3.org/1999/xlink" x="0px" y="0px"
	 viewBox="0 0 594.24 800.28" style="enable-background:new 0 0 594.24 800.28;" xml:space="preserve">
<style type="text/css">
	.st0{fill-rule:evenodd;clip-rule:evenodd;fill:#674234;}
	.st1{fill:#674234;}
</style>
<g>
	<path class="st0" d="M279.64,54.42V4.81c0,0-180.31-22.1-236.23,28.41C-13.55,84.66-0.09,147.01,5.44,192.96
		c6.13,50.97,48.13,578.91,55.89,606.38c7.94,28.12-11.07-582.03,2.11-645.19C80.49,72.46,129.89,53.52,279.64,54.42z"/>
	<path class="st0" d="M314.6,54.42V4.81c0,0,180.31-22.1,236.23,28.41c56.95,51.44,43.49,113.78,37.97,159.73
		c-6.13,50.97-48.13,578.91-55.89,606.38c-7.94,28.12,11.07-582.03-2.11-645.19C513.75,72.46,464.35,53.52,314.6,54.42z"/>
</g>
</svg>
