<?xml version="1.0" encoding="utf-8"?>
<!-- Generator: Adobe Illustrator 23.0.6, SVG Export Plug-In . SVG Version: 6.00 Build 0)  -->
<svg version="1.1" id="Capa_1" xmlns="http://www.w3.org/2000/svg" xmlns:xlink="http://www.w3.org/1999/xlink" x="0px" y="0px"
	 viewBox="0 0 612.34 436.46" style="enable-background:new 0 0 612.34 436.46;" xml:space="preserve">
<style type="text/css">
	.st0{fill-rule:evenodd;clip-rule:evenodd;fill:#674234;}
	.st1{fill:#674234;}
</style>
<path class="st0" d="M574.51,43.52C511.21,6.92,318.93,0,318.93,0v59.41c169.52-0.65,196.84,9.26,232.9,45.58
	c24.52,24.69-9.16,115.59-31.71,160.43c-9.43,18.76-35.4,45.13-59.3,53.45c-45.75,15.94-53.13,10.65-90.18,1.37
	c-26.15-6.55-53.07-26.41-63.74-43.61c-10.68,17.21-37.6,37.06-63.75,43.61c-37.05,9.28-48.26,14.57-94.01-1.37
	c-23.9-8.32-49.87-34.7-59.3-53.45C67.3,220.58,35.99,129.67,60.5,104.99c36.07-36.32,63.38-46.23,232.9-45.58V0
	c0,0-192.27,6.92-255.58,43.52C-26.64,80.78,9.37,205.52,16,239.82c23.78,122.99,68.05,173.15,169.13,190.63
	c46.3,8,195.76,8,242.06,0c101.09-17.48,145.35-67.64,169.14-190.63C602.97,205.52,638.98,80.78,574.51,43.52z"/>
</svg>
