<?xml version="1.0" encoding="utf-8"?>
<!-- Generator: Adobe Illustrator 23.0.6, SVG Export Plug-In . SVG Version: 6.00 Build 0)  -->
<svg version="1.1" id="Capa_1" xmlns="http://www.w3.org/2000/svg" xmlns:xlink="http://www.w3.org/1999/xlink" x="0px" y="0px"
	 viewBox="0 0 620.73 266.94" style="enable-background:new 0 0 620.73 266.94;" xml:space="preserve">
<style type="text/css">
	.st0{fill-rule:evenodd;clip-rule:evenodd;fill:#674234;}
	.st1{fill:#674234;}
</style>
<g>
	<path class="st1" d="M352.84,123.14c0,0,61.72-146.82-157.11-119.83C114.33,13.35-8.42,42.36,0.46,266.94
		c0,0,8.88-42.61,66.57-77.22c0,0,18.64-19.53,22.19-44.38c0,0,2.66,42.6-9.76,43.49c0,0,68.34,6.21,93.2-48.82
		c0,0-0.89,20.42-15.98,32.84c0,0,92.31,12.43,104.74-48.82c0,0,5.33,17.76-10.65,34.62C250.77,158.65,314.67,161.31,352.84,123.14z
		"/>
	<path class="st1" d="M267.89,123.14c0,0-61.71-146.82,157.11-119.83c81.4,10.04,204.15,39.05,195.28,263.62
		c0,0-8.88-42.61-66.57-77.22c0,0-18.64-19.53-22.19-44.38c0,0-2.66,42.6,9.77,43.49c0,0-68.35,6.21-93.2-48.82
		c0,0,0.89,20.42,15.97,32.84c0,0-92.31,12.43-104.74-48.82c0,0-5.32,17.76,10.65,34.62C369.97,158.65,306.06,161.31,267.89,123.14z
		"/>
</g>
</svg>
