<?xml version="1.0" encoding="utf-8"?>
<!-- Generator: Adobe Illustrator 23.0.6, SVG Export Plug-In . SVG Version: 6.00 Build 0)  -->
<svg version="1.1" id="Capa_1" xmlns="http://www.w3.org/2000/svg" xmlns:xlink="http://www.w3.org/1999/xlink" x="0px" y="0px"
	 viewBox="0 0 284.32 149.61" style="enable-background:new 0 0 284.32 149.61;" xml:space="preserve">
<style type="text/css">
	.st0{fill-rule:evenodd;clip-rule:evenodd;fill:#674234;}
	.st1{fill:#674234;}
</style>
<g>
	<path class="st1" d="M165.39,95.19c0,0,33.75-113.49-85.93-92.63C34.94,10.32-22.49,173.41,9.07,146.65c0,0,10.19-15.1,12.14-34.31
		c0,0,1.45,32.94-5.34,33.62c0,0,37.38,4.8,50.97-37.74c0,0-0.48,15.78-8.74,25.39c0,0,50.49,9.61,57.28-37.74
		c0,0,2.92,13.73-5.82,26.76C109.56,122.63,144.52,124.69,165.39,95.19z"/>
	<path class="st1" d="M118.93,95.19c0,0-33.76-113.49,85.93-92.63c44.52,7.76,101.95,170.85,70.39,144.09
		c0,0-10.19-15.1-12.13-34.31c0,0-1.46,32.94,5.34,33.62c0,0-37.38,4.8-50.97-37.74c0,0,0.48,15.78,8.74,25.39
		c0,0-50.49,9.61-57.28-37.74c0,0-2.91,13.73,5.83,26.76C174.76,122.63,139.8,124.69,118.93,95.19z"/>
</g>
</svg>
