<?xml version="1.0" encoding="utf-8"?>
<!-- Generator: Adobe Illustrator 23.0.6, SVG Export Plug-In . SVG Version: 6.00 Build 0)  -->
<svg version="1.1" id="Capa_1" xmlns="http://www.w3.org/2000/svg" xmlns:xlink="http://www.w3.org/1999/xlink" x="0px" y="0px"
	 viewBox="0 0 604.56 172.6" style="enable-background:new 0 0 604.56 172.6;" xml:space="preserve">
<style type="text/css">
	.st0{fill-rule:evenodd;clip-rule:evenodd;fill:#674234;}
	.st1{fill:#674234;}
</style>
<g>
	<path class="st1" d="M245.17,1.13C131.19-1.02,37.76,54.2,37.76,54.2C-20.76,94,6.2,141.97,6.2,141.97
		c37.6,58.19,101.52,15.6,101.52,15.6c28.41-29.07,7.22-55.81,7.22-55.81c-25.23-32.8-53.04-1.83-53.04-1.83
		c53.27-20.28,43.91,28.89,43.91,28.89c-11.37,29.88-44.17,25.74-44.17,25.74C-10,120.96,45.94,69.84,45.94,69.84
		c77.5-59.1,175.74-27.59,175.74-27.59c77.14,21.34,68.44-22.01,68.44-22.01C283.47-6.99,245.17,1.13,245.17,1.13z"/>
	<path class="st1" d="M566.79,54.2c0,0-93.43-55.22-207.41-53.07c0,0-38.3-8.12-44.96,19.11c0,0-8.7,43.36,68.44,22.01
		c0,0,98.25-31.51,175.74,27.59c0,0,55.93,51.12-15.71,84.72c0,0-32.8,4.14-44.17-25.74c0,0-9.36-49.16,43.91-28.89
		c0,0-27.8-30.97-53.04,1.83c0,0-21.19,26.75,7.22,55.81c0,0,63.92,42.59,101.52-15.6C598.36,141.97,625.32,94,566.79,54.2z"/>
</g>
</svg>
