<?xml version="1.0" encoding="utf-8"?>
<!-- Generator: Adobe Illustrator 23.0.6, SVG Export Plug-In . SVG Version: 6.00 Build 0)  -->
<svg version="1.1" id="Capa_1" xmlns="http://www.w3.org/2000/svg" xmlns:xlink="http://www.w3.org/1999/xlink" x="0px" y="0px"
	 viewBox="0 0 590.01 481.8" style="enable-background:new 0 0 590.01 481.8;" xml:space="preserve">
<style type="text/css">
	.st0{fill-rule:evenodd;clip-rule:evenodd;fill:#674234;}
	.st1{fill:#674234;}
</style>
<path class="st0" d="M583.24,0c-13.59,14.84-78.53,95.88-97.77,110.18c-36.12,26.84-93.7,33.58-129.63,21.82
	c-29.84-9.8-52.48-65.13-60.72-92.36c-8.24,27.23-30.88,82.56-60.7,92.36c-35.93,11.77-92.53,7.38-129.63-21.82
	C85.95,95.36,20.6,14.84,7.03,0C-17.48,58.81,25.4,209.49,84.94,303.11c62.31,97.97,210.12,178.68,210.12,178.68
	s153.87-84.4,213.6-185.82C564.55,201.05,607.09,57.25,583.24,0z"/>
</svg>
