<?xml version="1.0" encoding="utf-8"?>
<!-- Generator: Adobe Illustrator 23.0.6, SVG Export Plug-In . SVG Version: 6.00 Build 0)  -->
<svg version="1.1" id="Capa_1" xmlns="http://www.w3.org/2000/svg" xmlns:xlink="http://www.w3.org/1999/xlink" x="0px" y="0px"
	 viewBox="0 0 602.85 280.21" enable-background="new 0 0 602.85 280.21" xml:space="preserve">
<path fill="#674234" d="M594.94,0c-13.85,15.12-80,97.7-99.59,112.25c-36.82,27.34-95.47,34.22-132.08,22.22
	c-30.39-9.97-53.46-66.35-61.85-94.07c-8.39,27.72-31.46,84.1-61.85,94.07c-36.61,12.01-94.26,7.55-132.08-22.22
	C88.32,97.16,21.75,15.12,7.91,0c-34.73,83.36,48.82,256.97,175.19,269.91c27.52,2.81,72.74,10.25,118.33,10.3
	c45.6-0.06,90.82-7.49,118.33-10.3C546.12,256.97,629.68,83.36,594.94,0z"/>
</svg>
