<?xml version="1.0" encoding="utf-8"?>
<!-- Generator: Adobe Illustrator 23.0.6, SVG Export Plug-In . SVG Version: 6.00 Build 0)  -->
<svg version="1.1" id="Capa_1" xmlns="http://www.w3.org/2000/svg" xmlns:xlink="http://www.w3.org/1999/xlink" x="0px" y="0px"
	 viewBox="0 0 590.2 349.11" enable-background="new 0 0 590.2 349.11" xml:space="preserve">
<path fill-rule="evenodd" clip-rule="evenodd" fill="#674234" d="M589.8,0c-1.22,15.72-2.48,30.56-3.43,38.1
	c-6.48,51.45-81.87,175.75-154.29,226.46c11.1-19.72,19.56-45.26,30.79-82.81c6.69-22.37,30.93-108.7-2.65-133.79
	c-32.97-24.64-164.53-12.6-164.53-12.6v31.05c88.29-0.44,124.9-9.8,143.68,14.65c12.78,16.62-0.78,85.78-17.17,112.48
	c-13.23,21.54-29.25,34.86-41.69,40.46c-23.83,10.73-38.59,8.13-57.89,1.88c-11.62-3.76-23.52-14.05-30.22-24.19v-0.27
	c-0.03,0.05-0.06,0.09-0.09,0.13c-0.03-0.05-0.06-0.09-0.09-0.13v0.27c-6.7,10.14-18.59,20.43-30.21,24.19
	c-19.29,6.25-34.06,8.85-57.89-1.88c-12.45-5.6-28.47-18.92-41.69-40.46c-16.39-26.69-29.94-95.85-17.17-112.48
	c18.78-24.45,55.38-15.09,143.68-14.65V35.37c0,0-131.55-12.04-164.52,12.6c-33.58,25.09-9.34,111.41-2.65,133.79
	c11.23,37.55,19.69,63.09,30.79,82.81C80.16,213.85,10.31,89.55,3.83,38.1C2.89,30.56,1.62,15.72,0.4,0
	c-1.38,1.62,1.03,79.51,3.43,98.55c7.87,62.61,135.78,233.09,208.01,247.59c10.57,2.12,45.72,3.11,80.48,2.96
	c34.77,0.15,69.91-0.84,80.48-2.96c72.24-14.5,205.68-184.99,213.56-247.59C588.76,79.51,591.18,1.62,589.8,0z"/>
</svg>
