<?xml version="1.0" encoding="utf-8"?>
<!-- Generator: Adobe Illustrator 23.0.6, SVG Export Plug-In . SVG Version: 6.00 Build 0)  -->
<svg version="1.1" id="Capa_1" xmlns="http://www.w3.org/2000/svg" xmlns:xlink="http://www.w3.org/1999/xlink" x="0px" y="0px"
	 viewBox="0 0 594.24 800.28" enable-background="new 0 0 594.24 800.28" xml:space="preserve">
<g>
	<g>
		<path fill="#674234" d="M320.35,256.17c0,0,33.75-113.49-85.93-92.63c-44.52,7.76-101.95,170.85-70.39,144.09
			c0,0,10.19-15.1,12.14-34.31c0,0,1.45,32.94-5.34,33.62c0,0,37.38,4.8,50.97-37.74c0,0-0.48,15.78-8.74,25.39
			c0,0,50.49,9.61,57.28-37.74c0,0,2.92,13.73-5.82,26.76C264.52,283.62,299.48,285.67,320.35,256.17z"/>
		<path fill="#674234" d="M273.89,256.17c0,0-33.76-113.49,85.93-92.63c44.52,7.76,101.95,170.85,70.39,144.09
			c0,0-10.19-15.1-12.13-34.31c0,0-1.46,32.94,5.34,33.62c0,0-37.38,4.8-50.97-37.74c0,0,0.48,15.78,8.74,25.39
			c0,0-50.49,9.61-57.28-37.74c0,0-2.91,13.73,5.83,26.76C329.72,283.62,294.76,285.67,273.89,256.17z"/>
	</g>
	<g>
		<path fill-rule="evenodd" clip-rule="evenodd" fill="#674234" d="M279.64,54.42V4.81c0,0-180.31-22.1-236.23,28.41
			C-13.55,84.66-0.09,147.01,5.44,192.96c6.13,50.97,48.13,578.91,55.89,606.38c7.94,28.12-11.07-582.03,2.11-645.19
			C80.49,72.46,129.89,53.52,279.64,54.42z"/>
		<path fill-rule="evenodd" clip-rule="evenodd" fill="#674234" d="M314.6,54.42V4.81c0,0,180.31-22.1,236.23,28.41
			c56.95,51.44,43.49,113.78,37.97,159.73c-6.13,50.97-48.13,578.91-55.89,606.38c-7.94,28.12,11.07-582.03-2.11-645.19
			C513.75,72.46,464.35,53.52,314.6,54.42z"/>
	</g>
</g>
</svg>
