<?xml version="1.0" encoding="utf-8"?>
<!-- Generator: Adobe Illustrator 23.0.6, SVG Export Plug-In . SVG Version: 6.00 Build 0)  -->
<svg version="1.1" id="Capa_1" xmlns="http://www.w3.org/2000/svg" xmlns:xlink="http://www.w3.org/1999/xlink" x="0px" y="0px"
	 viewBox="0 0 612.18 482.01" enable-background="new 0 0 612.18 482.01" xml:space="preserve">
<path fill-rule="evenodd" clip-rule="evenodd" fill="#674234" d="M316.12,0v61.75c0,0,177.6,12.07,211.02,55.15
	c25.35,32.67,16.05,126.99,0.77,165.41c-8.26,20.77-61.7,64.68-61.7,64.68s-74.66,9.53-97.82,1.66c-18.84-6.4-62.3-49.57-62.3-49.57
	s-43.46,43.17-62.3,49.57c-23.16,7.87-75.42,8.15-97.82-1.66c-20.47-8.97-53.44-43.92-61.69-64.68
	c-15.29-38.42-24.59-132.74,0.76-165.41c33.43-43.08,211.03-55.15,211.03-55.15V0c0,0-231.5,16.82-274.67,73.29
	c-35.76,46.78-20.54,180.76,1.12,235.51c21.74,54.96,160.9,173.21,160.9,173.21l245.35,0c0,0,139.17-118.25,160.91-173.21
	c21.65-54.75,36.87-188.73,1.11-235.51C547.62,16.82,316.12,0,316.12,0z"/>
</svg>
