<?xml version="1.0" encoding="utf-8"?>
<!-- Generator: Adobe Illustrator 23.0.6, SVG Export Plug-In . SVG Version: 6.00 Build 0)  -->
<svg version="1.1" id="Capa_1" xmlns="http://www.w3.org/2000/svg" xmlns:xlink="http://www.w3.org/1999/xlink" x="0px" y="0px"
	 viewBox="0 0 619.98 820.31" style="enable-background:new 0 0 619.98 820.31;" xml:space="preserve">
<style type="text/css">
	.st0{fill:#674234;}
	.st1{fill-rule:evenodd;clip-rule:evenodd;fill:#674234;}
</style>
<path class="st0" d="M598.55,599.72c-2.45-15.45-3.17-31.58-5.04-47.06c-2.6-21.45-3.75-44.36-5.04-65.88
	c-2.01-33.53-3.12-65.27-4.09-98.68c0.27-0.78,0.52-1.57,0.8-2.35c-0.46-2.39-0.78-4.55-1.01-6.42c-0.2-10-0.18-19.83-0.11-29.53
	c-0.35,0.06-0.7,0.12-1.04,0.18c-1.46-58.64-2.95-112.98-13.76-144.29c-43.74-126.71-96.6-144.61-129.14-166.3
	c-32.54-21.69-41.55-3.56-43.38-5.42c-3.86-7.73-9.6-20.23-30.19-27.64c-16.92-6.64-45.36-9.5-96.34-1.28
	C190.71,17.85,153.96,42.49,117.4,80.22c-15.47,13.7-29.51,28.69-41.69,44.52c-2.42,3.15-4.73,6.32-6.95,9.53
	c-41,46.78-52.56,136.36-56.36,205.21c-0.47-0.07-0.94-0.14-1.4-0.21c0.09,11.28,0.13,22.69-0.24,34.39
	c-1.11,34.86-2.37,67.75-4.7,102.59c-1.45,21.52-2.74,44.43-5.65,65.88c-2.1,15.48,4.66,50.42,4.21,66.1
	c-1.73,59.57,7.24,107.11,17.37,162.12c5.79-91.19,7.24-179.49,7.75-167.11c0.98,23.56-0.49,199.49,20.24,195.91
	c6.68-1.15,33.59-7.51,38.95-4.01c4.39,2.87-1.27,8.15,3.87,11.91c0.01,0.01,0.02,0.01,0.02,0.02c10.7,7.76,95.16-2.5,103.34-13.86
	c8.33-11.56-4.25-55.42-6.13-69.24c-8.63-63.48-16.06-121.53-29.08-196.8c7.26,41.97,26.79,108.68,37.63,150.54
	c9.73,37.55-27.48-185.76-45.87-316.83c134.32-90.96,147.68-160.49,186.16-211.21c39.77-52.42,63.26-5.42,63.26-5.42
	c21.69-36.15,43.01,49.33,43.01,49.33c8.49,95.48,10.66,148.09,12.33,177.51c7.51,132-30.31,259.26-55.24,392.22
	c-3.27,17.43,47.52-181.38,54.85-216.06c-12.47,59-25.28,123.79-32.99,187.27c-1.68,13.82-12.92,57.68-5.47,69.24
	c7.32,11.36,82.76,21.62,92.32,13.86c0,0,0.01-0.01,0.02-0.01c4.6-3.76-0.47-9.04,3.46-11.91c4.79-3.5,28.84,2.85,34.8,4.01
	c18.52,3.58,35.84-6.06,70.75-50.12C614.43,706.06,606.97,652.73,598.55,599.72z"/>
</svg>
