<?xml version="1.0" encoding="utf-8"?>
<!-- Generator: Adobe Illustrator 23.0.6, SVG Export Plug-In . SVG Version: 6.00 Build 0)  -->
<svg version="1.1" id="Capa_1" xmlns="http://www.w3.org/2000/svg" xmlns:xlink="http://www.w3.org/1999/xlink" x="0px" y="0px"
	 viewBox="0 0 403.95 396.77" style="enable-background:new 0 0 403.95 396.77;" xml:space="preserve">
<style type="text/css">
	.st0{fill:#674234;}
	.st1{fill-rule:evenodd;clip-rule:evenodd;fill:#674234;}
</style>
<path class="st0" d="M403.95,249.63c0,0,0.48-71.95-7.52-94.17c-8.07-22.41-35.76-63.57-54.7-78.01
	c-13.06-9.96-61.86-22.14-61.86-22.14l44.51-4c0,0-66.01-26.4-89.35-28.99c-16.89-1.87-67.68,6.31-67.68,6.31L188.37,0
	c0,0-70.5,21.51-81.97,41.39c-2.49,4.31,1.13,19.9,1.13,19.9s-13.12-9.76-18.3-9.69c-22.3,0.33-77.59,44.07-77.59,44.07l28.23-0.17
	c0,0-32.21,46.49-37,64.44c-6.45,24.19,0,100.15,0,100.15l11.42-12.69c0,0-1.07,65.6,5.4,86.21c5.53,17.62,38.33,63.15,38.33,63.15
	l8.33-169.56l27.82-25.41h214.9l27.82,25.41l11.91,169.56c0,0,29.56-36.32,34.48-50.87c7.98-23.56,5.68-99.34,5.68-99.34
	L403.95,249.63z"/>
</svg>
