<?xml version="1.0" encoding="utf-8"?>
<!-- Generator: Adobe Illustrator 23.0.6, SVG Export Plug-In . SVG Version: 6.00 Build 0)  -->
<svg version="1.1" id="Capa_1" xmlns="http://www.w3.org/2000/svg" xmlns:xlink="http://www.w3.org/1999/xlink" x="0px" y="0px"
	 viewBox="0 0 476.68 529.53" enable-background="new 0 0 476.68 529.53" xml:space="preserve">
<path fill="#674234" d="M475.86,432.86c-2.62-21.07-6.79-44.04-8.83-65.22c-2.8-29.03,1.67-53.21,5.41-82.99
	c7.62-60.78,1.55-96.43-7.76-126.8C441.48,82.17,371.82-2.21,258.06,0.04c-32.5,0.65-72.85,30-72.85,30S137,10.76,85.58,64.32
	c-56.67,59.03-76.8,152.97-71.75,232.16c2.9,45.46-7.32,82.65-12.96,126.64c-9.56,74.55,62.08,93.69,104.05,95.15
	c14.23,5.47,13.79,6.53,30.02,6.79c0,0-36.24-27.55-54.66-130.64c-6.59-36.87,3.57-86.49,14.69-103.02
	c12.36-18.38,92.91-89.07,100.31-117.42l-14.63,94.69l54.13-129.33c3.69,6.16,56.34,153.58,100.23,167.41
	c-6.17-1.94-41.78-102.74-41.78-102.74c26.65,58.74,89.18,114.5,103.26,127.78c-4.85-16.54-12.49-39.85-11.32-53.76
	c2.33,3.56,42.05,47.14,8.09,163.75c-12.17,41.79-23.45,61.2-51.85,87.63c2.4-1.21,6.56,2.51,28.9-3.12
	C408.76,526.75,485.47,510.17,475.86,432.86z M94.22,513.53c-32.76-10.46-85.82-35.35-66.58-76.27c0.88-1.87,1.78-3.64,2.7-5.34
	C44.58,478.63,71.34,501.91,94.22,513.53z M370.49,526.22c27.79-12.73,63.3-37.27,77.33-84.73c0.88,1.66,1.74,3.4,2.57,5.23
	C472.62,495.5,393.3,521.06,370.49,526.22z"/>
</svg>
