<?xml version="1.0" encoding="utf-8"?>
<!-- Generator: Adobe Illustrator 23.0.6, SVG Export Plug-In . SVG Version: 6.00 Build 0)  -->
<svg version="1.1" id="Capa_1" xmlns="http://www.w3.org/2000/svg" xmlns:xlink="http://www.w3.org/1999/xlink" x="0px" y="0px"
	 viewBox="0 0 572.96 801.87" style="enable-background:new 0 0 572.96 801.87;" xml:space="preserve">
<style type="text/css">
	.st0{fill:#674234;}
	.st1{fill-rule:evenodd;clip-rule:evenodd;fill:#674234;}
</style>
<path class="st1" d="M529.06,224.7c-24.94-36.02-22.64-40.68-33.36-79.01C481.86,96.14,448.81,58,415.63,37.37
	C368.6,8.13,301.07-5.72,257.39,2.2c-30.94,5.61-66.27,44.63-66.27,44.63S109.96,31.96,77.25,147.37
	c-10.85,38.29-8.41,42.99-33.35,79.01C-67.37,387.09,73.17,437.77,30.59,517.04C2.41,569.52,13.68,620.12,50.7,665.13
	c35.74,43.45,53.49,94.82,11.07,136.75c92.14-29.85,99.26-58.99,106.42-79.16c11.86-33.43-35.74-86.77,4.65-131.08
	c40.09-43.99,53.41-106.51,27.43-153.89c-27.58-50.3-35.06-105.72-32.15-162.32c2.71-52.75,31.34-74.94,59.51-104.15
	c0.39,0.34,183.98,61.39,185.9,100.85c2.1,43.13,1.53,92.09-16.12,132.37c-6.58,15-18,26.5-26.13,40.55
	c-24.2,41.86-4.41,96.28,28.84,148.27c35.07,54.84-6.87,95.27,4.65,127.72c7.15,20.17,14.28,49.31,106.42,79.16
	c-42.42-41.92-24.66-93.3,11.07-136.75c37.02-45.01,48.29-95.61,20.11-148.08C499.79,436.08,640.33,385.41,529.06,224.7z"/>
</svg>
