<?xml version="1.0" encoding="utf-8"?>
<!-- Generator: Adobe Illustrator 23.0.6, SVG Export Plug-In . SVG Version: 6.00 Build 0)  -->
<svg version="1.1" id="Capa_1" xmlns="http://www.w3.org/2000/svg" xmlns:xlink="http://www.w3.org/1999/xlink" x="0px" y="0px"
	 viewBox="0 0 532.83 526.01" enable-background="new 0 0 532.83 526.01" xml:space="preserve">
<path fill-rule="evenodd" clip-rule="evenodd" fill="#674234" d="M528.46,350.47c14.02-56.07-8.44-124.79-28.42-170.84
	c-19.69-45.37-50.85-107.04-91.16-138.44C373.24,13.46,342.53-7.5,298.99,2.57c-11.21,2.59-23.52,13.38-36.2,13.52
	c-14.64,0.16-29.14-8.76-43.74-10.12c-42.14-3.92-70.36,19.96-99.29,41.7c-45.91,34.52-76.87,89.96-97.18,141.32
	C2.01,240.98-7.68,287.73,7.19,339.38c8.43,29.25,34.74,49.21,29.37,62.7c-9.06,22.77-27.92,29.36-27.92,29.36
	c20.88-1.02,31.38-8.46,36.44-17.14c-6.48,28.26-27.76,32.54-27.76,32.54s52.18,8.6,54.68,4.15c0.69-0.5,1.38-1,2.08-1.54
	c0.39,0.82-29.07,20.56-28.58,20.95c13.94,11.03,30.97,16.31,46.27,15.37c1.82,6.1,1.88,12.36,0.83,18.81
	c-0.86,5.32-3.67,10.34-5.52,15.52c-0.27,0.76-0.04,1.69-0.04,3.91c9.18-5.71,17.49-10.88,25.57-15.9
	c0.21,3.22,42.42,17.91,42.42,17.91s-17.51-23.31-26.51-43.17c-17.67-39-36.05-163.64-20.23-192.63
	c13.27-24.32,34.9-55.15,38.3-82.32c0,0,19.05,38.41,127.33,79.84c0,0-8.19-8.74-20.91-17.77c-9.45-9.31-56.57-37.69-77.22-99.23
	c61.17,90.53,214.78,143.34,234.07,157.55c-0.21-0.18-0.41-0.38-0.63-0.58c0.88,0.68,1.63,1.25,2.23,1.71
	c-9.49-8.35-62.82-99.14-76.9-118.81c11.95,15.61,71.29,93.38,89.14,105.13c0.01,0,0.01,0,0.02,0.01
	c17.3,26.65,9.97,72.55,5.88,94.21c-3.39,17.94-7.23,36.75-13.99,53.86c-11.44,28.9-28.92,61.49-28.92,61.49
	s35.99-10.48,36.45-17.21c8.07,5.02,16.38,10.19,25.56,15.9c0-2.22,0.23-3.15-0.04-3.91c-1.84-5.18-4.66-10.21-5.52-15.52
	c-0.51-3.14-0.76-6.23-0.67-9.28c15.29,3.04,31.52-0.16,48.6-14c0.78-0.64-13.82-6.25-24.01-12.01c-3.67-2.08-6.93-7.35-8.94-12.01
	c0.7-1.59,1.42-3.19,2.15-4.79c22.33,20.46,54.98,3.6,54.98,3.6s-14.73-4.67-22.49-29.73c6.12,3.33,14.57,5.56,26.16,5.86
	c0,0-15.18-0.77-22.89-27.43C496.11,405.01,522.45,374.49,528.46,350.47z"/>
</svg>
