<?xml version="1.0" encoding="utf-8"?>
<!-- Generator: Adobe Illustrator 23.0.6, SVG Export Plug-In . SVG Version: 6.00 Build 0)  -->
<svg version="1.1" id="Capa_1" xmlns="http://www.w3.org/2000/svg" xmlns:xlink="http://www.w3.org/1999/xlink" x="0px" y="0px"
	 viewBox="0 0 558.13 552.77" enable-background="new 0 0 558.13 552.77" xml:space="preserve">
<path fill="#674234" d="M558.13,371.43c-1.89-0.74-3.67-1.53-5.38-2.36c-30.18-15.39-30.65-55.09-30.65-55.09
	c-1.53-56.42-1.82-110.74-12.09-140.46c-36.9-106.9-81.5-122-108.95-140.29c-27.45-18.3-35.05-3-36.6-4.57
	c-3.26-6.52-8.1-17.06-25.47-23.32c-14.28-5.6-38.26-8.02-81.27-1.08c-67.04,10.81-98.04,31.59-128.89,63.42
	c-13.05,11.56-24.9,24.2-35.17,37.55c-2.04,2.65-3.99,5.33-5.87,8.04c-44.62,50.91-47.9,161.91-49.13,217.93
	c-0.24,4.34-0.41,8.68-0.49,13c-1.6,10.08-7.45,34.01-27.39,40.82c0,0,10.3,5.33,22.31,0.67c-2.05,7.42-4.57,13.91-7.29,19.55
	C14.65,426.77,0,437.33,0,437.33c0.4,0.04,0.8,0.08,1.2,0.11c0.12,0.01,0.24,0.01,0.37,0.02c0.28,0.02,0.56,0.04,0.85,0.05
	c0.14,0.01,0.28,0.01,0.42,0.01c0.28,0.01,0.55,0.01,0.83,0.02c0.14,0,0.27,0,0.41,0c0.31,0,0.61-0.01,0.92-0.01
	c0.1,0,0.2,0,0.3-0.01c0.41-0.01,0.83-0.03,1.24-0.06c0.04,0,0.08-0.01,0.13-0.01c0.37-0.02,0.74-0.05,1.11-0.09
	c0.13-0.01,0.25-0.02,0.38-0.04c0.29-0.03,0.58-0.06,0.87-0.1c0.14-0.02,0.28-0.03,0.43-0.05c0.28-0.04,0.57-0.08,0.85-0.12
	c0.14-0.02,0.27-0.04,0.41-0.06c0.33-0.05,0.65-0.1,0.98-0.16c0.09-0.02,0.18-0.03,0.27-0.05c0.41-0.07,0.83-0.15,1.25-0.24
	c0.11-0.02,0.21-0.04,0.32-0.07c0.31-0.06,0.62-0.13,0.92-0.2c0.16-0.04,0.31-0.07,0.47-0.11c0.26-0.06,0.52-0.12,0.78-0.19
	c0.17-0.04,0.34-0.08,0.5-0.13c0.26-0.07,0.51-0.14,0.77-0.2c0.16-0.04,0.33-0.09,0.49-0.13c0.29-0.08,0.58-0.16,0.86-0.25
	c0.13-0.04,0.26-0.07,0.38-0.11c0.39-0.12,0.78-0.24,1.18-0.36c0.19-0.06,0.37-0.12,0.56-0.18c0.22-0.07,0.44-0.14,0.66-0.22
	c0.21-0.07,0.41-0.14,0.62-0.21c0.2-0.07,0.4-0.14,0.6-0.21c0.22-0.08,0.43-0.15,0.65-0.23c0.18-0.07,0.37-0.13,0.55-0.2
	c0.23-0.08,0.46-0.17,0.68-0.26c0.14-0.05,0.27-0.11,0.41-0.16c0.53-0.21,1.06-0.42,1.59-0.63c0.09-0.04,0.17-0.07,0.26-0.11
	c0.27-0.11,0.54-0.23,0.81-0.34c0.12-0.05,0.24-0.1,0.36-0.15c0.27-0.12,0.54-0.23,0.81-0.35c0.11-0.05,0.22-0.1,0.33-0.14
	c0.28-0.13,0.57-0.25,0.85-0.38c0.06-0.03,0.13-0.06,0.19-0.09c1.36-0.62,2.7-1.27,4.01-1.94c0.03-0.01,0.05-0.02,0.08-0.04
	c0.33-0.17,0.65-0.33,0.98-0.5c0.01,0,0.01-0.01,0.02-0.01c-0.64,5.64,10.25,33.95,31.64,57.85c0,0-2.52-18.87-0.38-32.14
	c0,0-2.13,37.17,43.16,59.82c0,0-2.1-11.51-3.26-17.89c6.84,24.04,56.05,41.09,83.87,44.02c18.57,1.95,29.13,4.55,39.14,7.07
	c-12.53-11.36-24.01-24.15-34.25-37.2c-27.54-22.21-38.86-40-53.05-70.6c-0.02-0.04-0.04-0.07-0.05-0.11
	c-6.41-13.45-12.13-45.35-16.3-80.33c15.61-26.4,21.43-46.74,21.43-46.74c124.34-80.57,135.26-141.74,168.8-185.97
	c33.55-44.22,53.37-4.57,53.37-4.57c18.3-30.5,55.91,35.89,55.91,35.89c8.66,97.47,31.3,145.03,43.69,164.42
	c-1.04,16.14-5.21,37.64-9.32,55.83c-4.59,27.22-10.24,50.51-15.47,61.49c-0.02,0.04-0.03,0.07-0.05,0.11
	c-11.31,24.4-20.91,40.65-38.35,57.49c-14.29,19.66-31.5,39.61-50.94,55.89c15.15-3.18,30.9-8.31,52.92-15.58
	c41.47-13.69,67.18-34.13,71.9-55.36l-2.86,23.4c0,0,20.39-10.03,34.02-43.06c8.74-21.19,7.44-25.32,7.44-25.32
	s3.16,6.84,8.19,21.94c0,0,8.5-17.01,6.73-54.21c-0.38-8.07-3.81-30.47-4.09-32.24C542.94,373.61,558.13,371.43,558.13,371.43z"/>
</svg>
