<?xml version="1.0" encoding="utf-8"?>
<!-- Generator: Adobe Illustrator 23.0.6, SVG Export Plug-In . SVG Version: 6.00 Build 0)  -->
<svg version="1.1" id="Capa_1" xmlns="http://www.w3.org/2000/svg" xmlns:xlink="http://www.w3.org/1999/xlink" x="0px" y="0px"
	 viewBox="0 0 580.13 534.63" enable-background="new 0 0 580.13 534.63" xml:space="preserve">
<path fill="#674234" d="M554.58,399.87c-2.7-5.59-5.19-12.02-7.22-19.36c11.89,4.61,22.09-0.66,22.09-0.66
	c-19.75-6.74-25.54-30.45-27.13-40.43c-0.08-4.28-0.25-8.58-0.49-12.88c-1.22-55.48,5.42-141.3-54.47-223.79
	c-38.08-52.45-79.99-51.68-79.99-51.68s-26.9-52.85-102.3-51.02C160.42,3.56,87.63,109.46,85.77,112.13
	c-44.19,50.42-47.44,160.35-48.66,215.83c-0.24,4.3-0.41,8.59-0.49,12.88c-0.93,5.84-3.3,16.38-9.07,25.47
	c-0.06,0.02-0.12,0.05-0.18,0.07c0,0,0.05,0.01,0.12,0.02c-4.08,6.41-9.85,12.08-18,14.87c0,0,10.2,5.27,22.09,0.67
	c-2.03,7.35-4.52,13.77-7.22,19.36c-11.03,21.32-24.75,31.86-24.35,31.89c0.12,0.01,31-7.69,32.31-8.35
	c0.03-0.01,0.05-0.03,0.08-0.04c0.33-0.16,0.65-0.33,0.97-0.5c0.01,0,0.01-0.01,0.02-0.01c-0.64,5.59,10.15,33.62,31.34,57.3
	c0,0-2.49-18.69-0.38-31.83c0,0-2.11,36.81,42.75,59.24c0,0-1.15-6.33-2.22-12.17c0.95,0.65,116.76,41.94,112.98,37.45
	c-45.18-31.48-58.13-49.37-75.46-87.06c-0.02-0.04-0.03-0.07-0.05-0.11c-3.89-8.22-7.51-23.45-10.68-42.06
	c-1.78-10.47-7.87-43.35-8.62-49.6c15.46-26.14,58.82-105.99,58.82-105.99c82.79-27.12,182.5-46.02,205.54-85.64
	c22.69,39.03,53.83,161.84,69.41,189.48l0,0c-4.8,39.91-12.73,78.71-19.88,93.81c-0.02,0.04-0.04,0.07-0.05,0.11
	c-16.93,36.79-29.91,54.72-72.64,84.84c-7.38,8.1,107.49-32.25,109.23-33.41c-0.86,4.71-1.62,8.92-1.62,8.92
	c44.86-22.43,42.75-59.24,42.75-59.24c2.11,13.14-0.38,31.83-0.38,31.83c21.19-23.68,31.97-51.71,31.34-57.3
	c0,0,0.01,0.01,0.02,0.01c0.32,0.17,30.78,8.99,30.92,8.99c0.27,0,0.55-0.01,0.82-0.01c0.14,0,0.28-0.01,0.42-0.01
	c0.28-0.01,0.56-0.03,0.84-0.05c0.12-0.01,0.24-0.01,0.36-0.02c0.4-0.03,0.79-0.06,1.19-0.11
	C580.13,431.65,565.62,421.19,554.58,399.87z"/>
</svg>
