<?xml version="1.0" encoding="utf-8"?>
<!-- Generator: Adobe Illustrator 23.0.6, SVG Export Plug-In . SVG Version: 6.00 Build 0)  -->
<svg version="1.1" id="Capa_1" xmlns="http://www.w3.org/2000/svg" xmlns:xlink="http://www.w3.org/1999/xlink" x="0px" y="0px"
	 viewBox="0 0 410.9 414.6" enable-background="new 0 0 410.9 414.6" xml:space="preserve">
<path fill="#674234" d="M410.9,169.33c-0.63-3.27-1.35-6.53-2.16-9.77c-7.23-28.89-28.76-67.79-64.12-94.07
	c-22.22-16.52-57.9-31.46-57.9-31.46l39.79,11.47c0,0-14.99-24.99-60.72-35.76c-41.4-9.75-82.04,13.82-82.04,13.82L224.39,0
	c0,0-61.57,4.8-72.68,10.84c-23.92,13-32.54,35.32-32.54,35.32S91.23,44.45,73.3,57.7c-42.36,31.3-63.27,85.33-63.27,85.33
	l34.99-29.46c-12.25,11.63-33.75,36.98-43.45,78.59c-2.74,11.75-1.61,27.66,1.28,44.98c2.57-4.24,5.61-8.18,8.91-11.83
	c-0.43,29.82-0.47,67.32,4.26,103.55c8.65,66.24,24.1,85.52,27.9,85.75c0.4,0.03-0.87-21.67,1.25-40.39
	c1.52-13.33,4.23-28.43,5.74-31.9c4.03-9.23,2.97-18.69,1.88-28.42c-1.78-15.92-5.13-60.38-3.63-63.7
	c7.1-15.73,42.86-44.26,44.04-44.9c17.72-9.62,215.2-9.62,232.92,0c1.18,0.64,36.95,29.17,44.04,44.9
	c1.49,3.32-1.86,47.78-3.64,63.7c-1.09,9.73-2.15,19.19,1.88,28.42c1.51,3.47,4.85,18.57,6.36,31.9
	c2.13,18.72-1.22,36.92,2.03,39.98c0.15,0.14,17.06-23.11,25.4-91.65c5.48-45.12,4.01-91.49,4.01-121.46
	c-2.27-13.4-5.77-25.92-10.34-37.57c4.94,1.73,9.82,3.6,14.62,5.64C410.63,169.21,410.76,169.27,410.9,169.33z"/>
</svg>
