<?xml version="1.0" encoding="utf-8"?>
<!-- Generator: Adobe Illustrator 23.0.6, SVG Export Plug-In . SVG Version: 6.00 Build 0)  -->
<svg version="1.1" id="Capa_1" xmlns="http://www.w3.org/2000/svg" xmlns:xlink="http://www.w3.org/1999/xlink" x="0px" y="0px"
	 viewBox="0 0 397.82 386.74" enable-background="new 0 0 397.82 386.74" xml:space="preserve">
<path fill="#674234" d="M380.51,137.13l17.31,11.45c0,0-7.32-40.43-36.62-66.03c-28.88-25.24-35.6-15.86-37.41-19.97
	c-3.96-8.99-0.85-34.3-0.85-34.3l-40.46,28.79l40.46-37.55c0,0-21.7-9.69-53.94,2.7c-22.12,8.5-24.55-2.73-49.94-5.39
	c-38.62-4.04-61.08,11.84-61.08,11.84s13.32-9.36,30.46-12.51c14.65-2.69,35.96-6.06,35.96-6.06s-56.6-27.62-107.5,8.52
	c-8.65,6.14-27.75,32.23-27.75,32.23s-20.32-5.77-44.53,12.48C10.65,88.93,0,140.81,0,140.81l29.79-16.85
	c0,0-14.6,11.29-19.81,22.47c-12.42,26.65-4.69,67.44-4.69,67.44l7.92-10.66l-2.29,44.85l8.4-11.75c0,0,7.75,10.16,9.69,13.95
	c15.27,29.86,44.63,126.67,44.63,126.67l0.06-94.59l16.51,22.12l3.02-105.46c0,0,14.64,42.01,125.24,66.49
	c42.51,9.41,89.69-1.69,89.69-1.69l-25.29-41.21l42.82,35.29l1.28,128.87c0,0,24.16-107.66,36.91-141.69
	c1.67-4.46,8.08-21.26,8.08-21.26l5.24,20.31l1.86-57.61L386.6,208c0,0,10.81-19.86,2.82-47.49
	C384.33,142.95,380.51,137.13,380.51,137.13z"/>
</svg>
