<?xml version="1.0" encoding="utf-8"?>
<!-- Generator: Adobe Illustrator 23.0.6, SVG Export Plug-In . SVG Version: 6.00 Build 0)  -->
<svg version="1.1" id="Capa_1" xmlns="http://www.w3.org/2000/svg" xmlns:xlink="http://www.w3.org/1999/xlink" x="0px" y="0px"
	 viewBox="0 0 599.51 795.54" style="enable-background:new 0 0 599.51 795.54;" xml:space="preserve">
<style type="text/css">
	.st0{fill:#674234;}
	.st1{fill-rule:evenodd;clip-rule:evenodd;fill:#674234;}
</style>
<path class="st0" d="M576.94,567.11c21.46-17.3,29.61-50.44,15.69-80.48c16.55-33.8-5.99-51.99-25.8-72.82
	c-0.82-28.51-2.12-56.17-5.25-83.75c3.37-4.98,6.14-10.6,7.16-17.89c4.95-35.48-10.75-53.08-27.31-78.4
	c-0.47-1.46-0.94-2.92-1.43-4.39c-17.29-52.14-28.85-93.83-62.96-135.67C439.27,37.2,372.64,0,302.86,0
	C215.49,0,144.78,68.9,114.8,157.73C104.64,187.85,92.87,191.47,68.4,208c-19.49,13.15-34.57,26.8-19.52,52.03
	c-32.04,18.93,16.91,55.61,22.44,87.95c-1.28,6.81-2.41,13.61-3.39,20.39c-23.98,51.88-90.54,36.71-54.52,112.47
	c2.25,4.73,4.12,8.89,5.63,12.66c-1.88,13.36-1.92,26.78,0.49,39.71c-1.3,3.55-2.9,7.44-4.81,11.82
	c-11.59,26.62-15.02,35.65,6.35,60.76c14.64,17.21,39.91,27.4,29.98,53.62c-13.45,35.5-39,42.74-51.04,22.4
	c0,30.74,18.03,34.56,43.53,27.57c19.61-5.37,28.09-12.74,35.11-23.04c-5.8,54.48,17.52,121.37,88.6,107.3
	c1.2-0.24-29.69-7.82-37.43-21.37c-8.64-15.15,10.89-29.97,22.33-36.83c16.75-10.04,32.15-22.65,35.16-41.95
	c2.77-17.82,2.08-29.1-7.12-42.21c8.16,0.91,17.66,1.75,28.73,2.48c-59.49-29.93-52.5-64.13-49.55-69.18
	c0.85-1.03-5.7,45.61,84.32,42.15c-0.01,0-0.02-0.01-0.03-0.01c-23.64-9.41-43.44-29.68-29.67-49.56c2.2-3.18,4.23-6.28,6.1-9.32
	c15.08-23.17,27.36-52.01,15.23-73c-10.54-18.23-23.36-27.02-32.75-47.28c-0.01-0.03-0.03-0.05-0.04-0.08
	c-32.23-66.31-18.12-150.08,29.93-203.74c9.36-10.46,30.94-64.21,26.91-73.48c17.82,40.94,49.16,71.94,92.85,88.1
	c22.85,8.46,59.53,9.41,79.62,22.52c23.74,15.48,20.3,71.83,18.26,91.57c-2.45,23.69-6.81,53.29-17.16,75.02
	c-0.01,0.03-0.03,0.05-0.04,0.08c-9.7,20.92-22.76,29.73-34.48,48.66c-9.81,15.84-18.92,58.78,2.51,93.47
	c12.54,20.31-24.21,50.85-15.64,73.57c7.45,19.74,6.39,16.62,25.54,39.47c-3.25-40.79,7.19-57.2,20.39-64.06
	c-10.17,15.33-10.3,30.16-7.62,49.52c2.11,15.23,18.62,26.98,32.81,36.19c4.15,15.71,2.83,31.78-15.78,45.87
	c20.68-3.51,33.54-13.08,41.28-25.9c5.7,6.92,9.21,15.27,4.93,23.72c-6.88,13.55-34.35,21.13-33.29,21.37
	c69.39,15.44,96.03-76.25,84.99-132.41c-2.91-14.82-4.98-27.3-4.91-37.98c15.66,14.89,18.51,23.76,9.17,57.72
	c0.02,0,44.7-39.47,42.57-64.4C584.05,597.26,580.55,583.28,576.94,567.11z"/>
</svg>
