<?xml version="1.0" encoding="utf-8"?>
<!-- Generator: Adobe Illustrator 23.0.6, SVG Export Plug-In . SVG Version: 6.00 Build 0)  -->
<svg version="1.1" id="Capa_1" xmlns="http://www.w3.org/2000/svg" xmlns:xlink="http://www.w3.org/1999/xlink" x="0px" y="0px"
	 viewBox="0 0 420.56 391.76" style="enable-background:new 0 0 420.56 391.76;" xml:space="preserve">
<style type="text/css">
	.st0{fill:#674234;}
	.st1{fill-rule:evenodd;clip-rule:evenodd;fill:#674234;}
</style>
<g>
	<path class="st0" d="M420.41,193.97c-0.16-7.39-0.41-14.77-0.6-22.11c-0.83-32.49-6.82-64.88-25.53-92.17
		c-5.48-8.01-12.11-15.94-19.3-22.49c-26.37-24.03-60.51-40.91-95.1-49.11C258.11,2.94,234.5,0,212.1,0
		c-37.92,0-78.58,6.55-112.48,23.96c-27.2,13.97-57.88,33.27-73.5,60.44c-13.4,23.31-21.93,52.72-24.96,79.4
		c-2.08,18.36-0.8,36.63-0.37,55.03c0.06,2.57,0.16,5.17,0.3,7.78c0.84,16.19,2.82,20.48,2.04,35.62c2.39-1.24,3.52-6.35,6.1-5.69
		c0,0.68-0.02,1.39-0.05,2.1c-0.62,11.92-6.21,27.66,0.05,37.76c0.97-1.34,0.41-4.38,2.81-4.14c1.41,8.94,4.66,15.86,8.67,21.93
		c3.77,5.7,12.55,42.23,11.5,49.5c-0.23,1.3,2.33-1.44,1.88,1.03c-0.91,9.34,11.58,27.03,11.44,24.83l-0.03-0.02
		c0,0-1.11-65.46-2.02-71.39c-0.7-4.54-0.73-9.14-0.57-13.88c0.3-3.06,0.55-6.13,0.68-9.2c0.56-13.09,0.47-26.21,0.58-39.31
		c0.1-12.91-1.12-13.88-1.68-27.06C53.37,154.67,96.7,114.12,176.27,179c51.85,42.28,67.33-1.41,123.88-22.49
		c38.1-14.2,71.66,0.64,80.1,60.29c0.04,16.87-2.09,22.19-1.95,39.03c0.06,7.29,0.06,14.58,0.15,21.86
		c-0.07,0.53-0.13,1.06-0.19,1.62c-1.39,13.22,1.51,23.67-0.47,38.3c-0.88,6.48-2.5,68.8-2.5,68.8
		c-0.01,17.47,12.65-12.65,11.88-22.21c0.29-1.88,2.37,1.4,1.88-1.03c-3.72-5.37,8.01-43.48,11.68-49.3
		c3.9-6.19,7.05-13.22,8.95-21.62c2.09,0.11,1.12,3.59,2.82,4.14c6.19-12.22-1.45-29.11,0-40.37c2.45,1.43,3.33,4.61,5.62,6.21
		c-0.96-15.53,0.88-19.93,1.9-36.54C420.67,215.18,420.64,204.57,420.41,193.97z"/>
</g>
</svg>
