<?xml version="1.0" encoding="utf-8"?>
<!-- Generator: Adobe Illustrator 23.0.6, SVG Export Plug-In . SVG Version: 6.00 Build 0)  -->
<svg version="1.1" id="Capa_1" xmlns="http://www.w3.org/2000/svg" xmlns:xlink="http://www.w3.org/1999/xlink" x="0px" y="0px"
	 viewBox="0 0 876.04 1425.35" enable-background="new 0 0 876.04 1425.35" xml:space="preserve">
<path fill="#674234" d="M857.01,1345.34c-70.11-238.23-117.99-486.28-134.72-732.31c-7.87-115.66,4.27-240.23-22.65-353.27
	c-11.05-46.41-27.97-94.31-56.67-132.98c-10.91-14.69-23.33-29.55-38.85-39.62c-6.09-3.95-41.05-13.21-42.7-15.96
	c-54.5-90.64-148.21-90.92-251.17-22.45C128.17,169.83,148.25,421.5,135.22,613.02c-16.73,245.96-64.58,493.93-134.66,732.1
	c-6.93,23.56,52.29-171.35,89.06-290.65c1.64,84.37-15.28,173.83-26.65,257.46c-2.48,18.26-19.04,75.94-8.07,91.24
	c11.09,15.42,121.21,29.18,136.18,18.24c6.77-4.95-0.69-11.91,5.09-15.69c7.06-4.62,42.53,3.76,51.32,5.27
	c18.39,3.18,14.85-9.68,15.39-16.33c11.07-136.7,16.32-274.63,19.47-411.73c0.03-1.14,0.58-2.27,0.89-3.4
	c0.64,1.19,1.7,2.35,1.84,3.58c3.5,29.75,6.39,59.55,10.47,89.26c3.72,27.13,8.72,54.15,13.15,81.21
	c3.86,23.57,7.11,47.22,11.73,70.69c7.94,40.29,17.19,82.02,30.62,120.78c0-0.01,0.01-0.01,0.01-0.02
	c-23.11-103.85-26.56-163.36-35.45-223.46c-13.28-89.82-6.11-180.76-9.01-271.54c-0.67-21.17-0.78-106.03-0.47-107
	c0.65,1.02,35.52,358.42,31.7,336.45c-6.77-38.8-12.87-361.95-37.41-437.41c-14.94-45.96-34.98-67.99-42.07-120.01
	c-8.04-59.08-3.35-119.75,6.6-178.28l80.7,3.35l14.99-61.77l3.59,63.05l28.32,0.24l8.51-107.09l5.97,106.85
	c0,0,203.6-10.22,203.68-10.22c0.01,0,0.01,0,0.03,0c15.61-0.51,17.33,98.62,16.48,109.18c-10.47,131.45-44.08,143.86-62.68,246.78
	c-9.54,52.81-4.47,102.24-6.2,156.25c-1.47,45.93-3.12,89.26-6.2,135.16c-1.9,28.36-3.61,58.54-7.44,86.8
	c-2.76,20.4-3.82,41.65-7.44,62c-12.41,69.85-23.42,140.12-31.6,210.6c29.12-107.68,40.15-247.71,68.46-365.15
	c6.59,57.24,6.11,115.54,9.23,173.06c1.68,31.03-0.65,262.84,26.67,258.12c8.79-1.51,44.25-9.89,51.32-5.27
	c5.78,3.78-1.68,10.74,5.09,15.69c0.01,0.01,0.02,0.01,0.03,0.02c14.1,10.23,125.37-3.3,136.16-18.26
	c10.98-15.23-5.6-73.02-8.07-91.23c-11.37-83.64-28.29-173.1-26.65-257.46c-1.09,56.11,35.17,135.7,49.46,190.86
	c12.81,49.47,31.16,112.22,58.63,171.51C877.18,1413.17,863.04,1365.83,857.01,1345.34z"/>
</svg>
