<?xml version="1.0" encoding="utf-8"?>
<!-- Generator: Adobe Illustrator 23.0.6, SVG Export Plug-In . SVG Version: 6.00 Build 0)  -->
<svg version="1.1" id="Capa_1" xmlns="http://www.w3.org/2000/svg" xmlns:xlink="http://www.w3.org/1999/xlink" x="0px" y="0px"
	 viewBox="0 0 446.14 1435.51" enable-background="new 0 0 446.14 1435.51" xml:space="preserve">
<path fill="#674234" d="M424.47,600.61c-34.09-64.86-64.13-121.24-23.86-180.62c9.14-12.1,15.58-28.55,23.64-48.49
	c26.12-64.55,14.71-196.43-41.31-273.69C346.38,47.41,269.09-22.59,191.79,7.08c-9.77,3.75-67.52-6.66-113.94,41.28
	C46.13,81.12,33.7,112.08,21.92,156.33c-10.12,38.04-0.06,75.92-0.86,114.32c-0.78,36.98-15.42,69.15-20.31,105.4
	c-8.77,65.04,61.32,78.91,96.3,78.49c-20.36-4.18-93.46-25.67-73.1-66.85c0.76-1.54,1.55-3,2.35-4.4
	c24.29,75.79,90.64,74.04,90.64,74.04S93.42,434.07,64.53,352.4c-0.95-30.88,8.14-41.3,17.78-54.92
	c11.23-15.88,87.41-112.1,87.41-129.67l-13.15,80.96l50.18-114.02c0,0,31.95,129.93,83.6,145.41
	c-8.84-2.65-46.77-106.19-52.45-119.52c5.69,13.33,75.18,160.79,91.89,175.77c10.57-29.09,5.46-108.47,5.46-108.47
	c7.58,47.63,8.3,125.35-1.77,158.89c-23.8,79.33-78.62,114.01-111.8,187.38c-30.89,68.31-36.74,134.15-40.94,227.37
	c-3.46,76.69,24.68,166.97,52.22,245.77c-7.68-21.99-15.31-88.43-11.5-160.99c0.01,0.01,7.28-79.83,7.28-79.82
	c45.01,261.23-15.36,317.07-22.14,403.13c-3.28,41.57,15.07,113.79,70.71,81.99c-8.21,1.78-21.05,2.84-28.23-3.4
	c-11.49-10-14.13-36-12.66-51.99c5.97-64.86,36.03-70.17,61.1-222.35c18.77-113.94-0.1-287.58,19.92-371.01
	c-5.26,40.84,7.36,191.38,23.82,339.41c12.36,111.19,1.06,184.34-23.57,243.3c-19.37,46.38-29.33,115.05-19.65,165.53
	c0.01,0.03,8.01,68.36,68.63,35.33c-45.13,12-58.2-51.97-56.38-87.64c2.86-56.12,36.27-101.69,61.67-145.04
	c31.86-54.38,33.59-120.65,32.57-185.08c-1.19-75.82,6.33-219.35-0.16-295.1c-6.98-81.58-13.26-111.56-31.82-202.21
	c27.19,129.72,60.53,153.32,46.13,338.55c7.17-19.26,14.72-35.45,18.23-56.01C447.51,731.89,454.91,658.52,424.47,600.61z"/>
</svg>
