<?xml version="1.0" encoding="utf-8"?>
<!-- Generator: Adobe Illustrator 23.0.6, SVG Export Plug-In . SVG Version: 6.00 Build 0)  -->
<svg version="1.1" id="Capa_1" xmlns="http://www.w3.org/2000/svg" xmlns:xlink="http://www.w3.org/1999/xlink" x="0px" y="0px"
	 viewBox="0 0 388.15 475.34" style="enable-background:new 0 0 388.15 475.34;" xml:space="preserve">
<style type="text/css">
	.st0{fill:#674234;}
	.st1{fill-rule:evenodd;clip-rule:evenodd;fill:#674234;}
</style>
<path class="st0" d="M387.59,271.14c-1.63-17.57-0.79-110.29-38.61-124.94c-0.79-1.18-1.59-2.32-2.39-3.42
	c-4.42-6.04-3.96-20.4-9.02-28.23c-6.05-9.36-14.55-16.58-23.48-22.66c-49.99-34.06-99.69-26.01-154.61-37.1
	C113.35,45.48,108.01,37.11,100.98,0C96.88,2.34,53.37,23.51,41,61.61c9.69-43.77,32.06-43.02,42.27-52.35
	c-53.84,19.84-72.48,70.28-59.15,98.1c0.45,0.86,0.91,1.72,1.41,2.59c-0.5-0.82-0.97-1.68-1.41-2.59
	c-13.07-24.87-7.76-40.66-1.45-54.87C6.79,77.5,2.59,122.54,19.83,148.48c-6.53,9.57-9.78,22.11-10.39,39.77l12.26-9.87
	c-10.04,15.97-24.04,60.39-21.37,87.8c0.79,8.15,0.19,19.17,0.34,27.67c0.05,2.5,0.13,5.03,0.25,7.57
	c0.72,15.73,2.5,32.05,1.73,46.77c2.21-1.2,3.27-6.16,5.64-5.51c0,0.67-0.02,1.35-0.06,2.04c-0.62,11.58-5.82,26.86-0.07,36.69
	c0.9-1.3,0.4-4.25,2.61-4.02c1.27,8.69,4.25,15.43,7.93,21.34c3.46,5.56,11.44,41.09,10.45,48.14c-0.22,1.27,2.15-1.39,1.73,1.02
	c-0.88,9.08,10.6,26.31,10.47,24.17l-0.03-0.02c0,0-0.81-63.62-1.64-69.39c-1.68-11.74,1.03-23.87-0.3-37.73
	c-0.75-7.76-2.96-12.16-2.96-21.14c0.01-37.29,11.23-54.58,18.59-62.37c22.31-23.59,69.29-43.23,141.46-42.96
	c73.38,0.27,128.77,24.56,144.53,51.63c4.05,6.96,13.67,12.21,10.87,55.07c-0.58,8.92-2.32,13.33-3.11,20.92
	c-1.32,12.84-2.43,23.01-0.56,37.22c3.24,24.66-5.07,66.84-5.07,66.84c-0.07,16.98,14.26-12.24,13.58-21.54
	c0.28-1.83,2.18,1.37,1.73-1c-3.42-5.23,7.54-42.23,10.94-47.87c3.62-6,6.54-12.82,8.33-20.98c1.93,0.11,1.02,3.5,2.58,4.04
	c5.75-11.86-1.24-28.29,0.13-39.24c2.26,1.4,3.06,4.49,5.17,6.06c-0.84-15.1,0.92-31.51,1.92-47.65
	C388.17,291.43,388.5,281,387.59,271.14z"/>
</svg>
