<?xml version="1.0" encoding="utf-8"?>
<!-- Generator: Adobe Illustrator 23.0.6, SVG Export Plug-In . SVG Version: 6.00 Build 0)  -->
<svg version="1.1" id="Capa_1" xmlns="http://www.w3.org/2000/svg" xmlns:xlink="http://www.w3.org/1999/xlink" x="0px" y="0px"
	 viewBox="0 0 399.26 342" style="enable-background:new 0 0 399.26 342;" xml:space="preserve">
<style type="text/css">
	.st0{fill:#674234;}
	.st1{fill-rule:evenodd;clip-rule:evenodd;fill:#674234;}
</style>
<path class="st1" d="M398.91,167.15c-0.5-14.72-5.32-44.69-6.67-47.5c-3.3-6.84-6.5-13.76-10.34-20.31
	c-3.29-5.62-63.64-78.21-103.78-87.27c-7.03-1.59-47.45-11.84-77.63-12.06V0c-0.29,0-0.58,0.01-0.88,0.01
	c-0.29,0-0.58-0.01-0.87-0.01v0.01c-30.18,0.22-70.59,10.47-77.63,12.06C81,21.14,20.65,93.72,17.35,99.35
	c-3.83,6.55-7.03,13.46-10.33,20.31c-1.35,2.8-6.16,32.78-6.67,47.5c-0.6,17.41-0.28,34.85-0.15,52.29
	c0.04,5.57,4.69,34.89,7.03,50.63c2.02,3.34,15.49,44.17,16.64,49.52c0.7,3.26,3.33,16.82,5.8,19.21c2.35,2.27,5.7,3.15,8.96,3.2
	c-0.58-10.17-0.41-20.42,0.2-30.58c0.83-13.63,2.33-27.25,4.17-40.78c1.31-9.65,3.53-19.17,5.59-28.7c0.58-2.73,1.81-5.4,3.11-7.91
	c3.48-6.67,2.56-13.52,1.62-20.55c-2.11-15.79-5.44-31.65-5.21-47.44c0.17-12.18,0.76-19.4,7.41-31.31
	c16.11-28.87,21.45-47.07,54.59-58.73c36.62-12.87,76.23-16.63,114.77-12.93c33.47,3.22,100.79,14.07,118.89,71.67
	c4.09,13,7.24,19.12,7.41,31.3c0.22,15.79-3.11,31.65-5.21,47.44c-0.94,7.03-1.86,13.88,1.62,20.55c1.31,2.51,2.52,5.17,3.11,7.91
	c2.06,9.53,4.29,19.06,5.59,28.7c1.84,13.54,3.35,27.15,4.17,40.78c0.45,7.46,0.66,14.97,0.51,22.46c3.84-0.15,8.03-0.56,9.87-3.57
	c1.99-3.25,5.28-19.59,6.53-23.78c2.58-8.55,12.85-28.86,13.88-30.9c1.79-12.9,7.78-49.85,7.83-56.18
	C399.19,202,399.51,184.56,398.91,167.15z"/>
</svg>
