<?xml version="1.0" encoding="utf-8"?>
<!-- Generator: Adobe Illustrator 23.0.6, SVG Export Plug-In . SVG Version: 6.00 Build 0)  -->
<svg version="1.1" id="Capa_1" xmlns="http://www.w3.org/2000/svg" xmlns:xlink="http://www.w3.org/1999/xlink" x="0px" y="0px"
	 viewBox="0 0 403.79 388.9" style="enable-background:new 0 0 403.79 388.9;" xml:space="preserve">
<style type="text/css">
	.st0{fill:#674234;}
	.st1{fill-rule:evenodd;clip-rule:evenodd;fill:#674234;}
</style>
<path class="st0" d="M403.19,151.73c-1.93-13.36-13.76-38.74-22.33-49.17c-7.39-8.98-37.86-27.04-37.86-27.04l36.73,14.91
	c0,0-40.9-45.77-59.56-52.57C308.62,33.65,271,39.05,271,39.05S223.44,4.03,204.55,0.87c-26.19-4.38-80.32,8.67-104.33,20.03
	c-20.97,9.92-71.3,59.38-71.3,59.38l41.15-13.24c0,0-37.34,23.72-46.44,35.07C14.97,112.9,2.7,138.75,0.66,152.43
	c-4.57,30.58,16.22,122.59,16.22,122.59L40,253.04l-18.14,51.45l17.01-17.24L68.32,388.9l-2.35-136.02l124.18-57.56l-53.29,49.4
	L270.91,184l68.28,68.89l-2.78,136.02l30.39-94.32l14.42,9.9l-16.69-60.01l21.39,30.54C385.93,275.02,407.64,182.53,403.19,151.73z"
	/>
</svg>
