<?xml version="1.0" encoding="utf-8"?>
<!-- Generator: Adobe Illustrator 23.0.6, SVG Export Plug-In . SVG Version: 6.00 Build 0)  -->
<svg version="1.1" id="Capa_1" xmlns="http://www.w3.org/2000/svg" xmlns:xlink="http://www.w3.org/1999/xlink" x="0px" y="0px"
	 viewBox="0 0 543.85 539.98" enable-background="new 0 0 543.85 539.98" xml:space="preserve">
<path fill="#674234" d="M496.72,155.17c-10.78-21.2-71.27-139.51-218.27-154.91c-28.01-2.93-69.47,20.08-94.55,20.52
	c-33.5,0.59-52.81,10.84-76.14,34.39C27.15,136.5-12.45,256.96,3.46,369.48c6.16,43.58,24.91,96.2,58.6,128.91
	c22.61,21.95,49.3,40.53,97.59,41.59c-29.24-36.84-55.59-111.42-45.46-159.24c5.49-25.88,19.26-48.1,33.34-68.83
	c22.42-33.01,31.88-62.43,50.92-98.04c97.21,107.34,187.43,88.52,197.91,95.81c-14.19-9.88-58.72-36.89-71.6-46.77
	c-16.88-12.95-25.96-26.61-47.14-48.57c25.61,26.55,32.68,23.78,67.45,41.15c32.63,16.31,52,45.3,69.91,78.7
	c37.16,69.28,4.64,144.53-32.17,205.79c48.3-1.06,115.79-30.79,141.22-105.07C551.71,354.08,556.89,273.56,496.72,155.17z"/>
</svg>
