<?xml version="1.0" encoding="utf-8"?>
<!-- Generator: Adobe Illustrator 23.0.6, SVG Export Plug-In . SVG Version: 6.00 Build 0)  -->
<svg version="1.1" id="Capa_1" xmlns="http://www.w3.org/2000/svg" xmlns:xlink="http://www.w3.org/1999/xlink" x="0px" y="0px"
	 viewBox="0 0 398.5 412.93" style="enable-background:new 0 0 398.5 412.93;" xml:space="preserve">
<style type="text/css">
	.st0{fill:#674234;}
	.st1{fill-rule:evenodd;clip-rule:evenodd;fill:#674234;}
</style>
<path class="st0" d="M383.86,195.56c-3.54-8.04-9.26-14.9-15.29-20.45l20.67,19.16c0,0-7.45-51.3-42.19-82.74
	c-49.36-44.66-110.87-57.98-175.88-56.22c-7.81,0.21-36.47,2.58-40.11-8.75C123.71,23.65,138.67,0,138.67,0s-24.71,7.6-36.11,56.06
	c-2.63,11.17-5.7,29.46-5.7,29.46s-10.45-15.2-2.85-37.06c8.49-24.41,24.94-43.27,24.94-43.27S48.75,46.82,40.8,77.91
	c-10.45,40.86,0,60.81,0,60.81s-13.7,3.45-24.7,19.95c-19,28.5-15.9,74.56-15.9,74.56l34.67-29.79c0,0-24.26,24.31-28.19,34.8
	c-14.34,38.25,2.58,80.17,2.58,80.17l24.1-11.9L17.4,334.28c0,0,2.49,26.79,24.11,56.21c4.48,6.1,20.29,22.44,20.29,22.44
	s-6.43-120.07,21.75-139.29c29.54-20.15,112.12,30.4,112.12,30.4s94.99-52.36,126.37-30.4c27.95,19.55,20.17,139.29,20.17,139.29
	s15.43-16.93,20.24-22.85c16.6-20.46,25.15-63.22,25.15-63.22l-17.74-28.43l22.89,7.9C392.77,306.33,410.39,255.85,383.86,195.56z"
	/>
</svg>
