<?xml version="1.0" encoding="utf-8"?>
<!-- Generator: Adobe Illustrator 23.0.6, SVG Export Plug-In . SVG Version: 6.00 Build 0)  -->
<svg version="1.1" id="Capa_1" xmlns="http://www.w3.org/2000/svg" xmlns:xlink="http://www.w3.org/1999/xlink" x="0px" y="0px"
	 viewBox="0 0 408.56 376.36" style="enable-background:new 0 0 408.56 376.36;" xml:space="preserve">
<style type="text/css">
	.st0{fill:#674234;}
	.st1{fill-rule:evenodd;clip-rule:evenodd;fill:#674234;}
</style>
<path class="st0" d="M382.81,133.98c-0.8-1.15,1.83-19.22-14.65-45.77c-5.81-9.36-14.61-20.52-26.55-31.12
	c-38.07-33.83-94.17-49.01-179.26-33.36c-38.53,7.09-54.42-6.26-54.45-23.73c-9.96,15.33-49.34,26.8-56.05,66.4
	c-0.61-37.77,19.61-47.21,34.72-54.83C22.62,20.1,14.91,80.2,23.1,110.18c0.45,0.83,0.44,0.89,0,0
	C9.88,85.85,14.25,69.76,21.63,56.5C4.66,69.2,2.11,88.33,0.29,110.26c-1.65,19.75,3.98,41.65,12.79,59.09
	c4.51,8.92,9.1,17.64,9.1,17.64c-17.41,22.96-0.9,110.87,0.71,119.71c2.82,1.86,9.08,10.49,14.84,21.62
	c12.95,25.02,11.72,31.16,18.19,48.03c0.44,1.14-4.27-88.45-4.17-97.22c0.35-31.2,4.7-44.79,8.57-50.69
	c10.5,6.3,20.97,8.77,30.86,11.11c26.72,6.31,60.2,3.35,114.76-21.97c7.62-3.29,14.82-6.29,21.62-9.05
	c52.88-19.82,101.66-19.74,117.59-21.91c0.88-0.12,1.76-0.29,2.63-0.49c0.56,6.55,1.83,26.98,11.45,50.53
	c3.01,7.36,10.31,26.65,9.03,52.36c-0.44,8.73,0.81,72.66-0.53,87.35c5.54-23.48,14.71-41.49,17.7-47.26
	c4.6-8.87,12.17-19.7,14.79-22.35c1.96-12.83,7.95-83.93,8.23-94.04C408.92,195.44,409.36,155.94,382.81,133.98z"/>
</svg>
