<?xml version="1.0" encoding="utf-8"?>
<!-- Generator: Adobe Illustrator 23.0.6, SVG Export Plug-In . SVG Version: 6.00 Build 0)  -->
<svg version="1.1" id="Capa_1" xmlns="http://www.w3.org/2000/svg" xmlns:xlink="http://www.w3.org/1999/xlink" x="0px" y="0px"
	 viewBox="0 0 424.51 527.17" enable-background="new 0 0 424.51 527.17" xml:space="preserve">
<path fill="#674234" d="M370.01,69.71C320.6,12.52,270.6,28.43,270.6,28.43S248.78-0.93,193.32,0.02
	C132.95,1.06,86.07,25.35,42.18,87.53C7.83,136.18-4.27,208.48,1.3,269.23C5.36,313.6,30.62,454.2,89.25,527.17
	c-9.67-58.47-26.61-119.48-30.8-178.59c0.69,0.33,1.38,0.68,2.07,1.03c-7.38-3.85-5.97-72.24-6.88-83.46
	c-0.02-1.93-0.01-3.85,0.01-5.76c76.23-12.49,93.39-25.05,129.45-51.28c12.06-8.77,29.55-26.14,60.75-49.73
	c32.4,56.7,95.1,114.7,116.15,133.34c4.13,3.66-1.78,59.35-1.95,68.53c-0.29,15.69-1.81,30.8-4.52,46.28
	c-6.61,37.73-16.36,75.96-31.03,111.41c0,0.01,72.84-64.1,98.05-226.53C433.04,211.92,415.93,122.84,370.01,69.71z"/>
</svg>
