<?xml version="1.0" encoding="utf-8"?>
<!-- Generator: Adobe Illustrator 23.0.6, SVG Export Plug-In . SVG Version: 6.00 Build 0)  -->
<svg version="1.1" id="Capa_1" xmlns="http://www.w3.org/2000/svg" xmlns:xlink="http://www.w3.org/1999/xlink" x="0px" y="0px"
	 viewBox="0 0 526.03 535.64" style="enable-background:new 0 0 526.03 535.64;" xml:space="preserve">
<style type="text/css">
	.st0{fill:#674234;}
	.st1{fill-rule:evenodd;clip-rule:evenodd;fill:#674234;}
</style>
<path class="st0" d="M511.74,284.96l2.36,72.45c0,0,13.67-65.76,11.74-87.83c-2.86-32.7-4.6-83.23-26.6-121.72
	c-11.1-19.42-45.37-52.24-45.37-52.24l33,31.62c0,0-31.62-68.74-101.74-96.24c-18.46-7.24-46.25,2.7-46.25,2.7
	S318.06,8.59,308.07,5.65c-42.46-12.49-125.04-4.9-174.6,29.25C92.41,63.19,46.92,105.23,29.52,146.88
	C18.47,173.35,0,257.76,0,257.76l39.7-80.22c0,0-32.4,66.67-35.12,90.88c-1.94,17.21,9.01,51.25,9.98,68.54
	c1.64,29.08-3.73,116.43-3.73,116.43l12.84-82.38l14.14,116.15l3.15-51.61c0,0,12.18,26.56,17.53,34.66
	c10.63,16.08,49.68,58.95,49.68,58.95l-21.64-39.09l54.23,45.56l-6.7-29.35l28.09,13.41c0,0-28.28-37.48-33.59-52.03
	c-3.48-9.54-5.12-40.3-5.12-40.3l13.36,30.89c0,0-14.1-60.48-15.2-81.08c-0.81-15.13,4.73-60.41,4.73-60.41l4.11,69.83l9.14-68.58
	l78.3-71.44L170.78,313L363.29,211.7l0.33,0.85l-51.63,36.47l58.46-18.93c0,0,20.38,45.64,24.07,61.8
	c4.76,20.82,8.16,63.88,6.64,85.19c-1.77,24.7-21.73,96.66-21.73,96.66l18.4-38.78c0,0-1.69,22.7-3.36,30.08
	c-0.28,1.25-1.12,3.67-1.67,4.83c-6.37,13.27-31.32,49.83-31.32,49.83l16.54-7.22L370,535.64l67.56-44.78l-26.93,34.11l43.33-45.6
	l-8.67,27.75l42.2-52.04l12.41,28.93l1.52-96.3l14.23,70.04c0,0-6.56-79.28-6.84-105.78C508.62,335.21,511.74,284.96,511.74,284.96z
	"/>
</svg>
