<?xml version="1.0" encoding="utf-8"?>
<!-- Generator: Adobe Illustrator 23.0.6, SVG Export Plug-In . SVG Version: 6.00 Build 0)  -->
<svg version="1.1" id="Capa_1" xmlns="http://www.w3.org/2000/svg" xmlns:xlink="http://www.w3.org/1999/xlink" x="0px" y="0px"
	 viewBox="0 0 394.44 440.02" enable-background="new 0 0 394.44 440.02" xml:space="preserve">
<path fill-rule="evenodd" clip-rule="evenodd" fill="#674234" d="M377.84,168.12C354.61,109.19,329.53,123,329.53,123
	s-9.56-43.72-105.4-49.84c-10.57-0.68-22.58,4.24-32.77-22.45c-3.79-9.92-10.97-43.48-10.97-43.48l-17.9,63.86L168.63,0
	c0,0-47.73,10.25-89.36,65.83C52.61,101.41,60.6,135.7,60.6,135.7L46.34,75.61c0,0-10.79,33.18-11.76,44.48
	c-2.35,27.58,2.97,40.94,2.97,40.94s-12.15,2.19-26.38,21.35C-0.19,197.68,0,232.64,0,232.64l18.05-26.23
	c2.25-3.65,3.87-5.63,3.87-5.63l-3.87,5.63c-5.82,9.47-15.82,30.26-12.46,57.29c6.95,55.93,43.78,179.87,45.17,176.23
	c3.7-9.68-2.99-125.54-1.61-129.03c6.52-16.5,39.36-46.44,40.44-47.11c16.27-10.1,197.61-10.1,213.88,0
	c1.09,0.67,33.93,30.61,40.45,47.11c1.37,3.48-5.31,119.35-1.61,129.03c1.39,3.64,44.01-115.93,51.46-182.63
	C396.09,236.48,392.83,206.14,377.84,168.12z"/>
</svg>
