<?xml version="1.0" encoding="utf-8"?>
<!-- Generator: Adobe Illustrator 23.0.6, SVG Export Plug-In . SVG Version: 6.00 Build 0)  -->
<svg version="1.1" id="Capa_1" xmlns="http://www.w3.org/2000/svg" xmlns:xlink="http://www.w3.org/1999/xlink" x="0px" y="0px"
	 viewBox="0 0 616.2 811.69" style="enable-background:new 0 0 616.2 811.69;" xml:space="preserve">
<style type="text/css">
	.st0{fill:#674234;}
	.st1{fill-rule:evenodd;clip-rule:evenodd;fill:#674234;}
</style>
<path class="st1" d="M597.22,568.91c10.62-34.45,29.85-39.13,11.11-65.99c-12.3-17.63-35.92-26.86-15.62-66.44
	c19.79-38.57,3.86-62.41-17.18-89.06c-14.42-18.26,21.33-43.44,2.59-84.44c-10.43-22.81-30.96-31.34-38.56-64.39
	c-14.41-62.64-34.39-100.27-72.35-133.63C413.12,17.45,355.92-2.32,297.77,0.22C247.17,2.43,196.52,27.1,149,68.86
	c-37.95,33.35-57.93,70.99-72.35,133.62c-7.6,33.05-28.13,41.58-38.56,64.39c-18.75,40.99,17.01,66.17,2.59,84.44
	c-21.05,26.65-36.97,50.49-17.18,89.06c20.31,39.58-3.32,48.81-15.62,66.44c-18.74,26.86,0.48,31.54,11.11,65.99
	c3.94,12.76,15.99,32.23-3.13,57.96c-60.92,81.99,96.84,86.23,34.36,180.94c145.89-48.61,6.11-125.32,80.62-178.28
	c30-21.33,58.64-45.11,67.77-71.09c13.57-38.6,8.61-63.77-14.8-106.24c-29.28-53.13-21.63-195.03-13.05-198.34
	c49.47-19.03,118.13-78.19,144.86-98.03c26.12,18.64,89.17,76.35,135.42,94.14c8.58,3.3,16.23,145.2-13.05,198.33
	c-16.08,29.18-25.45,65.26-17.37,98.09c9.45,38.41,39.5,57.32,70.35,79.25c74.5,52.96-70.86,129.67,75.02,178.28
	c-62.48-94.71,95.28-98.95,34.36-180.94C581.23,601.14,593.28,581.67,597.22,568.91z"/>
</svg>
