<?xml version="1.0" encoding="utf-8"?>
<!-- Generator: Adobe Illustrator 23.0.6, SVG Export Plug-In . SVG Version: 6.00 Build 0)  -->
<svg version="1.1" id="Capa_1" xmlns="http://www.w3.org/2000/svg" xmlns:xlink="http://www.w3.org/1999/xlink" x="0px" y="0px"
	 viewBox="0 0 566.28 526.46" enable-background="new 0 0 566.28 526.46" xml:space="preserve">
<path fill="#674234" d="M559.14,292.42c-8.14-30.88-48.82-102.19-66.75-132.19l73.07,120.79c0,0-18.77-97.3-66.72-155.04
	c-15.95-19.21-33.23-36.02-49.5-50.09l41.11,29.89c0,0-12.09-50.36-106.18-88.85C355.22,5.09,274.38-10.44,233.07,9.8
	c-14.68,7.19-41.34,24.23-41.34,24.23s-35.64-2.85-57.95,5.66c-22.81,8.7-48.91,29.15-73.72,64.04C9.26,175.17,0,278.71,0,278.71
	c1.28-0.45,34.18-51.2,35.45-51.72c0.35-0.15,0.7-0.3,1.05-0.45c0,0-19.41,49.17-24.98,65.88c-16.51,49.54,0,104.99,0,104.99
	l16.63-48.1l0.28,0.94L14.39,434.4l19.99-32.03c0,0,0.27,24.22,3.08,31.66c7.41,19.63,49.11,68.04,49.11,68.04l0.06-15.02
	l60.92,38.73c0,0-4.97-10.47-11.27-24.64l47.88,25.32c0,0-0.28-0.77-0.79-2.14c-16.88-16.12-25.79-31.37-36.48-54.66
	c-0.01-0.03-0.03-0.07-0.05-0.1c-5.39-11.43-10.25-37.3-13.96-66.52c-8.7-42.26,4.52-91.13,4.52-91.13
	c0.15-0.06,0.28-0.12,0.39-0.19l7.24,37.24l80.04-107.61l-30.56,93.22l85.32-133.27l64.78,98.64l-9.17-86.12
	c0,0,97.75,62.23,97.54,96.54c-0.03,4.73,9.69,37.26,8.44,71.04h0.12c-0.06,0.53-0.13,1.07-0.19,1.6
	c-0.38,8.07-1.41,16.18-3.35,23.98c-4.35,27.59-9.93,51.67-15.08,62.58c-0.02,0.03-0.04,0.07-0.05,0.1
	c-10.45,22.77-19.3,37.86-35.55,53.59c-0.6,1.53-0.93,2.37-0.93,2.37l51.64-32.7c-7.92,18.15-14.91,32.88-14.91,32.88l60.92-38.73
	l0.06,15.02c0,0,41.7-48.41,49.11-68.04c2.81-7.44,3.08-31.66,3.08-31.66l19.99,32.03l-14.59-87.51l17.46,50.52
	C559.14,397.4,575.2,353.36,559.14,292.42z"/>
</svg>
