<?xml version="1.0" encoding="utf-8"?>
<!-- Generator: Adobe Illustrator 23.0.6, SVG Export Plug-In . SVG Version: 6.00 Build 0)  -->
<svg version="1.1" id="Capa_1" xmlns="http://www.w3.org/2000/svg" xmlns:xlink="http://www.w3.org/1999/xlink" x="0px" y="0px"
	 viewBox="0 0 636.97 535.02" style="enable-background:new 0 0 636.97 535.02;" xml:space="preserve">
<style type="text/css">
	.st0{fill:#674234;}
	.st1{fill-rule:evenodd;clip-rule:evenodd;fill:#674234;}
</style>
<path class="st0" d="M514.67,88.51c-8.11-9.22-16.57-17.65-25.34-25.34C448.92,23.71,390.7,0,325.99,0h-14.68
	c-64.72,0-122.95,23.72-163.36,63.19c-9.36,8.09-17.97,16.59-25.64,25.32c0,0-168.62,168.78-109.88,324.97
	c0,0-9.66-36.36,19.58-93.19c25.76-50.07-36.03,59.07,12.43,132.69c0,0-2.48-37.19,13.85-58.13c0,0-13.91,69.07,32.88,95.94
	c0,0-6.37-7.49-0.49-36.06c4.04,26.61,16.46,51.45,44.91,64.56c-3.52-10.82-2.24-11.59-2.43-18.61
	c8.3,33.59,58.37,34.35,58.37,34.35s-20.18-40.16-30.43-105.21c-1.37-8.72-5.81-38.46-0.01-115.51c13.72-2.19,32.47-5.08,48.31-7.94
	c2.93-0.53,7.73-30.73,7.73-30.73s0.88,28.35,6.5,27.45c12.57-2,25.82-3.86,39.61-5.31c2.99-0.31,12.46-71.15,12.46-71.15
	s6.32,69.46,11.28,69.15c10.08-0.63,20.38-1,30.86-1c35.79,0,69.55,3.42,99.26,8.31c3.9,0.64,10.74-44.97,10.74-44.97
	s7.24,47.17,13.07,48.25c14.14,2.61,30.2,6.09,41.98,7.94c-1.08,75.47-5.6,107.46-6.98,116.27
	c-10.25,65.05-30.43,104.46-30.43,104.46s50.08-0.76,58.38-34.35c-0.19,7.02,1.09,7.79-2.43,18.61
	c28.45-13.12,40.87-37.95,44.91-64.56c5.88,28.57-0.49,36.05-0.49,36.05c46.79-26.86,32.88-95.93,32.88-95.93
	c16.33,20.94,13.85,58.13,13.85,58.13c48.46-73.62-13.34-182.76,12.43-132.69c29.24,56.83,19.58,93.19,19.58,93.19
	C683.28,257.3,514.71,88.56,514.67,88.51z"/>
</svg>
