<?xml version="1.0" encoding="utf-8"?>
<!-- Generator: Adobe Illustrator 23.0.6, SVG Export Plug-In . SVG Version: 6.00 Build 0)  -->
<svg version="1.1" id="Capa_1" xmlns="http://www.w3.org/2000/svg" xmlns:xlink="http://www.w3.org/1999/xlink" x="0px" y="0px"
	 viewBox="0 0 413.17 380.74" style="enable-background:new 0 0 413.17 380.74;" xml:space="preserve">
<style type="text/css">
	.st0{fill:#674234;}
	.st1{fill-rule:evenodd;clip-rule:evenodd;fill:#674234;}
</style>
<path class="st1" d="M205.99,0C105.53,0,21.32,49.85,0.63,148.71c0,32.44-2.98,88.69,4.01,142.28c9.05,69.32,25.22,89.5,29.2,89.74
	c0.42,0.03-0.92-22.68,1.31-42.27c1.58-13.95,4.43-29.76,6.01-33.38c4.22-9.66,3.11-19.56,1.97-29.74
	c-1.86-16.66-5.37-63.19-3.8-66.66c7.43-16.46,44.86-46.32,46.09-46.99c18.54-10.07,225.21-10.07,243.75,0
	c1.24,0.67,38.67,30.53,46.09,46.99c1.56,3.47-1.95,50-3.81,66.66c-1.14,10.18-2.25,20.08,1.97,29.74
	c1.58,3.63,5.07,19.43,6.66,33.38c2.23,19.59-1.28,38.64,2.13,41.84c0.16,0.15,17.85-24.18,26.58-95.92
	c5.74-47.21,4.2-95.74,4.2-127.11C395.5,54.17,309.33,0,205.99,0z"/>
</svg>
