<?xml version="1.0" encoding="utf-8"?>
<!-- Generator: Adobe Illustrator 23.0.6, SVG Export Plug-In . SVG Version: 6.00 Build 0)  -->
<svg version="1.1" id="Capa_1" xmlns="http://www.w3.org/2000/svg" xmlns:xlink="http://www.w3.org/1999/xlink" x="0px" y="0px"
	 viewBox="0 0 409.68 392.03" enable-background="new 0 0 409.68 392.03" xml:space="preserve">
<path fill="#674234" d="M408.98,269.3c0,0,4.55-103.02-9.63-133.26c-6.47-13.8-43.94-42.28-43.94-42.28l48.14,18.28
	c0,0-46.93-69.11-72-77.54c-12.66-4.26-52.62,9.23-52.62,9.23S240.52,5.28,223.54,1.27C188.07-7.11,80.39,28.84,80.39,28.84
	l42.09,6.7L10.64,84.69l26.97,7.04c0,0-28.85,31.17-33.23,44.31c-9.85,29.56,0,124.62,0,124.62l18.9-25.81c0,0-11.5,43.91-8.71,58.4
	c5.4,28.07,57.62,98.77,57.62,98.77l-4.05-140.72c0,0,28.63-3.04,37.56-0.13c7.64,2.49,25.9,19.03,25.9,19.03l1.44,44.01
	l16.56-28.75l-4.37,39.79l60.94-40.27l-27.3,27.74c0,0,90.75-59.25,125.3-68.03c8.65-2.2,35.7,0,35.7,0l0.05,147.33
	c0,0,52.54-70.87,57.86-99.05c2.06-10.94-6.91-44-6.91-44L408.98,269.3z"/>
</svg>
