<?xml version="1.0" encoding="utf-8"?>
<!-- Generator: Adobe Illustrator 23.0.6, SVG Export Plug-In . SVG Version: 6.00 Build 0)  -->
<svg version="1.1" id="Capa_1" xmlns="http://www.w3.org/2000/svg" xmlns:xlink="http://www.w3.org/1999/xlink" x="0px" y="0px"
	 viewBox="0 0 603.64 818.82" style="enable-background:new 0 0 603.64 818.82;" xml:space="preserve">
<style type="text/css">
	.st0{fill:#674234;}
	.st1{fill-rule:evenodd;clip-rule:evenodd;fill:#674234;}
</style>
<path class="st1" d="M565.01,595.9c33.43-28.67,63.6-129.95,7.02-212.14c16.99-32.95,26.49-90.97-14.73-151.38
	c-12.77-18.71-29.08-27.7-36.22-56.9c-13.54-55.35-32.31-88.61-67.95-118.08c-50.8-42-104.52-59.46-159.14-57.22
	c-47.53,1.95-95.09,23.75-139.73,60.66c-35.65,29.47-54.42,62.73-67.95,118.08c-7.14,29.2-21.56,39.38-36.22,56.9
	C3.78,291.18,19.02,353.35,34.31,385.08c-62.39,98.68-27,166.49,6.59,212.91c-0.45,0.83-0.91,1.67-1.4,2.51
	c-29.03,49.43-17.43,78.84,20.71,121.23c36.81,40.92,56.02,57.61,12.33,97.1c94.92-28.11,102.25-55.56,109.62-74.56
	c12.22-31.48-37.74-61.75,3.87-103.48c40.46-40.58,55.77-90.02,29.28-128.37c-14.18-20.52-27.58-30.26-38.22-53.2
	c-0.01-0.03-0.03-0.06-0.04-0.09c-5.76-12.1-14.19-43-19.96-74.56c-6.9-37.72-2.19-67.39,9.63-110.56
	c11.37-41.53,48.82-62.3,75.76-87.84c0.37,0.29,84.97,95.57,187.52,85.58c-1.12,2.61,12.28,44.66,7.11,110.18c0,0,0.74,0,0.74,0
	c-2.99,24.64-5.2,54.65-16.48,77.2c-0.01,0.03-0.03,0.06-0.04,0.09c-7.46,16.1-15.7,26.52-23.81,38.97
	c-28.3,43.39-16.63,88.02,22.66,144.19c36.12,51.64-6.15,69.75,5.71,100.31c7.37,19,14.71,46.44,109.62,74.55
	c-43.69-39.48-26.33-56.18,10.49-97.09c38.14-42.39,49.74-71.8,20.71-121.23C566.09,597.9,565.54,596.9,565.01,595.9z"/>
</svg>
