<?xml version="1.0" encoding="utf-8"?>
<!-- Generator: Adobe Illustrator 23.0.6, SVG Export Plug-In . SVG Version: 6.00 Build 0)  -->
<svg version="1.1" id="Capa_1" xmlns="http://www.w3.org/2000/svg" xmlns:xlink="http://www.w3.org/1999/xlink" x="0px" y="0px"
	 viewBox="0 0 563.72 540.93" style="enable-background:new 0 0 563.72 540.93;" xml:space="preserve">
<style type="text/css">
	.st0{fill:#674234;}
	.st1{fill-rule:evenodd;clip-rule:evenodd;fill:#674234;}
</style>
<path class="st1" d="M559.1,355.22c14.83-59.31-8.93-132.03-30.07-180.74c-20.83-48-53.8-97.67-96.45-130.89
	C394.88,14.24,362.39-7.94,316.33,2.71c-11.86,2.74-24.88,9.61-38.3,9.76c-15.5,0.17-30.83-4.73-46.27-6.17
	c-44.58-4.14-74.44,21.12-105.05,44.11C78.13,86.94,45.38,130.03,23.89,184.36C2.12,239.38-8.13,288.84,7.61,343.48
	c8.91,30.95,36.75,52.07,31.07,66.34c-9.59,24.09-29.54,31.06-29.54,31.06c22.09-1.08,33.21-8.95,38.56-18.13
	c-6.85,29.89-29.37,34.43-29.37,34.43s55.2,9.1,57.85,4.39c0.73-0.53,1.46-1.06,2.2-1.63c0.41,0.87-30.75,21.76-30.23,22.16
	c14.75,11.67,32.77,17.25,48.96,16.26c1.93,6.46,1.99,13.07,0.88,19.9c-0.91,5.62-3.89,10.94-5.84,16.42
	c-0.28,0.81-0.04,1.79-0.04,4.14c9.71-6.04,18.5-11.51,27.05-16.82c0.22,3.41,44.88,18.95,44.88,18.95s-18.52-24.66-28.04-45.68
	c-18.7-41.26-35.71-173.85-18.98-204.52c14.04-25.73,34.5-57.62,38.1-86.36c0,0,20.16,40.64,134.71,84.47c0,0-8.66-9.25-22.12-18.8
	c-9.99-9.85-59.84-39.88-81.69-104.99c64.71,95.78,227.23,151.65,247.64,166.69c-0.22-0.19-0.44-0.4-0.66-0.61
	c0.93,0.72,1.72,1.32,2.36,1.81c-10.04-8.84-66.46-104.89-81.36-125.69c12.64,16.52,75.42,98.79,94.31,111.22
	c0.01,0,0.02,0.01,0.02,0.02c18.31,28.19,10.55,76.75,6.22,99.67c-3.59,18.98-7.64,38.88-14.81,56.98
	c-12.1,30.58-30.6,65.06-30.6,65.06s38.08-11.08,38.56-18.21c8.54,5.31,17.33,10.78,27.04,16.82c0-2.35,0.25-3.33-0.04-4.14
	c-1.95-5.48-4.92-10.8-5.84-16.42c-0.54-3.32-0.8-6.6-0.71-9.82c16.17,3.22,33.35-0.17,51.42-14.81c0.83-0.67-14.62-6.62-25.4-12.71
	c-3.89-2.2-7.33-7.78-9.46-12.7c0.75-1.68,1.5-3.37,2.27-5.07c23.62,21.65,58.17,3.81,58.17,3.81s-15.58-4.94-23.8-31.46
	c6.48,3.52,15.41,5.88,27.67,6.2c0,0-16.06-0.82-24.21-29.02C524.87,412.92,552.74,380.62,559.1,355.22z"/>
</svg>
