<?xml version="1.0" encoding="utf-8"?>
<!-- Generator: Adobe Illustrator 23.0.6, SVG Export Plug-In . SVG Version: 6.00 Build 0)  -->
<svg version="1.1" id="Capa_1" xmlns="http://www.w3.org/2000/svg" xmlns:xlink="http://www.w3.org/1999/xlink" x="0px" y="0px"
	 viewBox="0 0 792.97 1424.28" enable-background="new 0 0 792.97 1424.28" xml:space="preserve">
<path fill-rule="evenodd" clip-rule="evenodd" fill="#674234" d="M761.16,353.9C699.19,158.4,549.7-27.59,408.5,3.4
	c-43.33,9.51-58.07,39.38-58.07,39.38s-34.87-29.55-102.43,21.06C192.13,105.7,140.69,201.31,88.91,359.91
	C61.77,443.05-8.03,673.35,77.55,862.88c69.71,154.41-53.98,201.94-72.93,319.22c-28.29,175.01,82.59,239.78,86.08,242.18
	c-35.87-148.75,45-240.66,83.12-276.79c46.95-44.49,98.11-107.98,120.17-172.09c36.53-106.12,33.72-202.47-11.55-282.69
	c-32.43-57.47-47.85-83.13-54.78-175.6c-10.21-136.25,5.62-182.56,70.2-256.56c25.17-28.84,65.46-65.4,89.22-95.59
	c1.26-1.61,109.42,72.09,151.89,117.63c76.06,81.54,108.56,140.17,87.34,263.56c-8.6,49.97-33.69,104.14-57.32,142.64
	c-49.5,80.68-60.26,163.73,31.56,243.51c42.83,37.21,144.87,26.74,144.87,26.74s-64.77-34.73-64.16-86.49
	c0.77-66.28,37.41-89.3,70.81-158.47C824.53,563.98,783.07,423.02,761.16,353.9z"/>
</svg>
