<?xml version="1.0" encoding="utf-8"?>
<!-- Generator: Adobe Illustrator 23.0.6, SVG Export Plug-In . SVG Version: 6.00 Build 0)  -->
<svg version="1.1" id="Capa_1" xmlns="http://www.w3.org/2000/svg" xmlns:xlink="http://www.w3.org/1999/xlink" x="0px" y="0px"
	 viewBox="0 0 401.12 426.97" style="enable-background:new 0 0 401.12 426.97;" xml:space="preserve">
<style type="text/css">
	.st0{fill:#674234;}
	.st1{fill-rule:evenodd;clip-rule:evenodd;fill:#674234;}
</style>
<path class="st0" d="M401.11,237.05c0.76-60.12-39.42-122.93-39.42-122.93l-0.9,41.9c-0.91-0.04-24.93-71.93-46.11-85.2
	c-38.32-23.99-66.81-50.73-66.81-50.73l29.18,52.04L214.05,0c0.47,18.98,1.81,69.9,1.39,56.59c-2.88-16.19-8.39-38.5-13.02-56.18
	c-12.8,44.63-17.82,64.9-17.82,61.14c0-4.18,0-19.02-0.42-42.85l-32.07,50.85l26.37-59.38c-24.95,31.39-66.27,34.12-84.03,70.53
	c-13.58,27.83-20.75,22.05-36,48.11l20.13-45.86c0,0-49.22,48.1-62.97,89.9C10.91,187.13-4.2,217.2,1.12,286.89
	c4.66,61.06,8.8,69.01,24.06,112.65c5.3,17.66,9.77,26.44,9.88,25.8c0.65,1.32,1.06,1.86,1.19,1.53
	c4.21-11.23-3.4-134.04-1.84-138.08c7.42-19.14,44.81-53.87,46.05-54.65c9.22-5.83,64.99-8.76,120.97-8.78
	c55.99,0.03,111.76,2.96,120.98,8.79c1.24,0.78,38.63,35.51,46.05,54.65c1.56,4.04-1.31,137.87-0.65,136.55
	c0.12,0.64,0.24,1.16,0.38,1.53c0.45,1.2,4.2-9.67,9.5-27.33C401.06,332.7,399.98,326.82,401.11,237.05z"/>
</svg>
