<?xml version="1.0" encoding="utf-8"?>
<!-- Generator: Adobe Illustrator 23.0.6, SVG Export Plug-In . SVG Version: 6.00 Build 0)  -->
<svg version="1.1" id="Capa_1" xmlns="http://www.w3.org/2000/svg" xmlns:xlink="http://www.w3.org/1999/xlink" x="0px" y="0px"
	 viewBox="0 0 556.59 536.52" style="enable-background:new 0 0 556.59 536.52;" xml:space="preserve">
<style type="text/css">
	.st0{fill:#674234;}
	.st1{fill-rule:evenodd;clip-rule:evenodd;fill:#674234;}
</style>
<path class="st0" d="M549.08,267.76c-5.9-29.08-41.16-178.88-119.02-225.84C364.67,2.48,325.51,20.21,325.51,20.21
	S283.98-3.11,248.05,0.35C118.33,12.83,73.05,92.43,41.37,147.36c-25.35,43.96-33.43,82.26-37.69,112.6
	C0,286.23,0.07,313.56,0,331.69c-0.22,59.18,16.64,119.83,16.64,119.83l2.68-83.44c0,0,0.2,41.56,3.33,55.38
	c8.19,36.17,22.45,62.85,22.45,62.85l-7.02-50.28c0,0,10.01,25.62,17.78,39.23c16.78,29.37,56.17,51.23,56.17,51.23l-24.49-33.07
	c0,0,16.87,17.87,34.56,25.88c11.11,5.04,46.58,14.16,46.58,14.16l-29.55-22.98c0,0,37.47,20.65,37.47,20.65
	c-18.79-18.59-34.46-39.45-46.03-60.93c-7.05-13.1-9.42-29.49-14.82-43.07l17.48,35.65c-17.22-48.49-18.12-116.86-18.12-116.86
	s5.48-25.32,12.55-39.86c18.13-37.28,56.61-82.98,56.61-82.98l-59.68,98.84c0,0,86.26-58.2,121.38-80.36
	c32.22-20.33,63.01-49.32,63.01-49.32l-72.52,85.6l148.49-69.3c24.73,23.73,54.01,79.49,53.18,125.82
	c-0.71,39.52,0.95,63.61-12.84,102.38c-4.57,12.85-16.93,41.53-16.93,41.52c9.46-12.58,25.64-39.05,25.64-39.05
	c-8.06,26-14.28,38.68-26.62,56.06c-10.98,15.46-17.93,28.78-23.75,35.87c4.71-2.72,32.12-22.55,32.12-22.55l-24.83,27.94
	c0,0,32.46-9.92,42.31-15.28c14.2-7.74,12.85-7.93,35.31-26.99c0,0-5.32,7.04-11.55,14.2c-6.21,7.13-17.95,17.02-17.95,17.02
	s19.01-8.03,28.72-14.89c9.59-6.77,21.54-22.63,21.54-22.63l-12.38,23.41c0,0,19.44-17.84,26.04-25.55
	c11.26-13.14,19.76-29.22,19.76-29.22l1.58,29.73c0,0,9.95-38.99,11.74-52.25c1.6-11.9,1.8-48.39,1.8-48.39
	c5.15,24.57,5.73,46.08,5.98,73.96C543.82,459.63,568.63,364.18,549.08,267.76z"/>
</svg>
