<?xml version="1.0" encoding="utf-8"?>
<!-- Generator: Adobe Illustrator 23.0.6, SVG Export Plug-In . SVG Version: 6.00 Build 0)  -->
<svg version="1.1" id="Capa_1" xmlns="http://www.w3.org/2000/svg" xmlns:xlink="http://www.w3.org/1999/xlink" x="0px" y="0px"
	 viewBox="0 0 539.68 814.46" enable-background="new 0 0 539.68 814.46" xml:space="preserve">
<path fill-rule="evenodd" clip-rule="evenodd" fill="#674234" d="M512.12,460.17c45.53-54.15,27.34-100.32-2.05-159.09
	c-43.94-87.88-54.22-126.43-71.35-191.99C425.03,56.7,382.3,49.04,382.3,49.04s-11.27-32.09-58.88-44.5
	c-43.14-11.23-112.28-1.58-160.5,28.39c-33.2,20.64-71.76,77.01-85.62,126.6c-10.72,38.35-8.42,43.01-33.38,79.06
	C-67.41,399.41,73.22,450.12,30.61,529.45c-28.2,52.51-16.93,103.14,20.12,148.18c35.76,43.47,53.53,94.88,11.08,136.84
	c92.2-29.87,99.33-59.03,106.49-79.22c14.29-40.26-25.97-79.22,11.69-145.44c29.56-51.98,52.17-82.98,16.08-148.11
	c-5.04-9.1-11.15-17.13-16.52-28.72c-0.01-0.03-0.02-0.05-0.04-0.08c-4.04-8.48-10.08-27.8-13.87-49.32
	c-3.88-22.05-3.45-45.31,2.2-67.18c13.05-50.54,61.36-68.73,92.47-108.51c-20.49,28.44-41.39,58.05-72.88,84.17
	c109.46-24.58,170.97-104.26,170.97-104.26s34.97,40.31,40.65,86.39c4.13,33.47,6.31,62.73,1.23,93.2h0.54
	c-3.38,27.87-8.96,54.97-13.99,65.52c-0.01,0.03-0.02,0.05-0.04,0.08c-7.56,16.3-17,24.92-25.38,38.54
	c-28.3,46.02-12.44,109.81,27.34,154.25c32.44,36.25,59.81,42.94,141.32,53.53C443.02,573.7,465.6,515.51,512.12,460.17z"/>
</svg>
