<?xml version="1.0" encoding="utf-8"?>
<!-- Generator: Adobe Illustrator 23.0.6, SVG Export Plug-In . SVG Version: 6.00 Build 0)  -->
<svg version="1.1" id="Capa_1" xmlns="http://www.w3.org/2000/svg" xmlns:xlink="http://www.w3.org/1999/xlink" x="0px" y="0px"
	 viewBox="0 0 392.9 380.22" enable-background="new 0 0 392.9 380.22" xml:space="preserve">
<path fill="#674234" d="M388.78,149.53c-3.8-12.06-24.88-44.04-24.88-44.04l22.99,21.81c0,0-34.71-53.27-50.9-70.29
	c-7.08-7.44-14.52-12.6-21.76-16.14l10.87,1.42c0,0-40.26-28.71-92.71-40.37c-28.35-6.31-85.89,3.72-110.85,18.59
	C113.4,25.36,97.9,40.77,97.9,40.77s-31.86,7.46-42.44,13.58c-27.74,16.04-39.79,53-39.79,53l23.14-16.13
	c0,0-25.71,32.6-30.77,45.33c-11.45,28.8-7.32,110.02-7.32,110.02l17.8-15.57l48.19,135.58l6.04-126.03l36.83-29.35l-16.35,57.08
	l84.81-27.14l-28.24,23.13l146.13-43.06l31.29,33.01l-6.55,126l54.05-124.47l12.86,11.6C387.59,267.35,398.7,181.05,388.78,149.53z"
	/>
</svg>
