<?xml version="1.0" encoding="utf-8"?>
<!-- Generator: Adobe Illustrator 23.0.6, SVG Export Plug-In . SVG Version: 6.00 Build 0)  -->
<svg version="1.1" id="Capa_1" xmlns="http://www.w3.org/2000/svg" xmlns:xlink="http://www.w3.org/1999/xlink" x="0px" y="0px"
	 viewBox="0 0 542.48 1417.8" enable-background="new 0 0 542.48 1417.8" xml:space="preserve">
<path fill-rule="evenodd" clip-rule="evenodd" fill="#674234" d="M542.31,1024.72c-2.62-105.71-32.9-218.87-35.95-324.61
	c-3.18-110.26,10.93-205.69,8.31-316.18c-1.93-81.12-11.15-147.46-44.93-229.65c-17.88-43.5-51.3-81.69-89.57-111.36
	C340.93,12.5,291.23-0.76,243.35,0.03C146.56,1.64,91.18,55.28,50.79,131.35C4.07,219.35,2.1,302.92,0.12,402.93
	c-1.9,95.73,17.75,175.61,97.93,228.6C32.21,486.91,59.92,327.89,69.37,327.89h68.71c3.68-3.69,6.5-54.65,10.68-64.32
	c-0.35,7.35,1.88,58.73,4.26,64.32h79.82c2.93-6.52,8.95-55.08,8.81-64.32c0.62,12.04-2.15,59.97,0.89,64.32h69.49
	c2.55-5.19,4.84-55.14,9-67.89c0.96,11.15,1.84,61.28,5.08,67.89c0,0,100.27,0,102.96,0c-0.01,0-0.02,0-0.03,0
	c2.78-0.79-0.96,140.94-2.45,150.61c-11.67,75.24-37.16,147.18-65.71,216.87c-60.58,147.86-237.48,316.84-60.12,522.32
	c-16.89-39.31-27.02-57.18-23.65-119.71c16.69,78.66,27.98,158.33,112.4,187.11c-27.94-44.17-9.36-79.9,0.77-137.08
	c-11.83,155.45,67.56,164.38,52.36,269.8C515.29,1351.69,544.98,1132.27,542.31,1024.72z"/>
</svg>
