<?xml version="1.0" encoding="utf-8"?>
<!-- Generator: Adobe Illustrator 23.0.6, SVG Export Plug-In . SVG Version: 6.00 Build 0)  -->
<svg version="1.1" id="Capa_1" xmlns="http://www.w3.org/2000/svg" xmlns:xlink="http://www.w3.org/1999/xlink" x="0px" y="0px"
	 viewBox="0 0 399.01 350.67" enable-background="new 0 0 399.01 350.67" xml:space="preserve">
<path fill="#674234" d="M397.93,171.88c-1.22-9.08,2.63-15.79-5.26-39.47c-7.49-22.49-28.73-53.86-29.45-52.88
	c1.04-1.42,4.37,0.81,7.53,0c-9.54-10.13-24.62-47.93-58.45-44.75c-1.11,0.1-2.12,0.33-3.13,0.61c-1.48,0.4-2.99,0.91-4.84,1.29
	c-2.44,0.5-15.58-26.14-54.41-35.23c-0.01,0-0.01,0-0.02,0c-34.47-4.43-31.8,3.03-60.06,0c-14.57-1.56-41.65-1.58-74.19,10.6
	c-43.28,16.21-61.9,42.41-77.6,57.64C24.84,82.5,24.49,107.57,14.2,124.67c-6.06,10.07-7.76,21.02-9.36,33.09
	c-3.66,10.61-5.39,21.48-4.68,32.24c0.05,0.8,0.21,1.96,0.48,3.37c8.21,43.11-3.85,37.8,0.3,46.5c2.23-0.92,3.08-2.74,5.47-3.56
	c1.41,6.46-6.03,20.9,0,27.91c1.65-0.32,0.7-2.31,2.74-2.38c8.17,8.44,5.63,8.28,9.15,17.51c1.44,3.76,3.51,8.73,4.98,12.48
	c13.36,34.09,11.5,55.79,17.66,58.8c2.12,1.04-0.65-52.98-0.25-58.77c0.8-11.54,2.26-23.06,4.04-34.53
	c2.95-19.04,15.7-38.1,33.29-51.7c19.13-14.8,34.26-24.46,51.09-41.57c-11.84,12.03-56.59,67.48-64.55,72.58
	c0.5-0.28,1.13-0.63,1.87-1.04c-0.18,0.12-0.36,0.24-0.53,0.35c22.54-12.09,54.78-18.89,79.89-28.62
	c20.49-7.94,40.46-16.55,58.93-26.36c10.1-5.36,45.96-21.26,50.28-28.59c-10.93,18.58-33.43,35.55-57.41,47.94
	c-10.68,5.52-17.55,10.85-17.55,10.85c75.41-21,99.27-40.73,105.21-46.85c0.9,0.79-10.94,17.69-9.77,17.2
	c17.76-7.51,35.38-34.8,56.92,2.41c2.06,6.11,7.17,16.79,5.63,26.91c-0.91,5.95-1.8,11.75,1.57,17.4c1.26,2.12,2.44,4.38,3.01,6.7
	c1.99,8.06,4.14,14.23,5.41,22.39c1.78,11.46,3.24,22.99,4.04,34.52c0.38,5.54-4.66,59.83-2.64,58.13
	c5.27-4.45,6.96-20.71,8.44-26.31c4.65-17.67,8.72-34.38,18.34-50.71c1.33-2.27-0.23-0.77,4.33-5.25c1.54-1.51,3.88,0.31,4.82,1.08
	c3.4-7.9,1.24-20.3,0.63-27.13c-0.04-0.41-0.05-0.81-0.05-1.2c2.51-0.38,3.6,2.55,5.93,3.27c-0.44-5.12,0.04-10.56,0.68-16.06
	c0.81-0.09,1.28-0.14,1.28-0.14c0.03-0.35,4.08-15.68,4.12-16.21C398.79,197.34,399.85,186.2,397.93,171.88z"/>
</svg>
