<?xml version="1.0" encoding="utf-8"?>
<!-- Generator: Adobe Illustrator 23.0.6, SVG Export Plug-In . SVG Version: 6.00 Build 0)  -->
<svg version="1.1" id="Capa_1" xmlns="http://www.w3.org/2000/svg" xmlns:xlink="http://www.w3.org/1999/xlink" x="0px" y="0px"
	 viewBox="0 0 675.92 1420.09" style="enable-background:new 0 0 675.92 1420.09;" xml:space="preserve">
<style type="text/css">
	.st0{fill:#674234;}
	.st1{fill-rule:evenodd;clip-rule:evenodd;fill:#674234;}
</style>
<path class="st1" d="M656.62,337.49C620.32,232.63,545.7,134.97,495.79,78.84c-1.3-1.48-2.61-2.93-3.94-4.36
	C442.63,20.8,372.99-9.82,318.04,2.85c-25.96,5.98-39.05,18.47-43.95,25.86c-1.7,0.67-3.4,1.38-5.08,2.1
	c-8.2-4.87-34.83-15.17-78.95,19.53C145.5,85.37,92.33,160.64,53.79,294.25C20.54,409.5-8.48,528.68,47.36,741.56
	c27.16,103.53,23.34,133.69-12.73,231.31c-56.99,154.21-42.41,248.21,34.67,334.19c-17.73-77.57-2.22-68.7,4.43-161.78
	c8.87,62.05-33.24,97.51,82,274.81c-35.46-257.08,15.51-210.54,19.95-314.7c8.87,93.08-35.46,108.6,4.43,250.43
	c70.97-251.38,143.9-315.02,142.74-407.47c-1.74-138.88-59.77-190.96-113.93-332.75c-17.57-45.99-37.68-84.21-42.11-179.51
	c-2.56-54.99,12.69-104.64,15.22-103.88c-0.01,0-0.02,0-0.03,0c2.45,0,93.57,0,93.57,0c2.95-6.4,3.75-54.87,4.62-65.66
	c3.78,12.34,5.86,60.64,8.18,65.66h63.16c2.76-4.21,0.25-50.57,0.81-62.21c-0.13,8.94,5.35,55.9,8.01,62.21h72.55
	c2.17-5.41,4.19-55.1,3.87-62.21c3.8,9.35,6.36,58.65,9.71,62.21h40.05c11.46,33.33,20.51,78.39,12.18,129.24
	c-6.85,41.84-22.73,80.68-47.48,124.37c-38.44,67.83-46.27,153.57,42.96,196.72c43.36,20.97,99.49-2.26,99.49-2.26
	s-58.62-9.56-58.15-52.89c0.62-55.49,28.37-72.76,68.64-123.7C672.75,516.97,696.34,452.22,656.62,337.49z"/>
</svg>
