<?xml version="1.0" encoding="utf-8"?>
<!-- Generator: Adobe Illustrator 23.0.6, SVG Export Plug-In . SVG Version: 6.00 Build 0)  -->
<svg version="1.1" id="Capa_1" xmlns="http://www.w3.org/2000/svg" xmlns:xlink="http://www.w3.org/1999/xlink" x="0px" y="0px"
	 viewBox="0 0 152.79 186.83" style="enable-background:new 0 0 152.79 186.83;" xml:space="preserve">
<style type="text/css">
	.st0{fill:#F0AC80;}
	.st1{fill-rule:evenodd;clip-rule:evenodd;fill:#D68B62;}
	.st2{fill-rule:evenodd;clip-rule:evenodd;fill:#E8A073;}
	.st3{fill:#BFE9FF;}
	.st4{fill:#A8E1FF;}
	.st5{fill:#A3DEFF;}
	.st6{fill:#B0E3FF;}
	.st7{fill:#FF5955;}
	.st8{fill:#FF0000;}
	.st9{fill:#3A8A00;}
	.st10{fill:#417400;}
	.st11{fill:#4D4D4D;}
	.st12{fill:#333333;}
	.st13{fill:#1B1464;}
	.st14{fill:#271D91;}
	.st15{fill:#B2B2B2;stroke:#B2B2B2;stroke-width:0.25;}
	.st16{fill:#8C8C8C;stroke:#5A3D1C;stroke-width:0.25;}
	.st17{fill:#A6A6A6;}
	.st18{fill:#FFFFFF;stroke:#B2B2B2;stroke-width:0.25;}
	.st19{fill:#EBEBEB;}
	.st20{stroke:#000000;stroke-width:0.25;}
	.st21{fill:#8C8C8C;stroke:#003642;stroke-width:0.25;}
	.st22{fill:#7A7A7A;}
	.st23{fill:#666666;stroke:#666666;stroke-width:0.25;}
	.st24{fill:#141414;}
	.st25{fill:#FFFFFF;stroke:#B2B2B2;}
	.st26{fill:#EDEDED;}
	.st27{fill:#694721;}
	.st28{fill:#5A3D1C;}
	.st29{fill:#006631;}
	.st30{fill:#00592B;}
	.st31{fill:#035B73;stroke:#003642;stroke-width:0.25;}
	.st32{fill:#02495C;stroke:#003642;stroke-width:0.25;}
	.st33{fill:#02495C;}
	.st34{fill:#820000;stroke:#730000;}
	.st35{fill:#5C0000;stroke:#5A3D1C;stroke-width:0.25;}
	.st36{fill:#780000;}
	.st37{fill:#006B33;stroke:#003642;stroke-width:0.25;}
	.st38{fill:#00592B;stroke:#003642;stroke-width:0.25;}
	.st39{fill:#DB8C3D;stroke:#003642;stroke-width:0.25;}
	.st40{fill:#C2803D;}
	.st41{fill:#DB6D00;stroke:#003642;stroke-width:0.25;}
	.st42{fill:#3F3F3F;stroke:#3F3F3F;stroke-width:0.25;}
	.st43{stroke:#3F3F3F;stroke-width:0.25;}
	.st44{fill:#262626;}
	.st45{fill:#5A3D1C;stroke:#003642;stroke-width:0.25;}
	.st46{fill:#52361A;}
	.st47{fill:#422C15;stroke:#003642;stroke-width:0.25;}
	.st48{fill:#FFFFFF;stroke:#E8E8E8;}
	.st49{fill:#E3E3E3;}
	.st50{fill:#B2B2B2;}
	.st51{fill:#FFBF00;}
	.st52{fill:#F5B700;}
	.st53{fill:#EBAF00;stroke:#D19D00;stroke-width:0.25;}
	.st54{fill:#D010B1;}
	.st55{fill:#A60D8C;}
	.st56{fill:#00A33D;}
	.st57{fill:#008033;}
	.st58{fill:#00D4FF;}
	.st59{fill:#00ABFF;}
	.st60{fill:#0A0A0A;stroke:#000000;}
	.st61{fill:#666666;stroke:#000000;stroke-width:0.25;}
	.st62{stroke:#000000;}
	.st63{fill:#00B800;}
	.st64{fill:#009C00;}
	.st65{fill:#3F3F3F;}
	.st66{fill:#73A334;stroke:#8CC63F;stroke-width:0.1;}
	.st67{fill:#8CC63F;stroke:#8CC63F;stroke-width:0.1;}
	.st68{fill:#545454;}
	.st69{fill:#7558A4;}
	.st70{fill:#7536D1;}
	.st71{fill:#E2BB95;stroke:#D5AF8C;}
	.st72{fill:#D5AF8C;}
	.st73{fill:#E2BB95;stroke:#D5AF8C;stroke-width:0.5;}
	.st74{fill:#9E2231;}
	.st75{fill:#B72837;}
	.st76{fill:#FFE085;}
	.st77{fill:#EBCE7A;}
	.st78{fill:url(#SVGID_1_);}
	.st79{fill:url(#SVGID_2_);}
	.st80{fill:url(#SVGID_3_);}
	.st81{fill:#D00204;}
	.st82{fill:#D10507;}
	.st83{fill:#D3090B;}
	.st84{fill:#D40C0E;}
	.st85{fill:#D51012;}
	.st86{fill:#D71315;}
	.st87{fill:#D81718;}
	.st88{fill:#D91A1C;}
	.st89{fill:#DB1E1F;}
	.st90{fill:#DC2122;}
	.st91{fill:#DD2526;}
	.st92{fill:#DF2829;}
	.st93{fill:#E02C2D;}
	.st94{fill:#E22F30;}
	.st95{fill:#E33333;}
	.st96{fill:#E43637;}
	.st97{fill:#E63A3A;}
	.st98{fill:#E73D3E;}
	.st99{fill:#E84141;}
	.st100{fill:#EA4444;}
	.st101{fill:#EB4848;}
	.st102{fill:#EC4B4B;}
	.st103{fill:#EE4F4E;}
	.st104{fill:#EF5252;}
	.st105{fill:#F05655;}
	.st106{fill:#F25A59;}
	.st107{fill:#F35D5C;}
	.st108{fill:#047A04;}
	.st109{fill:#57B328;}
	.st110{fill:#507F29;}
	.st111{fill:#DDBB06;}
	.st112{fill:#A80000;}
	.st113{fill:#9E0000;}
	.st114{fill:#8F0000;stroke:#610000;stroke-width:0.25;}
	.st115{fill:#5A3D1C;stroke:#805426;}
	.st116{fill:#63421F;}
	.st117{fill:#5A3D1C;stroke:#6B4620;}
	.st118{fill:url(#SVGID_4_);}
	.st119{fill:#171717;stroke:#000000;}
	.st120{fill:#212121;}
	.st121{fill:url(#SVGID_5_);}
	.st122{fill:#3F3F3F;stroke:#3F3F3F;}
	.st123{fill:#8C8C8C;stroke:#3F3F3F;}
	.st124{fill:#808080;}
	.st125{fill:url(#SVGID_6_);}
	.st126{fill:none;}
	.st127{fill:#D4D4D4;}
	.st128{fill:#D4D4D4;stroke:#B8B8B8;stroke-width:0.5;}
	.st129{fill:#D4D4D4;stroke:#B8B8B8;stroke-width:0.2;}
	.st130{fill:#C7C7C7;}
	.st131{fill:#DBF8FF;stroke:#7DBDCC;stroke-width:0.25;}
	.st132{fill:#C2F3FF;}
	.st133{fill:#F2F2F2;}
	.st134{fill:url(#SVGID_7_);stroke:#000000;}
	.st135{fill:#42210B;stroke:#000000;}
	.st136{fill:#C69C6D;stroke:#000000;}
	.st137{fill:#93278F;stroke:#000000;}
	.st138{fill:#589F3E;}
	.st139{fill:#4D8F39;}
	.st140{fill:#963528;}
	.st141{fill:#AC3A2D;}
	.st142{fill:#211915;}
	.st143{fill:#444242;}
	.st144{fill:#1A1A1A;}
	.st145{fill:#FFFFFF;}
	.st146{fill:#2E2E2E;}
	.st147{fill:#363636;}
	.st148{fill:#666666;}
	.st149{fill:#C69C6D;}
	.st150{fill:#B38D62;}
	.st151{fill:#A67C52;}
	.st152{fill:#8C6239;}
	.st153{fill:#9E10D2;}
	.st154{fill:#8210D2;}
	.st155{fill:#6B6B6B;}
	.st156{fill:#008C08;}
	.st157{fill:#00A308;}
	.st158{fill:#EC2024;}
	.st159{fill:#E31E26;}
	.st160{fill:#BED63A;}
	.st161{fill:#EC1C24;}
	.st162{fill:#00ADEE;}
	.st163{fill:#2E3191;}
</style>
<g>
	<g>
		<path class="st0" d="M101.01,76c-3.81-1.96-9.07-4.26-9.59-5.14c-2.24-3.75-2.27-13.47-1.88-17.47l-1.01,0l-31.74,0.14l-1.01,0
			c0.42,4,0.98,13.87-1.46,17.49c-0.39,0.58-6.03,3.2-9.81,5.22c-3.13,1.68-11.68,6.93-12.84,7.37c0.3,0.39,4.14,11.68,8.18,17.72
			c1.86,2.78,2.72,5.46,5.09,7.76c2.44,2.37,5.23,4.31,8.29,5.64c3.67,1.6,7.62,2.36,11.56,2.59c2.7,0.16,5.44,0.12,8.16-0.12
			c2.72,0.22,5.46,0.23,8.16,0.05c3.94-0.26,7.88-1.06,11.54-2.69c3.05-1.36,5.82-3.32,8.24-5.72c2.35-2.32,3.1-5.01,4.93-7.8
			c3.98-6.07,8.32-17.47,8.62-17.86C113.24,82.8,104,77.53,101.01,76z"/>
		<g>
			<path class="st0" d="M130.81,93.56c-0.11-0.09-1.18-1.48-1.29-1.57c-4.14-3.43-13.2-8.25-17.08-9.67
				c-4.09-1.5-21.53,3.9-37.22,3.98c-0.04,0-1.38,0.04-2.26,0.06c-0.89-0.02-2.23-0.04-2.27-0.04c-15.69,0.06-27.61-9.31-27.61-9.31
				S34.72,81.46,30.64,83C26.78,84.46,136.06,100.33,130.81,93.56z"/>
		</g>
		<path class="st0" d="M95.24,33.81c0,0-0.24-11.41-0.38-16.03C94.71,12.79,94.42,5.11,80.14,0.8c-0.8-0.24-4.33-0.82-7.77-0.8
			c-3.21,0.02-6.33,0.63-7.08,0.86c-3.77,1.18-6.55,2.93-9.33,5.43c-3.78,3.4-5.3,6.7-5.4,11.69c-0.1,4.62-0.16,16.03-0.16,16.03
			c-4.39-3.66-4.41,0.82-4.18,3.25c0.31,3.3,1.32,5.77,2.34,7.82c0.68,1.36,1.39,3.33,3.39,3.4c0.75,0.03,1.23-0.56,1.23-0.56
			s0.34,4.75,0.52,6.06c0.52,3.9,9.19,14.82,14.05,15.77c1.47,0.29,9.06,0.26,10.43-0.01c4.79-0.95,13.59-11.92,14.09-15.93
			c0.16-1.31,0.47-6.06,0.47-6.06s0.49,0.58,1.24,0.55c1.99-0.09,2.46-2.06,3.12-3.43c1-2.06,2.35-5.22,2.42-8.54
			C99.58,33.94,99.6,30.11,95.24,33.81z"/>
		<g>
			<g>
				<path class="st1" d="M51.1,41.4c0.11-0.01-0.89-3.58-1.48-4.99c-0.64-1.53-1.28-1.87-1.67-1.84c-0.74,0.05-0.99,3.47-0.99,3.47
					s0.53-3.68,2.19-0.73C49.63,38.14,50.97,41.41,51.1,41.4z"/>
				<path class="st1" d="M48.48,37.94c0.04-0.24,0.3-1.65,0.49-1.66c0.24-0.01,0.25,1,0.19,1.17c-0.16,0.5-0.32,1.01-0.42,1.54
					c-0.11,0.56-0.11,1.1-0.1,1.68c0.01,0.51,0.12,1.11,0.22,1.6c-0.39-0.38-0.5-1.9-0.51-2.47C48.33,38.82,48.38,38.5,48.48,37.94z
					"/>
				<path class="st2" d="M51.47,44.28c-0.03-0.09-0.56-1.27-0.6-1.36c-0.39-0.87,0.43,0.25,0.51,0.35c0.4,0.56,0.69,0.87,0.97,1.34
					c0.24,0.4,0.13,1.04-0.42,1.1c-0.46,0.05-1.04-0.39-1.24-1.03C50.66,44.59,51.89,45.4,51.47,44.28z"/>
			</g>
			<g>
				<path class="st1" d="M94.72,41.21c-0.11-0.01,0.86-3.58,1.43-5c0.62-1.54,1.26-1.88,1.65-1.86c0.74,0.04,1.02,3.46,1.02,3.46
					s-0.56-3.68-2.2-0.72C96.16,37.93,94.85,41.22,94.72,41.21z"/>
				<path class="st1" d="M97.31,37.72c-0.05-0.24-0.31-1.65-0.51-1.66c-0.24-0.01-0.24,1.01-0.18,1.17c0.17,0.5,0.33,1,0.44,1.54
					c0.12,0.56,0.12,1.1,0.12,1.68c-0.01,0.51-0.11,1.11-0.21,1.6c0.39-0.38,0.48-1.9,0.49-2.47C97.46,38.6,97.41,38.28,97.31,37.72
					z"/>
				<path class="st2" d="M94.37,44.09c0.03-0.09,0.55-1.27,0.59-1.37c0.38-0.87-0.43,0.25-0.51,0.36c-0.39,0.56-0.68,0.87-0.96,1.35
					c-0.24,0.41-0.12,1.04,0.43,1.1c0.46,0.05,1.04-0.4,1.23-1.04C95.19,44.4,93.96,45.21,94.37,44.09z"/>
			</g>
		</g>
	</g>
	<g>
		<path class="st0" d="M117.32,77.33c2.54,0.78,7.38,7.18,8.22,7.92c0.03,0.02,2.82,1.38,2.9,1.53c3.39,6.23,7.6,16.4,9.63,23.39
			c2.03,6.99,5.36,28.02,6.47,37.09c1.1,9.08,3.4,23.66,4.22,34.22c0.36,4.57,1.59,12.43,1.59,12.43l-15.91,1.99
			c0,0-1.1-4.41-1.59-8.53c-0.74-6.17-6.03-37.96-7.18-43.82c-1.78-9.09-4.94-28.15-4.94-28.15S115.67,76.83,117.32,77.33z"/>
	</g>
	<g>
		<path class="st0" d="M27.64,77.25c-2.49,0.94-6.89,7.65-7.68,8.45c-0.02,0.02,0.07-0.15,0,0c-2.97,6.44-11.94,19.59-11.73,25.99
			c0.23,6.57-2.6,28.02-3.1,37.15c-0.49,9.13-1.82,23.83-1.93,34.42c-0.05,4.59-0.76,12.51-0.76,12.51l16,0.93
			c0,0,0.81-4.47,1.02-8.62c0.33-6.2,3.49-38.28,4.25-44.2c1.17-9.19,2.06-28.37,2.06-28.37S29.25,76.64,27.64,77.25z"/>
	</g>
	<g>
		<path class="st42" d="M53.4,69.9c0,0,4.41,6.22,16.6,6.17c12.18-0.05,11.66,0.43,15.36-0.83c3.69-1.26,6.93-5.04,6.93-5.04
			l4.15,2.66c0,0-6.86,5.5-10.72,6.42c-3.86,0.9-12.7,1.49-16.23,1.23c-3.51-0.26-14.95-3.08-17.27-4.31
			c-2.33-1.22-2.93-3.68-2.93-3.68L53.4,69.9z"/>
		<g>
			<path class="st43" d="M94.44,71.58c0,0,7.87,2.88,9.13,3.85c1.24,0.99,7.96,11.47,7.98,17.64c0.03,6.15,0.55,10.33,0.57,14.91
				c0.02,4.59,0.02,25.06-0.38,29.03c-0.41,3.97,1.31,22.59,1.32,25.87c0.01,3.28,3,10.15,3.01,12.83
				c0.01,2.66,2.63,12.21,2.66,18.46c0.03,6.26,0.06,14.06,0.06,14.06s-33.63-0.88-48.43-0.81c-14.82,0.07-41.09,2.14-41.09,2.14
				s-2.85-6.37-1.08-14.39c1.75-8.02,7.45-31.96,7.43-35.66c-0.02-3.69,0.05-18.79,0.05-18.79s-1.43-30.49-1.45-35.72
				c-0.02-5.23,0.32-15.19,2.88-20.85c2.54-5.66,5.68-9.83,6.26-10.3c0.57-0.47,5.93-1.34,5.93-1.34s22.05,8.2,31.57,5.27
				C90.39,74.88,94.44,71.58,94.44,71.58z"/>
			<path class="st44" d="M37.57,84.63c0.35,0,1.74,3.56,1.75,5.8c0.01,2.26-0.7,6.7,0.8,7.88c1.51,1.19,0.19,3.83-0.57,5.89
				c-0.77,2.06-1.45,14.97,0.49,16.5c1.95,1.54,3.6-0.77,6.44-1.74c2.83-0.98,3.35-1.72,0.44,2.26c-2.9,3.98-6.59,5.86-2.46,8.29
				c4.13,2.45,10.5,4.19,5.68,4.21c-4.8,0.02-8.41,0.11-8.41,0.11s3.63,4.85,6.22,8.06c2.59,3.2,6.8,2.55,7.13,2.55
				c0.36,0,0.36-0.53,0.36,0c0,0.55-0.85,3.36-6.7,2.29c-5.85-1.06-8.35-2.55-8.33,0.11c0.01,2.67-0.03,11.03,2.06,17.11
				c2.08,6.07,0.72,5.88,4.23,6.34c3.51,0.46-2.4-0.41-5.4,2.96c-2.98,3.37-7.6,7.56-1.74,10.82c5.84,3.26,7.05,3.25,8.68,3.25
				c1.63-0.01-8.16-0.71-9.87,2.3c-1.7,3.04-1.87,2.61-0.66,5.28c1.21,2.67-7.97,3.05-6.59,4.95c1.38,1.93,7.4,1.75,13.49,1.73
				c6.09-0.03,1.72,1.3-1.11,2.41c-2.84,1.1,2.93,3.41,4.12,3.4c1.21-0.01-0.03,0.93-0.03,0.93s-7.84,0.76-12.14,0.78
				c-4.31,0.02-6.32,0.14-6.32,0.14s-1.52-5.13-1.53-7.78c-0.01-2.68,0.85-7.62,1.57-10.79c0.74-3.19,2.6-11.36,3.16-13.96
				c0.57-2.6,2.55-11.65,2.88-14.1c0.36-2.47,0.38-4.52,0.39-7.72c0.01-3.18,0.06-13.17,0.05-13.85c-0.02-0.7-0.71-16.12-0.71-16.12
				l-0.74-20.49c0,0,0.5-14.68,1.59-17.29c1.12-2.61,1.64-2.61,1.64-2.61L37.57,84.63z"/>
			<path class="st44" d="M111.77,101.79c0,0-2.34-0.2-2.31,6.06c0.03,6.26-0.2,10.27-2.9,12.44c-2.72,2.16-9.66,0.76-5.01,2.28
				c4.64,1.53,5.41,1.52,5.41,1.52s-1.04-0.2-3.27,2.63c-2.24,2.83-6.23,4.9-4.03,5.81c2.19,0.91,5.67,2.03,5.67,2.03
				s4.28,7.38,1.34,9.76c-2.97,2.36-3.07,4.61-7.71,4.63c-4.63,0.02-10.57-0.96-7.08,1.79c3.5,2.76,10.84,4.37,11.5,4.37
				c0.62,0,3.37,5.22,3.37,5.22s-5.93,1.15-8.49,3.21c-2.57,2.06,3.74,2.66,6.58,3.98c2.85,1.32,5.57,4.29,5.59,9.63
				c0.02,5.33-0.47,12.01-5.87,13.78c-5.41,1.77-6.37,2.54-6.37,2.54s1.89,3.13,7.28,1.56c5.41-1.55,9.4-1.06,9.4-1.06
				s0.42,6.25-0.74,7.19c-1.15,0.93,4.65,1.93,4.65,1.93s0.11-8.68-0.14-10.96c-0.22-2.26-1.55-10.17-1.83-11.55
				c-0.25-1.38-1.14-7.46-1.72-9.34c-0.57-1.88-1.92-5.98-2.03-8.55c-0.14-2.57-0.63-9.75-0.63-9.75l-0.73-12.49l0.32-11.52
				l0.07-14.86L111.77,101.79z"/>
			<path class="st42" d="M43.36,73.85c0,0-12.43,1.38-16.98,3.1c-4.54,1.73-14.77,18.33-14.77,18.33L4.99,113.6l19.76,8.2l9.7-10.03
				C34.45,111.76,38.76,77.02,43.36,73.85z"/>
			<path class="st42" d="M102.82,74.99c0,0,12.45,1.69,17.01,3.39c4.55,1.69,8.1,7.69,11.03,10.91
				c2.94,3.21,10.68,25.55,10.68,25.55l-19.54,8.3l-9.91-9.9C112.09,113.23,109.81,79.47,102.82,74.99z"/>
		</g>
	</g>
</g>
</svg>
