<?xml version="1.0" encoding="utf-8"?>
<!-- Generator: Adobe Illustrator 23.0.6, SVG Export Plug-In . SVG Version: 6.00 Build 0)  -->
<svg version="1.1" id="Capa_1" xmlns="http://www.w3.org/2000/svg" xmlns:xlink="http://www.w3.org/1999/xlink" x="0px" y="0px"
	 viewBox="0 0 152.79 186.83" style="enable-background:new 0 0 152.79 186.83;" xml:space="preserve">
<style type="text/css">
	.st0{fill:#F0AC80;}
	.st1{fill-rule:evenodd;clip-rule:evenodd;fill:#D68B62;}
	.st2{fill-rule:evenodd;clip-rule:evenodd;fill:#E8A073;}
	.st3{fill:#BFE9FF;}
	.st4{fill:#A8E1FF;}
	.st5{fill:#A3DEFF;}
	.st6{fill:#B0E3FF;}
	.st7{fill:#FF5955;}
	.st8{fill:#FF0000;}
	.st9{fill:#3A8A00;}
	.st10{fill:#417400;}
	.st11{fill:#4D4D4D;}
	.st12{fill:#333333;}
	.st13{fill:#1B1464;}
	.st14{fill:#271D91;}
	.st15{fill:#B2B2B2;stroke:#B2B2B2;stroke-width:0.25;}
	.st16{fill:#8C8C8C;stroke:#5A3D1C;stroke-width:0.25;}
	.st17{fill:#A6A6A6;}
	.st18{fill:#FFFFFF;stroke:#B2B2B2;stroke-width:0.25;}
	.st19{fill:#EBEBEB;}
	.st20{stroke:#000000;stroke-width:0.25;}
	.st21{fill:#8C8C8C;stroke:#003642;stroke-width:0.25;}
	.st22{fill:#7A7A7A;}
	.st23{fill:#666666;stroke:#666666;stroke-width:0.25;}
	.st24{fill:#141414;}
	.st25{fill:#FFFFFF;stroke:#B2B2B2;}
	.st26{fill:#EDEDED;}
	.st27{fill:#694721;}
	.st28{fill:#5A3D1C;}
	.st29{fill:#006631;}
	.st30{fill:#00592B;}
	.st31{fill:#035B73;stroke:#003642;stroke-width:0.25;}
	.st32{fill:#02495C;stroke:#003642;stroke-width:0.25;}
	.st33{fill:#02495C;}
	.st34{fill:#820000;stroke:#730000;}
	.st35{fill:#5C0000;stroke:#5A3D1C;stroke-width:0.25;}
	.st36{fill:#780000;}
	.st37{fill:#006B33;stroke:#003642;stroke-width:0.25;}
	.st38{fill:#00592B;stroke:#003642;stroke-width:0.25;}
	.st39{fill:#DB8C3D;stroke:#003642;stroke-width:0.25;}
	.st40{fill:#C2803D;}
	.st41{fill:#DB6D00;stroke:#003642;stroke-width:0.25;}
	.st42{fill:#3F3F3F;stroke:#3F3F3F;stroke-width:0.25;}
	.st43{stroke:#3F3F3F;stroke-width:0.25;}
	.st44{fill:#262626;}
	.st45{fill:#5A3D1C;stroke:#003642;stroke-width:0.25;}
	.st46{fill:#52361A;}
	.st47{fill:#422C15;stroke:#003642;stroke-width:0.25;}
	.st48{fill:#FFFFFF;stroke:#E8E8E8;}
	.st49{fill:#E3E3E3;}
	.st50{fill:#B2B2B2;}
	.st51{fill:#FFBF00;}
	.st52{fill:#F5B700;}
	.st53{fill:#EBAF00;stroke:#D19D00;stroke-width:0.25;}
	.st54{fill:#D010B1;}
	.st55{fill:#A60D8C;}
	.st56{fill:#00A33D;}
	.st57{fill:#008033;}
	.st58{fill:#00D4FF;}
	.st59{fill:#00ABFF;}
	.st60{fill:#0A0A0A;stroke:#000000;}
	.st61{fill:#666666;stroke:#000000;stroke-width:0.25;}
	.st62{stroke:#000000;}
	.st63{fill:#00B800;}
	.st64{fill:#009C00;}
	.st65{fill:#3F3F3F;}
	.st66{fill:#73A334;stroke:#8CC63F;stroke-width:0.1;}
	.st67{fill:#8CC63F;stroke:#8CC63F;stroke-width:0.1;}
	.st68{fill:#545454;}
	.st69{fill:#7558A4;}
	.st70{fill:#7536D1;}
	.st71{fill:#E2BB95;stroke:#D5AF8C;}
	.st72{fill:#D5AF8C;}
	.st73{fill:#E2BB95;stroke:#D5AF8C;stroke-width:0.5;}
	.st74{fill:#9E2231;}
	.st75{fill:#B72837;}
	.st76{fill:#FFE085;}
	.st77{fill:#EBCE7A;}
	.st78{fill:url(#SVGID_1_);}
	.st79{fill:url(#SVGID_2_);}
	.st80{fill:url(#SVGID_3_);}
	.st81{fill:#D00204;}
	.st82{fill:#D10507;}
	.st83{fill:#D3090B;}
	.st84{fill:#D40C0E;}
	.st85{fill:#D51012;}
	.st86{fill:#D71315;}
	.st87{fill:#D81718;}
	.st88{fill:#D91A1C;}
	.st89{fill:#DB1E1F;}
	.st90{fill:#DC2122;}
	.st91{fill:#DD2526;}
	.st92{fill:#DF2829;}
	.st93{fill:#E02C2D;}
	.st94{fill:#E22F30;}
	.st95{fill:#E33333;}
	.st96{fill:#E43637;}
	.st97{fill:#E63A3A;}
	.st98{fill:#E73D3E;}
	.st99{fill:#E84141;}
	.st100{fill:#EA4444;}
	.st101{fill:#EB4848;}
	.st102{fill:#EC4B4B;}
	.st103{fill:#EE4F4E;}
	.st104{fill:#EF5252;}
	.st105{fill:#F05655;}
	.st106{fill:#F25A59;}
	.st107{fill:#F35D5C;}
	.st108{fill:#047A04;}
	.st109{fill:#57B328;}
	.st110{fill:#507F29;}
	.st111{fill:#DDBB06;}
	.st112{fill:#A80000;}
	.st113{fill:#9E0000;}
	.st114{fill:#8F0000;stroke:#610000;stroke-width:0.25;}
	.st115{fill:#5A3D1C;stroke:#805426;}
	.st116{fill:#63421F;}
	.st117{fill:#5A3D1C;stroke:#6B4620;}
	.st118{fill:url(#SVGID_4_);}
	.st119{fill:#171717;stroke:#000000;}
	.st120{fill:#212121;}
	.st121{fill:url(#SVGID_5_);}
	.st122{fill:#3F3F3F;stroke:#3F3F3F;}
	.st123{fill:#8C8C8C;stroke:#3F3F3F;}
	.st124{fill:#808080;}
	.st125{fill:url(#SVGID_6_);}
	.st126{fill:none;}
	.st127{fill:#D4D4D4;}
	.st128{fill:#D4D4D4;stroke:#B8B8B8;stroke-width:0.5;}
	.st129{fill:#D4D4D4;stroke:#B8B8B8;stroke-width:0.2;}
	.st130{fill:#C7C7C7;}
	.st131{fill:#DBF8FF;stroke:#7DBDCC;stroke-width:0.25;}
	.st132{fill:#C2F3FF;}
	.st133{fill:#F2F2F2;}
	.st134{fill:url(#SVGID_7_);stroke:#000000;}
	.st135{fill:#42210B;stroke:#000000;}
	.st136{fill:#C69C6D;stroke:#000000;}
	.st137{fill:#93278F;stroke:#000000;}
	.st138{fill:#589F3E;}
	.st139{fill:#4D8F39;}
	.st140{fill:#963528;}
	.st141{fill:#AC3A2D;}
	.st142{fill:#211915;}
	.st143{fill:#444242;}
	.st144{fill:#1A1A1A;}
	.st145{fill:#FFFFFF;}
	.st146{fill:#2E2E2E;}
	.st147{fill:#363636;}
	.st148{fill:#666666;}
	.st149{fill:#C69C6D;}
	.st150{fill:#B38D62;}
	.st151{fill:#A67C52;}
	.st152{fill:#8C6239;}
	.st153{fill:#9E10D2;}
	.st154{fill:#8210D2;}
	.st155{fill:#6B6B6B;}
	.st156{fill:#008C08;}
	.st157{fill:#00A308;}
	.st158{fill:#EC2024;}
	.st159{fill:#E31E26;}
	.st160{fill:#BED63A;}
	.st161{fill:#EC1C24;}
	.st162{fill:#00ADEE;}
	.st163{fill:#2E3191;}
</style>
<g>
	<path class="st0" d="M149.69,213.2c-0.45-14.13-2.35-52.05-2.75-57.09c-0.44-5.43-4.12-19.67-5.66-33.29
		c-1.63-14.29-6.99-25.02-11.01-31.72c-0.29-0.48-0.64-0.86-1.04-1.18c-0.03-0.04-0.05-0.07-0.08-0.11
		c-0.11-0.09-1.12-1.42-1.23-1.51c-3.75-3.13-11.72-7.47-15.71-9.1c-2.82-1.47-9.24-5.15-11.6-6.37c-3.66-1.89-8.69-4.13-9.19-4.97
		c-1.34-2.27-1.83-6.79-1.92-10.79c1.55-2.2,2.65-4.27,2.82-5.58c0.16-1.26,0.47-5.82,0.47-5.82s0.47,0.56,1.19,0.53
		c1.91-0.07,2.37-1.97,3.01-3.28c0.97-1.97,2.28-5.01,2.36-8.19c0.06-2.29,0.09-5.97-4.11-2.43c0,0-0.18-10.96-0.3-15.39
		c-0.12-4.79-0.37-12.17-14.06-16.37c-0.77-0.24-4.16-0.8-7.46-0.8c-3.08,0.01-6.08,0.58-6.8,0.8c-3.63,1.11-6.3,2.79-8.98,5.17
		c-3.65,3.25-5.11,6.41-5.23,11.2c-0.11,4.44-0.21,15.39-0.21,15.39c-4.2-3.54-4.24,0.77-4.03,3.1c0.28,3.17,1.24,5.54,2.21,7.51
		c0.64,1.31,1.33,3.21,3.24,3.28c0.72,0.03,1.19-0.53,1.19-0.53s0.31,4.56,0.48,5.82c0.15,1.14,1.02,2.91,2.29,4.84
		c0.09,4.21-0.21,9.22-1.79,11.53c-0.38,0.55-5.81,3.05-9.44,4.97c-0.37,0.2-0.83,0.45-1.34,0.74c0,0-0.01-0.01-0.01-0.01
		s-8.06,4.24-11.98,5.7c-2.97,1.11-8.45,4.18-12.55,7.06c-0.89,0.47-1.81,1.14-2.76,2.09c-0.03,0.02-0.07,0.06-0.01,0.01
		c-0.19,0.18-0.33,0.35-0.44,0.51c-5.75,6.5-7.84,23.64-7.63,31.27c0.23,7.84-3.04,34.17-3.69,45.04
		c-0.65,10.89-2.83,40.27-2.83,40.27l19.72,2.12c0,0,5.93-42.99,7.27-49.14c1.52-6.96,0.71-32.59,7.71-46.59s0,0,0,0
		c2.4,1.39,17.06,11.49,17,25c-0.07,14.4,47.71,11.92,49,4c1.14-7,4.46-27.72,4-31c2.58,3.65,10.26,18.56,11.08,21.16
		c1.09,3.48,3.05,19.15,3.48,30.04c0.44,10.88,2.62,27.2,2.62,27.2l4.13,25.25L149.69,213.2z"/>
	<g>
		<path class="st25" d="M38.61,111.94c0.46-1.38,5.48-24.86,5.45-32.79c-0.03-7.92-0.03-7.92-0.03-7.92l7.52-0.59
			c0,0-0.59,23.89,1.79,27.84c2.38,3.97,9.31,9.2,21,8.56c11.71-0.61,17.09-4.05,19.15-7.61c2.05-3.54,5.09-16.23,5.22-20.55
			c0.13-4.31,0.23-7.78,0.23-7.78l6.96,3.96c0,0,0.27,9.74,0.32,16.83c0.07,7.1,1.39,17.85,2.69,20.94
			c1.29,3.09,2.32,23.98,1.22,32.98c-1.12,9-0.82,35.85-0.16,45.88c0.68,10.03,0.93,23.81,0.93,23.81s-8.72,3.36-19.44,4.13
			c-10.73,0.79-23.11,0.68-33.05-1.29c-9.96-1.97-23.42-7.11-23.42-7.11s1.6-20.52,3.41-29.79c1.81-9.25,1.86-24.26,1.89-34.41
			C40.34,136.88,38.61,111.94,38.61,111.94z"/>
		<path class="st26" d="M40.04,123.95c0,0,3.43,1.34,3.9,4.29c0.46,2.94,8.06,4.56,12.23,4.69c4.17,0.13,17.51,0.53,17.51,0.53
			s-11.37,3.26-13.58,3.19c-2.23-0.07-3.89-0.11-5.6,0.8c-1.71,0.93-2.39,1.04-4.89,0.96c-2.5-0.07-9.4,2.77-9.4,2.77
			S39.36,128.1,40.04,123.95z"/>
		<path class="st26" d="M40.38,144.81c0,0-0.18,12.86-0.24,14.66c-0.05,1.81-0.47,12.79-0.9,15.83c-0.45,3.04-1.59,10.92-2.09,13.69
			c-0.5,2.77-1.19,11.44-1.6,15.94c-0.42,4.52-0.54,6.31-0.54,6.31l3.24,0.87c0,0-0.31-1.06-0.71-1.98
			c-0.39-0.92-0.9-2.18-0.54-2.71c0.36-0.55,1.15-1.5,1.36-1.5c0.21,0.01,0.3-0.89-0.1-1.39c-0.41-0.5-0.7-2.11-0.7-2.11l1.4-0.65
			c0,0-0.85-1.62-1.03-2.32c-0.19-0.7-0.4-2.86-0.13-2.73c0.27,0.16,6.15,5.9,6.69,6.4c0.54,0.5-5.17-8.08-5.17-8.08
			s10.65,8.67,12.46,10.59c1.82,1.93,5.09,3.84,2.56,0.57c-2.54-3.28-4.8-4.53-6.49-6.31c-1.67-1.8-4.44-4.58-4.98-5.17
			c-0.54-0.56-3.79-5.4-3.79-5.4l3.38,2.88l-1.71-3.44c0,0-0.37-3.64-0.1-3.63c0.28,0.01,3.58,1.22,3.58,1.22s-2.25-1.61-2.63-2.65
			c-0.39-1.06,0.25-1.46,1.07-1.01c0.81,0.44,2.44,2.1,2.15,0.42c-0.31-1.69-2.13-3.14-2.13-3.14s0.42-2.48,2.99-2.19
			c2.56,0.29,11.71,5.63,13.54,5.14c1.82-0.49-9.31-7.02-12.37-8.99c-3.07-1.97-3.93-3.6-3.93-3.6s1.34,1.43,3.08,1.55
			c1.74,0.12,0.76,0.3-1.38-2.54c-2.13-2.84,0.38-9.57,0.38-9.57s7.62,2.87,9.34,3c1.74,0.11-6.24-4.51-8.22-6.11
			c-1.97-1.57-2.89-3.06-2.21-2.83c0.69,0.21,8.3,1.21,17.04,2.04c8.74,0.82,12.88-0.3,12.88-0.3s-15.45-1.8-21.73-3.59
			c-6.27-1.78-9.31-4.94-9.31-4.94L40.38,144.81z"/>
		<path class="st26" d="M110.34,125.46c0,0,0.67,12.26,0.21,16.07c-0.46,3.8-0.99,14.43-1.12,18.53
			c-0.13,4.08,0.41,18.42,0.34,20.87c-0.08,2.42,0.96,16.14,0.93,19.69c-0.05,3.54,1.22,14.43,0.58,14.68
			c-0.64,0.25-3.41-0.11-3.4-0.31c0.01-0.21,0.64-3.04,0.47-3.68c-0.19-0.62,0.07-2.5-5.69-2.74c-5.76-0.24-12.22-2.73-7.41-3.49
			c4.82-0.76,10.84-3.9,11.44-5.63c0.61-1.72-1.07,0.45-3.48,0.25c-2.44-0.22-0.04-1.05,1.44-3.72c1.47-2.65,2.96-7.98,3.08-9.85
			c0.12-1.88,0.13-4.02,0.13-4.02s-4.51,3.97-4.64,3.54c-0.11-0.42,0.17-0.69,2.23-2.08c2.05-1.41,1.66-2.39,1.38-2.33
			c-0.28,0.07-12.04,5.12-12.04,5.12s9.11-4.65,11.06-6.89c1.94-2.23,1.64-3.84,1.64-3.84s-6.76,5.35-7.62,5.75
			c-0.83,0.39,5.41-4.15,6.43-5.64c1.02-1.51,0.49-4.37,0.49-4.37l-10.48,3.78c0,0,4.95-2.63,7.35-4.15c2.42-1.52,4.52-4.3,4.52-4.3
			l-6.49,2.64c0,0,4.43-3.61,5.44-4.84c1.02-1.22,1.01-5.59,1.01-5.59s-12.36,6.02-18.41,6.39c-6.06,0.37-6.57-0.83-6.3-0.82
			c0.28,0.01,11.23-1.75,16.62-4.97c5.39-3.25,7.46-7.5,7.46-7.5s-7.01,4.51-8.19,4.47c-1.2-0.03,5.82-3.92,6.46-4.45
			c0.65-0.55,9.08-3.41-7.97-2.95c-17.03,0.45-24.78-1.18-24.78-1.18s-11.01-1.52-11.62-1.54c-0.63-0.02,19.81,1.94,27.89,1.21
			c8.09-0.74,15.81-2.93,15.81-2.93s-19.42-1.5-24.9-1.94c-5.47-0.46,10.43-2.27,13.57-2.79c3.15-0.53,4.87-2.21,8.17-5.25
			c3.29-3.02,3.63-5.03,4.64-6.32c1-1.28,3.77-3.01,3.77-3.01L110.34,125.46z"/>
		<path class="st26" d="M38.74,113.96l-0.04,1.39c0,0,3.05,0.79,6.43-14.47c3.39-15.27,2.27-19.19,2.27-19.19
			s-1.59,15.38-4.18,22.61C40.63,111.51,38.74,113.96,38.74,113.96z"/>
		<path class="st26" d="M102.85,93.05c0,0-4.08,6.63-0.11,15.16c3.97,8.53,6.38,9.72,6.38,9.72s-1.27-2.13-3.95-7.56
			c-2.69-5.44-3.34-9.08-3.31-10.19C101.9,99.07,102.85,93.05,102.85,93.05z"/>
		<path class="st26" d="M100.79,81.25c0,0-0.38,12.29-3.34,18.1c-2.96,5.83-8.95,8.63-8.95,8.63s9.04-2.65,10.72-10.18
			C100.93,90.28,100.79,81.25,100.79,81.25z"/>
		<path class="st26" d="M48.3,76.65c0,0,0.92,17.54,3.13,22.9c2.19,5.35,3.91,8.19,11.03,9.58c7.11,1.4,16.79,1.28,16.79,1.28
			s-7.22-0.35-14.66-2.67c-7.43-2.31-11.18-5-12.25-8.59C51.27,95.58,48.3,76.65,48.3,76.65z"/>
	</g>
</g>
</svg>
