<?xml version="1.0" encoding="utf-8"?>
<!-- Generator: Adobe Illustrator 23.0.6, SVG Export Plug-In . SVG Version: 6.00 Build 0)  -->
<svg version="1.1" id="Capa_1" xmlns="http://www.w3.org/2000/svg" xmlns:xlink="http://www.w3.org/1999/xlink" x="0px" y="0px"
	 viewBox="0 0 152.79 186.83" enable-background="new 0 0 152.79 186.83" xml:space="preserve">
<g>
	<g>
		<path fill="#F0AC80" d="M111.58,76.12c-3.81-1.97-9.05-4.3-9.57-5.18c-2.22-3.76-2.21-13.48-1.8-17.48H99.2H67.45h-1.01
			c0.4,4,0.92,13.87-1.54,17.48c-0.39,0.58-6.05,3.17-9.83,5.18C51.93,77.78,43.36,83,42.2,83.43c0.3,0.39,4.09,11.7,8.1,17.76
			c1.84,2.78,2.7,5.47,5.05,7.78c2.43,2.38,5.21,4.34,8.26,5.68c3.67,1.61,7.6,2.4,11.55,2.64c2.7,0.17,5.44,0.14,8.16-0.08
			c2.72,0.23,5.46,0.25,8.16,0.08c3.95-0.25,7.88-1.03,11.55-2.64c3.05-1.34,5.83-3.3,8.26-5.68c2.36-2.31,3.12-5,4.97-7.78
			c4.01-6.06-1.08-11.34-0.78-11.73C114.31,89.07,114.57,77.67,111.58,76.12z"/>
		<g>
			<path fill="#F0AC80" d="M105.49,97.46c-0.11-0.09,10.11-2.91,10-3c-4.13-3.44-1.13-4.56-5-6c-4.08-1.52-9.05-2.17-24.73-2.15
				c-0.04,0-1.38,0.03-2.27,0.05c-0.89-0.02-2.23-0.05-2.27-0.05c-15.69-0.01-27.57-9.43-27.57-9.43s-8.39,4.41-12.48,5.94
				C37.31,84.25,110.71,104.26,105.49,97.46z"/>
		</g>
		<path fill="#F0AC80" d="M105.99,33.91c0,0-0.19-11.41-0.31-16.03c-0.13-4.99-0.38-12.68-14.64-17.05
			c-0.8-0.25-4.33-0.84-7.76-0.83c-3.21,0.01-6.33,0.6-7.08,0.83c-3.78,1.16-6.57,2.9-9.35,5.38c-3.8,3.38-5.33,6.68-5.45,11.67
			c-0.12,4.62-0.23,16.03-0.23,16.03c-4.37-3.68-4.41,0.8-4.2,3.23c0.29,3.3,1.29,5.77,2.3,7.83c0.67,1.37,1.38,3.34,3.37,3.42
			c0.75,0.03,1.24-0.55,1.24-0.55s0.32,4.75,0.5,6.06c0.51,3.9,9.13,14.86,13.98,15.83c1.47,0.29,9.06,0.3,10.43,0.04
			c4.79-0.93,13.64-11.86,14.16-15.87c0.17-1.31,0.49-6.06,0.49-6.06s0.49,0.58,1.24,0.55c1.99-0.08,2.47-2.05,3.14-3.42
			c1.01-2.05,2.38-5.21,2.46-8.53C110.34,34.06,110.37,30.23,105.99,33.91z"/>
		<g>
			<g>
				<path fill-rule="evenodd" clip-rule="evenodd" fill="#D68B62" d="M61.82,41.31c0.11-0.01-0.87-3.58-1.45-5
					c-0.63-1.54-1.27-1.87-1.66-1.85c-0.74,0.04-1,3.47-1,3.47s0.54-3.68,2.2-0.72C60.36,38.03,61.69,41.32,61.82,41.31z"/>
				<path fill-rule="evenodd" clip-rule="evenodd" fill="#D68B62" d="M59.22,37.83c0.05-0.24,0.3-1.65,0.5-1.66
					c0.24-0.01,0.24,1.01,0.19,1.17c-0.16,0.5-0.32,1-0.43,1.54c-0.11,0.56-0.12,1.1-0.11,1.68c0.01,0.51,0.12,1.11,0.22,1.6
					c-0.39-0.38-0.49-1.9-0.5-2.47C59.07,38.71,59.11,38.39,59.22,37.83z"/>
				<path fill-rule="evenodd" clip-rule="evenodd" fill="#E8A073" d="M62.18,44.18c-0.03-0.09-0.56-1.27-0.6-1.36
					c-0.38-0.87,0.43,0.25,0.51,0.35c0.4,0.56,0.69,0.87,0.97,1.35c0.24,0.41,0.12,1.04-0.43,1.1c-0.46,0.05-1.04-0.39-1.23-1.04
					C61.37,44.49,62.59,45.31,62.18,44.18z"/>
			</g>
			<g>
				<path fill-rule="evenodd" clip-rule="evenodd" fill="#D68B62" d="M105.44,41.31c-0.11-0.01,0.87-3.58,1.45-5
					c0.63-1.54,1.27-1.88,1.66-1.85c0.74,0.04,1,3.47,1,3.47s-0.54-3.68-2.2-0.73C106.9,38.03,105.57,41.32,105.44,41.31z"/>
				<path fill-rule="evenodd" clip-rule="evenodd" fill="#D68B62" d="M108.04,37.83c-0.05-0.24-0.3-1.65-0.5-1.66
					c-0.24-0.01-0.24,1.01-0.19,1.17c0.16,0.5,0.32,1,0.43,1.54c0.11,0.56,0.12,1.1,0.11,1.68c-0.01,0.51-0.12,1.11-0.22,1.6
					c0.39-0.38,0.49-1.9,0.5-2.47C108.19,38.71,108.15,38.39,108.04,37.83z"/>
				<path fill-rule="evenodd" clip-rule="evenodd" fill="#E8A073" d="M105.08,44.18c0.03-0.09,0.56-1.27,0.6-1.36
					c0.38-0.87-0.43,0.25-0.51,0.35c-0.4,0.56-0.69,0.87-0.97,1.35c-0.24,0.41-0.12,1.04,0.43,1.1c0.46,0.05,1.04-0.39,1.24-1.04
					C105.9,44.49,104.67,45.31,105.08,44.18z"/>
			</g>
		</g>
	</g>
	<g>
		<path fill="#00A33D" d="M145.57,189.42c0.39-5.35,1.63-10.95,1.52-15.83c-0.17-8.7-1.33-18.07-3.02-26.45
			c-1.6-7.88-4.41-15.28-6.36-22.67c-2.84-10.72-5.94-23.22-10.29-32.97c-3.77-8.51-5.09-11.96-12.71-15.51
			c-2.48-1.13-8-4.23-10-3.76c-1.22,0.3-2.97,3.71-4.23,5.15c-4.88,5.66-9.4,10.24-15.13,13.76c-6.65-3.12-10.93-9.15-15.72-14.45
			c-2.56-2.86-5.31-7.72-7.84-7.19c-4.52,0.85-11.88,2.03-15.76,4.44c-4.26,2.66-7.95,10.56-10.89,16.14
			c-3.38,6.48-6.31,12.87-8.77,18.9c-6.95,17.13-16.15,35.54-18.44,56.69c-1.42,12.93-3.28,28.56-1.52,41.6
			c4.55-0.14,9.97,0.25,14.52,0.34c1.35-2.92,2.14-7.46,1.83-10.66c-0.28-2.6-2.41-5.02-2.75-7.19c-1.04-6.6,1.41-11.08,2.75-15.82
			c2.79-10.14,3.18-22.11,7.25-30.92c3.91-8.54,9.17-16.3,13.9-23.37c1.67-2.49,2.53-6.07,5.14-7.22
			c4.38,9.65,0.79,23.28,1.52,35.03c-3.87,8.56-3.28,18.63-6.95,27.18c-1.35,3.12-5.02,9.61-3.31,13.75
			c1.33,3.24,13.08,6.09,17.24,6.87c7.89,1.49,14.36,1.82,21.76,2.4c6.52,0.48,12.58-0.17,19.38-1.03
			c7.34-0.95,16.78-2.03,18.15-7.92c0.57-6.79-2.73-12.59-3.34-19.25c-0.17-1.87,0.25-3.86,0-5.83c-0.39-3.01-2.16-5.62-2.71-8.6
			c-0.27-1.4-0.05-3.13-0.3-4.79c-0.24-1.52-1.2-2.85-1.22-4.14c-0.02-1.57,0.88-3.38,0.92-5.14c0.08-3.43-1.37-7.1-1.22-10.28
			c0.1-1.91,2.35-12.16,4.26-12.42c1.88-0.23,2.99,3.87,4.22,6.55c3.7,8.03,8.21,15.59,10.29,23.04c1.73,6.17,2.03,12.78,3.01,19.92
			c0.99,7.08,2.51,14.96,2.12,20.95c-0.24,4.09-1.61,8.84-2.42,13.08c-0.9,4.62-1.45,9.2-1.82,14.08
			c3.83,2.04,10.06,4.72,15.13,3.09C146.98,211.11,144.82,199.86,145.57,189.42z M59.62,140.34c0.63,3.16,1.94,8.36,2.18,9.2
			c0.25,0.82-2.28-1.51-3.01-3.29c-0.73-1.76-1.7-2.21-1.7-2.21s-1.82,4.25,0.6,7.96c2.41,3.7,5.67,6.03,5.67,6.03
			s-4.48-2.58-8.56-1.22c-4.11,1.37-4.11,6.17-3.27,6.84c0.86,0.69,8.71,1.8,8.71,1.8s-8.71,1.08-9.44,1.08
			c-0.71,0-4.34,1.37-1.2,5.37c3.14,3.96,4.59,4.25,4.59,4.25s-0.71,0.41-4.72,0.25c-3.98-0.14-4.47,3.99-4.21,6.18
			c0.24,2.18,2.18,6.04,6.04,6.84c3.86,0.84-2.3,2.49-2.3,2.49s-5.67-2.75-7.25-4.26c-1.56-1.5-1.32-2.89,0.96-7.26
			c2.29-4.4,2.42-8.22,3.75-11.4c1.33-3.13,1.45-13.54,3.87-17.25c2.42-3.72,2.52-9.89,2.52-14c0-4.11,0.63-17.27,0.63-17.27
			s0.47,10.67,4.44,12.76c4,2.05,6.63,2.99,6.63,2.99s-4.68-0.12-6.63-2.32C56.01,131.73,59.03,137.22,59.62,140.34z M72.54,88.79
			c-5.3-5.6-7.72-11.92-7.72-11.92l2.17,1.09c0,0,13.41,14.01,16.79,14.69c3.39,0.67,11.35-6.17,14.72-9.34
			c3.38-3.15,6.04-6.15,6.04-6.15S94.03,93.61,88.72,95.67C83.41,97.72,77.85,94.43,72.54,88.79z M110.8,177.25
			c3.52,11.5,2.79,13.43-0.23,14.94c-3.01,1.52-8.45,1.77-9.05,1.64c-0.6-0.12,5.55-1.22,6.64-1.53c1.09-0.26-2.04-2.87-5.07-3.27
			c-3.02-0.4,4.83-1.65,4.95-3.96c0.12-2.32,0.72-5.78-0.35-8.79c-1.09-3.01-3.97,3.17-6.66,3.43c-2.65,0.29,1.22-3.01,2.55-6.98
			c1.33-3.97,1.69-7.55,0.47-11.52c-1.19-3.97-3.98,2.72-4.21,3.13c-0.23,0.44,1.82-4.93,2.29-9.18c0.5-4.25,1.69-12.46,1.69-12.88
			c0-0.41-4.21,3.16-7.49,3.98c-3.25,0.84,4.11-2.89,5.07-5.48c0.96-2.61,1.95-6.3-1.2-5.48c-3.14,0.82-8.22,0.68-9.18-0.41
			c-0.96-1.09,8.22,0.41,9.78-1.94c1.56-2.32,7.36-8.77,7.36-8.77s-4.45,8.36-3.61,14.56c0.83,6.15,1.08,8.47,3.14,18.36
			C109.73,166.96,107.31,165.72,110.8,177.25z"/>
		<path fill="#008033" d="M57.93,133.91c1.95,2.2,6.63,2.32,6.63,2.32s-2.63-0.94-6.63-2.99c-3.98-2.09-4.44-12.76-4.44-12.76
			s-0.63,13.16-0.63,17.27c0,4.11-0.1,10.28-2.52,14c-2.42,3.71-2.55,14.12-3.87,17.25c-1.33,3.17-1.46,7-3.75,11.4
			c-2.28,4.38-2.52,5.76-0.96,7.26c1.58,1.51,7.25,4.26,7.25,4.26s6.16-1.65,2.3-2.49c-3.86-0.8-5.81-4.65-6.04-6.84
			c-0.25-2.19,0.24-6.32,4.21-6.18c4.01,0.16,4.72-0.25,4.72-0.25s-1.44-0.29-4.59-4.25c-3.14-4,0.49-5.37,1.2-5.37
			c0.73,0,9.44-1.08,9.44-1.08s-7.86-1.12-8.71-1.8c-0.83-0.67-0.83-5.47,3.27-6.84c4.08-1.35,8.56,1.22,8.56,1.22
			s-3.26-2.32-5.67-6.03c-2.42-3.71-0.6-7.96-0.6-7.96s0.97,0.45,1.7,2.21c0.72,1.78,3.25,4.11,3.01,3.29
			c-0.24-0.83-1.55-6.03-2.18-9.2C59.03,137.22,56.01,131.73,57.93,133.91z"/>
		<path fill="#008033" d="M104.54,138.73c-0.84-6.2,3.61-14.56,3.61-14.56s-5.81,6.45-7.36,8.77c-1.56,2.35-10.74,0.84-9.78,1.94
			c0.96,1.09,6.04,1.23,9.18,0.41c3.15-0.82,2.15,2.87,1.2,5.48c-0.96,2.6-8.32,6.32-5.07,5.48c3.28-0.82,7.49-4.39,7.49-3.98
			c0,0.42-1.19,8.64-1.69,12.88c-0.47,4.25-2.52,9.62-2.29,9.18c0.23-0.42,3.02-7.11,4.21-3.13c1.22,3.97,0.86,7.54-0.47,11.52
			c-1.33,3.97-5.2,7.26-2.55,6.98c2.68-0.26,5.57-6.43,6.66-3.43c1.07,3.01,0.47,6.47,0.35,8.79c-0.12,2.31-7.97,3.57-4.95,3.96
			c3.03,0.4,6.16,3.01,5.07,3.27c-1.09,0.31-7.23,1.41-6.64,1.53c0.6,0.13,6.04-0.12,9.05-1.64c3.02-1.51,3.75-3.43,0.23-14.94
			c-3.48-11.53-1.06-10.28-3.12-20.16C105.62,147.2,105.37,144.88,104.54,138.73z"/>
		<path fill="#008033" d="M104.54,77.15c0,0-2.65,3.01-6.04,6.15c-3.38,3.17-11.34,10.02-14.72,9.34
			c-3.38-0.67-16.79-14.69-16.79-14.69l-2.17-1.09c0,0,2.42,6.32,7.72,11.92c5.31,5.63,10.87,8.92,16.18,6.88
			C94.03,93.61,104.54,77.15,104.54,77.15z"/>
	</g>
</g>
</svg>
