<?xml version="1.0" encoding="utf-8"?>
<!-- Generator: Adobe Illustrator 23.0.6, SVG Export Plug-In . SVG Version: 6.00 Build 0)  -->
<svg version="1.1" id="Capa_1" xmlns="http://www.w3.org/2000/svg" xmlns:xlink="http://www.w3.org/1999/xlink" x="0px" y="0px"
	 viewBox="0 0 152.79 186.83" style="enable-background:new 0 0 152.79 186.83;" xml:space="preserve">
<style type="text/css">
	.st0{fill:#F0AC80;}
	.st1{fill-rule:evenodd;clip-rule:evenodd;fill:#D68B62;}
	.st2{fill-rule:evenodd;clip-rule:evenodd;fill:#E8A073;}
	.st3{fill:#BFE9FF;}
	.st4{fill:#A8E1FF;}
	.st5{fill:#A3DEFF;}
	.st6{fill:#B0E3FF;}
	.st7{fill:#FF5955;}
	.st8{fill:#FF0000;}
	.st9{fill:#3A8A00;}
	.st10{fill:#417400;}
	.st11{fill:#4D4D4D;}
	.st12{fill:#333333;}
	.st13{fill:#1B1464;}
	.st14{fill:#271D91;}
	.st15{fill:#B2B2B2;stroke:#B2B2B2;stroke-width:0.25;}
	.st16{fill:#8C8C8C;stroke:#5A3D1C;stroke-width:0.25;}
	.st17{fill:#A6A6A6;}
	.st18{fill:#FFFFFF;stroke:#B2B2B2;stroke-width:0.25;}
	.st19{fill:#EBEBEB;}
	.st20{stroke:#000000;stroke-width:0.25;}
	.st21{fill:#8C8C8C;stroke:#003642;stroke-width:0.25;}
	.st22{fill:#7A7A7A;}
	.st23{fill:#666666;stroke:#666666;stroke-width:0.25;}
	.st24{fill:#141414;}
	.st25{fill:#FFFFFF;stroke:#B2B2B2;}
	.st26{fill:#EDEDED;}
	.st27{fill:#694721;}
	.st28{fill:#5A3D1C;}
	.st29{fill:#006631;}
	.st30{fill:#00592B;}
	.st31{fill:#035B73;stroke:#003642;stroke-width:0.25;}
	.st32{fill:#02495C;stroke:#003642;stroke-width:0.25;}
	.st33{fill:#02495C;}
	.st34{fill:#820000;stroke:#730000;}
	.st35{fill:#5C0000;stroke:#5A3D1C;stroke-width:0.25;}
	.st36{fill:#780000;}
	.st37{fill:#006B33;stroke:#003642;stroke-width:0.25;}
	.st38{fill:#00592B;stroke:#003642;stroke-width:0.25;}
	.st39{fill:#DB8C3D;stroke:#003642;stroke-width:0.25;}
	.st40{fill:#C2803D;}
	.st41{fill:#DB6D00;stroke:#003642;stroke-width:0.25;}
	.st42{fill:#3F3F3F;stroke:#3F3F3F;stroke-width:0.25;}
	.st43{stroke:#3F3F3F;stroke-width:0.25;}
	.st44{fill:#262626;}
	.st45{fill:#5A3D1C;stroke:#003642;stroke-width:0.25;}
	.st46{fill:#52361A;}
	.st47{fill:#422C15;stroke:#003642;stroke-width:0.25;}
	.st48{fill:#FFFFFF;stroke:#E8E8E8;}
	.st49{fill:#E3E3E3;}
	.st50{fill:#B2B2B2;}
	.st51{fill:#FFBF00;}
	.st52{fill:#F5B700;}
	.st53{fill:#EBAF00;stroke:#D19D00;stroke-width:0.25;}
	.st54{fill:#D010B1;}
	.st55{fill:#A60D8C;}
	.st56{fill:#00A33D;}
	.st57{fill:#008033;}
	.st58{fill:#00D4FF;}
	.st59{fill:#00ABFF;}
	.st60{fill:#0A0A0A;stroke:#000000;}
	.st61{fill:#666666;stroke:#000000;stroke-width:0.25;}
	.st62{stroke:#000000;}
	.st63{fill:#00B800;}
	.st64{fill:#009C00;}
	.st65{fill:#3F3F3F;}
	.st66{fill:#73A334;stroke:#8CC63F;stroke-width:0.1;}
	.st67{fill:#8CC63F;stroke:#8CC63F;stroke-width:0.1;}
	.st68{fill:#545454;}
	.st69{fill:#7558A4;}
	.st70{fill:#7536D1;}
	.st71{fill:#E2BB95;stroke:#D5AF8C;}
	.st72{fill:#D5AF8C;}
	.st73{fill:#E2BB95;stroke:#D5AF8C;stroke-width:0.5;}
	.st74{fill:#9E2231;}
	.st75{fill:#B72837;}
	.st76{fill:#FFE085;}
	.st77{fill:#EBCE7A;}
	.st78{fill:url(#SVGID_1_);}
	.st79{fill:url(#SVGID_2_);}
	.st80{fill:url(#SVGID_3_);}
	.st81{fill:#D00204;}
	.st82{fill:#D10507;}
	.st83{fill:#D3090B;}
	.st84{fill:#D40C0E;}
	.st85{fill:#D51012;}
	.st86{fill:#D71315;}
	.st87{fill:#D81718;}
	.st88{fill:#D91A1C;}
	.st89{fill:#DB1E1F;}
	.st90{fill:#DC2122;}
	.st91{fill:#DD2526;}
	.st92{fill:#DF2829;}
	.st93{fill:#E02C2D;}
	.st94{fill:#E22F30;}
	.st95{fill:#E33333;}
	.st96{fill:#E43637;}
	.st97{fill:#E63A3A;}
	.st98{fill:#E73D3E;}
	.st99{fill:#E84141;}
	.st100{fill:#EA4444;}
	.st101{fill:#EB4848;}
	.st102{fill:#EC4B4B;}
	.st103{fill:#EE4F4E;}
	.st104{fill:#EF5252;}
	.st105{fill:#F05655;}
	.st106{fill:#F25A59;}
	.st107{fill:#F35D5C;}
	.st108{fill:#047A04;}
	.st109{fill:#57B328;}
	.st110{fill:#507F29;}
	.st111{fill:#DDBB06;}
	.st112{fill:#A80000;}
	.st113{fill:#9E0000;}
	.st114{fill:#8F0000;stroke:#610000;stroke-width:0.25;}
	.st115{fill:#5A3D1C;stroke:#805426;}
	.st116{fill:#63421F;}
	.st117{fill:#5A3D1C;stroke:#6B4620;}
	.st118{fill:url(#SVGID_4_);}
	.st119{fill:#171717;stroke:#000000;}
	.st120{fill:#212121;}
	.st121{fill:url(#SVGID_5_);}
	.st122{fill:#3F3F3F;stroke:#3F3F3F;}
	.st123{fill:#8C8C8C;stroke:#3F3F3F;}
	.st124{fill:#808080;}
	.st125{fill:url(#SVGID_6_);}
	.st126{fill:none;}
	.st127{fill:#D4D4D4;}
	.st128{fill:#D4D4D4;stroke:#B8B8B8;stroke-width:0.5;}
	.st129{fill:#D4D4D4;stroke:#B8B8B8;stroke-width:0.2;}
	.st130{fill:#C7C7C7;}
	.st131{fill:#DBF8FF;stroke:#7DBDCC;stroke-width:0.25;}
	.st132{fill:#C2F3FF;}
	.st133{fill:#F2F2F2;}
	.st134{fill:url(#SVGID_7_);stroke:#000000;}
	.st135{fill:#42210B;stroke:#000000;}
	.st136{fill:#C69C6D;stroke:#000000;}
	.st137{fill:#93278F;stroke:#000000;}
	.st138{fill:#589F3E;}
	.st139{fill:#4D8F39;}
	.st140{fill:#963528;}
	.st141{fill:#AC3A2D;}
	.st142{fill:#211915;}
	.st143{fill:#444242;}
	.st144{fill:#1A1A1A;}
	.st145{fill:#FFFFFF;}
	.st146{fill:#2E2E2E;}
	.st147{fill:#363636;}
	.st148{fill:#666666;}
	.st149{fill:#C69C6D;}
	.st150{fill:#B38D62;}
	.st151{fill:#A67C52;}
	.st152{fill:#8C6239;}
	.st153{fill:#9E10D2;}
	.st154{fill:#8210D2;}
	.st155{fill:#6B6B6B;}
	.st156{fill:#008C08;}
	.st157{fill:#00A308;}
	.st158{fill:#EC2024;}
	.st159{fill:#E31E26;}
	.st160{fill:#BED63A;}
	.st161{fill:#EC1C24;}
	.st162{fill:#00ADEE;}
	.st163{fill:#2E3191;}
</style>
<g>
	<g>
		<path class="st0" d="M104.72,76.19c-3.81-1.97-9.05-4.3-9.57-5.18c-2.22-3.76-2.21-13.48-1.8-17.48h-1.01H60.59h-1.01
			c0.4,4,0.92,13.87-1.54,17.48c-0.39,0.58-6.05,3.17-9.83,5.18c-3.14,1.66-11.71,6.88-12.87,7.31c0.3,0.39,4.09,11.7,8.1,17.76
			c1.84,2.78,2.7,5.47,5.05,7.78c2.43,2.38,5.21,4.34,8.26,5.68c3.67,1.61,7.6,2.4,11.55,2.64c2.7,0.17,5.44,0.14,8.16-0.08
			c2.72,0.23,5.46,0.25,8.16,0.08c3.95-0.25,7.88-1.03,11.55-2.64c3.05-1.34,5.83-3.3,8.26-5.68c2.36-2.31,3.12-5,4.97-7.78
			c4.01-6.06,8.39-17.43,8.69-17.82C116.91,83.05,107.7,77.73,104.72,76.19z"/>
		<g>
			<path class="st0" d="M125.63,95.53c-0.11-0.09-6.89-2.91-7-3c-4.13-3.44,1.37-8.53-2.5-9.97c-4.08-1.52-21.55,3.81-37.23,3.82
				c-0.04,0-1.38,0.03-2.27,0.05c-0.89-0.02-2.23-0.05-2.27-0.05c-15.69-0.01-27.57-9.43-27.57-9.43s-8.39,4.41-12.48,5.94
				C30.45,84.32,130.85,102.32,125.63,95.53z"/>
		</g>
		<path class="st0" d="M99.13,33.98c0,0-0.19-11.41-0.31-16.03C98.7,12.96,98.44,5.27,84.18,0.9c-0.8-0.25-4.33-0.84-7.76-0.83
			c-3.21,0.01-6.33,0.6-7.08,0.83c-3.78,1.16-6.57,2.9-9.35,5.38c-3.8,3.38-5.33,6.68-5.45,11.67c-0.12,4.62-0.23,16.03-0.23,16.03
			c-4.37-3.68-4.41,0.8-4.2,3.23c0.29,3.3,1.29,5.77,2.3,7.83c0.67,1.37,1.38,3.34,3.37,3.42c0.75,0.03,1.24-0.55,1.24-0.55
			s0.32,4.75,0.49,6.06c0.51,3.9,9.13,14.86,13.98,15.83c1.47,0.29,9.06,0.3,10.43,0.04c4.79-0.93,13.64-11.86,14.16-15.87
			c0.17-1.31,0.49-6.06,0.49-6.06s0.49,0.58,1.24,0.55c1.99-0.08,2.47-2.05,3.14-3.42c1.01-2.05,2.38-5.21,2.46-8.53
			C103.47,34.12,103.51,30.3,99.13,33.98z"/>
		<g>
			<g>
				<path class="st1" d="M54.96,41.37c0.11-0.01-0.87-3.58-1.45-5c-0.63-1.54-1.27-1.87-1.66-1.85c-0.74,0.04-1,3.47-1,3.47
					s0.54-3.68,2.2-0.72C53.5,38.1,54.83,41.38,54.96,41.37z"/>
				<path class="st1" d="M52.36,37.9c0.05-0.24,0.3-1.65,0.5-1.66c0.24-0.01,0.24,1.01,0.19,1.17c-0.16,0.5-0.32,1-0.43,1.54
					c-0.11,0.56-0.12,1.1-0.11,1.68c0.01,0.51,0.12,1.11,0.22,1.6c-0.39-0.38-0.49-1.9-0.5-2.47C52.21,38.77,52.25,38.46,52.36,37.9
					z"/>
				<path class="st2" d="M55.32,44.25c-0.03-0.09-0.56-1.27-0.6-1.36c-0.38-0.87,0.43,0.25,0.51,0.35c0.4,0.56,0.69,0.87,0.97,1.35
					c0.24,0.41,0.12,1.04-0.43,1.1c-0.46,0.05-1.04-0.39-1.23-1.04C54.5,44.56,55.73,45.37,55.32,44.25z"/>
			</g>
			<g>
				<path class="st1" d="M98.58,41.37c-0.11-0.01,0.87-3.58,1.45-5c0.63-1.54,1.27-1.88,1.66-1.85c0.74,0.04,1,3.47,1,3.47
					s-0.54-3.68-2.2-0.73C100.04,38.1,98.71,41.38,98.58,41.37z"/>
				<path class="st1" d="M101.18,37.9c-0.05-0.24-0.3-1.65-0.5-1.66c-0.24-0.01-0.24,1.01-0.19,1.17c0.16,0.5,0.32,1,0.43,1.54
					c0.11,0.56,0.12,1.1,0.11,1.68c-0.01,0.51-0.12,1.11-0.22,1.6c0.39-0.38,0.49-1.9,0.5-2.47
					C101.33,38.77,101.29,38.46,101.18,37.9z"/>
				<path class="st2" d="M98.22,44.25c0.03-0.09,0.56-1.27,0.6-1.36c0.38-0.87-0.43,0.25-0.51,0.35c-0.4,0.56-0.69,0.87-0.97,1.35
					c-0.24,0.41-0.12,1.04,0.43,1.1c0.46,0.05,1.04-0.39,1.24-1.04C99.03,44.56,97.81,45.37,98.22,44.25z"/>
			</g>
		</g>
	</g>
	<g>
		<g>
			<path class="st0" d="M117.45,75.76c2.49,0.93,6.92,7.62,7.71,8.42c0.02,0.02,2.73,1.56,2.8,1.71c3,6.43,9.23,17.83,9.04,24.23
				c-0.2,6.57,2.72,28.01,3.26,37.13c0.53,9.13,1.92,23.82,2.09,34.41c0.07,4.59,0.81,12.51,0.81,12.51l-16,1
				c0,0-0.82-4.47-1.06-8.62c-0.36-6.2-3.66-38.26-4.45-44.18c-1.21-9.19-2.18-28.36-2.18-28.36S115.83,75.15,117.45,75.76z"/>
		</g>
		<g>
			<path class="st0" d="M35.34,73.11c-2.49,0.93-6.92,7.62-7.71,8.42c-0.02,0.02-2.73,1.56-2.8,1.71c-3,6.43-9.23,17.83-9.04,24.23
				c0.2,6.57-2.72,28.01-3.26,37.13c-0.53,9.13-1.92,23.82-2.09,34.41c-0.07,4.59-0.81,12.51-0.81,12.51l16,1
				c0,0,0.82-4.47,1.06-8.62c0.36-6.2,3.66-38.26,4.45-44.18c1.21-9.19,2.18-28.36,2.18-28.36S36.96,72.5,35.34,73.11z"/>
		</g>
		<g>
			<path class="st21" d="M95.31,64.48c0,0,6.93,2.71,8.03,3.63c1.09,0.93,6.95,10.74,6.95,16.5c0,5.75,0.45,9.65,0.45,13.94
				c0,4.27-0.07,23.39-0.45,27.1c-0.38,3.71,1.06,21.09,1.06,24.17c0,3.07,2.6,9.49,2.6,11.98c0,2.5,2.27,11.41,2.27,17.27
				c0,5.84,0,13.13,0,13.13s-29.61-0.96-42.65-0.96c-13.05,0-36.2,1.83-36.2,1.83s-2.49-5.94-0.9-13.42
				c1.59-7.48,6.69-29.82,6.69-33.27c0-3.47,0.11-17.56,0.11-17.56s-1.13-28.47-1.13-33.36c0-4.9,0.34-14.19,2.6-19.47
				c2.28-5.27,5.06-9.16,5.57-9.58c0.51-0.44,5.22-1.22,5.22-1.22s19.39,7.74,27.78,5.05C91.72,67.54,95.31,64.48,95.31,64.48z"/>
			<path class="st22" d="M45.17,76.43c0.3,0,1.51,3.33,1.51,5.43c0,2.12-0.65,6.23,0.68,7.36c1.32,1.11,0.15,3.57-0.53,5.5
				c-0.68,1.91-1.32,13.97,0.37,15.4c1.7,1.44,3.18-0.7,5.67-1.6c2.5-0.89,2.95-1.59,0.39,2.11c-2.57,3.71-5.83,5.44-2.2,7.73
				c3.63,2.3,9.23,3.96,4.99,3.96c-4.24,0-7.41,0.07-7.41,0.07s3.18,4.54,5.45,7.55c2.27,3,5.98,2.42,6.28,2.42
				c0.3,0,0.3-0.51,0.3,0c0,0.51-0.75,3.14-5.9,2.12c-5.13-1.03-7.33-2.43-7.33,0.06c0,2.5-0.08,10.29,1.73,15.99
				c1.82,5.68,0.61,5.5,3.71,5.94c3.11,0.46-2.11-0.39-4.76,2.75c-2.65,3.14-6.73,7.03-1.59,10.11c5.14,3.07,6.2,3.07,7.63,3.07
				c1.44,0-7.18-0.7-8.69,2.1c-1.51,2.82-1.66,2.43-0.61,4.92c1.06,2.5-7.04,2.82-5.83,4.6c1.22,1.78,6.5,1.66,11.88,1.66
				c5.37,0,1.51,1.21-0.99,2.24c-2.49,1.02,2.58,3.19,3.64,3.19c1.06,0-0.03,0.86-0.03,0.86s-6.91,0.69-10.69,0.69
				c-3.8,0-5.57,0.09-5.57,0.09s-1.31-4.78-1.31-7.28c0-2.49,0.77-7.09,1.42-10.06c0.65-2.95,2.32-10.58,2.84-13.02
				c0.51-2.43,2.29-10.86,2.6-13.15c0.32-2.31,0.35-4.22,0.37-7.19c0.02-2.99,0.1-12.31,0.09-12.95
				c-0.01-0.64-0.57-15.05-0.57-15.05l-0.56-19.14c0,0,0.48-13.72,1.47-16.14c0.99-2.43,1.44-2.43,1.44-2.43L45.17,76.43z"/>
			<path class="st22" d="M110.45,92.76c0,0-2.05-0.19-2.05,5.65c0,5.86-0.23,9.6-2.62,11.6c-2.38,2.02-8.5,0.67-4.42,2.12
				c4.09,1.43,4.77,1.43,4.77,1.43s-0.9-0.2-2.89,2.45c-1.99,2.64-5.5,4.55-3.57,5.42c1.93,0.86,5,1.92,5,1.92s3.74,6.9,1.12,9.1
				c-2.6,2.21-2.72,4.32-6.8,4.32c-4.08,0-9.3-0.96-6.24,1.63c3.07,2.59,9.53,4.13,10.11,4.13c0.56,0,2.94,4.88,2.94,4.88
				s-5.22,1.06-7.48,2.97c-2.27,1.92,3.29,2.5,5.79,3.75c2.49,1.24,4.87,4.02,4.87,9.01c0,4.99-0.45,11.22-5.21,12.86
				c-4.77,1.62-5.62,2.35-5.62,2.35s1.65,2.92,6.41,1.49c4.77-1.44,8.28-0.96,8.28-0.96s0.35,5.84-0.69,6.71
				c-1.02,0.87,4.08,1.83,4.08,1.83s0.13-8.11-0.06-10.23c-0.19-2.12-1.34-9.52-1.56-10.81c-0.22-1.27-1-6.97-1.49-8.73
				c-0.5-1.77-1.66-5.58-1.76-7.99c-0.11-2.4-0.52-9.1-0.52-9.1l-0.59-11.67l0.32-10.76l0.12-13.89L110.45,92.76z"/>
			<path class="st23" d="M59.17,62.75c0,0,3.85,5.82,14.58,5.82c10.75,0,10.29,0.45,13.54-0.7c3.26-1.15,6.13-4.68,6.13-4.68
				l3.63,2.51c0,0-6.05,5.11-9.46,5.94c-3.4,0.83-11.19,1.35-14.3,1.09c-3.09-0.26-13.15-2.94-15.2-4.1
				c-2.04-1.14-2.56-3.45-2.56-3.45L59.17,62.75z"/>
			<path class="st23" d="M50.31,66.39c0,0-10.96,1.22-14.97,2.82c-4,1.61-13.09,17.08-13.09,17.08l-5.9,17.06l17.37,7.74l8.58-9.34
				C42.31,101.75,46.23,69.34,50.31,66.39z"/>
			<path class="st23" d="M102.67,67.7c0,0,10.96,1.62,14.97,3.23c4.01,1.6,7.11,7.23,9.68,10.23c2.57,3.01,9.31,23.9,9.31,23.9
				l-17.23,7.68l-8.72-9.28C110.68,103.46,108.82,71.92,102.67,67.7z"/>
		</g>
	</g>
</g>
</svg>
