<?xml version="1.0" encoding="utf-8"?>
<!-- Generator: Adobe Illustrator 23.0.6, SVG Export Plug-In . SVG Version: 6.00 Build 0)  -->
<svg version="1.1" id="Capa_1" xmlns="http://www.w3.org/2000/svg" xmlns:xlink="http://www.w3.org/1999/xlink" x="0px" y="0px"
	 viewBox="0 0 152.79 186.83" enable-background="new 0 0 152.79 186.83" xml:space="preserve">
<g>
	<g>
		<path fill="#F0AC80" d="M104.47,76.12c-3.81-1.97-11.58-4.78-12.09-5.66c-2.22-3.76,0.32-13,0.72-17h-1.01H60.34h-1.01
			c0.4,4,3.51,13.39,1.05,17c-0.39,0.58-8.63,3.65-12.42,5.66c-3.14,1.66-11.71,6.88-12.87,7.31c0.3,0.39,4.09,11.7,8.1,17.76
			c1.84,2.78,2.7,5.47,5.05,7.78c2.43,2.38,5.21,4.34,8.26,5.68c3.67,1.61,7.6,2.4,11.55,2.64c2.7,0.17,5.44,0.14,8.16-0.08
			c2.72,0.23,5.46,0.25,8.16,0.08c3.95-0.25,7.88-1.03,11.55-2.64c3.05-1.34,5.83-3.3,8.26-5.68c2.36-2.31,3.12-5,4.97-7.78
			c4.01-6.06,8.39-17.43,8.69-17.82C116.66,82.98,107.45,77.67,104.47,76.12z"/>
		<g>
			<path fill="#F0AC80" d="M125.37,95.46c-0.11-0.09-6.89-2.91-7-3c-4.13-3.44,1.37-8.53-2.5-9.97c-4.08-1.52-21.55,3.81-37.23,3.82
				c-0.04,0-1.38,0.03-2.27,0.05c-0.89-0.02-2.23-0.05-2.27-0.05c-15.69-0.01-27.57-9.43-27.57-9.43s-8.39,4.41-12.48,5.94
				C30.2,84.25,130.59,102.26,125.37,95.46z"/>
		</g>
		<path fill="#F0AC80" d="M98.88,33.91c0,0-0.19-11.41-0.31-16.03C98.44,12.89,98.19,5.2,83.93,0.83C83.13,0.58,79.6-0.01,76.17,0
			c-3.21,0.01-6.33,0.6-7.08,0.83c-3.78,1.16-6.57,2.9-9.35,5.38c-3.8,3.38-5.33,6.68-5.45,11.67c-0.12,4.62-0.23,16.03-0.23,16.03
			c-4.37-3.68-4.41,0.8-4.2,3.23c0.29,3.3,1.29,5.77,2.3,7.83c0.67,1.37,1.38,3.34,3.37,3.42c0.75,0.03,1.24-0.55,1.24-0.55
			s0.32,4.75,0.49,6.06c0.51,3.9,9.13,14.86,13.98,15.83c1.47,0.29,9.06,0.3,10.43,0.04c4.79-0.93,13.64-11.86,14.16-15.87
			c0.17-1.31,0.49-6.06,0.49-6.06s0.49,0.58,1.24,0.55c1.99-0.08,2.47-2.05,3.14-3.42c1.01-2.05,2.38-5.21,2.46-8.53
			C103.22,34.06,103.25,30.23,98.88,33.91z"/>
		<g>
			<g>
				<path fill-rule="evenodd" clip-rule="evenodd" fill="#D68B62" d="M54.7,41.31c0.11-0.01-0.87-3.58-1.45-5
					c-0.63-1.54-1.27-1.87-1.66-1.85c-0.74,0.04-1,3.47-1,3.47s0.54-3.68,2.2-0.72C53.25,38.03,54.57,41.32,54.7,41.31z"/>
				<path fill-rule="evenodd" clip-rule="evenodd" fill="#D68B62" d="M52.1,37.83c0.05-0.24,0.3-1.65,0.5-1.66
					c0.24-0.01,0.24,1.01,0.19,1.17c-0.16,0.5-0.32,1-0.43,1.54c-0.11,0.56-0.12,1.1-0.11,1.68c0.01,0.51,0.12,1.11,0.22,1.6
					c-0.39-0.38-0.49-1.9-0.5-2.47C51.95,38.71,52,38.39,52.1,37.83z"/>
				<path fill-rule="evenodd" clip-rule="evenodd" fill="#E8A073" d="M55.07,44.18c-0.03-0.09-0.56-1.27-0.6-1.36
					c-0.38-0.87,0.43,0.25,0.51,0.35c0.4,0.56,0.69,0.87,0.97,1.35c0.24,0.41,0.12,1.04-0.43,1.1c-0.46,0.05-1.04-0.39-1.23-1.04
					C54.25,44.49,55.48,45.31,55.07,44.18z"/>
			</g>
			<g>
				<path fill-rule="evenodd" clip-rule="evenodd" fill="#D68B62" d="M98.33,41.31c-0.11-0.01,0.87-3.58,1.45-5
					c0.63-1.54,1.27-1.88,1.66-1.85c0.74,0.04,1,3.47,1,3.47s-0.54-3.68-2.2-0.73C99.78,38.03,98.46,41.32,98.33,41.31z"/>
				<path fill-rule="evenodd" clip-rule="evenodd" fill="#D68B62" d="M100.93,37.83c-0.05-0.24-0.3-1.65-0.5-1.66
					c-0.24-0.01-0.24,1.01-0.19,1.17c0.16,0.5,0.32,1,0.43,1.54c0.11,0.56,0.12,1.1,0.11,1.68c-0.01,0.51-0.12,1.11-0.22,1.6
					c0.39-0.38,0.49-1.9,0.5-2.47C101.08,38.71,101.03,38.39,100.93,37.83z"/>
				<path fill-rule="evenodd" clip-rule="evenodd" fill="#E8A073" d="M97.96,44.18c0.03-0.09,0.56-1.27,0.6-1.36
					c0.38-0.87-0.43,0.25-0.51,0.35c-0.4,0.56-0.69,0.87-0.97,1.35c-0.24,0.41-0.12,1.04,0.43,1.1c0.46,0.05,1.04-0.39,1.24-1.04
					C98.78,44.49,97.55,45.31,97.96,44.18z"/>
			</g>
		</g>
	</g>
	<g>
		<path fill="#820000" stroke="#730000" d="M57.36,71.85c0,0-6.99,3.21-8.09,4.32c-1.11,1.11-7.01,12.81-7.01,19.66
			c0,6.85-0.47,11.51-0.47,16.61s0.08,27.88,0.47,32.29c0.39,4.41-1.07,25.15-1.07,28.81c0,3.64-2.62,11.3-2.62,14.27
			c0,2.97-2.29,13.61-2.29,20.57c0,6.98,0,15.66,0,15.66s29.83-1.15,42.97-1.15c13.15,0,36.46,2.18,36.46,2.18s2.51-7.09,0.91-16
			c-1.6-8.93-6.74-35.53-6.74-39.64c0-4.12-0.11-20.93-0.11-20.93s1.13-33.94,1.13-39.75c0-5.82-0.33-16.91-2.63-23.2
			c-2.28-6.28-5.09-10.92-5.6-11.43c-0.51-0.52-5.25-1.45-5.25-1.45s-19.55,9.21-28,6.02C60.95,75.49,57.36,71.85,57.36,71.85z"/>
		<path fill="#820000" stroke="#730000" d="M102.67,74.11c0,0,12.23,1.27,17.22,6.24c4.99,4.99,7.46,20.51,8.68,29.03
			c1.22,8.54,2.97,23.38,3.66,30.01c0.68,6.63,0.98,14.78,1.52,15.31c0.53,0.55,1.3,3.66,0.84,10.22
			c-0.45,6.55,2.13,29.24,2.13,33.51c0,4.25-0.61,22.77-0.61,22.77l0,0l-16.73-0.37c0,0-0.03-3.15-0.41-8.01
			c-0.38-4.88-4.72-26.98-4.19-32.98c0.53-6.02-0.69-11.59-0.69-14.17c0-2.61-2.51-13.95-2.51-14.86c0-0.92-1.82-3.43-1.82-3.43
			s0.51-14.91,0.63-18.81c0.11-3.88,0.44-14.17,0.47-17.61c0.02-3.42-0.44-11.35-0.44-13.77c0-2.44-0.71-5.99-1-7.37
			c-0.3-1.36-1.75-5.87-2-6.52c-0.27-0.64-2.61-5.67-2.88-6.15C104.28,76.71,102.67,74.11,102.67,74.11z"/>
		<path fill="#820000" stroke="#730000" d="M52.63,74.16c0,0-10.33,1.52-13.63,3.11c-3.32,1.6-5.57,2.24-8.17,4.83
			c-2.58,2.6-6.7,20.88-6.7,27.51s-1.08,19.81-2.14,24.38c-1.06,4.57-2.43,12.12-2.43,14.54c0,2.46-4.04,18.68-3.43,26.45
			c0.61,7.77,1.68,21.33,1.22,28.79c-0.45,7.46-1.97,15.49,0.92,18.36c0.81,0.81,14.54,0.61,15.08-1.08
			c0.53-1.67,0.14-14.4,0.61-17.52c0.45-3.11,2.05-22.61,2.82-26.72c0.76-4.12,1.3-15.39,2.52-20.41c1.22-5.04,3-11.28,3-11.28
			s-0.46-21.33-0.46-24.14c0-2.83,0.4-21.63,0.43-23.77c0.03-2.13,0.07-3.99,0.71-6.28c0.62-2.26,2.72-7.99,3.38-9.39
			c0.67-1.43,1.53-3.34,2.22-4.35C49.27,76.17,52.63,74.16,52.63,74.16z"/>
		<path fill="#780000" d="M107.85,86.08c-0.31,0-1.52,3.95-1.52,6.47c0,2.52,0.64,7.43-0.67,8.76c-1.35,1.33-0.16,4.25,0.52,6.54
			c0.68,2.28,1.32,16.64-0.38,18.36c-1.71,1.72-3.2-0.85-5.71-1.91c-2.52-1.07-2.98-1.9-0.39,2.52c2.59,4.41,5.87,6.48,2.22,9.21
			c-3.66,2.75-9.31,4.73-5.03,4.73c4.26,0,7.46,0.08,7.46,0.08s-3.2,5.39-5.48,8.98c-2.29,3.59-6.02,2.9-6.32,2.9
			c-0.31,0-0.31-0.62-0.31,0c0,0.61,0.75,3.72,5.94,2.52c5.18-1.22,7.4-2.91,7.4,0.06c0,2.97,0.08,12.26-1.76,19.05
			c-1.82,6.78-0.61,6.55-3.72,7.07c-3.12,0.55,2.12-0.45,4.8,3.28c2.66,3.74,6.77,8.37,1.6,12.05c-5.18,3.64-6.25,3.64-7.7,3.64
			c-1.44,0,7.24-0.83,8.76,2.5c1.53,3.37,1.68,2.91,0.61,5.87c-1.08,2.97,7.08,3.35,5.86,5.49c-1.22,2.13-6.55,1.98-11.96,1.98
			c-5.41,0-1.52,1.44,1,2.66c2.52,1.23-2.59,3.82-3.66,3.82c-1.07,0,0.04,1.02,0.04,1.02s6.95,0.82,10.77,0.82s5.61,0.13,5.61,0.13
			s1.32-5.72,1.32-8.68c0-2.97-0.79-8.46-1.44-11.99c-0.66-3.53-2.33-12.61-2.86-15.52c-0.52-2.89-2.3-12.95-2.63-15.67
			c-0.32-2.75-0.34-5.03-0.36-8.57c-0.02-3.55-0.1-14.67-0.09-15.42c0.01-0.77,0.56-17.95,0.56-17.95l0.57-22.82
			c0,0-0.48-16.34-1.48-19.24c-1.01-2.87-1.46-2.87-1.46-2.87L107.85,86.08z"/>
		<path fill="#780000" d="M42.1,105.53c0,0,2.07-0.22,2.07,6.74c0,6.96,0.22,11.43,2.62,13.84c2.4,2.39,8.56,0.8,4.46,2.5
			c-4.11,1.73-4.79,1.73-4.79,1.73s0.91-0.24,2.91,2.9c1.99,3.15,5.54,5.43,3.59,6.45c-1.94,1.03-5.02,2.28-5.02,2.28
			s-3.77,8.25-1.15,10.86c2.63,2.64,2.75,5.13,6.86,5.13c4.11,0,9.37-1.14,6.28,1.94c-3.08,3.1-9.59,4.93-10.16,4.93
			c-0.58,0-2.98,5.83-2.98,5.83s5.26,1.25,7.54,3.53c2.28,2.29-3.3,2.97-5.83,4.46c-2.51,1.48-4.91,4.8-4.91,10.74
			c0,5.95,0.45,13.37,5.25,15.31c4.8,1.94,5.66,2.81,5.66,2.81s-1.65,3.49-6.45,1.77c-4.8-1.72-8.34-1.14-8.34-1.14
			s-0.34,6.97,0.69,8.01c1.02,1.01-4.13,2.15-4.13,2.15s-0.12-9.66,0.08-12.18c0.19-2.53,1.33-11.33,1.58-12.87
			c0.23-1.52,0.99-8.3,1.49-10.4c0.5-2.1,1.67-6.66,1.77-9.51c0.1-2.88,0.52-10.87,0.52-10.87l0.59-13.88l-0.33-12.86l-0.13-16.53
			L42.1,105.53z"/>
		<path fill="#780000" d="M26.7,93.59c0,0,5.44,6.28,8.02,10.39c2.59,4.11,5.03,11.43,0,8.22c-5.03-3.19-6.55-3.8-6.55,0
			c0,3.82,3.51,7.01,5.48,10.36c1.99,3.36-2.66-1.29-5.63-4.27c-2.97-2.97-3.97-4.88-3.97-4.88s0.4-8.23,0.69-9.96
			c0.28-1.73,1.16-6.34,1.32-7.07C26.21,95.65,26.7,93.59,26.7,93.59z"/>
		<path fill="#780000" d="M23.58,121.26c0,0,9.53,5.57,11.75,8.39c2.21,2.81,7.93,8.37,4.27,7.16c-3.66-1.22-11.66-9.29-12.41-9.29
			c-0.76,0-4.03,2.58-2.21,6.02c1.84,3.42-0.15,3.95-1.6,4.33c-1.45,0.38-1.22,15.55,1.36,17.22c2.6,1.69,5.43,2.2,4.74,2.89
			c-0.69,0.69-4.42,0.47-6.02,0.47c-1.61,0,1.9,0.22,1.9,2.28c0,2.07-2.89,0.16-4.34,0.84c-1.45,0.69-0.42,2.87,0.83,4.13
			c1.26,1.25-1.91,1.25-2.81,1.25c-0.93,0-2.34-1.35-2.34-1.35s0.94-5.89,1.21-7.46c0.29-1.57,1.58-9.26,1.7-10.42
			c0.11-1.17,1.04-7.13,1.22-8.06c0.18-0.94,1.15-5.15,1.46-7.09C22.58,130.63,24.27,121.95,23.58,121.26z"/>
		<path fill="#780000" d="M124.69,90.08c0,0,2.85,12.47,3.24,15.02c0.39,2.55,2.09,15.29,2.09,15.29s-0.72,2.64-4.39,2.64
			c-3.65,0-2.74-0.91-1.82-3.79c0.92-2.84,3.43-9.01,0.92-11.52c-2.51-2.52-1.72,3.88-4.56,5.71c-2.87,1.82-0.47-3.79-0.47-10.51
			c0-6.74,0.8-12.23-1.36-16.34c-2.18-4.13,0.58-7.08,0.58-7.08S123.45,85.46,124.69,90.08z"/>
		<path fill="#780000" d="M109.86,145.52c0,0,1.84,2.18,6.06,4.35c4.24,2.16,5.6,3.88,3.19,3.88c-2.4,0-3.64-0.56-3.64-0.56
			s2.62,1.46,4.1,2.95c1.49,1.5-1.14,0.92-2.96,0.92c-1.83,0-2.63,2.63,1.48,3.42c4.12,0.8,8.91,2.07,5.37,2.07
			c-3.54,0-6.63-0.45-6.63,0.67c0,1.16,2.41,2.43,0.8,4.02c-1.6,1.61-3.31,1.38-3.31,1.38s-0.47-4.21-0.47-5.14
			c0-0.93-1.2-6.75-1.2-6.75s-0.84-4.16-0.96-5.05c-0.12-0.86-1.91-4.23-1.91-4.23L109.86,145.52z"/>
		<path fill="#5C0000" stroke="#5A3D1C" stroke-width="0.25" d="M93.76,69.78c0,0-3.89,6.93-14.71,6.93
			c-10.82,0-10.36,0.53-13.63-0.85c-3.28-1.37-6.17-5.55-6.17-5.55l-3.65,2.97c0,0,6.08,6.1,9.51,7.08c3.44,1,11.27,1.6,14.4,1.3
			c3.12-0.3,13.25-3.5,15.3-4.88c2.07-1.36,2.6-4.11,2.6-4.11L93.76,69.78z"/>
	</g>
</g>
</svg>
