<?xml version="1.0" encoding="utf-8"?>
<!-- Generator: Adobe Illustrator 23.0.6, SVG Export Plug-In . SVG Version: 6.00 Build 0)  -->
<svg version="1.1" id="Capa_1" xmlns="http://www.w3.org/2000/svg" xmlns:xlink="http://www.w3.org/1999/xlink" x="0px" y="0px"
	 viewBox="0 0 152.79 186.83" enable-background="new 0 0 152.79 186.83" xml:space="preserve">
<g>
	<g>
		<path fill="#F0AC80" d="M99.92,76.06c-3.81-1.96-9.07-4.26-9.59-5.14c-2.24-3.75-2.27-13.47-1.88-17.47l-1.01,0L55.69,53.6
			l-1.01,0c0.42,4,0.98,13.87-1.46,17.49c-0.39,0.58-6.03,3.2-9.81,5.22c-3.13,1.68-11.68,6.93-12.84,7.37
			c0.3,0.39,4.14,11.68,8.18,17.72c1.86,2.78,2.72,5.46,5.09,7.76c2.44,2.37,5.23,4.31,8.29,5.64c3.67,1.6,7.62,2.36,11.56,2.59
			c2.7,0.16,5.44,0.12,8.16-0.12c2.72,0.22,5.46,0.23,8.16,0.05c3.94-0.26,7.88-1.06,11.54-2.69c3.05-1.36,5.82-3.32,8.24-5.72
			c2.35-2.32,3.1-5.01,4.93-7.8c3.98-6.07,8.32-17.47,8.62-17.86C112.15,82.87,102.91,77.59,99.92,76.06z"/>
		<g>
			<path fill="#F0AC80" d="M129.72,93.62c-0.11-0.09-1.18-1.48-1.29-1.57c-4.14-3.43-13.2-8.25-17.08-9.67
				c-4.09-1.5-21.53,3.9-37.22,3.98c-0.04,0-1.38,0.04-2.26,0.06c-0.89-0.02-2.23-0.04-2.27-0.04C53.92,86.44,42,77.07,42,77.07
				s-8.37,4.45-12.45,5.99C25.69,84.52,134.97,100.4,129.72,93.62z"/>
		</g>
		<path fill="#F0AC80" d="M94.15,33.88c0,0-0.24-11.41-0.38-16.03c-0.15-4.99-0.44-12.67-14.72-16.99c-0.8-0.24-4.33-0.82-7.77-0.8
			c-3.21,0.02-6.33,0.63-7.08,0.86c-3.77,1.18-6.55,2.93-9.33,5.43c-3.78,3.4-5.3,6.7-5.4,11.69c-0.1,4.62-0.16,16.03-0.16,16.03
			c-4.39-3.66-4.41,0.82-4.18,3.25c0.31,3.3,1.32,5.77,2.34,7.82c0.68,1.36,1.39,3.33,3.39,3.4c0.75,0.03,1.23-0.56,1.23-0.56
			s0.34,4.75,0.52,6.06c0.52,3.9,9.19,14.82,14.05,15.77c1.47,0.29,9.06,0.26,10.43-0.01c4.79-0.95,13.59-11.92,14.09-15.93
			c0.16-1.31,0.47-6.06,0.47-6.06s0.49,0.58,1.24,0.55c1.99-0.09,2.46-2.06,3.12-3.43c1-2.06,2.35-5.22,2.42-8.54
			C98.49,34.01,98.5,30.18,94.15,33.88z"/>
		<g>
			<g>
				<path fill-rule="evenodd" clip-rule="evenodd" fill="#D68B62" d="M50.01,41.47c0.11-0.01-0.89-3.58-1.48-4.99
					c-0.64-1.53-1.28-1.87-1.67-1.84c-0.74,0.05-0.99,3.47-0.99,3.47s0.53-3.68,2.19-0.73C48.53,38.2,49.87,41.48,50.01,41.47z"/>
				<path fill-rule="evenodd" clip-rule="evenodd" fill="#D68B62" d="M47.39,38c0.04-0.24,0.3-1.65,0.49-1.66
					c0.24-0.01,0.25,1,0.19,1.17c-0.16,0.5-0.32,1.01-0.42,1.54c-0.11,0.56-0.11,1.1-0.1,1.68c0.01,0.51,0.12,1.11,0.22,1.6
					c-0.39-0.38-0.5-1.9-0.51-2.47C47.24,38.88,47.29,38.56,47.39,38z"/>
				<path fill-rule="evenodd" clip-rule="evenodd" fill="#E8A073" d="M50.38,44.34c-0.03-0.09-0.56-1.27-0.6-1.36
					c-0.39-0.87,0.43,0.25,0.51,0.35c0.4,0.56,0.69,0.87,0.97,1.34c0.24,0.4,0.13,1.04-0.42,1.1c-0.46,0.05-1.04-0.39-1.24-1.03
					C49.57,44.66,50.79,45.46,50.38,44.34z"/>
			</g>
			<g>
				<path fill-rule="evenodd" clip-rule="evenodd" fill="#D68B62" d="M93.63,41.28c-0.11-0.01,0.86-3.58,1.43-5
					c0.62-1.54,1.26-1.88,1.65-1.86c0.74,0.04,1.02,3.46,1.02,3.46s-0.56-3.68-2.2-0.72C95.07,38,93.76,41.29,93.63,41.28z"/>
				<path fill-rule="evenodd" clip-rule="evenodd" fill="#D68B62" d="M96.21,37.79c-0.05-0.24-0.31-1.65-0.51-1.66
					c-0.24-0.01-0.24,1.01-0.18,1.17c0.17,0.5,0.33,1,0.44,1.54c0.12,0.56,0.12,1.1,0.12,1.68c-0.01,0.51-0.11,1.11-0.21,1.6
					c0.39-0.38,0.48-1.9,0.49-2.47C96.37,38.66,96.32,38.35,96.21,37.79z"/>
				<path fill-rule="evenodd" clip-rule="evenodd" fill="#E8A073" d="M93.28,44.15c0.03-0.09,0.55-1.27,0.59-1.37
					c0.38-0.87-0.43,0.25-0.51,0.36c-0.39,0.56-0.68,0.87-0.96,1.35c-0.24,0.41-0.12,1.04,0.43,1.1c0.46,0.05,1.04-0.4,1.23-1.04
					C94.09,44.46,92.87,45.28,93.28,44.15z"/>
			</g>
		</g>
	</g>
	<g>
		<path fill="#F0AC80" d="M116.52,79.33c2.76,0.84,8.02,7.8,8.93,8.61c0.03,0.02,3.06,1.5,3.15,1.66
			c3.69,6.77,8.25,17.82,10.46,25.42s5.83,30.44,7.02,40.3c1.19,9.87,3.69,25.7,4.59,37.18c0.39,4.97,1.73,13.51,1.73,13.51
			l-17.28,2.16c0,0-1.2-4.79-1.73-9.27c-0.8-6.7-6.56-41.24-7.8-47.61c-1.94-9.88-5.37-30.59-5.37-30.59S114.72,78.78,116.52,79.33z
			"/>
	</g>
	<g>
		<path fill="#F0AC80" d="M27.76,75.94c-2.7,1.03-7.48,8.31-8.34,9.18c-0.03,0.02,0.08-0.17,0,0c-3.23,7-12.98,21.29-12.74,28.24
			c0.25,7.14-2.82,30.45-3.36,40.36c-0.53,9.92-1.97,25.89-2.1,37.4c-0.06,4.98-0.82,13.59-0.82,13.59l17.39,1.01
			c0,0,0.87-4.86,1.11-9.37c0.36-6.74,3.8-41.59,4.62-48.02c1.27-9.99,2.24-30.82,2.24-30.82S29.52,75.27,27.76,75.94z"/>
	</g>
	<g>
		<path fill="#FFBF00" d="M94.02,69.2c0,0,7.79,3.11,9.02,4.18c1.23,1.07,7.85,12.43,7.88,19.11c0.03,6.68,0.56,11.2,0.58,16.17
			c0.02,4.97,0.03,27.16-0.37,31.46c-0.4,4.31,1.29,24.49,1.31,28.05c0.02,3.56,2.97,11,2.98,13.89c0.01,2.9,2.6,13.23,2.63,20.03
			c0.03,6.79,0.07,15.25,0.07,15.25s-33.19-0.96-47.81-0.9c-14.62,0.06-40.55,2.29-40.55,2.29s-2.83-6.89-1.09-15.57
			c1.74-8.69,7.35-34.64,7.33-38.65c-0.02-4.01,0.03-20.37,0.03-20.37s-1.41-33.05-1.44-38.73c-0.02-5.67,0.31-16.47,2.82-22.6
			c2.52-6.14,5.61-10.66,6.18-11.16c0.57-0.5,5.85-1.44,5.85-1.44s21.78,8.89,31.17,5.73C90.02,72.76,94.02,69.2,94.02,69.2z"/>
		<path fill="#F5B700" d="M37.89,83.31c0.34,0,1.71,3.85,1.72,6.3c0.01,2.45-0.68,7.23,0.8,8.53c1.49,1.29,0.19,4.15-0.56,6.38
			c-0.75,2.24-1.41,16.22,0.5,17.88c1.92,1.66,3.55-0.83,6.35-1.88c2.78-1.05,3.3-1.87,0.44,2.44c-2.86,4.32-6.51,6.34-2.42,8.99
			c4.08,2.65,10.36,4.55,5.61,4.58c-4.74,0.02-8.31,0.11-8.31,0.11s3.59,5.25,6.14,8.73c2.56,3.47,6.71,2.79,7.05,2.79
			c0.34,0,0.34-0.59,0.34,0c0,0.59-0.83,3.64-6.6,2.48c-5.76-1.17-8.24-2.79-8.23,0.11c0.01,2.89-0.03,11.94,2.04,18.54
			c2.06,6.59,0.7,6.36,4.19,6.87c3.47,0.5-2.38-0.42-5.33,3.22c-2.96,3.65-7.51,8.2-1.73,11.73c5.78,3.53,6.97,3.53,8.58,3.52
			c1.61-0.01-8.06-0.78-9.74,2.49c-1.68,3.28-1.85,2.83-0.65,5.72c1.19,2.88-7.87,3.29-6.5,5.37c1.37,2.06,7.3,1.89,13.31,1.87
			c6.02-0.03,1.7,1.4-1.08,2.6c-2.8,1.2,2.9,3.7,4.08,3.69c1.19-0.01-0.04,1.01-0.04,1.01s-7.73,0.83-11.98,0.84
			c-4.25,0.02-6.24,0.14-6.24,0.14s-1.5-5.54-1.51-8.44c-0.01-2.89,0.84-8.24,1.55-11.68c0.71-3.45,2.55-12.31,3.11-15.12
			c0.57-2.83,2.51-12.62,2.85-15.3c0.34-2.68,0.36-4.9,0.37-8.35c0-3.45,0.05-14.28,0.03-15.03c-0.02-0.74-0.7-17.47-0.7-17.47
			l-0.74-22.21c0,0,0.47-15.92,1.57-18.74c1.09-2.82,1.6-2.83,1.6-2.83L37.89,83.31z"/>
		<path fill="#F5B700" d="M111.15,101.94c0,0-2.31-0.21-2.28,6.59c0.03,6.78-0.2,11.13-2.86,13.48c-2.66,2.34-9.53,0.82-4.95,2.47
			c4.58,1.66,5.35,1.65,5.35,1.65s-1.02-0.22-3.23,2.84c-2.21,3.07-6.14,5.31-3.97,6.31c2.16,0.99,5.6,2.2,5.6,2.2
			s4.23,7.99,1.32,10.57c-2.92,2.57-3.03,5.02-7.61,5.04c-4.58,0.02-10.43-1.07-6.99,1.93c3.45,2.99,10.71,4.74,11.34,4.74
			c0.64,0,3.34,5.66,3.34,5.66s-5.85,1.26-8.38,3.49c-2.54,2.24,3.7,2.88,6.51,4.31c2.8,1.43,5.48,4.65,5.51,10.44
			c0.03,5.78-0.45,13.02-5.78,14.93c-5.33,1.92-6.28,2.75-6.28,2.75s1.85,3.39,7.19,1.7c5.33-1.7,9.27-1.16,9.27-1.16
			s0.41,6.79-0.72,7.8c-1.14,1.01,4.58,2.09,4.58,2.09s0.1-9.41-0.13-11.87c-0.22-2.45-1.55-11.04-1.81-12.52
			c-0.26-1.5-1.14-8.08-1.71-10.13c-0.57-2.05-1.89-6.48-2.02-9.26c-0.13-2.79-0.62-10.57-0.62-10.57l-0.72-13.54l0.31-12.5
			l0.07-16.1L111.15,101.94z"/>
		<path fill="#EBAF00" stroke="#D19D00" stroke-width="0.25" d="M53.51,67.36c0,0,4.35,6.73,16.39,6.68
			c12.03-0.05,11.53,0.47,15.17-0.89c3.64-1.35,6.85-5.44,6.85-5.44L96,70.58c0,0-6.76,5.96-10.57,6.95
			c-3.81,0.99-12.53,1.62-16.02,1.34c-3.47-0.28-14.76-3.35-17.06-4.68c-2.29-1.32-2.89-4-2.89-4L53.51,67.36z"/>
		<path fill="#EBAF00" stroke="#D19D00" stroke-width="0.25" d="M43.61,71.64c0,0-12.27,1.48-16.76,3.35
			c-4.48,1.88-14.57,19.88-14.57,19.88L5.74,114.7l19.51,8.89l9.57-10.87C34.82,112.72,39.06,75.07,43.61,71.64z"/>
		<path fill="#EBAF00" stroke="#D19D00" stroke-width="0.25" d="M102.3,72.89c0,0,12.29,1.84,16.79,3.68
			c4.5,1.83,7.99,8.36,10.89,11.83c2.9,3.47,10.55,27.69,10.55,27.69l-19.27,8.99l-9.81-10.72
			C111.46,114.36,109.21,77.76,102.3,72.89z"/>
	</g>
</g>
</svg>
