<?xml version="1.0" encoding="utf-8"?>
<!-- Generator: Adobe Illustrator 23.0.6, SVG Export Plug-In . SVG Version: 6.00 Build 0)  -->
<svg version="1.1" id="Capa_1" xmlns="http://www.w3.org/2000/svg" xmlns:xlink="http://www.w3.org/1999/xlink" x="0px" y="0px"
	 viewBox="0 0 152.79 186.83" enable-background="new 0 0 152.79 186.83" xml:space="preserve">
<g>
	<g>
		<path fill="#F0AC80" d="M101.98,80.34c-3.68-1.88-4.46-8.55-5.29-9.07c-5.34-3.32-2.14-12.84-1.75-16.65h-0.98h-30.7h-0.98
			c0.72,3.99,6.5,14.21-1.49,16.65c-0.65,0.2,3.53,7.94,4.44,11.93c1.37,6.04-10.48,11.02-11.61,11.43
			c0.29,0.37-10.83-0.31-6.96,5.46c1.78,2.65,2.61,5.21,4.89,7.41c2.35,2.27,5.04,4.13,7.99,5.41c3.55,1.54,7.35,2.28,11.17,2.52
			c2.61,0.16,5.26,0.14,7.89-0.08c2.63,0.22,5.28,0.24,7.89,0.08c3.82-0.23,7.62-0.98,11.17-2.52c2.95-1.28,5.64-3.14,7.99-5.41
			c2.28-2.2,3.02-4.76,4.8-7.41c3.88-5.77,1.86,10.15,2.15,9.78C109.26,117.58,104.87,81.82,101.98,80.34z"/>
		<path fill="#F0AC80" d="M101.4,34.07c0,0-0.19-11.41-0.31-16.03c-0.13-4.99-0.38-12.68-14.64-17.05c-0.8-0.25-4.33-0.84-7.76-0.83
			c-3.21,0.01-6.33,0.6-7.08,0.83c-3.78,1.16-6.57,2.9-9.35,5.38c-3.8,3.38-5.33,6.68-5.45,11.67c-0.12,4.62-0.23,16.03-0.23,16.03
			c-4.37-3.68-4.41,0.8-4.2,3.23c0.29,3.3,1.29,5.77,2.3,7.83c0.67,1.37,1.38,3.34,3.37,3.42c0.75,0.03,1.24-0.55,1.24-0.55
			s0.32,4.75,0.49,6.06c0.51,3.9,9.13,14.86,13.98,15.83c1.47,0.29,9.06,0.3,10.43,0.04c4.79-0.93,13.64-11.86,14.16-15.87
			c0.17-1.31,0.49-6.06,0.49-6.06s0.49,0.58,1.24,0.55c1.99-0.08,2.47-2.05,3.14-3.42c1.01-2.05,2.38-5.21,2.46-8.53
			C105.74,34.22,105.77,30.39,101.4,34.07z"/>
		<g>
			<g>
				<path fill-rule="evenodd" clip-rule="evenodd" fill="#D68B62" d="M57.22,41.47c0.11-0.01-0.87-3.58-1.45-5
					c-0.63-1.54-1.27-1.87-1.66-1.85c-0.74,0.04-1,3.47-1,3.47s0.54-3.68,2.2-0.72C55.77,38.2,57.09,41.48,57.22,41.47z"/>
				<path fill-rule="evenodd" clip-rule="evenodd" fill="#D68B62" d="M54.62,37.99c0.05-0.24,0.3-1.65,0.5-1.66
					c0.24-0.01,0.24,1.01,0.19,1.17c-0.16,0.5-0.32,1-0.43,1.54c-0.11,0.56-0.12,1.1-0.11,1.68c0.01,0.51,0.12,1.11,0.22,1.6
					c-0.39-0.38-0.49-1.9-0.5-2.47C54.47,38.87,54.52,38.55,54.62,37.99z"/>
				<path fill-rule="evenodd" clip-rule="evenodd" fill="#E8A073" d="M57.59,44.34c-0.03-0.09-0.56-1.27-0.6-1.36
					c-0.38-0.87,0.43,0.25,0.51,0.35c0.4,0.56,0.69,0.87,0.97,1.35c0.24,0.41,0.12,1.04-0.43,1.1c-0.46,0.05-1.04-0.39-1.23-1.04
					C56.77,44.66,58,45.47,57.59,44.34z"/>
			</g>
			<g>
				<path fill-rule="evenodd" clip-rule="evenodd" fill="#D68B62" d="M100.85,41.47c-0.11-0.01,0.87-3.58,1.45-5
					c0.63-1.54,1.27-1.88,1.66-1.85c0.74,0.04,1,3.47,1,3.47s-0.54-3.68-2.2-0.73C102.3,38.2,100.98,41.48,100.85,41.47z"/>
				<path fill-rule="evenodd" clip-rule="evenodd" fill="#D68B62" d="M103.45,37.99c-0.05-0.24-0.3-1.65-0.5-1.66
					c-0.24-0.01-0.24,1.01-0.19,1.17c0.16,0.5,0.32,1,0.43,1.54c0.11,0.56,0.12,1.1,0.11,1.68c-0.01,0.51-0.12,1.11-0.22,1.6
					c0.39-0.38,0.49-1.9,0.5-2.47C103.6,38.87,103.55,38.55,103.45,37.99z"/>
				<path fill-rule="evenodd" clip-rule="evenodd" fill="#E8A073" d="M100.48,44.34c0.03-0.09,0.56-1.27,0.6-1.36
					c0.38-0.87-0.43,0.25-0.51,0.35c-0.4,0.56-0.69,0.87-0.97,1.35c-0.24,0.41-0.12,1.04,0.43,1.1c0.46,0.05,1.04-0.39,1.24-1.04
					C101.3,44.66,100.07,45.47,100.48,44.34z"/>
			</g>
		</g>
	</g>
	<g>
		<g>
			<path fill="#B2B2B2" d="M146.76,163.7c0,0,2.07,8.7-0.87,8.7c-2.94,0-3.39-2.98-4.02-3.61c-0.63-0.64-0.34,0.34-2.67,2.7
				c-2.35,2.33-4.53,2.33-2.35-1.51c2.17-3.86,4.43-3.53,1.43-6.54c-3.03-3.01-3.57-6.99,0.74-2.67c4.32,4.3,5.37,4.28,5.37,4.28
				l2.01-4L146.76,163.7z"/>
			<path fill="none" d="M28.24,120.29c0.5,1.97,1.74,8.41,1.94,9.43C29.64,126.48,29,123.21,28.24,120.29z"/>
			<path fill="none" d="M129.43,107.56c0.75-2.64,1.82-6.15,2.21-6.7c-0.35,0.38-1.18,2.99-2.27,6.86
				C129.39,107.65,129.41,107.6,129.43,107.56z"/>
			<path fill="none" d="M116.73,175.53c0.09-1.33,0.47-6.02,1.11-11.89v-0.03l0.01-0.12c0.06-0.62,0.12-1.21,0.2-1.83l0.05-0.47l0,0
				c0.66-5.79,1.55-12.32,2.66-17.77c-0.35,1.66-0.63,3.09-0.85,4.19C118.57,155,117.3,167.97,116.73,175.53z"/>
			<path fill="none" d="M30.25,130.23c0.22,1.44,0.88,5.94,1.26,8.45C31.13,136.1,30.72,133.19,30.25,130.23z"/>
			<path fill="none" d="M21.5,92.08c0.04,0.2,0.15,0.77,0.32,1.56C21.61,92.66,21.5,92.08,21.5,92.08z"/>
			<path fill="none" d="M32.96,146.73c0.1,0.51,0.18,0.88,0.22,1.04C33.1,147.42,33.02,147.06,32.96,146.73z"/>
			<path fill="none" d="M121.26,141.07c2.84-12.42,7.05-29.46,8.07-33.12c-2.44,8.73-6.01,23.6-8.09,33.16
				C121.24,141.12,121.24,141.09,121.26,141.07z"/>
			<path fill="none" d="M31.74,140.25c-0.02-0.12-0.04-0.28-0.06-0.4C31.7,140.01,31.72,140.13,31.74,140.25L31.74,140.25z"/>
			<path fill="#D4D4D4" d="M63.83,65.32c0,0-0.06,0.08-0.16,0.22c-0.3,0.38-0.99,1.26-1.95,2.37
				C62.76,66.79,63.68,65.71,63.83,65.32z"/>
			<path fill="#D4D4D4" d="M68.33,76.69l0.03,0.02c-0.26-0.31-0.52-0.63-0.78-0.95C67.84,76.09,68.07,76.41,68.33,76.69z"/>
			<path fill="#D4D4D4" d="M72.83,81.17c1.35,1.29,2.34,2.2,2.35,2.22c-0.33-0.54-0.54-0.73-0.54-0.73S73.9,82.08,72.83,81.17z"/>
			<path fill="#D4D4D4" stroke="#B8B8B8" stroke-width="0.5" d="M75.4,83.74c-0.08-0.13-0.16-0.25-0.22-0.36
				c-0.02,0-12.56,12.74-13.73,13.9c-1.17,1.17-0.95-1.38-1.56-5.52c-0.64-4.14-1.51-20.23-1.51-20.23s0.02-0.01,0.02-0.04
				c-1.16,1.16-2.38,2.14-3.48,2.74c-3.77,2-29.66,14.06-31.54,15.97c-1.88,1.88-1.88,1.88-1.88,1.88s0.11,0.58,0.32,1.56
				c0.83,3.91,2.97,13.46,3.44,15.52v0.02c0.6,2.48,2.46,9.32,2.89,10.82c0.03,0.08,0.06,0.2,0.09,0.29
				c0.76,2.91,1.4,6.19,1.94,9.43c0,0.02,0,0.06,0.02,0.08c0,0.06,0.04,0.24,0.06,0.42c0.48,2.97,0.88,5.88,1.26,8.45
				c0.07,0.47,0.13,0.87,0.17,1.16c0.02,0.12,0.04,0.28,0.06,0.4c0.15,1.05,0.85,4.62,1.22,6.48c0.06,0.33,0.14,0.69,0.22,1.04
				c0,0.06,0,0.08,0,0.08l0,0c0.94,4.95,1.47,11.39,2.03,14.09c0.61,3.14,2,6.39,2,9.04c0,2.65-0.25,5.15-0.25,7.43
				c0,2.25,0.51,21.09-1.13,29.65c-1.62,8.54-4.78,32.53-2.52,34.79c1.7,1.69,8.74,5.71,16.18,8.43c-1.04-0.57-1.87-1.39-1.65-2.76
				c0.38-2.45,1.25-7.17,0.44-10.44c-0.82-3.26-4.57-6.1-0.38-8.16c4.22-2.09,3.07-3.45,2.08-3.45c-1.01,0-6.97-1.78-4.45-2.48
				c2.5-0.67,7.71,0.63,8.04,0.34c0.3-0.34,4.63,1.57,2.3-2.34c-2.3-3.9-7.33,0.25-5.57-7.3c1.74-7.53,3.08-7.85,4.83-11.37
				c1.75-3.5-1.38-2.7-2.34-5.27c-0.93-2.58,4.28,2.08,7.12,3.47c2.81,1.38,3.94,1.04,1.88-3.59c-2.08-4.66-4.84-9.11-6.54-13.25
				c-1.68-4.16,1.63-1.57,0.62-7.47c-0.99-5.9-5.01-12.2-1.94-18.54c3.09-6.34-5.21-17.97-1.89-24c3.33-6.03,4.72-9.6,4.4-4.1
				c-0.3,5.55-2.52,8.04-0.18,14.28c2.32,6.2,1.25,13.67,3.13,19.02c1.89,5.35,1.97,8.11,2.4,9.17c0.43,1.07-1.06-22.8-1.7-28
				c-0.64-5.24,2.02-12.18,1.33-21.18c-0.69-8.97,0.8-12.01,1.82-8.86c1.02,3.16,1.02,3.58,3.25,6.48c2.28,2.89,5.19-7.57,6.48-6.3
				c1.31,1.29,2.32,6.8,2.29,12.51c-0.01,5.68,0.42,34.85-0.15,41.02c-0.57,6.2-0.09,27.48-0.12,33.94
				c-0.02,6.44-0.08,24.78-0.1,27.3c-0.02,2.51,0.14,24.37-0.34,24.84c0,0-13.76-7.23-15.28-7.59c-1.5-0.4-1.38,1.67,1.58,3.25
				c2.68,1.43,4.14,3.67,4.39,4.08c6,0.5,10.56,0.26,10.56,0.26L75.4,83.74z M30.29,111.04c0-2.11-1.25-8.54-3.27-12.93
				c-2-4.4,3.03-3.04,3.03-3.04s-0.13,3.16,0.61,5.79c0.76,2.66,1.13,7.69,1.83,10.13C33.18,113.42,30.29,113.19,30.29,111.04z
				 M58.64,192.73c0,0-9.49-2.46-11.8-4.79c-2.32-2.32-9.61-1.11-9.61-1.11l-0.02-5.29c0,0,3.29-4.32,7.98,0.38
				C49.93,186.62,58.64,192.73,58.64,192.73z"/>
			<path fill="#D4D4D4" stroke="#B8B8B8" stroke-width="0.5" d="M116.73,175.53c0.57-7.56,1.84-20.53,3.19-27.92
				c0.22-1.1,0.5-2.53,0.85-4.19c0.16-0.8,0.31-1.54,0.48-2.3c2.08-9.56,5.65-24.43,8.09-33.16c0.02-0.1,0.04-0.19,0.04-0.24
				c1.09-3.86,1.92-6.48,2.27-6.86c0.24-0.31,0.53-0.83,0.65-1.4c0.14-1.21-0.49-2.44-0.49-2.44s-3.33-3.68-13.06-9.37
				c-8.84-5.19-15.58-10.22-18.11-12.48l0.2,0.42c0,0-2.96,7.47-3.94,10.62c-1.02,3.15-2.77,10.29-2.77,10.29s-3.83-1.43-7.93-5.5
				c-4.08-4.1-6.74-7.19-6.76-7.21l0,0l2.75,164.79l0.12,4.34c0,0,19.33-3.79,26.39-6.54c7.03-2.78,12.71-8.8,12.71-8.8
				s-1.5-15.92-3.51-24.13c-2-8.2-1.5-29.14-1.5-32.33c0-0.81,0.1-2.68,0.28-5.2l0,0C116.69,175.92,116.71,175.79,116.73,175.53z
				 M105.37,219.76c-1.01,0-2.14,1.39,2.09,3.45c4.2,2.08,0.44,4.91-0.38,8.18c-0.81,3.25,0.06,7.98,0.44,10.42
				c0.38,2.46-2.58,3.09-4.05,3.88c-1.45,0.79-13.41,2.24-13.41,2.24s1.51-2.6,4.46-4.18c2.95-1.57,3.07-3.65,1.57-3.27
				c-1.51,0.37-12.05,10.86-12.05,10.86c-0.48-0.48-1.42-26.15-1.46-28.67c-0.03-2.51-2.49-95.98-2.49-101.68
				c-0.01-5.7,0.99-11.2,2.3-12.49c1.27-1.28,4.21,9.17,6.46,6.28c2.26-2.9,2.26-3.33,3.27-6.48c1.02-3.13,2.52-0.11,1.83,8.85
				c-0.7,9,1.96,15.97,1.32,21.2c-0.63,5.2-2.13,29.09-1.7,28.02c0.44-1.07,0.5-3.84,2.4-9.17c1.87-5.36,0.81-12.83,3.13-19.04
				c2.32-6.22,0.11-8.73-0.18-14.26c-0.31-5.54,1.05-1.95,4.4,4.08c3.31,6.05-4.97,17.66-1.9,23.99c3.1,6.36-0.93,12.63-1.94,18.54
				c-1.01,5.9,2.34,3.32,0.63,7.47c-1.7,4.16-4.45,8.61-6.53,13.27c-2.06,4.64-0.96,4.95,1.88,3.57c2.83-1.36,8.05-6.02,7.12-3.44
				c-0.95,2.57-4.11,1.75-2.34,5.27c1.76,3.52,3.09,3.81,4.86,11.37c1.74,7.54-3.27,3.38-5.61,7.29c-2.31,3.89,2,2,2.34,2.33
				c0.3,0.3,5.51-1,8.04-0.34C112.35,218.01,106.38,219.76,105.37,219.76z M116.06,188.21c0,0-7.33,7.32-10.5,7.32
				c-3.19,0,0-4.53,1.01-5.55c1-1.01,6.03-6.02,6.03-6.02h3.5L116.06,188.21z"/>
			<path fill="#D4D4D4" d="M79.47,83.78l1.52-1.74C80.42,82.56,79.91,83.19,79.47,83.78z"/>
			<polygon fill="#D4D4D4" stroke="#B8B8B8" stroke-width="0.2" points="79.45,83.78 79.45,83.78 75.4,83.41 75.4,83.74 
				75.78,254.8 82.32,254.92 82.2,248.57 			"/>
			<path fill="#D4D4D4" stroke="#B8B8B8" stroke-width="0.5" d="M78.27,83.94h-0.02l0,0c0.02,0.02,2.82,3.28,7.13,7.62
				c4.33,4.3,8.37,5.81,8.37,5.81s1.85-7.55,2.92-10.87c1.04-3.33,4.16-11.22,4.16-11.22l-0.21-0.44L95.4,64.43l-0.56,0.62
				L79.88,82.1L78.27,83.94z M91.44,89.65c-0.52,1.84-3.13,0.38-4.68-0.59c-1.54-0.98-0.52,1.95-0.52,1.95l-0.5,0.42l-5.43-5.69
				l-1.92-1.9l10.71-6.98c0,0,2.43,0.71,2.05,1.82c-0.29,0.78-1.27,1.44-1.97,1.76c0.93-0.21,2.41-0.36,2.12,0.69
				c-0.42,1.57-3.75,2.52-3.75,2.52s4.25,1.33,4.06,3.16C91.44,88.59,91.97,87.79,91.44,89.65z"/>
			<path fill="#D4D4D4" stroke="#B8B8B8" stroke-width="0.5" d="M59.89,91.77c0.61,4.14,0.39,6.7,1.56,5.52
				c1.17-1.16,13.71-13.9,13.73-13.9l0,0l0,0c-0.02-0.01-1.01-0.93-2.35-2.22c-1.33-1.28-3.04-2.95-4.47-4.46l-0.03-0.02
				c-0.25-0.28-0.49-0.59-0.75-0.93c-2.44-3.54-3.74-10.44-3.74-10.44c-0.16,0.4-1.07,1.47-2.11,2.6c-1.45,1.63-3.13,3.41-3.33,3.58
				c0,0.03-0.02,0.04-0.02,0.04S59.25,87.63,59.89,91.77z M64.23,77.39c1.74,0,3.84-0.7,3.84-0.7l4.27,4.28l1.47,1.39l1.12,1.03
				l-1.04,1.05l-7.74,7.83c0,0-4.96-0.32-2.13-2.14c2.83-1.82,2.83-3.7,2.83-3.7s-1.21,0.57-2.63-0.88
				c-1.47-1.45,0.73-2.52,1.62-3.4c0.87-0.87-1.77-1.13-2.78-2.12C62.09,79.01,62.45,77.39,64.23,77.39z"/>
			<path fill="#D4D4D4" stroke="#B8B8B8" stroke-width="0.5" d="M33.18,147.77c-0.03-0.16-0.11-0.53-0.22-1.04
				c-0.37-1.87-1.07-5.43-1.22-6.48l0,0c-0.02-0.12-0.04-0.24-0.06-0.4c-0.04-0.29-0.1-0.69-0.17-1.16
				c-0.38-2.52-1.04-7.01-1.26-8.45c-0.01-0.18-0.06-0.36-0.06-0.42c-0.02-0.02-0.02-0.06-0.02-0.08c-0.2-1.03-1.44-7.46-1.94-9.43
				c-0.03-0.09-0.06-0.21-0.09-0.29c-0.43-1.51-2.29-8.35-2.89-10.82v-0.02l0,0c-0.47-2.06-2.61-11.61-3.44-15.52
				c-0.16-0.79-0.28-1.36-0.32-1.56c0,0-6.14,3.13-8.54,8.66c-2.4,5.53-7.79,40.33-9.05,50.52c-1.25,10.16-1.25,38.32-1.25,46.09
				c0,7.81,1.62,23.76,2.76,26.15c1.14,2.38,1.76,3.01,1.76,3.01l0.44-0.1l0,0l18.92-3.92c0,0,0.76-17.85,0.76-21.99
				c0-4.14,1.12-17.96,1.12-17.96s0.5-1.88,0.5-3.39c0-1.53,0-3.39,0-3.39s1.01-0.89,1.01-3.03c0-2.13,1.33-3.08,0.26-4.15
				c-1.07-1.07,0.12-4.14,0.12-7.41c0-3.27,2.89-13.29,2.89-13.33l0,0C33.18,147.85,33.18,147.83,33.18,147.77z M16.6,99.49
				c0,0,1.62,0,1.62,1c0,1.01,0,7.05,1.13,10.55c1.15,3.53,1.51,6.54,3.53,9.92c2.01,3.41-2.38,4.03-3.01,1.91
				c-0.64-2.16-3.15-10.55-4.52-16.98C13.96,99.49,16.6,99.49,16.6,99.49z M31.26,153.72c-0.29,1.17-1.03,4.8-1.21,5.87
				c-0.18,1.07-0.63,6.15-0.63,6.41c0,0.25,0.02,1.9,0.24,2.42c0.21,0.54,0.53,1.39,0.36,1.98c-0.14,0.61-0.48,2.14-0.48,2.59
				c0,0.46-1.01,2.78-1.01,3.54c0,0.75-0.5,6.02-0.61,7.43c-0.1,1.4-1.15,20.06-1.15,22.21c0,2.13-2.87,3.52-4.14,3.52
				c-1.25,0-7.41-0.11-7.41-1.13c0-1.01,8.05-1.39,8.8-2.14c0.76-0.75,1.7-7.98,1.7-7.98s-1,1.01-2.95,2.97
				c-1.96,1.92-6.3,0.48-6.3,0.48s1.27-1.37,5.41-3.88c4.14-2.52,4.6-6.22,4.6-6.22s-0.57-0.55-4.08-0.55
				c-3.54,0-3.54,0.23-3.54-0.78c0-0.99,6.54-1.12,6.54-1.12s0-1.39-2.52-1.39c-2.51,0-4.89-2.5-4.89-2.5s2.26,1.01,4.89,1.01
				c2.63,0,2.52-7.54,2.52-7.54s-5.52,0.51-2.63-0.88c2.87-1.38,2.87-3.67,2.87-3.67s-4.14-0.49-3.01-1.62
				c1.13-1.13,4.4-1.63,2.26-1.63c-2.13,0-4.52-1.88-3.89-1.88c0.61,0,1.62-0.26,5.53,0.5c3.88,0.75,1.76-5.03,0.76-6.04
				c-1.02-0.99-3.02-2-2.03-2c1.02,0,2.77,0,2.77,0s0.76-7.03,0.76-8.31c0-1.24-2.52-13.8-4.02-19.71c-1.51-5.9,2.89-8.04,2.89-8.04
				s1.48,0.72,1.69,1.56c0.2,0.83,1.51,9.76,1.51,9.76s1.12,7.13,1.39,8.12c0.26,0.98,0.43,3.21,0.43,3.21
				S31.56,152.55,31.26,153.72z"/>
			<path fill="#D4D4D4" d="M118.06,161.66c-0.08,0.62-0.14,1.21-0.2,1.83L118.06,161.66z"/>
			<path fill="#D4D4D4" stroke="#B8B8B8" stroke-width="0.5" d="M149.75,189.08c-0.43-4.2-2.52-21.6-3.27-27.57
				c-0.76-5.92-5.54-39.78-8.46-51.08c-2.95-11.31-5.78-12.18-5.78-12.18c0.12,0.44,0.12,0.83,0.06,1.21
				c-0.12,0.57-0.42,1.09-0.65,1.4c-0.39,0.55-1.46,4.06-2.21,6.7c-0.02,0.03-0.04,0.09-0.06,0.15c0,0.05-0.02,0.14-0.04,0.24
				c-1.02,3.66-5.23,20.69-8.07,33.12c-0.02,0.02-0.02,0.04-0.02,0.04c-0.16,0.76-0.32,1.5-0.48,2.3c-1.11,5.45-2,11.99-2.66,17.77
				l1.55,3.18c0,0-0.07,3.1-0.07,5.35c0,2.26,1.84,1.84,2.35,4.62c0.5,2.76-1.01,3.43-0.33,6.18c0.67,2.79,1.4,10.56,2.07,13.17
				c0.68,2.6,9.48,6.68,7.14,6.1c-2.34-0.6-7.96-3.84-7.96-3.84l1.85,4c0,0,2.8,3.65,5.39,6.24c2.6,2.59,3.65,3.65,0.79,1.8
				c-2.85-1.83-6.54-6.59-6.54-6.59s1.27,8.2,1.69,10.79c0.42,2.6,4.93,7.36,4.1,8.21c-0.83,0.85-5.86-6.04-5.86-6.04
				s0.16,2.86,2,6.79c1.86,3.94,3.3,4.4,2.27,5.45c-1.04,1.05-4.39-2.99-4.39-2.99l-0.7-4.79l-1.11-9.22c0.74,6.5,1.6,13.37,2,15.16
				c0.77,3.43,0.44,9.47,0.44,9.47s0.12,0.06,0.3,0.16c0.16,0.06,0.75,0.34,1.26,0.51c0.16,0.06,0.34,0.12,0.54,0.18
				c0.81,0.2,2.46,0.5,3.31,0.59c0.44,0.03,0.89,0.06,1.36,0.06c1.11,0,2.64,0.15,4.29,0.4h0.01c0.22,0.04,0.5,0.1,0.84,0.13
				c3.84,0.62,8.06,1.58,9.35,1.89c0.04,0,0.08,0.02,0.1,0.02c0.75,0.15,1.64-0.34,1.93-0.52c0.28-0.15,0.54-0.37,0.82-0.66
				c1.27-1.25,0.42-7.45,0.93-12.23C150.32,219.99,150.17,193.28,149.75,189.08z"/>
			<path fill="#D4D4D4" d="M116.69,175.92l1.15-12.28c-0.64,5.86-1.02,10.56-1.11,11.89C116.71,175.79,116.69,175.92,116.69,175.92z
				"/>
			<path fill="#C7C7C7" d="M60.83,250.45c-2.96-1.58-3.08-3.65-1.58-3.25c1.52,0.36,15.28,7.59,15.28,7.59
				c0.48-0.48,0.32-22.33,0.34-24.84c0.02-2.52,0.08-20.86,0.1-27.3c0.02-6.46-0.46-27.74,0.12-33.94
				c0.57-6.18,0.14-35.34,0.15-41.02c0.03-5.71-0.99-11.22-2.29-12.51c-1.29-1.27-4.2,9.19-6.48,6.3c-2.24-2.9-2.24-3.32-3.25-6.48
				c-1.02-3.15-2.51-0.11-1.82,8.86c0.69,9-1.97,15.95-1.33,21.18c0.64,5.21,2.13,29.08,1.7,28c-0.44-1.06-0.51-3.82-2.4-9.17
				c-1.88-5.35-0.81-12.82-3.13-19.02c-2.33-6.24-0.11-8.74,0.18-14.28c0.32-5.51-1.07-1.94-4.4,4.1c-3.32,6.03,4.97,17.66,1.89,24
				c-3.07,6.34,0.95,12.64,1.94,18.54c1.02,5.9-2.3,3.31-0.62,7.47c1.7,4.14,4.46,8.6,6.54,13.25c2.06,4.63,0.93,4.97-1.88,3.59
				c-2.84-1.39-8.04-6.05-7.12-3.47c0.96,2.57,4.09,1.77,2.34,5.27c-1.76,3.52-3.09,3.84-4.83,11.37c-1.76,7.55,3.27,3.39,5.57,7.3
				c2.33,3.9-2,2-2.3,2.34c-0.33,0.29-5.55-1.01-8.04-0.34c-2.52,0.69,3.45,2.48,4.45,2.48c1,0,2.14,1.37-2.08,3.45
				c-4.19,2.06-0.44,4.89,0.38,8.16c0.81,3.27-0.06,7.99-0.44,10.44c-0.22,1.37,0.61,2.18,1.65,2.76c0.8,0.44,1.73,0.77,2.37,1.1
				c0.77,0.44,4.46,1.01,7.79,1.51c0.99,0.12,1.94,0.25,2.77,0.38c1.68,0.21,2.85,0.35,2.85,0.35s-0.01-0.04-0.03-0.08
				C64.96,254.12,63.51,251.88,60.83,250.45z"/>
			<path fill="#C7C7C7" d="M109.85,217.31c-2.53-0.66-7.74,0.64-8.04,0.34c-0.34-0.34-4.65,1.56-2.34-2.33
				c2.34-3.9,7.35,0.26,5.61-7.29c-1.77-7.56-3.1-7.85-4.86-11.37c-1.76-3.52,1.39-2.7,2.34-5.27c0.93-2.58-4.28,2.08-7.12,3.44
				c-2.83,1.39-3.94,1.07-1.88-3.57c2.08-4.66,4.83-9.11,6.53-13.27c1.7-4.15-1.64-1.57-0.63-7.47c1.02-5.91,5.04-12.18,1.94-18.54
				c-3.07-6.34,5.21-17.94,1.9-23.99c-3.34-6.02-4.71-9.61-4.4-4.08c0.29,5.53,2.5,8.04,0.18,14.26
				c-2.31,6.22-1.25,13.68-3.13,19.04c-1.9,5.33-1.96,8.1-2.4,9.17c-0.43,1.07,1.07-22.82,1.7-28.02c0.64-5.23-2.02-12.2-1.32-21.2
				c0.69-8.96-0.81-11.98-1.83-8.85c-1.02,3.15-1.02,3.58-3.27,6.48c-2.25,2.89-5.19-7.56-6.46-6.28c-1.31,1.29-2.31,6.79-2.3,12.49
				c0,5.7,2.46,99.17,2.49,101.68c0.04,2.52,0.98,28.19,1.46,28.67c0,0,10.54-10.49,12.05-10.86c1.51-0.38,1.39,1.7-1.57,3.27
				c-2.95,1.58-4.46,4.18-4.46,4.18s11.96-1.45,13.41-2.24c1.47-0.79,4.42-1.43,4.05-3.88c-0.38-2.44-1.25-7.17-0.44-10.42
				c0.82-3.27,4.58-6.11,0.38-8.18c-4.22-2.07-3.09-3.45-2.09-3.45C106.38,219.76,112.35,218.01,109.85,217.31z"/>
			<path fill="#C7C7C7" d="M60.96,79.97c1.07,1.05,3.85,1.32,2.93,2.24c-0.94,0.94-3.27,2.07-1.72,3.59
				c1.5,1.53,2.78,0.93,2.78,0.93s0,1.98-2.99,3.91c-2.99,1.92,2.25,2.26,2.25,2.26l8.17-8.26l1.09-1.11l-1.18-1.08l-1.55-1.47
				l-4.51-4.52c0,0-2.22,0.74-4.06,0.74C60.3,77.19,59.92,78.9,60.96,79.97z"/>
			<path fill="#C7C7C7" d="M91.61,86.79c0.19-1.83-4.06-3.16-4.06-3.16s3.33-0.95,3.75-2.52c0.29-1.05-1.19-0.9-2.12-0.69
				c0.7-0.31,1.67-0.98,1.97-1.76c0.38-1.11-2.05-1.82-2.05-1.82l-10.71,6.98l1.92,1.9l5.43,5.69l0.5-0.42c0,0-1.03-2.93,0.52-1.95
				c1.55,0.96,4.16,2.43,4.68,0.59C91.97,87.79,91.44,88.59,91.61,86.79z"/>
			<path fill="#C7C7C7" d="M124.16,223.61c0,0,3.35,4.05,4.39,2.99c1.03-1.04-0.41-1.51-2.27-5.45c-1.84-3.93-2-6.79-2-6.79
				s5.03,6.89,5.86,6.04c0.83-0.85-3.69-5.61-4.1-8.21c-0.42-2.6-1.69-10.79-1.69-10.79s3.68,4.76,6.54,6.59
				c2.86,1.85,1.8,0.79-0.79-1.8c-2.59-2.6-5.39-6.24-5.39-6.24l-1.85-4c0,0,5.62,3.24,7.96,3.84c2.34,0.57-6.46-3.51-7.14-6.1
				c-0.67-2.62-1.4-10.38-2.07-13.17c-0.68-2.75,0.83-3.42,0.33-6.18c-0.51-2.77-2.35-2.35-2.35-4.62c0-2.25,0.07-5.35,0.07-5.35
				l-1.55-3.18l0,0l-0.05,0.47l-0.2,1.83l-0.01,0.12v0.03l-1.15,12.28l0,0l3.46,15.36c0,0,1.11,8.04,1.21,8.95l0,0
				c0.08,0.91,0.99,9.37,0.99,9.37l0,0l0,0l1.11,9.22L124.16,223.61z"/>
			<path fill="#C7C7C7" d="M106.56,189.99c-1.01,1.02-4.2,5.55-1.01,5.55c3.17,0,10.5-7.32,10.5-7.32l0.03-4.25h-3.5
				C112.6,183.97,107.56,188.98,106.56,189.99z"/>
			<path fill="#C7C7C7" d="M37.2,181.53l0.02,5.29c0,0,7.29-1.21,9.61,1.11c2.32,2.33,11.8,4.79,11.8,4.79s-8.71-6.1-13.45-10.82
				C40.49,177.21,37.2,181.53,37.2,181.53z"/>
			<path fill="#C7C7C7" d="M30.66,100.86c-0.75-2.63-0.61-5.79-0.61-5.79s-5.03-1.36-3.03,3.04c2.02,4.39,3.27,10.82,3.27,12.93
				c0,2.14,2.89,2.38,2.2-0.05C31.8,108.55,31.42,103.51,30.66,100.86z"/>
			<path fill="#C7C7C7" d="M19.87,122.87c0.63,2.12,5.02,1.5,3.01-1.91c-2.02-3.38-2.38-6.39-3.53-9.92
				c-1.13-3.51-1.13-9.54-1.13-10.55c0-1-1.62-1-1.62-1s-2.64,0-1.25,6.4C16.73,112.32,19.23,120.71,19.87,122.87z"/>
			<path fill="#C7C7C7" d="M30.87,136.94c0,0-1.31-8.94-1.51-9.76c-0.21-0.84-1.69-1.56-1.69-1.56s-4.4,2.14-2.89,8.04
				c1.5,5.91,4.02,18.47,4.02,19.71c0,1.28-0.76,8.31-0.76,8.31s-1.76,0-2.77,0c-0.99,0,1.02,1.02,2.03,2
				c1.01,1.01,3.12,6.8-0.76,6.04c-3.9-0.75-4.92-0.5-5.53-0.5c-0.63,0,1.76,1.88,3.89,1.88c2.13,0-1.13,0.5-2.26,1.63
				c-1.13,1.13,3.01,1.62,3.01,1.62s0,2.28-2.87,3.67c-2.89,1.39,2.63,0.88,2.63,0.88s0.12,7.54-2.52,7.54
				c-2.63,0-4.89-1.01-4.89-1.01s2.38,2.5,4.89,2.5c2.52,0,2.52,1.39,2.52,1.39s-6.54,0.14-6.54,1.12c0,1.01,0,0.78,3.54,0.78
				c3.5,0,4.08,0.55,4.08,0.55s-0.46,3.7-4.6,6.22c-4.14,2.51-5.41,3.88-5.41,3.88s4.34,1.45,6.3-0.48
				c1.95-1.96,2.95-2.97,2.95-2.97s-0.94,7.24-1.7,7.98c-0.75,0.75-8.8,1.13-8.8,2.14c0,1.02,6.17,1.13,7.41,1.13
				c1.27,0,4.14-1.39,4.14-3.52c0-2.14,1.05-20.81,1.15-22.21c0.11-1.41,0.61-6.68,0.61-7.43c0-0.76,1.01-3.08,1.01-3.54
				c0-0.45,0.34-1.98,0.48-2.59c0.17-0.59-0.14-1.44-0.36-1.98c-0.22-0.52-0.24-2.16-0.24-2.42c0-0.26,0.46-5.35,0.63-6.41
				c0.18-1.07,0.92-4.7,1.21-5.87c0.3-1.17,1.42-5.45,1.42-5.45s-0.17-2.23-0.43-3.21C31.99,144.07,30.87,136.94,30.87,136.94z"/>
		</g>
		<g>
			<g>
				<path fill="#589F3E" d="M96.88,77.17c-0.09-2.02-2.78-7.5-3.21-8.17c-0.04-0.07-0.23-0.06-0.43-0.06
					c-0.93,2.49-4.82,6.9-7.15,8.63c-2.69,2-6.93,6.25-8.93,6.07c-2-0.17-5.37-3.64-8.75-5.89c-3.13-2.09-5.77-10.41-8.45-9.42
					c-2.68,0.99-1.38,4.64-2.03,7.33c-0.76,3.12-3.54,6.66-1.85,10.19c1.69,3.54,6.74,13.98,7.25,14.83
					c0.51,0.85,1.52,1.52,3.2-1.09c1.68-2.61,5.14-5.83,5.31-6.83c0.17-1.01,3.45-5.15,4.3-5.81c0.26-0.22,0.58-0.5,0.94-0.74
					c0.79-0.52,1.8-0.82,3.02,0.4c1.77,1.77,9.02,9.95,10.2,11.89c1.18,1.94,2.61,2.44,2.61,2.44s3.21-10.78,3.46-12.73
					C96.63,86.27,96.97,79.19,96.88,77.17z"/>
			</g>
			<path fill="#4D8F39" d="M76.05,81.87c0,0-3.63,3.52-3.2,4.33c0.43,0.81,1.62,2.06,2.05,2.38c0.43,0.33,3.94,1.45,4.99,0.4
				c0.13-0.8,1.46-1.81,1.46-2.57C81.35,85.67,80.59,80.03,76.05,81.87z"/>
		</g>
	</g>
</g>
</svg>
