<svg version="1.1" id="Capa_1" xmlns="http://www.w3.org/2000/svg" xmlns:xlink="http://www.w3.org/1999/xlink" x="0px" y="0px"
	 viewBox="0 0 152.79 186.83" style="enable-background:new 0 0 152.79 186.83;" xml:space="preserve">
<style type="text/css">
	.st0{fill:#F0AC80;}
	.st1{fill-rule:evenodd;clip-rule:evenodd;fill:#D68B62;}
	.st2{fill-rule:evenodd;clip-rule:evenodd;fill:#E8A073;}
	.st3{fill:#BFE9FF;}
	.st4{fill:#A8E1FF;}
	.st5{fill:#A3DEFF;}
	.st6{fill:#B0E3FF;}
	.st7{fill:#FF5955;}
	.st8{fill:#FF0000;}
	.st9{fill:#3A8A00;}
	.st10{fill:#417400;}
	.st11{fill:#4D4D4D;}
	.st12{fill:#333333;}
	.st13{fill:#1B1464;}
	.st14{fill:#271D91;}
	.st15{fill:#B2B2B2;stroke:#B2B2B2;stroke-width:0.25;}
	.st16{fill:#8C8C8C;stroke:#5A3D1C;stroke-width:0.25;}
	.st17{fill:#A6A6A6;}
	.st18{fill:#FFFFFF;stroke:#B2B2B2;stroke-width:0.25;}
	.st19{fill:#EBEBEB;}
	.st20{stroke:#000000;stroke-width:0.25;}
	.st21{fill:#8C8C8C;stroke:#003642;stroke-width:0.25;}
	.st22{fill:#7A7A7A;}
	.st23{fill:#666666;stroke:#666666;stroke-width:0.25;}
	.st24{fill:#141414;}
	.st25{fill:#FFFFFF;stroke:#B2B2B2;}
	.st26{fill:#EDEDED;}
	.st27{fill:#694721;}
	.st28{fill:#5A3D1C;}
	.st29{fill:#006631;}
	.st30{fill:#00592B;}
	.st31{fill:#035B73;stroke:#003642;stroke-width:0.25;}
	.st32{fill:#02495C;stroke:#003642;stroke-width:0.25;}
	.st33{fill:#02495C;}
	.st34{fill:#820000;stroke:#730000;}
	.st35{fill:#5C0000;stroke:#5A3D1C;stroke-width:0.25;}
	.st36{fill:#780000;}
	.st37{fill:#006B33;stroke:#003642;stroke-width:0.25;}
	.st38{fill:#00592B;stroke:#003642;stroke-width:0.25;}
	.st39{fill:#DB8C3D;stroke:#003642;stroke-width:0.25;}
	.st40{fill:#C2803D;}
	.st41{fill:#DB6D00;stroke:#003642;stroke-width:0.25;}
	.st42{fill:#3F3F3F;stroke:#3F3F3F;stroke-width:0.25;}
	.st43{stroke:#3F3F3F;stroke-width:0.25;}
	.st44{fill:#262626;}
	.st45{fill:#5A3D1C;stroke:#003642;stroke-width:0.25;}
	.st46{fill:#52361A;}
	.st47{fill:#422C15;stroke:#003642;stroke-width:0.25;}
	.st48{fill:#FFFFFF;stroke:#E8E8E8;}
	.st49{fill:#E3E3E3;}
	.st50{fill:#B2B2B2;}
	.st51{fill:#FFBF00;}
	.st52{fill:#F5B700;}
	.st53{fill:#EBAF00;stroke:#D19D00;stroke-width:0.25;}
	.st54{fill:#D010B1;}
	.st55{fill:#A60D8C;}
	.st56{fill:#00A33D;}
	.st57{fill:#008033;}
	.st58{fill:#00D4FF;}
	.st59{fill:#00ABFF;}
	.st60{fill:#0A0A0A;stroke:#000000;}
	.st61{fill:#666666;stroke:#000000;stroke-width:0.25;}
	.st62{stroke:#000000;}
	.st63{fill:#00B800;}
	.st64{fill:#009C00;}
	.st65{fill:#3F3F3F;}
	.st66{fill:#73A334;stroke:#8CC63F;stroke-width:0.1;}
	.st67{fill:#8CC63F;stroke:#8CC63F;stroke-width:0.1;}
	.st68{fill:#545454;}
	.st69{fill:#7558A4;}
	.st70{fill:#7536D1;}
	.st71{fill:#E2BB95;stroke:#D5AF8C;}
	.st72{fill:#D5AF8C;}
	.st73{fill:#E2BB95;stroke:#D5AF8C;stroke-width:0.5;}
	.st74{fill:#9E2231;}
	.st75{fill:#B72837;}
	.st76{fill:#FFE085;}
	.st77{fill:#EBCE7A;}
	.st78{fill:url(#SVGID_1_);}
	.st79{fill:url(#SVGID_2_);}
	.st80{fill:url(#SVGID_3_);}
	.st81{fill:#D00204;}
	.st82{fill:#D10507;}
	.st83{fill:#D3090B;}
	.st84{fill:#D40C0E;}
	.st85{fill:#D51012;}
	.st86{fill:#D71315;}
	.st87{fill:#D81718;}
	.st88{fill:#D91A1C;}
	.st89{fill:#DB1E1F;}
	.st90{fill:#DC2122;}
	.st91{fill:#DD2526;}
	.st92{fill:#DF2829;}
	.st93{fill:#E02C2D;}
	.st94{fill:#E22F30;}
	.st95{fill:#E33333;}
	.st96{fill:#E43637;}
	.st97{fill:#E63A3A;}
	.st98{fill:#E73D3E;}
	.st99{fill:#E84141;}
	.st100{fill:#EA4444;}
	.st101{fill:#EB4848;}
	.st102{fill:#EC4B4B;}
	.st103{fill:#EE4F4E;}
	.st104{fill:#EF5252;}
	.st105{fill:#F05655;}
	.st106{fill:#F25A59;}
	.st107{fill:#F35D5C;}
	.st108{fill:#047A04;}
	.st109{fill:#57B328;}
	.st110{fill:#507F29;}
	.st111{fill:#DDBB06;}
	.st112{fill:#A80000;}
	.st113{fill:#9E0000;}
	.st114{fill:#8F0000;stroke:#610000;stroke-width:0.25;}
	.st115{fill:#5A3D1C;stroke:#805426;}
	.st116{fill:#63421F;}
	.st117{fill:#5A3D1C;stroke:#6B4620;}
	.st118{fill:url(#SVGID_4_);}
	.st119{fill:#171717;stroke:#000000;}
	.st120{fill:#212121;}
	.st121{fill:url(#SVGID_5_);}
	.st122{fill:#3F3F3F;stroke:#3F3F3F;}
	.st123{fill:#8C8C8C;stroke:#3F3F3F;}
	.st124{fill:#808080;}
	.st125{fill:url(#SVGID_6_);}
	.st126{fill:none;}
	.st127{fill:#D4D4D4;}
	.st128{fill:#D4D4D4;stroke:#B8B8B8;stroke-width:0.5;}
	.st129{fill:#D4D4D4;stroke:#B8B8B8;stroke-width:0.2;}
	.st130{fill:#C7C7C7;}
	.st131{fill:#DBF8FF;stroke:#7DBDCC;stroke-width:0.25;}
	.st132{fill:#C2F3FF;}
	.st133{fill:#F2F2F2;}
	.st134{fill:url(#SVGID_7_);stroke:#000000;}
	.st135{fill:#42210B;stroke:#000000;}
	.st136{fill:#C69C6D;stroke:#000000;}
	.st137{fill:#93278F;stroke:#000000;}
	.st138{fill:#589F3E;}
	.st139{fill:#4D8F39;}
	.st140{fill:#963528;}
	.st141{fill:#AC3A2D;}
	.st142{fill:#211915;}
	.st143{fill:#444242;}
	.st144{fill:#1A1A1A;}
	.st145{fill:#FFFFFF;}
	.st146{fill:#2E2E2E;}
	.st147{fill:#363636;}
	.st148{fill:#666666;}
	.st149{fill:#C69C6D;}
	.st150{fill:#B38D62;}
	.st151{fill:#A67C52;}
	.st152{fill:#8C6239;}
	.st153{fill:#9E10D2;}
	.st154{fill:#8210D2;}
	.st155{fill:#6B6B6B;}
	.st156{fill:#008C08;}
	.st157{fill:#00A308;}
	.st158{fill:#EC2024;}
	.st159{fill:#E31E26;}
	.st160{fill:#BED63A;}
	.st161{fill:#EC1C24;}
	.st162{fill:#00ADEE;}
	.st163{fill:#2E3191;}
</style>
<g>
	<g>
		<path class="st0" d="M149.69,213.45c-0.45-14.13-2.35-52.05-2.75-57.09c-0.44-5.43-4.12-19.67-5.66-33.29
			c-1.63-14.29-6.99-25.02-11.01-31.72c-0.29-0.48-0.64-0.86-1.04-1.18c-0.03-0.04-0.05-0.07-0.08-0.11
			c-0.11-0.09-1.12-1.42-1.23-1.51c-3.75-3.13-11.72-7.47-15.71-9.1c-2.82-1.47-9.24-5.15-11.6-6.37c-3.66-1.89-8.69-4.13-9.19-4.97
			c-1.34-2.27-1.83-6.79-1.92-10.79c1.55-2.2,2.65-4.27,2.82-5.58c0.16-1.26,0.47-5.82,0.47-5.82s0.47,0.56,1.19,0.53
			c1.91-0.07,2.37-1.97,3.01-3.28c0.97-1.97,2.28-5.01,2.36-8.19c0.06-2.29,0.09-5.97-4.11-2.43c0,0-0.18-10.96-0.3-15.39
			C94.82,12.38,94.57,4.99,80.88,0.8c-0.77-0.24-4.16-0.8-7.46-0.8c-3.08,0.01-6.08,0.58-6.8,0.8c-3.63,1.11-6.3,2.79-8.98,5.17
			c-3.65,3.25-5.11,6.41-5.23,11.2c-0.11,4.44-0.21,15.39-0.21,15.39c-4.2-3.54-4.24,0.77-4.03,3.1c0.28,3.17,1.24,5.54,2.21,7.51
			c0.64,1.31,1.33,3.21,3.24,3.28c0.72,0.03,1.19-0.53,1.19-0.53s0.31,4.56,0.48,5.82c0.15,1.14,1.02,2.91,2.29,4.84
			c0.09,4.21-0.21,9.22-1.79,11.53c-0.38,0.55-5.81,3.05-9.44,4.97c-0.37,0.2-0.83,0.45-1.34,0.74c0,0-0.01-0.01-0.01-0.01
			s-8.06,4.24-11.98,5.7c-2.97,1.11-8.45,4.18-12.55,7.06c-0.89,0.47-1.81,1.14-2.76,2.09c-0.03,0.02-0.07,0.06-0.01,0.01
			c-0.19,0.18-0.33,0.35-0.44,0.51c-5.75,6.5-7.84,23.64-7.63,31.27c0.23,7.84-3.04,34.17-3.69,45.04
			C5.27,176.4,3.1,205.78,3.1,205.78l19.72,2.12c0,0,5.93-42.99,7.27-49.14c1.52-6.96,0.71-32.59,7.71-46.59s0,0,0,0
			c2.4,1.39,3.11,13.52,3.04,27.03c-0.07,14.4,61.67,9.89,62.96,1.97c1.14-7,4.46-27.72,4-31c2.58,3.65,10.26,18.56,11.08,21.16
			c1.09,3.48,3.05,19.15,3.48,30.04c0.44,10.88,2.62,27.2,2.62,27.2l4.13,25.25L149.69,213.45z"/>
	</g>
	<g>
		<g>
			<path class="st65" d="M113.1,182.86c-0.22-0.44-0.41-0.87-0.61-1.3c2.12,5.48,4.49,12.09,6.37,17.62
				C117.41,193.15,115.71,188.13,113.1,182.86z"/>
			<path class="st65" d="M118.51,206.64c-1.57-2.48-1.86-5.05-4.42-5.55c-2.56-0.49-7.08,0.4-10.62,1.49
				c-3.54,1.08-10.52,2.47-11.3,1.68c-0.79-0.79,6.09-0.4,10.62-3.47c4.52-3.08,7.38-4.95,7.86-7.64c0.49-2.66-0.69-7.12-1.96-7.42
				c-1.28-0.29-2.76,1.68-5.11,1.59c-2.37-0.1-5.9-0.3-5.9-0.3s5.21-1.97,6.99-4.25c1.76-2.27,1.37-3.26-0.11-3.26
				c-1.47,0-9.04,1.48-9.34,1.18c-0.29-0.3,6.7-4.65,7.58-6.13c0.89-1.5,1.47-10.41,2.84-16.06c1.38-5.65,4.82-13.97,4.82-13.97
				s-0.86,4.19-1.44,9.75c1.16-6.26,2.95-14.24,3.22-15.88c0.44-0.43,0.89-0.9,1.39-1.4c5.9-6.14,2.85-22.49,1.66-25.07
				c-0.52-1.15-1.6-2.04-3.54-2.64l-0.98-33.52l-3.04-0.4l0.1,0.32l0.56,33c-2.16-0.21-4.91-0.23-8.43-0.02
				c-10.32,0.59-24.98,13.76-24.98,13.76s0.78,0.59-2.47-1.2c-3.24-1.77-17.99-9.4-24.49-10.69c-4.28-0.84-8.87-1-12.12-0.26
				c0.12-0.65,0.23-1.23,0.32-1.51c0.3-0.89,2.27-34.58,2.27-34.58H35.6c0,0,0,13.78-0.1,15.16c-0.1,1.39-1.77,13.86-2.36,17.83
				c-0.38,2.53-0.88,4.33-1.19,5.3c-1.78,3.3,0.52,17.21,1.28,20.55c0.62,2.7,2.36,7.96,5.98,10.46l-0.12,0.3
				c0,0,0.34,17.82-0.71,29.67c0.03-0.07,0.05-0.15,0.07-0.2c1.76-4.95,0.75-29.65,0.75-29.65s2.49,24,2.49,25.19
				c0,1.18,3.55,13.67,4.53,15.05c0.98,1.39,0.98,2.57,0,3.27c-0.98,0.7-5.12,4.96-7.08,6.74c-1.15,1.04-2.46,10.28-3.45,14.63
				c9.13,2.01,67.36,0.29,84.99-0.83l0,0c-0.53,0.02-1.05,0.07-1.58,0.1C118.89,207.3,118.69,206.92,118.51,206.64z M44.26,145.81
				c-1.87-0.4-4.87-2.19-4.87-2.19s22.07-4.76,26.49-6.82c4.42-2.09,8.68-6.25,8.68-6.25s3.81,3.79,6.1,5.45
				c8.09,5.87,20.31,6.2,23.06,6.9c2.75,0.68-11.24,1.06-13.33,0.84c-4.38-0.48-10.55-5.3-15.08-4.7
				c-4.51,0.59-7.69,2.59-14.67,4.39C53.65,145.19,46.12,146.2,44.26,145.81z M87.13,145.2c0,0-3.64,1.48-5.6,1.99
				c-1.97,0.49-16.33,0.59-17.11,0.18c-0.8-0.39-2.36-1.67-2.36-1.67l1.56-0.4c0,0,10.93,0.5,15.75,0.2
				C84.19,145.2,87.13,145.2,87.13,145.2z M56.26,152.35c-2.07-0.6-2.86-2.09-2.86-2.09s14.66,0.7,17.91,0.9
				c3.24,0.19,9.14,0.7,13.85,0c4.72-0.7,8.76-0.7,8.76-0.7s-14.96,4.16-16.13,4.16C76.61,154.62,58.31,152.94,56.26,152.35z"/>
			<path class="st65" d="M110.49,176.55c-0.63-1.86-1.12-3.64-1.49-5.32c0.3,1.83,0.74,3.52,1.35,4.99
				C110.39,176.33,110.44,176.45,110.49,176.55z"/>
			<path class="st65" d="M75.3,139.02c4.53-0.59,10.7,4.23,15.08,4.7c2.09,0.22,16.08-0.16,13.33-0.84
				c-2.75-0.7-14.98-1.03-23.06-6.9c-2.29-1.65-6.1-5.45-6.1-5.45s-4.26,4.16-8.68,6.25c-4.42,2.07-26.49,6.82-26.49,6.82
				s3.01,1.79,4.87,2.19c1.87,0.39,9.39-0.62,16.37-2.4C67.61,141.61,70.79,139.61,75.3,139.02z"/>
			<path class="st65" d="M63.62,145.31l-1.56,0.4c0,0,1.56,1.28,2.36,1.67c0.78,0.41,15.14,0.31,17.11-0.18
				c1.96-0.51,5.6-1.99,5.6-1.99s-2.95,0-7.76,0.3C74.55,145.81,63.62,145.31,63.62,145.31z"/>
			<path class="st65" d="M85.16,151.16c-4.71,0.7-10.61,0.19-13.85,0c-3.25-0.19-17.91-0.9-17.91-0.9s0.79,1.49,2.86,2.09
				c2.06,0.59,20.36,2.27,21.54,2.27c1.18,0,16.13-4.16,16.13-4.16S89.89,150.46,85.16,151.16z"/>
			<path class="st65" d="M121.57,207.62c-0.6-2.08-1.56-5.04-2.71-8.44c-1.88-5.54-4.25-12.14-6.37-17.62
				c-0.7-1.83-1.38-3.51-2-5.01c-0.05-0.1-0.1-0.22-0.14-0.33c-0.61-1.47-1.05-3.17-1.35-4.99c-0.87-5.32-0.56-11.75,0-16.97
				c0.59-5.56,1.44-9.75,1.44-9.75s-3.44,8.32-4.82,13.97c-1.37,5.65-1.95,14.56-2.84,16.06c-0.89,1.48-7.87,5.84-7.58,6.13
				c0.3,0.3,7.88-1.18,9.34-1.18c1.48,0,1.87,0.99,0.11,3.26c-1.77,2.28-6.99,4.25-6.99,4.25s3.53,0.21,5.9,0.3
				c2.36,0.1,3.83-1.87,5.11-1.59c1.28,0.31,2.46,4.76,1.96,7.42c-0.49,2.69-3.35,4.56-7.86,7.64c-4.53,3.07-11.41,2.68-10.62,3.47
				c0.78,0.79,7.76-0.6,11.3-1.68c3.54-1.09,8.07-1.99,10.62-1.49c2.56,0.5,2.85,3.08,4.42,5.55c0.19,0.29,0.38,0.66,0.6,1.11
				c0.52-0.04,1.04-0.08,1.58-0.1c0.14-0.01,0.29-0.02,0.43-0.03C121.26,207.62,121.42,207.62,121.57,207.62z"/>
			<path class="st65" d="M46.22,187.11c0.98-0.7,0.98-1.88,0-3.27c-0.98-1.39-4.53-13.87-4.53-15.05c0-1.19-2.49-25.19-2.49-25.19
				s1.02,24.7-0.75,29.65c-0.03,0.05-0.04,0.14-0.07,0.2c-1.8,5.36-5.69,29.64-6.76,34.15c-0.01,0.06-0.04,0.12-0.05,0.2
				c0.06,0.01,0.13,0.01,0.18,0.02c1.3,0.24,2.61,0.37,3.94,0.66c0.99-4.35,2.3-13.59,3.45-14.63
				C41.1,192.07,45.24,187.81,46.22,187.11z"/>
		</g>
		<g>
			<path class="st65" d="M113.1,182.86c-0.22-0.44-0.41-0.87-0.61-1.3c2.12,5.48,4.49,12.09,6.37,17.62
				C117.41,193.15,115.71,188.13,113.1,182.86z"/>
			<path class="st68" d="M118.51,206.64c-1.57-2.48-1.86-5.05-4.42-5.55c-2.56-0.49-7.08,0.4-10.62,1.49
				c-3.54,1.08-10.52,2.47-11.3,1.68c-0.79-0.79,6.09-0.4,10.62-3.47c4.52-3.08,7.38-4.95,7.86-7.64c0.49-2.66-0.69-7.12-1.96-7.42
				c-1.28-0.29-2.76,1.68-5.11,1.59c-2.37-0.1-5.9-0.3-5.9-0.3s5.21-1.97,6.99-4.25c1.76-2.27,1.37-3.26-0.11-3.26
				c-1.47,0-9.04,1.48-9.34,1.18c-0.29-0.3,6.7-4.65,7.58-6.13c0.89-1.5,1.47-10.41,2.84-16.06c1.38-5.65,4.82-13.97,4.82-13.97
				s-0.86,4.19-1.44,9.75c1.16-6.26,2.95-14.24,3.22-15.88c0.44-0.43,0.89-0.9,1.39-1.4c5.9-6.14,2.85-22.49,1.66-25.07
				c-0.52-1.15-1.6-2.04-3.54-2.64l-0.98-33.52l-3.04-0.4l0.1,0.32l0.56,33c-2.16-0.21-4.91-0.23-8.43-0.02
				c-10.32,0.59-24.98,13.76-24.98,13.76s0.78,0.59-2.47-1.2c-3.24-1.77-17.99-9.4-24.49-10.69c-4.28-0.84-8.87-1-12.12-0.26
				c0.12-0.65,0.23-1.23,0.32-1.51c0.3-0.89,2.27-34.58,2.27-34.58H35.6c0,0,0,13.78-0.1,15.16c-0.1,1.39-1.77,13.86-2.36,17.83
				c-0.38,2.53-0.88,4.33-1.19,5.3c-1.78,3.3,0.52,17.21,1.28,20.55c0.62,2.7,2.36,7.96,5.98,10.46l-0.12,0.3
				c0,0,0.34,17.82-0.71,29.67c0.03-0.07,0.05-0.15,0.07-0.2c1.76-4.95,0.75-29.65,0.75-29.65s2.49,24,2.49,25.19
				c0,1.18,3.55,13.67,4.53,15.05c0.98,1.39,0.98,2.57,0,3.27c-0.98,0.7-5.12,4.96-7.08,6.74c-1.15,1.04-2.46,10.28-3.45,14.63
				c9.13,2.01,67.36,0.29,84.99-0.83l0,0c-0.53,0.02-1.05,0.07-1.58,0.1C118.89,207.3,118.69,206.92,118.51,206.64z M44.26,145.81
				c-1.87-0.4-4.87-2.19-4.87-2.19s22.07-4.76,26.49-6.82c4.42-2.09,8.68-6.25,8.68-6.25s3.81,3.79,6.1,5.45
				c8.09,5.87,20.31,6.2,23.06,6.9c2.75,0.68-11.24,1.06-13.33,0.84c-4.38-0.48-10.55-5.3-15.08-4.7
				c-4.51,0.59-7.69,2.59-14.67,4.39C53.65,145.19,46.12,146.2,44.26,145.81z M87.13,145.2c0,0-3.64,1.48-5.6,1.99
				c-1.97,0.49-16.33,0.59-17.11,0.18c-0.8-0.39-2.36-1.67-2.36-1.67l1.56-0.4c0,0,10.93,0.5,15.75,0.2
				C84.19,145.2,87.13,145.2,87.13,145.2z M56.26,152.35c-2.07-0.6-2.86-2.09-2.86-2.09s14.66,0.7,17.91,0.9
				c3.24,0.19,9.14,0.7,13.85,0c4.72-0.7,8.76-0.7,8.76-0.7s-14.96,4.16-16.13,4.16C76.61,154.62,58.31,152.94,56.26,152.35z"/>
			<path class="st65" d="M110.49,176.55c-0.63-1.86-1.12-3.64-1.49-5.32c0.3,1.83,0.74,3.52,1.35,4.99
				C110.39,176.33,110.44,176.45,110.49,176.55z"/>
			<path class="st65" d="M75.3,139.02c4.53-0.59,10.7,4.23,15.08,4.7c2.09,0.22,16.08-0.16,13.33-0.84
				c-2.75-0.7-14.98-1.03-23.06-6.9c-2.29-1.65-6.1-5.45-6.1-5.45s-4.26,4.16-8.68,6.25c-4.42,2.07-26.49,6.82-26.49,6.82
				s3.01,1.79,4.87,2.19c1.87,0.39,9.39-0.62,16.37-2.4C67.61,141.61,70.79,139.61,75.3,139.02z"/>
			<path class="st65" d="M63.62,145.31l-1.56,0.4c0,0,1.56,1.28,2.36,1.67c0.78,0.41,15.14,0.31,17.11-0.18
				c1.96-0.51,5.6-1.99,5.6-1.99s-2.95,0-7.76,0.3C74.55,145.81,63.62,145.31,63.62,145.31z"/>
			<path class="st65" d="M85.16,151.16c-4.71,0.7-10.61,0.19-13.85,0c-3.25-0.19-17.91-0.9-17.91-0.9s0.79,1.49,2.86,2.09
				c2.06,0.59,20.36,2.27,21.54,2.27c1.18,0,16.13-4.16,16.13-4.16S89.89,150.46,85.16,151.16z"/>
			<path class="st65" d="M121.57,207.62c-0.6-2.08-1.56-5.04-2.71-8.44c-1.88-5.54-4.25-12.14-6.37-17.62
				c-0.7-1.83-1.38-3.51-2-5.01c-0.05-0.1-0.1-0.22-0.14-0.33c-0.61-1.47-1.05-3.17-1.35-4.99c-0.87-5.32-0.56-11.75,0-16.97
				c0.59-5.56,1.44-9.75,1.44-9.75s-3.44,8.32-4.82,13.97c-1.37,5.65-1.95,14.56-2.84,16.06c-0.89,1.48-7.87,5.84-7.58,6.13
				c0.3,0.3,7.88-1.18,9.34-1.18c1.48,0,1.87,0.99,0.11,3.26c-1.77,2.28-6.99,4.25-6.99,4.25s3.53,0.21,5.9,0.3
				c2.36,0.1,3.83-1.87,5.11-1.59c1.28,0.31,2.46,4.76,1.96,7.42c-0.49,2.69-3.35,4.56-7.86,7.64c-4.53,3.07-11.41,2.68-10.62,3.47
				c0.78,0.79,7.76-0.6,11.3-1.68c3.54-1.09,8.07-1.99,10.62-1.49c2.56,0.5,2.85,3.08,4.42,5.55c0.19,0.29,0.38,0.66,0.6,1.11
				c0.52-0.04,1.04-0.08,1.58-0.1c0.14-0.01,0.29-0.02,0.43-0.03C121.26,207.62,121.42,207.62,121.57,207.62z"/>
			<path class="st65" d="M46.22,187.11c0.98-0.7,0.98-1.88,0-3.27c-0.98-1.39-4.53-13.87-4.53-15.05c0-1.19-2.49-25.19-2.49-25.19
				s1.02,24.7-0.75,29.65c-0.03,0.05-0.04,0.14-0.07,0.2c-1.8,5.36-5.69,29.64-6.76,34.15c-0.01,0.06-0.04,0.12-0.05,0.2
				c0.06,0.01,0.13,0.01,0.18,0.02c1.3,0.24,2.61,0.37,3.94,0.66c0.99-4.35,2.3-13.59,3.45-14.63
				C41.1,192.07,45.24,187.81,46.22,187.11z"/>
		</g>
	</g>
</g>
</svg>
