<?xml version="1.0" encoding="utf-8"?>
<!-- Generator: Adobe Illustrator 23.0.6, SVG Export Plug-In . SVG Version: 6.00 Build 0)  -->
<svg version="1.1" id="Capa_1" xmlns="http://www.w3.org/2000/svg" xmlns:xlink="http://www.w3.org/1999/xlink" x="0px" y="0px"
	 viewBox="0 0 152.79 186.83" enable-background="new 0 0 152.79 186.83" xml:space="preserve">
<g>
	<g>
		<path fill="#F0AC80" d="M100.48,80.46c-3.81-1.97-4.62-8.98-5.47-9.52c-5.53-3.48-2.21-13.48-1.8-17.48h-1.01H60.45h-1.01
			c0.4,4,5.05,14-1.54,17.48c-0.62,0.33,3.65,8.34,4.59,12.52c1.42,6.34-10.84,11.56-12,12c0.3,0.39-11.2-0.32-7.19,5.73
			c1.84,2.78,2.7,5.47,5.05,7.78c2.43,2.38,5.21,4.34,8.26,5.68c3.67,1.61,7.6,2.4,11.55,2.64c2.7,0.17,5.44,0.14,8.16-0.08
			c2.72,0.23,5.46,0.25,8.16,0.08c3.95-0.25,7.88-1.03,11.55-2.64c3.05-1.34,5.83-3.3,8.26-5.68c2.36-2.31,3.12-5,4.97-7.78
			c4.01-6.06,8.39-17.43,8.69-17.82C116.77,82.98,103.47,82.01,100.48,80.46z"/>
		<path fill="#F0AC80" d="M98.99,33.91c0,0-0.19-11.41-0.31-16.03C98.56,12.89,98.3,5.21,84.04,0.83c-0.8-0.25-4.33-0.84-7.76-0.83
			c-3.21,0.01-6.33,0.6-7.08,0.83c-3.78,1.16-6.57,2.9-9.35,5.38c-3.8,3.38-5.33,6.68-5.45,11.67c-0.12,4.62-0.23,16.03-0.23,16.03
			c-4.37-3.68-4.41,0.8-4.2,3.23c0.29,3.3,1.29,5.77,2.3,7.83c0.67,1.37,1.38,3.34,3.37,3.42c0.75,0.03,1.24-0.55,1.24-0.55
			s0.32,4.75,0.49,6.06c0.51,3.9,9.13,14.86,13.98,15.83c1.47,0.29,9.06,0.3,10.43,0.04c4.79-0.93,13.64-11.86,14.16-15.87
			c0.17-1.31,0.49-6.06,0.49-6.06s0.49,0.58,1.24,0.55c1.99-0.08,2.47-2.05,3.14-3.42c1.01-2.05,2.38-5.21,2.46-8.53
			C103.33,34.06,103.37,30.23,98.99,33.91z"/>
		<g>
			<g>
				<path fill-rule="evenodd" clip-rule="evenodd" fill="#D68B62" d="M54.82,41.31c0.11-0.01-0.87-3.58-1.45-5
					c-0.63-1.54-1.27-1.87-1.66-1.85c-0.74,0.04-1,3.47-1,3.47s0.54-3.68,2.2-0.72C53.36,38.03,54.69,41.32,54.82,41.31z"/>
				<path fill-rule="evenodd" clip-rule="evenodd" fill="#D68B62" d="M52.21,37.83c0.05-0.24,0.3-1.65,0.5-1.66
					c0.24-0.01,0.24,1.01,0.19,1.17c-0.16,0.5-0.32,1-0.43,1.54c-0.11,0.56-0.12,1.1-0.11,1.68c0.01,0.51,0.12,1.11,0.22,1.6
					c-0.39-0.38-0.49-1.9-0.5-2.47C52.06,38.71,52.11,38.39,52.21,37.83z"/>
				<path fill-rule="evenodd" clip-rule="evenodd" fill="#E8A073" d="M55.18,44.18c-0.03-0.09-0.56-1.27-0.6-1.36
					c-0.38-0.87,0.43,0.25,0.51,0.35c0.4,0.56,0.69,0.87,0.97,1.35c0.24,0.41,0.12,1.04-0.43,1.1c-0.46,0.05-1.04-0.39-1.23-1.04
					C54.36,44.49,55.59,45.31,55.18,44.18z"/>
			</g>
			<g>
				<path fill-rule="evenodd" clip-rule="evenodd" fill="#D68B62" d="M98.44,41.31c-0.11-0.01,0.87-3.58,1.45-5
					c0.63-1.54,1.27-1.88,1.66-1.85c0.74,0.04,1,3.47,1,3.47s-0.54-3.68-2.2-0.73C99.89,38.03,98.57,41.32,98.44,41.31z"/>
				<path fill-rule="evenodd" clip-rule="evenodd" fill="#D68B62" d="M101.04,37.83c-0.05-0.24-0.3-1.65-0.5-1.66
					c-0.24-0.01-0.24,1.01-0.19,1.17c0.16,0.5,0.32,1,0.43,1.54c0.11,0.56,0.12,1.1,0.11,1.68c-0.01,0.51-0.12,1.11-0.22,1.6
					c0.39-0.38,0.49-1.9,0.5-2.47C101.19,38.71,101.14,38.39,101.04,37.83z"/>
				<path fill-rule="evenodd" clip-rule="evenodd" fill="#E8A073" d="M98.08,44.18c0.03-0.09,0.56-1.27,0.6-1.36
					c0.38-0.87-0.43,0.25-0.51,0.35c-0.4,0.56-0.69,0.87-0.97,1.35c-0.24,0.41-0.12,1.04,0.43,1.1c0.46,0.05,1.04-0.39,1.24-1.04
					C98.89,44.49,97.67,45.31,98.08,44.18z"/>
			</g>
		</g>
	</g>
	<g>
		<path fill="#5A3D1C" stroke="#805426" d="M51.3,77.98c0,0-6.59,1.52-13.69,4.32c-7.11,2.78-16.61,7.21-19.03,12.44
			c-2.4,5.17-3.69,30.31-4.56,34.49c-0.89,4.18-3.17,26.75-4.06,31.83c-0.91,5.07-2.81,18.77-1.54,29.55
			c1.27,10.78,0.38,34.11,0.77,36.4c0.38,2.27,0.25,1.65,0.12,3.55c-0.12,1.89,0.38,3.54,0.38,3.54l0.64,1.15l16.11,0.63l1.89-3.19
			c0,0,4.57-26.88,4.7-31.7c0.13-4.82,1.64-14.47,1.77-18.27c0.14-3.8,0.63-11.28,2.54-12.3c1.9-1.02,1.9-1.02,1.9-1.02
			s-0.65,18.52-1.39,22.34c-0.77,3.8-3.3,11.89-3.42,14.95c-0.13,3.04-1.01,18.02-1.39,23.73c-0.38,5.7-0.38,6.72-0.38,6.72
			l52.76-1.4c0,0,32.73-1.51,33.11-1.51c0.39,0,2.66-12.57,2.53-16.37c-0.12-3.8-2.29-20.55-3.68-26.25
			c-1.4-5.72-3.67-23.72-3.17-26.77c0.51-3.04,1.26-3.54,1.26-3.54s3.81,9.62,3.81,13.18c0,3.57,1.02,19.53,0.89,21.95
			c-0.13,2.42,1.01,20.55,2.28,23.85c1.26,3.28,3.17,8.5,3.03,9.25c-0.12,0.77-0.25,6.35,0.13,6.35c0.38,0,17.13,1.76,17.51,1.76
			c0.37,0,0.12-7.48,0.12-8.12c0-0.64,1.27-35.24,1.52-42.48c0.24-7.23-2.29-22.96-1.76-28.28c0.5-5.34-1.29-28.17-3.05-37.69
			c-1.78-9.5-2.16-18.63-5.44-22.7c-3.3-4.04-12.57-12.54-16.87-14.58c-4.32-2.04-15.35-8.26-15.35-8.26l-1.59,0.14
			c0,0-34.8,15.4-39.56,11.74C56.37,83.77,51.3,77.98,51.3,77.98z"/>
		<path fill="#63421F" d="M72.18,95.66c0,0-2.88-0.5-4.22-0.5c-1.35,0-5.58,1.44-3.64,4.74c1.96,3.27,3.05,8.86,2.7,10.98
			c-0.32,2.1,2.29,36.28,2.96,42.96c0.69,6.68-1.17,8.28-2.36,14.05c-1.19,5.74,0.77,21.05,1.52,27.05c0.77,5.99-1,19.36-0.08,25.27
			c0.92,5.91,0.51,12.19,0.51,12.19l-0.09,0.5l-0.07,3.47l9.97-0.42c0,0,4.82-2.03,3.38-6.33c-1.44-4.32-2.2-6.43-2.37-10.07
			c-0.16-3.63-3.63-20.38-2.19-25.27c1.44-4.91,2.03-17.35,1.94-21.57c-0.08-4.23-2.11-23.67-0.67-28.33
			c1.44-4.65,0.24-16.41,1.01-21.05c0.76-4.64,0.33-12.08-0.09-14.12c-0.42-2.03,7.96-10.4,8.88-12.86
			c0.92-2.44-4.56-5.03-4.91-4.65c-0.34,0.39-4.14,2.46-5.16,2.96C78.19,95.16,72.18,95.66,72.18,95.66z"/>
		<path fill="#63421F" d="M34.31,234.25c0,0-1.61,1.02-1.44-4.07c0.17-5.07,0.67-24.69,2.62-31.03c1.95-6.35,2.97-13.18,2.97-17.07
			c0-3.89,0.76-11.34,0.42-11.58c-0.34-0.26-2.38,1.19-2.63,2.38c-0.25,1.17-1.44,12.86-1.68,15.3c-0.25,2.46-1.27,11.41-1.27,13.28
			c0,1.86-1.52,10.39-1.69,12.43c-0.17,2.03-1.86,12.01-2.2,14.03c-0.33,2.03-1.45,6.68-2.12,7.62c-0.67,0.92-1.19-2.8-2.78-2.8
			c-1.61,0,0.16-2.01,0.16-2.01l-2.02-2.98l4.32-3.7l0.67-10.5l-5.83,3.72c0,0-0.34-1.86,2.78-4.64c3.13-2.8,4.32-4.24,4.49-7.87
			c0.16-3.63,2.6-20.55,2.43-20.8c-0.17-0.25-7.68,3.03-8.19,2.78c-0.51-0.25,4.05-3.55,6.25-5.74c2.21-2.21-4.39-3.89-4.39-3.89
			s2.62-1.69,4.23-2.04c1.6-0.33-8.79-9.55-8.53-12.08c0.25-2.53,4.22,3.12,7.61,3.37c3.37,0.27,7.61-2.96,7.61-2.96
			s-9.89-13.35-10.82-17.76c-0.93-4.4-1.02-7.28-0.76-7.28c0.25,0,8.79,10.25,9.46,10.92c0.67,0.67,0.6-14.44-0.85-19.11
			c-1.44-4.64,2.63-4.3,3.56-3.62c0.93,0.66-0.18-18.87-0.43-20.4c-0.25-1.51,4.99,5.76,5.42,7.72c0.41,1.94,0.41,12.09,0.41,12.09
			l6-4.07c0,0,2.04,1.61,4.32,2.46c2.28,0.84,3.64,0.52-1.6,1.09c-5.25,0.59,5.91,6.94,7.09,7.96c1.19,1,2.21,3.8,2.21,3.8
			s-7.95-3.38-10.58-1.19c-2.62,2.21-7.18,13.53-5.14,17.5c2.01,3.99,3.03,5.09,3.03,5.09l-7.18-3.23c0,0,0.09,13.62,3.55,19.21
			c3.46,5.56,6.68,8.12,6.68,8.12l-7.45-1.11c0,0,1.7,6.67,6.09,10.49c4.4,3.8,3.81,5.32,0.92,4.72c-2.87-0.58-7.18-2.36-3.12,1.36
			c4.06,3.72,1.7,7.02-0.08,8.46c-1.78,1.42-6.42,8.19-6.42,8.19s8.03,0.52,11.33,0.34c3.29-0.17,2.53,1.86-0.93,3.98
			c-3.48,2.11-9.05,8.71-9.48,9.3c-0.42,0.58,4.15,3.88,5.92,4.05C49.02,232.63,34.31,234.25,34.31,234.25z"/>
		<path fill="#63421F" d="M119.79,231.97c0,0,1.26-8.71,1.26-10.23c0-1.54-0.25-10.08-0.85-13.21c-0.58-3.13-1.77-12.34-2.19-15.14
			c-0.43-2.77-2.88-11.59-2.88-16.98c0-5.43-0.76-12.68-0.26-13.37c0.52-0.67,1.28,0.27,1.36,1.61c0.09,1.34,1.69,6.08,2.01,9.13
			c0.35,3.05,0.94,9.63,0.94,9.9c0,0.25,0.68,14.62,0.68,15.99c0,1.34,1.1,13.94,1.87,18.51c0.75,4.57,3.04,8.12,3.04,10.65
			c0,2.53,1.27,7.77,1.27,7.77s3.54-0.85,3.8-2.03c0.26-1.17-0.5-2.79-0.5-2.79s2.46-0.94,0.35-4.32c-2.13-3.37-2.38-3.63-2.88-4.99
			c-0.52-1.34-2.46-6.33-0.27-8.61c2.2-2.28,1.71-3.3-0.41-6.1c-2.11-2.78,0.09-12.68-0.42-17.57c-0.51-4.92-1.85-5.51-1.85-7.95
			c0-2.46-2.38-8.12,0.92-8.54c3.3-0.42,3.39-2.3,1.1-3.72c-2.29-1.44-8.29-8.54-8.53-12.61c-0.26-4.05,3.46-6.35,4.81-9.73
			c1.36-3.38-1.27-3.3-1.85-3.13c-0.59,0.17,2.87-7.45,3.37-12.34c0.51-4.89-1.25-3.55-2.54-1.78c-1.25,1.78-2.19-15.04-1.59-19.85
			c0.6-4.82-6.77,4.29-7.02,8.11c-0.25,3.81-2.03,8.96-5.59,7.94c-3.55-1.02-0.76,4.92-0.32,6.08c0.41,1.19,1.25,8.71,3.12,12.86
			c1.87,4.15,2.02,0.35,0.33,7.87c-1.69,7.52-5.06,11.49-3.63,12.01c1.43,0.5,1.94,10.72,0.59,11.66
			c-1.36,0.92-11.24-1.36-9.89,1.09c1.34,2.46,6.25,9.48,9.3,8.12c3.04-1.35,2.71,1.27,0.85,6.35c-1.86,5.06,3.03,7.6,3.64,11.22
			c0.58,3.65-3.73,6.02-2.97,8.38c0.77,2.36,7.02,13.78,1.7,13.45c-5.33-0.34-7.53-0.27-12.01,0.4c-4.48,0.69-11.58,1.88-6.84,3.15
			c4.72,1.27-0.43,2.44-0.09,2.44C91.05,231.7,119.79,231.97,119.79,231.97z"/>
		<path fill="#5A3D1C" stroke="#6B4620" d="M71.85,77.1c0,0-7.49-4.69-9.01-7.86c-1.52-3.17-1.52-3.17-1.52-3.17
			s-5.72,8.23-7.61,10.02c-1.9,1.78-2.41,3.41,0.13,6.71c2.53,3.3,10.51,12.93,17.74,12.82c7.24-0.14,8.5-1.52,12.44-3.55
			c3.93-2.04,10.15-6.6,13.18-9.65c3.05-3.03,4.45-6.85,4.45-6.85s-2.55-0.5-4.56-3.54c-2.04-3.04-4.7-8.23-4.7-8.23
			s-1.39,5.19-3.8,7.73c-2.42,2.54-10.52,5.07-12.3,5.2C74.51,76.86,71.85,77.1,71.85,77.1z"/>
		<linearGradient id="SVGID_1_" gradientUnits="userSpaceOnUse" x1="72.2964" y1="162.7749" x2="77.0465" y2="162.7749">
			<stop  offset="0" style="stop-color:#5A3D1C"/>
			<stop  offset="0.5" style="stop-color:#E4BC96"/>
			<stop  offset="1" style="stop-color:#5A3D1C"/>
		</linearGradient>
		<polygon fill="url(#SVGID_1_)" points="72.3,76.33 72.3,249.08 77.05,249.46 76.6,76.09 		"/>
	</g>
</g>
</svg>
