<?xml version="1.0" encoding="utf-8"?>
<!-- Generator: Adobe Illustrator 23.0.6, SVG Export Plug-In . SVG Version: 6.00 Build 0)  -->
<svg version="1.1" id="Capa_1" xmlns="http://www.w3.org/2000/svg" xmlns:xlink="http://www.w3.org/1999/xlink" x="0px" y="0px"
	 viewBox="0 0 152.79 186.83" enable-background="new 0 0 152.79 186.83" xml:space="preserve">
<g>
	<g>
		<path fill="#F0AC80" d="M99.92,75.8c-3.81-1.96-9.07-4.26-9.59-5.14c-2.24-3.75-2.27-13.47-1.88-17.47l-1.01,0l-31.74,0.14
			l-1.01,0c0.42,4,0.98,13.87-1.46,17.49c-0.39,0.58-6.03,3.2-9.81,5.22c-3.13,1.68-11.68,6.93-12.84,7.37
			c0.3,0.39,4.14,11.68,8.18,17.72c1.86,2.78,2.72,5.46,5.09,7.76c2.44,2.37,5.23,4.31,8.29,5.64c3.67,1.6,7.62,2.36,11.56,2.59
			c2.7,0.16,5.44,0.12,8.16-0.12c2.72,0.22,5.46,0.23,8.16,0.05c3.94-0.26,7.88-1.06,11.54-2.69c3.05-1.36,5.82-3.32,8.24-5.72
			c2.35-2.32,3.1-5.01,4.93-7.8c3.98-6.07,8.32-17.47,8.62-17.86C112.15,82.6,102.91,77.33,99.92,75.8z"/>
		<g>
			<path fill="#F0AC80" d="M129.72,93.36c-0.11-0.09-1.18-1.48-1.29-1.57c-4.14-3.43-13.2-8.25-17.08-9.67
				c-4.09-1.5-21.53,3.9-37.22,3.98c-0.04,0-1.38,0.04-2.26,0.06c-0.89-0.02-2.23-0.04-2.27-0.04C53.92,86.17,42,76.81,42,76.81
				s-8.37,4.45-12.45,5.99C25.69,84.26,134.97,100.13,129.72,93.36z"/>
		</g>
		<path fill="#F0AC80" d="M94.15,33.61c0,0-0.24-11.41-0.38-16.03C93.62,12.6,93.33,4.91,79.05,0.6c-0.8-0.24-4.33-0.82-7.77-0.8
			c-3.21,0.02-6.33,0.63-7.08,0.86c-3.77,1.18-6.55,2.93-9.33,5.43c-3.78,3.4-5.3,6.7-5.4,11.69c-0.1,4.62-0.16,16.03-0.16,16.03
			c-4.39-3.66-4.41,0.82-4.18,3.25c0.31,3.3,1.32,5.77,2.34,7.82c0.68,1.36,1.39,3.33,3.39,3.4c0.75,0.03,1.23-0.56,1.23-0.56
			s0.34,4.75,0.52,6.06c0.52,3.9,9.19,14.82,14.05,15.77c1.47,0.29,9.06,0.26,10.43-0.01c4.79-0.95,13.59-11.92,14.09-15.93
			c0.16-1.31,0.47-6.06,0.47-6.06s0.49,0.58,1.24,0.55c1.99-0.09,2.46-2.06,3.12-3.43c1-2.06,2.35-5.22,2.42-8.54
			C98.49,33.74,98.5,29.91,94.15,33.61z"/>
		<g>
			<g>
				<path fill-rule="evenodd" clip-rule="evenodd" fill="#D68B62" d="M50.01,41.2c0.11-0.01-0.89-3.58-1.48-4.99
					c-0.64-1.53-1.28-1.87-1.67-1.84c-0.74,0.05-0.99,3.47-0.99,3.47s0.53-3.68,2.19-0.73C48.53,37.94,49.87,41.21,50.01,41.2z"/>
				<path fill-rule="evenodd" clip-rule="evenodd" fill="#D68B62" d="M47.39,37.74c0.04-0.24,0.3-1.65,0.49-1.66
					c0.24-0.01,0.25,1,0.19,1.17c-0.16,0.5-0.32,1.01-0.42,1.54c-0.11,0.56-0.11,1.1-0.1,1.68c0.01,0.51,0.12,1.11,0.22,1.6
					c-0.39-0.38-0.5-1.9-0.51-2.47C47.24,38.62,47.29,38.3,47.39,37.74z"/>
				<path fill-rule="evenodd" clip-rule="evenodd" fill="#E8A073" d="M50.38,44.08c-0.03-0.09-0.56-1.27-0.6-1.36
					c-0.39-0.87,0.43,0.25,0.51,0.35c0.4,0.56,0.69,0.87,0.97,1.34c0.24,0.4,0.13,1.04-0.42,1.1c-0.46,0.05-1.04-0.39-1.24-1.03
					C49.57,44.39,50.79,45.2,50.38,44.08z"/>
			</g>
			<g>
				<path fill-rule="evenodd" clip-rule="evenodd" fill="#D68B62" d="M93.63,41.01c-0.11-0.01,0.86-3.58,1.43-5
					c0.62-1.54,1.26-1.88,1.65-1.86c0.74,0.04,1.02,3.46,1.02,3.46s-0.56-3.68-2.2-0.72C95.07,37.73,93.76,41.02,93.63,41.01z"/>
				<path fill-rule="evenodd" clip-rule="evenodd" fill="#D68B62" d="M96.21,37.53c-0.05-0.24-0.31-1.65-0.51-1.66
					c-0.24-0.01-0.24,1.01-0.18,1.17c0.17,0.5,0.33,1,0.44,1.54c0.12,0.56,0.12,1.1,0.12,1.68c-0.01,0.51-0.11,1.11-0.21,1.6
					c0.39-0.38,0.48-1.9,0.49-2.47C96.37,38.4,96.32,38.08,96.21,37.53z"/>
				<path fill-rule="evenodd" clip-rule="evenodd" fill="#E8A073" d="M93.28,43.89c0.03-0.09,0.55-1.27,0.59-1.37
					c0.38-0.87-0.43,0.25-0.51,0.36c-0.39,0.56-0.68,0.87-0.96,1.35c-0.24,0.41-0.12,1.04,0.43,1.1c0.46,0.05,1.04-0.4,1.23-1.04
					C94.09,44.2,92.87,45.01,93.28,43.89z"/>
			</g>
		</g>
	</g>
	<g>
		<path fill="#F0AC80" d="M116.52,79.06c2.76,0.84,8.02,7.8,8.93,8.61c0.03,0.02,3.06,1.5,3.15,1.66
			c3.69,6.77,8.25,17.82,10.46,25.42c2.21,7.6,5.83,30.44,7.02,40.3c1.19,9.87,3.69,25.7,4.59,37.18
			c0.39,4.97,1.73,13.51,1.73,13.51l-17.28,2.16c0,0-1.2-4.79-1.73-9.27c-0.8-6.7-6.56-41.24-7.8-47.61
			c-1.94-9.88-5.37-30.59-5.37-30.59S114.72,78.51,116.52,79.06z"/>
	</g>
	<g>
		<path fill="#F0AC80" d="M27.76,75.67c-2.7,1.03-7.48,8.31-8.34,9.18c-0.03,0.02,0.08-0.17,0,0c-3.23,7-12.98,21.29-12.74,28.24
			c0.25,7.14-2.82,30.45-3.36,40.36c-0.53,9.92-1.97,25.89-2.1,37.4c-0.06,4.98-0.82,13.59-0.82,13.59l17.39,1.01
			c0,0,0.87-4.86,1.11-9.37c0.36-6.74,3.8-41.59,4.62-48.02c1.27-9.99,2.24-30.82,2.24-30.82S29.52,75.01,27.76,75.67z"/>
	</g>
	<g>
		<path fill="#FFFFFF" stroke="#E8E8E8" d="M92.86,69.88c0,0,7.82,3.01,9.05,4.04c1.23,1.04,7.87,12.05,7.9,18.52
			c0.03,6.47,0.56,10.85,0.58,15.67c0.02,4.81,0.03,26.32-0.38,30.49c-0.4,4.17,1.3,23.72,1.31,27.17s2.98,10.66,3,13.46
			c0.01,2.81,2.61,12.83,2.64,19.41c0.03,6.57,0.07,14.77,0.07,14.77s-33.31-0.93-47.98-0.87c-14.68,0.06-40.7,2.23-40.7,2.23
			s-2.84-6.68-1.09-15.1c1.75-8.42,7.38-33.58,7.36-37.46c-0.02-3.89,0.04-19.74,0.04-19.74s-1.41-32.03-1.44-37.53
			c-0.02-5.5,0.31-15.96,2.84-21.91c2.52-5.95,5.63-10.33,6.2-10.82c0.58-0.48,5.88-1.39,5.88-1.39s21.85,8.6,31.28,5.54
			C88.84,73.33,92.86,69.88,92.86,69.88z"/>
		<path fill="#E3E3E3" d="M36.52,83.55c0.34,0,1.72,3.73,1.73,6.11c0.01,2.37-0.69,7.01,0.81,8.26c1.5,1.25,0.19,4.03-0.57,6.19
			c-0.76,2.16-1.42,15.72,0.5,17.33c1.92,1.61,3.57-0.81,6.37-1.83c2.8-1.01,3.31-1.81,0.44,2.37c-2.88,4.18-6.53,6.14-2.44,8.71
			c4.09,2.57,10.4,4.41,5.63,4.43c-4.75,0.02-8.33,0.11-8.33,0.11s3.59,5.09,6.16,8.46c2.57,3.36,6.73,2.7,7.07,2.7
			c0.35,0,0.35-0.58,0.35,0c0,0.57-0.84,3.52-6.63,2.4c-5.79-1.13-8.27-2.7-8.26,0.11c0.01,2.8-0.03,11.57,2.04,17.96
			c2.07,6.4,0.71,6.18,4.2,6.67c3.49,0.48-2.38-0.43-5.34,3.11c-2.96,3.54-7.54,7.94-1.74,11.37c5.8,3.43,6.99,3.42,8.6,3.42
			c1.62-0.01-8.08-0.76-9.77,2.42c-1.69,3.17-1.86,2.74-0.66,5.54c1.2,2.8-7.9,3.2-6.53,5.21c1.38,2,7.33,1.84,13.37,1.82
			c6.04-0.03,1.7,1.36-1.1,2.51c-2.8,1.17,2.91,3.58,4.1,3.58c1.19-0.01-0.03,0.98-0.03,0.98s-7.76,0.8-12.03,0.82
			c-4.27,0.02-6.26,0.14-6.26,0.14s-1.5-5.38-1.51-8.18c-0.01-2.8,0.84-7.99,1.55-11.33c0.72-3.33,2.56-11.92,3.13-14.66
			c0.57-2.73,2.52-12.22,2.86-14.82c0.34-2.59,0.36-4.74,0.37-8.09c0.01-3.34,0.06-13.84,0.04-14.56c-0.02-0.72-0.7-16.92-0.7-16.92
			l-0.74-21.53c0,0,0.48-15.43,1.57-18.17c1.11-2.73,1.61-2.74,1.61-2.74L36.52,83.55z"/>
		<path fill="#E3E3E3" d="M110.04,101.6c0,0-2.32-0.2-2.29,6.38c0.03,6.58-0.2,10.79-2.88,13.06c-2.66,2.28-9.56,0.8-4.96,2.4
			c4.6,1.59,5.37,1.59,5.37,1.59s-1.03-0.21-3.24,2.77c-2.22,2.98-6.17,5.15-4,6.11c2.18,0.97,5.63,2.13,5.63,2.13
			s4.24,7.75,1.32,10.24c-2.92,2.49-3.03,4.86-7.63,4.88c-4.6,0.02-10.47-1.03-7.01,1.86c3.46,2.9,10.74,4.59,11.38,4.59
			c0.64,0,3.33,5.49,3.33,5.49s-5.86,1.21-8.41,3.38c-2.54,2.17,3.72,2.79,6.53,4.17c2.81,1.4,5.51,4.51,5.54,10.12
			c0.02,5.61-0.45,12.62-5.81,14.48c-5.35,1.85-6.31,2.66-6.31,2.66s1.87,3.28,7.22,1.64c5.35-1.64,9.31-1.12,9.31-1.12
			s0.41,6.58-0.74,7.56c-1.14,0.97,4.6,2.03,4.6,2.03s0.1-9.12-0.12-11.51c-0.22-2.38-1.55-10.69-1.81-12.14
			c-0.26-1.44-1.15-7.83-1.72-9.82c-0.57-1.98-1.89-6.27-2.02-8.98c-0.13-2.7-0.62-10.23-0.62-10.23l-0.72-13.13l0.31-12.11
			l0.08-15.61L110.04,101.6z"/>
		<path fill="#B2B2B2" d="M52.2,68.1c0,0,4.37,6.52,16.45,6.47c12.09-0.05,11.58,0.44,15.23-0.86c3.65-1.31,6.87-5.28,6.87-5.28
			l4.1,2.79c0,0-6.79,5.79-10.61,6.74c-3.82,0.95-12.58,1.57-16.07,1.29c-3.48-0.28-14.82-3.24-17.12-4.53
			c-2.31-1.29-2.9-3.87-2.9-3.87L52.2,68.1z"/>
		<path fill="#B2B2B2" d="M42.25,72.24c0,0-12.31,1.44-16.82,3.25c-4.5,1.82-14.63,19.26-14.63,19.26l-6.54,19.23l19.57,8.61
			l9.6-10.54C33.43,112.06,37.69,75.57,42.25,72.24z"/>
		<path fill="#B2B2B2" d="M101.17,73.45c0,0,12.33,1.78,16.85,3.56c4.52,1.78,8.03,8.1,10.93,11.47
			c2.91,3.37,10.59,26.84,10.59,26.84l-19.34,8.72l-9.84-10.39C110.35,113.64,108.1,78.16,101.17,73.45z"/>
	</g>
</g>
</svg>
