<?xml version="1.0" encoding="utf-8"?>
<!-- Generator: Adobe Illustrator 23.0.6, SVG Export Plug-In . SVG Version: 6.00 Build 0)  -->
<svg version="1.1" id="Capa_1" xmlns="http://www.w3.org/2000/svg" xmlns:xlink="http://www.w3.org/1999/xlink" x="0px" y="0px"
	 viewBox="0 0 152.79 186.83" enable-background="new 0 0 152.79 186.83" xml:space="preserve">
<g>
	<g>
		<path fill="#F0AC80" d="M104.82,76.12c-3.81-1.97-11.58-4.78-12.09-5.66c-2.22-3.76,0.32-13,0.72-17h-1.01H60.7h-1.01
			c0.4,4,3.51,13.39,1.05,17c-0.39,0.58-8.63,3.65-12.42,5.66C45.17,77.78,36.6,83,35.44,83.43c0.3,0.39,4.09,11.7,8.1,17.76
			c1.84,2.78,2.7,5.47,5.05,7.78c2.43,2.38,5.21,4.34,8.26,5.68c3.67,1.61,7.6,2.4,11.55,2.64c2.7,0.17,5.44,0.14,8.16-0.08
			c2.72,0.23,5.46,0.25,8.16,0.08c3.95-0.25,7.88-1.03,11.55-2.64c3.05-1.34,5.83-3.3,8.26-5.68c2.36-2.31,3.12-5,4.97-7.78
			c4.01-6.06,8.39-17.43,8.69-17.82C117.02,82.98,107.81,77.67,104.82,76.12z"/>
		<g>
			<path fill="#F0AC80" d="M125.73,95.46c-0.11-0.09-6.89-2.91-7-3c-4.13-3.44,1.37-8.53-2.5-9.97c-4.08-1.52-21.55,3.81-37.23,3.82
				c-0.04,0-1.38,0.03-2.27,0.05c-0.89-0.02-2.23-0.05-2.27-0.05c-15.69-0.01-27.57-9.43-27.57-9.43s-8.39,4.41-12.48,5.94
				C30.55,84.25,130.95,102.26,125.73,95.46z"/>
		</g>
		<path fill="#F0AC80" d="M99.24,33.91c0,0-0.19-11.41-0.31-16.03C98.8,12.89,98.55,5.21,84.29,0.83c-0.8-0.25-4.33-0.84-7.76-0.83
			c-3.21,0.01-6.33,0.6-7.08,0.83c-3.78,1.16-6.57,2.9-9.35,5.38c-3.8,3.38-5.33,6.68-5.45,11.67c-0.12,4.62-0.23,16.03-0.23,16.03
			c-4.37-3.68-4.41,0.8-4.2,3.23c0.29,3.3,1.29,5.77,2.3,7.83c0.67,1.37,1.38,3.34,3.37,3.42c0.75,0.03,1.24-0.55,1.24-0.55
			s0.32,4.75,0.5,6.06c0.51,3.9,9.13,14.86,13.98,15.83c1.47,0.29,9.06,0.3,10.43,0.04c4.79-0.93,13.64-11.86,14.16-15.87
			c0.17-1.31,0.49-6.06,0.49-6.06s0.49,0.58,1.24,0.55c1.99-0.08,2.47-2.05,3.14-3.42c1.01-2.05,2.38-5.21,2.46-8.53
			C103.58,34.06,103.61,30.23,99.24,33.91z"/>
		<g>
			<g>
				<path fill-rule="evenodd" clip-rule="evenodd" fill="#D68B62" d="M55.06,41.31c0.11-0.01-0.87-3.58-1.45-5
					c-0.63-1.54-1.27-1.87-1.66-1.85c-0.74,0.04-1,3.47-1,3.47s0.54-3.68,2.2-0.72C53.61,38.03,54.93,41.32,55.06,41.31z"/>
				<path fill-rule="evenodd" clip-rule="evenodd" fill="#D68B62" d="M52.46,37.83c0.05-0.24,0.3-1.65,0.5-1.66
					c0.24-0.01,0.24,1.01,0.19,1.17c-0.16,0.5-0.32,1-0.43,1.54c-0.11,0.56-0.12,1.1-0.11,1.68c0.01,0.51,0.12,1.11,0.22,1.6
					c-0.39-0.38-0.49-1.9-0.5-2.47C52.31,38.71,52.36,38.39,52.46,37.83z"/>
				<path fill-rule="evenodd" clip-rule="evenodd" fill="#E8A073" d="M55.42,44.18c-0.03-0.09-0.56-1.27-0.6-1.36
					c-0.38-0.87,0.43,0.25,0.51,0.35c0.4,0.56,0.69,0.87,0.97,1.35c0.24,0.41,0.12,1.04-0.43,1.1c-0.46,0.05-1.04-0.39-1.23-1.04
					C54.61,44.49,55.83,45.31,55.42,44.18z"/>
			</g>
			<g>
				<path fill-rule="evenodd" clip-rule="evenodd" fill="#D68B62" d="M98.68,41.31c-0.11-0.01,0.87-3.58,1.45-5
					c0.63-1.54,1.27-1.88,1.66-1.85c0.74,0.04,1,3.47,1,3.47s-0.54-3.68-2.2-0.73C100.14,38.03,98.81,41.32,98.68,41.31z"/>
				<path fill-rule="evenodd" clip-rule="evenodd" fill="#D68B62" d="M101.29,37.83c-0.05-0.24-0.3-1.65-0.5-1.66
					c-0.24-0.01-0.24,1.01-0.19,1.17c0.16,0.5,0.32,1,0.43,1.54c0.11,0.56,0.12,1.1,0.11,1.68c-0.01,0.51-0.12,1.11-0.22,1.6
					c0.39-0.38,0.49-1.9,0.5-2.47C101.44,38.71,101.39,38.39,101.29,37.83z"/>
				<path fill-rule="evenodd" clip-rule="evenodd" fill="#E8A073" d="M98.32,44.18c0.03-0.09,0.56-1.27,0.6-1.36
					c0.38-0.87-0.43,0.25-0.51,0.35c-0.4,0.56-0.69,0.87-0.97,1.35c-0.24,0.41-0.12,1.04,0.43,1.1c0.46,0.05,1.04-0.39,1.24-1.04
					C99.14,44.49,97.91,45.31,98.32,44.18z"/>
			</g>
		</g>
	</g>
	<g>
		<path fill="#035B73" stroke="#003642" stroke-width="0.25" d="M57.15,71.82c0,0-7.06,3.26-8.18,4.37
			c-1.12,1.12-7.09,12.95-7.09,19.87c0,6.95-0.46,11.64-0.46,16.81c0,5.15,0.07,28.2,0.46,32.66c0.39,4.46-1.07,25.4-1.07,29.11
			c0,3.69-2.67,11.44-2.67,14.43c0,3-2.3,13.75-2.3,20.8c0,7.04,0,15.82,0,15.82s30.15-1.15,43.44-1.15c13.27,0,36.84,2.2,36.84,2.2
			s2.54-7.16,0.91-16.17c-1.62-9.01-6.8-35.92-6.8-40.09c0-4.15-0.12-21.13-0.12-21.13s1.14-34.31,1.14-40.2
			c0-5.89-0.34-17.09-2.64-23.45c-2.33-6.36-5.13-11.04-5.67-11.57c-0.51-0.51-5.31-1.44-5.31-1.44s-19.74,9.31-28.3,6.06
			C60.8,75.49,57.15,71.82,57.15,71.82z"/>
		<path fill="#035B73" stroke="#003642" stroke-width="0.25" d="M102.96,74.09c0,0,12.37,1.29,17.4,6.32
			c5.05,5.04,7.56,20.72,8.8,29.35c1.23,8.62,3,23.64,3.69,30.34c0.69,6.7,1.01,14.96,1.54,15.49c0.55,0.54,1.31,3.68,0.85,10.31
			c-0.46,6.63,2.15,29.58,2.15,33.89c0,4.32-0.61,23.03-0.61,23.03l0,0l-16.92-0.38c0,0-0.03-3.16-0.42-8.08
			c-0.38-4.93-4.78-27.27-4.24-33.36c0.53-6.09-0.69-11.71-0.69-14.31c0-2.64-2.55-14.11-2.55-15.02c0-0.93-1.83-3.49-1.83-3.49
			s0.52-15.08,0.64-19.01c0.11-3.93,0.45-14.31,0.48-17.78c0.01-3.48-0.45-11.49-0.45-13.95c0-2.47-0.71-6.05-1.03-7.43
			c-0.29-1.41-1.75-5.96-2.02-6.6c-0.26-0.65-2.64-5.75-2.91-6.22C104.6,76.71,102.96,74.09,102.96,74.09z"/>
		<path fill="#035B73" stroke="#003642" stroke-width="0.25" d="M51.55,74.58c0,0-9.62,1.11-12.97,2.73
			c-3.36,1.61-5.62,2.26-8.25,4.9c-2.61,2.62-6.77,21.09-6.77,27.79c0,6.69-1.07,20.03-2.16,24.65c-1.08,4.63-2.46,12.25-2.46,14.7
			c0,2.47-4.08,18.87-3.46,26.73c0.62,7.85,1.69,21.55,1.23,29.11c-0.47,7.54-1.99,15.65,0.93,18.55c0.83,0.84,14.7,0.63,15.24-1.07
			c0.53-1.69,0.15-14.56,0.61-17.72c0.46-3.15,2.08-22.87,2.86-27.03c0.77-4.15,1.3-15.56,2.53-20.63c1.24-5.09,3.03-11.4,3.03-11.4
			s-0.46-21.57-0.46-24.41c0-2.86,0.4-21.89,0.44-24.04c0.03-2.17,0.08-4.04,0.72-6.34c0.64-2.29,2.76-8.07,3.43-9.5
			c0.67-1.43,1.53-3.38,2.24-4.4C48.97,76.18,51.55,74.58,51.55,74.58z"/>
		<path fill="#02495C" d="M108.19,86.19c-0.31,0-1.52,4.01-1.52,6.54c0,2.54,0.64,7.51-0.69,8.86c-1.37,1.33-0.16,4.32,0.53,6.61
			c0.69,2.32,1.35,16.85-0.38,18.57c-1.73,1.73-3.24-0.85-5.78-1.93c-2.55-1.07-3-1.91-0.38,2.53c2.61,4.48,5.92,6.55,2.23,9.34
			c-3.69,2.76-9.38,4.77-5.07,4.77c4.3,0,7.53,0.08,7.53,0.08s-3.23,5.46-5.54,9.09c-2.31,3.62-6.08,2.93-6.39,2.93
			c-0.3,0-0.3-0.62-0.3,0c0,0.62,0.77,3.76,6,2.54c5.23-1.23,7.47-2.94,7.47,0.08c0,3,0.1,12.38-1.77,19.24
			c-1.84,6.87-0.61,6.63-3.77,7.16c-3.14,0.55,2.15-0.44,4.85,3.32c2.69,3.77,6.85,8.47,1.62,12.18c-5.25,3.69-6.32,3.69-7.78,3.69
			c-1.46,0,7.31-0.85,8.85,2.54c1.54,3.38,1.71,2.91,0.62,5.93c-1.06,3,7.17,3.39,5.94,5.54c-1.24,2.15-6.63,2-12.08,2
			c-5.47,0-1.54,1.46,1,2.7c2.54,1.23-2.62,3.85-3.69,3.85c-1.09,0,0.03,1.02,0.03,1.02s7.03,0.84,10.89,0.84
			c3.85,0,5.67,0.13,5.67,0.13s1.33-5.77,1.33-8.78c0-3-0.79-8.55-1.46-12.12c-0.66-3.56-2.36-12.76-2.89-15.67
			c-0.51-2.94-2.31-13.1-2.63-15.86c-0.32-2.77-0.35-5.09-0.37-8.68c-0.03-3.58-0.11-14.82-0.1-15.58c0-0.77,0.57-18.15,0.57-18.15
			l0.57-23.06c0,0-0.48-16.51-1.49-19.45c-1.01-2.92-1.46-2.92-1.46-2.92L108.19,86.19z"/>
		<path fill="#02495C" d="M41.72,105.87c0,0,2.1-0.22,2.1,6.82c0,7.04,0.23,11.56,2.65,13.98c2.42,2.42,8.66,0.82,4.51,2.53
			c-4.17,1.75-4.86,1.75-4.86,1.75s0.92-0.23,2.94,2.94c2.02,3.18,5.6,5.49,3.65,6.53c-1.97,1.03-5.09,2.31-5.09,2.31
			s-3.8,8.31-1.16,10.98c2.66,2.64,2.77,5.19,6.93,5.19c4.15,0,9.47-1.15,6.35,1.96c-3.12,3.11-9.71,4.96-10.29,4.96
			c-0.58,0-3,5.89-3,5.89s5.31,1.29,7.62,3.58c2.31,2.33-3.35,3.02-5.89,4.53c-2.55,1.49-4.96,4.84-4.96,10.85
			c0,6.02,0.45,13.53,5.32,15.48c4.85,1.96,5.71,2.83,5.71,2.83s-1.68,3.53-6.53,1.79c-4.84-1.73-8.42-1.15-8.42-1.15
			s-0.35,7.04,0.69,8.09c1.04,1.04-4.16,2.19-4.16,2.19s-0.13-9.76,0.07-12.32c0.19-2.55,1.36-11.47,1.58-13.01
			c0.23-1.56,1.01-8.39,1.53-10.53c0.5-2.13,1.69-6.72,1.79-9.62c0.1-2.88,0.52-10.96,0.52-10.96l0.59-14.05l-0.33-12.99l-0.13-16.7
			L41.72,105.87z"/>
		<path fill="#02495C" d="M26.15,93.8c0,0,5.49,6.34,8.1,10.49c2.61,4.16,5.09,11.56,0,8.32c-5.08-3.24-6.61-3.85-6.61,0
			s3.53,7.1,5.54,10.48c2.01,3.38-2.7-1.32-5.7-4.31c-3.01-3.02-4.01-4.94-4.01-4.94s0.4-8.33,0.68-10.07
			c0.3-1.77,1.18-6.42,1.35-7.16C25.65,95.87,26.15,93.8,26.15,93.8z"/>
		<path fill="#02495C" d="M22.99,121.77c0,0,9.66,5.61,11.89,8.48c2.23,2.86,8.01,8.47,4.32,7.25c-3.71-1.23-11.78-9.4-12.57-9.4
			c-0.77,0-4.07,2.62-2.23,6.08c1.85,3.47-0.15,4.01-1.62,4.4c-1.46,0.37-1.23,15.71,1.39,17.4c2.61,1.7,5.46,2.25,4.77,2.93
			c-0.7,0.69-4.47,0.47-6.09,0.47c-1.61,0,1.92,0.22,1.92,2.29c0,2.09-2.93,0.17-4.4,0.85c-1.45,0.69-0.42,2.89,0.86,4.17
			c1.26,1.25-1.94,1.25-2.85,1.25c-0.93,0-2.36-1.36-2.36-1.36s0.93-5.96,1.22-7.53c0.29-1.61,1.6-9.37,1.7-10.56
			c0.12-1.17,1.06-7.19,1.25-8.13c0.17-0.95,1.16-5.2,1.47-7.16C21.99,131.24,23.71,122.48,22.99,121.77z"/>
		<path fill="#02495C" d="M125.22,90.25c0,0,2.89,12.58,3.27,15.17c0.4,2.6,2.12,15.49,2.12,15.49s-0.74,2.65-4.43,2.65
			c-3.69,0-2.77-0.93-1.85-3.82c0.93-2.89,3.46-9.11,0.93-11.67c-2.55-2.53-1.73,3.94-4.64,5.78c-2.89,1.84-0.45-3.82-0.45-10.62
			c0-6.82,0.81-12.35-1.39-16.53c-2.18-4.16,0.59-7.14,0.59-7.14S123.97,85.57,125.22,90.25z"/>
		<path fill="#02495C" d="M110.23,146.31c0,0,1.86,2.18,6.13,4.4c4.27,2.18,5.67,3.92,3.24,3.92c-2.42,0-3.71-0.58-3.71-0.58
			s2.67,1.5,4.17,3c1.49,1.51-1.15,0.94-3.02,0.94c-1.85,0-2.65,2.66,1.51,3.46c4.16,0.8,9,2.07,5.42,2.07
			c-3.58,0-6.69-0.47-6.69,0.71c0,1.15,2.42,2.42,0.8,4.02c-1.62,1.62-3.34,1.41-3.34,1.41s-0.47-4.25-0.47-5.2
			s-1.22-6.84-1.22-6.84s-0.85-4.2-0.98-5.07c-0.13-0.88-1.93-4.3-1.93-4.3L110.23,146.31z"/>
		<path fill="#02495C" stroke="#003642" stroke-width="0.25" d="M93.95,69.71c0,0-3.93,7.01-14.86,7.01
			c-10.94,0-10.48,0.53-13.79-0.85c-3.31-1.38-6.23-5.63-6.23-5.63l-3.71,3.02c0,0,6.17,6.16,9.63,7.16c3.46,1,11.4,1.62,14.56,1.32
			c3.15-0.32,13.4-3.55,15.49-4.93c2.09-1.39,2.61-4.15,2.61-4.15L93.95,69.71z"/>
	</g>
</g>
</svg>
