<?xml version="1.0" encoding="utf-8"?>
<!-- Generator: Adobe Illustrator 23.0.6, SVG Export Plug-In . SVG Version: 6.00 Build 0)  -->
<svg version="1.1" id="Capa_1" xmlns="http://www.w3.org/2000/svg" xmlns:xlink="http://www.w3.org/1999/xlink" x="0px" y="0px"
	 viewBox="0 0 152.79 186.83" enable-background="new 0 0 152.79 186.83" xml:space="preserve">
<g>
	<g>
		<path fill="#F0AC80" d="M149.69,213.45c-0.45-14.13-2.35-52.05-2.75-57.09c-0.44-5.43-4.12-19.67-5.66-33.29
			c-1.63-14.29-6.99-25.02-11.01-31.72c-0.29-0.48-0.64-0.86-1.04-1.18c-0.03-0.04-0.05-0.07-0.08-0.11
			c-0.11-0.09-1.12-1.42-1.23-1.51c-3.75-3.13-11.72-7.47-15.71-9.1c-2.82-1.47-9.24-5.15-11.6-6.37c-3.66-1.89-8.69-4.13-9.19-4.97
			c-1.34-2.27-1.83-6.79-1.92-10.79c1.55-2.2,2.65-4.27,2.82-5.58c0.16-1.26,0.47-5.82,0.47-5.82s0.47,0.56,1.19,0.53
			c1.91-0.07,2.37-1.97,3.01-3.28c0.97-1.97,2.28-5.01,2.36-8.19c0.06-2.29,0.09-5.97-4.11-2.43c0,0-0.18-10.96-0.3-15.39
			C94.82,12.38,94.57,4.99,80.88,0.8c-0.77-0.24-4.16-0.8-7.46-0.8c-3.08,0.01-6.08,0.58-6.8,0.8c-3.63,1.11-6.3,2.79-8.98,5.17
			c-3.65,3.25-5.11,6.41-5.23,11.2c-0.11,4.44-0.21,15.39-0.21,15.39c-4.2-3.54-4.24,0.77-4.03,3.1c0.28,3.17,1.24,5.54,2.21,7.51
			c0.64,1.31,1.33,3.21,3.24,3.28c0.72,0.03,1.19-0.53,1.19-0.53s0.31,4.56,0.48,5.82c0.15,1.14,1.02,2.91,2.29,4.84
			c0.09,4.21-0.21,9.22-1.79,11.53c-0.38,0.55-5.81,3.05-9.44,4.97c-0.37,0.2-0.83,0.45-1.34,0.74c0,0-0.01-0.01-0.01-0.01
			s-8.06,4.24-11.98,5.7c-2.97,1.11-8.45,4.18-12.55,7.06c-0.89,0.47-1.81,1.14-2.76,2.09c-0.03,0.02-0.07,0.06-0.01,0.01
			c-0.19,0.18-0.33,0.35-0.44,0.51c-5.75,6.5-7.84,23.64-7.63,31.27c0.23,7.84-3.04,34.17-3.69,45.04
			C5.27,176.4,3.1,205.78,3.1,205.78l19.72,2.12c0,0,5.93-42.99,7.27-49.14c1.52-6.96,0.71-32.59,7.71-46.59s0,0,0,0
			c2.4,1.39,3.11,13.52,3.04,27.03c-0.07,14.4,61.67,9.89,62.96,1.97c1.14-7,4.46-27.72,4-31c2.58,3.65,10.26,18.56,11.08,21.16
			c1.09,3.48,3.05,19.15,3.48,30.04c0.44,10.88,2.62,27.2,2.62,27.2l4.13,25.25L149.69,213.45z"/>
	</g>
	<g>
		<g>
			<path fill="#9E2231" d="M112.16,178.19c-0.21-0.4-0.39-0.82-0.59-1.23c2.03,5.23,4.3,11.52,6.09,16.82
				C116.27,188.03,114.65,183.21,112.16,178.19z"/>
			<path fill="#B72837" d="M117.32,200.9c-1.5-2.36-1.78-4.83-4.22-5.29c-2.45-0.49-6.76,0.37-10.15,1.4
				c-3.38,1.06-10.04,2.36-10.8,1.61c-0.75-0.75,5.83-0.39,10.15-3.3c4.31-2.95,7.04-4.74,7.51-7.28c0.46-2.56-0.66-6.82-1.88-7.1
				c-1.22-0.28-2.64,1.61-4.89,1.51c-2.25-0.1-5.62-0.28-5.62-0.28s4.98-1.89,6.67-4.06c1.69-2.2,1.31-3.13-0.1-3.13
				c-1.4,0-8.64,1.42-8.92,1.14c-0.29-0.29,6.38-4.45,7.24-5.86c0.84-1.42,1.4-9.93,2.71-15.32c1.32-5.41,4.61-13.34,4.61-13.34
				s-0.83,3.99-1.39,9.3c1.11-5.99,2.82-13.61,3.06-15.17c0.43-0.41,0.86-0.84,1.34-1.33c5.63-5.88,2.71-21.47,1.6-23.94
				c-0.5-1.1-1.54-1.97-3.4-2.53l-0.92-32.01l-2.92-0.39l0.1,0.29l0.53,31.54c-2.05-0.2-4.69-0.22-8.05-0.03
				c-9.86,0.57-23.86,13.17-23.86,13.17s0.75,0.55-2.35-1.14c-3.1-1.72-17.19-9-23.38-10.24c-4.1-0.8-8.48-0.93-11.58-0.25
				c0.1-0.62,0.21-1.17,0.3-1.44c0.29-0.86,2.16-33.01,2.16-33.01h-2.73c0,0,0,13.14-0.09,14.47c-0.1,1.33-1.69,13.23-2.25,17.02
				c-0.36,2.45-0.84,4.15-1.14,5.07c-1.69,3.15,0.52,16.43,1.23,19.63c0.59,2.57,2.25,7.59,5.7,9.96l-0.11,0.31
				c0,0,0.33,17.02-0.68,28.33c0.03-0.06,0.04-0.13,0.07-0.19c1.69-4.72,0.71-28.33,0.71-28.33s2.4,22.93,2.4,24.08
				c0,1.12,3.38,13.05,4.32,14.39c0.94,1.32,0.94,2.46,0,3.11c-0.94,0.65-4.89,4.74-6.77,6.43c-1.09,0.99-2.34,9.82-3.29,13.98
				c8.73,1.9,64.34,0.28,81.16-0.81l0,0c-0.52,0.03-1.02,0.07-1.52,0.11C117.68,201.54,117.5,201.18,117.32,200.9z M46.41,142.82
				c-1.8-0.38-4.66-2.09-4.66-2.09s21.07-4.54,25.31-6.52c4.21-1.99,8.28-5.97,8.28-5.97s3.64,3.62,5.82,5.21
				c7.72,5.56,19.4,5.9,22.03,6.57c2.62,0.66-10.73,1.02-12.73,0.8c-4.19-0.45-10.08-5.05-14.4-4.5c-4.32,0.57-7.35,2.49-14.02,4.2
				C55.38,142.22,48.19,143.18,46.41,142.82z M87.36,142.25c0,0-3.47,1.41-5.35,1.89c-1.87,0.47-15.59,0.57-16.34,0.18
				c-0.75-0.39-2.25-1.6-2.25-1.6l1.51-0.39c0,0,10.43,0.48,15.03,0.2C84.55,142.25,87.36,142.25,87.36,142.25z M57.87,149.05
				c-1.98-0.57-2.72-1.97-2.72-1.97s13.99,0.67,17.09,0.84c3.1,0.2,8.73,0.67,13.24,0c4.51-0.66,8.37-0.66,8.37-0.66
				s-14.28,3.97-15.41,3.97C77.31,151.23,59.83,149.61,57.87,149.05z"/>
			<path fill="#9E2231" d="M109.66,172.18c-0.61-1.79-1.07-3.49-1.42-5.09c0.29,1.74,0.71,3.37,1.29,4.78
				C109.56,171.96,109.62,172.06,109.66,172.18z"/>
			<path fill="#9E2231" d="M76.06,136.32c4.32-0.56,10.21,4.05,14.4,4.5c1.99,0.22,15.35-0.14,12.73-0.8
				c-2.64-0.66-14.31-1-22.03-6.57c-2.18-1.59-5.82-5.21-5.82-5.21s-4.07,3.97-8.28,5.97c-4.24,1.97-25.31,6.52-25.31,6.52
				s2.86,1.71,4.66,2.09c1.78,0.36,8.97-0.6,15.63-2.29C68.71,138.81,71.74,136.89,76.06,136.32z"/>
			<path fill="#9E2231" d="M64.91,142.33l-1.51,0.39c0,0,1.51,1.21,2.25,1.6c0.75,0.39,14.47,0.29,16.34-0.18
				c1.88-0.48,5.35-1.89,5.35-1.89s-2.81,0-7.41,0.29C75.34,142.82,64.91,142.33,64.91,142.33z"/>
			<path fill="#9E2231" d="M85.48,147.91c-4.51,0.67-10.14,0.2-13.24,0c-3.1-0.16-17.09-0.84-17.09-0.84s0.75,1.41,2.72,1.97
				c1.96,0.57,19.44,2.18,20.57,2.18c1.13,0,15.41-3.97,15.41-3.97S89.99,147.25,85.48,147.91z"/>
			<path fill="#9E2231" d="M120.24,201.85c-0.57-1.98-1.48-4.83-2.58-8.06c-1.79-5.3-4.07-11.59-6.09-16.82
				c-0.67-1.74-1.32-3.36-1.91-4.79c-0.04-0.12-0.09-0.22-0.14-0.32c-0.57-1.41-1-3.03-1.29-4.78c-0.83-5.07-0.53-11.22,0-16.2
				c0.56-5.31,1.39-9.3,1.39-9.3s-3.29,7.94-4.61,13.34c-1.32,5.39-1.87,13.9-2.71,15.32c-0.86,1.41-7.52,5.58-7.24,5.86
				c0.28,0.28,7.52-1.14,8.92-1.14c1.41,0,1.79,0.93,0.1,3.13c-1.69,2.16-6.67,4.06-6.67,4.06s3.37,0.18,5.62,0.28
				c2.25,0.1,3.67-1.79,4.89-1.51c1.22,0.29,2.35,4.54,1.88,7.1c-0.47,2.55-3.21,4.33-7.51,7.28c-4.32,2.91-10.9,2.55-10.15,3.3
				c0.76,0.75,7.43-0.56,10.8-1.61c3.39-1.03,7.7-1.89,10.15-1.4c2.44,0.46,2.72,2.93,4.22,5.29c0.18,0.27,0.37,0.64,0.55,1.06
				c0.51-0.04,1.01-0.08,1.52-0.11c0.14,0,0.27-0.01,0.41-0.01C119.95,201.85,120.1,201.85,120.24,201.85z"/>
			<path fill="#9E2231" d="M48.29,182.26c0.94-0.65,0.94-1.8,0-3.11c-0.94-1.34-4.32-13.26-4.32-14.39c0-1.14-2.4-24.08-2.4-24.08
				s0.98,23.61-0.71,28.33c-0.02,0.06-0.04,0.13-0.07,0.19c-1.72,5.12-5.44,28.32-6.46,32.62c-0.02,0.05-0.04,0.12-0.05,0.18
				c0.06,0,0.12,0.02,0.18,0.02c1.22,0.23,2.48,0.37,3.75,0.64c0.94-4.16,2.2-12.99,3.29-13.98C43.4,187,47.34,182.92,48.29,182.26z
				"/>
		</g>
		<g>
			<path fill="#9E2231" d="M112.16,178.19c-0.21-0.4-0.39-0.82-0.59-1.23c2.03,5.23,4.3,11.52,6.09,16.82
				C116.27,188.03,114.65,183.21,112.16,178.19z"/>
			<path fill="#B72837" d="M117.32,200.9c-1.5-2.36-1.78-4.83-4.22-5.29c-2.45-0.49-6.76,0.37-10.15,1.4
				c-3.38,1.06-10.04,2.36-10.8,1.61c-0.75-0.75,5.83-0.39,10.15-3.3c4.31-2.95,7.04-4.74,7.51-7.28c0.46-2.56-0.66-6.82-1.88-7.1
				c-1.22-0.28-2.64,1.61-4.89,1.51c-2.25-0.1-5.62-0.28-5.62-0.28s4.98-1.89,6.67-4.06c1.69-2.2,1.31-3.13-0.1-3.13
				c-1.4,0-8.64,1.42-8.92,1.14c-0.29-0.29,6.38-4.45,7.24-5.86c0.84-1.42,1.4-9.93,2.71-15.32c1.32-5.41,4.61-13.34,4.61-13.34
				s-0.83,3.99-1.39,9.3c1.11-5.99,2.82-13.61,3.06-15.17c0.43-0.41,0.86-0.84,1.34-1.33c5.63-5.88,2.71-21.47,1.6-23.94
				c-0.5-1.1-1.54-1.97-3.4-2.53l-0.92-32.01l-2.92-0.39l0.1,0.29l0.53,31.54c-2.05-0.2-4.69-0.22-8.05-0.03
				c-9.86,0.57-23.86,13.17-23.86,13.17s0.75,0.55-2.35-1.14c-3.1-1.72-17.19-9-23.38-10.24c-4.1-0.8-8.48-0.93-11.58-0.25
				c0.1-0.62,0.21-1.17,0.3-1.44c0.29-0.86,2.16-33.01,2.16-33.01h-2.73c0,0,0,13.14-0.09,14.47c-0.1,1.33-1.69,13.23-2.25,17.02
				c-0.36,2.45-0.84,4.15-1.14,5.07c-1.69,3.15,0.52,16.43,1.23,19.63c0.59,2.57,2.25,7.59,5.7,9.96l-0.11,0.31
				c0,0,0.33,17.02-0.68,28.33c0.03-0.06,0.04-0.13,0.07-0.19c1.69-4.72,0.71-28.33,0.71-28.33s2.4,22.93,2.4,24.08
				c0,1.12,3.38,13.05,4.32,14.39c0.94,1.32,0.94,2.46,0,3.11c-0.94,0.65-4.89,4.74-6.77,6.43c-1.09,0.99-2.34,9.82-3.29,13.98
				c8.73,1.9,64.34,0.28,81.16-0.81l0,0c-0.52,0.03-1.02,0.07-1.52,0.11C117.68,201.54,117.5,201.18,117.32,200.9z M46.41,142.82
				c-1.8-0.38-4.66-2.09-4.66-2.09s21.07-4.54,25.31-6.52c4.21-1.99,8.28-5.97,8.28-5.97s3.64,3.62,5.82,5.21
				c7.72,5.56,19.4,5.9,22.03,6.57c2.62,0.66-10.73,1.02-12.73,0.8c-4.19-0.45-10.08-5.05-14.4-4.5c-4.32,0.57-7.35,2.49-14.02,4.2
				C55.38,142.22,48.19,143.18,46.41,142.82z M87.36,142.25c0,0-3.47,1.41-5.35,1.89c-1.87,0.47-15.59,0.57-16.34,0.18
				c-0.75-0.39-2.25-1.6-2.25-1.6l1.51-0.39c0,0,10.43,0.48,15.03,0.2C84.55,142.25,87.36,142.25,87.36,142.25z M57.87,149.05
				c-1.98-0.57-2.72-1.97-2.72-1.97s13.99,0.67,17.09,0.84c3.1,0.2,8.73,0.67,13.24,0c4.51-0.66,8.37-0.66,8.37-0.66
				s-14.28,3.97-15.41,3.97C77.31,151.23,59.83,149.61,57.87,149.05z"/>
			<path fill="#9E2231" d="M109.66,172.18c-0.61-1.79-1.07-3.49-1.42-5.09c0.29,1.74,0.71,3.37,1.29,4.78
				C109.56,171.96,109.62,172.06,109.66,172.18z"/>
			<path fill="#9E2231" d="M76.06,136.32c4.32-0.56,10.21,4.05,14.4,4.5c1.99,0.22,15.35-0.14,12.73-0.8
				c-2.64-0.66-14.31-1-22.03-6.57c-2.18-1.59-5.82-5.21-5.82-5.21s-4.07,3.97-8.28,5.97c-4.24,1.97-25.31,6.52-25.31,6.52
				s2.86,1.71,4.66,2.09c1.78,0.36,8.97-0.6,15.63-2.29C68.71,138.81,71.74,136.89,76.06,136.32z"/>
			<path fill="#9E2231" d="M64.91,142.33l-1.51,0.39c0,0,1.51,1.21,2.25,1.6c0.75,0.39,14.47,0.29,16.34-0.18
				c1.88-0.48,5.35-1.89,5.35-1.89s-2.81,0-7.41,0.29C75.34,142.82,64.91,142.33,64.91,142.33z"/>
			<path fill="#9E2231" d="M85.48,147.91c-4.51,0.67-10.14,0.2-13.24,0c-3.1-0.16-17.09-0.84-17.09-0.84s0.75,1.41,2.72,1.97
				c1.96,0.57,19.44,2.18,20.57,2.18c1.13,0,15.41-3.97,15.41-3.97S89.99,147.25,85.48,147.91z"/>
			<path fill="#9E2231" d="M120.24,201.85c-0.57-1.98-1.48-4.83-2.58-8.06c-1.79-5.3-4.07-11.59-6.09-16.82
				c-0.67-1.74-1.32-3.36-1.91-4.79c-0.04-0.12-0.09-0.22-0.14-0.32c-0.57-1.41-1-3.03-1.29-4.78c-0.83-5.07-0.53-11.22,0-16.2
				c0.56-5.31,1.39-9.3,1.39-9.3s-3.29,7.94-4.61,13.34c-1.32,5.39-1.87,13.9-2.71,15.32c-0.86,1.41-7.52,5.58-7.24,5.86
				c0.28,0.28,7.52-1.14,8.92-1.14c1.41,0,1.79,0.93,0.1,3.13c-1.69,2.16-6.67,4.06-6.67,4.06s3.37,0.18,5.62,0.28
				c2.25,0.1,3.67-1.79,4.89-1.51c1.22,0.29,2.35,4.54,1.88,7.1c-0.47,2.55-3.21,4.33-7.51,7.28c-4.32,2.91-10.9,2.55-10.15,3.3
				c0.76,0.75,7.43-0.56,10.8-1.61c3.39-1.03,7.7-1.89,10.15-1.4c2.44,0.46,2.72,2.93,4.22,5.29c0.18,0.27,0.37,0.64,0.55,1.06
				c0.51-0.04,1.01-0.08,1.52-0.11c0.14,0,0.27-0.01,0.41-0.01C119.95,201.85,120.1,201.85,120.24,201.85z"/>
			<path fill="#9E2231" d="M48.29,182.26c0.94-0.65,0.94-1.8,0-3.11c-0.94-1.34-4.32-13.26-4.32-14.39c0-1.14-2.4-24.08-2.4-24.08
				s0.98,23.61-0.71,28.33c-0.02,0.06-0.04,0.13-0.07,0.19c-1.72,5.12-5.44,28.32-6.46,32.62c-0.02,0.05-0.04,0.12-0.05,0.18
				c0.06,0,0.12,0.02,0.18,0.02c1.22,0.23,2.48,0.37,3.75,0.64c0.94-4.16,2.2-12.99,3.29-13.98C43.4,187,47.34,182.92,48.29,182.26z
				"/>
		</g>
	</g>
</g>
</svg>
