<?xml version="1.0" encoding="utf-8"?>
<!-- Generator: Adobe Illustrator 23.0.6, SVG Export Plug-In . SVG Version: 6.00 Build 0)  -->
<svg version="1.1" id="Capa_1" xmlns="http://www.w3.org/2000/svg" xmlns:xlink="http://www.w3.org/1999/xlink" x="0px" y="0px"
	 viewBox="0 0 152.79 186.83" enable-background="new 0 0 152.79 186.83" xml:space="preserve">
<g>
	<path fill="#F0AC80" d="M149.69,213.45c-0.45-14.13-2.35-52.05-2.75-57.09c-0.44-5.43-4.12-19.67-5.66-33.29
		c-1.63-14.29-6.99-25.02-11.01-31.72c-0.29-0.48-0.64-0.86-1.04-1.18c-0.03-0.04-0.05-0.07-0.08-0.11
		c-0.11-0.09-1.12-1.42-1.23-1.51c-3.75-3.13-11.72-7.47-15.71-9.1c-2.82-1.47-9.24-5.15-11.6-6.37c-3.66-1.89-8.69-4.13-9.19-4.97
		c-1.34-2.27-1.83-6.79-1.92-10.79c1.55-2.2,2.65-4.27,2.82-5.58c0.16-1.26,0.47-5.82,0.47-5.82s0.47,0.56,1.19,0.53
		c1.91-0.07,2.37-1.97,3.01-3.28c0.97-1.97,2.28-5.01,2.36-8.19c0.06-2.29,0.09-5.97-4.11-2.43c0,0-0.18-10.96-0.3-15.39
		C94.82,12.38,94.57,4.99,80.88,0.8c-0.77-0.24-4.16-0.8-7.46-0.8c-3.08,0.01-6.08,0.58-6.8,0.8c-3.63,1.11-6.3,2.79-8.98,5.17
		c-3.65,3.25-5.11,6.41-5.23,11.2c-0.11,4.44-0.21,15.39-0.21,15.39c-4.2-3.54-4.24,0.77-4.03,3.1c0.28,3.17,1.24,5.54,2.21,7.51
		c0.64,1.31,1.33,3.21,3.24,3.28c0.72,0.03,1.19-0.53,1.19-0.53s0.31,4.56,0.48,5.82c0.15,1.14,1.02,2.91,2.29,4.84
		c0.09,4.21-0.21,9.22-1.79,11.53c-0.38,0.55-5.81,3.05-9.44,4.97c-0.37,0.2-0.83,0.45-1.34,0.74c0,0-0.01-0.01-0.01-0.01
		s-8.06,4.24-11.98,5.7c-2.97,1.11-8.45,4.18-12.55,7.06c-0.89,0.47-1.81,1.14-2.76,2.09c-0.03,0.02-0.07,0.06-0.01,0.01
		c-0.19,0.18-0.33,0.35-0.44,0.51c-5.75,6.5-7.84,23.64-7.63,31.27c0.23,7.84-3.04,34.17-3.69,45.04
		C5.27,176.4,3.1,205.78,3.1,205.78l19.72,2.12c0,0,5.93-42.99,7.27-49.14c1.52-6.96,0.71-32.59,7.71-46.59s0,0,0,0
		c2.4,1.39,13.06,13.49,13,27c-0.07,14.4,51.71,9.92,53,2c1.14-7,4.46-27.72,4-31c2.58,3.65,10.26,18.56,11.08,21.16
		c1.09,3.48,3.05,19.15,3.48,30.04c0.44,10.88,2.62,27.2,2.62,27.2l4.13,25.25L149.69,213.45z"/>
	<g>
		<path fill="#006631" d="M39,112.89c0.42-1.42,4.78-25.34,4.5-33.37c-0.27-8.02-0.27-8.02-0.27-8.02l7.59-0.84
			c0,0,0.14,24.19,2.67,28.14c2.54,3.95,9.72,9,21.54,8.02c11.81-1,17.16-4.66,19.15-8.31c1.96-3.66,4.63-16.6,4.63-20.96
			c0-4.37,0-7.89,0-7.89l7.18,3.8c0,0,0.56,9.84,0.84,17.03c0.28,7.18,1.97,18,3.38,21.1c1.4,3.09,3.09,24.21,2.26,33.37
			c-0.86,9.14,0.27,36.3,1.26,46.44c0.97,10.13,1.68,24.07,1.68,24.07s-8.73,3.66-19.57,4.78c-10.84,1.12-23.36,1.4-33.5-0.29
			c-10.13-1.69-23.92-6.47-23.92-6.47s0.98-20.83,2.53-30.25c1.55-9.44,1.13-24.64,0.85-34.9C41.55,138.07,39,112.89,39,112.89z"/>
		<path fill="#00592B" d="M40.83,124.98c0,0,3.51,1.27,4.08,4.23c0.56,2.95,8.3,4.36,12.52,4.36s17.73,0,17.73,0
			s-11.4,3.66-13.64,3.66c-2.26,0-3.95,0-5.64,1c-1.69,0.98-2.4,1.12-4.92,1.12c-2.53,0-9.42,3.1-9.42,3.1
			S40.26,129.21,40.83,124.98z"/>
		<path fill="#00592B" d="M41.81,146.1c0,0,0.22,13.02,0.22,14.85c0,1.82-0.08,12.95-0.43,16.04c-0.34,3.09-1.26,11.11-1.68,13.94
			c-0.43,2.81-0.85,11.6-1.13,16.18c-0.28,4.58-0.36,6.41-0.36,6.41l3.31,0.77c0,0-0.35-1.05-0.78-1.97
			c-0.42-0.91-0.97-2.18-0.63-2.74c0.34-0.55,1.12-1.55,1.32-1.55c0.23,0,0.29-0.92-0.12-1.41c-0.43-0.48-0.78-2.11-0.78-2.11
			l1.41-0.69c0,0-0.91-1.63-1.14-2.34c-0.2-0.69-0.48-2.87-0.2-2.75c0.28,0.15,6.41,5.78,6.97,6.27c0.56,0.51-5.49-8.02-5.49-8.02
			s11.05,8.44,12.94,10.34c1.9,1.91,5.27,3.74,2.6,0.51c-2.67-3.24-5-4.44-6.75-6.2c-1.76-1.75-4.65-4.5-5.21-5.07
			c-0.56-0.55-4.01-5.33-4.01-5.33l3.52,2.8l-1.84-3.44c0,0-0.47-3.66-0.21-3.66c0.28,0,3.67,1.12,3.67,1.12s-2.33-1.55-2.75-2.6
			c-0.41-1.06,0.21-1.49,1.06-1.06c0.84,0.42,2.53,2.04,2.17,0.34c-0.35-1.69-2.24-3.09-2.24-3.09s0.34-2.54,2.95-2.33
			c2.6,0.22,12.03,5.36,13.86,4.78c1.83-0.55-9.63-6.82-12.8-8.71c-3.16-1.91-4.08-3.53-4.08-3.53s1.41,1.42,3.16,1.48
			c1.76,0.08,0.77,0.28-1.48-2.53c-2.26-2.83,0.07-9.72,0.07-9.72s7.81,2.68,9.56,2.74c1.74,0.08-6.47-4.35-8.51-5.9
			c-2.05-1.55-3.03-3.03-2.33-2.81c0.7,0.2,8.44,0.98,17.3,1.54c8.87,0.56,13.02-0.71,13.02-0.71S60.32,154.6,53.92,153
			c-6.41-1.62-9.58-4.72-9.58-4.72L41.81,146.1z"/>
		<path fill="#00592B" d="M112.04,124.35c0,0,1.06,12.39,0.7,16.26c-0.35,3.88-0.56,14.63-0.56,18.78c0,4.15,0.98,18.65,0.98,21.12
			c0,2.46,1.48,16.32,1.55,19.91c0.08,3.59,1.69,14.56,1.06,14.84c-0.63,0.28-3.45,0-3.45-0.2s0.56-3.09,0.35-3.74
			c-0.2-0.63,0-2.52-5.84-2.59c-5.84-0.08-12.46-2.4-7.6-3.31c4.84-0.92,10.83-4.29,11.4-6.04c0.56-1.77-1.05,0.49-3.52,0.35
			c-2.46-0.14-0.07-1.06,1.33-3.81c1.41-2.75,2.74-8.16,2.82-10.05c0.07-1.91,0-4.09,0-4.09s-4.44,4.15-4.58,3.74
			c-0.14-0.43,0.14-0.71,2.18-2.2c2.04-1.46,1.63-2.46,1.35-2.37c-0.28,0.06-12.04,5.55-12.04,5.55s9.08-5,10.97-7.33
			c1.9-2.32,1.56-3.93,1.56-3.93s-6.68,5.62-7.53,6.05c-0.84,0.43,5.34-4.35,6.34-5.91c0.98-1.56,0.35-4.44,0.35-4.44l-10.48,4.15
			c0,0,4.92-2.82,7.32-4.43c2.4-1.62,4.44-4.5,4.44-4.5l-6.47,2.87c0,0,4.36-3.79,5.34-5.07c0.99-1.26,0.85-5.7,0.85-5.7
			s-12.32,6.47-18.44,7.04c-6.12,0.57-6.68-0.64-6.41-0.64c0.29,0,11.34-2.11,16.68-5.56c5.34-3.45,7.31-7.81,7.31-7.81
			s-6.96,4.78-8.16,4.78c-1.2,0,5.77-4.15,6.4-4.71c0.63-0.57,9.09-3.73-8.16-2.75c-17.25,0.99-25.13-0.43-25.13-0.43
			s-11.19-1.18-11.82-1.18c-0.63,0,20.13,1.34,28.29,0.34c8.16-0.99,15.91-3.46,15.91-3.46s-19.71-0.9-25.26-1.18
			c-5.55-0.28,10.48-2.61,13.64-3.24c3.16-0.63,4.85-2.4,8.09-5.56c3.24-3.16,3.52-5.2,4.5-6.54c0.99-1.34,3.73-3.16,3.73-3.16
			V124.35z"/>
		<path fill="#00592B" d="M39.22,114.93v1.41c0,0,3.1,0.71,6.05-14.85c2.95-15.55,1.69-19.49,1.69-19.49S45.84,97.61,43.44,105
			C41.03,112.4,39.22,114.93,39.22,114.93z"/>
		<path fill="#00592B" d="M103.46,91.77c0,0-3.95,6.82,0.35,15.34c4.28,8.51,6.76,9.64,6.76,9.64s-1.34-2.11-4.22-7.53
			c-2.89-5.42-3.66-9.08-3.66-10.21C102.68,97.89,103.46,91.77,103.46,91.77z"/>
		<path fill="#00592B" d="M100.99,79.87c0,0,0,12.46-2.81,18.45c-2.82,5.98-8.8,9-8.8,9s9.1-2.96,10.56-10.62
			C101.41,89.03,100.99,79.87,100.99,79.87z"/>
		<path fill="#00592B" d="M47.73,76.85c0,0,1.47,17.73,3.86,23.08c2.4,5.35,4.22,8.16,11.48,9.36c7.24,1.2,17.03,0.79,17.03,0.79
			s-7.33-0.15-14.93-2.27c-7.59-2.1-11.47-4.72-12.66-8.29C51.32,95.92,47.73,76.85,47.73,76.85z"/>
	</g>
</g>
</svg>
