<?xml version="1.0" encoding="utf-8"?>
<!-- Generator: Adobe Illustrator 23.0.6, SVG Export Plug-In . SVG Version: 6.00 Build 0)  -->
<svg version="1.1" id="Capa_1" xmlns="http://www.w3.org/2000/svg" xmlns:xlink="http://www.w3.org/1999/xlink" x="0px" y="0px"
	 viewBox="0 0 152.79 186.83" enable-background="new 0 0 152.79 186.83" xml:space="preserve">
<g>
	<path fill="#F0AC80" d="M149.69,213.45c-0.45-14.13-2.35-52.05-2.75-57.09c-0.44-5.43-4.12-19.67-5.66-33.29
		c-1.63-14.29-6.99-25.02-11.01-31.72c-0.29-0.48-0.64-0.86-1.04-1.18c-0.03-0.04-0.05-0.07-0.08-0.11
		c-0.11-0.09-1.12-1.42-1.23-1.51c-3.75-3.13-11.72-7.47-15.71-9.1c-2.82-1.47-9.24-5.15-11.6-6.37c-3.66-1.89-8.69-4.13-9.19-4.97
		c-1.34-2.27-1.83-6.79-1.92-10.79c1.55-2.2,2.65-4.27,2.82-5.58c0.16-1.26,0.47-5.82,0.47-5.82s0.47,0.56,1.19,0.53
		c1.91-0.07,2.37-1.97,3.01-3.28c0.97-1.97,2.28-5.01,2.36-8.19c0.06-2.29,0.09-5.97-4.11-2.43c0,0-0.18-10.96-0.3-15.39
		C94.82,12.38,94.57,4.99,80.88,0.8c-0.77-0.24-4.16-0.8-7.46-0.8c-3.08,0.01-6.08,0.58-6.8,0.8c-3.63,1.11-6.3,2.79-8.98,5.17
		c-3.65,3.25-5.11,6.41-5.23,11.2c-0.11,4.44-0.21,15.39-0.21,15.39c-4.2-3.54-4.24,0.77-4.03,3.1c0.28,3.17,1.24,5.54,2.21,7.51
		c0.64,1.31,1.33,3.21,3.24,3.28c0.72,0.03,1.19-0.53,1.19-0.53s0.31,4.56,0.48,5.82c0.15,1.14,1.02,2.91,2.29,4.84
		c0.09,4.21-0.21,9.22-1.79,11.53c-0.38,0.55-5.81,3.05-9.44,4.97c-0.37,0.2-0.83,0.45-1.34,0.74c0,0-0.01-0.01-0.01-0.01
		s-8.06,4.24-11.98,5.7c-2.97,1.11-8.45,4.18-12.55,7.06c-0.89,0.47-1.81,1.14-2.76,2.09c-0.03,0.02-0.07,0.06-0.01,0.01
		c-0.19,0.18-0.33,0.35-0.44,0.51c-5.75,6.5-7.84,23.64-7.63,31.27c0.23,7.84-3.04,34.17-3.69,45.04
		C5.27,176.4,3.1,205.78,3.1,205.78l19.72,2.12c0,0,5.93-42.99,7.27-49.14c1.52-6.96,0.71-32.59,7.71-46.59s0,0,0,0
		c2.4,1.39,3.11,13.52,3.04,27.03c-0.07,14.4,61.67,9.89,62.96,1.97c1.14-7,4.46-27.72,4-31c2.58,3.65,10.26,18.56,11.08,21.16
		c1.09,3.48,3.05,19.15,3.48,30.04c0.44,10.88,2.62,27.2,2.62,27.2l4.13,25.25L149.69,213.45z"/>
	<g>
		<path fill="#694721" d="M36.25,116.9c0.44-1.49,5.09-26.95,4.79-35.5c-0.29-8.54-0.29-8.54-0.29-8.54l8.08-0.89
			c0,0,0.14,25.77,2.85,29.96c2.7,4.2,10.34,9.58,22.91,8.54c12.6-1.04,18.29-4.96,20.38-8.84c2.09-3.89,4.94-17.68,4.94-22.33
			s0-8.38,0-8.38l7.64,4.05c0,0,0.61,10.48,0.92,18.13c0.29,7.63,2.09,19.15,3.58,22.45c1.5,3.31,3.3,25.76,2.39,35.5
			c-0.89,9.74,0.31,38.66,1.36,49.43c1.05,10.79,1.79,25.63,1.79,25.63s-9.28,3.89-20.82,5.09c-11.53,1.19-24.86,1.49-35.65-0.3
			c-10.78-1.8-25.46-6.9-25.46-6.9s1.05-22.17,2.7-32.2c1.66-10.05,1.19-26.23,0.9-37.15C38.94,143.72,36.25,116.9,36.25,116.9z"/>
		<path fill="#5A3D1C" d="M38.2,129.78c0,0,3.75,1.34,4.35,4.5c0.59,3.16,8.82,4.64,13.32,4.64c4.49,0,18.87,0,18.87,0
			s-12.13,3.91-14.52,3.91c-2.41,0-4.21,0-6,1.04c-1.8,1.05-2.55,1.2-5.25,1.2c-2.7,0-10.03,3.29-10.03,3.29
			S37.61,134.28,38.2,129.78z"/>
		<path fill="#5A3D1C" d="M39.24,152.26c0,0,0.23,13.85,0.23,15.8c0,1.95-0.09,13.78-0.46,17.09c-0.37,3.29-1.35,11.83-1.79,14.83
			c-0.46,2.99-0.91,12.36-1.2,17.22c-0.29,4.88-0.37,6.82-0.37,6.82l3.52,0.83c0,0-0.38-1.12-0.83-2.1
			c-0.45-0.98-1.05-2.33-0.68-2.92c0.38-0.61,1.2-1.65,1.42-1.65c0.23,0,0.29-0.98-0.15-1.51c-0.44-0.51-0.83-2.25-0.83-2.25
			l1.5-0.74c0,0-0.97-1.72-1.19-2.46c-0.23-0.76-0.53-3.09-0.23-2.93c0.3,0.15,6.81,6.13,7.41,6.66c0.6,0.53-5.84-8.54-5.84-8.54
			s11.77,9,13.79,11.02c2.02,2.02,5.62,3.97,2.78,0.51c-2.86-3.44-5.32-4.71-7.2-6.58c-1.87-1.88-4.95-4.79-5.55-5.41
			c-0.59-0.59-4.27-5.68-4.27-5.68l3.74,2.99l-1.94-3.67c0,0-0.53-3.9-0.23-3.9c0.3,0,3.89,1.21,3.89,1.21s-2.47-1.65-2.92-2.77
			c-0.44-1.13,0.22-1.57,1.13-1.13c0.9,0.45,2.7,2.18,2.32,0.39c-0.36-1.81-2.4-3.31-2.4-3.31s0.38-2.7,3.15-2.47
			c2.78,0.22,12.82,5.69,14.77,5.09c1.94-0.6-10.27-7.27-13.64-9.29c-3.37-2.01-4.34-3.74-4.34-3.74s1.5,1.5,3.37,1.58
			c1.87,0.07,0.83,0.3-1.57-2.69c-2.4-3.01,0.08-10.34,0.08-10.34s8.31,2.84,10.18,2.92c1.88,0.07-6.87-4.65-9.05-6.3
			c-2.17-1.65-3.24-3.23-2.48-3c0.75,0.24,8.99,1.05,18.42,1.66c9.43,0.6,13.86-0.76,13.86-0.76s-16.71-1.42-23.52-3.14
			c-6.82-1.72-10.18-5.03-10.18-5.03L39.24,152.26z"/>
		<path fill="#5A3D1C" d="M113.99,129.11c0,0,1.13,13.19,0.76,17.32c-0.38,4.1-0.61,15.57-0.61,19.98c0,4.41,1.05,19.85,1.05,22.48
			c0,2.61,1.57,17.37,1.66,21.18c0.06,3.83,1.79,15.52,1.12,15.82c-0.68,0.3-3.68,0-3.68-0.24c0-0.21,0.6-3.28,0.38-3.96
			c-0.24-0.68,0-2.69-6.21-2.77c-6.22-0.07-13.26-2.53-8.1-3.51c5.17-0.99,11.52-4.57,12.13-6.45c0.6-1.87-1.12,0.53-3.75,0.38
			c-2.61-0.15-0.07-1.13,1.42-4.04c1.5-2.92,2.93-8.69,2.99-10.72c0.09-2.02,0-4.33,0-4.33s-4.7,4.41-4.86,3.97
			c-0.15-0.45,0.16-0.76,2.32-2.33c2.18-1.57,1.73-2.62,1.42-2.55c-0.3,0.08-12.81,5.92-12.81,5.92s9.66-5.31,11.68-7.79
			c2.03-2.47,1.65-4.2,1.65-4.2s-7.11,6-8.01,6.45c-0.9,0.45,5.68-4.64,6.74-6.3c1.06-1.65,0.38-4.7,0.38-4.7l-11.15,4.41
			c0,0,5.24-2.99,7.79-4.73c2.55-1.72,4.71-4.77,4.71-4.77l-6.87,3.06c0,0,4.64-4.05,5.69-5.39c1.05-1.36,0.89-6.06,0.89-6.06
			s-13.1,6.89-19.61,7.48c-6.52,0.61-7.11-0.68-6.83-0.68c0.3,0,12.06-2.25,17.76-5.91c5.68-3.67,7.79-8.31,7.79-8.31
			s-7.42,5.09-8.69,5.09c-1.27,0,6.15-4.41,6.81-5.01c0.68-0.59,9.66-3.98-8.68-2.92c-18.35,1.06-26.74-0.44-26.74-0.44
			s-11.92-1.27-12.59-1.27c-0.66,0,21.43,1.42,30.11,0.38c8.69-1.05,16.93-3.68,16.93-3.68s-20.96-0.97-26.88-1.28
			c-5.92-0.3,11.15-2.77,14.52-3.43c3.37-0.68,5.17-2.55,8.61-5.92c3.45-3.37,3.74-5.56,4.79-6.98c1.05-1.42,3.97-3.37,3.97-3.37
			V129.11z"/>
		<path fill="#5A3D1C" d="M36.47,119.08v1.51c0,0,3.3,0.74,6.44-15.8c3.15-16.56,1.81-20.75,1.81-20.75s-1.2,16.63-3.75,24.49
			C38.43,116.38,36.47,119.08,36.47,119.08z"/>
		<path fill="#5A3D1C" d="M104.85,94.44c0,0-4.19,7.26,0.38,16.33c4.56,9.05,7.19,10.26,7.19,10.26s-1.41-2.25-4.49-8.02
			c-3.08-5.77-3.89-9.67-3.89-10.86C104.04,100.95,104.85,94.44,104.85,94.44z"/>
		<path fill="#5A3D1C" d="M102.24,81.78c0,0,0,13.25-3,19.62c-3,6.36-9.36,9.58-9.36,9.58s9.67-3.14,11.24-11.3
			C102.68,91.51,102.24,81.78,102.24,81.78z"/>
		<path fill="#5A3D1C" d="M45.53,78.56c0,0,1.58,18.87,4.13,24.57c2.54,5.69,4.49,8.68,12.21,9.96c7.71,1.27,18.13,0.82,18.13,0.82
			s-7.8-0.15-15.88-2.4c-8.09-2.25-12.2-5.02-13.48-8.84C49.36,98.85,45.53,78.56,45.53,78.56z"/>
	</g>
</g>
</svg>
