<?xml version="1.0" encoding="utf-8"?>
<!-- Generator: Adobe Illustrator 23.0.6, SVG Export Plug-In . SVG Version: 6.00 Build 0)  -->
<svg version="1.1" id="Capa_1" xmlns="http://www.w3.org/2000/svg" xmlns:xlink="http://www.w3.org/1999/xlink" x="0px" y="0px"
	 viewBox="0 0 152.79 186.83" enable-background="new 0 0 152.79 186.83" xml:space="preserve">
<g>
	<g>
		<path fill="#F0AC80" d="M100.81,80.46c-3.81-1.97-4.62-8.98-5.47-9.52c-5.53-3.48-2.21-13.48-1.8-17.48h-1.01H60.77h-1.01
			c0.4,4,5.05,14-1.54,17.48c-0.62,0.33,3.65,8.34,4.59,12.52c1.42,6.34-10.84,11.56-12,12c0.3,0.39-11.2-0.32-7.19,5.73
			c1.84,2.78,2.7,5.47,5.05,7.78c2.43,2.38,5.21,4.34,8.26,5.68c3.67,1.61,7.6,2.4,11.55,2.64c2.7,0.17,5.44,0.14,8.16-0.08
			c2.72,0.23,5.46,0.25,8.16,0.08c3.95-0.25,7.88-1.03,11.55-2.64c3.05-1.34,5.83-3.3,8.26-5.68c2.36-2.31,3.12-5,4.97-7.78
			c4.01-6.06,1.92,10.66,2.22,10.27C108.34,119.55,103.79,82.01,100.81,80.46z"/>
		<path fill="#F0AC80" d="M99.31,33.91c0,0-0.19-11.41-0.31-16.03c-0.13-4.99-0.38-12.68-14.64-17.05C83.56,0.58,80.04-0.01,76.6,0
			c-3.21,0.01-6.33,0.6-7.08,0.83c-3.78,1.16-6.57,2.9-9.35,5.38c-3.8,3.38-5.33,6.68-5.45,11.67c-0.12,4.62-0.23,16.03-0.23,16.03
			c-4.37-3.68-4.41,0.8-4.2,3.23c0.29,3.3,1.29,5.77,2.3,7.83c0.67,1.37,1.38,3.34,3.37,3.42c0.75,0.03,1.24-0.55,1.24-0.55
			s0.32,4.75,0.49,6.06c0.51,3.9,9.13,14.86,13.98,15.83c1.47,0.29,9.06,0.3,10.43,0.04c4.79-0.93,13.64-11.86,14.16-15.87
			c0.17-1.31,0.49-6.06,0.49-6.06s0.49,0.58,1.24,0.55c1.99-0.08,2.47-2.05,3.14-3.42c1.01-2.05,2.38-5.21,2.46-8.53
			C103.66,34.06,103.69,30.23,99.31,33.91z"/>
		<g>
			<g>
				<path fill-rule="evenodd" clip-rule="evenodd" fill="#D68B62" d="M55.14,41.31c0.11-0.01-0.87-3.58-1.45-5
					c-0.63-1.54-1.27-1.87-1.66-1.85c-0.74,0.04-1,3.47-1,3.47s0.54-3.68,2.2-0.72C53.68,38.03,55.01,41.32,55.14,41.31z"/>
				<path fill-rule="evenodd" clip-rule="evenodd" fill="#D68B62" d="M52.54,37.83c0.05-0.24,0.3-1.65,0.5-1.66
					c0.24-0.01,0.24,1.01,0.19,1.17c-0.16,0.5-0.32,1-0.43,1.54c-0.11,0.56-0.12,1.1-0.11,1.68c0.01,0.51,0.12,1.11,0.22,1.6
					c-0.39-0.38-0.49-1.9-0.5-2.47C52.39,38.71,52.43,38.39,52.54,37.83z"/>
				<path fill-rule="evenodd" clip-rule="evenodd" fill="#E8A073" d="M55.5,44.18c-0.03-0.09-0.56-1.27-0.6-1.36
					c-0.38-0.87,0.43,0.25,0.51,0.35c0.4,0.56,0.69,0.87,0.97,1.35c0.24,0.41,0.12,1.04-0.43,1.1c-0.46,0.05-1.04-0.39-1.23-1.04
					C54.69,44.49,55.91,45.31,55.5,44.18z"/>
			</g>
			<g>
				<path fill-rule="evenodd" clip-rule="evenodd" fill="#D68B62" d="M98.76,41.31c-0.11-0.01,0.87-3.58,1.45-5
					c0.63-1.54,1.27-1.88,1.66-1.85c0.74,0.04,1,3.47,1,3.47s-0.54-3.68-2.2-0.73C100.22,38.03,98.89,41.32,98.76,41.31z"/>
				<path fill-rule="evenodd" clip-rule="evenodd" fill="#D68B62" d="M101.36,37.83c-0.05-0.24-0.3-1.65-0.5-1.66
					c-0.24-0.01-0.24,1.01-0.19,1.17c0.16,0.5,0.32,1,0.43,1.54c0.11,0.56,0.12,1.1,0.11,1.68c-0.01,0.51-0.12,1.11-0.22,1.6
					c0.39-0.38,0.49-1.9,0.5-2.47C101.51,38.71,101.47,38.39,101.36,37.83z"/>
				<path fill-rule="evenodd" clip-rule="evenodd" fill="#E8A073" d="M98.4,44.18c0.03-0.09,0.56-1.27,0.6-1.36
					c0.38-0.87-0.43,0.25-0.51,0.35c-0.4,0.56-0.69,0.87-0.97,1.35c-0.24,0.41-0.12,1.04,0.43,1.1c0.46,0.05,1.04-0.39,1.24-1.04
					C99.22,44.49,97.99,45.31,98.4,44.18z"/>
			</g>
		</g>
	</g>
	<g>
		<path fill="#171717" stroke="#000000" d="M51.23,78.93c0,0-6.62,1.53-13.74,4.32c-7.13,2.81-16.66,7.26-19.07,12.48
			c-2.42,5.21-3.69,30.4-4.59,34.59c-0.88,4.21-3.18,26.84-4.06,31.93c-0.89,5.09-2.81,18.83-1.53,29.64
			c1.27,10.8,0.37,34.22,0.76,36.5c0.39,2.3,0.25,1.66,0.13,3.57c-0.13,1.91,0.38,3.57,0.38,3.57l0.63,1.14l16.17,0.65l1.91-3.18
			c0,0,4.57-26.97,4.71-31.8c0.12-4.84,1.65-14.5,1.78-18.31c0.13-3.82,0.63-11.32,2.53-12.34c1.91-1.01,1.91-1.01,1.91-1.01
			s-0.64,18.57-1.39,22.37c-0.78,3.82-3.31,11.96-3.44,15.01c-0.12,3.07-1.02,18.08-1.39,23.79c-0.39,5.73-0.39,6.74-0.39,6.74
			l52.91-1.39c0,0,32.81-1.53,33.2-1.53c0.38,0,2.68-12.6,2.56-16.41c-0.14-3.81-2.3-20.61-3.7-26.32
			c-1.39-5.74-3.69-23.79-3.18-26.84c0.52-3.07,1.27-3.57,1.27-3.57s3.82,9.66,3.82,13.22c0,3.57,1.01,19.59,0.88,22.01
			c-0.13,2.41,1.03,20.59,2.29,23.9c1.27,3.31,3.18,8.53,3.05,9.3c-0.13,0.75-0.26,6.36,0.13,6.36c0.38,0,17.16,1.78,17.54,1.78
			c0.39,0,0.13-7.52,0.13-8.14c0-0.65,1.27-35.37,1.53-42.62c0.25-7.24-2.27-23.02-1.79-28.37c0.52-5.32-1.27-28.23-3.05-37.77
			c-1.78-9.53-2.17-18.7-5.47-22.76c-3.31-4.08-12.59-12.6-16.91-14.62c-4.33-2.04-15.4-8.27-15.4-8.27l-1.59,0.13
			c0,0-34.9,15.45-39.68,11.76C56.32,84.71,51.23,78.93,51.23,78.93z"/>
		<path fill="#212121" d="M72.18,96.66c0,0-2.89-0.51-4.25-0.51s-5.6,1.46-3.64,4.75c1.95,3.31,3.05,8.9,2.7,11.03
			c-0.33,2.11,2.3,36.37,2.98,43.07c0.68,6.7-1.2,8.32-2.37,14.08c-1.19,5.77,0.75,21.12,1.53,27.13
			c0.75,6.02-1.03,19.43-0.09,25.36c0.94,5.91,0.51,12.2,0.51,12.2l-0.09,0.52l-0.07,3.47l9.99-0.43c0,0,4.83-2.04,3.4-6.35
			c-1.46-4.32-2.21-6.45-2.37-10.09c-0.19-3.66-3.66-20.44-2.21-25.37c1.43-4.9,2.02-17.36,1.95-21.6
			c-0.09-4.25-2.13-23.75-0.69-28.4c1.43-4.67,0.26-16.46,1.01-21.13c0.77-4.67,0.35-12.13-0.07-14.16
			c-0.44-2.02,7.97-10.42,8.89-12.88c0.93-2.46-4.57-5.06-4.91-4.67c-0.35,0.39-4.17,2.46-5.18,2.96
			C78.2,96.14,72.18,96.66,72.18,96.66z"/>
		<path fill="#212121" d="M34.19,235.64c0,0-1.62,1.01-1.43-4.08c0.17-5.09,0.68-24.74,2.63-31.11c1.95-6.36,2.95-13.23,2.95-17.13
			c0-3.89,0.77-11.38,0.42-11.61c-0.33-0.26-2.37,1.17-2.62,2.37c-0.24,1.2-1.43,12.88-1.69,15.34c-0.25,2.46-1.27,11.45-1.27,13.32
			c0,1.86-1.53,10.44-1.71,12.46c-0.16,2.04-1.85,12.05-2.19,14.09c-0.35,2.02-1.45,6.69-2.13,7.62c-0.68,0.93-1.19-2.8-2.79-2.8
			c-1.62,0,0.16-2.03,0.16-2.03l-2.04-2.98l4.34-3.73l0.68-10.51l-5.86,3.74c0,0-0.33-1.88,2.79-4.67c3.14-2.79,4.34-4.23,4.5-7.88
			c0.17-3.65,2.63-20.61,2.46-20.87c-0.17-0.23-7.72,3.07-8.24,2.81c-0.51-0.25,4.08-3.57,6.29-5.77c2.2-2.21-4.41-3.89-4.41-3.89
			s2.63-1.71,4.24-2.04c1.6-0.35-8.84-9.6-8.58-12.13c0.25-2.55,4.24,3.14,7.64,3.38c3.38,0.25,7.62-2.96,7.62-2.96
			s-9.92-13.4-10.86-17.81c-0.93-4.41-1.01-7.29-0.75-7.29c0.26,0,8.82,10.25,9.5,10.93c0.69,0.68,0.59-14.49-0.84-19.16
			c-1.46-4.67,2.62-4.32,3.54-3.63c0.93,0.66-0.17-18.93-0.42-20.45c-0.24-1.53,5.01,5.76,5.43,7.71
			c0.43,1.95,0.43,12.12,0.43,12.12l6.01-4.06c0,0,2.04,1.59,4.33,2.46c2.27,0.85,3.64,0.49-1.61,1.11
			c-5.26,0.59,5.93,6.94,7.13,7.95c1.18,1.03,2.2,3.82,2.2,3.82s-7.98-3.38-10.6-1.18c-2.63,2.19-7.2,13.56-5.18,17.54
			c2.04,3.99,3.07,5.09,3.07,5.09l-7.22-3.21c0,0,0.09,13.65,3.57,19.23c3.47,5.61,6.7,8.14,6.7,8.14l-7.46-1.11
			c0,0,1.69,6.71,6.1,10.53c4.41,3.81,3.82,5.33,0.94,4.74c-2.89-0.6-7.22-2.38-3.14,1.35c4.06,3.74,1.7,7.04-0.09,8.48
			c-1.78,1.45-6.43,8.23-6.43,8.23s8.05,0.52,11.35,0.35c3.31-0.19,2.54,1.85-0.93,3.99c-3.47,2.12-9.08,8.73-9.5,9.32
			c-0.43,0.61,4.15,3.9,5.93,4.08C48.94,234.02,34.19,235.64,34.19,235.64z"/>
		<path fill="#212121" d="M119.92,233.34c0,0,1.27-8.72,1.27-10.25c0-1.53-0.26-10.09-0.87-13.23c-0.59-3.14-1.77-12.39-2.21-15.2
			c-0.4-2.79-2.88-11.61-2.88-17.03c0-5.44-0.75-12.73-0.24-13.41c0.49-0.66,1.27,0.25,1.36,1.61c0.07,1.36,1.69,6.12,2.02,9.17
			c0.35,3.05,0.94,9.66,0.94,9.92c0,0.23,0.68,14.66,0.68,16.01c0,1.36,1.1,14,1.87,18.58c0.75,4.57,3.05,8.14,3.05,10.67
			c0,2.56,1.27,7.82,1.27,7.82s3.57-0.85,3.82-2.04c0.25-1.18-0.51-2.79-0.51-2.79s2.46-0.94,0.33-4.34
			c-2.11-3.38-2.37-3.64-2.87-4.99c-0.51-1.36-2.46-6.36-0.25-8.66c2.2-2.28,1.69-3.31-0.43-6.1c-2.13-2.79,0.07-12.71-0.43-17.64
			c-0.51-4.92-1.87-5.51-1.87-7.97c0-2.46-2.37-8.14,0.94-8.56c3.31-0.42,3.38-2.3,1.11-3.73c-2.3-1.43-8.3-8.56-8.56-12.64
			c-0.26-4.06,3.47-6.36,4.83-9.76c1.34-3.37-1.29-3.29-1.88-3.13c-0.59,0.17,2.89-7.47,3.4-12.38c0.5-4.92-1.26-3.57-2.55-1.78
			c-1.27,1.78-2.21-15.1-1.59-19.93c0.58-4.83-6.8,4.33-7.06,8.13c-0.23,3.82-2.01,9-5.58,7.98c-3.57-1.01-0.78,4.92-0.35,6.12
			c0.42,1.17,1.28,8.72,3.13,12.88c1.88,4.15,2.04,0.33,0.35,7.88c-1.71,7.54-5.09,11.53-3.66,12.05
			c1.45,0.49,1.95,10.76,0.59,11.71c-1.34,0.91-11.26-1.36-9.92,1.1c1.36,2.44,6.28,9.49,9.33,8.14c3.05-1.36,2.72,1.27,0.85,6.36
			c-1.85,5.08,3.05,7.62,3.66,11.28c0.59,3.63-3.73,6.01-2.98,8.4c0.77,2.37,7.04,13.82,1.71,13.48c-5.35-0.35-7.55-0.26-12.05,0.4
			c-4.5,0.7-11.61,1.88-6.87,3.14c4.75,1.28-0.42,2.46-0.08,2.46C91.08,233.08,119.92,233.34,119.92,233.34z"/>
		<path fill="#171717" stroke="#000000" d="M71.82,78.05c0,0-7.49-4.7-9.02-7.9c-1.53-3.18-1.53-3.18-1.53-3.18
			s-5.73,8.27-7.64,10.05c-1.91,1.78-2.41,3.43,0.13,6.74c2.55,3.31,10.56,12.99,17.82,12.84c7.24-0.11,8.5-1.51,12.46-3.55
			c3.95-2.04,10.17-6.61,13.22-9.68c3.06-3.05,4.45-6.85,4.45-6.85s-2.53-0.52-4.57-3.57c-2.04-3.05-4.7-8.27-4.7-8.27
			s-1.4,5.22-3.82,7.75c-2.41,2.55-10.54,5.09-12.33,5.22C74.51,77.79,71.82,78.05,71.82,78.05z"/>
		<linearGradient id="SVGID_1_" gradientUnits="userSpaceOnUse" x1="72.2847" y1="163.9614" x2="77.0477" y2="163.9614">
			<stop  offset="0.1154" style="stop-color:#000000"/>
			<stop  offset="0.2717" style="stop-color:#3F3F3F"/>
			<stop  offset="0.4259" style="stop-color:#767676"/>
			<stop  offset="0.5" style="stop-color:#8C8C8C"/>
			<stop  offset="0.6143" style="stop-color:#565656"/>
			<stop  offset="0.727" style="stop-color:#272727"/>
			<stop  offset="0.8132" style="stop-color:#0B0B0B"/>
			<stop  offset="0.8626" style="stop-color:#000000"/>
		</linearGradient>
		<polygon fill="url(#SVGID_1_)" points="72.28,77.27 72.28,250.52 77.05,250.9 76.6,77.02 		"/>
	</g>
</g>
</svg>
