<?xml version="1.0" encoding="utf-8"?>
<!-- Generator: Adobe Illustrator 23.0.6, SVG Export Plug-In . SVG Version: 6.00 Build 0)  -->
<svg version="1.1" id="Capa_1" xmlns="http://www.w3.org/2000/svg" xmlns:xlink="http://www.w3.org/1999/xlink" x="0px" y="0px"
	 viewBox="0 0 152.79 186.83" enable-background="new 0 0 152.79 186.83" xml:space="preserve">
<g>
	<g>
		<path fill="#F0AC80" d="M33.11,84.59c-2.31,0.86-6.41,7.06-7.15,7.8c-0.02,0.02,0.07-0.14,0,0c-2.78,5.95-0.89-8.13-8.89,23.87
			c-3,12-4.6,26.11-5.1,34.56c-0.49,8.46-1.78,22.07-1.93,31.88c-0.07,4.25-0.75,11.59-0.75,11.59l14.82,0.93
			c0,0,0.76-4.14,0.98-7.98c0.33-5.75,3.39-35.45,4.12-40.93c1.12-8.51,2.02-26.27,2.02-26.27S34.61,84.03,33.11,84.59z"/>
	</g>
	<g>
		<path fill="#F0AC80" d="M119.68,84.59c2.31,0.86,6.41,7.06,7.15,7.8c0.02,0.02-0.07-0.14,0,0c2.78,5.95,0.89-8.13,8.89,23.87
			c3,12,4.6,26.11,5.1,34.56c0.49,8.46,1.78,22.07,1.93,31.88c0.07,4.25,0.75,11.59,0.75,11.59l-14.82,0.93c0,0-0.76-4.14-0.98-7.98
			c-0.33-5.75-3.39-35.45-4.12-40.93c-1.12-8.51-2.02-26.27-2.02-26.27S118.18,84.03,119.68,84.59z"/>
	</g>
	<g>
		<path fill="#F0AC80" d="M105.26,76.12c-3.81-1.97-9.05-4.3-9.57-5.18c-2.22-3.76-2.21-13.48-1.8-17.48h-1.01H61.14h-1.01
			c0.4,4,0.92,13.87-1.54,17.48c-0.39,0.58-6.05,3.17-9.83,5.18c-3.14,1.66-11.71,6.88-12.87,7.31c0.3,0.39,4.09,11.7,8.1,17.76
			c1.84,2.78,2.7,5.47,5.05,7.78c2.43,2.38,5.21,4.34,8.26,5.68c3.67,1.61,7.6,2.4,11.55,2.64c2.7,0.17,5.44,0.14,8.16-0.08
			c2.72,0.23,5.46,0.25,8.16,0.08c3.95-0.25,7.88-1.03,11.55-2.64c3.05-1.34,5.83-3.3,8.26-5.68c2.36-2.31,3.12-5,4.97-7.78
			c4.01-6.06,8.39-17.43,8.69-17.82C117.46,82.98,108.25,77.67,105.26,76.12z"/>
		<path fill="#F0AC80" d="M99.67,33.91c0,0-0.19-11.41-0.31-16.03c-0.13-4.99-0.38-12.68-14.64-17.05C83.92,0.58,80.4-0.01,76.96,0
			c-3.21,0.01-6.33,0.6-7.08,0.83c-3.78,1.16-6.57,2.9-9.35,5.38c-3.8,3.38-5.33,6.68-5.45,11.67c-0.12,4.62-0.23,16.03-0.23,16.03
			c-4.37-3.68-4.41,0.8-4.2,3.23c0.29,3.3,1.29,5.77,2.3,7.83c0.67,1.37,1.38,3.34,3.37,3.42c0.75,0.03,1.24-0.55,1.24-0.55
			s0.32,4.75,0.5,6.06c0.51,3.9,9.13,14.86,13.98,15.83c1.47,0.29,9.06,0.3,10.43,0.04c4.79-0.93,13.64-11.86,14.16-15.87
			c0.17-1.31,0.49-6.06,0.49-6.06s0.49,0.58,1.24,0.55c1.99-0.08,2.47-2.05,3.14-3.42c1.01-2.05,2.38-5.21,2.46-8.53
			C104.02,34.06,104.05,30.23,99.67,33.91z"/>
		<g>
			<g>
				<path fill-rule="evenodd" clip-rule="evenodd" fill="#D68B62" d="M55.5,41.31c0.11-0.01-0.87-3.58-1.45-5
					c-0.63-1.54-1.27-1.87-1.66-1.85c-0.74,0.04-1,3.47-1,3.47s0.54-3.68,2.2-0.72C54.04,38.03,55.37,41.32,55.5,41.31z"/>
				<path fill-rule="evenodd" clip-rule="evenodd" fill="#D68B62" d="M52.9,37.83c0.05-0.24,0.3-1.65,0.5-1.66
					c0.24-0.01,0.24,1.01,0.19,1.17c-0.16,0.5-0.32,1-0.43,1.54c-0.11,0.56-0.12,1.1-0.11,1.68c0.01,0.51,0.12,1.11,0.22,1.6
					c-0.39-0.38-0.49-1.9-0.5-2.47C52.75,38.71,52.79,38.39,52.9,37.83z"/>
				<path fill-rule="evenodd" clip-rule="evenodd" fill="#E8A073" d="M55.86,44.18c-0.03-0.09-0.56-1.27-0.6-1.36
					c-0.38-0.87,0.43,0.25,0.51,0.35c0.4,0.56,0.69,0.87,0.97,1.35c0.24,0.41,0.12,1.04-0.43,1.1c-0.46,0.05-1.04-0.39-1.23-1.04
					C55.05,44.49,56.27,45.31,55.86,44.18z"/>
			</g>
			<g>
				<path fill-rule="evenodd" clip-rule="evenodd" fill="#D68B62" d="M99.12,41.31c-0.11-0.01,0.87-3.58,1.45-5
					c0.63-1.54,1.27-1.88,1.66-1.85c0.74,0.04,1,3.47,1,3.47s-0.54-3.68-2.2-0.73C100.58,38.03,99.25,41.32,99.12,41.31z"/>
				<path fill-rule="evenodd" clip-rule="evenodd" fill="#D68B62" d="M101.72,37.83c-0.05-0.24-0.3-1.65-0.5-1.66
					c-0.24-0.01-0.24,1.01-0.19,1.17c0.16,0.5,0.32,1,0.43,1.54c0.11,0.56,0.12,1.1,0.11,1.68c-0.01,0.51-0.12,1.11-0.22,1.6
					c0.39-0.38,0.49-1.9,0.5-2.47C101.87,38.71,101.83,38.39,101.72,37.83z"/>
				<path fill-rule="evenodd" clip-rule="evenodd" fill="#E8A073" d="M98.76,44.18c0.03-0.09,0.56-1.27,0.6-1.36
					c0.38-0.87-0.43,0.25-0.51,0.35c-0.4,0.56-0.69,0.87-0.97,1.35c-0.24,0.41-0.12,1.04,0.43,1.1c0.46,0.05,1.04-0.39,1.24-1.04
					C99.58,44.49,98.35,45.31,98.76,44.18z"/>
			</g>
		</g>
	</g>
	<g>
		<path fill="#008C08" d="M119.47,117.13c0,0,13.69-7.34,15.15-7.34c1.46,0-0.29-11.75-1.46-17.64
			c-1.17-5.87-2.91-10.88-13.38-14.69c-10.49-3.83-4.07-0.89-4.07-0.89l0.86,39.69L119.47,117.13z"/>
		<path fill="#008C08" d="M33.29,79.53c0,0-8.45-1.49-12.82,10.88c-4.36,12.32-5.23,19.66-5.23,19.66s16.9,9.71,18.05,11.76
			c1.16,2.06,1.45-0.59,1.45-0.59l6.42-21.46L33.29,79.53z"/>
		<path fill="#008C08" d="M48.16,72.17c0,0-14.27,7.36-15.15,7.36c-0.86,0,6.99,16.43,4.36,27.62c-2.63,11.16-3.48,14.99-3.48,14.99
			s3.48,17.04,5.82,24.37c2.31,7.36,6.1,16.48,0.85,31.48c-5.22,14.97-9.9,24.39-9.9,24.39s32.05,8.52,38.43,9.71
			c6.42,1.16,25.06,2.93,34.08,2.63c9.01-0.28,16.6-3.23,16.89-4.99c0.28-1.74-5.83-24.1-8.74-32.31
			c-2.92-8.24-1.46-20.9-1.46-23.53c0-2.63,9.31-18.23,9.31-25.57c0-7.35-0.29-12.34-0.29-12.34s-2.21-35.48-1.17-37.35
			c1.35-2.44-11.93-6.45-11.93-6.45s-2.54,10.07-7.5,17.44c-4.94,7.33-16.31,10.13-20.11,9.54c-3.77-0.61-19.39-3.96-21.7-8.98
			C54.15,85.2,48.16,72.17,48.16,72.17z"/>
		<path fill="#00A308" d="M118.89,126.34c0,0-0.97,7.27-2.14,10.01c-1.16,2.72-3.7,7.43-5.04,9.81c-1.37,2.31-2.92,5.87-3.12,7.41
			c-0.19,1.58,0-0.76-1.94-2.14c-1.94-1.36-7.76-4.11-10.67-5.47c-2.91-1.39-3.88-1.77-3.88-3.14c0-1.39,6.4,0.59,9.3-0.59
			c2.94-1.18,9.13-3.35,11.27-6.07C114.81,133.42,118.89,126.34,118.89,126.34z"/>
		<path fill="#00A308" d="M42.8,153.11c0,0-1.74-3.91-2.92-7.43c-1.16-3.54-3.68-11.96-3.5-14.72c0.2-2.74,8.36,8.84,13.78,10.4
			c5.45,1.54,9.33,2.35,13.41,0.59c4.06-1.77,8.74-1.97,8.74-1.97s-8.57,3.9-10.5,4.71c-1.94,0.78-12.02,6.06-13.96,6.85
			C45.9,152.33,42.8,153.11,42.8,153.11z"/>
		<path fill="#00A308" d="M108.68,160.45c0,0-5.25,6.28-8.34,6.68c-3.1,0.37-5.83,0.58-5.83,0.58s9.89,1.94,12.24,2.92
			c2.33,0.98,3.1,0.4,2.5-4.88C108.68,160.45,108.68,160.45,108.68,160.45z"/>
		<path fill="#00A308" d="M44.1,163c0,0.58-0.97,6.46-0.97,6.46s4.68,1.17,6.42,1.17c1.74,0,2.52-0.98,0-3.13
			C47.03,165.34,44.1,163,44.1,163z"/>
		<path fill="#00A308" d="M109.1,177.25l-24.85,0.78c0,0,21.35,2.73,23.49,6.07c2.14,3.35,8.55,17.25,6.39,19.39
			c-2.12,2.16-7.16,0.6-12.79,2.16c-5.64,1.58-16.12,5.88-16.89,5.88c-0.77,0-4.28,0.59-4.28,0.59s6.59,2.55,11.63,2.55
			c5.06,0,19.23-0.21,22.72-1.97c3.5-1.76,5.61-1.38,3.68-8.23c-1.92-6.86-4.25-13.9-5.42-18.6c-1.17-4.72-2.34-9.4-2.34-9.4
			L109.1,177.25z"/>
		<path fill="#00A308" d="M43.26,171.82c0,0-10.1,27.82-11.06,29.78c-0.98,1.97,1.54,1.57,6.58,3.12
			c5.05,1.58,10.31,2.19,10.31,2.19s-4.68,0.58-8.36-4.92c-3.67-5.48-2.14-11.17-2.14-11.17l4.27-12.35h8.74c0,0-4.65-4.3-6.02-5.28
			C44.23,172.2,43.26,171.82,43.26,171.82z"/>
		<path fill="#00A308" d="M33.4,101.27c0,0-1.76,0.97-0.59,3.13c1.17,2.17,1.76,6.28,1.76,6.28l-2.33-3.13c0,0-0.21,4.29,0.57,5.47
			c0.8,1.18-2.92-0.58-2.92-0.58l1.94,3.53l0.59,4.3l1.55,0.98l3.3-10.97L33.4,101.27z"/>
		<path fill="#00A308" d="M120.26,102.04l0.17,0.6c0,0,0,4.71,1.16,2.55c1.17-2.17,1.76-3.15,1.76-3.15s0.39,3.72-0.38,5.31
			c-0.77,1.54-1.74,2.52-1.74,2.52s-0.96,3.35,0.58,1.97c1.55-1.36,2.71-2.95,2.71-2.95s-0.37,3.35-1.16,3.75
			c-0.78,0.38-1.55,1.96-1.55,1.96s-1.94,3.12-3.31,1.76C117.15,114.99,120.26,102.04,120.26,102.04z"/>
	</g>
</g>
</svg>
