<?xml version="1.0" encoding="utf-8"?>
<!-- Generator: Adobe Illustrator 23.0.6, SVG Export Plug-In . SVG Version: 6.00 Build 0)  -->
<svg version="1.1" id="Capa_1" xmlns="http://www.w3.org/2000/svg" xmlns:xlink="http://www.w3.org/1999/xlink" x="0px" y="0px"
	 viewBox="0 0 152.79 186.83" style="enable-background:new 0 0 152.79 186.83;" xml:space="preserve">
<style type="text/css">
	.st0{fill:#F0AC80;}
	.st1{fill-rule:evenodd;clip-rule:evenodd;fill:#D68B62;}
	.st2{fill-rule:evenodd;clip-rule:evenodd;fill:#E8A073;}
	.st3{fill:#BFE9FF;}
	.st4{fill:#A8E1FF;}
	.st5{fill:#A3DEFF;}
	.st6{fill:#B0E3FF;}
	.st7{fill:#FF5955;}
	.st8{fill:#FF0000;}
	.st9{fill:#3A8A00;}
	.st10{fill:#417400;}
	.st11{fill:#4D4D4D;}
	.st12{fill:#333333;}
	.st13{fill:#1B1464;}
	.st14{fill:#271D91;}
	.st15{fill:#B2B2B2;stroke:#B2B2B2;stroke-width:0.25;}
	.st16{fill:#8C8C8C;stroke:#5A3D1C;stroke-width:0.25;}
	.st17{fill:#A6A6A6;}
	.st18{fill:#FFFFFF;stroke:#B2B2B2;stroke-width:0.25;}
	.st19{fill:#EBEBEB;}
	.st20{stroke:#000000;stroke-width:0.25;}
	.st21{fill:#8C8C8C;stroke:#003642;stroke-width:0.25;}
	.st22{fill:#7A7A7A;}
	.st23{fill:#666666;stroke:#666666;stroke-width:0.25;}
	.st24{fill:#141414;}
	.st25{fill:#FFFFFF;stroke:#B2B2B2;}
	.st26{fill:#EDEDED;}
	.st27{fill:#694721;}
	.st28{fill:#5A3D1C;}
	.st29{fill:#006631;}
	.st30{fill:#00592B;}
	.st31{fill:#035B73;stroke:#003642;stroke-width:0.25;}
	.st32{fill:#02495C;stroke:#003642;stroke-width:0.25;}
	.st33{fill:#02495C;}
	.st34{fill:#820000;stroke:#730000;}
	.st35{fill:#5C0000;stroke:#5A3D1C;stroke-width:0.25;}
	.st36{fill:#780000;}
	.st37{fill:#006B33;stroke:#003642;stroke-width:0.25;}
	.st38{fill:#00592B;stroke:#003642;stroke-width:0.25;}
	.st39{fill:#DB8C3D;stroke:#003642;stroke-width:0.25;}
	.st40{fill:#C2803D;}
	.st41{fill:#DB6D00;stroke:#003642;stroke-width:0.25;}
	.st42{fill:#3F3F3F;stroke:#3F3F3F;stroke-width:0.25;}
	.st43{stroke:#3F3F3F;stroke-width:0.25;}
	.st44{fill:#262626;}
	.st45{fill:#5A3D1C;stroke:#003642;stroke-width:0.25;}
	.st46{fill:#52361A;}
	.st47{fill:#422C15;stroke:#003642;stroke-width:0.25;}
	.st48{fill:#FFFFFF;stroke:#E8E8E8;}
	.st49{fill:#E3E3E3;}
	.st50{fill:#B2B2B2;}
	.st51{fill:#FFBF00;}
	.st52{fill:#F5B700;}
	.st53{fill:#EBAF00;stroke:#D19D00;stroke-width:0.25;}
	.st54{fill:#D010B1;}
	.st55{fill:#A60D8C;}
	.st56{fill:#00A33D;}
	.st57{fill:#008033;}
	.st58{fill:#00D4FF;}
	.st59{fill:#00ABFF;}
	.st60{fill:#0A0A0A;stroke:#000000;}
	.st61{fill:#666666;stroke:#000000;stroke-width:0.25;}
	.st62{stroke:#000000;}
	.st63{fill:#00B800;}
	.st64{fill:#009C00;}
	.st65{fill:#3F3F3F;}
	.st66{fill:#73A334;stroke:#8CC63F;stroke-width:0.1;}
	.st67{fill:#8CC63F;stroke:#8CC63F;stroke-width:0.1;}
	.st68{fill:#545454;}
	.st69{fill:#7558A4;}
	.st70{fill:#7536D1;}
	.st71{fill:#E2BB95;stroke:#D5AF8C;}
	.st72{fill:#D5AF8C;}
	.st73{fill:#E2BB95;stroke:#D5AF8C;stroke-width:0.5;}
	.st74{fill:#9E2231;}
	.st75{fill:#B72837;}
	.st76{fill:#FFE085;}
	.st77{fill:#EBCE7A;}
	.st78{fill:url(#SVGID_1_);}
	.st79{fill:url(#SVGID_2_);}
	.st80{fill:url(#SVGID_3_);}
	.st81{fill:#D00204;}
	.st82{fill:#D10507;}
	.st83{fill:#D3090B;}
	.st84{fill:#D40C0E;}
	.st85{fill:#D51012;}
	.st86{fill:#D71315;}
	.st87{fill:#D81718;}
	.st88{fill:#D91A1C;}
	.st89{fill:#DB1E1F;}
	.st90{fill:#DC2122;}
	.st91{fill:#DD2526;}
	.st92{fill:#DF2829;}
	.st93{fill:#E02C2D;}
	.st94{fill:#E22F30;}
	.st95{fill:#E33333;}
	.st96{fill:#E43637;}
	.st97{fill:#E63A3A;}
	.st98{fill:#E73D3E;}
	.st99{fill:#E84141;}
	.st100{fill:#EA4444;}
	.st101{fill:#EB4848;}
	.st102{fill:#EC4B4B;}
	.st103{fill:#EE4F4E;}
	.st104{fill:#EF5252;}
	.st105{fill:#F05655;}
	.st106{fill:#F25A59;}
	.st107{fill:#F35D5C;}
	.st108{fill:#047A04;}
	.st109{fill:#57B328;}
	.st110{fill:#507F29;}
	.st111{fill:#DDBB06;}
	.st112{fill:#A80000;}
	.st113{fill:#9E0000;}
	.st114{fill:#8F0000;stroke:#610000;stroke-width:0.25;}
	.st115{fill:#5A3D1C;stroke:#805426;}
	.st116{fill:#63421F;}
	.st117{fill:#5A3D1C;stroke:#6B4620;}
	.st118{fill:url(#SVGID_4_);}
	.st119{fill:#171717;stroke:#000000;}
	.st120{fill:#212121;}
	.st121{fill:url(#SVGID_5_);}
	.st122{fill:#3F3F3F;stroke:#3F3F3F;}
	.st123{fill:#8C8C8C;stroke:#3F3F3F;}
	.st124{fill:#808080;}
	.st125{fill:url(#SVGID_6_);}
	.st126{fill:none;}
	.st127{fill:#D4D4D4;}
	.st128{fill:#D4D4D4;stroke:#B8B8B8;stroke-width:0.5;}
	.st129{fill:#D4D4D4;stroke:#B8B8B8;stroke-width:0.2;}
	.st130{fill:#C7C7C7;}
	.st131{fill:#DBF8FF;stroke:#7DBDCC;stroke-width:0.25;}
	.st132{fill:#C2F3FF;}
	.st133{fill:#F2F2F2;}
	.st134{fill:url(#SVGID_7_);stroke:#000000;}
	.st135{fill:#42210B;stroke:#000000;}
	.st136{fill:#C69C6D;stroke:#000000;}
	.st137{fill:#93278F;stroke:#000000;}
	.st138{fill:#589F3E;}
	.st139{fill:#4D8F39;}
	.st140{fill:#963528;}
	.st141{fill:#AC3A2D;}
	.st142{fill:#211915;}
	.st143{fill:#444242;}
	.st144{fill:#1A1A1A;}
	.st145{fill:#FFFFFF;}
	.st146{fill:#2E2E2E;}
	.st147{fill:#363636;}
	.st148{fill:#666666;}
	.st149{fill:#C69C6D;}
	.st150{fill:#B38D62;}
	.st151{fill:#A67C52;}
	.st152{fill:#8C6239;}
	.st153{fill:#9E10D2;}
	.st154{fill:#8210D2;}
	.st155{fill:#6B6B6B;}
	.st156{fill:#008C08;}
	.st157{fill:#00A308;}
	.st158{fill:#EC2024;}
	.st159{fill:#E31E26;}
	.st160{fill:#BED63A;}
	.st161{fill:#EC1C24;}
	.st162{fill:#00ADEE;}
	.st163{fill:#2E3191;}
</style>
<g>
	<g>
		<path class="st0" d="M149.69,213.45c-0.45-14.13-2.35-52.05-2.75-57.09c-0.44-5.43-4.12-19.67-5.66-33.29
			c-1.63-14.29-6.99-25.02-11.01-31.72c-0.29-0.48-0.64-0.86-1.04-1.18c-0.03-0.04-0.05-0.07-0.08-0.11
			c-0.11-0.09-1.12-1.42-1.23-1.51c-3.75-3.13-11.72-7.47-15.71-9.1c-2.82-1.47-9.24-5.15-11.6-6.37c-3.66-1.89-8.69-4.13-9.19-4.97
			c-1.34-2.27-1.83-6.79-1.92-10.79c1.55-2.2,2.65-4.27,2.82-5.58c0.16-1.26,0.47-5.82,0.47-5.82s0.47,0.56,1.19,0.53
			c1.91-0.07,2.37-1.97,3.01-3.28c0.97-1.97,2.28-5.01,2.36-8.19c0.06-2.29,0.09-5.97-4.11-2.43c0,0-0.18-10.96-0.3-15.39
			C94.82,12.38,94.57,4.99,80.88,0.8c-0.77-0.24-4.16-0.8-7.46-0.8c-3.08,0.01-6.08,0.58-6.8,0.8c-3.63,1.11-6.3,2.79-8.98,5.17
			c-3.65,3.25-5.11,6.41-5.23,11.2c-0.11,4.44-0.21,15.39-0.21,15.39c-4.2-3.54-4.24,0.77-4.03,3.1c0.28,3.17,1.24,5.54,2.21,7.51
			c0.64,1.31,1.33,3.21,3.24,3.28c0.72,0.03,1.19-0.53,1.19-0.53s0.31,4.56,0.48,5.82c0.15,1.14,1.02,2.91,2.29,4.84
			c0.09,4.21-0.21,9.22-1.79,11.53c-0.38,0.55-5.81,3.05-9.44,4.97c-0.37,0.2-0.83,0.45-1.34,0.74c0,0-0.01-0.01-0.01-0.01
			s-8.06,4.24-11.98,5.7c-2.97,1.11-8.45,4.18-12.55,7.06c-0.89,0.47-1.81,1.14-2.76,2.09c-0.03,0.02-0.07,0.06-0.01,0.01
			c-0.19,0.18-0.33,0.35-0.44,0.51c-5.75,6.5-7.84,23.64-7.63,31.27c0.23,7.84-3.04,34.17-3.69,45.04
			C5.27,176.4,3.1,205.78,3.1,205.78l19.72,2.12c0,0,5.93-42.99,7.27-49.14c1.52-6.96,0.71-32.59,7.71-46.59s0,0,0,0
			c2.4,1.39,3.11,13.52,3.04,27.03c-0.07,14.4,61.67,9.89,62.96,1.97c1.14-7,4.46-27.72,4-31c2.58,3.65,10.26,18.56,11.08,21.16
			c1.09,3.48,3.05,19.15,3.48,30.04c0.44,10.88,2.62,27.2,2.62,27.2l4.13,25.25L149.69,213.45z"/>
	</g>
	<g>
		<path class="st58" d="M117.48,185.56c-0.25-0.42-0.45-0.86-0.66-1.3c2.3,5.53,4.92,12.23,6.98,17.86
			C122.13,196,120.28,190.88,117.48,185.56z"/>
		<path class="st58" d="M123.62,209.76c-1.66-2.52-2.02-5.12-4.67-5.56c-2.61-0.44-7.21,0.6-10.82,1.8
			c-3.58,1.2-10.7,2.8-11.53,2.05c-0.81-0.81,6.23-0.61,10.8-3.86c4.53-3.26,7.42-5.26,7.84-8.01c0.42-2.73-0.9-7.29-2.21-7.55
			c-1.31-0.26-2.77,1.81-5.19,1.74c-2.42,0-6.04-0.13-6.04-0.13s5.29-2.17,7.02-4.56c1.75-2.37,1.33-3.36-0.19-3.31
			c-1.5,0.04-9.19,1.75-9.52,1.46c-0.31-0.29,6.74-4.93,7.6-6.47c0.85-1.57,1.22-10.7,2.47-16.5c1.28-5.81,4.57-14.42,4.57-14.42
			s-0.77,4.31-1.24,10c1.04-6.43,2.65-14.66,2.88-16.31c0.46-0.46,0.9-0.94,1.39-1.49c5.86-6.45,2.33-23.07,1.03-25.69
			c-0.57-1.14-1.67-2.05-3.68-2.58l-1.89-34.28l-3.14-0.32l0.11,0.3l1.47,33.77c-2.23-0.16-5.05-0.1-8.63,0.22
			c-10.56,0.88-25.2,14.73-25.2,14.73s0.82,0.61-2.54-1.16c-3.36-1.72-18.65-9.15-25.36-10.3c-4.4-0.72-9.09-0.75-12.4,0.07
			c0.11-0.66,0.2-1.27,0.28-1.58c0.28-0.89,1.4-35.41,1.4-35.41l-2.91,0.08c0,0,0.36,14.09,0.31,15.52
			c-0.06,1.41-1.46,14.22-1.96,18.29c-0.3,2.61-0.78,4.46-1.06,5.46c-1.74,3.41,0.99,17.59,1.87,20.98
			c0.68,2.77,2.61,8.09,6.37,10.54l-0.11,0.3c0,0,0.83,18.24,0.08,30.4c0.01-0.07,0.04-0.15,0.04-0.22c1.68-5.12,0-30.35,0-30.35
			s3.19,24.48,3.22,25.7c0.03,1.22,3.98,13.89,5.02,15.27c1.04,1.43,1.08,2.62,0.09,3.35c-0.99,0.76-5.11,5.21-7.08,7.09
			c-1.12,1.11-2.25,10.57-3.11,15.06c9.38,1.81,68.89-1.51,86.91-3.13l0-0.02c-0.54,0.06-1.08,0.1-1.64,0.15
			C124.04,210.42,123.83,210.05,123.62,209.76z M46.07,149.55c-1.94-0.38-5.05-2.13-5.05-2.13s22.45-5.45,26.94-7.71
			c4.46-2.25,8.71-6.61,8.71-6.61s3.98,3.77,6.37,5.41c8.43,5.78,20.95,5.78,23.77,6.43c2.85,0.6-11.45,1.39-13.59,1.22
			c-4.48-0.38-10.93-5.15-15.56-4.41c-4.6,0.7-7.79,2.84-14.87,4.88C55.66,148.63,47.99,149.86,46.07,149.55z M89.92,147.75
			c0,0-3.69,1.61-5.7,2.18c-2,0.56-16.68,1.05-17.49,0.67c-0.82-0.39-2.45-1.68-2.45-1.68l1.58-0.43c0,0,11.2,0.24,16.11-0.23
			C86.9,147.83,89.92,147.75,89.92,147.75z M58.5,155.9c-2.13-0.56-2.97-2.06-2.97-2.06s15.02,0.3,18.36,0.41
			c3.32,0.14,9.35,0.47,14.18-0.37c4.81-0.81,8.93-0.92,8.93-0.92s-15.18,4.66-16.39,4.69C79.41,157.68,60.64,156.42,58.5,155.9z"/>
		<path class="st58" d="M114.62,179.19c-0.69-1.88-1.23-3.71-1.64-5.4c0.34,1.83,0.83,3.57,1.51,5.07
			C114.54,178.98,114.59,179.08,114.62,179.19z"/>
		<path class="st59" d="M77.64,141.75c4.64-0.74,11.08,4.03,15.56,4.41c2.14,0.17,16.44-0.61,13.59-1.22
			c-2.82-0.65-15.34-0.65-23.77-6.43c-2.38-1.64-6.37-5.41-6.37-5.41s-4.24,4.37-8.71,6.61c-4.49,2.26-26.94,7.71-26.94,7.71
			s3.11,1.74,5.05,2.13c1.92,0.32,9.6-0.92,16.7-2.92C69.85,144.58,73.04,142.45,77.64,141.75z"/>
		<path class="st59" d="M65.86,148.49l-1.58,0.43c0,0,1.63,1.3,2.45,1.68c0.81,0.38,15.49-0.11,17.49-0.67c2-0.57,5.7-2.18,5.7-2.18
			s-3.02,0.08-7.95,0.51C77.06,148.73,65.86,148.49,65.86,148.49z"/>
		<path class="st58" d="M88.06,153.87c-4.82,0.84-10.86,0.51-14.18,0.37c-3.34-0.11-18.36-0.41-18.36-0.41s0.84,1.5,2.97,2.06
			c2.13,0.52,20.91,1.78,22.11,1.75c1.2-0.03,16.39-4.69,16.39-4.69S92.87,153.07,88.06,153.87z"/>
		<path class="st59" d="M126.8,210.68c-0.67-2.11-1.73-5.13-3-8.56c-2.06-5.63-4.67-12.32-6.98-17.86c-0.76-1.84-1.52-3.55-2.2-5.08
			c-0.03-0.11-0.08-0.21-0.13-0.33c-0.69-1.49-1.17-3.23-1.51-5.07c-1.05-5.42-0.91-12.01-0.48-17.37c0.47-5.69,1.24-10,1.24-10
			s-3.29,8.61-4.57,14.42c-1.25,5.8-1.62,14.93-2.47,16.5c-0.87,1.54-7.92,6.18-7.6,6.47c0.33,0.3,8.02-1.42,9.52-1.46
			c1.53-0.04,1.94,0.95,0.19,3.31c-1.73,2.39-7.02,4.56-7.02,4.56s3.62,0.13,6.04,0.13c2.43,0.06,3.89-2,5.19-1.74
			c1.31,0.25,2.64,4.82,2.21,7.55c-0.42,2.75-3.3,4.75-7.84,8.01c-4.57,3.26-11.61,3.05-10.8,3.86c0.82,0.75,7.95-0.84,11.53-2.05
			c3.61-1.21,8.21-2.24,10.82-1.8c2.65,0.44,3.01,3.04,4.67,5.56c0.21,0.29,0.42,0.66,0.63,1.1c0.56-0.05,1.1-0.09,1.64-0.15
			c0.14,0,0.27,0,0.42-0.03C126.47,210.67,126.65,210.67,126.8,210.68z"/>
		<path class="st59" d="M49.18,191.71c0.99-0.73,0.96-1.92-0.09-3.35c-1.05-1.38-4.99-14.06-5.02-15.27
			c-0.03-1.22-3.22-25.7-3.22-25.7s1.68,25.23,0,30.35c0,0.07-0.03,0.15-0.04,0.22c-1.72,5.51-5.08,30.45-6.04,35.12
			c0,0.04-0.02,0.13-0.04,0.2c0.07,0,0.11-0.01,0.19,0.03c1.34,0.2,2.67,0.29,4.06,0.56c0.87-4.48,1.99-13.95,3.11-15.06
			C44.07,196.92,48.19,192.47,49.18,191.71z"/>
	</g>
</g>
</svg>
