<?xml version="1.0" encoding="utf-8"?>
<!-- Generator: Adobe Illustrator 23.0.6, SVG Export Plug-In . SVG Version: 6.00 Build 0)  -->
<svg version="1.1" id="Capa_1" xmlns="http://www.w3.org/2000/svg" xmlns:xlink="http://www.w3.org/1999/xlink" x="0px" y="0px"
	 viewBox="0 0 152.79 186.83" enable-background="new 0 0 152.79 186.83" xml:space="preserve">
<g>
	<g>
		<path fill="#F0AC80" d="M100.16,80.46c-3.81-1.97-4.62-8.98-5.47-9.52c-5.53-3.48-2.21-13.48-1.8-17.48h-1.01H60.13h-1.01
			c0.4,4,5.05,14-1.54,17.48c-0.62,0.33,3.65,8.34,4.59,12.52c1.42,6.34-10.84,11.56-12,12c0.3,0.39-11.2-0.32-7.19,5.73
			c1.84,2.78,2.7,5.47,5.05,7.78c2.43,2.38,5.21,4.34,8.26,5.68c3.67,1.61,7.6,2.4,11.55,2.64c2.7,0.17,5.44,0.14,8.16-0.08
			c2.72,0.23,5.46,0.25,8.16,0.08c3.95-0.25,7.88-1.03,11.55-2.64c3.05-1.34,5.83-3.3,8.26-5.68c2.36-2.31,3.12-5,4.97-7.78
			c4.01-6.06,1.92,10.66,2.22,10.27C107.69,119.55,103.15,82.01,100.16,80.46z"/>
		<path fill="#F0AC80" d="M98.67,33.91c0,0-0.19-11.41-0.31-16.03c-0.13-4.99-0.38-12.68-14.64-17.05c-0.8-0.25-4.33-0.84-7.76-0.83
			c-3.21,0.01-6.33,0.6-7.08,0.83c-3.78,1.16-6.57,2.9-9.35,5.38c-3.8,3.38-5.33,6.68-5.45,11.67c-0.12,4.62-0.23,16.03-0.23,16.03
			c-4.37-3.68-4.41,0.8-4.2,3.23c0.29,3.3,1.29,5.77,2.3,7.83c0.67,1.37,1.38,3.34,3.37,3.42c0.75,0.03,1.24-0.55,1.24-0.55
			s0.32,4.75,0.5,6.06c0.51,3.9,9.13,14.86,13.98,15.83c1.47,0.29,9.06,0.3,10.43,0.04c4.79-0.93,13.64-11.86,14.16-15.87
			c0.17-1.31,0.49-6.06,0.49-6.06s0.49,0.58,1.24,0.55c1.99-0.08,2.47-2.05,3.14-3.42c1.01-2.05,2.38-5.21,2.46-8.53
			C103.01,34.06,103.04,30.23,98.67,33.91z"/>
		<g>
			<g>
				<path fill-rule="evenodd" clip-rule="evenodd" fill="#D68B62" d="M54.5,41.31c0.11-0.01-0.87-3.58-1.45-5
					c-0.63-1.54-1.27-1.87-1.66-1.85c-0.74,0.04-1,3.47-1,3.47s0.54-3.68,2.2-0.72C53.04,38.03,54.36,41.32,54.5,41.31z"/>
				<path fill-rule="evenodd" clip-rule="evenodd" fill="#D68B62" d="M51.89,37.83c0.05-0.24,0.3-1.65,0.5-1.66
					c0.24-0.01,0.24,1.01,0.19,1.17c-0.16,0.5-0.32,1-0.43,1.54c-0.11,0.56-0.12,1.1-0.11,1.68c0.01,0.51,0.12,1.11,0.22,1.6
					c-0.39-0.38-0.49-1.9-0.5-2.47C51.74,38.71,51.79,38.39,51.89,37.83z"/>
				<path fill-rule="evenodd" clip-rule="evenodd" fill="#E8A073" d="M54.86,44.18c-0.03-0.09-0.56-1.27-0.6-1.36
					c-0.38-0.87,0.43,0.25,0.51,0.35c0.4,0.56,0.69,0.87,0.97,1.35c0.24,0.41,0.12,1.04-0.43,1.1c-0.46,0.05-1.04-0.39-1.23-1.04
					C54.04,44.49,55.27,45.31,54.86,44.18z"/>
			</g>
			<g>
				<path fill-rule="evenodd" clip-rule="evenodd" fill="#D68B62" d="M98.12,41.31c-0.11-0.01,0.87-3.58,1.45-5
					c0.63-1.54,1.27-1.88,1.66-1.85c0.74,0.04,1,3.47,1,3.47s-0.54-3.68-2.2-0.73C99.57,38.03,98.25,41.32,98.12,41.31z"/>
				<path fill-rule="evenodd" clip-rule="evenodd" fill="#D68B62" d="M100.72,37.83c-0.05-0.24-0.3-1.65-0.5-1.66
					c-0.24-0.01-0.24,1.01-0.19,1.17c0.16,0.5,0.32,1,0.43,1.54c0.11,0.56,0.12,1.1,0.11,1.68c-0.01,0.51-0.12,1.11-0.22,1.6
					c0.39-0.38,0.49-1.9,0.5-2.47C100.87,38.71,100.82,38.39,100.72,37.83z"/>
				<path fill-rule="evenodd" clip-rule="evenodd" fill="#E8A073" d="M97.76,44.18c0.03-0.09,0.56-1.27,0.6-1.36
					c0.38-0.87-0.43,0.25-0.51,0.35c-0.4,0.56-0.69,0.87-0.97,1.35c-0.24,0.41-0.12,1.04,0.43,1.1c0.46,0.05,1.04-0.39,1.24-1.04
					C98.57,44.49,97.35,45.31,97.76,44.18z"/>
			</g>
		</g>
	</g>
	<g>
		<path fill="#8C8C8C" stroke="#3F3F3F" d="M51.43,77.18c0,0-6.54,1.51-13.61,4.28c-7.07,2.77-16.51,7.2-18.92,12.35
			c-2.39,5.17-3.66,30.14-4.54,34.32c-0.89,4.15-3.15,26.59-4.04,31.64c-0.87,5.04-2.77,18.66-1.51,29.39
			c1.28,10.72,0.39,33.92,0.77,36.2c0.38,2.25,0.26,1.63,0.13,3.51c-0.13,1.9,0.39,3.53,0.39,3.53l0.62,1.15l16.03,0.62l1.87-3.15
			c0,0,4.56-26.74,4.68-31.53c0.11-4.79,1.62-14.37,1.75-18.16c0.13-3.77,0.64-11.22,2.53-12.22c1.9-1.01,1.9-1.01,1.9-1.01
			s-0.64,18.41-1.39,22.2c-0.77,3.79-3.3,11.86-3.4,14.89c-0.13,3.02-1.02,17.9-1.39,23.56c-0.38,5.68-0.38,6.69-0.38,6.69
			l52.46-1.38c0,0,32.53-1.51,32.91-1.51c0.39,0,2.65-12.48,2.52-16.27c-0.13-3.79-2.26-20.44-3.65-26.1
			c-1.4-5.69-3.66-23.59-3.17-26.61c0.51-3.03,1.27-3.53,1.27-3.53s3.78,9.59,3.78,13.12s1.01,19.41,0.89,21.81
			c-0.13,2.41,1,20.44,2.26,23.72c1.28,3.28,3.15,8.42,3.04,9.19c-0.13,0.77-0.25,6.3,0.11,6.3c0.38,0,17.02,1.77,17.41,1.77
			c0.38,0,0.13-7.43,0.13-8.07c0-0.62,1.26-35.06,1.51-42.24c0.26-7.2-2.27-22.84-1.76-28.12c0.51-5.3-1.26-28-3.03-37.45
			c-1.77-9.47-2.14-18.54-5.43-22.59c-3.28-4.02-12.48-12.48-16.77-14.5c-4.28-2.02-15.24-8.19-15.24-8.19l-1.59,0.12
			c0,0-34.61,15.32-39.35,11.66C56.48,82.92,51.43,77.18,51.43,77.18z"/>
		<path fill="#808080" d="M72.21,94.74c0,0-2.86-0.49-4.2-0.49c-1.35,0-5.56,1.42-3.63,4.7c1.95,3.28,3.04,8.83,2.7,10.92
			c-0.33,2.11,2.27,36.06,2.93,42.71c0.67,6.65-1.17,8.23-2.35,13.95c-1.17,5.72,0.76,20.93,1.51,26.9c0.76,5.98-1,19.25-0.08,25.14
			c0.91,5.89,0.51,12.11,0.51,12.11l-0.09,0.49l-0.09,3.46l9.93-0.42c0,0,4.79-2.03,3.35-6.3c-1.42-4.3-2.18-6.39-2.35-10.02
			c-0.16-3.6-3.6-20.26-2.18-25.14c1.44-4.88,2.02-17.23,1.93-21.44c-0.07-4.21-2.09-23.54-0.65-28.16c1.42-4.63,0.24-16.3,1-20.93
			c0.77-4.63,0.32-12.02-0.09-14.05c-0.42-2.02,7.91-10.34,8.84-12.78c0.93-2.42-4.54-4.99-4.89-4.63
			c-0.32,0.38-4.11,2.44-5.12,2.95C78.17,94.25,72.21,94.74,72.21,94.74z"/>
		<path fill="#808080" d="M34.55,232.53c0,0-1.6,1.02-1.43-4.03c0.18-5.04,0.67-24.55,2.6-30.86c1.95-6.3,2.95-13.11,2.95-16.99
			c0-3.86,0.75-11.25,0.42-11.51c-0.32-0.26-2.35,1.18-2.6,2.35c-0.25,1.18-1.44,12.79-1.67,15.22c-0.26,2.44-1.27,11.35-1.27,13.19
			c0,1.86-1.51,10.34-1.68,12.36c-0.16,2.03-1.84,11.93-2.19,13.95c-0.33,2.02-1.42,6.65-2.09,7.56c-0.67,0.93-1.18-2.77-2.78-2.77
			c-1.59,0,0.18-2.02,0.18-2.02l-2.02-2.93l4.29-3.7l0.67-10.44l-5.79,3.72c0,0-0.34-1.86,2.77-4.63c3.11-2.79,4.28-4.2,4.46-7.81
			c0.17-3.63,2.61-20.44,2.43-20.69c-0.16-0.26-7.65,3.02-8.15,2.77c-0.51-0.26,4.03-3.54,6.21-5.72c2.19-2.19-4.37-3.86-4.37-3.86
			s2.6-1.67,4.2-2.02c1.61-0.33-8.74-9.49-8.49-12c0.25-2.53,4.2,3.09,7.56,3.35c3.36,0.26,7.57-2.93,7.57-2.93
			s-9.83-13.3-10.76-17.66c-0.93-4.37-1.02-7.23-0.76-7.23c0.26,0,8.75,10.18,9.42,10.86c0.67,0.67,0.6-14.39-0.84-19
			c-1.42-4.65,2.6-4.3,3.53-3.63c0.93,0.68-0.16-18.75-0.42-20.25c-0.25-1.51,4.96,5.7,5.37,7.65c0.44,1.93,0.44,12.02,0.44,12.02
			l5.95-4.05c0,0,2.02,1.6,4.3,2.44c2.25,0.84,3.6,0.51-1.6,1.09c-5.21,0.58,5.89,6.9,7.06,7.9c1.17,1,2.19,3.79,2.19,3.79
			s-7.9-3.37-10.51-1.18c-2.6,2.19-7.16,13.44-5.14,17.39c2.03,3.95,3.03,5.04,3.03,5.04l-7.14-3.19c0,0,0.07,13.54,3.53,19.09
			c3.44,5.53,6.63,8.06,6.63,8.06l-7.39-1.09c0,0,1.7,6.63,6.05,10.41c4.4,3.8,3.79,5.31,0.93,4.72c-2.86-0.6-7.14-2.37-3.09,1.33
			c4.02,3.7,1.68,6.98-0.09,8.41c-1.77,1.42-6.4,8.17-6.4,8.17s8,0.48,11.28,0.32c3.28-0.16,2.51,1.86-0.93,3.95
			c-3.46,2.11-9,8.65-9.42,9.25c-0.42,0.59,4.12,3.86,5.88,4.03C49.18,230.94,34.55,232.53,34.55,232.53z"/>
		<path fill="#808080" d="M119.53,230.27c0,0,1.27-8.66,1.27-10.18c0-1.51-0.26-10-0.84-13.12c-0.58-3.12-1.77-12.27-2.19-15.05
			c-0.42-2.77-2.86-11.52-2.86-16.9c0-5.37-0.75-12.61-0.25-13.28c0.51-0.67,1.26,0.25,1.35,1.61c0.08,1.32,1.67,6.05,2.01,9.07
			c0.35,3.03,0.94,9.58,0.94,9.84c0,0.26,0.67,14.55,0.67,15.9c0,1.33,1.1,13.86,1.84,18.4c0.77,4.55,3.03,8.07,3.03,10.6
			c0,2.51,1.28,7.72,1.28,7.72s3.53-0.83,3.77-2c0.25-1.18-0.49-2.78-0.49-2.78s2.44-0.92,0.33-4.28c-2.09-3.37-2.35-3.63-2.86-4.96
			c-0.5-1.35-2.43-6.32-0.26-8.58c2.19-2.27,1.7-3.28-0.42-6.05c-2.09-2.79,0.09-12.62-0.42-17.48c-0.49-4.89-1.84-5.46-1.84-7.91
			c0-2.43-2.36-8.06,0.92-8.48c3.3-0.43,3.36-2.28,1.09-3.72c-2.26-1.42-8.23-8.49-8.49-12.51c-0.24-4.04,3.44-6.3,4.79-9.67
			c1.34-3.36-1.26-3.28-1.84-3.11c-0.58,0.16,2.86-7.4,3.37-12.28c0.49-4.86-1.28-3.53-2.53-1.77c-1.26,1.77-2.19-14.95-1.6-19.74
			c0.6-4.8-6.72,4.28-6.98,8.07c-0.26,3.77-2.02,8.91-5.56,7.9c-3.52-1.02-0.75,4.86-0.32,6.05c0.42,1.16,1.26,8.65,3.11,12.77
			c1.86,4.13,2.01,0.35,0.33,7.83c-1.67,7.49-5.04,11.44-3.6,11.94c1.42,0.51,1.93,10.67,0.58,11.6c-1.35,0.93-11.19-1.34-9.83,1.1
			c1.34,2.44,6.23,9.42,9.25,8.07c3.03-1.35,2.69,1.28,0.83,6.3c-1.85,5.04,3.03,7.57,3.61,11.18c0.6,3.63-3.7,5.98-2.93,8.33
			c0.76,2.37,6.97,13.7,1.67,13.37c-5.29-0.33-7.47-0.25-11.93,0.42c-4.47,0.67-11.53,1.85-6.81,3.11c4.72,1.26-0.42,2.44-0.1,2.44
			C90.96,230.02,119.53,230.27,119.53,230.27z"/>
		<path fill="#3F3F3F" stroke="#3F3F3F" d="M71.87,76.29c0,0-7.45-4.67-8.95-7.82c-1.53-3.15-1.53-3.15-1.53-3.15
			s-5.67,8.2-7.56,9.96c-1.89,1.77-2.41,3.41,0.13,6.69c2.51,3.28,10.45,12.86,17.65,12.73c7.2-0.13,8.45-1.51,12.36-3.53
			c3.9-2.02,10.09-6.56,13.12-9.58c3.03-3.02,4.41-6.81,4.41-6.81s-2.51-0.51-4.53-3.53c-2.03-3.03-4.66-8.2-4.66-8.2
			s-1.41,5.17-3.79,7.7c-2.39,2.52-10.48,5.05-12.24,5.15C74.51,76.04,71.87,76.29,71.87,76.29z"/>
		<linearGradient id="SVGID_1_" gradientUnits="userSpaceOnUse" x1="72.3109" y1="161.474" x2="77.048" y2="161.474">
			<stop  offset="0.1154" style="stop-color:#000000"/>
			<stop  offset="0.2717" style="stop-color:#3F3F3F"/>
			<stop  offset="0.4259" style="stop-color:#767676"/>
			<stop  offset="0.5" style="stop-color:#8C8C8C"/>
			<stop  offset="0.6143" style="stop-color:#565656"/>
			<stop  offset="0.727" style="stop-color:#272727"/>
			<stop  offset="0.8132" style="stop-color:#0B0B0B"/>
			<stop  offset="0.8626" style="stop-color:#000000"/>
		</linearGradient>
		<polygon fill="url(#SVGID_1_)" points="72.31,75.54 72.31,247.29 77.05,247.66 76.61,75.28 		"/>
	</g>
</g>
</svg>
