<?xml version="1.0" encoding="utf-8"?>
<!-- Generator: Adobe Illustrator 23.0.6, SVG Export Plug-In . SVG Version: 6.00 Build 0)  -->
<svg version="1.1" id="Capa_1" xmlns="http://www.w3.org/2000/svg" xmlns:xlink="http://www.w3.org/1999/xlink" x="0px" y="0px"
	 viewBox="0 0 152.79 186.83" enable-background="new 0 0 152.79 186.83" xml:space="preserve">
<g>
	<g>
		<path fill="#F0AC80" d="M34.61,84.59c-2.31,0.86-6.41,7.06-7.15,7.8c-0.02,0.02,0.07-0.14,0,0c-2.78,5.95-0.89-8.13-8.89,23.87
			c-3,12-4.6,26.11-5.1,34.56c-0.49,8.46-1.78,22.07-1.93,31.88c-0.07,4.25-0.75,11.59-0.75,11.59l14.82,0.93
			c0,0,0.76-4.14,0.98-7.98c0.33-5.75,3.39-35.45,4.12-40.93c1.12-8.51,2.02-26.27,2.02-26.27S36.11,84.03,34.61,84.59z"/>
	</g>
	<g>
		<path fill="#F0AC80" d="M118.18,84.59c2.31,0.86,6.41,7.06,7.15,7.8c0.02,0.02-0.07-0.14,0,0c2.78,5.95,0.89-8.13,8.89,23.87
			c3,12,4.6,26.11,5.1,34.56c0.49,8.46,1.78,22.07,1.93,31.88c0.07,4.25,0.75,11.59,0.75,11.59l-14.82,0.93c0,0-0.76-4.14-0.98-7.98
			c-0.33-5.75-3.39-35.45-4.12-40.93c-1.12-8.51-2.02-26.27-2.02-26.27S116.68,84.03,118.18,84.59z"/>
	</g>
	<g>
		<path fill="#F0AC80" d="M101.76,76.12c-3.81-1.97-9.05-4.3-9.57-5.18c-2.22-3.76-2.21-13.48-1.8-17.48h-1.01H57.64h-1.01
			c0.4,4,0.92,13.87-1.54,17.48c-0.39,0.58-6.05,3.17-9.83,5.18c-3.14,1.66-11.71,6.88-12.87,7.31c0.3,0.39,4.09,11.7,8.1,17.76
			c1.84,2.78,2.7,5.47,5.05,7.78c2.43,2.38,5.21,4.34,8.26,5.68c3.67,1.61,7.6,2.4,11.55,2.64c2.7,0.17,5.44,0.14,8.16-0.08
			c2.72,0.23,5.46,0.25,8.16,0.08c3.95-0.25,7.88-1.03,11.55-2.64c3.05-1.34,5.83-3.3,8.26-5.68c2.36-2.31,3.12-5,4.97-7.78
			c4.01-6.06,8.39-17.43,8.69-17.82C113.96,82.98,104.75,77.67,101.76,76.12z"/>
		<path fill="#F0AC80" d="M96.17,33.91c0,0-0.19-11.41-0.31-16.03c-0.13-4.99-0.38-12.68-14.64-17.05C80.42,0.58,76.9-0.01,73.46,0
			c-3.21,0.01-6.33,0.6-7.08,0.83c-3.78,1.16-6.57,2.9-9.35,5.38c-3.8,3.38-5.33,6.68-5.45,11.67c-0.12,4.62-0.23,16.03-0.23,16.03
			c-4.37-3.68-4.41,0.8-4.2,3.23c0.29,3.3,1.29,5.77,2.3,7.83c0.67,1.37,1.38,3.34,3.37,3.42c0.75,0.03,1.24-0.55,1.24-0.55
			s0.32,4.75,0.5,6.06c0.51,3.9,9.13,14.86,13.98,15.83c1.47,0.29,9.06,0.3,10.43,0.04c4.79-0.93,13.64-11.86,14.16-15.87
			c0.17-1.31,0.49-6.06,0.49-6.06s0.49,0.58,1.24,0.55c1.99-0.08,2.47-2.05,3.14-3.42c1.01-2.05,2.38-5.21,2.46-8.53
			C100.52,34.06,100.55,30.23,96.17,33.91z"/>
		<g>
			<g>
				<path fill-rule="evenodd" clip-rule="evenodd" fill="#D68B62" d="M52,41.31c0.11-0.01-0.87-3.58-1.45-5
					c-0.63-1.54-1.27-1.87-1.66-1.85c-0.74,0.04-1,3.47-1,3.47s0.54-3.68,2.2-0.72C50.54,38.03,51.87,41.32,52,41.31z"/>
				<path fill-rule="evenodd" clip-rule="evenodd" fill="#D68B62" d="M49.4,37.83c0.05-0.24,0.3-1.65,0.5-1.66
					c0.24-0.01,0.24,1.01,0.19,1.17c-0.16,0.5-0.32,1-0.43,1.54c-0.11,0.56-0.12,1.1-0.11,1.68c0.01,0.51,0.12,1.11,0.22,1.6
					c-0.39-0.38-0.49-1.9-0.5-2.47C49.25,38.71,49.29,38.39,49.4,37.83z"/>
				<path fill-rule="evenodd" clip-rule="evenodd" fill="#E8A073" d="M52.36,44.18c-0.03-0.09-0.56-1.27-0.6-1.36
					c-0.38-0.87,0.43,0.25,0.51,0.35c0.4,0.56,0.69,0.87,0.97,1.35c0.24,0.41,0.12,1.04-0.43,1.1c-0.46,0.05-1.04-0.39-1.23-1.04
					C51.55,44.49,52.77,45.31,52.36,44.18z"/>
			</g>
			<g>
				<path fill-rule="evenodd" clip-rule="evenodd" fill="#D68B62" d="M95.62,41.31c-0.11-0.01,0.87-3.58,1.45-5
					c0.63-1.54,1.27-1.88,1.66-1.85c0.74,0.04,1,3.47,1,3.47s-0.54-3.68-2.2-0.73C97.08,38.03,95.75,41.32,95.62,41.31z"/>
				<path fill-rule="evenodd" clip-rule="evenodd" fill="#D68B62" d="M98.22,37.83c-0.05-0.24-0.3-1.65-0.5-1.66
					c-0.24-0.01-0.24,1.01-0.19,1.17c0.16,0.5,0.32,1,0.43,1.54c0.11,0.56,0.12,1.1,0.11,1.68c-0.01,0.51-0.12,1.11-0.22,1.6
					c0.39-0.38,0.49-1.9,0.5-2.47C98.37,38.71,98.33,38.39,98.22,37.83z"/>
				<path fill-rule="evenodd" clip-rule="evenodd" fill="#E8A073" d="M95.26,44.18c0.03-0.09,0.56-1.27,0.6-1.36
					c0.38-0.87-0.43,0.25-0.51,0.35c-0.4,0.56-0.69,0.87-0.97,1.35c-0.24,0.41-0.12,1.04,0.43,1.1c0.46,0.05,1.04-0.39,1.24-1.04
					C96.08,44.49,94.85,45.31,95.26,44.18z"/>
			</g>
		</g>
	</g>
	<g>
		<g>
			<path fill="#BED63A" d="M118.06,124.46h0.81c0,0,1.31-1.52,2.78-3.92c1.48-2.37,10.02-16.91,10.02-16.91s-0.66-7.48-4.34-11.57
				c-3.66-4.07-15.5-18.08-19.38-20.15c-3.9-2.03-8.66-3.24-8.66-3.24l-0.77,0.43c0,0-3.67,16.57-4.33,20.79
				c-0.68,4.22-5.09,7.78-11.11,9.05c-6.02,1.26-11.02,1.61-14.74,0.78c-3.74-0.83-10.9-4.98-13.01-6.96
				c-2.12-1.95-8.53-20.37-8.53-20.37l-0.03-0.54c-0.05,0.01-0.12,0.01-0.17,0.03c-5.87,1.71-16.75,10.95-21.12,16.43
				c-4.35,5.5-6.42,25.81-4.71,29.31c1.71,3.49,9.05,10.2,9.05,10.2l1.3-0.56c0,0,2.72,28.12,5.6,35.75
				c2.61,6.93,10.7,20.19,8.96,29.01c-0.62,3.14,63.04,2.47,63.06,0.55c0.02-3.69,5.38-32.63,6.57-41.98
				C116.5,141.22,118.06,124.46,118.06,124.46z"/>
		</g>
		<path fill="#EC1C24" d="M44.11,183.37c0,0,8.25,4.27,14.26,5.76c6.01,1.5,12.18,2.68,23.57,2.74c11.36,0.07,22.11-1.84,25.06-3.61
			c2.92-1.78,2.93-2.42,2.93-2.42s-0.53,8.78,0.92,10.9c1.46,2.13,2.24,4.39,2.24,4.39s-1.95,2.27-5.53,3.23
			c-3.58,0.96-17.09,1.69-23.42,1.65c-6.33-0.03-25.68-0.62-32.83-2.29c-7.14-1.67-9.56-3.62-9.56-3.62s2.79-4.7,2.8-6.16
			C44.54,192.48,44.11,183.37,44.11,183.37z"/>
	</g>
</g>
</svg>
