<?xml version="1.0" encoding="utf-8"?>
<!-- Generator: Adobe Illustrator 23.0.6, SVG Export Plug-In . SVG Version: 6.00 Build 0)  -->
<svg version="1.1" id="Capa_1" xmlns="http://www.w3.org/2000/svg" xmlns:xlink="http://www.w3.org/1999/xlink" x="0px" y="0px"
	 viewBox="0 0 152.79 186.83" enable-background="new 0 0 152.79 186.83" xml:space="preserve">
<g>
	<path fill="#F0AC80" d="M149.69,213.2c-0.45-14.13-2.35-52.05-2.75-57.09c-0.44-5.43-4.12-19.67-5.66-33.29
		c-1.63-14.29-6.99-25.02-11.01-31.72c-0.29-0.48-0.64-0.86-1.04-1.18c-0.03-0.04-0.05-0.07-0.08-0.11
		c-0.11-0.09-1.12-1.42-1.23-1.51c-3.75-3.13-11.72-7.47-15.71-9.1c-2.82-1.47-9.24-5.15-11.6-6.37c-3.66-1.89-8.69-4.13-9.19-4.97
		c-1.34-2.27-1.83-6.79-1.92-10.79c1.55-2.2,2.65-4.27,2.82-5.58c0.16-1.26,0.47-5.82,0.47-5.82s0.47,0.56,1.19,0.53
		c1.91-0.07,2.37-1.97,3.01-3.28c0.97-1.97,2.28-5.01,2.36-8.19c0.06-2.29,0.09-5.97-4.11-2.43c0,0-0.18-10.96-0.3-15.39
		c-0.12-4.79-0.37-12.17-14.06-16.37c-0.77-0.24-4.16-0.8-7.46-0.8c-3.08,0.01-6.08,0.58-6.8,0.8c-3.63,1.11-6.3,2.79-8.98,5.17
		c-3.65,3.25-5.11,6.41-5.23,11.2c-0.11,4.44-0.21,15.39-0.21,15.39c-4.2-3.54-4.24,0.77-4.03,3.1c0.28,3.17,1.24,5.54,2.21,7.51
		c0.64,1.31,1.33,3.21,3.24,3.28c0.72,0.03,1.19-0.53,1.19-0.53s0.31,4.56,0.48,5.82c0.15,1.14,1.02,2.91,2.29,4.84
		c0.09,4.21-0.21,9.22-1.79,11.53c-0.38,0.55-5.81,3.05-9.44,4.97c-0.37,0.2-0.83,0.45-1.34,0.74c0,0-0.01-0.01-0.01-0.01
		s-8.06,4.24-11.98,5.7c-2.97,1.11-8.45,4.18-12.55,7.06c-0.89,0.47-1.81,1.14-2.76,2.09c-0.03,0.02-0.07,0.06-0.01,0.01
		c-0.19,0.18-0.33,0.35-0.44,0.51c-5.75,6.5-7.84,23.64-7.63,31.27c0.23,7.84-3.04,34.17-3.69,45.04
		c-0.65,10.89-2.83,40.27-2.83,40.27l19.72,2.12c0,0,5.93-42.99,7.27-49.14c1.52-6.96,0.71-32.59,7.71-46.59s0,0,0,0
		c2.4,1.39,17.06,11.49,17,25c-0.07,14.4,47.71,11.92,49,4c1.14-7,4.46-27.72,4-31c2.58,3.65,10.26,18.56,11.08,21.16
		c1.09,3.48,3.05,19.15,3.48,30.04c0.44,10.88,2.62,27.2,2.62,27.2l4.13,25.25L149.69,213.2z"/>
	<g>
		<path fill="#FFFFFF" stroke="#B2B2B2" d="M38.61,111.94c0.46-1.38,5.48-24.86,5.45-32.79c-0.03-7.92-0.03-7.92-0.03-7.92
			l7.52-0.59c0,0-0.59,23.89,1.79,27.84c2.38,3.97,9.31,9.2,21,8.56c11.71-0.61,17.09-4.05,19.15-7.61
			c2.05-3.54,5.09-16.23,5.22-20.55c0.13-4.31,0.23-7.78,0.23-7.78l6.96,3.96c0,0,0.27,9.74,0.32,16.83
			c0.07,7.1,1.39,17.85,2.69,20.94c1.29,3.09,2.32,23.98,1.22,32.98c-1.12,9-0.82,35.85-0.16,45.88
			c0.68,10.03,0.93,23.81,0.93,23.81s-8.72,3.36-19.44,4.13c-10.73,0.79-23.11,0.68-33.05-1.29c-9.96-1.97-23.42-7.11-23.42-7.11
			s1.6-20.52,3.41-29.79c1.81-9.25,1.86-24.26,1.89-34.41C40.34,136.88,38.61,111.94,38.61,111.94z"/>
		<path fill="#EDEDED" d="M40.04,123.95c0,0,3.43,1.34,3.9,4.29c0.46,2.94,8.06,4.56,12.23,4.69c4.17,0.13,17.51,0.53,17.51,0.53
			s-11.37,3.26-13.58,3.19c-2.23-0.07-3.89-0.11-5.6,0.8c-1.71,0.93-2.39,1.04-4.89,0.96c-2.5-0.07-9.4,2.77-9.4,2.77
			S39.36,128.1,40.04,123.95z"/>
		<path fill="#EDEDED" d="M40.38,144.81c0,0-0.18,12.86-0.24,14.66c-0.05,1.81-0.47,12.79-0.9,15.83
			c-0.45,3.04-1.59,10.92-2.09,13.69c-0.5,2.77-1.19,11.44-1.6,15.94c-0.42,4.52-0.54,6.31-0.54,6.31l3.24,0.87
			c0,0-0.31-1.06-0.71-1.98c-0.39-0.92-0.9-2.18-0.54-2.71c0.36-0.55,1.15-1.5,1.36-1.5c0.21,0.01,0.3-0.89-0.1-1.39
			c-0.41-0.5-0.7-2.11-0.7-2.11l1.4-0.65c0,0-0.85-1.62-1.03-2.32c-0.19-0.7-0.4-2.86-0.13-2.73c0.27,0.16,6.15,5.9,6.69,6.4
			c0.54,0.5-5.17-8.08-5.17-8.08s10.65,8.67,12.46,10.59c1.82,1.93,5.09,3.84,2.56,0.57c-2.54-3.28-4.8-4.53-6.49-6.31
			c-1.67-1.8-4.44-4.58-4.98-5.17c-0.54-0.56-3.79-5.4-3.79-5.4l3.38,2.88l-1.71-3.44c0,0-0.37-3.64-0.1-3.63
			c0.28,0.01,3.58,1.22,3.58,1.22s-2.25-1.61-2.63-2.65c-0.39-1.06,0.25-1.46,1.07-1.01c0.81,0.44,2.44,2.1,2.15,0.42
			c-0.31-1.69-2.13-3.14-2.13-3.14s0.42-2.48,2.99-2.19c2.56,0.29,11.71,5.63,13.54,5.14c1.82-0.49-9.31-7.02-12.37-8.99
			c-3.07-1.97-3.93-3.6-3.93-3.6s1.34,1.43,3.08,1.55c1.74,0.12,0.76,0.3-1.38-2.54c-2.13-2.84,0.38-9.57,0.38-9.57
			s7.62,2.87,9.34,3c1.74,0.11-6.24-4.51-8.22-6.11c-1.97-1.57-2.89-3.06-2.21-2.83c0.69,0.21,8.3,1.21,17.04,2.04
			c8.74,0.82,12.88-0.3,12.88-0.3s-15.45-1.8-21.73-3.59c-6.27-1.78-9.31-4.94-9.31-4.94L40.38,144.81z"/>
		<path fill="#EDEDED" d="M110.34,125.46c0,0,0.67,12.26,0.21,16.07c-0.46,3.8-0.99,14.43-1.12,18.53
			c-0.13,4.08,0.41,18.42,0.34,20.87c-0.08,2.42,0.96,16.14,0.93,19.69c-0.05,3.54,1.22,14.43,0.58,14.68
			c-0.64,0.25-3.41-0.11-3.4-0.31c0.01-0.21,0.64-3.04,0.47-3.68c-0.19-0.62,0.07-2.5-5.69-2.74c-5.76-0.24-12.22-2.73-7.41-3.49
			c4.82-0.76,10.84-3.9,11.44-5.63c0.61-1.72-1.07,0.45-3.48,0.25c-2.44-0.22-0.04-1.05,1.44-3.72c1.47-2.65,2.96-7.98,3.08-9.85
			c0.12-1.88,0.13-4.02,0.13-4.02s-4.51,3.97-4.64,3.54c-0.11-0.42,0.17-0.69,2.23-2.08c2.05-1.41,1.66-2.39,1.38-2.33
			c-0.28,0.07-12.04,5.12-12.04,5.12s9.11-4.65,11.06-6.89c1.94-2.23,1.64-3.84,1.64-3.84s-6.76,5.35-7.62,5.75
			c-0.83,0.39,5.41-4.15,6.43-5.64c1.02-1.51,0.49-4.37,0.49-4.37l-10.48,3.78c0,0,4.95-2.63,7.35-4.15c2.42-1.52,4.52-4.3,4.52-4.3
			l-6.49,2.64c0,0,4.43-3.61,5.44-4.84c1.02-1.22,1.01-5.59,1.01-5.59s-12.36,6.02-18.41,6.39c-6.06,0.37-6.57-0.83-6.3-0.82
			c0.28,0.01,11.23-1.75,16.62-4.97c5.39-3.25,7.46-7.5,7.46-7.5s-7.01,4.51-8.19,4.47c-1.2-0.03,5.82-3.92,6.46-4.45
			c0.65-0.55,9.08-3.41-7.97-2.95c-17.03,0.45-24.78-1.18-24.78-1.18s-11.01-1.52-11.62-1.54c-0.63-0.02,19.81,1.94,27.89,1.21
			c8.09-0.74,15.81-2.93,15.81-2.93s-19.42-1.5-24.9-1.94c-5.47-0.46,10.43-2.27,13.57-2.79c3.15-0.53,4.87-2.21,8.17-5.25
			c3.29-3.02,3.63-5.03,4.64-6.32c1-1.28,3.77-3.01,3.77-3.01L110.34,125.46z"/>
		<path fill="#EDEDED" d="M38.74,113.96l-0.04,1.39c0,0,3.05,0.79,6.43-14.47c3.39-15.27,2.27-19.19,2.27-19.19
			s-1.59,15.38-4.18,22.61C40.63,111.51,38.74,113.96,38.74,113.96z"/>
		<path fill="#EDEDED" d="M102.85,93.05c0,0-4.08,6.63-0.11,15.16c3.97,8.53,6.38,9.72,6.38,9.72s-1.27-2.13-3.95-7.56
			c-2.69-5.44-3.34-9.08-3.31-10.19C101.9,99.07,102.85,93.05,102.85,93.05z"/>
		<path fill="#EDEDED" d="M100.79,81.25c0,0-0.38,12.29-3.34,18.1c-2.96,5.83-8.95,8.63-8.95,8.63s9.04-2.65,10.72-10.18
			C100.93,90.28,100.79,81.25,100.79,81.25z"/>
		<path fill="#EDEDED" d="M48.3,76.65c0,0,0.92,17.54,3.13,22.9c2.19,5.35,3.91,8.19,11.03,9.58c7.11,1.4,16.79,1.28,16.79,1.28
			s-7.22-0.35-14.66-2.67c-7.43-2.31-11.18-5-12.25-8.59C51.27,95.58,48.3,76.65,48.3,76.65z"/>
	</g>
</g>
</svg>
