<?xml version="1.0" encoding="utf-8"?>
<!-- Generator: Adobe Illustrator 23.0.6, SVG Export Plug-In . SVG Version: 6.00 Build 0)  -->
<svg version="1.1" id="Capa_1" xmlns="http://www.w3.org/2000/svg" xmlns:xlink="http://www.w3.org/1999/xlink" x="0px" y="0px"
	 viewBox="0 0 152.79 186.83" enable-background="new 0 0 152.79 186.83" xml:space="preserve">
<g>
	<g>
		<path fill="#F0AC80" d="M100.67,76.12c-3.81-1.97-9.05-4.3-9.57-5.18c-2.22-3.76-2.21-13.48-1.8-17.48h-1.01H56.54h-1.01
			c0.4,4,0.92,13.87-1.54,17.48c-0.39,0.58-6.05,3.17-9.83,5.18c-3.14,1.66-11.71,6.88-12.87,7.31c0.3,0.39,4.09,11.7,8.1,17.76
			c1.84,2.78,2.7,5.47,5.05,7.78c2.43,2.38,5.21,4.34,8.26,5.68c3.67,1.61,7.6,2.4,11.55,2.64c2.7,0.17,5.44,0.14,8.16-0.08
			c2.72,0.23,5.46,0.25,8.16,0.08c3.95-0.25,7.88-1.03,11.55-2.64c3.05-1.34,5.83-3.3,8.26-5.68c2.36-2.31,3.12-5,4.97-7.78
			c4.01-6.06,8.39-17.43,8.69-17.82C112.87,82.98,103.66,77.67,100.67,76.12z"/>
		<path fill="#F0AC80" d="M95.08,33.91c0,0-0.19-11.41-0.31-16.03c-0.13-4.99-0.38-12.68-14.64-17.05C79.33,0.58,75.8-0.01,72.37,0
			c-3.21,0.01-6.33,0.6-7.08,0.83c-3.78,1.16-6.57,2.9-9.35,5.38c-3.8,3.38-5.33,6.68-5.45,11.67c-0.12,4.62-0.23,16.03-0.23,16.03
			c-4.37-3.68-4.41,0.8-4.2,3.23c0.29,3.3,1.29,5.77,2.3,7.83c0.67,1.37,1.38,3.34,3.37,3.42c0.75,0.03,1.24-0.55,1.24-0.55
			s0.32,4.75,0.5,6.06c0.51,3.9,9.13,14.86,13.98,15.83c1.47,0.29,9.06,0.3,10.43,0.04c4.79-0.93,13.64-11.86,14.16-15.87
			c0.17-1.31,0.49-6.06,0.49-6.06s0.49,0.58,1.24,0.55c1.99-0.08,2.47-2.05,3.14-3.42c1.01-2.05,2.38-5.21,2.46-8.53
			C99.42,34.06,99.46,30.23,95.08,33.91z"/>
		<g>
			<g>
				<path fill-rule="evenodd" clip-rule="evenodd" fill="#D68B62" d="M50.91,41.31c0.11-0.01-0.87-3.58-1.45-5
					c-0.63-1.54-1.27-1.87-1.66-1.85c-0.74,0.04-1,3.47-1,3.47s0.54-3.68,2.2-0.72C49.45,38.03,50.78,41.32,50.91,41.31z"/>
				<path fill-rule="evenodd" clip-rule="evenodd" fill="#D68B62" d="M48.31,37.83c0.05-0.24,0.3-1.65,0.5-1.66
					c0.24-0.01,0.24,1.01,0.19,1.17c-0.16,0.5-0.32,1-0.43,1.54c-0.11,0.56-0.12,1.1-0.11,1.68c0.01,0.51,0.12,1.11,0.22,1.6
					c-0.39-0.38-0.49-1.9-0.5-2.47C48.16,38.71,48.2,38.39,48.31,37.83z"/>
				<path fill-rule="evenodd" clip-rule="evenodd" fill="#E8A073" d="M51.27,44.18c-0.03-0.09-0.56-1.27-0.6-1.36
					c-0.38-0.87,0.43,0.25,0.51,0.35c0.4,0.56,0.69,0.87,0.97,1.35c0.24,0.41,0.12,1.04-0.43,1.1c-0.46,0.05-1.04-0.39-1.23-1.04
					C50.46,44.49,51.68,45.31,51.27,44.18z"/>
			</g>
			<g>
				<path fill-rule="evenodd" clip-rule="evenodd" fill="#D68B62" d="M94.53,41.31c-0.11-0.01,0.87-3.58,1.45-5
					c0.63-1.54,1.27-1.88,1.66-1.85c0.74,0.04,1,3.47,1,3.47s-0.54-3.68-2.2-0.73C95.99,38.03,94.66,41.32,94.53,41.31z"/>
				<path fill-rule="evenodd" clip-rule="evenodd" fill="#D68B62" d="M97.13,37.83c-0.05-0.24-0.3-1.65-0.5-1.66
					c-0.24-0.01-0.24,1.01-0.19,1.17c0.16,0.5,0.32,1,0.43,1.54c0.11,0.56,0.12,1.1,0.11,1.68c-0.01,0.51-0.12,1.11-0.22,1.6
					c0.39-0.38,0.49-1.9,0.5-2.47C97.28,38.71,97.24,38.39,97.13,37.83z"/>
				<path fill-rule="evenodd" clip-rule="evenodd" fill="#E8A073" d="M94.17,44.18c0.03-0.09,0.56-1.27,0.6-1.36
					c0.38-0.87-0.43,0.25-0.51,0.35c-0.4,0.56-0.69,0.87-0.97,1.35c-0.24,0.41-0.12,1.04,0.43,1.1c0.46,0.05,1.04-0.39,1.24-1.04
					C94.98,44.49,93.76,45.31,94.17,44.18z"/>
			</g>
		</g>
	</g>
	<g>
		<path fill="#F0AC80" d="M34.61,78.8c-2.31,0.86-6.41,7.06-7.15,7.8c-0.02,0.02,0.07-0.14,0,0c-2.78,5.95-0.89-8.13-8.89,23.87
			c-3,12-4.6,26.11-5.1,34.56c-0.49,8.46-1.78,22.07-1.93,31.88c-0.07,4.25-0.75,11.59-0.75,11.59l14.82,0.93
			c0,0,0.76-4.14,0.98-7.98c0.33-5.75,3.39-35.45,4.12-40.93c1.12-8.51,2.02-26.27,2.02-26.27S36.11,78.23,34.61,78.8z"/>
	</g>
	<g>
		<path fill="#F0AC80" d="M118.18,81.8c2.31,0.86,6.41,7.06,7.15,7.8c0.02,0.02-0.07-0.14,0,0c2.78,5.95,0.89-8.13,8.89,23.87
			c3,12,4.6,26.11,5.1,34.56c0.49,8.46,1.78,22.07,1.93,31.88c0.07,4.25,0.75,11.59,0.75,11.59l-14.82,0.93c0,0-0.76-4.14-0.98-7.98
			c-0.33-5.75-3.39-35.45-4.12-40.93c-1.12-8.51-2.02-26.27-2.02-26.27S116.68,81.23,118.18,81.8z"/>
	</g>
	<g>
		<path fill="#1A1A1A" d="M127.47,88.78c-3.75-3.08-15.91-13.7-19.89-15.25c-3.97-1.54-8.83-2.42-8.83-2.42l-0.77,0.44
			c0,0-3.65,16.9-4.31,21.2c-0.66,4.31-5.13,7.96-11.26,9.29c-6.13,1.32-11.21,1.7-15.02,0.87c-3.81-0.83-11.15-5.02-13.31-7.01
			c-2.15-1.99-8.78-20.71-8.78-20.71l-0.08-1.32c0,0,0.61-0.27-0.14-0.11c-5.96,1.32-17.01,8.39-21.42,12.59
			c-4.41,4.21-6.41,19.66-4.64,22.31c1.76,2.65,9.28,7.73,9.28,7.73l1.32-0.44c0,0,4.75,21.04,5.91,27.17
			c1.15,6.13,7.29,17.39,9.28,22.04c1.99,4.64-1,10.11-3.15,16.07c-1.94,5.37-4.2,19.89-5.32,23.97c25.73,10.17,58.54,12.79,82.05,0
			c-0.9-3.18-3.26-16.01-4-17.84c-2.49-6.13-5.31-19.23-5.31-22.04c0-2.81,5.31-24.85,6.47-31.97c1.16-7.12,2.66-19.89,2.66-19.89
			h0.82c0,0,1.32-1.16,2.81-2.99c1.49-1.82,10.11-12.92,10.11-12.92S131.22,91.87,127.47,88.78z"/>
		<path fill="#FFFFFF" d="M52.42,101.04c0,0,2.65,20.54,4.14,26.83c1.49,6.31,7.62,24.69,14.41,26.85c6.79,2.14,11.27,1.65,12.93,0
			c1.66-1.67,3.97-5.97,4.8-11.44c0.83-5.47,0.66-10.93,2.49-21.86c1.82-10.95,2.15-22.04,2.15-23.71c0-1.65,0.33-4.97,0.33-4.97
			s-2.31,4.75-3.97,5.85c-1.66,1.1-3.86,2.21-6.41,2.54c-2.54,0.33-5.63,1.65-11.15,1c-5.52-0.67-8.95-2.11-11.16-3.32
			c-2.21-1.21-9.28-6.74-9.28-6.74L52.42,101.04z"/>
		<path fill="#2E2E2E" d="M48.11,108.66c0,0-0.3,19.41,0.15,24.3c0.47,4.89-0.31,9.38,3.55,15.21c3.87,5.85,11.93,12.9,15.32,13.73
			c3.41,0.81,1.55,2.16,9.75,2.44c8.2,0.27,12.06-2.04,16.71-7.61c4.64-5.56,7.12-9.36,8.82-13.84c1.7-4.49,1.86-10.05,1.86-10.05
			s-6.66,15.75-10.06,20.49c-3.4,4.76-7.43,7.21-9.12,7.61c-1.7,0.41,6.34-6.53,9.12-11.13c2.78-4.61,3.26-7.07,3.26-7.07
			s-3.87,6.39-6.35,8.97c-2.47,2.58-4.02,4.2-4.02,4.2s3.09-5.69,4.96-9.77c1.85-4.08,2.78-10.59,2.93-12.23
			c0.16-1.62,0.16-1.62,0.16-1.62s-0.78,4.21-2.32,6.5c-1.55,2.31-2.32,8.69-3.41,10.46c-1.09,1.76-4.18,10.73-5.57,10.86
			c-1.39,0.13-2.93,0.41-4.49,0.41c-1.54,0-7.12-1.5-10.52-4.07c-3.4-2.59-7.27-8.84-7.42-9.23c-0.16-0.41,0.47,3.53,1.24,4.61
			c0.77,1.09,3.24,3.94,3.24,3.94s-4.48-2.99-5.72-7.19c-1.24-4.21-4.8-11-4.8-11s0.62,8.28,2.01,10.32
			c1.39,2.04-5.11-7.19-5.26-11.13c-0.16-3.93-0.16-13.85-0.16-13.85s-1.24,5.57-1.4,8.01c-0.15,2.44-0.62-6.65-0.62-9.23
			C49.96,119.11,48.11,108.66,48.11,108.66z"/>
		<path fill="#363636" d="M43.14,164.33c0,0,8.45,4.3,14.58,5.79c6.13,1.49,12.42,2.65,24.02,2.65c11.6,0,22.54-1.99,25.52-3.81
			c2.98-1.82,2.98-2.49,2.98-2.49s-0.5,8.96,0.98,11.11c1.5,2.16,2.32,4.47,2.32,4.47s-1.99,2.32-5.63,3.32
			c-3.64,0.98-17.4,1.81-23.85,1.81c-6.46,0-26.18-0.49-33.47-2.15c-7.29-1.66-9.77-3.65-9.77-3.65s2.81-4.8,2.81-6.29
			C43.64,173.59,43.14,164.33,43.14,164.33z"/>
	</g>
</g>
</svg>
