<?xml version="1.0" encoding="utf-8"?>
<!-- Generator: Adobe Illustrator 23.0.6, SVG Export Plug-In . SVG Version: 6.00 Build 0)  -->
<svg version="1.1" id="Capa_1" xmlns="http://www.w3.org/2000/svg" xmlns:xlink="http://www.w3.org/1999/xlink" x="0px" y="0px"
	 viewBox="0 0 152.79 186.83" style="enable-background:new 0 0 152.79 186.83;" xml:space="preserve">
<style type="text/css">
	.st0{fill:#F0AC80;}
	.st1{fill-rule:evenodd;clip-rule:evenodd;fill:#D68B62;}
	.st2{fill-rule:evenodd;clip-rule:evenodd;fill:#E8A073;}
	.st3{fill:#BFE9FF;}
	.st4{fill:#A8E1FF;}
	.st5{fill:#A3DEFF;}
	.st6{fill:#B0E3FF;}
	.st7{fill:#FF5955;}
	.st8{fill:#FF0000;}
	.st9{fill:#3A8A00;}
	.st10{fill:#417400;}
	.st11{fill:#4D4D4D;}
	.st12{fill:#333333;}
	.st13{fill:#1B1464;}
	.st14{fill:#271D91;}
	.st15{fill:#B2B2B2;stroke:#B2B2B2;stroke-width:0.25;}
	.st16{fill:#8C8C8C;stroke:#5A3D1C;stroke-width:0.25;}
	.st17{fill:#A6A6A6;}
	.st18{fill:#FFFFFF;stroke:#B2B2B2;stroke-width:0.25;}
	.st19{fill:#EBEBEB;}
	.st20{stroke:#000000;stroke-width:0.25;}
	.st21{fill:#8C8C8C;stroke:#003642;stroke-width:0.25;}
	.st22{fill:#7A7A7A;}
	.st23{fill:#666666;stroke:#666666;stroke-width:0.25;}
	.st24{fill:#141414;}
	.st25{fill:#FFFFFF;stroke:#B2B2B2;}
	.st26{fill:#EDEDED;}
	.st27{fill:#694721;}
	.st28{fill:#5A3D1C;}
	.st29{fill:#006631;}
	.st30{fill:#00592B;}
	.st31{fill:#035B73;stroke:#003642;stroke-width:0.25;}
	.st32{fill:#02495C;stroke:#003642;stroke-width:0.25;}
	.st33{fill:#02495C;}
	.st34{fill:#820000;stroke:#730000;}
	.st35{fill:#5C0000;stroke:#5A3D1C;stroke-width:0.25;}
	.st36{fill:#780000;}
	.st37{fill:#006B33;stroke:#003642;stroke-width:0.25;}
	.st38{fill:#00592B;stroke:#003642;stroke-width:0.25;}
	.st39{fill:#DB8C3D;stroke:#003642;stroke-width:0.25;}
	.st40{fill:#C2803D;}
	.st41{fill:#DB6D00;stroke:#003642;stroke-width:0.25;}
	.st42{fill:#3F3F3F;stroke:#3F3F3F;stroke-width:0.25;}
	.st43{stroke:#3F3F3F;stroke-width:0.25;}
	.st44{fill:#262626;}
	.st45{fill:#5A3D1C;stroke:#003642;stroke-width:0.25;}
	.st46{fill:#52361A;}
	.st47{fill:#422C15;stroke:#003642;stroke-width:0.25;}
	.st48{fill:#FFFFFF;stroke:#E8E8E8;}
	.st49{fill:#E3E3E3;}
	.st50{fill:#B2B2B2;}
	.st51{fill:#FFBF00;}
	.st52{fill:#F5B700;}
	.st53{fill:#EBAF00;stroke:#D19D00;stroke-width:0.25;}
	.st54{fill:#D010B1;}
	.st55{fill:#A60D8C;}
	.st56{fill:#00A33D;}
	.st57{fill:#008033;}
	.st58{fill:#00D4FF;}
	.st59{fill:#00ABFF;}
	.st60{fill:#0A0A0A;stroke:#000000;}
	.st61{fill:#666666;stroke:#000000;stroke-width:0.25;}
	.st62{stroke:#000000;}
	.st63{fill:#00B800;}
	.st64{fill:#009C00;}
	.st65{fill:#3F3F3F;}
	.st66{fill:#73A334;stroke:#8CC63F;stroke-width:0.1;}
	.st67{fill:#8CC63F;stroke:#8CC63F;stroke-width:0.1;}
	.st68{fill:#545454;}
	.st69{fill:#7558A4;}
	.st70{fill:#7536D1;}
	.st71{fill:#E2BB95;stroke:#D5AF8C;}
	.st72{fill:#D5AF8C;}
	.st73{fill:#E2BB95;stroke:#D5AF8C;stroke-width:0.5;}
	.st74{fill:#9E2231;}
	.st75{fill:#B72837;}
	.st76{fill:#FFE085;}
	.st77{fill:#EBCE7A;}
	.st78{fill:url(#SVGID_1_);}
	.st79{fill:url(#SVGID_2_);}
	.st80{fill:url(#SVGID_3_);}
	.st81{fill:#D00204;}
	.st82{fill:#D10507;}
	.st83{fill:#D3090B;}
	.st84{fill:#D40C0E;}
	.st85{fill:#D51012;}
	.st86{fill:#D71315;}
	.st87{fill:#D81718;}
	.st88{fill:#D91A1C;}
	.st89{fill:#DB1E1F;}
	.st90{fill:#DC2122;}
	.st91{fill:#DD2526;}
	.st92{fill:#DF2829;}
	.st93{fill:#E02C2D;}
	.st94{fill:#E22F30;}
	.st95{fill:#E33333;}
	.st96{fill:#E43637;}
	.st97{fill:#E63A3A;}
	.st98{fill:#E73D3E;}
	.st99{fill:#E84141;}
	.st100{fill:#EA4444;}
	.st101{fill:#EB4848;}
	.st102{fill:#EC4B4B;}
	.st103{fill:#EE4F4E;}
	.st104{fill:#EF5252;}
	.st105{fill:#F05655;}
	.st106{fill:#F25A59;}
	.st107{fill:#F35D5C;}
	.st108{fill:#047A04;}
	.st109{fill:#57B328;}
	.st110{fill:#507F29;}
	.st111{fill:#DDBB06;}
	.st112{fill:#A80000;}
	.st113{fill:#9E0000;}
	.st114{fill:#8F0000;stroke:#610000;stroke-width:0.25;}
	.st115{fill:#5A3D1C;stroke:#805426;}
	.st116{fill:#63421F;}
	.st117{fill:#5A3D1C;stroke:#6B4620;}
	.st118{fill:url(#SVGID_4_);}
	.st119{fill:#171717;stroke:#000000;}
	.st120{fill:#212121;}
	.st121{fill:url(#SVGID_5_);}
	.st122{fill:#3F3F3F;stroke:#3F3F3F;}
	.st123{fill:#8C8C8C;stroke:#3F3F3F;}
	.st124{fill:#808080;}
	.st125{fill:url(#SVGID_6_);}
	.st126{fill:none;}
	.st127{fill:#D4D4D4;}
	.st128{fill:#D4D4D4;stroke:#B8B8B8;stroke-width:0.5;}
	.st129{fill:#D4D4D4;stroke:#B8B8B8;stroke-width:0.2;}
	.st130{fill:#C7C7C7;}
	.st131{fill:#DBF8FF;stroke:#7DBDCC;stroke-width:0.25;}
	.st132{fill:#C2F3FF;}
	.st133{fill:#F2F2F2;}
	.st134{fill:url(#SVGID_7_);stroke:#000000;}
	.st135{fill:#42210B;stroke:#000000;}
	.st136{fill:#C69C6D;stroke:#000000;}
	.st137{fill:#93278F;stroke:#000000;}
	.st138{fill:#589F3E;}
	.st139{fill:#4D8F39;}
	.st140{fill:#963528;}
	.st141{fill:#AC3A2D;}
	.st142{fill:#211915;}
	.st143{fill:#444242;}
	.st144{fill:#1A1A1A;}
	.st145{fill:#FFFFFF;}
	.st146{fill:#2E2E2E;}
	.st147{fill:#363636;}
	.st148{fill:#666666;}
	.st149{fill:#C69C6D;}
	.st150{fill:#B38D62;}
	.st151{fill:#A67C52;}
	.st152{fill:#8C6239;}
	.st153{fill:#9E10D2;}
	.st154{fill:#8210D2;}
	.st155{fill:#6B6B6B;}
	.st156{fill:#008C08;}
	.st157{fill:#00A308;}
	.st158{fill:#EC2024;}
	.st159{fill:#E31E26;}
	.st160{fill:#BED63A;}
	.st161{fill:#EC1C24;}
	.st162{fill:#00ADEE;}
	.st163{fill:#2E3191;}
</style>
<g>
	<g>
		<path class="st0" d="M101.13,87.46c-3.81-1.97-8.48-16.13-9-17c-2.22-3.76,0.32-13,0.72-17h-1.01H60.1h-1.01
			c0.4,4,3.51,13.39,1.05,17c-0.39,0.58-4.21,10.99-8,13c-3.14,1.66-6.84,4.56-8,5c0.3,0.39-5.2,6.68-1.19,12.73
			c1.84,2.78,2.7,5.47,5.05,7.78c2.43,2.38,5.21,4.34,8.26,5.68c3.67,1.61,7.6,2.4,11.55,2.64c2.7,0.17,5.44,0.14,8.16-0.08
			c2.72,0.23,5.46,0.25,8.16,0.08c3.95-0.25,7.88-1.03,11.55-2.64c3.05-1.34,5.83-3.3,8.26-5.68c2.36-2.31,3.12-5,4.97-7.78
			c4.01-6.06-22.08-0.34-21.78-0.73C85.95,100.07,104.12,89.01,101.13,87.46z"/>
		<path class="st0" d="M98.64,33.91c0,0-0.19-11.41-0.31-16.03c-0.13-4.99-0.38-12.68-14.64-17.05c-0.8-0.25-4.33-0.84-7.76-0.83
			c-3.21,0.01-6.33,0.6-7.08,0.83c-3.78,1.16-6.57,2.9-9.35,5.38c-3.8,3.38-5.33,6.68-5.45,11.67c-0.12,4.62-0.23,16.03-0.23,16.03
			c-4.37-3.68-4.41,0.8-4.2,3.23c0.29,3.3,1.29,5.77,2.3,7.83c0.67,1.37,1.38,3.34,3.37,3.42c0.75,0.03,1.24-0.55,1.24-0.55
			s0.32,4.75,0.49,6.06c0.51,3.9,9.13,14.86,13.98,15.83c1.47,0.29,9.06,0.3,10.43,0.04c4.79-0.93,13.64-11.86,14.16-15.87
			c0.17-1.31,0.49-6.06,0.49-6.06s0.49,0.58,1.24,0.55c1.99-0.08,2.47-2.05,3.14-3.42c1.01-2.05,2.38-5.21,2.46-8.53
			C102.98,34.06,103.02,30.23,98.64,33.91z"/>
		<g>
			<g>
				<path class="st1" d="M54.47,41.31c0.11-0.01-0.87-3.58-1.45-5c-0.63-1.54-1.27-1.87-1.66-1.85c-0.74,0.04-1,3.47-1,3.47
					s0.54-3.68,2.2-0.72C53.01,38.03,54.34,41.32,54.47,41.31z"/>
				<path class="st1" d="M51.86,37.83c0.05-0.24,0.3-1.65,0.5-1.66c0.24-0.01,0.24,1.01,0.19,1.17c-0.16,0.5-0.32,1-0.43,1.54
					c-0.11,0.56-0.12,1.1-0.11,1.68c0.01,0.51,0.12,1.11,0.22,1.6c-0.39-0.38-0.49-1.9-0.5-2.47
					C51.72,38.71,51.76,38.39,51.86,37.83z"/>
				<path class="st2" d="M54.83,44.18c-0.03-0.09-0.56-1.27-0.6-1.36c-0.38-0.87,0.43,0.25,0.51,0.35c0.4,0.56,0.69,0.87,0.97,1.35
					c0.24,0.41,0.12,1.04-0.43,1.1c-0.46,0.05-1.04-0.39-1.23-1.04C54.01,44.49,55.24,45.31,54.83,44.18z"/>
			</g>
			<g>
				<path class="st1" d="M98.09,41.31c-0.11-0.01,0.87-3.58,1.45-5c0.63-1.54,1.27-1.88,1.66-1.85c0.74,0.04,1,3.47,1,3.47
					s-0.54-3.68-2.2-0.73C99.55,38.03,98.22,41.32,98.09,41.31z"/>
				<path class="st1" d="M100.69,37.83c-0.05-0.24-0.3-1.65-0.5-1.66c-0.24-0.01-0.24,1.01-0.19,1.17c0.16,0.5,0.32,1,0.43,1.54
					c0.11,0.56,0.12,1.1,0.11,1.68c-0.01,0.51-0.12,1.11-0.22,1.6c0.39-0.38,0.49-1.9,0.5-2.47
					C100.84,38.71,100.79,38.39,100.69,37.83z"/>
				<path class="st2" d="M97.73,44.18c0.03-0.09,0.56-1.27,0.6-1.36c0.38-0.87-0.43,0.25-0.51,0.35c-0.4,0.56-0.69,0.87-0.97,1.35
					c-0.24,0.41-0.12,1.04,0.43,1.1c0.46,0.05,1.04-0.39,1.24-1.04C98.54,44.49,97.32,45.31,97.73,44.18z"/>
			</g>
		</g>
	</g>
	<g>
		<path class="st13" d="M39.14,206.37c0,0,8.57,0.6,14.16,1.78c5.59,1.19,10.35,2.02,15.47,2.02c5.12,0,24.04-1.19,28.8-1.31
			c4.76-0.12,9.28-1.19,13.81-3.45c4.51-2.26,5.23-12.26,5.59-17.02c0.36-4.76-0.47-28.32-1.3-34.39
			c-0.83-6.07,0.11-27.85,0.11-27.85s2.98,4.52,3.69,6.78c0.72,2.26,6.43,28.92,8.21,31.66c1.79,2.73,0.6,3.45,0.48,6.07
			c-0.12,2.61-0.83,9.16-1.19,11.77c-0.36,2.62,1.19,14.52,1.43,17.02c0.24,2.5,6.54,4.64,8.81,4.64c2.26,0,6.42,0.24,6.42,0.24
			s2.98-1.43,4.16-4.65c1.19-3.2,0-8.8-0.35-9.28c-0.36-0.48,0.83-7.98,1.19-15.95c0.36-7.97-2.02-24.16-4.52-36.3
			c-2.5-12.13-7.98-36.29-12.14-42.84c-4.17-6.54-13.57-11.31-24.52-14.4c-10.94-3.09-19.51-0.36-26.41,1.31
			c-6.9,1.67-12.5,1.78-17.14,0.48c-4.64-1.31-14.64-2.38-14.64-2.38S46.4,81.3,38.19,84.4c-8.21,3.1-15.95,13.09-20.35,22.73
			c-4.4,9.64-7.26,25.11-8.8,33.68c-1.55,8.58-5.24,43.32-4.88,49.03c0.36,5.71,3.57,8.92,2.62,10.23c-0.95,1.31-0.12,2.5,1.07,3.57
			c1.19,1.07,3.45,0.95,6.66,0.95c3.21,0,7.73-1.43,7.73-1.43s2.26-2.38,2.98-5.48c0.71-3.09,3.57-13.21,3.21-20.59
			c-0.36-7.37,1.55-22.84,3.33-27.37c1.79-4.52,0.59-6.18,1.67-10.47c1.07-4.29,4.64-10.36,4.64-10.36s0,2.98,0,7.27
			c0,4.28-1.19,20.71-1.19,25.46c0,4.76,0.12,13.8-0.12,17.25c-0.24,3.46-1.19,11.31-1.42,15.71c-0.24,4.4,2.74,6.9,2.74,11.18
			L39.14,206.37z"/>
		<path class="st13" d="M70.2,85.63c-0.83-0.15-10.11,0.15-15.23-1.76c-5.12-1.9-5-0.66-6.78-2.2c-1.79-1.53-0.59-2.27,0.24-2.71
			c0.83-0.43-0.6-3.94,0.95-4.46c1.55-0.51,9.76-1.39,16.19-1.46c6.42-0.07,15.59-0.58,24.04,0.07c8.45,0.66,11.42,0.88,12.73,2.63
			c1.31,1.76,2.02,6.22,1.43,6.37c-0.6,0.15-7.5,1.02-12.14,1.39c-4.64,0.36-12.73,1.97-14.16,2.12
			C76.04,85.78,70.2,85.63,70.2,85.63z"/>
		<path class="st14" d="M66.87,80.71c0,0,0.6,0.24,2.14,0.6c1.55,0.36-1.31,3.81-1.55,7.62c-0.24,3.8-0.83,13.2-0.83,13.2
			l-1.19,0.12c0,0,0.36-11.55,0.59-13.57c0.24-2.02,0.6-6.42,0.6-6.42s-1.67-1.19-6.78-1.9c-5.12-0.72-8.8-0.95-8.8-0.95
			L66.87,80.71z"/>
		<path class="st14" d="M103.52,78.93c0,0-1.67-2.14-8.33-0.48c-6.66,1.67-8.21,3.09-8.21,3.09l-2.74-0.59l0.83,19.16l-0.12,1.31
			h1.67l-0.72-18.8c0,0,0.83-0.47,1.66-0.59c0.83-0.12,5.95-3.1,8.21-3.1C98.05,78.93,103.52,78.93,103.52,78.93z"/>
		<path class="st14" d="M54.5,162.46l44.26,0.48c0,0,4.28,17.37,7.14,21.42c2.86,4.04-0.24,7.37-4.53,7.37
			c-4.28,0-53.78-0.47-55.45-2.38c-1.66-1.9,0.95-5.95,4.05-13.09C53.06,169.13,54.5,162.46,54.5,162.46z"/>
		<path class="st14" d="M27.13,95.35c0,0,6.67,10.71,6.9,14.51c0.24,3.81,3.81,12.15,3.81,12.15v3.32c0,0-4.28-14.28-6.19-18.56
			C29.75,102.49,27.13,95.35,27.13,95.35z"/>
		<path class="st14" d="M120.66,94.16c0,0-3.33,20.95-3.33,24.75c0,3.8-0.48,5.48-0.48,5.48s5.72-12.14,5.72-15.95
			c0-3.81,2.14-12.38,2.14-12.38s-1.8,2.53-2.38,5.72C115.66,138.66,119.94,98.2,120.66,94.16z"/>
		<path class="st14" d="M128.51,158.41c0,0,7.85-10.47,9.28-14.76c1.43-4.28,1.43-4.28,1.43-4.28s-5,13.09-7.14,16.18
			C129.94,158.66,128.51,158.41,128.51,158.41z"/>
	</g>
</g>
</svg>
