<?xml version="1.0" encoding="utf-8"?>
<!-- Generator: Adobe Illustrator 23.0.6, SVG Export Plug-In . SVG Version: 6.00 Build 0)  -->
<svg version="1.1" id="Capa_1" xmlns="http://www.w3.org/2000/svg" xmlns:xlink="http://www.w3.org/1999/xlink" x="0px" y="0px"
	 viewBox="0 0 152.79 186.83" style="enable-background:new 0 0 152.79 186.83;" xml:space="preserve">
<style type="text/css">
	.st0{fill:#F0AC80;}
	.st1{fill-rule:evenodd;clip-rule:evenodd;fill:#D68B62;}
	.st2{fill-rule:evenodd;clip-rule:evenodd;fill:#E8A073;}
	.st3{fill:#BFE9FF;}
	.st4{fill:#A8E1FF;}
	.st5{fill:#A3DEFF;}
	.st6{fill:#B0E3FF;}
	.st7{fill:#FF5955;}
	.st8{fill:#FF0000;}
	.st9{fill:#3A8A00;}
	.st10{fill:#417400;}
	.st11{fill:#4D4D4D;}
	.st12{fill:#333333;}
	.st13{fill:#1B1464;}
	.st14{fill:#271D91;}
	.st15{fill:#B2B2B2;stroke:#B2B2B2;stroke-width:0.25;}
	.st16{fill:#8C8C8C;stroke:#5A3D1C;stroke-width:0.25;}
	.st17{fill:#A6A6A6;}
	.st18{fill:#FFFFFF;stroke:#B2B2B2;stroke-width:0.25;}
	.st19{fill:#EBEBEB;}
	.st20{stroke:#000000;stroke-width:0.25;}
	.st21{fill:#8C8C8C;stroke:#003642;stroke-width:0.25;}
	.st22{fill:#7A7A7A;}
	.st23{fill:#666666;stroke:#666666;stroke-width:0.25;}
	.st24{fill:#141414;}
	.st25{fill:#FFFFFF;stroke:#B2B2B2;}
	.st26{fill:#EDEDED;}
	.st27{fill:#694721;}
	.st28{fill:#5A3D1C;}
	.st29{fill:#006631;}
	.st30{fill:#00592B;}
	.st31{fill:#035B73;stroke:#003642;stroke-width:0.25;}
	.st32{fill:#02495C;stroke:#003642;stroke-width:0.25;}
	.st33{fill:#02495C;}
	.st34{fill:#820000;stroke:#730000;}
	.st35{fill:#5C0000;stroke:#5A3D1C;stroke-width:0.25;}
	.st36{fill:#780000;}
	.st37{fill:#006B33;stroke:#003642;stroke-width:0.25;}
	.st38{fill:#00592B;stroke:#003642;stroke-width:0.25;}
	.st39{fill:#DB8C3D;stroke:#003642;stroke-width:0.25;}
	.st40{fill:#C2803D;}
	.st41{fill:#DB6D00;stroke:#003642;stroke-width:0.25;}
	.st42{fill:#3F3F3F;stroke:#3F3F3F;stroke-width:0.25;}
	.st43{stroke:#3F3F3F;stroke-width:0.25;}
	.st44{fill:#262626;}
	.st45{fill:#5A3D1C;stroke:#003642;stroke-width:0.25;}
	.st46{fill:#52361A;}
	.st47{fill:#422C15;stroke:#003642;stroke-width:0.25;}
	.st48{fill:#FFFFFF;stroke:#E8E8E8;}
	.st49{fill:#E3E3E3;}
	.st50{fill:#B2B2B2;}
	.st51{fill:#FFBF00;}
	.st52{fill:#F5B700;}
	.st53{fill:#EBAF00;stroke:#D19D00;stroke-width:0.25;}
	.st54{fill:#D010B1;}
	.st55{fill:#A60D8C;}
	.st56{fill:#00A33D;}
	.st57{fill:#008033;}
	.st58{fill:#00D4FF;}
	.st59{fill:#00ABFF;}
	.st60{fill:#0A0A0A;stroke:#000000;}
	.st61{fill:#666666;stroke:#000000;stroke-width:0.25;}
	.st62{stroke:#000000;}
	.st63{fill:#00B800;}
	.st64{fill:#009C00;}
	.st65{fill:#3F3F3F;}
	.st66{fill:#73A334;stroke:#8CC63F;stroke-width:0.1;}
	.st67{fill:#8CC63F;stroke:#8CC63F;stroke-width:0.1;}
	.st68{fill:#545454;}
	.st69{fill:#7558A4;}
	.st70{fill:#7536D1;}
	.st71{fill:#E2BB95;stroke:#D5AF8C;}
	.st72{fill:#D5AF8C;}
	.st73{fill:#E2BB95;stroke:#D5AF8C;stroke-width:0.5;}
	.st74{fill:#9E2231;}
	.st75{fill:#B72837;}
	.st76{fill:#FFE085;}
	.st77{fill:#EBCE7A;}
	.st78{fill:url(#SVGID_1_);}
	.st79{fill:url(#SVGID_2_);}
	.st80{fill:url(#SVGID_3_);}
	.st81{fill:#D00204;}
	.st82{fill:#D10507;}
	.st83{fill:#D3090B;}
	.st84{fill:#D40C0E;}
	.st85{fill:#D51012;}
	.st86{fill:#D71315;}
	.st87{fill:#D81718;}
	.st88{fill:#D91A1C;}
	.st89{fill:#DB1E1F;}
	.st90{fill:#DC2122;}
	.st91{fill:#DD2526;}
	.st92{fill:#DF2829;}
	.st93{fill:#E02C2D;}
	.st94{fill:#E22F30;}
	.st95{fill:#E33333;}
	.st96{fill:#E43637;}
	.st97{fill:#E63A3A;}
	.st98{fill:#E73D3E;}
	.st99{fill:#E84141;}
	.st100{fill:#EA4444;}
	.st101{fill:#EB4848;}
	.st102{fill:#EC4B4B;}
	.st103{fill:#EE4F4E;}
	.st104{fill:#EF5252;}
	.st105{fill:#F05655;}
	.st106{fill:#F25A59;}
	.st107{fill:#F35D5C;}
	.st108{fill:#047A04;}
	.st109{fill:#57B328;}
	.st110{fill:#507F29;}
	.st111{fill:#DDBB06;}
	.st112{fill:#A80000;}
	.st113{fill:#9E0000;}
	.st114{fill:#8F0000;stroke:#610000;stroke-width:0.25;}
	.st115{fill:#5A3D1C;stroke:#805426;}
	.st116{fill:#63421F;}
	.st117{fill:#5A3D1C;stroke:#6B4620;}
	.st118{fill:url(#SVGID_4_);}
	.st119{fill:#171717;stroke:#000000;}
	.st120{fill:#212121;}
	.st121{fill:url(#SVGID_5_);}
	.st122{fill:#3F3F3F;stroke:#3F3F3F;}
	.st123{fill:#8C8C8C;stroke:#3F3F3F;}
	.st124{fill:#808080;}
	.st125{fill:url(#SVGID_6_);}
	.st126{fill:none;}
	.st127{fill:#D4D4D4;}
	.st128{fill:#D4D4D4;stroke:#B8B8B8;stroke-width:0.5;}
	.st129{fill:#D4D4D4;stroke:#B8B8B8;stroke-width:0.2;}
	.st130{fill:#C7C7C7;}
	.st131{fill:#DBF8FF;stroke:#7DBDCC;stroke-width:0.25;}
	.st132{fill:#C2F3FF;}
	.st133{fill:#F2F2F2;}
	.st134{fill:url(#SVGID_7_);stroke:#000000;}
	.st135{fill:#42210B;stroke:#000000;}
	.st136{fill:#C69C6D;stroke:#000000;}
	.st137{fill:#93278F;stroke:#000000;}
	.st138{fill:#589F3E;}
	.st139{fill:#4D8F39;}
	.st140{fill:#963528;}
	.st141{fill:#AC3A2D;}
	.st142{fill:#211915;}
	.st143{fill:#444242;}
	.st144{fill:#1A1A1A;}
	.st145{fill:#FFFFFF;}
	.st146{fill:#2E2E2E;}
	.st147{fill:#363636;}
	.st148{fill:#666666;}
	.st149{fill:#C69C6D;}
	.st150{fill:#B38D62;}
	.st151{fill:#A67C52;}
	.st152{fill:#8C6239;}
	.st153{fill:#9E10D2;}
	.st154{fill:#8210D2;}
	.st155{fill:#6B6B6B;}
	.st156{fill:#008C08;}
	.st157{fill:#00A308;}
	.st158{fill:#EC2024;}
	.st159{fill:#E31E26;}
	.st160{fill:#BED63A;}
	.st161{fill:#EC1C24;}
	.st162{fill:#00ADEE;}
	.st163{fill:#2E3191;}
</style>
<g>
	<g>
		<path class="st0" d="M111.41,76.09c-3.81-1.97-9.05-4.3-9.57-5.18c-2.22-3.76-2.21-13.48-1.8-17.48h-1.01H67.28h-1.01
			c0.4,4,0.92,13.87-1.54,17.48c-0.39,0.58-6.05,3.17-9.83,5.18c-3.14,1.66-11.71,6.88-12.87,7.31c0.3,0.39,4.09,11.7,8.1,17.76
			c1.84,2.78,2.7,5.47,5.05,7.78c2.43,2.38,5.21,4.34,8.26,5.68c3.67,1.61,7.6,2.4,11.55,2.64c2.7,0.17,5.44,0.14,8.16-0.08
			c2.72,0.23,5.46,0.25,8.16,0.08c3.95-0.25,7.88-1.03,11.55-2.64c3.05-1.34,5.83-3.3,8.26-5.68c2.36-2.31,3.12-5,4.97-7.78
			c4.01-6.06-1.08-11.34-0.78-11.73C114.13,89.04,114.39,77.64,111.41,76.09z"/>
		<g>
			<path class="st0" d="M105.31,97.44c-0.11-0.09,10.11-2.91,10-3c-4.13-3.44-1.13-4.56-5-6c-4.08-1.52-9.05-2.17-24.73-2.15
				c-0.04,0-1.38,0.03-2.27,0.05c-0.89-0.02-2.23-0.05-2.27-0.05c-15.69-0.01-27.57-9.43-27.57-9.43s-8.39,4.41-12.48,5.94
				C37.14,84.23,110.53,104.23,105.31,97.44z"/>
		</g>
		<path class="st0" d="M105.82,33.89c0,0-0.19-11.41-0.31-16.03c-0.13-4.99-0.38-12.68-14.64-17.05c-0.8-0.25-4.33-0.84-7.76-0.83
			c-3.21,0.01-6.33,0.6-7.08,0.83c-3.78,1.16-6.57,2.9-9.35,5.38c-3.8,3.38-5.33,6.68-5.45,11.67c-0.12,4.62-0.23,16.03-0.23,16.03
			c-4.37-3.68-4.41,0.8-4.2,3.23c0.29,3.3,1.29,5.77,2.3,7.83c0.67,1.37,1.38,3.34,3.37,3.42c0.75,0.03,1.24-0.55,1.24-0.55
			s0.32,4.75,0.49,6.06c0.51,3.9,9.13,14.86,13.98,15.83c1.47,0.29,9.06,0.3,10.43,0.04c4.79-0.93,13.64-11.86,14.16-15.87
			c0.17-1.31,0.49-6.06,0.49-6.06s0.49,0.58,1.24,0.55c1.99-0.08,2.47-2.05,3.14-3.42c1.01-2.05,2.38-5.21,2.46-8.53
			C110.16,34.03,110.19,30.2,105.82,33.89z"/>
		<g>
			<g>
				<path class="st1" d="M61.65,41.28c0.11-0.01-0.87-3.58-1.45-5c-0.63-1.54-1.27-1.87-1.66-1.85c-0.74,0.04-1,3.47-1,3.47
					s0.54-3.68,2.2-0.72C60.19,38.01,61.52,41.29,61.65,41.28z"/>
				<path class="st1" d="M59.04,37.81c0.05-0.24,0.3-1.65,0.5-1.66c0.24-0.01,0.24,1.01,0.19,1.17c-0.16,0.5-0.32,1-0.43,1.54
					c-0.11,0.56-0.12,1.1-0.11,1.68c0.01,0.51,0.12,1.11,0.22,1.6c-0.39-0.38-0.49-1.9-0.5-2.47
					C58.89,38.68,58.94,38.37,59.04,37.81z"/>
				<path class="st2" d="M62.01,44.16c-0.03-0.09-0.56-1.27-0.6-1.36c-0.38-0.87,0.43,0.25,0.51,0.35c0.4,0.56,0.69,0.87,0.97,1.35
					c0.24,0.41,0.12,1.04-0.43,1.1c-0.46,0.05-1.04-0.39-1.23-1.04C61.19,44.47,62.42,45.28,62.01,44.16z"/>
			</g>
			<g>
				<path class="st1" d="M105.27,41.28c-0.11-0.01,0.87-3.58,1.45-5c0.63-1.54,1.27-1.88,1.66-1.85c0.74,0.04,1,3.47,1,3.47
					s-0.54-3.68-2.2-0.73C106.72,38.01,105.4,41.29,105.27,41.28z"/>
				<path class="st1" d="M107.87,37.81c-0.05-0.24-0.3-1.65-0.5-1.66c-0.24-0.01-0.24,1.01-0.19,1.17c0.16,0.5,0.32,1,0.43,1.54
					c0.11,0.56,0.12,1.1,0.11,1.68c-0.01,0.51-0.12,1.11-0.22,1.6c0.39-0.38,0.49-1.9,0.5-2.47
					C108.02,38.68,107.97,38.37,107.87,37.81z"/>
				<path class="st2" d="M104.91,44.16c0.03-0.09,0.56-1.27,0.6-1.36c0.38-0.87-0.43,0.25-0.51,0.35c-0.4,0.56-0.69,0.87-0.97,1.35
					c-0.24,0.41-0.12,1.04,0.43,1.1c0.46,0.05,1.04-0.39,1.24-1.04C105.72,44.47,104.5,45.28,104.91,44.16z"/>
			</g>
		</g>
	</g>
	<g>
		<path class="st66" d="M144.81,183.75c0.38-5.1,1.61-10.43,1.5-15.09c-0.18-8.33-1.32-17.25-3-25.25
			c-1.58-7.52-4.34-14.58-6.28-21.64c-2.8-10.24-5.88-22.15-10.16-31.5c-3.71-8.09-5.05-11.39-12.57-14.75
			c-2.46-1.12-7.91-4.08-9.88-3.62c-1.19,0.28-2.94,3.51-4.18,4.93c-4.84,5.41-9.31,9.76-14.96,13.12
			c-6.58-2.98-10.82-8.72-15.57-13.79c-2.53-2.72-5.25-7.36-7.76-6.88c-4.46,0.83-11.74,1.96-15.56,4.25
			c-4.23,2.56-7.87,10.1-10.77,15.43c-3.35,6.15-6.25,12.27-8.69,18.04c-6.87,16.35-15.97,33.91-18.24,54.11
			c-1.37,12.33-3.22,27.27-1.51,39.71c4.5-0.16,9.88,0.23,14.37,0.31c1.36-2.78,2.13-7.11,1.8-10.16c-0.25-2.48-2.35-4.8-2.68-6.9
			c-1.05-6.27,1.37-10.54,2.68-15.07c2.8-9.68,3.17-21.11,7.18-29.53c3.88-8.13,9.08-15.55,13.77-22.3
			c1.64-2.38,2.48-5.77,5.07-6.89c4.34,9.19,0.78,22.21,1.51,33.46c-3.84,8.17-3.24,17.76-6.89,25.92
			c-1.34,2.97-4.96,9.17-3.28,13.12c1.32,3.11,12.92,5.8,17.06,6.55c7.82,1.42,14.21,1.77,21.53,2.31
			c6.46,0.46,12.43-0.15,19.15-0.99c7.26-0.9,16.6-1.91,17.96-7.53c0.56-6.49-2.7-12.02-3.3-18.38c-0.17-1.81,0.26-3.7,0-5.58
			c-0.38-2.88-2.13-5.39-2.7-8.2c-0.24-1.35-0.02-3-0.28-4.6c-0.23-1.43-1.18-2.71-1.19-3.94c-0.03-1.5,0.84-3.25,0.89-4.92
			c0.1-3.27-1.34-6.77-1.2-9.84c0.08-1.8,2.33-11.57,4.19-11.8c1.89-0.21,2.98,3.69,4.19,6.23c3.65,7.64,8.12,14.89,10.17,21.99
			c1.71,5.88,2.02,12.2,3,19.02c0.97,6.77,2.46,14.26,2.11,20.02c-0.28,3.88-1.62,8.43-2.42,12.45c-0.88,4.41-1.43,8.8-1.79,13.45
			c3.77,1.96,9.93,4.5,14.96,2.93C146.19,204.48,144.07,193.74,144.81,183.75z M59.81,136.92c0.6,3.02,1.91,8,2.14,8.78
			c0.25,0.78-2.25-1.45-2.97-3.15c-0.72-1.69-1.67-2.08-1.67-2.08s-1.8,4.05,0.59,7.57c2.39,3.54,5.61,5.76,5.61,5.76
			s-4.41-2.47-8.48-1.17c-4.05,1.29-4.05,5.88-3.22,6.54c0.83,0.66,8.59,1.7,8.59,1.7s-8.59,1.04-9.32,1.04
			c-0.7,0-4.3,1.32-1.19,5.12c3.09,3.79,4.53,4.04,4.53,4.04s-0.72,0.41-4.66,0.26c-3.93-0.12-4.41,3.8-4.18,5.9
			c0.25,2.1,2.16,5.76,5.98,6.55c3.82,0.77-2.28,2.33-2.28,2.33s-5.61-2.6-7.16-4.04c-1.55-1.44-1.31-2.76,0.96-6.94
			c2.27-4.18,2.39-7.84,3.69-10.86c1.32-3.01,1.44-12.94,3.83-16.48c2.38-3.54,2.5-9.43,2.5-13.36c0-3.92,0.6-16.48,0.6-16.48
			s0.47,10.2,4.42,12.17c3.94,1.96,6.58,2.87,6.58,2.87s-4.67-0.13-6.58-2.22C56.22,128.69,59.22,133.92,59.81,136.92z M72.58,87.72
			c-5.24-5.36-7.64-11.38-7.64-11.38l2.15,1.05c0,0,13.26,13.35,16.6,14c3.34,0.65,11.22-5.9,14.56-8.9
			c3.35-3.02,5.98-5.88,5.98-5.88S93.83,92.3,88.59,94.27C83.33,96.23,77.84,93.08,72.58,87.72z M110.43,172.13
			c3.46,10.99,2.74,12.82-0.24,14.28c-2.98,1.43-8.35,1.69-8.95,1.57c-0.6-0.14,5.49-1.2,6.56-1.46c1.07-0.27-2.04-2.73-5.01-3.14
			c-3-0.39,4.76-1.56,4.89-3.78c0.12-2.22,0.72-5.5-0.35-8.37c-1.08-2.88-3.95,3-6.57,3.26c-2.62,0.26,1.18-2.88,2.5-6.67
			c1.32-3.79,1.68-7.2,0.49-10.99c-1.19-3.8-3.93,2.61-4.18,3.02c-0.25,0.38,1.78-4.72,2.27-8.78c0.47-4.04,1.67-11.9,1.67-12.3
			c0-0.4-4.19,3.01-7.41,3.78c-3.21,0.8,4.06-2.75,5.01-5.23c0.96-2.48,1.92-6.04-1.19-5.23c-3.12,0.78-8.12,0.65-9.07-0.39
			c-0.96-1.05,8.11,0.4,9.66-1.84c1.56-2.22,7.29-8.38,7.29-8.38s-4.42,8-3.58,13.89c0.82,5.89,1.07,8.11,3.11,17.54
			C109.35,162.32,106.95,161.15,110.43,172.13z"/>
		<path class="st67" d="M58.13,130.78c1.91,2.09,6.58,2.22,6.58,2.22s-2.63-0.92-6.58-2.87c-3.94-1.97-4.42-12.17-4.42-12.17
			s-0.6,12.56-0.6,16.48c0,3.92-0.12,9.81-2.5,13.36c-2.39,3.54-2.51,13.47-3.83,16.48c-1.3,3.02-1.42,6.68-3.69,10.86
			c-2.26,4.18-2.51,5.5-0.96,6.94c1.55,1.44,7.16,4.04,7.16,4.04s6.1-1.56,2.28-2.33c-3.82-0.8-5.73-4.46-5.98-6.55
			c-0.24-2.1,0.25-6.01,4.18-5.9c3.94,0.15,4.66-0.26,4.66-0.26s-1.44-0.25-4.53-4.04c-3.11-3.8,0.49-5.12,1.19-5.12
			c0.73,0,9.32-1.04,9.32-1.04s-7.76-1.04-8.59-1.7c-0.83-0.65-0.83-5.25,3.22-6.54c4.07-1.3,8.48,1.17,8.48,1.17
			s-3.22-2.22-5.61-5.76c-2.39-3.52-0.59-7.57-0.59-7.57s0.94,0.38,1.67,2.08c0.72,1.7,3.22,3.93,2.97,3.15
			c-0.24-0.79-1.55-5.76-2.14-8.78C59.22,133.92,56.22,128.69,58.13,130.78z"/>
		<path class="st67" d="M104.22,135.36c-0.84-5.88,3.58-13.89,3.58-13.89s-5.73,6.16-7.29,8.38c-1.55,2.24-10.62,0.79-9.66,1.84
			c0.95,1.04,5.95,1.17,9.07,0.39c3.11-0.8,2.15,2.75,1.19,5.23c-0.95,2.48-8.22,6.03-5.01,5.23c3.22-0.77,7.41-4.19,7.41-3.78
			c0,0.4-1.2,8.26-1.67,12.3c-0.49,4.05-2.52,9.16-2.27,8.78c0.24-0.41,2.99-6.82,4.18-3.02c1.19,3.79,0.83,7.2-0.49,10.99
			c-1.31,3.8-5.12,6.94-2.5,6.67c2.62-0.26,5.5-6.14,6.57-3.26c1.07,2.87,0.47,6.15,0.35,8.37c-0.13,2.22-7.89,3.4-4.89,3.78
			c2.97,0.41,6.07,2.87,5.01,3.14c-1.07,0.26-7.16,1.32-6.56,1.46c0.6,0.12,5.97-0.14,8.95-1.57c2.98-1.46,3.7-3.29,0.24-14.28
			c-3.48-10.98-1.08-9.82-3.1-19.22C105.29,143.47,105.05,141.26,104.22,135.36z"/>
		<path class="st67" d="M104.22,76.6c0,0-2.63,2.86-5.98,5.88c-3.34,3-11.22,9.56-14.56,8.9c-3.34-0.65-16.6-14-16.6-14l-2.15-1.05
			c0,0,2.39,6.02,7.64,11.38c5.26,5.36,10.75,8.52,16.01,6.55C93.83,92.3,104.22,76.6,104.22,76.6z"/>
	</g>
</g>
</svg>
