<?xml version="1.0" encoding="utf-8"?>
<!-- Generator: Adobe Illustrator 23.0.6, SVG Export Plug-In . SVG Version: 6.00 Build 0)  -->
<svg version="1.1" id="Capa_1" xmlns="http://www.w3.org/2000/svg" xmlns:xlink="http://www.w3.org/1999/xlink" x="0px" y="0px"
	 viewBox="0 0 152.79 186.83" enable-background="new 0 0 152.79 186.83" xml:space="preserve">
<g>
	<g>
		<path fill="#F0AC80" d="M104.67,76.12c-3.81-1.97-9.05-4.3-9.57-5.18c-2.22-3.76-2.21-13.48-1.8-17.48h-1.01H60.54h-1.01
			c0.4,4,0.92,13.87-1.54,17.48c-0.39,0.58-6.05,3.17-9.83,5.18c-3.14,1.66-11.71,6.88-12.87,7.31c0.3,0.39,4.09,11.7,8.1,17.76
			c1.84,2.78,2.7,5.47,5.05,7.78c2.43,2.38,5.21,4.34,8.26,5.68c3.67,1.61,7.6,2.4,11.55,2.64c2.7,0.17,5.44,0.14,8.16-0.08
			c2.72,0.23,5.46,0.25,8.16,0.08c3.95-0.25,7.88-1.03,11.55-2.64c3.05-1.34,5.83-3.3,8.26-5.68c2.36-2.31,3.12-5,4.97-7.78
			c4.01-6.06,8.39-17.43,8.69-17.82C116.87,82.98,107.66,77.67,104.67,76.12z"/>
		<path fill="#F0AC80" d="M99.08,33.91c0,0-0.19-11.41-0.31-16.03c-0.13-4.99-0.38-12.68-14.64-17.05C83.33,0.58,79.8-0.01,76.37,0
			c-3.21,0.01-6.33,0.6-7.08,0.83c-3.78,1.16-6.57,2.9-9.35,5.38c-3.8,3.38-5.33,6.68-5.45,11.67c-0.12,4.62-0.23,16.03-0.23,16.03
			c-4.37-3.68-4.41,0.8-4.2,3.23c0.29,3.3,1.29,5.77,2.3,7.83c0.67,1.37,1.38,3.34,3.37,3.42c0.75,0.03,1.24-0.55,1.24-0.55
			s0.32,4.75,0.5,6.06c0.51,3.9,9.13,14.86,13.98,15.83c1.47,0.29,9.06,0.3,10.43,0.04c4.79-0.93,13.64-11.86,14.16-15.87
			c0.17-1.31,0.49-6.06,0.49-6.06s0.49,0.58,1.24,0.55c1.99-0.08,2.47-2.05,3.14-3.42c1.01-2.05,2.38-5.21,2.46-8.53
			C103.42,34.06,103.46,30.23,99.08,33.91z"/>
		<g>
			<g>
				<path fill-rule="evenodd" clip-rule="evenodd" fill="#D68B62" d="M54.91,41.31c0.11-0.01-0.87-3.58-1.45-5
					c-0.63-1.54-1.27-1.87-1.66-1.85c-0.74,0.04-1,3.47-1,3.47s0.54-3.68,2.2-0.72C53.45,38.03,54.78,41.32,54.91,41.31z"/>
				<path fill-rule="evenodd" clip-rule="evenodd" fill="#D68B62" d="M52.31,37.83c0.05-0.24,0.3-1.65,0.5-1.66
					c0.24-0.01,0.24,1.01,0.19,1.17c-0.16,0.5-0.32,1-0.43,1.54c-0.11,0.56-0.12,1.1-0.11,1.68c0.01,0.51,0.12,1.11,0.22,1.6
					c-0.39-0.38-0.49-1.9-0.5-2.47C52.16,38.71,52.2,38.39,52.31,37.83z"/>
				<path fill-rule="evenodd" clip-rule="evenodd" fill="#E8A073" d="M55.27,44.18c-0.03-0.09-0.56-1.27-0.6-1.36
					c-0.38-0.87,0.43,0.25,0.51,0.35c0.4,0.56,0.69,0.87,0.97,1.35c0.24,0.41,0.12,1.04-0.43,1.1c-0.46,0.05-1.04-0.39-1.23-1.04
					C54.46,44.49,55.68,45.31,55.27,44.18z"/>
			</g>
			<g>
				<path fill-rule="evenodd" clip-rule="evenodd" fill="#D68B62" d="M98.53,41.31c-0.11-0.01,0.87-3.58,1.45-5
					c0.63-1.54,1.27-1.88,1.66-1.85c0.74,0.04,1,3.47,1,3.47s-0.54-3.68-2.2-0.73C99.99,38.03,98.66,41.32,98.53,41.31z"/>
				<path fill-rule="evenodd" clip-rule="evenodd" fill="#D68B62" d="M101.13,37.83c-0.05-0.24-0.3-1.65-0.5-1.66
					c-0.24-0.01-0.24,1.01-0.19,1.17c0.16,0.5,0.32,1,0.43,1.54c0.11,0.56,0.12,1.1,0.11,1.68c-0.01,0.51-0.12,1.11-0.22,1.6
					c0.39-0.38,0.49-1.9,0.5-2.47C101.28,38.71,101.24,38.39,101.13,37.83z"/>
				<path fill-rule="evenodd" clip-rule="evenodd" fill="#E8A073" d="M98.17,44.18c0.03-0.09,0.56-1.27,0.6-1.36
					c0.38-0.87-0.43,0.25-0.51,0.35c-0.4,0.56-0.69,0.87-0.97,1.35c-0.24,0.41-0.12,1.04,0.43,1.1c0.46,0.05,1.04-0.39,1.24-1.04
					C98.98,44.49,97.76,45.31,98.17,44.18z"/>
			</g>
		</g>
	</g>
	<g>
		<path fill="#F0AC80" d="M38.61,78.8c-2.31,0.86-6.41,7.06-7.15,7.8c-0.02,0.02,0.07-0.14,0,0c-2.78,5.95-0.89-8.13-8.89,23.87
			c-3,12-4.6,26.11-5.1,34.56c-0.49,8.46-1.78,22.07-1.93,31.88c-0.07,4.25-0.75,11.59-0.75,11.59l14.82,0.93
			c0,0,0.76-4.14,0.98-7.98c0.33-5.75,3.39-35.45,4.12-40.93c1.12-8.51,2.02-26.27,2.02-26.27S40.11,78.23,38.61,78.8z"/>
	</g>
	<g>
		<path fill="#F0AC80" d="M114.18,81.8c2.31,0.86,6.41,7.06,7.15,7.8c0.02,0.02-0.07-0.14,0,0c2.78,5.95,0.89-8.13,8.89,23.87
			c3,12,4.6,26.11,5.1,34.56c0.49,8.46,1.78,22.07,1.93,31.88c0.07,4.25,0.75,11.59,0.75,11.59l-14.82,0.93c0,0-0.76-4.14-0.98-7.98
			c-0.33-5.75-3.39-35.45-4.12-40.93c-1.12-8.51-2.02-26.27-2.02-26.27S112.68,81.23,114.18,81.8z"/>
	</g>
	<g>
		<path fill="#C69C6D" d="M46.99,80.56c0,0,2.9,4.69,17.54,5.78c14.64,1.09,19.52,1.62,26.03,0.36c6.51-1.26,9.95-0.72,13.02-4.16
			c3.08-3.43,4.52-3.24,4.52-3.24s0.19,29.47-1.45,36.16c-1.63,6.69-1.44,11.93-1.63,20.8c-0.18,8.85-0.18,21.87,1.81,34.53
			c1.99,12.66,5.97,31.47,5.97,31.47s-5.79,2.17-17.73,1.81c-11.93-0.37-52.61,0.36-56.22-1.45c-3.62-1.81-2.72-4.52-1.09-10.68
			c1.63-6.14,5.06-17.52,5.25-24.04c0.17-6.51,2.17-9.58,2.53-17.9c0.36-8.32,0.54-11.75,0-21.34c-0.54-9.59-1.63-12.3-1.99-15.73
			c-0.37-3.45-0.37-7.24-0.73-14.65C42.47,90.86,46.99,80.56,46.99,80.56z"/>
		<path fill="#B38D62" d="M16.44,95.74c0,0,3.98,5.25,5.79,5.61c1.81,0.36-0.55,1.63,1.44,3.8c1.99,2.16,3.98,4.15,6.69,4.88
			s9.76,3.44,11.58,3.44c1.81,0,1.81,0,1.81,0s3.25-4.53-2.36-9.77c-5.6-5.25-21.15-12.48-21.15-12.48L16.44,95.74z"/>
		<path fill="#A67C52" d="M20.42,87.06l9.04-4.53l14.46,12.84c0,0,2.17,13.39,0.91,13.39c-1.27,0-3.44,0.17-8.13-2.53
			c-4.71-2.71-4.88-1.45-7.96-5.07c-3.08-3.6-2.53-3.43-4.88-5.78C21.5,93.03,16.62,89.24,20.42,87.06z"/>
		<path fill="#8C6239" d="M27.11,78.57c0,0-1.27,4.15,0.35,4.88c1.63,0.73,4.7,1.45,5.25,4.88c0.55,3.44,3.26,7.78,5.6,8.5
			c2.36,0.73,2.9,3.07,3.44,3.62c0.54,0.55,2.53,1.09,2.53,1.09l2.71-20.98c0,0-4.88-2.9-11.39-2.9
			C29.09,77.66,27.11,78.57,27.11,78.57z"/>
		<path fill="#B38D62" d="M131.98,90.86l5.6,3.8c0,0-2.71,2.53-3.62,3.25c-0.9,0.73,0.73,3.44-2.71,4.53
			c-3.43,1.08-2.17,3.62-4.52,5.43c-2.35,1.8-2.35,4.88-7.23,5.06c-4.88,0.17-11.93,1.81-12.47,1.81c-0.54,0-1.99-1.81-1.99-1.81
			l1.81-6.34C106.84,106.59,131.25,93.39,131.98,90.86z"/>
		<path fill="#A67C52" d="M134.15,86.16c0,0,0,6.51-2.9,6.87c-2.89,0.36-2.17,1.27-4.15,4.34c-1.99,3.07-0.73,5.42-3.08,5.61
			c-2.35,0.18-4.69-0.54-5.96,1.81c-1.26,2.35-5.42,2.9-6.69,3.25c-1.26,0.36-7.95,4.89-7.95,4.89s3.61-14.29,3.79-15.74
			c0.18-1.45,5.78-2.17,7.95-5.07c2.17-2.88,7.78-8.5,7.78-8.5L134.15,86.16z"/>
		<path fill="#8C6239" d="M108.11,79.29l18.44-0.37c0,0,1.27,4.88-0.9,5.78c-2.17,0.9-4.52,3.25-4.52,6.15
			c0,2.9-6.51,1.63-7.05,4.88c-0.55,3.26-2.35,4.88-3.8,5.25c-1.44,0.36-3.43,0.72-3.43,0.72L108.11,79.29z"/>
		<path fill="#8C6239" d="M107.91,80.91c0,0-1.47,2.17-3.3,4.67c-1.83,2.5-7.88,7.5-13.39,9.51c-5.5,2-10.09,3.17-15.59,3.17
			c-5.5,0-13.75-3-18.16-5.83c-4.41-2.83-10.82-10.51-10.82-10.51l-0.73-0.84l-0.36,1.18c0,0,5.69,7.67,12.83,13
			c7.16,5.33,11.37,5.01,17.79,5.01c6.43,0,15.41-2.34,18.89-4.83c3.48-2.51,14.3-14.35,14.3-14.35L107.91,80.91z"/>
	</g>
</g>
</svg>
