<?xml version="1.0" encoding="utf-8"?>
<!-- Generator: Adobe Illustrator 23.0.6, SVG Export Plug-In . SVG Version: 6.00 Build 0)  -->
<svg version="1.1" id="Capa_1" xmlns="http://www.w3.org/2000/svg" xmlns:xlink="http://www.w3.org/1999/xlink" x="0px" y="0px"
	 viewBox="0 0 152.79 186.83" style="enable-background:new 0 0 152.79 186.83;" xml:space="preserve">
<style type="text/css">
	.st0{fill:#F0AC80;}
	.st1{fill-rule:evenodd;clip-rule:evenodd;fill:#D68B62;}
	.st2{fill-rule:evenodd;clip-rule:evenodd;fill:#E8A073;}
	.st3{fill:#BFE9FF;}
	.st4{fill:#A8E1FF;}
	.st5{fill:#A3DEFF;}
	.st6{fill:#B0E3FF;}
	.st7{fill:#FF5955;}
	.st8{fill:#FF0000;}
	.st9{fill:#3A8A00;}
	.st10{fill:#417400;}
	.st11{fill:#4D4D4D;}
	.st12{fill:#333333;}
	.st13{fill:#1B1464;}
	.st14{fill:#271D91;}
	.st15{fill:#B2B2B2;stroke:#B2B2B2;stroke-width:0.25;}
	.st16{fill:#8C8C8C;stroke:#5A3D1C;stroke-width:0.25;}
	.st17{fill:#A6A6A6;}
	.st18{fill:#FFFFFF;stroke:#B2B2B2;stroke-width:0.25;}
	.st19{fill:#EBEBEB;}
	.st20{stroke:#000000;stroke-width:0.25;}
	.st21{fill:#8C8C8C;stroke:#003642;stroke-width:0.25;}
	.st22{fill:#7A7A7A;}
	.st23{fill:#666666;stroke:#666666;stroke-width:0.25;}
	.st24{fill:#141414;}
	.st25{fill:#FFFFFF;stroke:#B2B2B2;}
	.st26{fill:#EDEDED;}
	.st27{fill:#694721;}
	.st28{fill:#5A3D1C;}
	.st29{fill:#006631;}
	.st30{fill:#00592B;}
	.st31{fill:#035B73;stroke:#003642;stroke-width:0.25;}
	.st32{fill:#02495C;stroke:#003642;stroke-width:0.25;}
	.st33{fill:#02495C;}
	.st34{fill:#820000;stroke:#730000;}
	.st35{fill:#5C0000;stroke:#5A3D1C;stroke-width:0.25;}
	.st36{fill:#780000;}
	.st37{fill:#006B33;stroke:#003642;stroke-width:0.25;}
	.st38{fill:#00592B;stroke:#003642;stroke-width:0.25;}
	.st39{fill:#DB8C3D;stroke:#003642;stroke-width:0.25;}
	.st40{fill:#C2803D;}
	.st41{fill:#DB6D00;stroke:#003642;stroke-width:0.25;}
	.st42{fill:#3F3F3F;stroke:#3F3F3F;stroke-width:0.25;}
	.st43{stroke:#3F3F3F;stroke-width:0.25;}
	.st44{fill:#262626;}
	.st45{fill:#5A3D1C;stroke:#003642;stroke-width:0.25;}
	.st46{fill:#52361A;}
	.st47{fill:#422C15;stroke:#003642;stroke-width:0.25;}
	.st48{fill:#FFFFFF;stroke:#E8E8E8;}
	.st49{fill:#E3E3E3;}
	.st50{fill:#B2B2B2;}
	.st51{fill:#FFBF00;}
	.st52{fill:#F5B700;}
	.st53{fill:#EBAF00;stroke:#D19D00;stroke-width:0.25;}
	.st54{fill:#D010B1;}
	.st55{fill:#A60D8C;}
	.st56{fill:#00A33D;}
	.st57{fill:#008033;}
	.st58{fill:#00D4FF;}
	.st59{fill:#00ABFF;}
	.st60{fill:#0A0A0A;stroke:#000000;}
	.st61{fill:#666666;stroke:#000000;stroke-width:0.25;}
	.st62{stroke:#000000;}
	.st63{fill:#00B800;}
	.st64{fill:#009C00;}
	.st65{fill:#3F3F3F;}
	.st66{fill:#73A334;stroke:#8CC63F;stroke-width:0.1;}
	.st67{fill:#8CC63F;stroke:#8CC63F;stroke-width:0.1;}
	.st68{fill:#545454;}
	.st69{fill:#7558A4;}
	.st70{fill:#7536D1;}
	.st71{fill:#E2BB95;stroke:#D5AF8C;}
	.st72{fill:#D5AF8C;}
	.st73{fill:#E2BB95;stroke:#D5AF8C;stroke-width:0.5;}
	.st74{fill:#9E2231;}
	.st75{fill:#B72837;}
	.st76{fill:#FFE085;}
	.st77{fill:#EBCE7A;}
	.st78{fill:url(#SVGID_1_);}
	.st79{fill:url(#SVGID_2_);}
	.st80{fill:url(#SVGID_3_);}
	.st81{fill:#D00204;}
	.st82{fill:#D10507;}
	.st83{fill:#D3090B;}
	.st84{fill:#D40C0E;}
	.st85{fill:#D51012;}
	.st86{fill:#D71315;}
	.st87{fill:#D81718;}
	.st88{fill:#D91A1C;}
	.st89{fill:#DB1E1F;}
	.st90{fill:#DC2122;}
	.st91{fill:#DD2526;}
	.st92{fill:#DF2829;}
	.st93{fill:#E02C2D;}
	.st94{fill:#E22F30;}
	.st95{fill:#E33333;}
	.st96{fill:#E43637;}
	.st97{fill:#E63A3A;}
	.st98{fill:#E73D3E;}
	.st99{fill:#E84141;}
	.st100{fill:#EA4444;}
	.st101{fill:#EB4848;}
	.st102{fill:#EC4B4B;}
	.st103{fill:#EE4F4E;}
	.st104{fill:#EF5252;}
	.st105{fill:#F05655;}
	.st106{fill:#F25A59;}
	.st107{fill:#F35D5C;}
	.st108{fill:#047A04;}
	.st109{fill:#57B328;}
	.st110{fill:#507F29;}
	.st111{fill:#DDBB06;}
	.st112{fill:#A80000;}
	.st113{fill:#9E0000;}
	.st114{fill:#8F0000;stroke:#610000;stroke-width:0.25;}
	.st115{fill:#5A3D1C;stroke:#805426;}
	.st116{fill:#63421F;}
	.st117{fill:#5A3D1C;stroke:#6B4620;}
	.st118{fill:url(#SVGID_4_);}
	.st119{fill:#171717;stroke:#000000;}
	.st120{fill:#212121;}
	.st121{fill:url(#SVGID_5_);}
	.st122{fill:#3F3F3F;stroke:#3F3F3F;}
	.st123{fill:#8C8C8C;stroke:#3F3F3F;}
	.st124{fill:#808080;}
	.st125{fill:url(#SVGID_6_);}
	.st126{fill:none;}
	.st127{fill:#D4D4D4;}
	.st128{fill:#D4D4D4;stroke:#B8B8B8;stroke-width:0.5;}
	.st129{fill:#D4D4D4;stroke:#B8B8B8;stroke-width:0.2;}
	.st130{fill:#C7C7C7;}
	.st131{fill:#DBF8FF;stroke:#7DBDCC;stroke-width:0.25;}
	.st132{fill:#C2F3FF;}
	.st133{fill:#F2F2F2;}
	.st134{fill:url(#SVGID_7_);stroke:#000000;}
	.st135{fill:#42210B;stroke:#000000;}
	.st136{fill:#C69C6D;stroke:#000000;}
	.st137{fill:#93278F;stroke:#000000;}
	.st138{fill:#589F3E;}
	.st139{fill:#4D8F39;}
	.st140{fill:#963528;}
	.st141{fill:#AC3A2D;}
	.st142{fill:#211915;}
	.st143{fill:#444242;}
	.st144{fill:#1A1A1A;}
	.st145{fill:#FFFFFF;}
	.st146{fill:#2E2E2E;}
	.st147{fill:#363636;}
	.st148{fill:#666666;}
	.st149{fill:#C69C6D;}
	.st150{fill:#B38D62;}
	.st151{fill:#A67C52;}
	.st152{fill:#8C6239;}
	.st153{fill:#9E10D2;}
	.st154{fill:#8210D2;}
	.st155{fill:#6B6B6B;}
	.st156{fill:#008C08;}
	.st157{fill:#00A308;}
	.st158{fill:#EC2024;}
	.st159{fill:#E31E26;}
	.st160{fill:#BED63A;}
	.st161{fill:#EC1C24;}
	.st162{fill:#00ADEE;}
	.st163{fill:#2E3191;}
</style>
<g>
	<g>
		<path class="st0" d="M102.48,80.18c-3.68-1.88-4.46-8.55-5.29-9.07c-5.34-3.32-2.14-12.84-1.75-16.65h-0.98h-30.7h-0.98
			c0.72,3.99,6.5,14.21-1.49,16.65c-0.65,0.2,3.53,7.94,4.44,11.93c1.37,6.04-10.48,11.02-11.61,11.43
			c0.29,0.37-10.83-0.31-6.96,5.46c1.78,2.65,2.61,5.21,4.89,7.41c2.35,2.27,5.04,4.13,7.99,5.41c3.55,1.54,7.35,2.28,11.17,2.52
			c2.61,0.16,5.26,0.14,7.89-0.08c2.63,0.22,5.28,0.24,7.89,0.08c3.82-0.23,7.62-0.98,11.17-2.52c2.95-1.28,5.64-3.14,7.99-5.41
			c2.28-2.2,3.02-4.76,4.8-7.41c3.88-5.77,1.86,10.15,2.15,9.78C109.76,117.42,105.36,81.66,102.48,80.18z"/>
		<path class="st0" d="M101.89,33.91c0,0-0.19-11.41-0.31-16.03c-0.13-4.99-0.38-12.68-14.64-17.05c-0.8-0.25-4.33-0.84-7.76-0.83
			c-3.21,0.01-6.33,0.6-7.08,0.83c-3.78,1.16-6.57,2.9-9.35,5.38c-3.8,3.38-5.33,6.68-5.45,11.67c-0.12,4.62-0.23,16.03-0.23,16.03
			c-4.37-3.68-4.41,0.8-4.2,3.23c0.29,3.3,1.29,5.77,2.3,7.83c0.67,1.37,1.38,3.34,3.37,3.42c0.75,0.03,1.24-0.55,1.24-0.55
			s0.32,4.75,0.5,6.06c0.51,3.9,9.13,14.86,13.98,15.83c1.47,0.29,9.06,0.3,10.43,0.04c4.79-0.93,13.64-11.86,14.16-15.87
			c0.17-1.31,0.49-6.06,0.49-6.06s0.49,0.58,1.24,0.55c1.99-0.08,2.47-2.05,3.14-3.42c1.01-2.05,2.38-5.21,2.46-8.53
			C106.23,34.06,106.27,30.23,101.89,33.91z"/>
		<g>
			<g>
				<path class="st1" d="M57.72,41.31c0.11-0.01-0.87-3.58-1.45-5c-0.63-1.54-1.27-1.87-1.66-1.85c-0.74,0.04-1,3.47-1,3.47
					s0.54-3.68,2.2-0.72C56.26,38.03,57.59,41.32,57.72,41.31z"/>
				<path class="st1" d="M55.11,37.83c0.05-0.24,0.3-1.65,0.5-1.66c0.24-0.01,0.24,1.01,0.19,1.17c-0.16,0.5-0.32,1-0.43,1.54
					c-0.11,0.56-0.12,1.1-0.11,1.68c0.01,0.51,0.12,1.11,0.22,1.6c-0.39-0.38-0.49-1.9-0.5-2.47
					C54.97,38.71,55.01,38.39,55.11,37.83z"/>
				<path class="st2" d="M58.08,44.18c-0.03-0.09-0.56-1.27-0.6-1.36c-0.38-0.87,0.43,0.25,0.51,0.35c0.4,0.56,0.69,0.87,0.97,1.35
					c0.24,0.41,0.12,1.04-0.43,1.1c-0.46,0.05-1.04-0.39-1.23-1.04C57.26,44.49,58.49,45.31,58.08,44.18z"/>
			</g>
			<g>
				<path class="st1" d="M101.34,41.31c-0.11-0.01,0.87-3.58,1.45-5c0.63-1.54,1.27-1.88,1.66-1.85c0.74,0.04,1,3.47,1,3.47
					s-0.54-3.68-2.2-0.73C102.8,38.03,101.47,41.32,101.34,41.31z"/>
				<path class="st1" d="M103.94,37.83c-0.05-0.24-0.3-1.65-0.5-1.66c-0.24-0.01-0.24,1.01-0.19,1.17c0.16,0.5,0.32,1,0.43,1.54
					c0.11,0.56,0.12,1.1,0.11,1.68c-0.01,0.51-0.12,1.11-0.22,1.6c0.39-0.38,0.49-1.9,0.5-2.47
					C104.09,38.71,104.05,38.39,103.94,37.83z"/>
				<path class="st2" d="M100.98,44.18c0.03-0.09,0.56-1.27,0.6-1.36c0.38-0.87-0.43,0.25-0.51,0.35c-0.4,0.56-0.69,0.87-0.97,1.35
					c-0.24,0.41-0.12,1.04,0.43,1.1c0.46,0.05,1.04-0.39,1.24-1.04C101.79,44.49,100.57,45.31,100.98,44.18z"/>
			</g>
		</g>
	</g>
	<g>
		<path class="st25" d="M63.86,68.16c0,0-5.13,6.9-8.89,8.91c-3.75,2-29.58,14.03-31.46,15.91c-1.88,1.87-1.88,1.87-1.88,1.87
			s3.64,17.92,6.27,26.56c2.62,8.66,3.64,21.7,4.88,26.72c1.25,4.99,1.88,13.28,2.51,16.4c0.63,3.14,1.99,6.4,1.99,9.04
			c0,2.63-0.23,5.13-0.23,7.38c0,2.27,0.49,21.05-1.13,29.59c-1.64,8.52-4.76,32.46-2.51,34.71c2.26,2.25,14.03,8.66,23.56,10.53
			c9.51,1.88,18.8,1.36,18.8,1.36v-15.77c0,0,1.62-150.39,0.61-152.79c-0.98-2.38-1.76-3.12-1.76-3.12s-6.88-5.27-8.52-9.4
			C64.5,71.94,63.86,68.16,63.86,68.16z"/>
		<path class="st25" d="M121.31,239.99c0,0-1.51-15.89-3.5-24.06c-2.01-8.18-1.52-29.09-1.52-32.25c0-3.18,1.68-23.42,3.51-33.43
			c1.84-10.01,10.28-45.2,11.7-46.61c1.43-1.4,0.18-3.83,0.18-3.83s-3.36-3.68-13.03-9.36c-9.71-5.68-16.89-11.2-18.72-13.03
			c-1.85-1.83-4.61-8.73-4.61-8.73S84.28,82.98,82.1,84.06c-2.17,1.09-3.89,4.52-3.89,4.52l4.09,166.68c0,0,19.28-3.75,26.3-6.52
			C115.61,246,121.31,239.99,121.31,239.99z"/>
		<polygon class="st25" points="82.3,257.28 75.78,257.14 75.41,86.2 79.43,86.6 		"/>
		<path class="st25" d="M95.61,68.16L79.43,86.6c0,0,2.67,3.1,6.74,7.17c4.07,4.07,7.9,5.51,7.9,5.51s1.75-7.15,2.77-10.27
			c0.99-3.15,3.93-10.59,3.93-10.59L95.61,68.16z"/>
		<path class="st25" d="M63.86,68.16c0,0,1.56,8.31,4.49,11.36c2.93,3.04,6.84,6.68,6.84,6.68s-12.54,12.71-13.7,13.84
			c-1.17,1.18-0.94-1.36-1.58-5.49c-0.61-4.15-1.48-20.17-1.48-20.17S63.42,69.17,63.86,68.16z"/>
		<path class="st25" d="M21.64,94.85c0,0-6.15,3.15-8.51,8.66c-2.4,5.52-7.79,40.23-9.04,50.39c-1.24,10.14-1.24,38.22-1.24,45.98
			c0,7.77,1.63,23.69,2.75,26.06c1.13,2.4,1.76,3.03,1.76,3.03l19.28-4.03c0,0,0.77-17.79,0.77-21.93c0-4.11,1.12-17.93,1.12-17.93
			s0.5-1.86,0.5-3.37c0-1.51,0-3.36,0-3.36s1-0.89,1-3.02c0-2.13,1.32-3.06,0.26-4.15c-1.07-1.05,0.11-4.13,0.11-7.39
			c0-3.24,2.89-13.27,2.89-13.27s-1.24-6.15-1.44-7.6c-0.22-1.46-1.43-9.57-1.56-10.42c-0.15-0.83-1.58-8.26-2.02-9.77
			c-0.43-1.5-2.3-8.34-2.88-10.8C24.8,109.44,21.83,96.05,21.64,94.85z"/>
		<path class="st25" d="M132.07,101.02c0,0,2.85,0.87,5.77,12.14c2.93,11.28,7.7,45.05,8.44,50.95c0.75,5.93,2.84,23.32,3.27,27.51
			c0.43,4.17,0.59,30.83,0.09,35.58c-0.51,4.77,0.34,10.95-0.92,12.2c-1.25,1.24-2.44,1.24-2.44,1.24s-10.54-2.49-14.86-2.49
			c-4.34,0-6.78-1.5-6.78-1.5s0.34-6.03-0.41-9.45c-0.76-3.43-3.27-25.41-3.27-27.9c0-2.53-4.36-20.81-4.36-20.81
			s1.57-21.84,4.52-34.76c2.96-12.9,7.39-30.81,8.14-33.44c0.78-2.62,1.82-6.12,2.23-6.67C131.89,103.1,132.41,102.09,132.07,101.02
			z"/>
		<path class="st133" d="M74.52,257.17c0,0-13.72-7.24-15.22-7.6c-1.5-0.38-1.39,1.68,1.56,3.26c2.94,1.56,4.45,4.15,4.45,4.15
			s-11.95-1.44-13.4-2.23c-1.46-0.8-4.39-1.42-4.01-3.85c0.38-2.45,1.25-7.16,0.44-10.41c-0.81-3.26-4.58-6.09-0.38-8.14
			c4.18-2.08,3.06-3.46,2.08-3.46c-1.01,0-6.98-1.74-4.46-2.43c2.5-0.72,7.7,0.6,8.02,0.31c0.31-0.31,4.64,1.56,2.32-2.33
			c-2.32-3.89-7.33,0.25-5.58-7.28c1.75-7.5,3.08-7.82,4.84-11.34c1.74-3.5-1.38-2.69-2.33-5.28c-0.95-2.55,4.26,2.09,7.07,3.46
			c2.83,1.4,3.95,1.07,1.89-3.56c-2.06-4.64-4.83-9.08-6.52-13.21c-1.69-4.15,1.62-1.58,0.63-7.47c-1-5.88-5.01-12.15-1.95-18.47
			c3.07-6.32-5.2-17.92-1.88-23.95c3.32-6.01,4.71-9.58,4.4-4.07c-0.32,5.51-2.52,8.02-0.19,14.22c2.32,6.21,1.25,13.66,3.12,18.99
			c1.88,5.34,1.94,8.08,2.39,9.14c0.44,1.07-1.08-22.75-1.69-27.94c-0.64-5.21,1.99-12.17,1.32-21.12
			c-0.71-8.97,0.81-11.97,1.79-8.85c1.01,3.14,1.01,3.58,3.26,6.47c2.27,2.88,5.18-7.55,6.46-6.27c1.28,1.28,2.32,6.78,2.3,12.45
			c-0.02,5.69,0.41,34.76-0.16,40.94c-0.57,6.19-0.1,27.4-0.12,33.82c-0.02,6.45-0.08,24.74-0.12,27.25
			C74.83,234.89,75.01,256.68,74.52,257.17z"/>
		<path class="st133" d="M84.02,253.72c0,0,10.51-10.45,12.01-10.83c1.5-0.38,1.37,1.68-1.58,3.27c-2.95,1.56-4.43,4.14-4.43,4.14
			s11.94-1.42,13.4-2.21c1.44-0.81,4.39-1.42,4.02-3.87c-0.38-2.46-1.27-7.15-0.44-10.41c0.81-3.27,4.57-6.07,0.36-8.15
			c-4.2-2.06-3.06-3.44-2.06-3.44c1,0,6.96-1.76,4.44-2.45c-2.51-0.69-7.7,0.64-8.02,0.32c-0.31-0.32-4.61,1.56-2.31-2.31
			c2.31-3.89,7.33,0.23,5.57-7.28c-1.74-7.53-3.06-7.84-4.82-11.36c-1.76-3.49,1.38-2.67,2.31-5.26c0.94-2.56-4.25,2.08-7.08,3.47
			c-2.83,1.38-3.95,1.06-1.88-3.59c2.06-4.62,4.82-9.09,6.5-13.21c1.69-4.15-1.62-1.56-0.61-7.45c1.01-5.89,5-12.17,1.94-18.49
			c-3.06-6.33,5.22-17.92,1.9-23.93c-3.33-6.03-4.72-9.59-4.41-4.07c0.32,5.51,2.51,8.02,0.2,14.23c-2.3,6.18-1.26,13.64-3.14,18.96
			c-1.87,5.34-1.93,8.11-2.37,9.15c-0.42,1.07,1.07-22.74,1.69-27.94c0.61-5.2-2.01-12.15-1.32-21.12c0.69-8.95-0.8-11.95-1.82-8.83
			c-1.01,3.14-1.01,3.58-3.27,6.46c-2.25,2.88-5.18-7.54-6.45-6.28c-1.29,1.3-2.32,6.79-2.3,12.47c0.04,5.67,2.48,98.92,2.49,101.4
			C82.58,227.62,83.52,253.25,84.02,253.72z"/>
		<path class="st133" d="M73.73,87.22l-7.72,7.83c0,0-4.95-0.32-2.13-2.13c2.82-1.81,2.82-3.7,2.82-3.7s-1.19,0.55-2.63-0.88
			c-1.44-1.45,0.76-2.49,1.62-3.38c0.87-0.87-1.75-1.13-2.74-2.12c-1-1-0.63-2.64,1.13-2.64c1.73,0,3.86-0.67,3.86-0.67l4.24,4.24
			l1.48,1.39l1.09,1.05L73.73,87.22z"/>
		<path class="st133" d="M90.05,80.12c0,0,2.31,0.67,1.94,1.72c-0.38,1.04-2.13,1.87-2.47,1.87s3.02-1.06,2.63,0.43
			c-0.4,1.46-3.54,2.35-3.54,2.35s4.02,1.26,3.84,2.98c-0.16,1.7,0.34,0.95-0.16,2.71c-0.51,1.76-2.95,0.38-4.42-0.55
			c-1.46-0.91-0.5,1.84-0.5,1.84l-0.46,0.4l-5.15-5.38l-1.8-1.79L90.05,80.12z"/>
		<path class="st133" d="M118.32,165.61l-1.15,12.29l3.46,15.32c0,0,1.09,8.04,1.18,8.95c0.08,0.89,0.99,9.33,0.99,9.33l1.13,9.17
			l0.67,4.8c0,0,3.34,4.03,4.39,2.98c1.05-1.05-0.41-1.51-2.25-5.43c-1.84-3.91-2.02-6.76-2.02-6.76s5.02,6.84,5.86,6
			c0.84-0.82-3.68-5.59-4.1-8.18c-0.41-2.59-1.66-10.79-1.66-10.79s3.68,4.78,6.5,6.62c2.86,1.82,1.81,0.77-0.79-1.8
			c-2.59-2.59-5.39-6.22-5.39-6.22l-1.84-4.01c0,0,5.59,3.26,7.94,3.83c2.35,0.59-6.43-3.5-7.09-6.1
			c-0.68-2.59-1.42-10.35-2.09-13.11c-0.68-2.77,0.85-3.42,0.34-6.18c-0.49-2.76-2.33-2.36-2.33-4.61s0.07-5.36,0.07-5.36
			l-1.55-3.16L118.32,165.61z"/>
		<path class="st133" d="M145.39,166.3c0,0,2.07,8.68-0.84,8.68c-2.93,0-3.4-2.97-4.02-3.6c-0.64-0.63-0.33,0.34-2.69,2.66
			c-2.33,2.36-4.5,2.36-2.33-1.49c2.18-3.83,4.43-3.5,1.43-6.5c-3-3.01-3.55-6.98,0.75-2.69c4.31,4.31,5.33,4.27,5.33,4.27
			l2.04-3.99L145.39,166.3z"/>
		<path class="st133" d="M112.77,186.54c0,0-5,4.98-6.02,5.98c-0.99,1.01-4.16,5.52-0.99,5.52c3.17,0,10.46-7.32,10.46-7.32
			l0.04-4.18H112.77z"/>
		<path class="st133" d="M37.92,184.09c0,0,3.28-4.34,7.98,0.38c4.7,4.7,13.41,10.76,13.41,10.76s-9.46-2.43-11.77-4.74
			c-2.34-2.33-9.58-1.15-9.58-1.15L37.92,184.09z"/>
		<path class="st133" d="M30.15,97.88c0,0-4.99-1.38-2.99,2.98c1.99,4.4,3.26,10.79,3.26,12.92c0,2.14,2.89,2.37,2.17-0.06
			c-0.67-2.45-1.04-7.45-1.8-10.1C30.03,101,30.15,97.88,30.15,97.88z"/>
		<path class="st133" d="M16.74,102.25c0,0-2.63,0-1.25,6.4c1.39,6.39,3.89,14.79,4.53,16.91c0.62,2.14,5,1.51,3-1.87
			c-2.02-3.38-2.39-6.39-3.52-9.9c-1.12-3.52-1.12-9.53-1.12-10.53C18.38,102.25,16.74,102.25,16.74,102.25z"/>
		<path class="st133" d="M27.49,128.33c0,0-4.4,2.11-2.89,8.02c1.49,5.88,4.01,18.42,4.01,19.66c0,1.24-0.74,8.28-0.74,8.28
			s-1.77,0-2.75,0c-1.03,0,0.98,1.01,2,2c1,1.02,3.12,6.77-0.76,6.03c-3.89-0.76-4.9-0.49-5.51-0.49c-0.63,0,1.76,1.87,3.88,1.87
			c2.13,0-1.13,0.49-2.26,1.62c-1.12,1.13,3.03,1.62,3.03,1.62s0,2.26-2.88,3.64c-2.89,1.38,2.63,0.87,2.63,0.87
			s0.12,7.53-2.51,7.53s-4.89-1.01-4.89-1.01s2.38,2.53,4.89,2.53s2.51,1.36,2.51,1.36s-6.52,0.14-6.52,1.13
			c0,1.01,0,0.78,3.51,0.78c3.5,0,4.08,0.55,4.08,0.55s-0.46,3.69-4.58,6.19c-4.13,2.5-5.38,3.88-5.38,3.88s4.31,1.44,6.27-0.49
			c1.94-1.94,2.92-2.94,2.92-2.94s-0.92,7.22-1.68,7.96c-0.75,0.75-8.77,1.13-8.77,2.11c0,1,6.13,1.15,7.39,1.15
			c1.26,0,4.13-1.39,4.13-3.52c0-2.13,1.05-20.77,1.15-22.15c0.13-1.43,0.61-6.69,0.61-7.42c0-0.75,0.99-3.06,0.99-3.52
			c0.02-0.45,0.36-1.99,0.5-2.58c0.15-0.61-0.14-1.46-0.36-1.98c-0.22-0.52-0.24-2.16-0.24-2.41c0-0.26,0.45-5.36,0.63-6.41
			c0.17-1.09,0.91-4.68,1.21-5.85c0.31-1.17,1.43-5.43,1.43-5.43s-0.18-2.24-0.44-3.2c-0.25-0.98-1.38-8.1-1.38-8.1
			s-1.28-8.92-1.5-9.74C28.97,129.02,27.49,128.33,27.49,128.33z"/>
	</g>
</g>
</svg>
