<?xml version="1.0" encoding="utf-8"?>
<!-- Generator: Adobe Illustrator 23.0.6, SVG Export Plug-In . SVG Version: 6.00 Build 0)  -->
<svg version="1.1" id="Capa_1" xmlns="http://www.w3.org/2000/svg" xmlns:xlink="http://www.w3.org/1999/xlink" x="0px" y="0px"
	 viewBox="0 0 152.79 186.83" style="enable-background:new 0 0 152.79 186.83;" xml:space="preserve">
<style type="text/css">
	.st0{fill:#F0AC80;}
	.st1{fill-rule:evenodd;clip-rule:evenodd;fill:#D68B62;}
	.st2{fill-rule:evenodd;clip-rule:evenodd;fill:#E8A073;}
	.st3{fill:#BFE9FF;}
	.st4{fill:#A8E1FF;}
	.st5{fill:#A3DEFF;}
	.st6{fill:#B0E3FF;}
	.st7{fill:#FF5955;}
	.st8{fill:#FF0000;}
	.st9{fill:#3A8A00;}
	.st10{fill:#417400;}
	.st11{fill:#4D4D4D;}
	.st12{fill:#333333;}
	.st13{fill:#1B1464;}
	.st14{fill:#271D91;}
	.st15{fill:#B2B2B2;stroke:#B2B2B2;stroke-width:0.25;}
	.st16{fill:#8C8C8C;stroke:#5A3D1C;stroke-width:0.25;}
	.st17{fill:#A6A6A6;}
	.st18{fill:#FFFFFF;stroke:#B2B2B2;stroke-width:0.25;}
	.st19{fill:#EBEBEB;}
	.st20{stroke:#000000;stroke-width:0.25;}
	.st21{fill:#8C8C8C;stroke:#003642;stroke-width:0.25;}
	.st22{fill:#7A7A7A;}
	.st23{fill:#666666;stroke:#666666;stroke-width:0.25;}
	.st24{fill:#141414;}
	.st25{fill:#FFFFFF;stroke:#B2B2B2;}
	.st26{fill:#EDEDED;}
	.st27{fill:#694721;}
	.st28{fill:#5A3D1C;}
	.st29{fill:#006631;}
	.st30{fill:#00592B;}
	.st31{fill:#035B73;stroke:#003642;stroke-width:0.25;}
	.st32{fill:#02495C;stroke:#003642;stroke-width:0.25;}
	.st33{fill:#02495C;}
	.st34{fill:#820000;stroke:#730000;}
	.st35{fill:#5C0000;stroke:#5A3D1C;stroke-width:0.25;}
	.st36{fill:#780000;}
	.st37{fill:#006B33;stroke:#003642;stroke-width:0.25;}
	.st38{fill:#00592B;stroke:#003642;stroke-width:0.25;}
	.st39{fill:#DB8C3D;stroke:#003642;stroke-width:0.25;}
	.st40{fill:#C2803D;}
	.st41{fill:#DB6D00;stroke:#003642;stroke-width:0.25;}
	.st42{fill:#3F3F3F;stroke:#3F3F3F;stroke-width:0.25;}
	.st43{stroke:#3F3F3F;stroke-width:0.25;}
	.st44{fill:#262626;}
	.st45{fill:#5A3D1C;stroke:#003642;stroke-width:0.25;}
	.st46{fill:#52361A;}
	.st47{fill:#422C15;stroke:#003642;stroke-width:0.25;}
	.st48{fill:#FFFFFF;stroke:#E8E8E8;}
	.st49{fill:#E3E3E3;}
	.st50{fill:#B2B2B2;}
	.st51{fill:#FFBF00;}
	.st52{fill:#F5B700;}
	.st53{fill:#EBAF00;stroke:#D19D00;stroke-width:0.25;}
	.st54{fill:#D010B1;}
	.st55{fill:#A60D8C;}
	.st56{fill:#00A33D;}
	.st57{fill:#008033;}
	.st58{fill:#00D4FF;}
	.st59{fill:#00ABFF;}
	.st60{fill:#0A0A0A;stroke:#000000;}
	.st61{fill:#666666;stroke:#000000;stroke-width:0.25;}
	.st62{stroke:#000000;}
	.st63{fill:#00B800;}
	.st64{fill:#009C00;}
	.st65{fill:#3F3F3F;}
	.st66{fill:#73A334;stroke:#8CC63F;stroke-width:0.1;}
	.st67{fill:#8CC63F;stroke:#8CC63F;stroke-width:0.1;}
	.st68{fill:#545454;}
	.st69{fill:#7558A4;}
	.st70{fill:#7536D1;}
	.st71{fill:#E2BB95;stroke:#D5AF8C;}
	.st72{fill:#D5AF8C;}
	.st73{fill:#E2BB95;stroke:#D5AF8C;stroke-width:0.5;}
	.st74{fill:#9E2231;}
	.st75{fill:#B72837;}
	.st76{fill:#FFE085;}
	.st77{fill:#EBCE7A;}
	.st78{fill:url(#SVGID_1_);}
	.st79{fill:url(#SVGID_2_);}
	.st80{fill:url(#SVGID_3_);}
	.st81{fill:#D00204;}
	.st82{fill:#D10507;}
	.st83{fill:#D3090B;}
	.st84{fill:#D40C0E;}
	.st85{fill:#D51012;}
	.st86{fill:#D71315;}
	.st87{fill:#D81718;}
	.st88{fill:#D91A1C;}
	.st89{fill:#DB1E1F;}
	.st90{fill:#DC2122;}
	.st91{fill:#DD2526;}
	.st92{fill:#DF2829;}
	.st93{fill:#E02C2D;}
	.st94{fill:#E22F30;}
	.st95{fill:#E33333;}
	.st96{fill:#E43637;}
	.st97{fill:#E63A3A;}
	.st98{fill:#E73D3E;}
	.st99{fill:#E84141;}
	.st100{fill:#EA4444;}
	.st101{fill:#EB4848;}
	.st102{fill:#EC4B4B;}
	.st103{fill:#EE4F4E;}
	.st104{fill:#EF5252;}
	.st105{fill:#F05655;}
	.st106{fill:#F25A59;}
	.st107{fill:#F35D5C;}
	.st108{fill:#047A04;}
	.st109{fill:#57B328;}
	.st110{fill:#507F29;}
	.st111{fill:#DDBB06;}
	.st112{fill:#A80000;}
	.st113{fill:#9E0000;}
	.st114{fill:#8F0000;stroke:#610000;stroke-width:0.25;}
	.st115{fill:#5A3D1C;stroke:#805426;}
	.st116{fill:#63421F;}
	.st117{fill:#5A3D1C;stroke:#6B4620;}
	.st118{fill:url(#SVGID_4_);}
	.st119{fill:#171717;stroke:#000000;}
	.st120{fill:#212121;}
	.st121{fill:url(#SVGID_5_);}
	.st122{fill:#3F3F3F;stroke:#3F3F3F;}
	.st123{fill:#8C8C8C;stroke:#3F3F3F;}
	.st124{fill:#808080;}
	.st125{fill:url(#SVGID_6_);}
	.st126{fill:none;}
	.st127{fill:#D4D4D4;}
	.st128{fill:#D4D4D4;stroke:#B8B8B8;stroke-width:0.5;}
	.st129{fill:#D4D4D4;stroke:#B8B8B8;stroke-width:0.2;}
	.st130{fill:#C7C7C7;}
	.st131{fill:#DBF8FF;stroke:#7DBDCC;stroke-width:0.25;}
	.st132{fill:#C2F3FF;}
	.st133{fill:#F2F2F2;}
	.st134{fill:url(#SVGID_7_);stroke:#000000;}
	.st135{fill:#42210B;stroke:#000000;}
	.st136{fill:#C69C6D;stroke:#000000;}
	.st137{fill:#93278F;stroke:#000000;}
	.st138{fill:#589F3E;}
	.st139{fill:#4D8F39;}
	.st140{fill:#963528;}
	.st141{fill:#AC3A2D;}
	.st142{fill:#211915;}
	.st143{fill:#444242;}
	.st144{fill:#1A1A1A;}
	.st145{fill:#FFFFFF;}
	.st146{fill:#2E2E2E;}
	.st147{fill:#363636;}
	.st148{fill:#666666;}
	.st149{fill:#C69C6D;}
	.st150{fill:#B38D62;}
	.st151{fill:#A67C52;}
	.st152{fill:#8C6239;}
	.st153{fill:#9E10D2;}
	.st154{fill:#8210D2;}
	.st155{fill:#6B6B6B;}
	.st156{fill:#008C08;}
	.st157{fill:#00A308;}
	.st158{fill:#EC2024;}
	.st159{fill:#E31E26;}
	.st160{fill:#BED63A;}
	.st161{fill:#EC1C24;}
	.st162{fill:#00ADEE;}
	.st163{fill:#2E3191;}
</style>
<g>
	<g>
		<path class="st0" d="M149.69,213.45c-0.45-14.13-2.35-52.05-2.75-57.09c-0.44-5.43-4.12-19.67-5.66-33.29
			c-1.63-14.29-6.99-25.02-11.01-31.72c-0.29-0.48-0.64-0.86-1.04-1.18c-0.03-0.04-0.05-0.07-0.08-0.11
			c-0.11-0.09-1.12-1.42-1.23-1.51c-3.75-3.13-11.72-7.47-15.71-9.1c-2.82-1.47-9.24-5.15-11.6-6.37c-3.66-1.89-8.69-4.13-9.19-4.97
			c-1.34-2.27-1.83-6.79-1.92-10.79c1.55-2.2,2.65-4.27,2.82-5.58c0.16-1.26,0.47-5.82,0.47-5.82s0.47,0.56,1.19,0.53
			c1.91-0.07,2.37-1.97,3.01-3.28c0.97-1.97,2.28-5.01,2.36-8.19c0.06-2.29,0.09-5.97-4.11-2.43c0,0-0.18-10.96-0.3-15.39
			C94.82,12.38,94.57,4.99,80.88,0.8c-0.77-0.24-4.16-0.8-7.46-0.8c-3.08,0.01-6.08,0.58-6.8,0.8c-3.63,1.11-6.3,2.79-8.98,5.17
			c-3.65,3.25-5.11,6.41-5.23,11.2c-0.11,4.44-0.21,15.39-0.21,15.39c-4.2-3.54-4.24,0.77-4.03,3.1c0.28,3.17,1.24,5.54,2.21,7.51
			c0.64,1.31,1.33,3.21,3.24,3.28c0.72,0.03,1.19-0.53,1.19-0.53s0.31,4.56,0.48,5.82c0.15,1.14,1.02,2.91,2.29,4.84
			c0.09,4.21-0.21,9.22-1.79,11.53c-0.38,0.55-5.81,3.05-9.44,4.97c-0.37,0.2-0.83,0.45-1.34,0.74c0,0-0.01-0.01-0.01-0.01
			s-8.06,4.24-11.98,5.7c-2.97,1.11-8.45,4.18-12.55,7.06c-0.89,0.47-1.81,1.14-2.76,2.09c-0.03,0.02-0.07,0.06-0.01,0.01
			c-0.19,0.18-0.33,0.35-0.44,0.51c-5.75,6.5-7.84,23.64-7.63,31.27c0.23,7.84-3.04,34.17-3.69,45.04
			C5.27,176.4,3.1,205.78,3.1,205.78l19.72,2.12c0,0,5.93-42.99,7.27-49.14c1.52-6.96,0.71-32.59,7.71-46.59s0,0,0,0
			c2.4,1.39,3.11,13.52,3.04,27.03c-0.07,14.4,61.67,9.89,62.96,1.97c1.14-7,4.46-27.72,4-31c2.58,3.65,10.26,18.56,11.08,21.16
			c1.09,3.48,3.05,19.15,3.48,30.04c0.44,10.88,2.62,27.2,2.62,27.2l4.13,25.25L149.69,213.45z"/>
	</g>
	<g>
		<path class="st158" d="M40.57,140.28c0,0,0.59,29.39-2.04,37.24c-2.62,7.86-5.8,21.76-7.74,31.65
			c-1.94,9.89,93.98,14.34,91.45,0.37c-2.53-13.95-4.26-22.09-8.72-31c-4.47-8.93-5.25-17.06-5.05-21.34
			c0.2-4.27,3.79-19.88,4.17-22.21c0.39-2.31-14.06-3.01-17.17-3.38c-3.08-0.4-51.17-0.4-51.17-0.4L40.57,140.28z"/>
		<path d="M37.12,72.18h2.81c0,0-1.93,32.97-2.23,33.83c-0.29,0.88-0.77,4.66-0.77,4.66l-3.69-0.19c0,0,0.88-2.13,1.46-6.01
			c0.58-3.88,2.23-16.08,2.32-17.46C37.12,85.65,37.12,72.18,37.12,72.18z"/>
		<polygon points="111.19,73.73 108.2,73.34 108.28,73.63 108.89,107.38 112.17,106.99 		"/>
		<path class="st158" d="M75.91,119.41c0,0,14.45-12.91,24.62-13.5c10.18-0.57,13.96,0.66,15.13,3.21c1.15,2.5,4.16,18.5-1.65,24.53
			c-5.82,6.01-7.57,5.81-7.57,5.81s-9.61,2.15-17.65-2.03c-5.19-2.71-8.92-5.05-10.08-6.11c-1.16-1.06-2.92-2.6-2.92-2.6
			s-8.91,5.03-11.82,6.01c-2.9,0.96-13.78,7.17-19.78,6.59c-6-0.58-8.62-8.15-9.4-11.53c-0.77-3.4-3.2-17.95-1.07-20.46
			c2.15-2.53,9.21-2.81,15.62-1.56c6.38,1.26,20.95,8.74,24.14,10.48C76.69,119.97,75.91,119.41,75.91,119.41z"/>
		<path class="st159" d="M40.87,140.13c0,0,21.74-4.64,26.09-6.69c4.36-2.03,8.56-6.11,8.56-6.11s3.76,3.72,6,5.35
			c7.99,5.7,20.03,6.05,22.75,6.72c2.71,0.68-11.09,1.06-13.13,0.85c-4.32-0.47-10.41-5.19-14.86-4.63
			c-4.46,0.61-7.6,2.55-14.48,4.29c-6.89,1.77-14.3,2.75-16.14,2.35C43.82,141.89,40.87,140.13,40.87,140.13z"/>
		<path class="st159" d="M64.77,141.8c0,0,10.75,0.47,15.5,0.2c4.74-0.3,7.67-0.3,7.67-0.3s-3.58,1.45-5.52,1.94
			c-1.95,0.49-16.09,0.6-16.87,0.2c-0.77-0.39-2.34-1.64-2.34-1.64L64.77,141.8z"/>
		<path class="st159" d="M54.68,146.63c0,0,14.44,0.69,17.64,0.88c3.2,0.2,9.01,0.69,13.67,0c4.66-0.68,8.63-0.68,8.63-0.68
			s-14.74,4.07-15.9,4.07c-1.16,0-19.21-1.65-21.23-2.23C55.44,148.09,54.68,146.63,54.68,146.63z"/>
		<path class="st158" d="M40.57,140.28c0,0,0.59,29.39-2.04,37.24c-2.62,7.86-7.42,31.66-9.35,41.55
			c-1.94,9.89,95.6,4.45,93.07-9.52c-2.53-13.95-4.26-22.09-8.72-31c-4.47-8.93-5.25-17.06-5.05-21.34
			c0.2-4.27,3.79-19.88,4.17-22.21c0.39-2.31-14.06-3.01-17.17-3.38c-3.08-0.4-51.17-0.4-51.17-0.4L40.57,140.28z"/>
		<path d="M37.12,72.18h2.81c0,0-1.93,32.97-2.23,33.83c-0.29,0.88-0.77,4.66-0.77,4.66l-3.69-0.19c0,0,0.88-2.13,1.46-6.01
			c0.58-3.88,2.23-16.08,2.32-17.46C37.12,85.65,37.12,72.18,37.12,72.18z"/>
		<polygon points="111.19,73.73 108.2,73.34 108.28,73.63 108.89,107.38 112.17,106.99 		"/>
		<path class="st158" d="M75.91,119.41c0,0,14.45-12.91,24.62-13.5c10.18-0.57,13.96,0.66,15.13,3.21c1.15,2.5,4.16,18.5-1.65,24.53
			c-5.82,6.01-7.57,5.81-7.57,5.81s-9.61,2.15-17.65-2.03c-5.19-2.71-8.92-5.05-10.08-6.11c-1.16-1.06-2.92-2.6-2.92-2.6
			s-8.91,5.03-11.82,6.01c-2.9,0.96-13.78,7.17-19.78,6.59c-6-0.58-8.62-8.15-9.4-11.53c-0.77-3.4-3.2-17.95-1.07-20.46
			c2.15-2.53,9.21-2.81,15.62-1.56c6.38,1.26,20.95,8.74,24.14,10.48C76.69,119.97,75.91,119.41,75.91,119.41z"/>
		<path class="st159" d="M40.87,140.13c0,0,21.74-4.64,26.09-6.69c4.36-2.03,8.56-6.11,8.56-6.11s3.76,3.72,6,5.35
			c7.99,5.7,20.03,6.05,22.75,6.72c2.71,0.68-11.09,1.06-13.13,0.85c-4.32-0.47-10.41-5.19-14.86-4.63
			c-4.46,0.61-7.6,2.55-14.48,4.29c-6.89,1.77-14.3,2.75-16.14,2.35C43.82,141.89,40.87,140.13,40.87,140.13z"/>
		<path class="st159" d="M64.77,141.8c0,0,10.75,0.47,15.5,0.2c4.74-0.3,7.67-0.3,7.67-0.3s-3.58,1.45-5.52,1.94
			c-1.95,0.49-16.09,0.6-16.87,0.2c-0.77-0.39-2.34-1.64-2.34-1.64L64.77,141.8z"/>
		<path class="st159" d="M54.68,146.63c0,0,14.44,0.69,17.64,0.88c3.2,0.2,9.01,0.69,13.67,0c4.66-0.68,8.63-0.68,8.63-0.68
			s-14.74,4.07-15.9,4.07c-1.16,0-19.21-1.65-21.23-2.23C55.44,148.09,54.68,146.63,54.68,146.63z"/>
		<path class="st159" d="M40.69,140.11c0,0,1,24.17-0.75,29.03c-1.74,4.84-5.61,24.72-6.69,29.16c-0.35,1.47-2.12,10.61-2.12,10.61
			l3.75,0.47c0.47-1.44,0.8-2.51,0.89-3c0.58-2.92,2.91-15.32,4.85-17.08c1.94-1.75,6.02-5.91,6.99-6.59c0.97-0.7,0.97-1.84,0-3.21
			c-0.97-1.35-4.46-13.58-4.46-14.73C43.14,163.61,40.69,140.11,40.69,140.11z"/>
	</g>
</g>
<g>
	<g>
		<path class="st163" d="M0,3.46c0,0,0.08-0.22,0.21-0.63V2.56C0.08,3.14,0,3.46,0,3.46z"/>
	</g>
</g>
</svg>
