<?xml version="1.0" encoding="utf-8"?>
<!-- Generator: Adobe Illustrator 23.0.6, SVG Export Plug-In . SVG Version: 6.00 Build 0)  -->
<svg version="1.1" id="Capa_1" xmlns="http://www.w3.org/2000/svg" xmlns:xlink="http://www.w3.org/1999/xlink" x="0px" y="0px"
	 viewBox="0 0 152.79 186.83" enable-background="new 0 0 152.79 186.83" xml:space="preserve">
<g>
	<g>
		<path fill="#F0AC80" d="M104.72,76.19c-3.81-1.97-9.05-4.3-9.57-5.18c-2.22-3.76-2.21-13.48-1.8-17.48h-1.01H60.59h-1.01
			c0.4,4,0.92,13.87-1.54,17.48c-0.39,0.58-6.05,3.17-9.83,5.18c-3.14,1.66-11.71,6.88-12.87,7.31c0.3,0.39,4.09,11.7,8.1,17.76
			c1.84,2.78,2.7,5.47,5.05,7.78c2.43,2.38,5.21,4.34,8.26,5.68c3.67,1.61,7.6,2.4,11.55,2.64c2.7,0.17,5.44,0.14,8.16-0.08
			c2.72,0.23,5.46,0.25,8.16,0.08c3.95-0.25,7.88-1.03,11.55-2.64c3.05-1.34,5.83-3.3,8.26-5.68c2.36-2.31,3.12-5,4.97-7.78
			c4.01-6.06,8.39-17.43,8.69-17.82C116.91,83.05,107.7,77.73,104.72,76.19z"/>
		<g>
			<path fill="#F0AC80" d="M125.63,95.53c-0.11-0.09-6.89-2.91-7-3c-4.13-3.44,1.37-8.53-2.5-9.97c-4.08-1.52-21.55,3.81-37.23,3.82
				c-0.04,0-1.38,0.03-2.27,0.05c-0.89-0.02-2.23-0.05-2.27-0.05c-15.69-0.01-27.57-9.43-27.57-9.43s-8.39,4.41-12.48,5.94
				C30.45,84.32,130.85,102.32,125.63,95.53z"/>
		</g>
		<path fill="#F0AC80" d="M99.13,33.98c0,0-0.19-11.41-0.31-16.03C98.7,12.96,98.44,5.27,84.18,0.9c-0.8-0.25-4.33-0.84-7.76-0.83
			c-3.21,0.01-6.33,0.6-7.08,0.83c-3.78,1.16-6.57,2.9-9.35,5.38c-3.8,3.38-5.33,6.68-5.45,11.67c-0.12,4.62-0.23,16.03-0.23,16.03
			c-4.37-3.68-4.41,0.8-4.2,3.23c0.29,3.3,1.29,5.77,2.3,7.83c0.67,1.37,1.38,3.34,3.37,3.42c0.75,0.03,1.24-0.55,1.24-0.55
			s0.32,4.75,0.49,6.06c0.51,3.9,9.13,14.86,13.98,15.83c1.47,0.29,9.06,0.3,10.43,0.04c4.79-0.93,13.64-11.86,14.16-15.87
			c0.17-1.31,0.49-6.06,0.49-6.06s0.49,0.58,1.24,0.55c1.99-0.08,2.47-2.05,3.14-3.42c1.01-2.05,2.38-5.21,2.46-8.53
			C103.47,34.12,103.51,30.3,99.13,33.98z"/>
		<g>
			<g>
				<path fill-rule="evenodd" clip-rule="evenodd" fill="#D68B62" d="M54.96,41.37c0.11-0.01-0.87-3.58-1.45-5
					c-0.63-1.54-1.27-1.87-1.66-1.85c-0.74,0.04-1,3.47-1,3.47s0.54-3.68,2.2-0.72C53.5,38.1,54.83,41.38,54.96,41.37z"/>
				<path fill-rule="evenodd" clip-rule="evenodd" fill="#D68B62" d="M52.36,37.9c0.05-0.24,0.3-1.65,0.5-1.66
					c0.24-0.01,0.24,1.01,0.19,1.17c-0.16,0.5-0.32,1-0.43,1.54c-0.11,0.56-0.12,1.1-0.11,1.68c0.01,0.51,0.12,1.11,0.22,1.6
					c-0.39-0.38-0.49-1.9-0.5-2.47C52.21,38.77,52.25,38.46,52.36,37.9z"/>
				<path fill-rule="evenodd" clip-rule="evenodd" fill="#E8A073" d="M55.32,44.25c-0.03-0.09-0.56-1.27-0.6-1.36
					c-0.38-0.87,0.43,0.25,0.51,0.35c0.4,0.56,0.69,0.87,0.97,1.35c0.24,0.41,0.12,1.04-0.43,1.1c-0.46,0.05-1.04-0.39-1.23-1.04
					C54.5,44.56,55.73,45.37,55.32,44.25z"/>
			</g>
			<g>
				<path fill-rule="evenodd" clip-rule="evenodd" fill="#D68B62" d="M98.58,41.37c-0.11-0.01,0.87-3.58,1.45-5
					c0.63-1.54,1.27-1.88,1.66-1.85c0.74,0.04,1,3.47,1,3.47s-0.54-3.68-2.2-0.73C100.04,38.1,98.71,41.38,98.58,41.37z"/>
				<path fill-rule="evenodd" clip-rule="evenodd" fill="#D68B62" d="M101.18,37.9c-0.05-0.24-0.3-1.65-0.5-1.66
					c-0.24-0.01-0.24,1.01-0.19,1.17c0.16,0.5,0.32,1,0.43,1.54c0.11,0.56,0.12,1.1,0.11,1.68c-0.01,0.51-0.12,1.11-0.22,1.6
					c0.39-0.38,0.49-1.9,0.5-2.47C101.33,38.77,101.29,38.46,101.18,37.9z"/>
				<path fill-rule="evenodd" clip-rule="evenodd" fill="#E8A073" d="M98.22,44.25c0.03-0.09,0.56-1.27,0.6-1.36
					c0.38-0.87-0.43,0.25-0.51,0.35c-0.4,0.56-0.69,0.87-0.97,1.35c-0.24,0.41-0.12,1.04,0.43,1.1c0.46,0.05,1.04-0.39,1.24-1.04
					C99.03,44.56,97.81,45.37,98.22,44.25z"/>
			</g>
		</g>
	</g>
	<g>
		<g>
			<path fill="#F0AC80" d="M117.45,75.76c2.49,0.93,6.92,7.62,7.71,8.42c0.02,0.02,2.73,1.56,2.8,1.71c3,6.43,9.23,17.83,9.04,24.23
				c-0.2,6.57,2.72,28.01,3.26,37.13c0.53,9.13,1.92,23.82,2.09,34.41c0.07,4.59,0.81,12.51,0.81,12.51l-16,1
				c0,0-0.82-4.47-1.06-8.62c-0.36-6.2-3.66-38.26-4.45-44.18c-1.21-9.19-2.18-28.36-2.18-28.36S115.83,75.15,117.45,75.76z"/>
		</g>
		<g>
			<path fill="#F0AC80" d="M35.34,73.11c-2.49,0.93-6.92,7.62-7.71,8.42c-0.02,0.02-2.73,1.56-2.8,1.71
				c-3,6.43-9.23,17.83-9.04,24.23c0.2,6.57-2.72,28.01-3.26,37.13c-0.53,9.13-1.92,23.82-2.09,34.41
				c-0.07,4.59-0.81,12.51-0.81,12.51l16,1c0,0,0.82-4.47,1.06-8.62c0.36-6.2,3.66-38.26,4.45-44.18
				c1.21-9.19,2.18-28.36,2.18-28.36S36.96,72.5,35.34,73.11z"/>
		</g>
		<g>
			<path fill="#8C8C8C" stroke="#003642" stroke-width="0.25" d="M95.31,64.48c0,0,6.93,2.71,8.03,3.63
				c1.09,0.93,6.95,10.74,6.95,16.5c0,5.75,0.45,9.65,0.45,13.94c0,4.27-0.07,23.39-0.45,27.1c-0.38,3.71,1.06,21.09,1.06,24.17
				c0,3.07,2.6,9.49,2.6,11.98c0,2.5,2.27,11.41,2.27,17.27c0,5.84,0,13.13,0,13.13s-29.61-0.96-42.65-0.96
				c-13.05,0-36.2,1.83-36.2,1.83s-2.49-5.94-0.9-13.42c1.59-7.48,6.69-29.82,6.69-33.27c0-3.47,0.11-17.56,0.11-17.56
				s-1.13-28.47-1.13-33.36c0-4.9,0.34-14.19,2.6-19.47c2.28-5.27,5.06-9.16,5.57-9.58c0.51-0.44,5.22-1.22,5.22-1.22
				s19.39,7.74,27.78,5.05C91.72,67.54,95.31,64.48,95.31,64.48z"/>
			<path fill="#7A7A7A" d="M45.17,76.43c0.3,0,1.51,3.33,1.51,5.43c0,2.12-0.65,6.23,0.68,7.36c1.32,1.11,0.15,3.57-0.53,5.5
				c-0.68,1.91-1.32,13.97,0.37,15.4c1.7,1.44,3.18-0.7,5.67-1.6c2.5-0.89,2.95-1.59,0.39,2.11c-2.57,3.71-5.83,5.44-2.2,7.73
				c3.63,2.3,9.23,3.96,4.99,3.96c-4.24,0-7.41,0.07-7.41,0.07s3.18,4.54,5.45,7.55c2.27,3,5.98,2.42,6.28,2.42
				c0.3,0,0.3-0.51,0.3,0c0,0.51-0.75,3.14-5.9,2.12c-5.13-1.03-7.33-2.43-7.33,0.06c0,2.5-0.08,10.29,1.73,15.99
				c1.82,5.68,0.61,5.5,3.71,5.94c3.11,0.46-2.11-0.39-4.76,2.75c-2.65,3.14-6.73,7.03-1.59,10.11c5.14,3.07,6.2,3.07,7.63,3.07
				c1.44,0-7.18-0.7-8.69,2.1c-1.51,2.82-1.66,2.43-0.61,4.92c1.06,2.5-7.04,2.82-5.83,4.6c1.22,1.78,6.5,1.66,11.88,1.66
				c5.37,0,1.51,1.21-0.99,2.24c-2.49,1.02,2.58,3.19,3.64,3.19c1.06,0-0.03,0.86-0.03,0.86s-6.91,0.69-10.69,0.69
				c-3.8,0-5.57,0.09-5.57,0.09s-1.31-4.78-1.31-7.28c0-2.49,0.77-7.09,1.42-10.06c0.65-2.95,2.32-10.58,2.84-13.02
				c0.51-2.43,2.29-10.86,2.6-13.15c0.32-2.31,0.35-4.22,0.37-7.19c0.02-2.99,0.1-12.31,0.09-12.95
				c-0.01-0.64-0.57-15.05-0.57-15.05l-0.56-19.14c0,0,0.48-13.72,1.47-16.14c0.99-2.43,1.44-2.43,1.44-2.43L45.17,76.43z"/>
			<path fill="#7A7A7A" d="M110.45,92.76c0,0-2.05-0.19-2.05,5.65c0,5.86-0.23,9.6-2.62,11.6c-2.38,2.02-8.5,0.67-4.42,2.12
				c4.09,1.43,4.77,1.43,4.77,1.43s-0.9-0.2-2.89,2.45c-1.99,2.64-5.5,4.55-3.57,5.42c1.93,0.86,5,1.92,5,1.92s3.74,6.9,1.12,9.1
				c-2.6,2.21-2.72,4.32-6.8,4.32c-4.08,0-9.3-0.96-6.24,1.63c3.07,2.59,9.53,4.13,10.11,4.13c0.56,0,2.94,4.88,2.94,4.88
				s-5.22,1.06-7.48,2.97c-2.27,1.92,3.29,2.5,5.79,3.75c2.49,1.24,4.87,4.02,4.87,9.01c0,4.99-0.45,11.22-5.21,12.86
				c-4.77,1.62-5.62,2.35-5.62,2.35s1.65,2.92,6.41,1.49c4.77-1.44,8.28-0.96,8.28-0.96s0.35,5.84-0.69,6.71
				c-1.02,0.87,4.08,1.83,4.08,1.83s0.13-8.11-0.06-10.23c-0.19-2.12-1.34-9.52-1.56-10.81c-0.22-1.27-1-6.97-1.49-8.73
				c-0.5-1.77-1.66-5.58-1.76-7.99c-0.11-2.4-0.52-9.1-0.52-9.1l-0.59-11.67l0.32-10.76l0.12-13.89L110.45,92.76z"/>
			<path fill="#666666" stroke="#666666" stroke-width="0.25" d="M59.17,62.75c0,0,3.85,5.82,14.58,5.82
				c10.75,0,10.29,0.45,13.54-0.7c3.26-1.15,6.13-4.68,6.13-4.68l3.63,2.51c0,0-6.05,5.11-9.46,5.94c-3.4,0.83-11.19,1.35-14.3,1.09
				c-3.09-0.26-13.15-2.94-15.2-4.1c-2.04-1.14-2.56-3.45-2.56-3.45L59.17,62.75z"/>
			<path fill="#666666" stroke="#666666" stroke-width="0.25" d="M50.31,66.39c0,0-10.96,1.22-14.97,2.82
				c-4,1.61-13.09,17.08-13.09,17.08l-5.9,17.06l17.37,7.74l8.58-9.34C42.31,101.75,46.23,69.34,50.31,66.39z"/>
			<path fill="#666666" stroke="#666666" stroke-width="0.25" d="M102.67,67.7c0,0,10.96,1.62,14.97,3.23
				c4.01,1.6,7.11,7.23,9.68,10.23c2.57,3.01,9.31,23.9,9.31,23.9l-17.23,7.68l-8.72-9.28C110.68,103.46,108.82,71.92,102.67,67.7z"
				/>
		</g>
	</g>
</g>
</svg>
