<?xml version="1.0" encoding="utf-8"?>
<!-- Generator: Adobe Illustrator 23.0.6, SVG Export Plug-In . SVG Version: 6.00 Build 0)  -->
<svg version="1.1" id="Capa_1" xmlns="http://www.w3.org/2000/svg" xmlns:xlink="http://www.w3.org/1999/xlink" x="0px" y="0px"
	 viewBox="0 0 152.79 186.83" enable-background="new 0 0 152.79 186.83" xml:space="preserve">
<g>
	<g>
		<path fill="#F0AC80" d="M102.31,80.38c-3.68-1.88-4.46-8.55-5.29-9.07c-5.34-3.32-2.14-12.84-1.75-16.65h-0.98H63.6h-0.98
			c0.72,3.99,6.5,14.21-1.49,16.65c-0.65,0.2,3.53,7.94,4.44,11.93c1.37,6.04-10.48,11.02-11.61,11.43
			c0.29,0.37-10.83-0.31-6.96,5.46c1.78,2.65,2.61,5.21,4.89,7.41c2.35,2.27,5.04,4.13,7.99,5.41c3.55,1.54,7.35,2.28,11.17,2.52
			c2.61,0.16,5.26,0.14,7.89-0.08c2.63,0.22,5.28,0.24,7.89,0.08c3.82-0.23,7.62-0.98,11.17-2.52c2.95-1.28,5.64-3.14,7.99-5.41
			c2.28-2.2,3.02-4.76,4.8-7.41c3.88-5.77,1.86,10.15,2.15,9.78C109.59,117.61,105.2,81.85,102.31,80.38z"/>
		<path fill="#F0AC80" d="M101.73,34.1c0,0-0.19-11.41-0.31-16.03c-0.13-4.99-0.38-12.68-14.64-17.05c-0.8-0.25-4.33-0.84-7.76-0.83
			c-3.21,0.01-6.33,0.6-7.08,0.83c-3.78,1.16-6.57,2.9-9.35,5.38c-3.8,3.38-5.33,6.68-5.45,11.67C57.01,22.7,56.9,34.1,56.9,34.1
			c-4.37-3.68-4.41,0.8-4.2,3.23c0.29,3.3,1.29,5.77,2.3,7.83c0.67,1.37,1.38,3.34,3.37,3.42c0.75,0.03,1.24-0.55,1.24-0.55
			s0.32,4.75,0.49,6.06c0.51,3.9,9.13,14.86,13.98,15.83c1.47,0.29,9.06,0.3,10.43,0.04c4.79-0.93,13.64-11.86,14.16-15.87
			c0.17-1.31,0.49-6.06,0.49-6.06s0.49,0.58,1.24,0.55c1.99-0.08,2.47-2.05,3.14-3.42c1.01-2.05,2.38-5.21,2.46-8.53
			C106.07,34.25,106.1,30.42,101.73,34.1z"/>
		<g>
			<g>
				<path fill-rule="evenodd" clip-rule="evenodd" fill="#D68B62" d="M57.55,41.5c0.11-0.01-0.87-3.58-1.45-5
					c-0.63-1.54-1.27-1.87-1.66-1.85c-0.74,0.04-1,3.47-1,3.47s0.54-3.68,2.2-0.72C56.1,38.23,57.42,41.51,57.55,41.5z"/>
				<path fill-rule="evenodd" clip-rule="evenodd" fill="#D68B62" d="M54.95,38.02c0.05-0.24,0.3-1.65,0.5-1.66
					c0.24-0.01,0.24,1.01,0.19,1.17c-0.16,0.5-0.32,1-0.43,1.54c-0.11,0.56-0.12,1.1-0.11,1.68c0.01,0.51,0.12,1.11,0.22,1.6
					c-0.39-0.38-0.49-1.9-0.5-2.47C54.8,38.9,54.85,38.58,54.95,38.02z"/>
				<path fill-rule="evenodd" clip-rule="evenodd" fill="#E8A073" d="M57.92,44.37c-0.03-0.09-0.56-1.27-0.6-1.36
					c-0.38-0.87,0.43,0.25,0.51,0.35c0.4,0.56,0.69,0.87,0.97,1.35c0.24,0.41,0.12,1.04-0.43,1.1c-0.46,0.05-1.04-0.39-1.23-1.04
					C57.1,44.69,58.33,45.5,57.92,44.37z"/>
			</g>
			<g>
				<path fill-rule="evenodd" clip-rule="evenodd" fill="#D68B62" d="M101.18,41.5c-0.11-0.01,0.87-3.58,1.45-5
					c0.63-1.54,1.27-1.88,1.66-1.85c0.74,0.04,1,3.47,1,3.47s-0.54-3.68-2.2-0.73C102.63,38.23,101.31,41.51,101.18,41.5z"/>
				<path fill-rule="evenodd" clip-rule="evenodd" fill="#D68B62" d="M103.78,38.02c-0.05-0.24-0.3-1.65-0.5-1.66
					c-0.24-0.01-0.24,1.01-0.19,1.17c0.16,0.5,0.32,1,0.43,1.54c0.11,0.56,0.12,1.1,0.11,1.68c-0.01,0.51-0.12,1.11-0.22,1.6
					c0.39-0.38,0.49-1.9,0.5-2.47C103.93,38.9,103.88,38.58,103.78,38.02z"/>
				<path fill-rule="evenodd" clip-rule="evenodd" fill="#E8A073" d="M100.81,44.37c0.03-0.09,0.56-1.27,0.6-1.36
					c0.38-0.87-0.43,0.25-0.51,0.35c-0.4,0.56-0.69,0.87-0.97,1.35c-0.24,0.41-0.12,1.04,0.43,1.1c0.46,0.05,1.04-0.39,1.24-1.04
					C101.63,44.69,100.4,45.5,100.81,44.37z"/>
			</g>
		</g>
	</g>
	<g>
		<path fill="#DBF8FF" stroke="#7DBDCC" stroke-width="0.25" d="M63.71,66.1c0,0-5.19,6.98-9.01,9.03
			c-3.8,2.01-29.92,14.2-31.83,16.1c-1.91,1.9-1.91,1.9-1.91,1.9s3.69,18.14,6.35,26.9c2.68,8.75,3.7,21.95,4.96,27.02
			c1.27,5.06,1.91,13.44,2.53,16.6c0.63,3.18,2.04,6.48,2.04,9.14c0,2.67-0.27,5.2-0.27,7.48c0,2.28,0.53,21.3-1.14,29.94
			c-1.63,8.63-4.82,32.87-2.54,35.12c2.29,2.31,14.22,8.76,23.86,10.68c9.64,1.88,19.02,1.38,19.02,1.38v-15.98
			c0,0,1.67-152.23,0.65-154.63c-1.02-2.42-1.78-3.18-1.78-3.18s-6.99-5.32-8.63-9.5C64.37,69.9,63.71,66.1,63.71,66.1z"/>
		<path fill="#DBF8FF" stroke="#7DBDCC" stroke-width="0.25" d="M121.85,240.22c0,0-1.53-16.06-3.54-24.36
			c-2.05-8.28-1.53-29.42-1.53-32.64c0-3.2,1.69-23.68,3.54-33.82c1.89-10.14,10.4-45.75,11.87-47.19c1.43-1.44,0.16-3.9,0.16-3.9
			s-3.38-3.72-13.18-9.47c-9.83-5.75-17.11-11.34-18.96-13.2c-1.87-1.86-4.67-8.85-4.67-8.85s-11.18,14.5-13.38,15.61
			C79.99,83.5,78.25,87,78.25,87l4.13,168.71c0,0,19.51-3.82,26.64-6.61C116.12,246.3,121.85,240.22,121.85,240.22z"/>
		<polygon fill="#DBF8FF" stroke="#7DBDCC" stroke-width="0.25" points="82.37,257.73 75.76,257.61 75.39,84.58 79.49,84.98 		"/>
		<path fill="#DBF8FF" stroke="#7DBDCC" stroke-width="0.25" d="M95.85,66.32L79.49,84.98c0,0,2.68,3.14,6.79,7.26
			c4.12,4.12,8.03,5.57,8.03,5.57s1.77-7.23,2.79-10.41c1.01-3.16,3.97-10.72,3.97-10.72L95.85,66.32z"/>
		<path fill="#DBF8FF" stroke="#7DBDCC" stroke-width="0.25" d="M63.71,66.32c0,0,1.57,8.4,4.54,11.48
			c2.97,3.08,6.92,6.76,6.92,6.76S62.49,97.42,61.31,98.6c-1.18,1.17-0.95-1.4-1.59-5.59c-0.63-4.2-1.52-20.42-1.52-20.42
			S63.27,67.32,63.71,66.32z"/>
		<path fill="#DBF8FF" stroke="#7DBDCC" stroke-width="0.25" d="M20.96,93.34c0,0-6.19,3.16-8.62,8.74c-2.4,5.58-7.86,40.72-9.15,51
			c-1.26,10.28-1.26,38.68-1.26,46.54c0,7.88,1.67,23.98,2.8,26.41c1.14,2.39,1.76,3.04,1.76,3.04l19.54-4.06
			c0,0,0.76-18.03,0.76-22.2c0-4.2,1.14-18.14,1.14-18.14s0.5-1.9,0.5-3.42c0-1.52,0-3.43,0-3.43s1.03-0.89,1.03-3.06
			c0-2.14,1.34-3.09,0.25-4.18c-1.08-1.08,0.14-4.18,0.14-7.48c0-3.3,2.92-13.44,2.92-13.44s-1.26-6.24-1.48-7.7
			c-0.22-1.47-1.42-9.71-1.55-10.54c-0.16-0.84-1.63-8.39-2.07-9.91c-0.44-1.5-2.32-8.42-2.91-10.94
			C24.18,108.08,21.18,94.56,20.96,93.34z"/>
		<path fill="#DBF8FF" stroke="#7DBDCC" stroke-width="0.25" d="M132.77,99.56c0,0,2.86,0.88,5.83,12.3
			c2.98,11.41,7.8,45.59,8.55,51.57c0.77,6.02,2.87,23.62,3.31,27.84c0.41,4.22,0.6,31.21,0.07,36.02
			c-0.52,4.82,0.34,11.08-0.94,12.34c-1.25,1.28-2.44,1.28-2.44,1.28s-10.66-2.54-15.06-2.54c-4.4,0-6.84-1.52-6.84-1.52
			s0.32-6.11-0.44-9.56c-0.74-3.46-3.28-25.72-3.28-28.24c0-2.54-4.44-21.06-4.44-21.06s1.6-22.1,4.6-35.16
			c2.98-13.09,7.49-31.2,8.24-33.86c0.76-2.65,1.84-6.21,2.27-6.75C132.59,101.66,133.12,100.64,132.77,99.56z"/>
		<path fill="#C2F3FF" d="M74.51,257.63c0,0-13.9-7.33-15.42-7.7c-1.53-0.39-1.41,1.72,1.58,3.3c3,1.58,4.49,4.22,4.49,4.22
			s-12.08-1.45-13.54-2.27c-1.48-0.81-4.47-1.44-4.09-3.91c0.38-2.48,1.26-7.24,0.44-10.54c-0.82-3.31-4.62-6.17-0.38-8.24
			c4.25-2.08,3.12-3.48,2.11-3.48c-1.02,0-7.05-1.78-4.52-2.48c2.56-0.71,7.82,0.63,8.14,0.31c0.33-0.31,4.68,1.58,2.35-2.34
			c-2.35-3.94-7.43,0.25-5.64-7.36c1.77-7.62,3.1-7.94,4.88-11.48c1.78-3.56-1.41-2.73-2.35-5.34c-0.95-2.58,4.32,2.09,7.18,3.47
			c2.87,1.42,3.99,1.08,1.9-3.59c-2.09-4.71-4.88-9.2-6.6-13.39c-1.7-4.21,1.66-1.58,0.65-7.54c-1.03-5.96-5.09-12.32-1.96-18.72
			c3.1-6.4-5.26-18.14-1.91-24.24c3.35-6.08,4.75-9.71,4.45-4.11c-0.31,5.56-2.54,8.11-0.2,14.39c2.33,6.27,1.26,13.84,3.16,19.24
			c1.93,5.36,1.99,8.17,2.42,9.24c0.44,1.08-1.08-23.02-1.69-28.29c-0.67-5.26,2.01-12.29,1.31-21.37
			c-0.71-9.06,0.81-12.11,1.84-8.94c1.03,3.19,1.03,3.62,3.3,6.54c2.28,2.9,5.24-7.64,6.53-6.34c1.3,1.29,2.33,6.84,2.32,12.6
			c-0.01,5.74,0.41,35.18-0.14,41.42c-0.58,6.26-0.12,27.75-0.14,34.26c-0.02,6.53-0.06,25.02-0.1,27.56
			C74.83,235.07,74.99,257.13,74.51,257.63z"/>
		<path fill="#C2F3FF" d="M84.1,254.13c0,0,10.64-10.56,12.17-10.94c1.51-0.39,1.4,1.7-1.59,3.3c-2.98,1.58-4.47,4.2-4.47,4.2
			s12.06-1.45,13.54-2.25c1.45-0.8,4.46-1.45,4.06-3.93c-0.38-2.48-1.26-7.25-0.44-10.52c0.85-3.31,4.64-6.16,0.38-8.24
			c-4.24-2.1-3.1-3.5-2.1-3.5c1.02,0,7.04-1.79,4.52-2.47c-2.54-0.73-7.81,0.61-8.12,0.3c-0.33-0.3-4.7,1.58-2.36-2.35
			c2.36-3.92,7.42,0.25,5.66-7.36c-1.8-7.6-3.12-7.92-4.9-11.48c-1.77-3.54,1.39-2.72,2.35-5.32c0.97-2.6-4.31,2.08-7.17,3.49
			c-2.86,1.39-4,1.08-1.88-3.63c2.08-4.68,4.86-9.18,6.59-13.38c1.72-4.18-1.65-1.58-0.65-7.53c1.02-5.96,5.08-12.31,1.98-18.71
			c-3.12-6.42,5.27-18.16,1.88-24.24c-3.33-6.08-4.75-9.7-4.43-4.12c0.33,5.59,2.55,8.12,0.2,14.4c-2.36,6.28-1.28,13.82-3.18,19.22
			c-1.91,5.38-1.99,8.19-2.41,9.24c-0.46,1.08,1.05-23.02,1.7-28.28c0.63-5.26-2.04-12.3-1.34-21.36c0.69-9.08-0.82-12.12-1.82-8.96
			c-1.05,3.18-1.05,3.62-3.32,6.54c-2.28,2.92-5.22-7.64-6.52-6.34c-1.3,1.3-2.34,6.86-2.32,12.6c0.02,5.76,2.48,100.13,2.5,102.66
			C82.67,227.73,83.63,253.62,84.1,254.13z"/>
		<path fill="#C2F3FF" d="M73.75,85.6l-7.8,7.92c0,0-5.02-0.32-2.16-2.16c2.87-1.84,2.87-3.75,2.87-3.75s-1.23,0.56-2.69-0.88
			c-1.47-1.45,0.76-2.53,1.65-3.41c0.89-0.9-1.78-1.17-2.8-2.17c-1-1.02-0.62-2.68,1.14-2.68c1.77,0,3.9-0.69,3.9-0.69l4.32,4.31
			l1.48,1.39l1.14,1.06L73.75,85.6z"/>
		<path fill="#C2F3FF" d="M90.09,78.18c0,0,2.33,0.7,1.95,1.74c-0.39,1.06-2.16,1.91-2.5,1.91c-0.33,0,3.09-1.06,2.66,0.44
			c-0.38,1.5-3.58,2.4-3.58,2.4s4.06,1.27,3.89,3.01c-0.17,1.72,0.34,0.96-0.17,2.75c-0.5,1.78-3,0.37-4.48-0.56
			c-1.48-0.93-0.52,1.86-0.52,1.86l-0.46,0.39l-5.19-5.44l-1.84-1.82L90.09,78.18z"/>
		<path fill="#C2F3FF" d="M118.23,165.55l-1.13,12.44l3.5,15.5c0,0,1.1,8.12,1.2,9.07c0.1,0.9,1,9.43,1,9.43l1.12,9.29l0.69,4.87
			c0,0,3.38,4.08,4.44,3.03c1.06-1.08-0.41-1.54-2.27-5.52c-1.86-3.98-2.05-6.84-2.05-6.84s5.09,6.93,5.95,6.08
			c0.84-0.85-3.74-5.66-4.16-8.3c-0.42-2.61-1.7-10.88-1.7-10.88s3.74,4.8,6.6,6.66c2.88,1.87,1.82,0.82-0.8-1.8
			c-2.63-2.64-5.47-6.3-5.47-6.3l-1.84-4.09c0,0,5.67,3.3,8.03,3.9c2.36,0.59-6.52-3.53-7.19-6.16c-0.68-2.62-1.44-10.51-2.12-13.31
			c-0.69-2.78,0.84-3.46,0.35-6.24c-0.52-2.8-2.37-2.37-2.37-4.65c0-2.29,0.07-5.41,0.07-5.41l-1.57-3.22L118.23,165.55z"/>
		<path fill="#C2F3FF" d="M146.98,165.64c0,0,2.11,8.8-0.86,8.8c-2.95,0-3.44-3.01-4.06-3.63c-0.63-0.65-0.33,0.34-2.71,2.69
			c-2.37,2.37-4.55,2.37-2.37-1.52c2.19-3.9,4.48-3.57,1.43-6.6c-3.04-3.04-3.6-7.06,0.76-2.69c4.37,4.33,5.43,4.3,5.43,4.3
			l2.05-4.05L146.98,165.64z"/>
		<path fill="#C2F3FF" d="M112.79,186.12c0,0-5.06,5.05-6.07,6.06c-1.02,1.02-4.24,5.59-1.02,5.59c3.22,0,10.6-7.39,10.6-7.39
			l0.03-4.26H112.79z"/>
		<path fill="#C2F3FF" d="M36.94,183.64c0,0,3.32-4.36,8.08,0.39c4.76,4.76,13.58,10.92,13.58,10.92s-9.58-2.48-11.93-4.83
			c-2.36-2.36-9.69-1.14-9.69-1.14L36.94,183.64z"/>
		<path fill="#C2F3FF" d="M29.59,96.38c0,0-5.07-1.4-3.04,3.04c2.03,4.44,3.31,10.93,3.31,13.09c0,2.14,2.91,2.39,2.21-0.09
			c-0.71-2.48-1.06-7.54-1.84-10.2C29.47,99.56,29.59,96.38,29.59,96.38z"/>
		<path fill="#C2F3FF" d="M16.02,100.82c0,0-2.66,0-1.26,6.46c1.37,6.49,3.92,14.99,4.56,17.13c0.64,2.16,5.08,1.51,3.05-1.91
			c-2.03-3.42-2.41-6.46-3.56-10c-1.14-3.57-1.14-9.66-1.14-10.67C17.66,100.82,16.02,100.82,16.02,100.82z"/>
		<path fill="#C2F3FF" d="M27.57,127.21c0,0-4.45,2.15-2.93,8.12c1.52,5.97,4.06,18.64,4.06,19.92c0,1.27-0.76,8.36-0.76,8.36
			s-1.78,0-2.8,0c-1,0,1.02,1.02,2.04,2.02c1.02,1.04,3.18,6.86-0.76,6.11c-3.94-0.77-4.95-0.53-5.59-0.53
			c-0.63,0,1.79,1.92,3.94,1.92c2.17,0-1.15,0.5-2.29,1.64c-1.14,1.14,3.06,1.65,3.06,1.65s0,2.3-2.92,3.69
			c-2.92,1.38,2.66,0.89,2.66,0.89s0.11,7.6-2.54,7.6c-2.67,0-4.95-1-4.95-1s2.41,2.54,4.95,2.54c2.54,0,2.54,1.41,2.54,1.41
			s-6.6,0.12-6.6,1.14c0,1,0,0.76,3.57,0.76c3.53,0,4.12,0.56,4.12,0.56s-0.46,3.77-4.65,6.29c-4.18,2.54-5.44,3.94-5.44,3.94
			s4.36,1.46,6.35-0.5c1.96-1.98,2.98-3.01,2.98-3.01s-0.96,7.31-1.72,8.06c-0.76,0.76-8.89,1.14-8.89,2.16
			c0,1.03,6.22,1.14,7.49,1.14c1.27,0,4.18-1.4,4.18-3.56c0-2.16,1.07-21,1.18-22.42c0.1-1.43,0.6-6.75,0.6-7.53
			c0-0.75,1.03-3.08,1.03-3.54c0-0.46,0.33-2.02,0.5-2.62c0.16-0.61-0.16-1.48-0.38-1.99c-0.22-0.53-0.25-2.17-0.25-2.45
			c0-0.26,0.48-5.4,0.65-6.48c0.18-1.08,0.92-4.73,1.22-5.9c0.3-1.2,1.45-5.52,1.45-5.52s-0.18-2.26-0.46-3.24
			c-0.24-0.98-1.38-8.2-1.38-8.2s-1.32-9-1.54-9.86C29.06,127.9,27.57,127.21,27.57,127.21z"/>
	</g>
</g>
</svg>
