<?xml version="1.0" encoding="utf-8"?>
<!-- Generator: Adobe Illustrator 23.0.6, SVG Export Plug-In . SVG Version: 6.00 Build 0)  -->
<svg version="1.1" id="Capa_1" xmlns="http://www.w3.org/2000/svg" xmlns:xlink="http://www.w3.org/1999/xlink" x="0px" y="0px"
	 viewBox="0 0 152.79 186.83" enable-background="new 0 0 152.79 186.83" xml:space="preserve">
<g>
	<g>
		<path fill="#F0AC80" d="M149.69,213.45c-0.45-14.13-2.35-52.05-2.75-57.09c-0.44-5.43-4.12-19.67-5.66-33.29
			c-1.63-14.29-6.99-25.02-11.01-31.72c-0.29-0.48-0.64-0.86-1.04-1.18c-0.03-0.04-0.05-0.07-0.08-0.11
			c-0.11-0.09-1.12-1.42-1.23-1.51c-3.75-3.13-11.72-7.47-15.71-9.1c-2.82-1.47-9.24-5.15-11.6-6.37c-3.66-1.89-8.69-4.13-9.19-4.97
			c-1.34-2.27-1.83-6.79-1.92-10.79c1.55-2.2,2.65-4.27,2.82-5.58c0.16-1.26,0.47-5.82,0.47-5.82s0.47,0.56,1.19,0.53
			c1.91-0.07,2.37-1.97,3.01-3.28c0.97-1.97,2.28-5.01,2.36-8.19c0.06-2.29,0.09-5.97-4.11-2.43c0,0-0.18-10.96-0.3-15.39
			C94.82,12.38,94.57,4.99,80.88,0.8c-0.77-0.24-4.16-0.8-7.46-0.8c-3.08,0.01-6.08,0.58-6.8,0.8c-3.63,1.11-6.3,2.79-8.98,5.17
			c-3.65,3.25-5.11,6.41-5.23,11.2c-0.11,4.44-0.21,15.39-0.21,15.39c-4.2-3.54-4.24,0.77-4.03,3.1c0.28,3.17,1.24,5.54,2.21,7.51
			c0.64,1.31,1.33,3.21,3.24,3.28c0.72,0.03,1.19-0.53,1.19-0.53s0.31,4.56,0.48,5.82c0.15,1.14,1.02,2.91,2.29,4.84
			c0.09,4.21-0.21,9.22-1.79,11.53c-0.38,0.55-5.81,3.05-9.44,4.97c-0.37,0.2-0.83,0.45-1.34,0.74c0,0-0.01-0.01-0.01-0.01
			s-8.06,4.24-11.98,5.7c-2.97,1.11-8.45,4.18-12.55,7.06c-0.89,0.47-1.81,1.14-2.76,2.09c-0.03,0.02-0.07,0.06-0.01,0.01
			c-0.19,0.18-0.33,0.35-0.44,0.51c-5.75,6.5-7.84,23.64-7.63,31.27c0.23,7.84-3.04,34.17-3.69,45.04
			C5.27,176.4,3.1,205.78,3.1,205.78l19.72,2.12c0,0,5.93-42.99,7.27-49.14c1.52-6.96,0.71-32.59,7.71-46.59s0,0,0,0
			c2.4,1.39,3.11,13.52,3.04,27.03c-0.07,14.4,61.67,9.89,62.96,1.97c1.14-7,4.46-27.72,4-31c2.58,3.65,10.26,18.56,11.08,21.16
			c1.09,3.48,3.05,19.15,3.48,30.04c0.44,10.88,2.62,27.2,2.62,27.2l4.13,25.25L149.69,213.45z"/>
	</g>
	<g>
		<path fill="#00D4FF" d="M117.48,185.56c-0.25-0.42-0.45-0.86-0.66-1.3c2.3,5.53,4.92,12.23,6.98,17.86
			C122.13,196,120.28,190.88,117.48,185.56z"/>
		<path fill="#00D4FF" d="M123.62,209.76c-1.66-2.52-2.02-5.12-4.67-5.56c-2.61-0.44-7.21,0.6-10.82,1.8
			c-3.58,1.2-10.7,2.8-11.53,2.05c-0.81-0.81,6.23-0.61,10.8-3.86c4.53-3.26,7.42-5.26,7.84-8.01c0.42-2.73-0.9-7.29-2.21-7.55
			c-1.31-0.26-2.77,1.81-5.19,1.74c-2.42,0-6.04-0.13-6.04-0.13s5.29-2.17,7.02-4.56c1.75-2.37,1.33-3.36-0.19-3.31
			c-1.5,0.04-9.19,1.75-9.52,1.46c-0.31-0.29,6.74-4.93,7.6-6.47c0.85-1.57,1.22-10.7,2.47-16.5c1.28-5.81,4.57-14.42,4.57-14.42
			s-0.77,4.31-1.24,10c1.04-6.43,2.65-14.66,2.88-16.31c0.46-0.46,0.9-0.94,1.39-1.49c5.86-6.45,2.33-23.07,1.03-25.69
			c-0.57-1.14-1.67-2.05-3.68-2.58l-1.89-34.28l-3.14-0.32l0.11,0.3l1.47,33.77c-2.23-0.16-5.05-0.1-8.63,0.22
			c-10.56,0.88-25.2,14.73-25.2,14.73s0.82,0.61-2.54-1.16c-3.36-1.72-18.65-9.15-25.36-10.3c-4.4-0.72-9.09-0.75-12.4,0.07
			c0.11-0.66,0.2-1.27,0.28-1.58c0.28-0.89,1.4-35.41,1.4-35.41l-2.91,0.08c0,0,0.36,14.09,0.31,15.52
			c-0.06,1.41-1.46,14.22-1.96,18.29c-0.3,2.61-0.78,4.46-1.06,5.46c-1.74,3.41,0.99,17.59,1.87,20.98
			c0.68,2.77,2.61,8.09,6.37,10.54l-0.11,0.3c0,0,0.83,18.24,0.08,30.4c0.01-0.07,0.04-0.15,0.04-0.22c1.68-5.12,0-30.35,0-30.35
			s3.19,24.48,3.22,25.7c0.03,1.22,3.98,13.89,5.02,15.27c1.04,1.43,1.08,2.62,0.09,3.35c-0.99,0.76-5.11,5.21-7.08,7.09
			c-1.12,1.11-2.25,10.57-3.11,15.06c9.38,1.81,68.89-1.51,86.91-3.13l0-0.02c-0.54,0.06-1.08,0.1-1.64,0.15
			C124.04,210.42,123.83,210.05,123.62,209.76z M46.07,149.55c-1.94-0.38-5.05-2.13-5.05-2.13s22.45-5.45,26.94-7.71
			c4.46-2.25,8.71-6.61,8.71-6.61s3.98,3.77,6.37,5.41c8.43,5.78,20.95,5.78,23.77,6.43c2.85,0.6-11.45,1.39-13.59,1.22
			c-4.48-0.38-10.93-5.15-15.56-4.41c-4.6,0.7-7.79,2.84-14.87,4.88C55.66,148.63,47.99,149.86,46.07,149.55z M89.92,147.75
			c0,0-3.69,1.61-5.7,2.18c-2,0.56-16.68,1.05-17.49,0.67c-0.82-0.39-2.45-1.68-2.45-1.68l1.58-0.43c0,0,11.2,0.24,16.11-0.23
			C86.9,147.83,89.92,147.75,89.92,147.75z M58.5,155.9c-2.13-0.56-2.97-2.06-2.97-2.06s15.02,0.3,18.36,0.41
			c3.32,0.14,9.35,0.47,14.18-0.37c4.81-0.81,8.93-0.92,8.93-0.92s-15.18,4.66-16.39,4.69C79.41,157.68,60.64,156.42,58.5,155.9z"/>
		<path fill="#00D4FF" d="M114.62,179.19c-0.69-1.88-1.23-3.71-1.64-5.4c0.34,1.83,0.83,3.57,1.51,5.07
			C114.54,178.98,114.59,179.08,114.62,179.19z"/>
		<path fill="#00ABFF" d="M77.64,141.75c4.64-0.74,11.08,4.03,15.56,4.41c2.14,0.17,16.44-0.61,13.59-1.22
			c-2.82-0.65-15.34-0.65-23.77-6.43c-2.38-1.64-6.37-5.41-6.37-5.41s-4.24,4.37-8.71,6.61c-4.49,2.26-26.94,7.71-26.94,7.71
			s3.11,1.74,5.05,2.13c1.92,0.32,9.6-0.92,16.7-2.92C69.85,144.58,73.04,142.45,77.64,141.75z"/>
		<path fill="#00ABFF" d="M65.86,148.49l-1.58,0.43c0,0,1.63,1.3,2.45,1.68c0.81,0.38,15.49-0.11,17.49-0.67
			c2-0.57,5.7-2.18,5.7-2.18s-3.02,0.08-7.95,0.51C77.06,148.73,65.86,148.49,65.86,148.49z"/>
		<path fill="#00D4FF" d="M88.06,153.87c-4.82,0.84-10.86,0.51-14.18,0.37c-3.34-0.11-18.36-0.41-18.36-0.41s0.84,1.5,2.97,2.06
			c2.13,0.52,20.91,1.78,22.11,1.75c1.2-0.03,16.39-4.69,16.39-4.69S92.87,153.07,88.06,153.87z"/>
		<path fill="#00ABFF" d="M126.8,210.68c-0.67-2.11-1.73-5.13-3-8.56c-2.06-5.63-4.67-12.32-6.98-17.86
			c-0.76-1.84-1.52-3.55-2.2-5.08c-0.03-0.11-0.08-0.21-0.13-0.33c-0.69-1.49-1.17-3.23-1.51-5.07c-1.05-5.42-0.91-12.01-0.48-17.37
			c0.47-5.69,1.24-10,1.24-10s-3.29,8.61-4.57,14.42c-1.25,5.8-1.62,14.93-2.47,16.5c-0.87,1.54-7.92,6.18-7.6,6.47
			c0.33,0.3,8.02-1.42,9.52-1.46c1.53-0.04,1.94,0.95,0.19,3.31c-1.73,2.39-7.02,4.56-7.02,4.56s3.62,0.13,6.04,0.13
			c2.43,0.06,3.89-2,5.19-1.74c1.31,0.25,2.64,4.82,2.21,7.55c-0.42,2.75-3.3,4.75-7.84,8.01c-4.57,3.26-11.61,3.05-10.8,3.86
			c0.82,0.75,7.95-0.84,11.53-2.05c3.61-1.21,8.21-2.24,10.82-1.8c2.65,0.44,3.01,3.04,4.67,5.56c0.21,0.29,0.42,0.66,0.63,1.1
			c0.56-0.05,1.1-0.09,1.64-0.15c0.14,0,0.27,0,0.42-0.03C126.47,210.67,126.65,210.67,126.8,210.68z"/>
		<path fill="#00ABFF" d="M49.18,191.71c0.99-0.73,0.96-1.92-0.09-3.35c-1.05-1.38-4.99-14.06-5.02-15.27
			c-0.03-1.22-3.22-25.7-3.22-25.7s1.68,25.23,0,30.35c0,0.07-0.03,0.15-0.04,0.22c-1.72,5.51-5.08,30.45-6.04,35.12
			c0,0.04-0.02,0.13-0.04,0.2c0.07,0,0.11-0.01,0.19,0.03c1.34,0.2,2.67,0.29,4.06,0.56c0.87-4.48,1.99-13.95,3.11-15.06
			C44.07,196.92,48.19,192.47,49.18,191.71z"/>
	</g>
</g>
</svg>
