<?xml version="1.0" encoding="utf-8"?>
<!-- Generator: Adobe Illustrator 23.0.6, SVG Export Plug-In . SVG Version: 6.00 Build 0)  -->
<svg version="1.1" id="Capa_1" xmlns="http://www.w3.org/2000/svg" xmlns:xlink="http://www.w3.org/1999/xlink" x="0px" y="0px"
	 viewBox="0 0 152.79 186.83" style="enable-background:new 0 0 152.79 186.83;" xml:space="preserve">
<style type="text/css">
	.st0{fill:#F0AC80;}
	.st1{fill-rule:evenodd;clip-rule:evenodd;fill:#D68B62;}
	.st2{fill-rule:evenodd;clip-rule:evenodd;fill:#E8A073;}
	.st3{fill:#BFE9FF;}
	.st4{fill:#A8E1FF;}
	.st5{fill:#A3DEFF;}
	.st6{fill:#B0E3FF;}
	.st7{fill:#FF5955;}
	.st8{fill:#FF0000;}
	.st9{fill:#3A8A00;}
	.st10{fill:#417400;}
	.st11{fill:#4D4D4D;}
	.st12{fill:#333333;}
	.st13{fill:#1B1464;}
	.st14{fill:#271D91;}
	.st15{fill:#B2B2B2;stroke:#B2B2B2;stroke-width:0.25;}
	.st16{fill:#8C8C8C;stroke:#5A3D1C;stroke-width:0.25;}
	.st17{fill:#A6A6A6;}
	.st18{fill:#FFFFFF;stroke:#B2B2B2;stroke-width:0.25;}
	.st19{fill:#EBEBEB;}
	.st20{stroke:#000000;stroke-width:0.25;}
	.st21{fill:#8C8C8C;stroke:#003642;stroke-width:0.25;}
	.st22{fill:#7A7A7A;}
	.st23{fill:#666666;stroke:#666666;stroke-width:0.25;}
	.st24{fill:#141414;}
	.st25{fill:#FFFFFF;stroke:#B2B2B2;}
	.st26{fill:#EDEDED;}
	.st27{fill:#694721;}
	.st28{fill:#5A3D1C;}
	.st29{fill:#006631;}
	.st30{fill:#00592B;}
	.st31{fill:#035B73;stroke:#003642;stroke-width:0.25;}
	.st32{fill:#02495C;stroke:#003642;stroke-width:0.25;}
	.st33{fill:#02495C;}
	.st34{fill:#820000;stroke:#730000;}
	.st35{fill:#5C0000;stroke:#5A3D1C;stroke-width:0.25;}
	.st36{fill:#780000;}
	.st37{fill:#006B33;stroke:#003642;stroke-width:0.25;}
	.st38{fill:#00592B;stroke:#003642;stroke-width:0.25;}
	.st39{fill:#DB8C3D;stroke:#003642;stroke-width:0.25;}
	.st40{fill:#C2803D;}
	.st41{fill:#DB6D00;stroke:#003642;stroke-width:0.25;}
	.st42{fill:#3F3F3F;stroke:#3F3F3F;stroke-width:0.25;}
	.st43{stroke:#3F3F3F;stroke-width:0.25;}
	.st44{fill:#262626;}
	.st45{fill:#5A3D1C;stroke:#003642;stroke-width:0.25;}
	.st46{fill:#52361A;}
	.st47{fill:#422C15;stroke:#003642;stroke-width:0.25;}
	.st48{fill:#FFFFFF;stroke:#E8E8E8;}
	.st49{fill:#E3E3E3;}
	.st50{fill:#B2B2B2;}
	.st51{fill:#FFBF00;}
	.st52{fill:#F5B700;}
	.st53{fill:#EBAF00;stroke:#D19D00;stroke-width:0.25;}
	.st54{fill:#D010B1;}
	.st55{fill:#A60D8C;}
	.st56{fill:#00A33D;}
	.st57{fill:#008033;}
	.st58{fill:#00D4FF;}
	.st59{fill:#00ABFF;}
	.st60{fill:#0A0A0A;stroke:#000000;}
	.st61{fill:#666666;stroke:#000000;stroke-width:0.25;}
	.st62{stroke:#000000;}
	.st63{fill:#00B800;}
	.st64{fill:#009C00;}
	.st65{fill:#3F3F3F;}
	.st66{fill:#73A334;stroke:#8CC63F;stroke-width:0.1;}
	.st67{fill:#8CC63F;stroke:#8CC63F;stroke-width:0.1;}
	.st68{fill:#545454;}
	.st69{fill:#7558A4;}
	.st70{fill:#7536D1;}
	.st71{fill:#E2BB95;stroke:#D5AF8C;}
	.st72{fill:#D5AF8C;}
	.st73{fill:#E2BB95;stroke:#D5AF8C;stroke-width:0.5;}
	.st74{fill:#9E2231;}
	.st75{fill:#B72837;}
	.st76{fill:#FFE085;}
	.st77{fill:#EBCE7A;}
	.st78{fill:url(#SVGID_1_);}
	.st79{fill:url(#SVGID_2_);}
	.st80{fill:url(#SVGID_3_);}
	.st81{fill:#D00204;}
	.st82{fill:#D10507;}
	.st83{fill:#D3090B;}
	.st84{fill:#D40C0E;}
	.st85{fill:#D51012;}
	.st86{fill:#D71315;}
	.st87{fill:#D81718;}
	.st88{fill:#D91A1C;}
	.st89{fill:#DB1E1F;}
	.st90{fill:#DC2122;}
	.st91{fill:#DD2526;}
	.st92{fill:#DF2829;}
	.st93{fill:#E02C2D;}
	.st94{fill:#E22F30;}
	.st95{fill:#E33333;}
	.st96{fill:#E43637;}
	.st97{fill:#E63A3A;}
	.st98{fill:#E73D3E;}
	.st99{fill:#E84141;}
	.st100{fill:#EA4444;}
	.st101{fill:#EB4848;}
	.st102{fill:#EC4B4B;}
	.st103{fill:#EE4F4E;}
	.st104{fill:#EF5252;}
	.st105{fill:#F05655;}
	.st106{fill:#F25A59;}
	.st107{fill:#F35D5C;}
	.st108{fill:#047A04;}
	.st109{fill:#57B328;}
	.st110{fill:#507F29;}
	.st111{fill:#DDBB06;}
	.st112{fill:#A80000;}
	.st113{fill:#9E0000;}
	.st114{fill:#8F0000;stroke:#610000;stroke-width:0.25;}
	.st115{fill:#5A3D1C;stroke:#805426;}
	.st116{fill:#63421F;}
	.st117{fill:#5A3D1C;stroke:#6B4620;}
	.st118{fill:url(#SVGID_4_);}
	.st119{fill:#171717;stroke:#000000;}
	.st120{fill:#212121;}
	.st121{fill:url(#SVGID_5_);}
	.st122{fill:#3F3F3F;stroke:#3F3F3F;}
	.st123{fill:#8C8C8C;stroke:#3F3F3F;}
	.st124{fill:#808080;}
	.st125{fill:url(#SVGID_6_);}
	.st126{fill:none;}
	.st127{fill:#D4D4D4;}
	.st128{fill:#D4D4D4;stroke:#B8B8B8;stroke-width:0.5;}
	.st129{fill:#D4D4D4;stroke:#B8B8B8;stroke-width:0.2;}
	.st130{fill:#C7C7C7;}
	.st131{fill:#DBF8FF;stroke:#7DBDCC;stroke-width:0.25;}
	.st132{fill:#C2F3FF;}
	.st133{fill:#F2F2F2;}
	.st134{fill:url(#SVGID_7_);stroke:#000000;}
	.st135{fill:#42210B;stroke:#000000;}
	.st136{fill:#C69C6D;stroke:#000000;}
	.st137{fill:#93278F;stroke:#000000;}
	.st138{fill:#589F3E;}
	.st139{fill:#4D8F39;}
	.st140{fill:#963528;}
	.st141{fill:#AC3A2D;}
	.st142{fill:#211915;}
	.st143{fill:#444242;}
	.st144{fill:#1A1A1A;}
	.st145{fill:#FFFFFF;}
	.st146{fill:#2E2E2E;}
	.st147{fill:#363636;}
	.st148{fill:#666666;}
	.st149{fill:#C69C6D;}
	.st150{fill:#B38D62;}
	.st151{fill:#A67C52;}
	.st152{fill:#8C6239;}
	.st153{fill:#9E10D2;}
	.st154{fill:#8210D2;}
	.st155{fill:#6B6B6B;}
	.st156{fill:#008C08;}
	.st157{fill:#00A308;}
	.st158{fill:#EC2024;}
	.st159{fill:#E31E26;}
	.st160{fill:#BED63A;}
	.st161{fill:#EC1C24;}
	.st162{fill:#00ADEE;}
	.st163{fill:#2E3191;}
</style>
<g>
	<g>
		<path class="st0" d="M100.67,76.12c-3.81-1.97-9.05-4.3-9.57-5.18c-2.22-3.76-2.21-13.48-1.8-17.48h-1.01H56.54h-1.01
			c0.4,4,0.92,13.87-1.54,17.48c-0.39,0.58-6.05,3.17-9.83,5.18c-3.14,1.66-11.71,6.88-12.87,7.31c0.3,0.39,4.09,11.7,8.1,17.76
			c1.84,2.78,2.7,5.47,5.05,7.78c2.43,2.38,5.21,4.34,8.26,5.68c3.67,1.61,7.6,2.4,11.55,2.64c2.7,0.17,5.44,0.14,8.16-0.08
			c2.72,0.23,5.46,0.25,8.16,0.08c3.95-0.25,7.88-1.03,11.55-2.64c3.05-1.34,5.83-3.3,8.26-5.68c2.36-2.31,3.12-5,4.97-7.78
			c4.01-6.06,8.39-17.43,8.69-17.82C112.87,82.98,103.66,77.67,100.67,76.12z"/>
		<path class="st0" d="M95.08,33.91c0,0-0.19-11.41-0.31-16.03c-0.13-4.99-0.38-12.68-14.64-17.05C79.33,0.58,75.8-0.01,72.37,0
			c-3.21,0.01-6.33,0.6-7.08,0.83c-3.78,1.16-6.57,2.9-9.35,5.38c-3.8,3.38-5.33,6.68-5.45,11.67c-0.12,4.62-0.23,16.03-0.23,16.03
			c-4.37-3.68-4.41,0.8-4.2,3.23c0.29,3.3,1.29,5.77,2.3,7.83c0.67,1.37,1.38,3.34,3.37,3.42c0.75,0.03,1.24-0.55,1.24-0.55
			s0.32,4.75,0.5,6.06c0.51,3.9,9.13,14.86,13.98,15.83c1.47,0.29,9.06,0.3,10.43,0.04c4.79-0.93,13.64-11.86,14.16-15.87
			c0.17-1.31,0.49-6.06,0.49-6.06s0.49,0.58,1.24,0.55c1.99-0.08,2.47-2.05,3.14-3.42c1.01-2.05,2.38-5.21,2.46-8.53
			C99.42,34.06,99.46,30.23,95.08,33.91z"/>
		<g>
			<g>
				<path class="st1" d="M50.91,41.31c0.11-0.01-0.87-3.58-1.45-5c-0.63-1.54-1.27-1.87-1.66-1.85c-0.74,0.04-1,3.47-1,3.47
					s0.54-3.68,2.2-0.72C49.45,38.03,50.78,41.32,50.91,41.31z"/>
				<path class="st1" d="M48.31,37.83c0.05-0.24,0.3-1.65,0.5-1.66c0.24-0.01,0.24,1.01,0.19,1.17c-0.16,0.5-0.32,1-0.43,1.54
					c-0.11,0.56-0.12,1.1-0.11,1.68c0.01,0.51,0.12,1.11,0.22,1.6c-0.39-0.38-0.49-1.9-0.5-2.47C48.16,38.71,48.2,38.39,48.31,37.83
					z"/>
				<path class="st2" d="M51.27,44.18c-0.03-0.09-0.56-1.27-0.6-1.36c-0.38-0.87,0.43,0.25,0.51,0.35c0.4,0.56,0.69,0.87,0.97,1.35
					c0.24,0.41,0.12,1.04-0.43,1.1c-0.46,0.05-1.04-0.39-1.23-1.04C50.46,44.49,51.68,45.31,51.27,44.18z"/>
			</g>
			<g>
				<path class="st1" d="M94.53,41.31c-0.11-0.01,0.87-3.58,1.45-5c0.63-1.54,1.27-1.88,1.66-1.85c0.74,0.04,1,3.47,1,3.47
					s-0.54-3.68-2.2-0.73C95.99,38.03,94.66,41.32,94.53,41.31z"/>
				<path class="st1" d="M97.13,37.83c-0.05-0.24-0.3-1.65-0.5-1.66c-0.24-0.01-0.24,1.01-0.19,1.17c0.16,0.5,0.32,1,0.43,1.54
					c0.11,0.56,0.12,1.1,0.11,1.68c-0.01,0.51-0.12,1.11-0.22,1.6c0.39-0.38,0.49-1.9,0.5-2.47C97.28,38.71,97.24,38.39,97.13,37.83
					z"/>
				<path class="st2" d="M94.17,44.18c0.03-0.09,0.56-1.27,0.6-1.36c0.38-0.87-0.43,0.25-0.51,0.35c-0.4,0.56-0.69,0.87-0.97,1.35
					c-0.24,0.41-0.12,1.04,0.43,1.1c0.46,0.05,1.04-0.39,1.24-1.04C94.98,44.49,93.76,45.31,94.17,44.18z"/>
			</g>
		</g>
	</g>
	<g>
		<path class="st0" d="M34.61,78.8c-2.31,0.86-6.41,7.06-7.15,7.8c-0.02,0.02,0.07-0.14,0,0c-2.78,5.95-0.89-8.13-8.89,23.87
			c-3,12-4.6,26.11-5.1,34.56c-0.49,8.46-1.78,22.07-1.93,31.88c-0.07,4.25-0.75,11.59-0.75,11.59l14.82,0.93
			c0,0,0.76-4.14,0.98-7.98c0.33-5.75,3.39-35.45,4.12-40.93c1.12-8.51,2.02-26.27,2.02-26.27S36.11,78.23,34.61,78.8z"/>
	</g>
	<g>
		<path class="st0" d="M118.18,81.8c2.31,0.86,6.41,7.06,7.15,7.8c0.02,0.02-0.07-0.14,0,0c2.78,5.95,0.89-8.13,8.89,23.87
			c3,12,4.6,26.11,5.1,34.56c0.49,8.46,1.78,22.07,1.93,31.88c0.07,4.25,0.75,11.59,0.75,11.59l-14.82,0.93c0,0-0.76-4.14-0.98-7.98
			c-0.33-5.75-3.39-35.45-4.12-40.93c-1.12-8.51-2.02-26.27-2.02-26.27S116.68,81.23,118.18,81.8z"/>
	</g>
	<g>
		<path class="st144" d="M127.47,88.78c-3.75-3.08-15.91-13.7-19.89-15.25c-3.97-1.54-8.83-2.42-8.83-2.42l-0.77,0.44
			c0,0-3.65,16.9-4.31,21.2c-0.66,4.31-5.13,7.96-11.26,9.29c-6.13,1.32-11.21,1.7-15.02,0.87c-3.81-0.83-11.15-5.02-13.31-7.01
			c-2.15-1.99-8.78-20.71-8.78-20.71l-0.08-1.32c0,0,0.61-0.27-0.14-0.11c-5.96,1.32-17.01,8.39-21.42,12.59
			c-4.41,4.21-6.41,19.66-4.64,22.31c1.76,2.65,9.28,7.73,9.28,7.73l1.32-0.44c0,0,4.75,21.04,5.91,27.17
			c1.15,6.13,7.29,17.39,9.28,22.04c1.99,4.64-1,10.11-3.15,16.07c-1.94,5.37-4.2,19.89-5.32,23.97c25.73,10.17,58.54,12.79,82.05,0
			c-0.9-3.18-3.26-16.01-4-17.84c-2.49-6.13-5.31-19.23-5.31-22.04c0-2.81,5.31-24.85,6.47-31.97c1.16-7.12,2.66-19.89,2.66-19.89
			h0.82c0,0,1.32-1.16,2.81-2.99c1.49-1.82,10.11-12.92,10.11-12.92S131.22,91.87,127.47,88.78z"/>
		<path class="st145" d="M52.42,101.04c0,0,2.65,20.54,4.14,26.83c1.49,6.31,7.62,24.69,14.41,26.85c6.79,2.14,11.27,1.65,12.93,0
			c1.66-1.67,3.97-5.97,4.8-11.44c0.83-5.47,0.66-10.93,2.49-21.86c1.82-10.95,2.15-22.04,2.15-23.71c0-1.65,0.33-4.97,0.33-4.97
			s-2.31,4.75-3.97,5.85c-1.66,1.1-3.86,2.21-6.41,2.54c-2.54,0.33-5.63,1.65-11.15,1c-5.52-0.67-8.95-2.11-11.16-3.32
			c-2.21-1.21-9.28-6.74-9.28-6.74L52.42,101.04z"/>
		<path class="st146" d="M48.11,108.66c0,0-0.3,19.41,0.15,24.3c0.47,4.89-0.31,9.38,3.55,15.21c3.87,5.85,11.93,12.9,15.32,13.73
			c3.41,0.81,1.55,2.16,9.75,2.44c8.2,0.27,12.06-2.04,16.71-7.61c4.64-5.56,7.12-9.36,8.82-13.84c1.7-4.49,1.86-10.05,1.86-10.05
			s-6.66,15.75-10.06,20.49c-3.4,4.76-7.43,7.21-9.12,7.61c-1.7,0.41,6.34-6.53,9.12-11.13c2.78-4.61,3.26-7.07,3.26-7.07
			s-3.87,6.39-6.35,8.97c-2.47,2.58-4.02,4.2-4.02,4.2s3.09-5.69,4.96-9.77c1.85-4.08,2.78-10.59,2.93-12.23
			c0.16-1.62,0.16-1.62,0.16-1.62s-0.78,4.21-2.32,6.5c-1.55,2.31-2.32,8.69-3.41,10.46c-1.09,1.76-4.18,10.73-5.57,10.86
			c-1.39,0.13-2.93,0.41-4.49,0.41c-1.54,0-7.12-1.5-10.52-4.07c-3.4-2.59-7.27-8.84-7.42-9.23c-0.16-0.41,0.47,3.53,1.24,4.61
			c0.77,1.09,3.24,3.94,3.24,3.94s-4.48-2.99-5.72-7.19c-1.24-4.21-4.8-11-4.8-11s0.62,8.28,2.01,10.32
			c1.39,2.04-5.11-7.19-5.26-11.13c-0.16-3.93-0.16-13.85-0.16-13.85s-1.24,5.57-1.4,8.01c-0.15,2.44-0.62-6.65-0.62-9.23
			C49.96,119.11,48.11,108.66,48.11,108.66z"/>
		<path class="st147" d="M43.14,164.33c0,0,8.45,4.3,14.58,5.79c6.13,1.49,12.42,2.65,24.02,2.65c11.6,0,22.54-1.99,25.52-3.81
			c2.98-1.82,2.98-2.49,2.98-2.49s-0.5,8.96,0.98,11.11c1.5,2.16,2.32,4.47,2.32,4.47s-1.99,2.32-5.63,3.32
			c-3.64,0.98-17.4,1.81-23.85,1.81c-6.46,0-26.18-0.49-33.47-2.15c-7.29-1.66-9.77-3.65-9.77-3.65s2.81-4.8,2.81-6.29
			C43.64,173.59,43.14,164.33,43.14,164.33z"/>
	</g>
</g>
</svg>
