<?xml version="1.0" encoding="utf-8"?>
<!-- Generator: Adobe Illustrator 23.0.6, SVG Export Plug-In . SVG Version: 6.00 Build 0)  -->
<svg version="1.1" id="Capa_1" xmlns="http://www.w3.org/2000/svg" xmlns:xlink="http://www.w3.org/1999/xlink" x="0px" y="0px"
	 viewBox="0 0 152.79 186.83" style="enable-background:new 0 0 152.79 186.83;" xml:space="preserve">
<style type="text/css">
	.st0{fill:#F0AC80;}
	.st1{fill-rule:evenodd;clip-rule:evenodd;fill:#D68B62;}
	.st2{fill-rule:evenodd;clip-rule:evenodd;fill:#E8A073;}
	.st3{fill:#BFE9FF;}
	.st4{fill:#A8E1FF;}
	.st5{fill:#A3DEFF;}
	.st6{fill:#B0E3FF;}
	.st7{fill:#FF5955;}
	.st8{fill:#FF0000;}
	.st9{fill:#3A8A00;}
	.st10{fill:#417400;}
	.st11{fill:#4D4D4D;}
	.st12{fill:#333333;}
	.st13{fill:#1B1464;}
	.st14{fill:#271D91;}
	.st15{fill:#B2B2B2;stroke:#B2B2B2;stroke-width:0.25;}
	.st16{fill:#8C8C8C;stroke:#5A3D1C;stroke-width:0.25;}
	.st17{fill:#A6A6A6;}
	.st18{fill:#FFFFFF;stroke:#B2B2B2;stroke-width:0.25;}
	.st19{fill:#EBEBEB;}
	.st20{stroke:#000000;stroke-width:0.25;}
	.st21{fill:#8C8C8C;stroke:#003642;stroke-width:0.25;}
	.st22{fill:#7A7A7A;}
	.st23{fill:#666666;stroke:#666666;stroke-width:0.25;}
	.st24{fill:#141414;}
	.st25{fill:#FFFFFF;stroke:#B2B2B2;}
	.st26{fill:#EDEDED;}
	.st27{fill:#694721;}
	.st28{fill:#5A3D1C;}
	.st29{fill:#006631;}
	.st30{fill:#00592B;}
	.st31{fill:#035B73;stroke:#003642;stroke-width:0.25;}
	.st32{fill:#02495C;stroke:#003642;stroke-width:0.25;}
	.st33{fill:#02495C;}
	.st34{fill:#820000;stroke:#730000;}
	.st35{fill:#5C0000;stroke:#5A3D1C;stroke-width:0.25;}
	.st36{fill:#780000;}
	.st37{fill:#006B33;stroke:#003642;stroke-width:0.25;}
	.st38{fill:#00592B;stroke:#003642;stroke-width:0.25;}
	.st39{fill:#DB8C3D;stroke:#003642;stroke-width:0.25;}
	.st40{fill:#C2803D;}
	.st41{fill:#DB6D00;stroke:#003642;stroke-width:0.25;}
	.st42{fill:#3F3F3F;stroke:#3F3F3F;stroke-width:0.25;}
	.st43{stroke:#3F3F3F;stroke-width:0.25;}
	.st44{fill:#262626;}
	.st45{fill:#5A3D1C;stroke:#003642;stroke-width:0.25;}
	.st46{fill:#52361A;}
	.st47{fill:#422C15;stroke:#003642;stroke-width:0.25;}
	.st48{fill:#FFFFFF;stroke:#E8E8E8;}
	.st49{fill:#E3E3E3;}
	.st50{fill:#B2B2B2;}
	.st51{fill:#FFBF00;}
	.st52{fill:#F5B700;}
	.st53{fill:#EBAF00;stroke:#D19D00;stroke-width:0.25;}
	.st54{fill:#D010B1;}
	.st55{fill:#A60D8C;}
	.st56{fill:#00A33D;}
	.st57{fill:#008033;}
	.st58{fill:#00D4FF;}
	.st59{fill:#00ABFF;}
	.st60{fill:#0A0A0A;stroke:#000000;}
	.st61{fill:#666666;stroke:#000000;stroke-width:0.25;}
	.st62{stroke:#000000;}
	.st63{fill:#00B800;}
	.st64{fill:#009C00;}
	.st65{fill:#3F3F3F;}
	.st66{fill:#73A334;stroke:#8CC63F;stroke-width:0.1;}
	.st67{fill:#8CC63F;stroke:#8CC63F;stroke-width:0.1;}
	.st68{fill:#545454;}
	.st69{fill:#7558A4;}
	.st70{fill:#7536D1;}
	.st71{fill:#E2BB95;stroke:#D5AF8C;}
	.st72{fill:#D5AF8C;}
	.st73{fill:#E2BB95;stroke:#D5AF8C;stroke-width:0.5;}
	.st74{fill:#9E2231;}
	.st75{fill:#B72837;}
	.st76{fill:#FFE085;}
	.st77{fill:#EBCE7A;}
	.st78{fill:url(#SVGID_1_);}
	.st79{fill:url(#SVGID_2_);}
	.st80{fill:url(#SVGID_3_);}
	.st81{fill:#D00204;}
	.st82{fill:#D10507;}
	.st83{fill:#D3090B;}
	.st84{fill:#D40C0E;}
	.st85{fill:#D51012;}
	.st86{fill:#D71315;}
	.st87{fill:#D81718;}
	.st88{fill:#D91A1C;}
	.st89{fill:#DB1E1F;}
	.st90{fill:#DC2122;}
	.st91{fill:#DD2526;}
	.st92{fill:#DF2829;}
	.st93{fill:#E02C2D;}
	.st94{fill:#E22F30;}
	.st95{fill:#E33333;}
	.st96{fill:#E43637;}
	.st97{fill:#E63A3A;}
	.st98{fill:#E73D3E;}
	.st99{fill:#E84141;}
	.st100{fill:#EA4444;}
	.st101{fill:#EB4848;}
	.st102{fill:#EC4B4B;}
	.st103{fill:#EE4F4E;}
	.st104{fill:#EF5252;}
	.st105{fill:#F05655;}
	.st106{fill:#F25A59;}
	.st107{fill:#F35D5C;}
	.st108{fill:#047A04;}
	.st109{fill:#57B328;}
	.st110{fill:#507F29;}
	.st111{fill:#DDBB06;}
	.st112{fill:#A80000;}
	.st113{fill:#9E0000;}
	.st114{fill:#8F0000;stroke:#610000;stroke-width:0.25;}
	.st115{fill:#5A3D1C;stroke:#805426;}
	.st116{fill:#63421F;}
	.st117{fill:#5A3D1C;stroke:#6B4620;}
	.st118{fill:url(#SVGID_4_);}
	.st119{fill:#171717;stroke:#000000;}
	.st120{fill:#212121;}
	.st121{fill:url(#SVGID_5_);}
	.st122{fill:#3F3F3F;stroke:#3F3F3F;}
	.st123{fill:#8C8C8C;stroke:#3F3F3F;}
	.st124{fill:#808080;}
	.st125{fill:url(#SVGID_6_);}
	.st126{fill:none;}
	.st127{fill:#D4D4D4;}
	.st128{fill:#D4D4D4;stroke:#B8B8B8;stroke-width:0.5;}
	.st129{fill:#D4D4D4;stroke:#B8B8B8;stroke-width:0.2;}
	.st130{fill:#C7C7C7;}
	.st131{fill:#DBF8FF;stroke:#7DBDCC;stroke-width:0.25;}
	.st132{fill:#C2F3FF;}
	.st133{fill:#F2F2F2;}
	.st134{fill:url(#SVGID_7_);stroke:#000000;}
	.st135{fill:#42210B;stroke:#000000;}
	.st136{fill:#C69C6D;stroke:#000000;}
	.st137{fill:#93278F;stroke:#000000;}
	.st138{fill:#589F3E;}
	.st139{fill:#4D8F39;}
	.st140{fill:#963528;}
	.st141{fill:#AC3A2D;}
	.st142{fill:#211915;}
	.st143{fill:#444242;}
	.st144{fill:#1A1A1A;}
	.st145{fill:#FFFFFF;}
	.st146{fill:#2E2E2E;}
	.st147{fill:#363636;}
	.st148{fill:#666666;}
	.st149{fill:#C69C6D;}
	.st150{fill:#B38D62;}
	.st151{fill:#A67C52;}
	.st152{fill:#8C6239;}
	.st153{fill:#9E10D2;}
	.st154{fill:#8210D2;}
	.st155{fill:#6B6B6B;}
	.st156{fill:#008C08;}
	.st157{fill:#00A308;}
	.st158{fill:#EC2024;}
	.st159{fill:#E31E26;}
	.st160{fill:#BED63A;}
	.st161{fill:#EC1C24;}
	.st162{fill:#00ADEE;}
	.st163{fill:#2E3191;}
</style>
<g>
	<g>
		<path class="st0" d="M104.42,76.05c-3.81-1.97-11.58-4.78-12.09-5.66c-2.22-3.76,0.32-13,0.72-17h-1.01H60.29h-1.01
			c0.4,4,3.51,13.39,1.05,17c-0.39,0.58-8.63,3.65-12.42,5.66c-3.14,1.66-11.71,6.88-12.87,7.31c0.3,0.39,4.09,11.7,8.1,17.76
			c1.84,2.78,2.7,5.47,5.05,7.78c2.43,2.38,5.21,4.34,8.26,5.68c3.67,1.61,7.6,2.4,11.55,2.64c2.7,0.17,5.44,0.14,8.16-0.08
			c2.72,0.23,5.46,0.25,8.16,0.08c3.95-0.25,7.88-1.03,11.55-2.64c3.05-1.34,5.83-3.3,8.26-5.68c2.36-2.31,3.12-5,4.97-7.78
			c4.01-6.06,8.39-17.43,8.69-17.82C116.61,82.91,107.4,77.6,104.42,76.05z"/>
		<g>
			<path class="st0" d="M125.32,95.4c-0.11-0.09-6.89-2.91-7-3c-4.13-3.44,1.37-8.53-2.5-9.97c-4.08-1.52-21.55,3.81-37.23,3.82
				c-0.04,0-1.38,0.03-2.27,0.05c-0.89-0.02-2.23-0.05-2.27-0.05c-15.69-0.01-27.57-9.43-27.57-9.43s-8.39,4.41-12.48,5.94
				C30.15,84.19,130.54,102.19,125.32,95.4z"/>
		</g>
		<path class="st0" d="M98.83,33.85c0,0-0.19-11.41-0.31-16.03c-0.13-4.99-0.38-12.68-14.64-17.05c-0.8-0.25-4.33-0.84-7.76-0.83
			c-3.21,0.01-6.33,0.6-7.08,0.83c-3.78,1.16-6.57,2.9-9.35,5.38c-3.8,3.38-5.33,6.68-5.45,11.67C54.11,22.44,54,33.85,54,33.85
			c-4.37-3.68-4.41,0.8-4.2,3.23c0.29,3.3,1.29,5.77,2.3,7.83c0.67,1.37,1.38,3.34,3.37,3.42c0.75,0.03,1.24-0.55,1.24-0.55
			s0.32,4.75,0.5,6.06c0.51,3.9,9.13,14.86,13.98,15.83c1.47,0.29,9.06,0.3,10.43,0.04c4.79-0.93,13.64-11.86,14.16-15.87
			c0.17-1.31,0.49-6.06,0.49-6.06s0.49,0.58,1.24,0.55c1.99-0.08,2.47-2.05,3.14-3.42c1.01-2.05,2.38-5.21,2.46-8.53
			C103.17,33.99,103.2,30.16,98.83,33.85z"/>
		<g>
			<g>
				<path class="st1" d="M54.65,41.24c0.11-0.01-0.87-3.58-1.45-5c-0.63-1.54-1.27-1.87-1.66-1.85c-0.74,0.04-1,3.47-1,3.47
					s0.54-3.68,2.2-0.72C53.2,37.97,54.52,41.25,54.65,41.24z"/>
				<path class="st1" d="M52.05,37.77c0.05-0.24,0.3-1.65,0.5-1.66c0.24-0.01,0.24,1.01,0.19,1.17c-0.16,0.5-0.32,1-0.43,1.54
					c-0.11,0.56-0.12,1.1-0.11,1.68c0.01,0.51,0.12,1.11,0.22,1.6c-0.39-0.38-0.49-1.9-0.5-2.47C51.9,38.64,51.95,38.32,52.05,37.77
					z"/>
				<path class="st2" d="M55.02,44.12c-0.03-0.09-0.56-1.27-0.6-1.36c-0.38-0.87,0.43,0.25,0.51,0.35c0.4,0.56,0.69,0.87,0.97,1.35
					c0.24,0.41,0.12,1.04-0.43,1.1c-0.46,0.05-1.04-0.39-1.23-1.04C54.2,44.43,55.43,45.24,55.02,44.12z"/>
			</g>
			<g>
				<path class="st1" d="M98.28,41.24c-0.11-0.01,0.87-3.58,1.45-5c0.63-1.54,1.27-1.88,1.66-1.85c0.74,0.04,1,3.47,1,3.47
					s-0.54-3.68-2.2-0.73C99.73,37.97,98.41,41.25,98.28,41.24z"/>
				<path class="st1" d="M100.88,37.77c-0.05-0.24-0.3-1.65-0.5-1.66c-0.24-0.01-0.24,1.01-0.19,1.17c0.16,0.5,0.32,1,0.43,1.54
					c0.11,0.56,0.12,1.1,0.11,1.68c-0.01,0.51-0.12,1.11-0.22,1.6c0.39-0.38,0.49-1.9,0.5-2.47
					C101.03,38.64,100.98,38.32,100.88,37.77z"/>
				<path class="st2" d="M97.91,44.12c0.03-0.09,0.56-1.27,0.6-1.36C98.9,41.88,98.08,43,98,43.1c-0.4,0.56-0.69,0.87-0.97,1.35
					c-0.24,0.41-0.12,1.04,0.43,1.1c0.46,0.05,1.04-0.39,1.24-1.04C98.73,44.43,97.5,45.24,97.91,44.12z"/>
			</g>
		</g>
	</g>
	<g>
		<path class="st15" d="M96.57,72.28c0,0,7.39,3.41,8.57,4.58c1.17,1.16,7.42,13.56,7.42,20.83c0,7.27,0.49,12.19,0.49,17.59
			c0,5.42-0.09,29.55-0.49,34.24c-0.4,4.67,1.13,26.62,1.13,30.51c0,3.87,2.8,11.98,2.8,15.12c0,3.15,2.42,14.41,2.42,21.8
			c0,7.38,0,16.59,0,16.59s-31.6-1.21-45.52-1.21c-13.94,0-38.64,2.3-38.64,2.3s-2.65-7.5-0.96-16.96
			c1.69-9.45,7.14-37.65,7.14-42.01c0-4.36,0.12-22.15,0.12-22.15s-1.22-35.97-1.22-42.14s0.37-17.92,2.78-24.59
			c2.43-6.66,5.4-11.56,5.95-12.1c0.54-0.55,5.56-1.53,5.56-1.53s20.72,9.76,29.67,6.38C92.76,76.13,96.57,72.28,96.57,72.28z"/>
		<path class="st15" d="M48.56,74.68c0,0-12.96,1.35-18.25,6.61c-5.29,5.29-7.9,21.72-9.19,30.77c-1.29,9.04-3.16,24.77-3.89,31.8
			c-0.73,7.01-1.04,15.65-1.6,16.23c-0.57,0.56-1.38,3.87-0.89,10.82c0.47,6.94-2.27,31-2.27,35.51c0,4.53,0.66,24.14,0.66,24.14
			l0,0l17.72-0.4c0,0,0.03-3.31,0.43-8.47c0.4-5.16,5.02-28.58,4.45-34.96c-0.58-6.36,0.73-12.26,0.73-15.01
			c0-2.74,2.65-14.78,2.65-15.74s1.94-3.63,1.94-3.63s-0.56-15.81-0.69-19.93c-0.11-4.12-0.48-15.01-0.5-18.65
			c-0.03-3.63,0.46-12.04,0.46-14.61c0-2.58,0.75-6.34,1.07-7.79c0.33-1.46,1.85-6.22,2.13-6.91c0.29-0.69,2.76-6,3.03-6.5
			C46.83,77.42,48.56,74.68,48.56,74.68z"/>
		<path class="st15" d="M101.59,74.71c0,0,10.93,1.62,14.45,3.33c3.5,1.68,5.9,2.38,8.63,5.1c2.76,2.76,7.1,22.14,7.1,29.15
			c0,7.04,1.15,20.99,2.28,25.84c1.13,4.84,2.58,12.83,2.58,15.41c0,2.59,4.27,19.77,3.64,28c-0.66,8.23-1.79,22.61-1.29,30.51
			c0.47,7.91,2.08,16.41-0.98,19.46c-0.86,0.86-15.41,0.64-15.97-1.14c-0.56-1.76-0.17-15.25-0.66-18.55
			c-0.47-3.31-2.17-23.97-2.98-28.33c-0.81-4.37-1.37-16.31-2.68-21.65c-1.29-5.32-3.16-11.94-3.16-11.94s0.47-22.61,0.47-25.58
			c0-2.98-0.41-22.94-0.44-25.19c-0.03-2.25-0.09-4.22-0.76-6.63c-0.67-2.43-2.88-8.47-3.58-9.96c-0.71-1.51-1.62-3.54-2.37-4.61
			C105.14,76.86,101.59,74.71,101.59,74.71z"/>
		<path class="st17" d="M43.07,87.36c0.33,0,1.62,4.17,1.62,6.85c0,2.67-0.69,7.86,0.73,9.28c1.4,1.42,0.16,4.53-0.56,6.95
			c-0.73,2.43-1.41,17.63,0.4,19.45c1.82,1.82,3.38-0.87,6.05-2.02c2.65-1.12,3.15-2.02,0.4,2.68c-2.74,4.69-6.22,6.87-2.34,9.78
			c3.89,2.89,9.85,4.99,5.34,4.99c-4.52,0-7.93,0.07-7.93,0.07s3.4,5.75,5.81,9.52c2.42,3.81,6.38,3.08,6.71,3.08
			c0.31,0,0.31-0.64,0.31,0c0,0.65-0.8,3.96-6.28,2.67c-5.49-1.29-7.84-3.07-7.84,0.08c0,3.14-0.07,12.99,1.86,20.19
			c1.94,7.18,0.66,6.94,3.96,7.5c3.31,0.56-2.25-0.49-5.08,3.47c-2.82,3.94-7.18,8.87-1.69,12.74c5.49,3.89,6.61,3.89,8.14,3.89
			c1.54,0-7.67-0.89-9.27,2.65c-1.62,3.56-1.78,3.07-0.65,6.21c1.12,3.16-7.51,3.56-6.22,5.82c1.29,2.26,6.94,2.11,12.67,2.11
			c5.74,0,1.61,1.52-1.04,2.81c-2.67,1.29,2.75,4.04,3.87,4.04c1.12,0-0.04,1.09-0.04,1.09s-7.38,0.87-11.41,0.87
			c-4.05,0-5.94,0.13-5.94,0.13s-1.4-6.03-1.4-9.2c0-3.14,0.84-8.95,1.52-12.7c0.69-3.75,2.48-13.38,3.02-16.45
			c0.55-3.06,2.45-13.7,2.78-16.61c0.33-2.91,0.36-5.33,0.38-9.09c0.02-3.75,0.11-15.54,0.11-16.34
			c-0.02-0.82-0.59-19.01-0.59-19.01l-0.62-24.19c0,0,0.53-17.33,1.58-20.37c1.05-3.07,1.53-3.07,1.53-3.07L43.07,87.36z"/>
		<path class="st17" d="M112.74,107.97c0,0-2.19-0.23-2.19,7.14c0,7.4-0.24,12.12-2.78,14.67c-2.54,2.54-9.09,0.83-4.73,2.65
			c4.37,1.82,5.09,1.82,5.09,1.82s-0.98-0.24-3.09,3.09c-2.13,3.33-5.87,5.76-3.81,6.86c2.05,1.08,5.32,2.42,5.32,2.42
			s4,8.73,1.22,11.5c-2.79,2.78-2.91,5.45-7.27,5.45c-4.37,0-9.92-1.22-6.65,2.05c3.27,3.27,10.16,5.2,10.77,5.2
			c0.61,0,3.15,6.18,3.15,6.18s-5.56,1.35-8,3.76c-2.42,2.41,3.51,3.14,6.17,4.73c2.67,1.56,5.2,5.07,5.2,11.37
			c0,6.29-0.48,14.16-5.56,16.23c-5.08,2.05-6,2.96-6,2.96s1.77,3.69,6.85,1.87c5.08-1.82,8.83-1.2,8.83-1.2s0.36,7.37-0.72,8.47
			c-1.09,1.08,4.36,2.3,4.36,2.3s0.13-10.25-0.07-12.92c-0.2-2.67-1.43-12.01-1.67-13.63c-0.24-1.63-1.05-8.81-1.58-11.02
			c-0.53-2.24-1.78-7.07-1.89-10.08c-0.11-3.04-0.55-11.5-0.55-11.5l-0.62-14.74l0.35-13.6l0.12-17.51L112.74,107.97z"/>
		<path class="st17" d="M129.06,95.32c0,0-5.76,6.65-8.5,11c-2.75,4.36-5.33,12.12,0,8.72c5.33-3.39,6.94-4.04,6.94,0
			c0,4.03-3.71,7.43-5.82,10.97c-2.09,3.56,2.84-1.37,5.98-4.5c3.15-3.16,4.2-5.18,4.2-5.18s-0.42-8.72-0.71-10.56
			c-0.31-1.83-1.24-6.72-1.42-7.5C129.57,97.48,129.06,95.32,129.06,95.32z"/>
		<path class="st17" d="M132.37,124.63c0,0-10.12,5.91-12.47,8.89c-2.33,3-8.39,8.89-4.51,7.6c3.87-1.29,12.35-9.85,13.16-9.85
			c0.8,0,4.27,2.74,2.34,6.37c-1.95,3.63,0.14,4.2,1.69,4.6c1.52,0.41,1.29,16.47-1.45,18.25c-2.75,1.78-5.74,2.34-5.02,3.07
			c0.73,0.72,4.69,0.46,6.38,0.46c1.71,0-2.02,0.25-2.02,2.44c0,2.18,3.07,0.15,4.6,0.87c1.54,0.73,0.45,3.03-0.87,4.36
			c-1.35,1.33,2.02,1.33,2.98,1.33s2.47-1.43,2.47-1.43s-0.98-6.22-1.29-7.89c-0.31-1.67-1.67-9.81-1.78-11.05
			c-0.12-1.24-1.11-7.54-1.29-8.54c-0.2-0.98-1.23-5.45-1.56-7.51C133.42,134.57,131.63,125.38,132.37,124.63z"/>
		<path class="st17" d="M25.22,91.59c0,0-3.02,13.22-3.43,15.92c-0.43,2.71-2.22,16.21-2.22,16.21s0.77,2.78,4.65,2.78
			c3.87,0,2.91-0.96,1.93-4c-0.96-3.03-3.63-9.56-0.96-12.23c2.67-2.67,1.82,4.13,4.84,6.05c3.03,1.95,0.49-4,0.49-11.14
			c0-7.14-0.85-12.96,1.45-17.32c2.31-4.34-0.62-7.48-0.62-7.48S26.53,86.68,25.22,91.59z"/>
		<path class="st17" d="M40.94,150.35c0,0-1.96,2.31-6.43,4.62c-4.48,2.29-5.94,4.11-3.4,4.11s3.89-0.61,3.89-0.61
			s-2.8,1.56-4.36,3.15c-1.58,1.58,1.2,0.96,3.14,0.96c1.94,0,2.78,2.79-1.58,3.64c-4.34,0.85-9.43,2.18-5.69,2.18
			c3.77,0,7.04-0.47,7.04,0.73c0,1.22-2.55,2.54-0.86,4.23c1.69,1.71,3.51,1.47,3.51,1.47s0.49-4.47,0.49-5.46
			c0-0.98,1.27-7.16,1.27-7.16s0.89-4.4,1.01-5.33c0.13-0.93,2.02-4.49,2.02-4.49L40.94,150.35z"/>
		<path class="st16" d="M58,70.08c0,0,4.11,7.34,15.58,7.34c11.47,0,10.98,0.56,14.45-0.89c3.47-1.46,6.55-5.89,6.55-5.89l3.86,3.15
			c0,0-6.47,6.47-10.09,7.5C84.72,82.34,76.4,83,73.09,82.67c-3.31-0.33-14.05-3.71-16.23-5.17c-2.16-1.45-2.75-4.36-2.75-4.36
			L58,70.08z"/>
	</g>
</g>
</svg>
