<?xml version="1.0" encoding="utf-8"?>
<!-- Generator: Adobe Illustrator 23.0.6, SVG Export Plug-In . SVG Version: 6.00 Build 0)  -->
<svg version="1.1" id="Capa_1" xmlns="http://www.w3.org/2000/svg" xmlns:xlink="http://www.w3.org/1999/xlink" x="0px" y="0px"
	 viewBox="0 0 152.79 186.83" style="enable-background:new 0 0 152.79 186.83;" xml:space="preserve">
<style type="text/css">
	.st0{fill:#F0AC80;}
	.st1{fill-rule:evenodd;clip-rule:evenodd;fill:#D68B62;}
	.st2{fill-rule:evenodd;clip-rule:evenodd;fill:#E8A073;}
	.st3{fill:#BFE9FF;}
	.st4{fill:#A8E1FF;}
	.st5{fill:#A3DEFF;}
	.st6{fill:#B0E3FF;}
	.st7{fill:#FF5955;}
	.st8{fill:#FF0000;}
	.st9{fill:#3A8A00;}
	.st10{fill:#417400;}
	.st11{fill:#4D4D4D;}
	.st12{fill:#333333;}
	.st13{fill:#1B1464;}
	.st14{fill:#271D91;}
	.st15{fill:#B2B2B2;stroke:#B2B2B2;stroke-width:0.25;}
	.st16{fill:#8C8C8C;stroke:#5A3D1C;stroke-width:0.25;}
	.st17{fill:#A6A6A6;}
	.st18{fill:#FFFFFF;stroke:#B2B2B2;stroke-width:0.25;}
	.st19{fill:#EBEBEB;}
	.st20{stroke:#000000;stroke-width:0.25;}
	.st21{fill:#8C8C8C;stroke:#003642;stroke-width:0.25;}
	.st22{fill:#7A7A7A;}
	.st23{fill:#666666;stroke:#666666;stroke-width:0.25;}
	.st24{fill:#141414;}
	.st25{fill:#FFFFFF;stroke:#B2B2B2;}
	.st26{fill:#EDEDED;}
	.st27{fill:#694721;}
	.st28{fill:#5A3D1C;}
	.st29{fill:#006631;}
	.st30{fill:#00592B;}
	.st31{fill:#035B73;stroke:#003642;stroke-width:0.25;}
	.st32{fill:#02495C;stroke:#003642;stroke-width:0.25;}
	.st33{fill:#02495C;}
	.st34{fill:#820000;stroke:#730000;}
	.st35{fill:#5C0000;stroke:#5A3D1C;stroke-width:0.25;}
	.st36{fill:#780000;}
	.st37{fill:#006B33;stroke:#003642;stroke-width:0.25;}
	.st38{fill:#00592B;stroke:#003642;stroke-width:0.25;}
	.st39{fill:#DB8C3D;stroke:#003642;stroke-width:0.25;}
	.st40{fill:#C2803D;}
	.st41{fill:#DB6D00;stroke:#003642;stroke-width:0.25;}
	.st42{fill:#3F3F3F;stroke:#3F3F3F;stroke-width:0.25;}
	.st43{stroke:#3F3F3F;stroke-width:0.25;}
	.st44{fill:#262626;}
	.st45{fill:#5A3D1C;stroke:#003642;stroke-width:0.25;}
	.st46{fill:#52361A;}
	.st47{fill:#422C15;stroke:#003642;stroke-width:0.25;}
	.st48{fill:#FFFFFF;stroke:#E8E8E8;}
	.st49{fill:#E3E3E3;}
	.st50{fill:#B2B2B2;}
	.st51{fill:#FFBF00;}
	.st52{fill:#F5B700;}
	.st53{fill:#EBAF00;stroke:#D19D00;stroke-width:0.25;}
	.st54{fill:#D010B1;}
	.st55{fill:#A60D8C;}
	.st56{fill:#00A33D;}
	.st57{fill:#008033;}
	.st58{fill:#00D4FF;}
	.st59{fill:#00ABFF;}
	.st60{fill:#0A0A0A;stroke:#000000;}
	.st61{fill:#666666;stroke:#000000;stroke-width:0.25;}
	.st62{stroke:#000000;}
	.st63{fill:#00B800;}
	.st64{fill:#009C00;}
	.st65{fill:#3F3F3F;}
	.st66{fill:#73A334;stroke:#8CC63F;stroke-width:0.1;}
	.st67{fill:#8CC63F;stroke:#8CC63F;stroke-width:0.1;}
	.st68{fill:#545454;}
	.st69{fill:#7558A4;}
	.st70{fill:#7536D1;}
	.st71{fill:#E2BB95;stroke:#D5AF8C;}
	.st72{fill:#D5AF8C;}
	.st73{fill:#E2BB95;stroke:#D5AF8C;stroke-width:0.5;}
	.st74{fill:#9E2231;}
	.st75{fill:#B72837;}
	.st76{fill:#FFE085;}
	.st77{fill:#EBCE7A;}
	.st78{fill:url(#SVGID_1_);}
	.st79{fill:url(#SVGID_2_);}
	.st80{fill:url(#SVGID_3_);}
	.st81{fill:#D00204;}
	.st82{fill:#D10507;}
	.st83{fill:#D3090B;}
	.st84{fill:#D40C0E;}
	.st85{fill:#D51012;}
	.st86{fill:#D71315;}
	.st87{fill:#D81718;}
	.st88{fill:#D91A1C;}
	.st89{fill:#DB1E1F;}
	.st90{fill:#DC2122;}
	.st91{fill:#DD2526;}
	.st92{fill:#DF2829;}
	.st93{fill:#E02C2D;}
	.st94{fill:#E22F30;}
	.st95{fill:#E33333;}
	.st96{fill:#E43637;}
	.st97{fill:#E63A3A;}
	.st98{fill:#E73D3E;}
	.st99{fill:#E84141;}
	.st100{fill:#EA4444;}
	.st101{fill:#EB4848;}
	.st102{fill:#EC4B4B;}
	.st103{fill:#EE4F4E;}
	.st104{fill:#EF5252;}
	.st105{fill:#F05655;}
	.st106{fill:#F25A59;}
	.st107{fill:#F35D5C;}
	.st108{fill:#047A04;}
	.st109{fill:#57B328;}
	.st110{fill:#507F29;}
	.st111{fill:#DDBB06;}
	.st112{fill:#A80000;}
	.st113{fill:#9E0000;}
	.st114{fill:#8F0000;stroke:#610000;stroke-width:0.25;}
	.st115{fill:#5A3D1C;stroke:#805426;}
	.st116{fill:#63421F;}
	.st117{fill:#5A3D1C;stroke:#6B4620;}
	.st118{fill:url(#SVGID_4_);}
	.st119{fill:#171717;stroke:#000000;}
	.st120{fill:#212121;}
	.st121{fill:url(#SVGID_5_);}
	.st122{fill:#3F3F3F;stroke:#3F3F3F;}
	.st123{fill:#8C8C8C;stroke:#3F3F3F;}
	.st124{fill:#808080;}
	.st125{fill:url(#SVGID_6_);}
	.st126{fill:none;}
	.st127{fill:#D4D4D4;}
	.st128{fill:#D4D4D4;stroke:#B8B8B8;stroke-width:0.5;}
	.st129{fill:#D4D4D4;stroke:#B8B8B8;stroke-width:0.2;}
	.st130{fill:#C7C7C7;}
	.st131{fill:#DBF8FF;stroke:#7DBDCC;stroke-width:0.25;}
	.st132{fill:#C2F3FF;}
	.st133{fill:#F2F2F2;}
	.st134{fill:url(#SVGID_7_);stroke:#000000;}
	.st135{fill:#42210B;stroke:#000000;}
	.st136{fill:#C69C6D;stroke:#000000;}
	.st137{fill:#93278F;stroke:#000000;}
	.st138{fill:#589F3E;}
	.st139{fill:#4D8F39;}
	.st140{fill:#963528;}
	.st141{fill:#AC3A2D;}
	.st142{fill:#211915;}
	.st143{fill:#444242;}
	.st144{fill:#1A1A1A;}
	.st145{fill:#FFFFFF;}
	.st146{fill:#2E2E2E;}
	.st147{fill:#363636;}
	.st148{fill:#666666;}
	.st149{fill:#C69C6D;}
	.st150{fill:#B38D62;}
	.st151{fill:#A67C52;}
	.st152{fill:#8C6239;}
	.st153{fill:#9E10D2;}
	.st154{fill:#8210D2;}
	.st155{fill:#6B6B6B;}
	.st156{fill:#008C08;}
	.st157{fill:#00A308;}
	.st158{fill:#EC2024;}
	.st159{fill:#E31E26;}
	.st160{fill:#BED63A;}
	.st161{fill:#EC1C24;}
	.st162{fill:#00ADEE;}
	.st163{fill:#2E3191;}
</style>
<g>
	<g>
		<path class="st0" d="M103.87,76.12c-3.81-1.97-9.05-4.3-9.57-5.18c-2.22-3.76-2.21-13.48-1.8-17.48h-1.01H59.74h-1.01
			c0.4,4,0.92,13.87-1.54,17.48c-0.39,0.58-6.05,3.17-9.83,5.18c-3.14,1.66-11.71,6.88-12.87,7.31c0.3,0.39,4.09,11.7,8.1,17.76
			c1.84,2.78,2.7,5.47,5.05,7.78c2.43,2.38,5.21,4.34,8.26,5.68c3.67,1.61,7.6,2.4,11.55,2.64c2.7,0.17,5.44,0.14,8.16-0.08
			c2.72,0.23,5.46,0.25,8.16,0.08c3.95-0.25,7.88-1.03,11.55-2.64c3.05-1.34,5.83-3.3,8.26-5.68c2.36-2.31,3.12-5,4.97-7.78
			c4.01-6.06,8.39-17.43,8.69-17.82C116.06,82.98,106.85,77.67,103.87,76.12z"/>
		<path class="st0" d="M98.28,33.91c0,0-0.19-11.41-0.31-16.03c-0.13-4.99-0.38-12.68-14.64-17.05C82.53,0.58,79-0.01,75.57,0
			c-3.21,0.01-6.33,0.6-7.08,0.83c-3.78,1.16-6.57,2.9-9.35,5.38c-3.8,3.38-5.33,6.68-5.45,11.67c-0.12,4.62-0.23,16.03-0.23,16.03
			c-4.37-3.68-4.41,0.8-4.2,3.23c0.29,3.3,1.29,5.77,2.3,7.83c0.67,1.37,1.38,3.34,3.37,3.42c0.75,0.03,1.24-0.55,1.24-0.55
			s0.32,4.75,0.49,6.06c0.51,3.9,9.13,14.86,13.98,15.83c1.47,0.29,9.06,0.3,10.43,0.04c4.79-0.93,13.64-11.86,14.16-15.87
			c0.17-1.31,0.49-6.06,0.49-6.06s0.49,0.58,1.24,0.55c1.99-0.08,2.47-2.05,3.14-3.42c1.01-2.05,2.38-5.21,2.46-8.53
			C102.62,34.06,102.65,30.23,98.28,33.91z"/>
		<g>
			<g>
				<path class="st1" d="M54.1,41.31c0.11-0.01-0.87-3.58-1.45-5c-0.63-1.54-1.27-1.87-1.66-1.85c-0.74,0.04-1,3.47-1,3.47
					s0.54-3.68,2.2-0.72C52.65,38.03,53.97,41.32,54.1,41.31z"/>
				<path class="st1" d="M51.5,37.83c0.05-0.24,0.3-1.65,0.5-1.66c0.24-0.01,0.24,1.01,0.19,1.17c-0.16,0.5-0.32,1-0.43,1.54
					c-0.11,0.56-0.12,1.1-0.11,1.68c0.01,0.51,0.12,1.11,0.22,1.6c-0.39-0.38-0.49-1.9-0.5-2.47C51.35,38.71,51.4,38.39,51.5,37.83z
					"/>
				<path class="st2" d="M54.47,44.18c-0.03-0.09-0.56-1.27-0.6-1.36c-0.38-0.87,0.43,0.25,0.51,0.35c0.4,0.56,0.69,0.87,0.97,1.35
					c0.24,0.41,0.12,1.04-0.43,1.1c-0.46,0.05-1.04-0.39-1.23-1.04C53.65,44.49,54.88,45.31,54.47,44.18z"/>
			</g>
			<g>
				<path class="st1" d="M97.73,41.31c-0.11-0.01,0.87-3.58,1.45-5c0.63-1.54,1.27-1.88,1.66-1.85c0.74,0.04,1,3.47,1,3.47
					s-0.54-3.68-2.2-0.73C99.18,38.03,97.86,41.32,97.73,41.31z"/>
				<path class="st1" d="M100.33,37.83c-0.05-0.24-0.3-1.65-0.5-1.66c-0.24-0.01-0.24,1.01-0.19,1.17c0.16,0.5,0.32,1,0.43,1.54
					c0.11,0.56,0.12,1.1,0.11,1.68c-0.01,0.51-0.12,1.11-0.22,1.6c0.39-0.38,0.49-1.9,0.5-2.47
					C100.48,38.71,100.43,38.39,100.33,37.83z"/>
				<path class="st2" d="M97.37,44.18c0.03-0.09,0.56-1.27,0.6-1.36c0.38-0.87-0.43,0.25-0.51,0.35c-0.4,0.56-0.69,0.87-0.97,1.35
					c-0.24,0.41-0.12,1.04,0.43,1.1c0.46,0.05,1.04-0.39,1.24-1.04C98.18,44.49,96.95,45.31,97.37,44.18z"/>
			</g>
		</g>
	</g>
	<g>
		<path class="st155" d="M33.03,209.75c0,0-6.48,2.82-9.8,2.82c-3.32,0-3.32,0-3.32,0s0-5.65,0-9.63c0-3.98,0.83-22.25,0.99-31.88
			c0.17-9.64,1.66-22.43,2.16-30.74c0.5-8.3,2.99-28.4,2.82-34.38c-0.17-5.98-0.33-21.93,4.32-26.58c4.65-4.65,5.32-5.98,8.47-5.98
			c3.17,0,7.97-0.83,9.63-1.32c1.66-0.51,3.16-0.17,3.16-0.17s5.48,12.29,7.31,15.11c1.83,2.82,5.82,7.14,11.63,7.47
			c5.81,0.33,9.97,0.5,14.12-1.66c4.15-2.16,8.97-6.31,10.96-9.46c1.99-3.16,3.32-10.63,3.32-10.63s6.18-1.17,9.13,0.17
			c1.98,0.89,11.3,3.32,13.46,8.48c2.17,5.14,4.82,16.1,4.98,26.57c0.17,10.46,3.99,21.26,4.32,25.4
			c0.33,4.16,1.99,37.71,2.16,45.84c0.17,8.15-0.5,26.42-0.5,28.57c0,2.16-2.65,2.98-5.47,2c-2.83-1-4.99-1-4.99-1.66
			c0-0.67,0.17-3.82-0.16-5.98c-0.33-2.16-4.32-5.47-3.99-8.63c0.34-3.16,0.99-4.99,0.99-4.99s-0.99-6.81-1.65-11.29
			c-0.66-4.49-3.15-19.27-3.15-19.27s-1.66-12.46-2-20.76c-0.33-8.31-1.82-20.27-2.65-22.92c-0.83-2.66-3.32-5.31-3.32-5.31
			s-0.17,33.05-0.17,38.37c0,5.31,5.15,30.39,5.82,39.86c0.67,9.47,4.98,54.97,2.33,57.8c-2.67,2.83-11.46,5.49-16.78,5.49
			c-5.31,0-18.27,0.16-26.24-0.51c-7.98-0.66-22.09,0.34-28.07-2.82c-5.98-3.15-8.63-4.98-8.63-4.98s3.32-30.72,3.82-41.19
			c0.5-10.47,2.33-22.75,4.66-34.87c2.32-12.13,1.99-19.77,2.83-28.56c0.82-8.81-0.33-26.25-0.33-26.25l-0.67-2
			c0,0-1.82,20.6-2.99,25.92c-1.16,5.31-5.48,34.71-5.82,40.36c-0.33,5.64-2.49,13.11-2.49,16.11c0,3-1.32,7.47-1.32,10.13
			C31.87,204.43,33.03,209.75,33.03,209.75z"/>
		<path class="st11" d="M40.17,75.22c0,0-6.64,2.49-8.8,8.64c-2.16,6.14-1.83,7.48-1.83,7.48s2.5-9.96,5.49-11.63
			c2.99-1.66,5.48-3.48,5.48-3.48s1.16-1.33,1.49,2.32c0.33,3.65,0.67,12.13,0.5,15.61c-0.17,3.49-0.17,3.49-0.17,3.49
			s1.5-6.64,1.5-10.96c0-4.33-0.67-8.31-1-9.47C42.5,76.05,40.17,75.22,40.17,75.22z"/>
		<path class="st11" d="M40.84,77.38c0,0-5.26,3.53-6.15,5.15c-1,1.83-1.66,6.82-1.66,6.82s1.99-6.32,3.65-7.97
			c1.65-1.67,4.48-3.17,4.48-3.17L40.84,77.38z"/>
		<path class="st11" d="M107.98,74.18c0,0-3.82,8.97-3.82,12.12c0,3.16,0.33,7.14,0.33,7.14s1-6.97,1-7.64
			c0-0.66,1.15,3.32,1.15,4.99c0,1.65,0.34-3.16,0.17-5.98c-0.17-2.82-0.17-2.82-0.17-2.82l1-2.66c0,0,1.99,1.16,2.49,3.15
			c0.5,1.99,1.16,6.98,1.16,6.98s0.34-8.97-1.16-10.47c-1.49-1.49-1.49-1.49-1.49-1.49l0.49-2.15c0,0,2.5-0.67,5.32,2.32
			c2.83,2.99,4.49,5.81,4.49,5.81s-3.99-6.47-5.48-7.63C111.96,74.68,107.98,74.18,107.98,74.18z"/>
		<path class="st11" d="M38.01,137.67c0,0-0.66,5.31-3.48,8.97c-2.83,3.66-3.66,7.97-3.66,7.97s2.17-3.99,3.99-6.64
			c1.83-2.66,3.65-4.81,3.99-7.14C39.18,138.5,38.01,137.67,38.01,137.67z"/>
		<path class="st11" d="M128.2,136.5c0,0-5.65,5.15-7.81,7.48c-2.16,2.32-3.98,3.14-3.98,3.14s2.83-0.32,5.65-2.65
			C124.88,142.15,127.03,136.84,128.2,136.5z"/>
		<path class="st11" d="M47.48,124.22c0.33,1.16,3.16,4.32,5.15,4.48c2,0.17,7.98,0.67,7.98,0.67s-3.66,1.66-7.82,0.33
			c-4.14-1.32-5.97-4.15-5.97-4.15L47.48,124.22z"/>
		<path class="st11" d="M102.62,123.22c0,0,0.99,0.66,0.5,0.66c-0.5,0-0.83,1.65-4.15,2.99c-3.32,1.33-4.82,1.99-8.31,1.99
			c-3.49,0-3.49,0-3.49,0s6.15-0.5,9.47-2.16C99.96,125.04,102.62,123.22,102.62,123.22z"/>
		<path class="st11" d="M49.14,71.98l2.41-0.42c0,0,1.99,4.4,2.74,6.06c0.75,1.66,3.32,6.15,3.66,7.47
			c0.33,1.33,1.99,3.49,4.57,5.24c2.58,1.74,2.49,3.49,7.22,3.64c4.74,0.17,8.39,0.83,11.71-0.33c3.32-1.17,7.56-4.24,9.22-5.57
			c1.66-1.33,4.32-4.07,5.39-6.23c1.08-2.16,2-6.31,2.08-7.8c0.08-1.49,0.66-1.83,0.91-1.83c0.26,0,2.24,0.08,2.24,0.08
			s0,3.66-1.25,7.15c-1.24,3.48-5.64,10.79-8.71,12.36c-3.08,1.58-6.81,5.48-17.78,4.07c-10.96-1.41-12.79-1.75-16.03-6.48
			C54.29,84.69,49.14,71.98,49.14,71.98z"/>
	</g>
</g>
</svg>
