<?xml version="1.0" encoding="utf-8"?>
<!-- Generator: Adobe Illustrator 23.0.6, SVG Export Plug-In . SVG Version: 6.00 Build 0)  -->
<svg version="1.1" id="Capa_1" xmlns="http://www.w3.org/2000/svg" xmlns:xlink="http://www.w3.org/1999/xlink" x="0px" y="0px"
	 viewBox="0 0 152.79 186.83" style="enable-background:new 0 0 152.79 186.83;" xml:space="preserve">
<style type="text/css">
	.st0{fill:#F0AC80;}
	.st1{fill-rule:evenodd;clip-rule:evenodd;fill:#D68B62;}
	.st2{fill-rule:evenodd;clip-rule:evenodd;fill:#E8A073;}
	.st3{fill:#BFE9FF;}
	.st4{fill:#A8E1FF;}
	.st5{fill:#A3DEFF;}
	.st6{fill:#B0E3FF;}
	.st7{fill:#FF5955;}
	.st8{fill:#FF0000;}
	.st9{fill:#3A8A00;}
	.st10{fill:#417400;}
	.st11{fill:#4D4D4D;}
	.st12{fill:#333333;}
	.st13{fill:#1B1464;}
	.st14{fill:#271D91;}
	.st15{fill:#B2B2B2;stroke:#B2B2B2;stroke-width:0.25;}
	.st16{fill:#8C8C8C;stroke:#5A3D1C;stroke-width:0.25;}
	.st17{fill:#A6A6A6;}
	.st18{fill:#FFFFFF;stroke:#B2B2B2;stroke-width:0.25;}
	.st19{fill:#EBEBEB;}
	.st20{stroke:#000000;stroke-width:0.25;}
	.st21{fill:#8C8C8C;stroke:#003642;stroke-width:0.25;}
	.st22{fill:#7A7A7A;}
	.st23{fill:#666666;stroke:#666666;stroke-width:0.25;}
	.st24{fill:#141414;}
	.st25{fill:#FFFFFF;stroke:#B2B2B2;}
	.st26{fill:#EDEDED;}
	.st27{fill:#694721;}
	.st28{fill:#5A3D1C;}
	.st29{fill:#006631;}
	.st30{fill:#00592B;}
	.st31{fill:#035B73;stroke:#003642;stroke-width:0.25;}
	.st32{fill:#02495C;stroke:#003642;stroke-width:0.25;}
	.st33{fill:#02495C;}
	.st34{fill:#820000;stroke:#730000;}
	.st35{fill:#5C0000;stroke:#5A3D1C;stroke-width:0.25;}
	.st36{fill:#780000;}
	.st37{fill:#006B33;stroke:#003642;stroke-width:0.25;}
	.st38{fill:#00592B;stroke:#003642;stroke-width:0.25;}
	.st39{fill:#DB8C3D;stroke:#003642;stroke-width:0.25;}
	.st40{fill:#C2803D;}
	.st41{fill:#DB6D00;stroke:#003642;stroke-width:0.25;}
	.st42{fill:#3F3F3F;stroke:#3F3F3F;stroke-width:0.25;}
	.st43{stroke:#3F3F3F;stroke-width:0.25;}
	.st44{fill:#262626;}
	.st45{fill:#5A3D1C;stroke:#003642;stroke-width:0.25;}
	.st46{fill:#52361A;}
	.st47{fill:#422C15;stroke:#003642;stroke-width:0.25;}
	.st48{fill:#FFFFFF;stroke:#E8E8E8;}
	.st49{fill:#E3E3E3;}
	.st50{fill:#B2B2B2;}
	.st51{fill:#FFBF00;}
	.st52{fill:#F5B700;}
	.st53{fill:#EBAF00;stroke:#D19D00;stroke-width:0.25;}
	.st54{fill:#D010B1;}
	.st55{fill:#A60D8C;}
	.st56{fill:#00A33D;}
	.st57{fill:#008033;}
	.st58{fill:#00D4FF;}
	.st59{fill:#00ABFF;}
	.st60{fill:#0A0A0A;stroke:#000000;}
	.st61{fill:#666666;stroke:#000000;stroke-width:0.25;}
	.st62{stroke:#000000;}
	.st63{fill:#00B800;}
	.st64{fill:#009C00;}
	.st65{fill:#3F3F3F;}
	.st66{fill:#73A334;stroke:#8CC63F;stroke-width:0.1;}
	.st67{fill:#8CC63F;stroke:#8CC63F;stroke-width:0.1;}
	.st68{fill:#545454;}
	.st69{fill:#7558A4;}
	.st70{fill:#7536D1;}
	.st71{fill:#E2BB95;stroke:#D5AF8C;}
	.st72{fill:#D5AF8C;}
	.st73{fill:#E2BB95;stroke:#D5AF8C;stroke-width:0.5;}
	.st74{fill:#9E2231;}
	.st75{fill:#B72837;}
	.st76{fill:#FFE085;}
	.st77{fill:#EBCE7A;}
	.st78{fill:url(#SVGID_1_);}
	.st79{fill:url(#SVGID_2_);}
	.st80{fill:url(#SVGID_3_);}
	.st81{fill:#D00204;}
	.st82{fill:#D10507;}
	.st83{fill:#D3090B;}
	.st84{fill:#D40C0E;}
	.st85{fill:#D51012;}
	.st86{fill:#D71315;}
	.st87{fill:#D81718;}
	.st88{fill:#D91A1C;}
	.st89{fill:#DB1E1F;}
	.st90{fill:#DC2122;}
	.st91{fill:#DD2526;}
	.st92{fill:#DF2829;}
	.st93{fill:#E02C2D;}
	.st94{fill:#E22F30;}
	.st95{fill:#E33333;}
	.st96{fill:#E43637;}
	.st97{fill:#E63A3A;}
	.st98{fill:#E73D3E;}
	.st99{fill:#E84141;}
	.st100{fill:#EA4444;}
	.st101{fill:#EB4848;}
	.st102{fill:#EC4B4B;}
	.st103{fill:#EE4F4E;}
	.st104{fill:#EF5252;}
	.st105{fill:#F05655;}
	.st106{fill:#F25A59;}
	.st107{fill:#F35D5C;}
	.st108{fill:#047A04;}
	.st109{fill:#57B328;}
	.st110{fill:#507F29;}
	.st111{fill:#DDBB06;}
	.st112{fill:#A80000;}
	.st113{fill:#9E0000;}
	.st114{fill:#8F0000;stroke:#610000;stroke-width:0.25;}
	.st115{fill:#5A3D1C;stroke:#805426;}
	.st116{fill:#63421F;}
	.st117{fill:#5A3D1C;stroke:#6B4620;}
	.st118{fill:url(#SVGID_4_);}
	.st119{fill:#171717;stroke:#000000;}
	.st120{fill:#212121;}
	.st121{fill:url(#SVGID_5_);}
	.st122{fill:#3F3F3F;stroke:#3F3F3F;}
	.st123{fill:#8C8C8C;stroke:#3F3F3F;}
	.st124{fill:#808080;}
	.st125{fill:url(#SVGID_6_);}
	.st126{fill:none;}
	.st127{fill:#D4D4D4;}
	.st128{fill:#D4D4D4;stroke:#B8B8B8;stroke-width:0.5;}
	.st129{fill:#D4D4D4;stroke:#B8B8B8;stroke-width:0.2;}
	.st130{fill:#C7C7C7;}
	.st131{fill:#DBF8FF;stroke:#7DBDCC;stroke-width:0.25;}
	.st132{fill:#C2F3FF;}
	.st133{fill:#F2F2F2;}
	.st134{fill:url(#SVGID_7_);stroke:#000000;}
	.st135{fill:#42210B;stroke:#000000;}
	.st136{fill:#C69C6D;stroke:#000000;}
	.st137{fill:#93278F;stroke:#000000;}
	.st138{fill:#589F3E;}
	.st139{fill:#4D8F39;}
	.st140{fill:#963528;}
	.st141{fill:#AC3A2D;}
	.st142{fill:#211915;}
	.st143{fill:#444242;}
	.st144{fill:#1A1A1A;}
	.st145{fill:#FFFFFF;}
	.st146{fill:#2E2E2E;}
	.st147{fill:#363636;}
	.st148{fill:#666666;}
	.st149{fill:#C69C6D;}
	.st150{fill:#B38D62;}
	.st151{fill:#A67C52;}
	.st152{fill:#8C6239;}
	.st153{fill:#9E10D2;}
	.st154{fill:#8210D2;}
	.st155{fill:#6B6B6B;}
	.st156{fill:#008C08;}
	.st157{fill:#00A308;}
	.st158{fill:#EC2024;}
	.st159{fill:#E31E26;}
	.st160{fill:#BED63A;}
	.st161{fill:#EC1C24;}
	.st162{fill:#00ADEE;}
	.st163{fill:#2E3191;}
</style>
<g>
	<g>
		<path class="st0" d="M111.27,76.12c-3.81-1.97-9.05-4.3-9.57-5.18c-2.22-3.76-2.21-13.48-1.8-17.48h-1.01H67.14h-1.01
			c0.4,4,0.92,13.87-1.54,17.48c-0.39,0.58-6.05,3.17-9.83,5.18c-3.14,1.66-11.71,6.88-12.87,7.31c0.3,0.39,4.09,11.7,8.1,17.76
			c1.84,2.78,2.7,5.47,5.05,7.78c2.43,2.38,5.21,4.34,8.26,5.68c3.67,1.61,7.6,2.4,11.55,2.64c2.7,0.17,5.44,0.14,8.16-0.08
			c2.72,0.23,5.46,0.25,8.16,0.08c3.95-0.25,7.88-1.03,11.55-2.64c3.05-1.34,5.83-3.3,8.26-5.68c2.36-2.31,3.12-5,4.97-7.78
			c4.01-6.06-1.08-11.34-0.78-11.73C113.99,89.07,114.25,77.67,111.27,76.12z"/>
		<g>
			<path class="st0" d="M105.17,97.46c-0.11-0.09,10.11-2.91,10-3c-4.13-3.44-1.13-4.56-5-6c-4.08-1.52-9.05-2.17-24.73-2.15
				c-0.04,0-1.38,0.03-2.27,0.05c-0.89-0.02-2.23-0.05-2.27-0.05c-15.69-0.01-27.57-9.43-27.57-9.43s-8.39,4.41-12.48,5.94
				C37,84.25,110.39,104.26,105.17,97.46z"/>
		</g>
		<path class="st0" d="M105.68,33.91c0,0-0.19-11.41-0.31-16.03c-0.13-4.99-0.38-12.68-14.64-17.05C89.93,0.58,86.4-0.01,82.97,0
			c-3.21,0.01-6.33,0.6-7.08,0.83c-3.78,1.16-6.57,2.9-9.35,5.38c-3.8,3.38-5.33,6.68-5.45,11.67c-0.12,4.62-0.23,16.03-0.23,16.03
			c-4.37-3.68-4.41,0.8-4.2,3.23c0.29,3.3,1.29,5.77,2.3,7.83c0.67,1.37,1.38,3.34,3.37,3.42c0.75,0.03,1.24-0.55,1.24-0.55
			s0.32,4.75,0.49,6.06c0.51,3.9,9.13,14.86,13.98,15.83c1.47,0.29,9.06,0.3,10.43,0.04c4.79-0.93,13.64-11.86,14.16-15.87
			c0.17-1.31,0.49-6.06,0.49-6.06s0.49,0.58,1.24,0.55c1.99-0.08,2.47-2.05,3.14-3.42c1.01-2.05,2.38-5.21,2.46-8.53
			C110.02,34.06,110.05,30.23,105.68,33.91z"/>
		<g>
			<g>
				<path class="st1" d="M61.5,41.31c0.11-0.01-0.87-3.58-1.45-5c-0.63-1.54-1.27-1.87-1.66-1.85c-0.74,0.04-1,3.47-1,3.47
					s0.54-3.68,2.2-0.72C60.05,38.03,61.37,41.32,61.5,41.31z"/>
				<path class="st1" d="M58.9,37.83c0.05-0.24,0.3-1.65,0.5-1.66c0.24-0.01,0.24,1.01,0.19,1.17c-0.16,0.5-0.32,1-0.43,1.54
					c-0.11,0.56-0.12,1.1-0.11,1.68c0.01,0.51,0.12,1.11,0.22,1.6c-0.39-0.38-0.49-1.9-0.5-2.47C58.75,38.71,58.8,38.39,58.9,37.83z
					"/>
				<path class="st2" d="M61.87,44.18c-0.03-0.09-0.56-1.27-0.6-1.36c-0.38-0.87,0.43,0.25,0.51,0.35c0.4,0.56,0.69,0.87,0.97,1.35
					c0.24,0.41,0.12,1.04-0.43,1.1c-0.46,0.05-1.04-0.39-1.23-1.04C61.05,44.49,62.28,45.31,61.87,44.18z"/>
			</g>
			<g>
				<path class="st1" d="M105.13,41.31c-0.11-0.01,0.87-3.58,1.45-5c0.63-1.54,1.27-1.88,1.66-1.85c0.74,0.04,1,3.47,1,3.47
					s-0.54-3.68-2.2-0.73C106.58,38.03,105.26,41.32,105.13,41.31z"/>
				<path class="st1" d="M107.73,37.83c-0.05-0.24-0.3-1.65-0.5-1.66c-0.24-0.01-0.24,1.01-0.19,1.17c0.16,0.5,0.32,1,0.43,1.54
					c0.11,0.56,0.12,1.1,0.11,1.68c-0.01,0.51-0.12,1.11-0.22,1.6c0.39-0.38,0.49-1.9,0.5-2.47
					C107.88,38.71,107.83,38.39,107.73,37.83z"/>
				<path class="st2" d="M104.77,44.18c0.03-0.09,0.56-1.27,0.6-1.36c0.38-0.87-0.43,0.25-0.51,0.35c-0.4,0.56-0.69,0.87-0.97,1.35
					c-0.24,0.41-0.12,1.04,0.43,1.1c0.46,0.05,1.04-0.39,1.24-1.04C105.58,44.49,104.35,45.31,104.77,44.18z"/>
			</g>
		</g>
	</g>
	<g>
		<path class="st69" d="M142.86,191.82c0.36-5.45,1.55-11.15,1.45-16.14c-0.17-8.9-1.28-18.44-2.91-26.99
			c-1.54-8.04-4.23-15.56-6.11-23.13c-2.71-10.93-5.71-23.65-9.88-33.64c-3.6-8.65-4.89-12.16-12.21-15.77
			c-2.39-1.19-7.69-4.35-9.59-3.85c-1.17,0.29-2.86,3.76-4.07,5.25c-4.69,5.8-9.04,10.44-14.53,14c-6.39-3.16-10.52-9.28-15.11-14.7
			c-2.47-2.9-5.12-7.86-7.56-7.35c-4.33,0.88-11.4,2.09-15.11,4.54c-4.1,2.72-7.64,10.76-10.46,16.47
			c-3.27,6.58-6.08,13.11-8.44,19.28c-6.68,17.48-15.52,36.23-17.72,57.83c-1.36,13.16-3.13,29.14-1.47,42.41
			c4.38-0.13,9.59,0.25,13.96,0.35c1.31-2.98,2.06-7.6,1.75-10.86c-0.26-2.67-2.29-5.13-2.61-7.37c-1.01-6.71,1.35-11.28,2.61-16.14
			c2.7-10.32,3.07-22.54,6.97-31.53c3.77-8.69,8.83-16.63,13.37-23.84c1.6-2.51,2.42-6.16,4.93-7.34c4.2,9.82,0.75,23.72,1.46,35.75
			c-3.73,8.73-3.15,19-6.68,27.69c-1.29,3.18-4.84,9.79-3.2,14.02c1.29,3.33,12.56,6.22,16.57,7c7.59,1.52,13.81,1.9,20.93,2.47
			c6.26,0.49,12.07-0.17,18.6-1.05c7.07-0.96,16.12-2.08,17.44-8.08c0.55-6.9-2.62-12.84-3.2-19.61c-0.16-1.93,0.25-3.96,0-5.97
			c-0.38-3.05-2.07-5.74-2.62-8.77c-0.25-1.42-0.03-3.19-0.28-4.89c-0.23-1.54-1.16-2.89-1.17-4.2c-0.02-1.61,0.83-3.5,0.87-5.25
			c0.09-3.51-1.31-7.23-1.15-10.53c0.08-1.91,2.25-12.37,4.07-12.62c1.83-0.24,2.89,3.95,4.06,6.68c3.55,8.15,7.89,15.89,9.89,23.48
			c1.66,6.29,1.96,13.04,2.91,20.33c0.95,7.22,2.4,15.23,2.04,21.36c-0.24,4.16-1.54,9.03-2.33,13.34
			c-0.86,4.71-1.39,9.4-1.75,14.36c3.68,2.1,9.65,4.82,14.53,3.15C144.21,213.97,142.14,202.47,142.86,191.82z M60.28,141.79
			c0.58,3.22,1.85,8.54,2.09,9.36c0.23,0.85-2.21-1.53-2.9-3.35c-0.69-1.83-1.62-2.25-1.62-2.25s-1.74,4.36,0.58,8.11
			c2.32,3.78,5.45,6.16,5.45,6.16s-4.3-2.65-8.23-1.24c-3.95,1.37-3.95,6.28-3.15,6.97c0.82,0.71,8.36,1.82,8.36,1.82
			s-8.36,1.11-9.04,1.11c-0.7,0-4.17,1.4-1.17,5.45c3.02,4.07,4.41,4.33,4.41,4.33s-0.69,0.43-4.53,0.3
			c-3.83-0.13-4.29,4.07-4.06,6.29c0.24,2.24,2.09,6.16,5.8,7c3.71,0.83-2.2,2.52-2.2,2.52s-5.46-2.8-6.97-4.34
			c-1.5-1.53-1.27-2.93,0.93-7.4c2.21-4.49,2.33-8.41,3.61-11.63c1.27-3.2,1.38-13.83,3.71-17.6c2.32-3.78,2.43-10.07,2.43-14.27
			c0-4.19,0.59-17.61,0.59-17.61s0.46,10.9,4.28,13.01c3.83,2.09,6.38,3.07,6.38,3.07s-4.53-0.15-6.38-2.38
			C56.8,132.97,59.7,138.57,60.28,141.79z M72.69,89.19c-5.1-5.71-7.42-12.16-7.42-12.16l2.09,1.11c0,0,12.87,14.27,16.12,14.97
			c3.25,0.71,10.9-6.27,14.15-9.5c3.25-3.22,5.8-6.31,5.8-6.31S93.34,94.08,88.23,96.19C83.13,98.29,77.8,94.93,72.69,89.19z
			 M109.45,179.4c3.37,11.74,2.68,13.7-0.23,15.25c-2.9,1.53-8.11,1.8-8.7,1.67c-0.57-0.14,5.35-1.27,6.38-1.53
			c1.05-0.29-1.96-2.94-4.86-3.36c-2.91-0.42,4.62-1.69,4.75-4.05c0.11-2.4,0.7-5.89-0.35-8.95c-1.05-3.09-3.83,3.2-6.38,3.49
			c-2.55,0.29,1.16-3.06,2.44-7.13c1.27-4.05,1.62-7.69,0.46-11.74c-1.16-4.07-3.83,2.8-4.07,3.22c-0.23,0.4,1.75-5.04,2.22-9.37
			c0.46-4.34,1.61-12.73,1.61-13.14c0-0.42-4.06,3.2-7.18,4.05c-3.13,0.84,3.94-2.94,4.86-5.59c0.93-2.67,1.86-6.44-1.16-5.6
			c-3.01,0.83-7.88,0.68-8.81-0.42c-0.92-1.12,7.89,0.42,9.39-1.96c1.51-2.38,7.07-8.96,7.07-8.96s-4.29,8.54-3.48,14.83
			c0.81,6.29,1.04,8.67,3.02,18.74C108.42,168.91,106.09,167.66,109.45,179.4z"/>
		<path class="st70" d="M58.66,135.21c1.86,2.23,6.38,2.38,6.38,2.38s-2.55-0.98-6.38-3.07c-3.82-2.1-4.28-13.01-4.28-13.01
			s-0.59,13.43-0.59,17.61c0,4.2-0.11,10.49-2.43,14.27c-2.33,3.77-2.44,14.4-3.71,17.6c-1.28,3.22-1.39,7.14-3.61,11.63
			c-2.2,4.47-2.43,5.87-0.93,7.4c1.51,1.53,6.97,4.34,6.97,4.34s5.91-1.69,2.2-2.52c-3.71-0.84-5.57-4.75-5.8-7
			c-0.22-2.22,0.24-6.42,4.06-6.29c3.84,0.14,4.53-0.3,4.53-0.3s-1.39-0.26-4.41-4.33c-3.01-4.05,0.47-5.45,1.17-5.45
			c0.68,0,9.04-1.11,9.04-1.11s-7.54-1.12-8.36-1.82c-0.8-0.69-0.8-5.6,3.15-6.97c3.94-1.41,8.23,1.24,8.23,1.24
			s-3.13-2.38-5.45-6.16c-2.33-3.75-0.58-8.11-0.58-8.11s0.93,0.42,1.62,2.25c0.69,1.82,3.13,4.19,2.9,3.35
			c-0.24-0.83-1.51-6.14-2.09-9.36C59.7,138.57,56.8,132.97,58.66,135.21z"/>
		<path class="st70" d="M103.43,140.1c-0.81-6.29,3.48-14.83,3.48-14.83s-5.56,6.58-7.07,8.96c-1.5,2.38-10.31,0.84-9.39,1.96
			c0.93,1.11,5.8,1.25,8.81,0.42c3.02-0.84,2.09,2.93,1.16,5.6c-0.92,2.65-8,6.42-4.86,5.59c3.12-0.85,7.18-4.47,7.18-4.05
			c0,0.42-1.15,8.8-1.61,13.14c-0.47,4.33-2.44,9.78-2.22,9.37c0.24-0.42,2.91-7.29,4.07-3.22c1.15,4.05,0.81,7.69-0.46,11.74
			c-1.28,4.07-4.99,7.42-2.44,7.13c2.55-0.29,5.33-6.58,6.38-3.49c1.05,3.07,0.46,6.55,0.35,8.95c-0.12,2.36-7.65,3.63-4.75,4.05
			c2.89,0.42,5.91,3.07,4.86,3.36c-1.03,0.26-6.95,1.4-6.38,1.53c0.59,0.13,5.81-0.14,8.7-1.67c2.91-1.55,3.6-3.51,0.23-15.25
			c-3.37-11.74-1.03-10.5-3.01-20.57C104.47,148.77,104.23,146.4,103.43,140.1z"/>
		<path class="st70" d="M103.43,77.3c0,0-2.55,3.09-5.8,6.31c-3.24,3.23-10.9,10.21-14.15,9.5c-3.26-0.7-16.12-14.97-16.12-14.97
			l-2.09-1.11c0,0,2.33,6.45,7.42,12.16c5.11,5.74,10.44,9.1,15.54,7C93.34,94.08,103.43,77.3,103.43,77.3z"/>
	</g>
</g>
</svg>
