<?xml version="1.0" encoding="utf-8"?>
<!-- Generator: Adobe Illustrator 23.0.6, SVG Export Plug-In . SVG Version: 6.00 Build 0)  -->
<svg version="1.1" id="Capa_1" xmlns="http://www.w3.org/2000/svg" xmlns:xlink="http://www.w3.org/1999/xlink" x="0px" y="0px"
	 viewBox="0 0 152.79 186.83" style="enable-background:new 0 0 152.79 186.83;" xml:space="preserve">
<style type="text/css">
	.st0{fill:#F0AC80;}
	.st1{fill-rule:evenodd;clip-rule:evenodd;fill:#D68B62;}
	.st2{fill-rule:evenodd;clip-rule:evenodd;fill:#E8A073;}
	.st3{fill:#BFE9FF;}
	.st4{fill:#A8E1FF;}
	.st5{fill:#A3DEFF;}
	.st6{fill:#B0E3FF;}
	.st7{fill:#FF5955;}
	.st8{fill:#FF0000;}
	.st9{fill:#3A8A00;}
	.st10{fill:#417400;}
	.st11{fill:#4D4D4D;}
	.st12{fill:#333333;}
	.st13{fill:#1B1464;}
	.st14{fill:#271D91;}
	.st15{fill:#B2B2B2;stroke:#B2B2B2;stroke-width:0.25;}
	.st16{fill:#8C8C8C;stroke:#5A3D1C;stroke-width:0.25;}
	.st17{fill:#A6A6A6;}
	.st18{fill:#FFFFFF;stroke:#B2B2B2;stroke-width:0.25;}
	.st19{fill:#EBEBEB;}
	.st20{stroke:#000000;stroke-width:0.25;}
	.st21{fill:#8C8C8C;stroke:#003642;stroke-width:0.25;}
	.st22{fill:#7A7A7A;}
	.st23{fill:#666666;stroke:#666666;stroke-width:0.25;}
	.st24{fill:#141414;}
	.st25{fill:#FFFFFF;stroke:#B2B2B2;}
	.st26{fill:#EDEDED;}
	.st27{fill:#694721;}
	.st28{fill:#5A3D1C;}
	.st29{fill:#006631;}
	.st30{fill:#00592B;}
	.st31{fill:#035B73;stroke:#003642;stroke-width:0.25;}
	.st32{fill:#02495C;stroke:#003642;stroke-width:0.25;}
	.st33{fill:#02495C;}
	.st34{fill:#820000;stroke:#730000;}
	.st35{fill:#5C0000;stroke:#5A3D1C;stroke-width:0.25;}
	.st36{fill:#780000;}
	.st37{fill:#006B33;stroke:#003642;stroke-width:0.25;}
	.st38{fill:#00592B;stroke:#003642;stroke-width:0.25;}
	.st39{fill:#DB8C3D;stroke:#003642;stroke-width:0.25;}
	.st40{fill:#C2803D;}
	.st41{fill:#DB6D00;stroke:#003642;stroke-width:0.25;}
	.st42{fill:#3F3F3F;stroke:#3F3F3F;stroke-width:0.25;}
	.st43{stroke:#3F3F3F;stroke-width:0.25;}
	.st44{fill:#262626;}
	.st45{fill:#5A3D1C;stroke:#003642;stroke-width:0.25;}
	.st46{fill:#52361A;}
	.st47{fill:#422C15;stroke:#003642;stroke-width:0.25;}
	.st48{fill:#FFFFFF;stroke:#E8E8E8;}
	.st49{fill:#E3E3E3;}
	.st50{fill:#B2B2B2;}
	.st51{fill:#FFBF00;}
	.st52{fill:#F5B700;}
	.st53{fill:#EBAF00;stroke:#D19D00;stroke-width:0.25;}
	.st54{fill:#D010B1;}
	.st55{fill:#A60D8C;}
	.st56{fill:#00A33D;}
	.st57{fill:#008033;}
	.st58{fill:#00D4FF;}
	.st59{fill:#00ABFF;}
	.st60{fill:#0A0A0A;stroke:#000000;}
	.st61{fill:#666666;stroke:#000000;stroke-width:0.25;}
	.st62{stroke:#000000;}
	.st63{fill:#00B800;}
	.st64{fill:#009C00;}
	.st65{fill:#3F3F3F;}
	.st66{fill:#73A334;stroke:#8CC63F;stroke-width:0.1;}
	.st67{fill:#8CC63F;stroke:#8CC63F;stroke-width:0.1;}
	.st68{fill:#545454;}
	.st69{fill:#7558A4;}
	.st70{fill:#7536D1;}
	.st71{fill:#E2BB95;stroke:#D5AF8C;}
	.st72{fill:#D5AF8C;}
	.st73{fill:#E2BB95;stroke:#D5AF8C;stroke-width:0.5;}
	.st74{fill:#9E2231;}
	.st75{fill:#B72837;}
	.st76{fill:#FFE085;}
	.st77{fill:#EBCE7A;}
	.st78{fill:url(#SVGID_1_);}
	.st79{fill:url(#SVGID_2_);}
	.st80{fill:url(#SVGID_3_);}
	.st81{fill:#D00204;}
	.st82{fill:#D10507;}
	.st83{fill:#D3090B;}
	.st84{fill:#D40C0E;}
	.st85{fill:#D51012;}
	.st86{fill:#D71315;}
	.st87{fill:#D81718;}
	.st88{fill:#D91A1C;}
	.st89{fill:#DB1E1F;}
	.st90{fill:#DC2122;}
	.st91{fill:#DD2526;}
	.st92{fill:#DF2829;}
	.st93{fill:#E02C2D;}
	.st94{fill:#E22F30;}
	.st95{fill:#E33333;}
	.st96{fill:#E43637;}
	.st97{fill:#E63A3A;}
	.st98{fill:#E73D3E;}
	.st99{fill:#E84141;}
	.st100{fill:#EA4444;}
	.st101{fill:#EB4848;}
	.st102{fill:#EC4B4B;}
	.st103{fill:#EE4F4E;}
	.st104{fill:#EF5252;}
	.st105{fill:#F05655;}
	.st106{fill:#F25A59;}
	.st107{fill:#F35D5C;}
	.st108{fill:#047A04;}
	.st109{fill:#57B328;}
	.st110{fill:#507F29;}
	.st111{fill:#DDBB06;}
	.st112{fill:#A80000;}
	.st113{fill:#9E0000;}
	.st114{fill:#8F0000;stroke:#610000;stroke-width:0.25;}
	.st115{fill:#5A3D1C;stroke:#805426;}
	.st116{fill:#63421F;}
	.st117{fill:#5A3D1C;stroke:#6B4620;}
	.st118{fill:url(#SVGID_4_);}
	.st119{fill:#171717;stroke:#000000;}
	.st120{fill:#212121;}
	.st121{fill:url(#SVGID_5_);}
	.st122{fill:#3F3F3F;stroke:#3F3F3F;}
	.st123{fill:#8C8C8C;stroke:#3F3F3F;}
	.st124{fill:#808080;}
	.st125{fill:url(#SVGID_6_);}
	.st126{fill:none;}
	.st127{fill:#D4D4D4;}
	.st128{fill:#D4D4D4;stroke:#B8B8B8;stroke-width:0.5;}
	.st129{fill:#D4D4D4;stroke:#B8B8B8;stroke-width:0.2;}
	.st130{fill:#C7C7C7;}
	.st131{fill:#DBF8FF;stroke:#7DBDCC;stroke-width:0.25;}
	.st132{fill:#C2F3FF;}
	.st133{fill:#F2F2F2;}
	.st134{fill:url(#SVGID_7_);stroke:#000000;}
	.st135{fill:#42210B;stroke:#000000;}
	.st136{fill:#C69C6D;stroke:#000000;}
	.st137{fill:#93278F;stroke:#000000;}
	.st138{fill:#589F3E;}
	.st139{fill:#4D8F39;}
	.st140{fill:#963528;}
	.st141{fill:#AC3A2D;}
	.st142{fill:#211915;}
	.st143{fill:#444242;}
	.st144{fill:#1A1A1A;}
	.st145{fill:#FFFFFF;}
	.st146{fill:#2E2E2E;}
	.st147{fill:#363636;}
	.st148{fill:#666666;}
	.st149{fill:#C69C6D;}
	.st150{fill:#B38D62;}
	.st151{fill:#A67C52;}
	.st152{fill:#8C6239;}
	.st153{fill:#9E10D2;}
	.st154{fill:#8210D2;}
	.st155{fill:#6B6B6B;}
	.st156{fill:#008C08;}
	.st157{fill:#00A308;}
	.st158{fill:#EC2024;}
	.st159{fill:#E31E26;}
	.st160{fill:#BED63A;}
	.st161{fill:#EC1C24;}
	.st162{fill:#00ADEE;}
	.st163{fill:#2E3191;}
</style>
<g>
	<g>
		<path class="st0" d="M102.31,80.34c-3.68-1.88-4.46-8.55-5.29-9.07c-5.34-3.32-2.14-12.84-1.75-16.65h-0.98h-30.7h-0.98
			c0.72,3.99,6.5,14.21-1.49,16.65c-0.65,0.2,3.53,7.94,4.44,11.93c1.37,6.04-10.48,11.02-11.61,11.43
			c0.29,0.37-10.83-0.31-6.96,5.46c1.78,2.65,2.61,5.21,4.89,7.41c2.35,2.27,5.04,4.13,7.99,5.41c3.55,1.54,7.35,2.28,11.17,2.52
			c2.61,0.16,5.26,0.14,7.89-0.08c2.63,0.22,5.28,0.24,7.89,0.08c3.82-0.23,7.62-0.98,11.17-2.52c2.95-1.28,5.64-3.14,7.99-5.41
			c2.28-2.2,3.02-4.76,4.8-7.41c3.88-5.77,1.86,10.15,2.15,9.78C109.59,117.58,105.2,81.82,102.31,80.34z"/>
		<path class="st0" d="M101.73,34.07c0,0-0.19-11.41-0.31-16.03c-0.13-4.99-0.38-12.68-14.64-17.05c-0.8-0.25-4.33-0.84-7.76-0.83
			c-3.21,0.01-6.33,0.6-7.08,0.83c-3.78,1.16-6.57,2.9-9.35,5.38c-3.8,3.38-5.33,6.68-5.45,11.67c-0.12,4.62-0.23,16.03-0.23,16.03
			c-4.37-3.68-4.41,0.8-4.2,3.23c0.29,3.3,1.29,5.77,2.3,7.83c0.67,1.37,1.38,3.34,3.37,3.42c0.75,0.03,1.24-0.55,1.24-0.55
			s0.32,4.75,0.49,6.06c0.51,3.9,9.13,14.86,13.98,15.83c1.47,0.29,9.06,0.3,10.43,0.04c4.79-0.93,13.64-11.86,14.16-15.87
			c0.17-1.31,0.49-6.06,0.49-6.06s0.49,0.58,1.24,0.55c1.99-0.08,2.47-2.05,3.14-3.42c1.01-2.05,2.38-5.21,2.46-8.53
			C106.07,34.22,106.1,30.39,101.73,34.07z"/>
		<g>
			<g>
				<path class="st1" d="M57.55,41.47c0.11-0.01-0.87-3.58-1.45-5c-0.63-1.54-1.27-1.87-1.66-1.85c-0.74,0.04-1,3.47-1,3.47
					s0.54-3.68,2.2-0.72C56.09,38.2,57.42,41.48,57.55,41.47z"/>
				<path class="st1" d="M54.95,37.99c0.05-0.24,0.3-1.65,0.5-1.66c0.24-0.01,0.24,1.01,0.19,1.17c-0.16,0.5-0.32,1-0.43,1.54
					c-0.11,0.56-0.12,1.1-0.11,1.68c0.01,0.51,0.12,1.11,0.22,1.6c-0.39-0.38-0.49-1.9-0.5-2.47C54.8,38.87,54.85,38.55,54.95,37.99
					z"/>
				<path class="st2" d="M57.91,44.34c-0.03-0.09-0.56-1.27-0.6-1.36c-0.38-0.87,0.43,0.25,0.51,0.35c0.4,0.56,0.69,0.87,0.97,1.35
					c0.24,0.41,0.12,1.04-0.43,1.1c-0.46,0.05-1.04-0.39-1.23-1.04C57.1,44.66,58.32,45.47,57.91,44.34z"/>
			</g>
			<g>
				<path class="st1" d="M101.17,41.47c-0.11-0.01,0.87-3.58,1.45-5c0.63-1.54,1.27-1.88,1.66-1.85c0.74,0.04,1,3.47,1,3.47
					s-0.54-3.68-2.2-0.73C102.63,38.2,101.3,41.48,101.17,41.47z"/>
				<path class="st1" d="M103.78,37.99c-0.05-0.24-0.3-1.65-0.5-1.66c-0.24-0.01-0.24,1.01-0.19,1.17c0.16,0.5,0.32,1,0.43,1.54
					c0.11,0.56,0.12,1.1,0.11,1.68c-0.01,0.51-0.12,1.11-0.22,1.6c0.39-0.38,0.49-1.9,0.5-2.47
					C103.93,38.87,103.88,38.55,103.78,37.99z"/>
				<path class="st2" d="M100.81,44.34c0.03-0.09,0.56-1.27,0.6-1.36c0.38-0.87-0.43,0.25-0.51,0.35c-0.4,0.56-0.69,0.87-0.97,1.35
					c-0.24,0.41-0.12,1.04,0.43,1.1c0.46,0.05,1.04-0.39,1.24-1.04C101.63,44.66,100.4,45.47,100.81,44.34z"/>
			</g>
		</g>
	</g>
	<g>
		<g>
			<path class="st50" d="M146.76,163.91c0,0,2.07,8.7-0.87,8.7c-2.94,0-3.39-2.98-4.02-3.61c-0.63-0.64-0.34,0.34-2.67,2.7
				c-2.35,2.33-4.53,2.33-2.35-1.51c2.17-3.86,4.43-3.53,1.43-6.54c-3.03-3.01-3.57-6.99,0.74-2.67c4.32,4.3,5.37,4.28,5.37,4.28
				l2.01-4L146.76,163.91z"/>
			<path class="st126" d="M28.24,120.51c0.5,1.97,1.74,8.41,1.94,9.43C29.64,126.69,29,123.42,28.24,120.51z"/>
			<path class="st126" d="M129.43,107.77c0.75-2.64,1.82-6.15,2.21-6.7c-0.35,0.38-1.18,2.99-2.27,6.86
				C129.39,107.87,129.41,107.81,129.43,107.77z"/>
			<path class="st126" d="M116.73,175.74c0.09-1.33,0.47-6.02,1.11-11.89v-0.03l0.01-0.12c0.06-0.62,0.12-1.21,0.2-1.83l0.05-0.47
				l0,0c0.66-5.79,1.55-12.32,2.66-17.77c-0.35,1.66-0.63,3.09-0.85,4.19C118.57,155.21,117.3,168.18,116.73,175.74z"/>
			<path class="st126" d="M30.25,130.44c0.22,1.44,0.88,5.94,1.26,8.45C31.13,136.31,30.72,133.4,30.25,130.44z"/>
			<path class="st126" d="M21.5,92.29c0.04,0.2,0.15,0.77,0.32,1.56C21.61,92.87,21.5,92.29,21.5,92.29z"/>
			<path class="st126" d="M32.96,146.94c0.1,0.51,0.18,0.88,0.22,1.04C33.1,147.63,33.02,147.27,32.96,146.94z"/>
			<path class="st126" d="M121.26,141.28c2.84-12.42,7.05-29.46,8.07-33.12c-2.44,8.73-6.01,23.6-8.09,33.16
				C121.24,141.33,121.24,141.3,121.26,141.28z"/>
			<path class="st126" d="M31.74,140.46c-0.02-0.12-0.04-0.28-0.06-0.4C31.7,140.22,31.72,140.34,31.74,140.46L31.74,140.46z"/>
			<path class="st127" d="M63.83,65.53c0,0-0.06,0.08-0.16,0.22c-0.3,0.38-0.99,1.26-1.95,2.37C62.76,67,63.68,65.92,63.83,65.53z"
				/>
			<path class="st127" d="M68.33,76.9l0.03,0.02c-0.26-0.31-0.52-0.63-0.78-0.95C67.84,76.3,68.07,76.62,68.33,76.9z"/>
			<path class="st127" d="M72.83,81.38c1.35,1.29,2.34,2.2,2.35,2.22c-0.33-0.54-0.54-0.73-0.54-0.73S73.9,82.29,72.83,81.38z"/>
			<path class="st128" d="M75.4,83.95c-0.08-0.13-0.16-0.25-0.22-0.36c-0.02,0-12.56,12.74-13.73,13.9
				c-1.17,1.17-0.95-1.38-1.56-5.52c-0.64-4.14-1.51-20.23-1.51-20.23s0.02-0.01,0.02-0.04c-1.16,1.16-2.38,2.14-3.48,2.74
				c-3.77,2-29.66,14.06-31.54,15.97c-1.88,1.88-1.88,1.88-1.88,1.88s0.11,0.58,0.32,1.56c0.83,3.91,2.97,13.46,3.44,15.52v0.02
				c0.6,2.48,2.46,9.32,2.89,10.82c0.03,0.08,0.06,0.2,0.09,0.29c0.76,2.91,1.4,6.19,1.94,9.43c0,0.02,0,0.06,0.02,0.08
				c0,0.06,0.04,0.24,0.06,0.42c0.48,2.97,0.88,5.88,1.26,8.45c0.07,0.47,0.13,0.87,0.17,1.16c0.02,0.12,0.04,0.28,0.06,0.4
				c0.15,1.05,0.85,4.62,1.22,6.48c0.06,0.33,0.14,0.69,0.22,1.04c0,0.06,0,0.08,0,0.08l0,0c0.94,4.95,1.47,11.39,2.03,14.09
				c0.61,3.14,2,6.39,2,9.04c0,2.65-0.25,5.15-0.25,7.43c0,2.25,0.51,21.09-1.13,29.65c-1.62,8.54-4.78,32.53-2.52,34.79
				c1.7,1.69,8.74,5.71,16.18,8.43c-1.04-0.57-1.87-1.39-1.65-2.76c0.38-2.45,1.25-7.17,0.44-10.44c-0.82-3.26-4.57-6.1-0.38-8.16
				c4.22-2.09,3.07-3.45,2.08-3.45c-1.01,0-6.97-1.78-4.45-2.48c2.5-0.67,7.71,0.63,8.04,0.34c0.3-0.34,4.63,1.57,2.3-2.34
				c-2.3-3.9-7.33,0.25-5.57-7.3c1.74-7.53,3.08-7.85,4.83-11.37c1.75-3.5-1.38-2.7-2.34-5.27c-0.93-2.58,4.28,2.08,7.12,3.47
				c2.81,1.38,3.94,1.04,1.88-3.59c-2.08-4.66-4.84-9.11-6.54-13.25c-1.68-4.16,1.63-1.57,0.62-7.47c-0.99-5.9-5.01-12.2-1.94-18.54
				c3.09-6.34-5.21-17.97-1.89-24c3.33-6.03,4.72-9.6,4.4-4.1c-0.3,5.55-2.52,8.04-0.18,14.28c2.32,6.2,1.25,13.67,3.13,19.02
				c1.89,5.35,1.97,8.11,2.4,9.17c0.43,1.07-1.06-22.8-1.7-28c-0.64-5.24,2.02-12.18,1.33-21.18c-0.69-8.97,0.8-12.01,1.82-8.86
				c1.02,3.16,1.02,3.58,3.25,6.48c2.28,2.89,5.19-7.57,6.48-6.3c1.31,1.29,2.32,6.8,2.29,12.51c-0.01,5.68,0.42,34.85-0.15,41.02
				c-0.57,6.2-0.09,27.48-0.12,33.94c-0.02,6.44-0.08,24.78-0.1,27.3c-0.02,2.51,0.14,24.37-0.34,24.84c0,0-13.76-7.23-15.28-7.59
				c-1.5-0.4-1.38,1.67,1.58,3.25c2.68,1.43,4.14,3.67,4.39,4.08c6,0.5,10.56,0.26,10.56,0.26L75.4,83.95z M30.29,111.25
				c0-2.11-1.25-8.54-3.27-12.93c-2-4.4,3.03-3.04,3.03-3.04s-0.13,3.16,0.61,5.79c0.76,2.66,1.13,7.69,1.83,10.13
				C33.18,113.63,30.29,113.4,30.29,111.25z M58.64,192.94c0,0-9.49-2.46-11.8-4.79c-2.32-2.32-9.61-1.11-9.61-1.11l-0.02-5.29
				c0,0,3.29-4.32,7.98,0.38C49.93,186.83,58.64,192.94,58.64,192.94z"/>
			<path class="st128" d="M116.73,175.74c0.57-7.56,1.84-20.53,3.19-27.92c0.22-1.1,0.5-2.53,0.85-4.19c0.16-0.8,0.31-1.54,0.48-2.3
				c2.08-9.56,5.65-24.43,8.09-33.16c0.02-0.1,0.04-0.19,0.04-0.24c1.09-3.86,1.92-6.48,2.27-6.86c0.24-0.31,0.53-0.83,0.65-1.4
				c0.14-1.21-0.49-2.44-0.49-2.44s-3.33-3.68-13.06-9.37c-8.84-5.19-15.58-10.22-18.11-12.48l0.2,0.42c0,0-2.96,7.47-3.94,10.62
				c-1.02,3.15-2.77,10.29-2.77,10.29s-3.83-1.43-7.93-5.5c-4.08-4.1-6.74-7.19-6.76-7.21l0,0l2.75,164.79l0.12,4.34
				c0,0,19.33-3.79,26.39-6.54c7.03-2.78,12.71-8.8,12.71-8.8s-1.5-15.92-3.51-24.13c-2-8.2-1.5-29.14-1.5-32.33
				c0-0.81,0.1-2.68,0.28-5.2l0,0C116.69,176.13,116.71,176,116.73,175.74z M105.37,219.97c-1.01,0-2.14,1.39,2.09,3.45
				c4.2,2.08,0.44,4.91-0.38,8.18c-0.81,3.25,0.06,7.98,0.44,10.42c0.38,2.46-2.58,3.09-4.05,3.88c-1.45,0.79-13.41,2.24-13.41,2.24
				s1.51-2.6,4.46-4.18c2.95-1.57,3.07-3.65,1.57-3.27c-1.51,0.37-12.05,10.86-12.05,10.86c-0.48-0.48-1.42-26.15-1.46-28.67
				c-0.03-2.51-2.49-95.98-2.49-101.68c-0.01-5.7,0.99-11.2,2.3-12.49c1.27-1.28,4.21,9.17,6.46,6.28c2.26-2.9,2.26-3.33,3.27-6.48
				c1.02-3.13,2.52-0.11,1.83,8.85c-0.7,9,1.96,15.97,1.32,21.2c-0.63,5.2-2.13,29.09-1.7,28.02c0.44-1.07,0.5-3.84,2.4-9.17
				c1.87-5.36,0.81-12.83,3.13-19.04c2.32-6.22,0.11-8.73-0.18-14.26c-0.31-5.54,1.05-1.95,4.4,4.08c3.31,6.05-4.97,17.66-1.9,23.99
				c3.1,6.36-0.93,12.63-1.94,18.54c-1.01,5.9,2.34,3.32,0.63,7.47c-1.7,4.16-4.45,8.61-6.53,13.27c-2.06,4.64-0.96,4.95,1.88,3.57
				c2.83-1.36,8.05-6.02,7.12-3.44c-0.95,2.57-4.11,1.75-2.34,5.27c1.76,3.52,3.09,3.81,4.86,11.37c1.74,7.54-3.27,3.38-5.61,7.29
				c-2.31,3.89,2,2,2.34,2.33c0.3,0.3,5.51-1,8.04-0.34C112.35,218.22,106.38,219.97,105.37,219.97z M116.06,188.42
				c0,0-7.33,7.32-10.5,7.32c-3.19,0,0-4.53,1.01-5.55c1-1.01,6.03-6.02,6.03-6.02h3.5L116.06,188.42z"/>
			<path class="st127" d="M79.47,83.99l1.52-1.74C80.42,82.77,79.91,83.4,79.47,83.99z"/>
			<polygon class="st129" points="79.45,83.99 79.45,83.99 75.4,83.62 75.4,83.95 75.78,255.01 82.32,255.13 82.2,248.78 			"/>
			<path class="st128" d="M78.27,84.15h-0.02l0,0c0.02,0.02,2.82,3.28,7.13,7.62c4.33,4.3,8.37,5.81,8.37,5.81s1.85-7.55,2.92-10.87
				c1.04-3.33,4.16-11.22,4.16-11.22l-0.21-0.44L95.4,64.64l-0.56,0.62L79.88,82.31L78.27,84.15z M91.44,89.86
				c-0.52,1.84-3.13,0.38-4.68-0.59c-1.54-0.98-0.52,1.95-0.52,1.95l-0.5,0.42l-5.43-5.69l-1.92-1.9l10.71-6.98
				c0,0,2.43,0.71,2.05,1.82c-0.29,0.78-1.27,1.44-1.97,1.76c0.93-0.21,2.41-0.36,2.12,0.69c-0.42,1.57-3.75,2.52-3.75,2.52
				s4.25,1.33,4.06,3.16C91.44,88.8,91.97,88,91.44,89.86z"/>
			<path class="st128" d="M59.89,91.98c0.61,4.14,0.39,6.7,1.56,5.52c1.17-1.16,13.71-13.9,13.73-13.9l0,0l0,0
				c-0.02-0.01-1.01-0.93-2.35-2.22c-1.33-1.28-3.04-2.95-4.47-4.46l-0.03-0.02c-0.25-0.28-0.49-0.59-0.75-0.93
				c-2.44-3.54-3.74-10.44-3.74-10.44c-0.16,0.4-1.07,1.47-2.11,2.6c-1.45,1.63-3.13,3.41-3.33,3.58c0,0.03-0.02,0.04-0.02,0.04
				S59.25,87.84,59.89,91.98z M64.23,77.6c1.74,0,3.84-0.7,3.84-0.7l4.27,4.28l1.47,1.39l1.12,1.03l-1.04,1.05l-7.74,7.83
				c0,0-4.96-0.32-2.13-2.14c2.83-1.82,2.83-3.7,2.83-3.7s-1.21,0.57-2.63-0.88c-1.47-1.45,0.73-2.52,1.62-3.4
				c0.87-0.87-1.77-1.13-2.78-2.12C62.09,79.22,62.45,77.6,64.23,77.6z"/>
			<path class="st128" d="M33.18,147.98c-0.03-0.16-0.11-0.53-0.22-1.04c-0.37-1.87-1.07-5.43-1.22-6.48l0,0
				c-0.02-0.12-0.04-0.24-0.06-0.4c-0.04-0.29-0.1-0.69-0.17-1.16c-0.38-2.52-1.04-7.01-1.26-8.45c-0.01-0.18-0.06-0.36-0.06-0.42
				c-0.02-0.02-0.02-0.06-0.02-0.08c-0.2-1.03-1.44-7.46-1.94-9.43c-0.03-0.09-0.06-0.21-0.09-0.29c-0.43-1.51-2.29-8.35-2.89-10.82
				v-0.02l0,0c-0.47-2.06-2.61-11.61-3.44-15.52c-0.16-0.79-0.28-1.36-0.32-1.56c0,0-6.14,3.13-8.54,8.66
				c-2.4,5.53-7.79,40.33-9.05,50.52c-1.25,10.16-1.25,38.32-1.25,46.09c0,7.81,1.62,23.76,2.76,26.15
				c1.14,2.38,1.76,3.01,1.76,3.01l0.44-0.1l0,0l18.92-3.92c0,0,0.76-17.85,0.76-21.99c0-4.14,1.12-17.96,1.12-17.96
				s0.5-1.88,0.5-3.39c0-1.53,0-3.39,0-3.39s1.01-0.89,1.01-3.03c0-2.13,1.33-3.08,0.26-4.15c-1.07-1.07,0.12-4.14,0.12-7.41
				c0-3.27,2.89-13.29,2.89-13.33l0,0C33.18,148.06,33.18,148.04,33.18,147.98z M16.6,99.7c0,0,1.62,0,1.62,1
				c0,1.01,0,7.05,1.13,10.55c1.15,3.53,1.51,6.54,3.53,9.92c2.01,3.41-2.38,4.03-3.01,1.91c-0.64-2.16-3.15-10.55-4.52-16.98
				C13.96,99.7,16.6,99.7,16.6,99.7z M31.26,153.93c-0.29,1.17-1.03,4.8-1.21,5.87c-0.18,1.07-0.63,6.15-0.63,6.41
				c0,0.25,0.02,1.9,0.24,2.42c0.21,0.54,0.53,1.39,0.36,1.98c-0.14,0.61-0.48,2.14-0.48,2.59c0,0.46-1.01,2.78-1.01,3.54
				c0,0.75-0.5,6.02-0.61,7.43c-0.1,1.4-1.15,20.06-1.15,22.21c0,2.13-2.87,3.52-4.14,3.52c-1.25,0-7.41-0.11-7.41-1.13
				c0-1.01,8.05-1.39,8.8-2.14c0.76-0.75,1.7-7.98,1.7-7.98s-1,1.01-2.95,2.97c-1.96,1.92-6.3,0.48-6.3,0.48s1.27-1.37,5.41-3.88
				c4.14-2.52,4.6-6.22,4.6-6.22s-0.57-0.55-4.08-0.55c-3.54,0-3.54,0.23-3.54-0.78c0-0.99,6.54-1.12,6.54-1.12s0-1.39-2.52-1.39
				c-2.51,0-4.89-2.5-4.89-2.5s2.26,1.01,4.89,1.01c2.63,0,2.52-7.54,2.52-7.54s-5.52,0.51-2.63-0.88c2.87-1.38,2.87-3.67,2.87-3.67
				s-4.14-0.49-3.01-1.62c1.13-1.13,4.4-1.63,2.26-1.63c-2.13,0-4.52-1.88-3.89-1.88c0.61,0,1.62-0.26,5.53,0.5
				c3.88,0.75,1.76-5.03,0.76-6.04c-1.02-0.99-3.02-2-2.03-2c1.02,0,2.77,0,2.77,0s0.76-7.03,0.76-8.31c0-1.24-2.52-13.8-4.02-19.71
				c-1.51-5.9,2.89-8.04,2.89-8.04s1.48,0.72,1.69,1.56c0.2,0.83,1.51,9.76,1.51,9.76s1.12,7.13,1.39,8.12
				c0.26,0.98,0.43,3.21,0.43,3.21S31.56,152.76,31.26,153.93z"/>
			<path class="st127" d="M118.06,161.87c-0.08,0.62-0.14,1.21-0.2,1.83L118.06,161.87z"/>
			<path class="st128" d="M149.75,189.29c-0.43-4.2-2.52-21.6-3.27-27.57c-0.76-5.92-5.54-39.78-8.46-51.08
				c-2.95-11.31-5.78-12.18-5.78-12.18c0.12,0.44,0.12,0.83,0.06,1.21c-0.12,0.57-0.42,1.09-0.65,1.4c-0.39,0.55-1.46,4.06-2.21,6.7
				c-0.02,0.03-0.04,0.09-0.06,0.15c0,0.05-0.02,0.14-0.04,0.24c-1.02,3.66-5.23,20.69-8.07,33.12c-0.02,0.02-0.02,0.04-0.02,0.04
				c-0.16,0.76-0.32,1.5-0.48,2.3c-1.11,5.45-2,11.99-2.66,17.77l1.55,3.18c0,0-0.07,3.1-0.07,5.35c0,2.26,1.84,1.84,2.35,4.62
				c0.5,2.76-1.01,3.43-0.33,6.18c0.67,2.79,1.4,10.56,2.07,13.17c0.68,2.6,9.48,6.68,7.14,6.1c-2.34-0.6-7.96-3.84-7.96-3.84
				l1.85,4c0,0,2.8,3.65,5.39,6.24c2.6,2.59,3.65,3.65,0.79,1.8c-2.85-1.83-6.54-6.59-6.54-6.59s1.27,8.2,1.69,10.79
				c0.42,2.6,4.93,7.36,4.1,8.21c-0.83,0.85-5.86-6.04-5.86-6.04s0.16,2.86,2,6.79c1.86,3.94,3.3,4.4,2.27,5.45
				c-1.04,1.05-4.39-2.99-4.39-2.99l-0.7-4.79l-1.11-9.22c0.74,6.5,1.6,13.37,2,15.16c0.77,3.43,0.44,9.47,0.44,9.47
				s0.12,0.06,0.3,0.16c0.16,0.06,0.75,0.34,1.26,0.51c0.16,0.06,0.34,0.12,0.54,0.18c0.81,0.2,2.46,0.5,3.31,0.59
				c0.44,0.03,0.89,0.06,1.36,0.06c1.11,0,2.64,0.15,4.29,0.4h0.01c0.22,0.04,0.5,0.1,0.84,0.13c3.84,0.62,8.06,1.58,9.35,1.89
				c0.04,0,0.08,0.02,0.1,0.02c0.75,0.15,1.64-0.34,1.93-0.52c0.28-0.15,0.54-0.37,0.82-0.66c1.27-1.25,0.42-7.45,0.93-12.23
				C150.32,220.2,150.17,193.49,149.75,189.29z"/>
			<path class="st127" d="M116.69,176.13l1.15-12.28c-0.64,5.86-1.02,10.56-1.11,11.89C116.71,176,116.69,176.13,116.69,176.13z"/>
			<path class="st130" d="M60.83,250.66c-2.96-1.58-3.08-3.65-1.58-3.25c1.52,0.36,15.28,7.59,15.28,7.59
				c0.48-0.48,0.32-22.33,0.34-24.84c0.02-2.52,0.08-20.86,0.1-27.3c0.02-6.46-0.46-27.74,0.12-33.94
				c0.57-6.18,0.14-35.34,0.15-41.02c0.03-5.71-0.99-11.22-2.29-12.51c-1.29-1.27-4.2,9.19-6.48,6.3c-2.24-2.9-2.24-3.32-3.25-6.48
				c-1.02-3.15-2.51-0.11-1.82,8.86c0.69,9-1.97,15.95-1.33,21.18c0.64,5.21,2.13,29.08,1.7,28c-0.44-1.06-0.51-3.82-2.4-9.17
				c-1.88-5.35-0.81-12.82-3.13-19.02c-2.33-6.24-0.11-8.74,0.18-14.28c0.32-5.51-1.07-1.94-4.4,4.1c-3.32,6.03,4.97,17.66,1.89,24
				c-3.07,6.34,0.95,12.64,1.94,18.54c1.02,5.9-2.3,3.31-0.62,7.47c1.7,4.14,4.46,8.6,6.54,13.25c2.06,4.63,0.93,4.97-1.88,3.59
				c-2.84-1.39-8.04-6.05-7.12-3.47c0.96,2.57,4.09,1.77,2.34,5.27c-1.76,3.52-3.09,3.84-4.83,11.37c-1.76,7.55,3.27,3.39,5.57,7.3
				c2.33,3.9-2,2-2.3,2.34c-0.33,0.29-5.55-1.01-8.04-0.34c-2.52,0.69,3.45,2.48,4.45,2.48c1,0,2.14,1.37-2.08,3.45
				c-4.19,2.06-0.44,4.89,0.38,8.16c0.81,3.27-0.06,7.99-0.44,10.44c-0.22,1.37,0.61,2.18,1.65,2.76c0.8,0.44,1.73,0.77,2.37,1.1
				c0.77,0.44,4.46,1.01,7.79,1.51c0.99,0.12,1.94,0.25,2.77,0.38c1.68,0.21,2.85,0.35,2.85,0.35s-0.01-0.04-0.03-0.08
				C64.96,254.33,63.51,252.09,60.83,250.66z"/>
			<path class="st130" d="M109.85,217.52c-2.53-0.66-7.74,0.64-8.04,0.34c-0.34-0.34-4.65,1.56-2.34-2.33
				c2.34-3.9,7.35,0.26,5.61-7.29c-1.77-7.56-3.1-7.85-4.86-11.37c-1.76-3.52,1.39-2.7,2.34-5.27c0.93-2.58-4.28,2.08-7.12,3.44
				c-2.83,1.39-3.94,1.07-1.88-3.57c2.08-4.66,4.83-9.11,6.53-13.27c1.7-4.15-1.64-1.57-0.63-7.47c1.02-5.91,5.04-12.18,1.94-18.54
				c-3.07-6.34,5.21-17.94,1.9-23.99c-3.34-6.02-4.71-9.61-4.4-4.08c0.29,5.53,2.5,8.04,0.18,14.26
				c-2.31,6.22-1.25,13.68-3.13,19.04c-1.9,5.33-1.96,8.1-2.4,9.17c-0.43,1.07,1.07-22.82,1.7-28.02c0.64-5.23-2.02-12.2-1.32-21.2
				c0.69-8.96-0.81-11.98-1.83-8.85c-1.02,3.15-1.02,3.58-3.27,6.48c-2.25,2.89-5.19-7.56-6.46-6.28c-1.31,1.29-2.31,6.79-2.3,12.49
				c0,5.7,2.46,99.17,2.49,101.68c0.04,2.52,0.98,28.19,1.46,28.67c0,0,10.54-10.49,12.05-10.86c1.51-0.38,1.39,1.7-1.57,3.27
				c-2.95,1.58-4.46,4.18-4.46,4.18s11.96-1.45,13.41-2.24c1.47-0.79,4.42-1.43,4.05-3.88c-0.38-2.44-1.25-7.17-0.44-10.42
				c0.82-3.27,4.58-6.11,0.38-8.18c-4.22-2.07-3.09-3.45-2.09-3.45C106.38,219.97,112.35,218.22,109.85,217.52z"/>
			<path class="st130" d="M60.96,80.18c1.07,1.05,3.85,1.32,2.93,2.24c-0.94,0.94-3.27,2.07-1.72,3.59c1.5,1.53,2.78,0.93,2.78,0.93
				s0,1.98-2.99,3.91c-2.99,1.92,2.25,2.26,2.25,2.26l8.17-8.26l1.09-1.11l-1.18-1.08l-1.55-1.47l-4.51-4.52
				c0,0-2.22,0.74-4.06,0.74C60.3,77.4,59.92,79.11,60.96,80.18z"/>
			<path class="st130" d="M91.61,87c0.19-1.83-4.06-3.16-4.06-3.16s3.33-0.95,3.75-2.52c0.29-1.05-1.19-0.9-2.12-0.69
				c0.7-0.31,1.67-0.98,1.97-1.76c0.38-1.11-2.05-1.82-2.05-1.82l-10.71,6.98l1.92,1.9l5.43,5.69l0.5-0.42c0,0-1.03-2.93,0.52-1.95
				c1.55,0.96,4.16,2.43,4.68,0.59C91.97,88,91.44,88.8,91.61,87z"/>
			<path class="st130" d="M124.16,223.82c0,0,3.35,4.05,4.39,2.99c1.03-1.04-0.41-1.51-2.27-5.45c-1.84-3.93-2-6.79-2-6.79
				s5.03,6.89,5.86,6.04c0.83-0.85-3.69-5.61-4.1-8.21c-0.42-2.6-1.69-10.79-1.69-10.79s3.68,4.76,6.54,6.59
				c2.86,1.85,1.8,0.79-0.79-1.8c-2.59-2.6-5.39-6.24-5.39-6.24l-1.85-4c0,0,5.62,3.24,7.96,3.84c2.34,0.57-6.46-3.51-7.14-6.1
				c-0.67-2.62-1.4-10.38-2.07-13.17c-0.68-2.75,0.83-3.42,0.33-6.18c-0.51-2.77-2.35-2.35-2.35-4.62c0-2.25,0.07-5.35,0.07-5.35
				l-1.55-3.18l0,0l-0.05,0.47l-0.2,1.83l-0.01,0.12v0.03l-1.15,12.28l0,0l3.46,15.36c0,0,1.11,8.04,1.21,8.95l0,0
				c0.08,0.91,0.99,9.37,0.99,9.37l0,0l0,0l1.11,9.22L124.16,223.82z"/>
			<path class="st130" d="M106.56,190.2c-1.01,1.02-4.2,5.55-1.01,5.55c3.17,0,10.5-7.32,10.5-7.32l0.03-4.25h-3.5
				C112.6,184.18,107.56,189.19,106.56,190.2z"/>
			<path class="st130" d="M37.2,181.74l0.02,5.29c0,0,7.29-1.21,9.61,1.11c2.32,2.33,11.8,4.79,11.8,4.79s-8.71-6.1-13.45-10.82
				C40.49,177.42,37.2,181.74,37.2,181.74z"/>
			<path class="st130" d="M30.66,101.07c-0.75-2.63-0.61-5.79-0.61-5.79s-5.03-1.36-3.03,3.04c2.02,4.39,3.27,10.82,3.27,12.93
				c0,2.14,2.89,2.38,2.2-0.05C31.8,108.76,31.42,103.72,30.66,101.07z"/>
			<path class="st130" d="M19.87,123.08c0.63,2.12,5.02,1.5,3.01-1.91c-2.02-3.38-2.38-6.39-3.53-9.92
				c-1.13-3.51-1.13-9.54-1.13-10.55c0-1-1.62-1-1.62-1s-2.64,0-1.25,6.4C16.73,112.53,19.23,120.92,19.87,123.08z"/>
			<path class="st130" d="M30.87,137.15c0,0-1.31-8.94-1.51-9.76c-0.21-0.84-1.69-1.56-1.69-1.56s-4.4,2.14-2.89,8.04
				c1.5,5.91,4.02,18.47,4.02,19.71c0,1.28-0.76,8.31-0.76,8.31s-1.76,0-2.77,0c-0.99,0,1.02,1.02,2.03,2
				c1.01,1.01,3.12,6.8-0.76,6.04c-3.9-0.75-4.92-0.5-5.53-0.5c-0.63,0,1.76,1.88,3.89,1.88c2.13,0-1.13,0.5-2.26,1.63
				c-1.13,1.13,3.01,1.62,3.01,1.62s0,2.28-2.87,3.67c-2.89,1.39,2.63,0.88,2.63,0.88s0.12,7.54-2.52,7.54
				c-2.63,0-4.89-1.01-4.89-1.01s2.38,2.5,4.89,2.5c2.52,0,2.52,1.39,2.52,1.39s-6.54,0.14-6.54,1.12c0,1.01,0,0.78,3.54,0.78
				c3.5,0,4.08,0.55,4.08,0.55s-0.46,3.7-4.6,6.22c-4.14,2.51-5.41,3.88-5.41,3.88s4.34,1.45,6.3-0.48
				c1.95-1.96,2.95-2.97,2.95-2.97s-0.94,7.24-1.7,7.98c-0.75,0.75-8.8,1.13-8.8,2.14c0,1.02,6.17,1.13,7.41,1.13
				c1.27,0,4.14-1.39,4.14-3.52c0-2.14,1.05-20.81,1.15-22.21c0.11-1.41,0.61-6.68,0.61-7.43c0-0.76,1.01-3.08,1.01-3.54
				c0-0.45,0.34-1.98,0.48-2.59c0.17-0.59-0.14-1.44-0.36-1.98c-0.22-0.52-0.24-2.16-0.24-2.42c0-0.26,0.46-5.35,0.63-6.41
				c0.18-1.07,0.92-4.7,1.21-5.87c0.3-1.17,1.42-5.45,1.42-5.45s-0.17-2.23-0.43-3.21C31.99,144.28,30.87,137.15,30.87,137.15z"/>
		</g>
		<path class="st135" d="M89.47,167.29c-1.68,4.46-4.24,8.5-7.27,12.54c-7.43,8.45-13.83,17.11-19.7,26.22
			c-0.24,4.53-0.39,7.28-0.39,7.28s9.59,8.99,13.13,12.27c5.69-9.25,11.08-18.7,15.8-28.43C90.62,188.83,90.06,178.12,89.47,167.29z
			"/>
		<path class="st136" d="M73.16,84.51c0,0-4.63,4.49-4.07,5.52c0.54,1.03,2.07,2.63,2.62,3.04c0.4,0.3,0.66,3.88,0.32,6.82
			c2.51-3.82,4.98-7.69,7.64-11.38C79.09,86.19,77.43,82.77,73.16,84.51z"/>
		<path class="st135" d="M79.25,94.59c-0.69-2.49,0.69-3.32,0.69-4.29c0-0.25-0.07-0.95-0.28-1.79c-2.65,3.69-5.12,7.56-7.64,11.38
			c-0.13,1.12-0.34,2.13-0.66,2.84c-1.17,2.63-3.59,9.89-4.14,17.22c-0.01,0.19-0.03,0.46-0.05,0.76c4.4-7.74,8.61-15.6,12.95-23.2
			C79.7,96.14,79.4,95.1,79.25,94.59z"/>
		<path class="st136" d="M80.12,97.51c-4.34,7.59-8.55,15.46-12.95,23.2c-0.24,3.62-0.86,14.67-1.58,27.95
			c6.11-12.4,12.26-24.73,18.8-36.86C82.97,106.94,81.19,101.08,80.12,97.51z"/>
		<path class="st135" d="M86.02,117.67c-0.39-1.51-0.97-3.57-1.63-5.86c-6.53,12.13-12.69,24.45-18.8,36.86
			c-0.53,9.63-1.12,20.41-1.65,30.38c8.21-15.19,15.42-30.96,23.46-46.33C86.86,124.72,86.37,119.03,86.02,117.67z"/>
		<path class="st136" d="M87.4,132.71c-8.04,15.36-15.25,31.14-23.46,46.33c-0.58,10.82-1.11,20.67-1.44,27.01
			c5.87-9.11,12.27-17.77,19.7-26.22c3.03-4.04,5.59-8.08,7.27-12.54C88.79,154.81,88.05,142.16,87.4,132.71z"/>
	</g>
</g>
</svg>
