<?xml version="1.0" encoding="utf-8"?>
<!-- Generator: Adobe Illustrator 23.0.6, SVG Export Plug-In . SVG Version: 6.00 Build 0)  -->
<svg version="1.1" id="Capa_1" xmlns="http://www.w3.org/2000/svg" xmlns:xlink="http://www.w3.org/1999/xlink" x="0px" y="0px"
	 viewBox="0 0 152.79 186.83" enable-background="new 0 0 152.79 186.83" xml:space="preserve">
<g>
	<g>
		<path fill="#F0AC80" d="M100.88,87.46c-3.81-1.97-8.48-16.13-9-17c-2.22-3.76,0.32-13,0.72-17h-1.01H59.85h-1.01
			c0.4,4,3.51,13.39,1.05,17c-0.39,0.58-4.21,10.99-8,13c-3.14,1.66-6.84,4.56-8,5c0.3,0.39-5.2,6.68-1.19,12.73
			c1.84,2.78,2.7,5.47,5.05,7.78c2.43,2.38,5.21,4.34,8.26,5.68c3.67,1.61,7.6,2.4,11.55,2.64c2.7,0.17,5.44,0.14,8.16-0.08
			c2.72,0.23,5.46,0.25,8.16,0.08c3.95-0.25,7.88-1.03,11.55-2.64c3.05-1.34,5.83-3.3,8.26-5.68c2.36-2.31,3.12-5,4.97-7.78
			c4.01-6.06-22.08-0.34-21.78-0.73C85.7,100.07,103.87,89.01,100.88,87.46z"/>
		<path fill="#F0AC80" d="M98.39,33.91c0,0-0.19-11.41-0.31-16.03C97.95,12.89,97.7,5.21,83.44,0.83c-0.8-0.25-4.33-0.84-7.76-0.83
			c-3.21,0.01-6.33,0.6-7.08,0.83c-3.78,1.16-6.57,2.9-9.35,5.38c-3.8,3.38-5.33,6.68-5.45,11.67c-0.12,4.62-0.23,16.03-0.23,16.03
			c-4.37-3.68-4.41,0.8-4.2,3.23c0.29,3.3,1.29,5.77,2.3,7.83c0.67,1.37,1.38,3.34,3.37,3.42c0.75,0.03,1.24-0.55,1.24-0.55
			s0.32,4.75,0.49,6.06c0.51,3.9,9.13,14.86,13.98,15.83c1.47,0.29,9.06,0.3,10.43,0.04c4.79-0.93,13.64-11.86,14.16-15.87
			c0.17-1.31,0.49-6.06,0.49-6.06s0.49,0.58,1.24,0.55c1.99-0.08,2.47-2.05,3.14-3.42c1.01-2.05,2.38-5.21,2.46-8.53
			C102.73,34.06,102.76,30.23,98.39,33.91z"/>
		<g>
			<g>
				<path fill-rule="evenodd" clip-rule="evenodd" fill="#D68B62" d="M54.22,41.31c0.11-0.01-0.87-3.58-1.45-5
					c-0.63-1.54-1.27-1.87-1.66-1.85c-0.74,0.04-1,3.47-1,3.47s0.54-3.68,2.2-0.72C52.76,38.03,54.09,41.32,54.22,41.31z"/>
				<path fill-rule="evenodd" clip-rule="evenodd" fill="#D68B62" d="M51.61,37.83c0.05-0.24,0.3-1.65,0.5-1.66
					c0.24-0.01,0.24,1.01,0.19,1.17c-0.16,0.5-0.32,1-0.43,1.54c-0.11,0.56-0.12,1.1-0.11,1.68c0.01,0.51,0.12,1.11,0.22,1.6
					c-0.39-0.38-0.49-1.9-0.5-2.47C51.46,38.71,51.51,38.39,51.61,37.83z"/>
				<path fill-rule="evenodd" clip-rule="evenodd" fill="#E8A073" d="M54.58,44.18c-0.03-0.09-0.56-1.27-0.6-1.36
					c-0.38-0.87,0.43,0.25,0.51,0.35c0.4,0.56,0.69,0.87,0.97,1.35c0.24,0.41,0.12,1.04-0.43,1.1c-0.46,0.05-1.04-0.39-1.23-1.04
					C53.76,44.49,54.99,45.31,54.58,44.18z"/>
			</g>
			<g>
				<path fill-rule="evenodd" clip-rule="evenodd" fill="#D68B62" d="M97.84,41.31c-0.11-0.01,0.87-3.58,1.45-5
					c0.63-1.54,1.27-1.88,1.66-1.85c0.74,0.04,1,3.47,1,3.47s-0.54-3.68-2.2-0.73C99.29,38.03,97.97,41.32,97.84,41.31z"/>
				<path fill-rule="evenodd" clip-rule="evenodd" fill="#D68B62" d="M100.44,37.83c-0.05-0.24-0.3-1.65-0.5-1.66
					c-0.24-0.01-0.24,1.01-0.19,1.17c0.16,0.5,0.32,1,0.43,1.54c0.11,0.56,0.12,1.1,0.11,1.68c-0.01,0.51-0.12,1.11-0.22,1.6
					c0.39-0.38,0.49-1.9,0.5-2.47C100.59,38.71,100.54,38.39,100.44,37.83z"/>
				<path fill-rule="evenodd" clip-rule="evenodd" fill="#E8A073" d="M97.48,44.18c0.03-0.09,0.56-1.27,0.6-1.36
					c0.38-0.87-0.43,0.25-0.51,0.35c-0.4,0.56-0.69,0.87-0.97,1.35c-0.24,0.41-0.12,1.04,0.43,1.1c0.46,0.05,1.04-0.39,1.24-1.04
					C98.29,44.49,97.07,45.31,97.48,44.18z"/>
			</g>
		</g>
	</g>
	<g>
		<path fill="#FF5955" d="M41.09,200.58c0,0,8.12,0.56,13.42,1.69c5.3,1.13,9.81,1.92,14.66,1.92c4.85,0,22.78-1.13,27.3-1.24
			c4.51-0.11,8.8-1.13,13.08-3.27c4.28-2.15,4.96-11.62,5.29-16.13c0.34-4.5-0.45-26.84-1.24-32.59
			c-0.79-5.75,0.11-26.39,0.11-26.39s2.82,4.29,3.5,6.43c0.68,2.15,6.09,27.41,7.78,30.01c1.7,2.59,0.56,3.27,0.45,5.75
			c-0.12,2.48-0.79,8.68-1.13,11.16c-0.34,2.48,1.13,13.76,1.35,16.13c0.22,2.37,6.2,4.4,8.34,4.4c2.15,0,6.09,0.23,6.09,0.23
			s2.82-1.36,3.95-4.41c1.13-3.04,0-8.35-0.34-8.8c-0.34-0.45,0.79-7.56,1.13-15.11c0.34-7.55-1.91-22.9-4.28-34.4
			c-2.37-11.5-7.56-34.4-11.51-40.6c-3.95-6.2-12.86-10.72-23.24-13.65c-10.37-2.93-18.49-0.34-25.03,1.24
			c-6.54,1.58-11.85,1.69-16.24,0.45c-4.4-1.24-13.87-2.25-13.87-2.25s-2.71,0.89-10.49,3.83c-7.78,2.93-15.12,12.41-19.29,21.54
			c-4.17,9.14-6.88,23.8-8.34,31.92c-1.47,8.13-4.97,41.06-4.63,46.47c0.34,5.41,3.38,8.46,2.48,9.7c-0.9,1.24-0.11,2.37,1.02,3.39
			c1.13,1.01,3.27,0.9,6.32,0.9c3.04,0,7.33-1.36,7.33-1.36s2.15-2.25,2.82-5.19c0.67-2.93,3.38-12.52,3.04-19.52
			c-0.34-6.98,1.47-21.65,3.16-25.94c1.69-4.28,0.56-5.86,1.58-9.92c1.02-4.07,4.4-9.82,4.4-9.82s0,2.83,0,6.89
			c0,4.06-1.13,19.63-1.13,24.13c0,4.51,0.11,13.08-0.11,16.35c-0.22,3.28-1.13,10.72-1.35,14.89c-0.23,4.17,2.6,6.54,2.6,10.6
			L41.09,200.58z"/>
		<path fill="#FF0000" d="M70.52,86.14c-0.78-0.12-9.58,0.12-14.43-1.48c-4.85-1.6-4.74-0.56-6.43-1.85
			c-1.69-1.3-0.56-1.92,0.23-2.29c0.79-0.37-0.57-3.33,0.9-3.77c1.47-0.43,9.25-1.17,15.34-1.24c6.09-0.06,14.77-0.49,22.78,0.06
			c8.01,0.56,10.82,0.74,12.07,2.22c1.24,1.48,1.92,5.25,1.35,5.38c-0.56,0.12-7.11,0.86-11.5,1.17c-4.4,0.31-12.07,1.67-13.42,1.79
			C76.06,86.26,70.52,86.14,70.52,86.14z"/>
		<path fill="#FF0000" d="M67.37,81.47c0,0,0.56,0.23,2.03,0.56c1.47,0.34-1.24,3.61-1.47,7.22c-0.22,3.6-0.79,12.51-0.79,12.51
			l-1.13,0.12c0,0,0.34-10.94,0.56-12.86c0.23-1.91,0.57-6.09,0.57-6.09s-1.58-1.13-6.43-1.8c-4.85-0.68-8.34-0.9-8.34-0.9
			L67.37,81.47z"/>
		<path fill="#FF0000" d="M102.11,79.78c0,0-1.58-2.03-7.9-0.45c-6.32,1.58-7.78,2.93-7.78,2.93l-2.6-0.56l0.79,18.16l-0.12,1.24
			h1.58l-0.68-17.82c0,0,0.79-0.45,1.57-0.56c0.79-0.11,5.64-2.93,7.79-2.93C96.92,79.78,102.11,79.78,102.11,79.78z"/>
		<path fill="#FF0000" d="M55.64,158.96l41.95,0.46c0,0,4.06,16.47,6.77,20.3c2.71,3.83-0.23,6.99-4.29,6.99
			c-4.06,0-50.97-0.45-52.56-2.25c-1.58-1.81,0.9-5.64,3.84-12.41C54.28,165.27,55.64,158.96,55.64,158.96z"/>
		<path fill="#FF0000" d="M29.7,95.35c0,0,6.32,10.15,6.54,13.76c0.22,3.61,3.61,11.52,3.61,11.52v3.15c0,0-4.06-13.54-5.87-17.59
			C32.18,102.12,29.7,95.35,29.7,95.35z"/>
		<path fill="#FF0000" d="M118.35,94.22c0,0-3.16,19.85-3.16,23.46c0,3.61-0.46,5.19-0.46,5.19s5.42-11.51,5.42-15.12
			c0-3.61,2.03-11.73,2.03-11.73s-1.71,2.39-2.25,5.41C113.61,136.4,117.67,98.05,118.35,94.22z"/>
		<path fill="#FF0000" d="M125.79,155.12c0,0,7.44-9.93,8.8-13.99c1.35-4.06,1.35-4.06,1.35-4.06s-4.74,12.41-6.77,15.33
			C127.14,155.35,125.79,155.12,125.79,155.12z"/>
	</g>
</g>
</svg>
