<?xml version="1.0" encoding="utf-8"?>
<!-- Generator: Adobe Illustrator 23.0.6, SVG Export Plug-In . SVG Version: 6.00 Build 0)  -->
<svg version="1.1" id="Capa_1" xmlns="http://www.w3.org/2000/svg" xmlns:xlink="http://www.w3.org/1999/xlink" x="0px" y="0px"
	 viewBox="0 0 152.79 186.83" style="enable-background:new 0 0 152.79 186.83;" xml:space="preserve">
<style type="text/css">
	.st0{fill:#F0AC80;}
	.st1{fill-rule:evenodd;clip-rule:evenodd;fill:#D68B62;}
	.st2{fill-rule:evenodd;clip-rule:evenodd;fill:#E8A073;}
	.st3{fill:#BFE9FF;}
	.st4{fill:#A8E1FF;}
	.st5{fill:#A3DEFF;}
	.st6{fill:#B0E3FF;}
	.st7{fill:#FF5955;}
	.st8{fill:#FF0000;}
	.st9{fill:#3A8A00;}
	.st10{fill:#417400;}
	.st11{fill:#4D4D4D;}
	.st12{fill:#333333;}
	.st13{fill:#1B1464;}
	.st14{fill:#271D91;}
	.st15{fill:#B2B2B2;stroke:#B2B2B2;stroke-width:0.25;}
	.st16{fill:#8C8C8C;stroke:#5A3D1C;stroke-width:0.25;}
	.st17{fill:#A6A6A6;}
	.st18{fill:#FFFFFF;stroke:#B2B2B2;stroke-width:0.25;}
	.st19{fill:#EBEBEB;}
	.st20{stroke:#000000;stroke-width:0.25;}
	.st21{fill:#8C8C8C;stroke:#003642;stroke-width:0.25;}
	.st22{fill:#7A7A7A;}
	.st23{fill:#666666;stroke:#666666;stroke-width:0.25;}
	.st24{fill:#141414;}
	.st25{fill:#FFFFFF;stroke:#B2B2B2;}
	.st26{fill:#EDEDED;}
	.st27{fill:#694721;}
	.st28{fill:#5A3D1C;}
	.st29{fill:#006631;}
	.st30{fill:#00592B;}
	.st31{fill:#035B73;stroke:#003642;stroke-width:0.25;}
	.st32{fill:#02495C;stroke:#003642;stroke-width:0.25;}
	.st33{fill:#02495C;}
	.st34{fill:#820000;stroke:#730000;}
	.st35{fill:#5C0000;stroke:#5A3D1C;stroke-width:0.25;}
	.st36{fill:#780000;}
	.st37{fill:#006B33;stroke:#003642;stroke-width:0.25;}
	.st38{fill:#00592B;stroke:#003642;stroke-width:0.25;}
	.st39{fill:#DB8C3D;stroke:#003642;stroke-width:0.25;}
	.st40{fill:#C2803D;}
	.st41{fill:#DB6D00;stroke:#003642;stroke-width:0.25;}
	.st42{fill:#3F3F3F;stroke:#3F3F3F;stroke-width:0.25;}
	.st43{stroke:#3F3F3F;stroke-width:0.25;}
	.st44{fill:#262626;}
	.st45{fill:#5A3D1C;stroke:#003642;stroke-width:0.25;}
	.st46{fill:#52361A;}
	.st47{fill:#422C15;stroke:#003642;stroke-width:0.25;}
	.st48{fill:#FFFFFF;stroke:#E8E8E8;}
	.st49{fill:#E3E3E3;}
	.st50{fill:#B2B2B2;}
	.st51{fill:#FFBF00;}
	.st52{fill:#F5B700;}
	.st53{fill:#EBAF00;stroke:#D19D00;stroke-width:0.25;}
	.st54{fill:#D010B1;}
	.st55{fill:#A60D8C;}
	.st56{fill:#00A33D;}
	.st57{fill:#008033;}
	.st58{fill:#00D4FF;}
	.st59{fill:#00ABFF;}
	.st60{fill:#0A0A0A;stroke:#000000;}
	.st61{fill:#666666;stroke:#000000;stroke-width:0.25;}
	.st62{stroke:#000000;}
	.st63{fill:#00B800;}
	.st64{fill:#009C00;}
	.st65{fill:#3F3F3F;}
	.st66{fill:#73A334;stroke:#8CC63F;stroke-width:0.1;}
	.st67{fill:#8CC63F;stroke:#8CC63F;stroke-width:0.1;}
	.st68{fill:#545454;}
	.st69{fill:#7558A4;}
	.st70{fill:#7536D1;}
	.st71{fill:#E2BB95;stroke:#D5AF8C;}
	.st72{fill:#D5AF8C;}
	.st73{fill:#E2BB95;stroke:#D5AF8C;stroke-width:0.5;}
	.st74{fill:#9E2231;}
	.st75{fill:#B72837;}
	.st76{fill:#FFE085;}
	.st77{fill:#EBCE7A;}
	.st78{fill:url(#SVGID_1_);}
	.st79{fill:url(#SVGID_2_);}
	.st80{fill:url(#SVGID_3_);}
	.st81{fill:#D00204;}
	.st82{fill:#D10507;}
	.st83{fill:#D3090B;}
	.st84{fill:#D40C0E;}
	.st85{fill:#D51012;}
	.st86{fill:#D71315;}
	.st87{fill:#D81718;}
	.st88{fill:#D91A1C;}
	.st89{fill:#DB1E1F;}
	.st90{fill:#DC2122;}
	.st91{fill:#DD2526;}
	.st92{fill:#DF2829;}
	.st93{fill:#E02C2D;}
	.st94{fill:#E22F30;}
	.st95{fill:#E33333;}
	.st96{fill:#E43637;}
	.st97{fill:#E63A3A;}
	.st98{fill:#E73D3E;}
	.st99{fill:#E84141;}
	.st100{fill:#EA4444;}
	.st101{fill:#EB4848;}
	.st102{fill:#EC4B4B;}
	.st103{fill:#EE4F4E;}
	.st104{fill:#EF5252;}
	.st105{fill:#F05655;}
	.st106{fill:#F25A59;}
	.st107{fill:#F35D5C;}
	.st108{fill:#047A04;}
	.st109{fill:#57B328;}
	.st110{fill:#507F29;}
	.st111{fill:#DDBB06;}
	.st112{fill:#A80000;}
	.st113{fill:#9E0000;}
	.st114{fill:#8F0000;stroke:#610000;stroke-width:0.25;}
	.st115{fill:#5A3D1C;stroke:#805426;}
	.st116{fill:#63421F;}
	.st117{fill:#5A3D1C;stroke:#6B4620;}
	.st118{fill:url(#SVGID_4_);}
	.st119{fill:#171717;stroke:#000000;}
	.st120{fill:#212121;}
	.st121{fill:url(#SVGID_5_);}
	.st122{fill:#3F3F3F;stroke:#3F3F3F;}
	.st123{fill:#8C8C8C;stroke:#3F3F3F;}
	.st124{fill:#808080;}
	.st125{fill:url(#SVGID_6_);}
	.st126{fill:none;}
	.st127{fill:#D4D4D4;}
	.st128{fill:#D4D4D4;stroke:#B8B8B8;stroke-width:0.5;}
	.st129{fill:#D4D4D4;stroke:#B8B8B8;stroke-width:0.2;}
	.st130{fill:#C7C7C7;}
	.st131{fill:#DBF8FF;stroke:#7DBDCC;stroke-width:0.25;}
	.st132{fill:#C2F3FF;}
	.st133{fill:#F2F2F2;}
	.st134{fill:url(#SVGID_7_);stroke:#000000;}
	.st135{fill:#42210B;stroke:#000000;}
	.st136{fill:#C69C6D;stroke:#000000;}
	.st137{fill:#93278F;stroke:#000000;}
	.st138{fill:#589F3E;}
	.st139{fill:#4D8F39;}
	.st140{fill:#963528;}
	.st141{fill:#AC3A2D;}
	.st142{fill:#211915;}
	.st143{fill:#444242;}
	.st144{fill:#1A1A1A;}
	.st145{fill:#FFFFFF;}
	.st146{fill:#2E2E2E;}
	.st147{fill:#363636;}
	.st148{fill:#666666;}
	.st149{fill:#C69C6D;}
	.st150{fill:#B38D62;}
	.st151{fill:#A67C52;}
	.st152{fill:#8C6239;}
	.st153{fill:#9E10D2;}
	.st154{fill:#8210D2;}
	.st155{fill:#6B6B6B;}
	.st156{fill:#008C08;}
	.st157{fill:#00A308;}
	.st158{fill:#EC2024;}
	.st159{fill:#E31E26;}
	.st160{fill:#BED63A;}
	.st161{fill:#EC1C24;}
	.st162{fill:#00ADEE;}
	.st163{fill:#2E3191;}
</style>
<g>
	<g>
		<path class="st0" d="M100.67,76.12c-3.81-1.97-9.05-4.3-9.57-5.18c-2.22-3.76-2.21-13.48-1.8-17.48h-1.01H56.54h-1.01
			c0.4,4,0.92,13.87-1.54,17.48c-0.39,0.58-6.05,3.17-9.83,5.18c-3.14,1.66-11.71,6.88-12.87,7.31c0.3,0.39,4.09,11.7,8.1,17.76
			c1.84,2.78,2.7,5.47,5.05,7.78c2.43,2.38,5.21,4.34,8.26,5.68c3.67,1.61,7.6,2.4,11.55,2.64c2.7,0.17,5.44,0.14,8.16-0.08
			c2.72,0.23,5.46,0.25,8.16,0.08c3.95-0.25,7.88-1.03,11.55-2.64c3.05-1.34,5.83-3.3,8.26-5.68c2.36-2.31,3.12-5,4.97-7.78
			c4.01-6.06,8.39-17.43,8.69-17.82C112.87,82.98,103.66,77.67,100.67,76.12z"/>
		<path class="st0" d="M95.08,33.91c0,0-0.19-11.41-0.31-16.03c-0.13-4.99-0.38-12.68-14.64-17.05C79.33,0.58,75.8-0.01,72.37,0
			c-3.21,0.01-6.33,0.6-7.08,0.83c-3.78,1.16-6.57,2.9-9.35,5.38c-3.8,3.38-5.33,6.68-5.45,11.67c-0.12,4.62-0.23,16.03-0.23,16.03
			c-4.37-3.68-4.41,0.8-4.2,3.23c0.29,3.3,1.29,5.77,2.3,7.83c0.67,1.37,1.38,3.34,3.37,3.42c0.75,0.03,1.24-0.55,1.24-0.55
			s0.32,4.75,0.5,6.06c0.51,3.9,9.13,14.86,13.98,15.83c1.47,0.29,9.06,0.3,10.43,0.04c4.79-0.93,13.64-11.86,14.16-15.87
			c0.17-1.31,0.49-6.06,0.49-6.06s0.49,0.58,1.24,0.55c1.99-0.08,2.47-2.05,3.14-3.42c1.01-2.05,2.38-5.21,2.46-8.53
			C99.42,34.06,99.46,30.23,95.08,33.91z"/>
		<g>
			<g>
				<path class="st1" d="M50.91,41.31c0.11-0.01-0.87-3.58-1.45-5c-0.63-1.54-1.27-1.87-1.66-1.85c-0.74,0.04-1,3.47-1,3.47
					s0.54-3.68,2.2-0.72C49.45,38.03,50.78,41.32,50.91,41.31z"/>
				<path class="st1" d="M48.31,37.83c0.05-0.24,0.3-1.65,0.5-1.66c0.24-0.01,0.24,1.01,0.19,1.17c-0.16,0.5-0.32,1-0.43,1.54
					c-0.11,0.56-0.12,1.1-0.11,1.68c0.01,0.51,0.12,1.11,0.22,1.6c-0.39-0.38-0.49-1.9-0.5-2.47C48.16,38.71,48.2,38.39,48.31,37.83
					z"/>
				<path class="st2" d="M51.27,44.18c-0.03-0.09-0.56-1.27-0.6-1.36c-0.38-0.87,0.43,0.25,0.51,0.35c0.4,0.56,0.69,0.87,0.97,1.35
					c0.24,0.41,0.12,1.04-0.43,1.1c-0.46,0.05-1.04-0.39-1.23-1.04C50.46,44.49,51.68,45.31,51.27,44.18z"/>
			</g>
			<g>
				<path class="st1" d="M94.53,41.31c-0.11-0.01,0.87-3.58,1.45-5c0.63-1.54,1.27-1.88,1.66-1.85c0.74,0.04,1,3.47,1,3.47
					s-0.54-3.68-2.2-0.73C95.99,38.03,94.66,41.32,94.53,41.31z"/>
				<path class="st1" d="M97.13,37.83c-0.05-0.24-0.3-1.65-0.5-1.66c-0.24-0.01-0.24,1.01-0.19,1.17c0.16,0.5,0.32,1,0.43,1.54
					c0.11,0.56,0.12,1.1,0.11,1.68c-0.01,0.51-0.12,1.11-0.22,1.6c0.39-0.38,0.49-1.9,0.5-2.47C97.28,38.71,97.24,38.39,97.13,37.83
					z"/>
				<path class="st2" d="M94.17,44.18c0.03-0.09,0.56-1.27,0.6-1.36c0.38-0.87-0.43,0.25-0.51,0.35c-0.4,0.56-0.69,0.87-0.97,1.35
					c-0.24,0.41-0.12,1.04,0.43,1.1c0.46,0.05,1.04-0.39,1.24-1.04C94.98,44.49,93.76,45.31,94.17,44.18z"/>
			</g>
		</g>
	</g>
	<g>
		<path class="st0" d="M38.61,78.8c-2.31,0.86-6.41,7.06-7.15,7.8c-0.02,0.02,0.07-0.14,0,0c-2.78,5.95-0.89-8.13-8.89,23.87
			c-3,12-4.6,26.11-5.1,34.56c-0.49,8.46-1.78,22.07-1.93,31.88c-0.07,4.25-0.75,11.59-0.75,11.59l14.82,0.93
			c0,0,0.76-4.14,0.98-7.98c0.33-5.75,3.39-35.45,4.12-40.93c1.12-8.51,2.02-26.27,2.02-26.27S40.11,78.23,38.61,78.8z"/>
	</g>
	<g>
		<path class="st0" d="M114.18,81.8c2.31,0.86,6.41,7.06,7.15,7.8c0.02,0.02-0.07-0.14,0,0c2.78,5.95,0.89-8.13,8.89,23.87
			c3,12,4.6,26.11,5.1,34.56c0.49,8.46,1.78,22.07,1.93,31.88c0.07,4.25,0.75,11.59,0.75,11.59l-14.82,0.93c0,0-0.76-4.14-0.98-7.98
			c-0.33-5.75-3.39-35.45-4.12-40.93c-1.12-8.51-2.02-26.27-2.02-26.27S112.68,81.23,114.18,81.8z"/>
	</g>
	<g>
		<path class="st144" d="M110.33,173.99c-2.2-5.42-4.69-16.99-4.69-19.48c0-2.49,4.69-21.96,5.72-28.25
			c1.02-6.3,2.35-17.58,2.35-17.58h0.73c0,0,1.17-1.02,2.49-2.64c1.32-1.6,8.93-11.41,8.93-11.41s-0.63-5.03-3.95-7.76
			c-3.31-2.73-14.06-12.1-17.57-13.47c-3.51-1.36-7.81-2.14-7.81-2.14l-0.68,0.39c0,0-3.23,14.94-3.81,18.74
			c-0.59,3.81-4.54,7.03-9.95,8.2c-5.42,1.17-9.91,1.5-13.28,0.77c-3.37-0.73-9.85-4.44-11.76-6.2c-1.9-1.75-7.76-18.3-7.76-18.3
			s0.47-1.41-0.19-1.26c-5.27,1.17-15.03,7.41-18.93,11.13c-3.9,3.71-5.67,17.37-4.1,19.72c1.55,2.34,8.2,6.83,8.2,6.83l1.17-0.39
			c0,0,4.2,18.6,5.22,24.02c1.03,5.42,6.44,15.37,8.2,19.47c1.76,4.1-0.88,8.93-2.79,14.21c-1.9,5.26-3.95,9.37-4.83,13.32
			c-0.16,0.71-0.48,2.09-0.91,3.91c-1.94,8.24,75.04,6.73,73.82,1.19C112.9,181.44,111.43,176.7,110.33,173.99z"/>
		<path class="st145" d="M55.57,97.7c0,0,2.34,18.16,3.66,23.72c1.32,5.57,6.74,21.82,12.73,23.73c6,1.9,9.96,1.46,11.43,0
			c1.46-1.47,3.51-5.27,4.24-10.1c0.73-4.84,0.58-9.67,2.2-19.33c1.6-9.67,1.9-19.48,1.9-20.94c0-1.46,0.29-4.39,0.29-4.39
			s-2.04,4.2-3.51,5.17c-1.47,0.98-3.41,1.96-5.66,2.25c-2.25,0.29-4.98,1.46-9.86,0.89c-4.88-0.59-7.91-1.86-9.86-2.93
			c-1.95-1.08-8.2-5.96-8.2-5.96L55.57,97.7z"/>
		<path class="st146" d="M51.76,104.44c0,0-0.27,17.16,0.13,21.47c0.41,4.32-0.27,8.29,3.14,13.44
			c3.42,5.17,10.54,11.39,13.54,12.12c3.01,0.72,1.37,1.92,8.62,2.16c7.25,0.24,10.66-1.8,14.76-6.72c4.1-4.91,6.29-8.27,7.79-12.23
			c1.51-3.97,1.64-8.89,1.64-8.89s-5.88,13.92-8.89,18.11c-3.01,4.21-6.57,6.37-8.07,6.73c-1.5,0.36,5.61-5.76,8.07-9.84
			c2.46-4.08,2.87-6.25,2.87-6.25s-3.42,5.64-5.61,7.93c-2.19,2.28-3.56,3.71-3.56,3.71s2.73-5.03,4.38-8.64
			c1.63-3.6,2.45-9.36,2.59-10.8c0.14-1.44,0.14-1.44,0.14-1.44s-0.69,3.72-2.05,5.75c-1.37,2.04-2.05,7.68-3.01,9.25
			c-0.96,1.56-3.7,9.48-4.92,9.6c-1.23,0.12-2.59,0.37-3.97,0.37c-1.36,0-6.29-1.32-9.3-3.6c-3.01-2.28-6.43-7.81-6.57-8.16
			c-0.14-0.36,0.41,3.12,1.1,4.07c0.68,0.97,2.86,3.48,2.86,3.48s-3.96-2.65-5.05-6.36C61.33,136,58.18,130,58.18,130
			s0.55,7.32,1.78,9.12c1.24,1.8-4.51-6.36-4.65-9.84c-0.14-3.48-0.14-12.24-0.14-12.24s-1.1,4.92-1.23,7.08
			c-0.13,2.17-0.55-5.88-0.55-8.16C53.4,113.68,51.76,104.44,51.76,104.44z"/>
		<path class="st147" d="M47.37,153.64c0,0,7.46,3.8,12.88,5.12c5.42,1.31,10.98,2.34,21.23,2.34c10.25,0,19.92-1.76,22.56-3.37
			c2.63-1.61,2.63-2.2,2.63-2.2s-0.44,7.91,0.87,9.81c1.32,1.91,2.05,3.96,2.05,3.96s-1.76,2.05-4.98,2.93
			c-3.22,0.87-15.38,1.6-21.08,1.6c-5.71,0-23.14-0.43-29.58-1.9c-6.44-1.47-8.63-3.22-8.63-3.22s2.49-4.25,2.49-5.57
			C47.81,161.83,47.37,153.64,47.37,153.64z"/>
		<polygon class="st148" points="76.81,156.85 80.19,163.72 87.77,164.83 82.29,170.17 83.58,177.72 76.81,174.16 70.02,177.72 
			71.31,170.17 65.83,164.83 73.41,163.72 		"/>
	</g>
</g>
</svg>
