<?xml version="1.0" encoding="utf-8"?>
<!-- Generator: Adobe Illustrator 23.0.6, SVG Export Plug-In . SVG Version: 6.00 Build 0)  -->
<svg version="1.1" id="Capa_1" xmlns="http://www.w3.org/2000/svg" xmlns:xlink="http://www.w3.org/1999/xlink" x="0px" y="0px"
	 viewBox="0 0 152.79 186.83" enable-background="new 0 0 152.79 186.83" xml:space="preserve">
<g>
	<g>
		<path fill="#F0AC80" d="M103.72,76.12c-3.81-1.97-9.05-4.3-9.57-5.18c-2.22-3.76-2.21-13.48-1.8-17.48h-1.01H59.59h-1.01
			c0.4,4,0.92,13.87-1.54,17.48c-0.39,0.58-6.05,3.17-9.83,5.18c-3.14,1.66-11.71,6.88-12.87,7.31c0.3,0.39,4.09,11.7,8.1,17.76
			c1.84,2.78,2.7,5.47,5.05,7.78c2.43,2.38,5.21,4.34,8.26,5.68c3.67,1.61,7.6,2.4,11.55,2.64c2.7,0.17,5.44,0.14,8.16-0.08
			c2.72,0.23,5.46,0.25,8.16,0.08c3.95-0.25,7.88-1.03,11.55-2.64c3.05-1.34,5.83-3.3,8.26-5.68c2.36-2.31,3.12-5,4.97-7.78
			c4.01-6.06,8.39-17.43,8.69-17.82C115.91,82.98,106.7,77.67,103.72,76.12z"/>
		<g>
			<path fill="#F0AC80" d="M124.63,95.46c-0.11-0.09-6.89-2.91-7-3c-4.13-3.44,1.37-8.53-2.5-9.97c-4.08-1.52-21.55,3.81-37.23,3.82
				c-0.04,0-1.38,0.03-2.27,0.05c-0.89-0.02-2.23-0.05-2.27-0.05c-15.69-0.01-27.57-9.43-27.57-9.43s-8.39,4.41-12.48,5.94
				C29.45,84.25,129.85,102.26,124.63,95.46z"/>
		</g>
		<path fill="#F0AC80" d="M98.13,33.91c0,0-0.19-11.41-0.31-16.03C97.7,12.89,97.44,5.21,83.18,0.83c-0.8-0.25-4.33-0.84-7.76-0.83
			c-3.21,0.01-6.33,0.6-7.08,0.83c-3.78,1.16-6.57,2.9-9.35,5.38c-3.8,3.38-5.33,6.68-5.45,11.67c-0.12,4.62-0.23,16.03-0.23,16.03
			c-4.37-3.68-4.41,0.8-4.2,3.23c0.29,3.3,1.29,5.77,2.3,7.83c0.67,1.37,1.38,3.34,3.37,3.42c0.75,0.03,1.24-0.55,1.24-0.55
			s0.32,4.75,0.49,6.06c0.51,3.9,9.13,14.86,13.98,15.83c1.47,0.29,9.06,0.3,10.43,0.04c4.79-0.93,13.64-11.86,14.16-15.87
			c0.17-1.31,0.49-6.06,0.49-6.06s0.49,0.58,1.24,0.55c1.99-0.08,2.47-2.05,3.14-3.42c1.01-2.05,2.38-5.21,2.46-8.53
			C102.47,34.06,102.51,30.23,98.13,33.91z"/>
		<g>
			<g>
				<path fill-rule="evenodd" clip-rule="evenodd" fill="#D68B62" d="M53.96,41.31c0.11-0.01-0.87-3.58-1.45-5
					c-0.63-1.54-1.27-1.87-1.66-1.85c-0.74,0.04-1,3.47-1,3.47s0.54-3.68,2.2-0.72C52.5,38.03,53.83,41.32,53.96,41.31z"/>
				<path fill-rule="evenodd" clip-rule="evenodd" fill="#D68B62" d="M51.36,37.83c0.05-0.24,0.3-1.65,0.5-1.66
					c0.24-0.01,0.24,1.01,0.19,1.17c-0.16,0.5-0.32,1-0.43,1.54c-0.11,0.56-0.12,1.1-0.11,1.68c0.01,0.51,0.12,1.11,0.22,1.6
					c-0.39-0.38-0.49-1.9-0.5-2.47C51.21,38.71,51.25,38.39,51.36,37.83z"/>
				<path fill-rule="evenodd" clip-rule="evenodd" fill="#E8A073" d="M54.32,44.18c-0.03-0.09-0.56-1.27-0.6-1.36
					c-0.38-0.87,0.43,0.25,0.51,0.35c0.4,0.56,0.69,0.87,0.97,1.35c0.24,0.41,0.12,1.04-0.43,1.1c-0.46,0.05-1.04-0.39-1.23-1.04
					C53.5,44.49,54.73,45.31,54.32,44.18z"/>
			</g>
			<g>
				<path fill-rule="evenodd" clip-rule="evenodd" fill="#D68B62" d="M97.58,41.31c-0.11-0.01,0.87-3.58,1.45-5
					c0.63-1.54,1.27-1.88,1.66-1.85c0.74,0.04,1,3.47,1,3.47s-0.54-3.68-2.2-0.73C99.04,38.03,97.71,41.32,97.58,41.31z"/>
				<path fill-rule="evenodd" clip-rule="evenodd" fill="#D68B62" d="M100.18,37.83c-0.05-0.24-0.3-1.65-0.5-1.66
					c-0.24-0.01-0.24,1.01-0.19,1.17c0.16,0.5,0.32,1,0.43,1.54c0.11,0.56,0.12,1.1,0.11,1.68c-0.01,0.51-0.12,1.11-0.22,1.6
					c0.39-0.38,0.49-1.9,0.5-2.47C100.33,38.71,100.29,38.39,100.18,37.83z"/>
				<path fill-rule="evenodd" clip-rule="evenodd" fill="#E8A073" d="M97.22,44.18c0.03-0.09,0.56-1.27,0.6-1.36
					c0.38-0.87-0.43,0.25-0.51,0.35c-0.4,0.56-0.69,0.87-0.97,1.35c-0.24,0.41-0.12,1.04,0.43,1.1c0.46,0.05,1.04-0.39,1.24-1.04
					C98.03,44.49,96.81,45.31,97.22,44.18z"/>
			</g>
		</g>
	</g>
	<g>
		<g>
			<path fill="#F0AC80" d="M117.45,77.69c2.49,0.93,6.92,7.62,7.71,8.42c0.02,0.02,2.73,1.56,2.8,1.71c3,6.43,9.23,17.83,9.04,24.23
				c-0.2,6.57,2.72,28.01,3.26,37.13c0.53,9.13,1.92,23.82,2.09,34.41c0.07,4.59,0.81,12.51,0.81,12.51l-16,1
				c0,0-0.82-4.47-1.06-8.62c-0.36-6.2-3.66-38.26-4.45-44.18c-1.21-9.19-2.18-28.36-2.18-28.36S115.83,77.09,117.45,77.69z"/>
		</g>
		<g>
			<path fill="#F0AC80" d="M35.34,75.04c-2.49,0.93-6.92,7.62-7.71,8.42c-0.02,0.02-2.73,1.56-2.8,1.71
				c-3,6.43-9.23,17.83-9.04,24.23c0.2,6.57-2.72,28.01-3.26,37.13c-0.53,9.13-1.92,23.82-2.09,34.41
				c-0.07,4.59-0.81,12.51-0.81,12.51l16,1c0,0,0.82-4.47,1.06-8.62c0.36-6.2,3.66-38.26,4.45-44.18
				c1.21-9.19,2.18-28.36,2.18-28.36S36.96,74.44,35.34,75.04z"/>
		</g>
		<g>
			<path fill="#FFFFFF" stroke="#B2B2B2" stroke-width="0.25" d="M95.35,68.72c0,0,7.12,2.89,8.25,3.88
				c1.14,0.98,7.15,11.43,7.15,17.54c0,6.12,0.47,10.27,0.47,14.81c0,4.56-0.08,24.88-0.47,28.83c-0.39,3.94,1.09,22.43,1.09,25.68
				c0,3.27,2.68,10.1,2.68,12.76c0,2.64,2.33,12.13,2.33,18.36c0,6.22,0,13.96,0,13.96s-30.41-1.02-43.8-1.02
				c-13.4,0-37.17,1.93-37.17,1.93s-2.56-6.31-0.94-14.26c1.64-7.95,6.88-31.73,6.88-35.39s0.11-18.66,0.11-18.66
				s-1.16-30.29-1.16-35.49c0-5.19,0.35-15.09,2.69-20.7c2.33-5.61,5.18-9.73,5.7-10.19c0.53-0.46,5.36-1.3,5.36-1.3
				s19.92,8.23,28.54,5.37C91.68,71.98,95.35,68.72,95.35,68.72z"/>
			<path fill="#EBEBEB" d="M43.88,81.43c0.3,0,1.55,3.53,1.55,5.77c0,2.25-0.65,6.63,0.7,7.83c1.36,1.18,0.15,3.8-0.55,5.84
				c-0.7,2.04-1.35,14.86,0.4,16.39c1.74,1.53,3.26-0.75,5.82-1.69c2.55-0.96,3.03-1.7,0.39,2.23c-2.65,3.96-5.99,5.78-2.26,8.24
				c3.73,2.45,9.48,4.21,5.13,4.21c-4.35,0-7.61,0.08-7.61,0.08s3.26,4.82,5.59,8.01c2.33,3.19,6.14,2.59,6.44,2.59
				c0.32,0,0.32-0.55,0.32,0c0,0.55-0.78,3.33-6.07,2.25c-5.28-1.1-7.53-2.59-7.53,0.06c0,2.65-0.08,10.95,1.78,17
				c1.87,6.05,0.63,5.84,3.82,6.31c3.18,0.48-2.18-0.4-4.9,2.93c-2.72,3.33-6.92,7.47-1.63,10.74c5.28,3.25,6.36,3.25,7.84,3.25
				c1.47,0-7.38-0.75-8.94,2.25c-1.55,3-1.7,2.58-0.62,5.23c1.09,2.66-7.22,3-5.98,4.91c1.25,1.89,6.68,1.76,12.2,1.76
				c5.51,0,1.55,1.29-1.01,2.39c-2.56,1.08,2.64,3.39,3.73,3.39c1.08,0-0.05,0.93-0.05,0.93s-7.09,0.73-10.98,0.73
				c-3.89,0-5.72,0.11-5.72,0.11s-1.34-5.09-1.34-7.74c0-2.65,0.79-7.55,1.46-10.71c0.67-3.15,2.39-11.26,2.92-13.84
				c0.52-2.59,2.34-11.56,2.66-14.01c0.32-2.45,0.36-4.49,0.38-7.64c0.01-3.15,0.11-13.08,0.09-13.77
				c-0.01-0.69-0.58-16.01-0.58-16.01l-0.59-20.35c0,0,0.5-14.58,1.51-17.17c1.02-2.58,1.47-2.58,1.47-2.58L43.88,81.43z"/>
			<path fill="#EBEBEB" d="M110.92,98.81c0,0-2.11-0.21-2.11,6.02c0,6.21-0.24,10.19-2.68,12.34c-2.45,2.14-8.73,0.71-4.54,2.23
				c4.19,1.54,4.89,1.54,4.89,1.54s-0.92-0.21-2.96,2.6c-2.04,2.8-5.66,4.84-3.68,5.76c1.99,0.92,5.13,2.04,5.13,2.04
				s3.85,7.34,1.16,9.69c-2.68,2.34-2.79,4.58-6.98,4.58c-4.2,0-9.56-1.02-6.42,1.75c3.15,2.75,9.8,4.38,10.37,4.38
				c0.58,0,3.03,5.2,3.03,5.2s-5.35,1.13-7.68,3.16c-2.34,2.04,3.38,2.65,5.93,3.97c2.57,1.32,5.01,4.29,5.01,9.6
				c0,5.29-0.46,11.92-5.35,13.66c-4.89,1.73-5.77,2.49-5.77,2.49s1.69,3.12,6.59,1.58c4.89-1.52,8.5-1.02,8.5-1.02
				s0.35,6.22-0.7,7.15c-1.05,0.91,4.2,1.93,4.2,1.93s0.13-8.62-0.07-10.87c-0.2-2.25-1.38-10.12-1.6-11.48
				c-0.23-1.39-1.01-7.43-1.52-9.29c-0.52-1.89-1.71-5.95-1.82-8.5c-0.1-2.55-0.53-9.69-0.53-9.69l-0.61-12.4l0.34-11.47l0.14-14.75
				L110.92,98.81z"/>
			<path stroke="#000000" stroke-width="0.25" d="M58.24,66.88c0,0,3.96,6.19,14.99,6.19c11.04,0,10.57,0.47,13.91-0.74
				c3.33-1.23,6.29-4.97,6.29-4.97l3.73,2.66c0,0-6.21,5.43-9.71,6.31c-3.5,0.9-11.5,1.43-14.68,1.16
				c-3.19-0.26-13.52-3.12-15.61-4.35c-2.1-1.22-2.64-3.67-2.64-3.67L58.24,66.88z"/>
			<path stroke="#000000" stroke-width="0.25" d="M49.16,70.76c0,0-11.25,1.31-15.38,3c-4.11,1.7-13.43,18.16-13.43,18.16
				l-6.07,18.15l17.84,8.23l8.8-9.92C40.93,108.37,44.97,73.9,49.16,70.76z"/>
			<path stroke="#000000" stroke-width="0.25" d="M102.94,72.14c0,0,11.25,1.74,15.36,3.44c4.11,1.69,7.3,7.68,9.94,10.89
				c2.64,3.19,9.56,25.41,9.56,25.41l-17.7,8.15l-8.94-9.86C111.16,110.18,109.24,76.63,102.94,72.14z"/>
		</g>
	</g>
</g>
</svg>
