<?xml version="1.0" encoding="utf-8"?>
<!-- Generator: Adobe Illustrator 23.0.6, SVG Export Plug-In . SVG Version: 6.00 Build 0)  -->
<svg version="1.1" id="Capa_1" xmlns="http://www.w3.org/2000/svg" xmlns:xlink="http://www.w3.org/1999/xlink" x="0px" y="0px"
	 viewBox="0 0 152.79 186.83" enable-background="new 0 0 152.79 186.83" xml:space="preserve">
<g>
	<g>
		<path fill="#F0AC80" d="M152.79,204.91c0,0-1.58-40.45-2.42-48.54c-1.23-11.74-2.56-6.03-5.66-33.29
			c-1.63-14.29-6.99-25.02-11.01-31.72c-0.29-0.48-0.64-0.86-1.04-1.18c-0.03-0.04-0.05-0.07-0.08-0.11
			c-0.11-0.09-1.12-1.42-1.23-1.51c-3.75-3.13-11.72-7.47-15.71-9.1c-2.82-1.47-9.24-5.15-11.6-6.37c-3.66-1.89-8.69-4.13-9.19-4.97
			c-1.34-2.27-1.83-6.79-1.92-10.79c1.55-2.2,2.65-4.27,2.82-5.58c0.16-1.26,0.47-5.82,0.47-5.82s0.47,0.56,1.19,0.53
			c1.91-0.07,2.37-1.97,3.01-3.28c0.97-1.97,2.28-5.01,2.36-8.19c0.06-2.29,0.09-5.97-4.11-2.43c0,0-0.18-10.96-0.3-15.39
			C98.24,12.38,97.99,5,84.3,0.8c-0.77-0.24-4.16-0.8-7.46-0.8c-3.08,0.01-6.08,0.58-6.8,0.8c-3.63,1.11-6.3,2.79-8.98,5.17
			c-3.65,3.25-5.11,6.41-5.23,11.2c-0.11,4.44-0.21,15.39-0.21,15.39c-4.2-3.54-4.24,0.77-4.03,3.1c0.28,3.17,1.24,5.54,2.21,7.51
			c0.64,1.31,1.33,3.21,3.24,3.28c0.72,0.03,1.19-0.53,1.19-0.53s0.31,4.56,0.48,5.82c0.15,1.14,1.02,2.91,2.29,4.84
			c0.09,4.21-0.21,9.22-1.79,11.53c-0.38,0.55-5.81,3.05-9.44,4.97c-0.37,0.2-0.83,0.45-1.34,0.74c0,0-0.01-0.01-0.01-0.01
			s-8.06,4.24-11.98,5.7c-2.97,1.11-8.45,4.18-12.55,7.06c-0.89,0.47-1.81,1.14-2.76,2.09c-0.03,0.02-0.07,0.06-0.01,0.01
			c-0.19,0.18-0.33,0.35-0.44,0.51c-5.75,6.5-7.84,23.64-7.63,31.27c0.23,7.84-3.04,34.17-3.69,45.04
			c-0.65,10.89-2.83,40.27-2.83,40.27l19.72,2.12c0,0,5.93-42.99,7.27-49.14c1.52-6.96,0.71-32.59,7.71-46.59s0,0,0,0
			c2.4,1.39,3.11,13.52,3.04,27.03c-0.07,14.4,61.67,9.89,62.96,1.97c1.14-7,4.46-27.72,4-31c2.58,3.65,10.26,18.56,11.08,21.16
			c1.09,3.48,3.05,19.15,3.48,30.04c0.44,10.88,2.62,27.2,2.62,27.2c0.89,5.46,2.68,16.36,2.68,16.36L152.79,204.91z"/>
	</g>
	<path fill="#00ADEE" d="M88.91,157.62c12.24-1.32,21.64-2.77,24.76-3.27c0.04-0.18,0.08-0.36,0.13-0.55
		c2.1-8.22,4.11-29.8,4.21-36.29c0.08-6.5-2.59-10.69-7.44-13.76c-4.88-3.04-15.47-0.18-19,1.44c-3.54,1.64-10.51,4.32-10.51,4.32
		s-9.37-7.25-16.72-7.25c-7.36,0-23.97,4.28-25.31,8.3c-1.32,4.01-0.67,23.77,0.78,31.53c0.65,3.54,1.28,6.68,1.3,10.05
		c1.07,0.16,5.98,0.96,13.04,2.82C62.17,157.05,73.82,159.24,88.91,157.62z M79.17,113.23c1.9,0,3.44,1.53,3.44,3.43
		c0,1.9-1.54,3.43-3.44,3.43c-1.89,0-3.43-1.53-3.43-3.43C75.74,114.76,77.27,113.23,79.17,113.23z M79.17,124.1
		c1.9,0,3.44,1.53,3.44,3.43c0,1.9-1.54,3.43-3.44,3.43c-1.89,0-3.43-1.53-3.43-3.43C75.74,125.63,77.27,124.1,79.17,124.1z"/>
	<path fill="#2E3191" d="M46.32,164.5c3.44,1.79,13.91,2.77,24.55,3.25c0-0.96-0.01-1.47-0.01-1.47c0.24,0.14,0.45,0.66,0.62,1.5
		c9.57,0.41,19.16,0.42,23.82,0.25c7.96-0.31,15.16-2.16,17.92-4.3c0.68-0.53,1.11-1.08,1.18-1.63c0.38-2.76,0.38-7.93,0.38-7.93
		s-0.39,0.07-1.12,0.18c-3.12,0.5-12.52,1.95-24.76,3.27c-15.09,1.62-26.74-0.57-34.76-2.67c-7.06-1.86-11.97-2.66-13.04-2.82
		c-0.14-0.02-0.22-0.03-0.22-0.03c-0.51,1.03-1.05,7.5-1.15,8.75c-0.01,0.13-0.02,0.23-0.02,0.23S39.72,161.07,46.32,164.5z"/>
	<path fill="#2E3191" d="M79.17,120.09c1.9,0,3.44-1.53,3.44-3.43c0-1.9-1.54-3.43-3.44-3.43c-1.89,0-3.43,1.53-3.43,3.43
		C75.74,118.56,77.27,120.09,79.17,120.09z"/>
	<path fill="#2E3191" d="M79.17,130.96c1.9,0,3.44-1.53,3.44-3.43c0-1.9-1.54-3.43-3.44-3.43c-1.89,0-3.43,1.53-3.43,3.43
		C75.74,129.43,77.27,130.96,79.17,130.96z"/>
	<path fill="#2E3191" d="M110.12,181.41c1,1.5,13.79,26.77,13.79,26.77l0.67,0l-19.62-39.96
		C104.95,168.21,106.68,176.25,110.12,181.41z"/>
	<g>
		<path fill="none" d="M110.12,181.41c1,1.5,6.52,12.3,13.79,26.77h0.67c-11.09-23.19-19.62-39.97-19.62-39.97
			S106.68,176.25,110.12,181.41z"/>
		<path fill="none" d="M46.4,166c0,0-4.91,16.57-13.53,42.18h1.7C40.2,190.68,47.67,167.49,46.4,166z"/>
		<path fill="none" d="M60.65,168.18c0,0-3.13,15.48-9.05,39.99h1.91C57.63,190.13,62.18,169.51,60.65,168.18z"/>
		<path fill="none" d="M92.87,208.18h2.97c-4.65-21.4-8.48-38.82-8.48-38.82C89.06,183.17,90.92,196.1,92.87,208.18z"/>
		<path fill="#00ADEE" d="M87.36,169.36c0,0,3.83,17.41,8.48,38.82h28.06c-7.27-14.47-12.78-25.27-13.79-26.77
			c-3.44-5.15-5.16-13.2-5.16-13.2s8.53,16.78,19.62,39.97h14.62c-0.12-0.2-0.24-0.42-0.36-0.61c-6.5-10.79-20.83-35.42-23.13-38.67
			c-1.06-1.51-1.99-3.09-2.48-5.17c-2.76,2.14-9.96,3.99-17.92,4.3c-4.65,0.18-14.25,0.17-23.82-0.25c1.12,5.4,0.93,24.13,0.67,40.4
			h20.71C90.92,196.1,89.06,183.17,87.36,169.36z"/>
		<path fill="#00ADEE" d="M46.4,166c1.28,1.49-6.2,24.69-11.84,42.18H51.6c5.92-24.51,9.05-39.99,9.05-39.99
			c1.53,1.33-3.02,21.95-7.15,39.99h16.8c0.59-21.2,0.59-35.91,0.57-40.43c-10.64-0.48-21.11-1.46-24.55-3.25
			c-6.6-3.43-6.6-3.43-6.6-3.43s0.01-0.09,0.02-0.23c-0.51,1.61-1.17,3.32-2.04,5.18c-4.88,10.4-11.47,22.35-14.43,39.04
			c-0.17,0.99-0.39,2.03-0.63,3.11h10.22C41.49,182.57,46.4,166,46.4,166z"/>
	</g>
	<g>
		<path fill="#2E3191" d="M60.65,168.18c0,0-3.13,15.48-9.05,39.99h1.91C57.63,190.13,62.18,169.51,60.65,168.18z"/>
		<path fill="#2E3191" d="M71.49,167.78c-0.17-0.84-0.38-1.37-0.62-1.5c0,0,0,0.51,0.01,1.47c0.02,4.52,0.02,19.23-0.57,40.43h1.86
			C72.42,191.9,72.61,173.18,71.49,167.78z"/>
		<path fill="#2E3191" d="M46.4,166c0,0-4.91,16.57-13.53,42.18h1.7C40.2,190.68,47.67,167.49,46.4,166z"/>
		<path fill="#2E3191" d="M87.36,169.36c1.7,13.81,3.56,26.74,5.51,38.82h2.97C91.2,186.77,87.36,169.36,87.36,169.36z"/>
	</g>
</g>
</svg>
