<?xml version="1.0" encoding="utf-8"?>
<!-- Generator: Adobe Illustrator 23.0.6, SVG Export Plug-In . SVG Version: 6.00 Build 0)  -->
<svg version="1.1" id="Capa_1" xmlns="http://www.w3.org/2000/svg" xmlns:xlink="http://www.w3.org/1999/xlink" x="0px" y="0px"
	 viewBox="0 0 152.79 186.83" enable-background="new 0 0 152.79 186.83" xml:space="preserve">
<g>
	<path fill="#F0AC80" d="M149.69,213.45c-0.45-14.13-2.35-52.05-2.75-57.09c-0.44-5.43-4.12-19.67-5.66-33.29
		c-1.63-14.29-6.99-25.02-11.01-31.72c-0.29-0.48-0.64-0.86-1.04-1.18c-0.03-0.04-0.05-0.07-0.08-0.11
		c-0.11-0.09-1.12-1.42-1.23-1.51c-3.75-3.13-11.72-7.47-15.71-9.1c-2.82-1.47-9.24-5.15-11.6-6.37c-3.66-1.89-8.69-4.13-9.19-4.97
		c-1.34-2.27-1.83-6.79-1.92-10.79c1.55-2.2,2.65-4.27,2.82-5.58c0.16-1.26,0.47-5.82,0.47-5.82s0.47,0.56,1.19,0.53
		c1.91-0.07,2.37-1.97,3.01-3.28c0.97-1.97,2.28-5.01,2.36-8.19c0.06-2.29,0.09-5.97-4.11-2.43c0,0-0.18-10.96-0.3-15.39
		C94.82,12.38,94.57,4.99,80.88,0.8c-0.77-0.24-4.16-0.8-7.46-0.8c-3.08,0.01-6.08,0.58-6.8,0.8c-3.63,1.11-6.3,2.79-8.98,5.17
		c-3.65,3.25-5.11,6.41-5.23,11.2c-0.11,4.44-0.21,15.39-0.21,15.39c-4.2-3.54-4.24,0.77-4.03,3.1c0.28,3.17,1.24,5.54,2.21,7.51
		c0.64,1.31,1.33,3.21,3.24,3.28c0.72,0.03,1.19-0.53,1.19-0.53s0.31,4.56,0.48,5.82c0.15,1.14,1.02,2.91,2.29,4.84
		c0.09,4.21-0.21,9.22-1.79,11.53c-0.38,0.55-5.81,3.05-9.44,4.97c-0.37,0.2-0.83,0.45-1.34,0.74c0,0-0.01-0.01-0.01-0.01
		s-8.06,4.24-11.98,5.7c-2.97,1.11-8.45,4.18-12.55,7.06c-0.89,0.47-1.81,1.14-2.76,2.09c-0.03,0.02-0.07,0.06-0.01,0.01
		c-0.19,0.18-0.33,0.35-0.44,0.51c-5.75,6.5-7.84,23.64-7.63,31.27c0.23,7.84-3.04,34.17-3.69,45.04
		C5.27,176.4,3.1,205.78,3.1,205.78l19.72,2.12c0,0,5.93-42.99,7.27-49.14c1.52-6.96,0.71-32.59,7.71-46.59s0,0,0,0
		c2.4,1.39,18.06,11.49,18,25c-0.07,14.4,46.71,11.92,48,4c1.14-7,4.46-27.72,4-31c2.58,3.65,10.26,18.56,11.08,21.16
		c1.09,3.48,3.05,19.15,3.48,30.04c0.44,10.88,2.62,27.2,2.62,27.2l4.13,25.25L149.69,213.45z"/>
	<g>
		<path d="M39.29,112.17c0.41-1.41,4.73-25.03,4.46-32.97c-0.28-7.92-0.28-7.92-0.28-7.92l7.51-0.83c0,0,0.14,23.92,2.64,27.8
			c2.5,3.91,9.61,8.91,21.28,7.94c11.68-0.97,16.96-4.6,18.92-8.22c1.94-3.6,4.59-16.42,4.59-20.71c0-4.32,0-7.79,0-7.79l7.1,3.76
			c0,0,0.55,9.74,0.83,16.82c0.29,7.1,1.95,17.81,3.34,20.86c1.39,3.06,3.07,23.92,2.23,32.96c-0.84,9.04,0.28,35.89,1.25,45.9
			c0.97,10.02,1.66,23.79,1.66,23.79s-8.62,3.6-19.33,4.72c-10.7,1.12-23.09,1.39-33.1-0.27c-10.01-1.67-23.64-6.41-23.64-6.41
			s0.97-20.57,2.51-29.89c1.53-9.33,1.11-24.34,0.83-34.5C41.79,137.06,39.29,112.17,39.29,112.17z"/>
		<path fill="#141414" d="M41.09,124.11c0,0,3.48,1.25,4.04,4.17c0.55,2.93,8.2,4.32,12.37,4.32c4.17,0,17.53,0,17.53,0
			s-11.27,3.6-13.5,3.6c-2.22,0-3.89,0-5.56,0.99c-1.68,0.97-2.37,1.1-4.87,1.1c-2.5,0-9.32,3.06-9.32,3.06
			S40.54,128.29,41.09,124.11z"/>
		<path fill="#141414" d="M42.07,144.98c0,0,0.21,12.88,0.21,14.69c0,1.8-0.07,12.79-0.42,15.85c-0.35,3.06-1.25,10.98-1.66,13.76
			c-0.42,2.78-0.84,11.48-1.12,15.99c-0.27,4.53-0.34,6.32-0.34,6.32l3.27,0.78c0,0-0.35-1.05-0.76-1.94
			c-0.42-0.9-0.97-2.16-0.63-2.71c0.35-0.57,1.11-1.54,1.32-1.54c0.21,0,0.28-0.9-0.14-1.39c-0.42-0.48-0.76-2.08-0.76-2.08
			l1.39-0.69c0,0-0.9-1.6-1.11-2.29c-0.21-0.69-0.49-2.85-0.21-2.71c0.28,0.14,6.33,5.7,6.88,6.19c0.55,0.48-5.42-7.93-5.42-7.93
			s10.92,8.35,12.8,10.22c1.87,1.88,5.21,3.68,2.57,0.49c-2.64-3.2-4.93-4.38-6.67-6.12c-1.74-1.75-4.58-4.45-5.14-5.01
			c-0.56-0.55-3.96-5.27-3.96-5.27l3.47,2.77l-1.81-3.4c0,0-0.48-3.62-0.21-3.62c0.28,0,3.62,1.12,3.62,1.12s-2.3-1.54-2.71-2.57
			c-0.42-1.05,0.21-1.47,1.04-1.05c0.83,0.42,2.5,2.02,2.16,0.36c-0.36-1.67-2.24-3.06-2.24-3.06s0.36-2.5,2.93-2.3
			c2.57,0.21,11.89,5.29,13.69,4.72c1.8-0.55-9.52-6.74-12.66-8.62c-3.12-1.88-4.02-3.47-4.02-3.47s1.39,1.39,3.11,1.45
			c1.75,0.08,0.78,0.28-1.45-2.5c-2.22-2.77,0.07-9.59,0.07-9.59s7.72,2.63,9.45,2.71c1.74,0.07-6.4-4.31-8.41-5.84
			c-2.03-1.54-2.99-3-2.3-2.78c0.7,0.21,8.35,0.97,17.11,1.52c8.76,0.56,12.85-0.69,12.85-0.69s-15.49-1.32-21.83-2.91
			c-6.32-1.6-9.46-4.66-9.46-4.66L42.07,144.98z"/>
		<path fill="#141414" d="M111.47,123.49c0,0,1.04,12.24,0.7,16.07c-0.36,3.82-0.56,14.46-0.56,18.57c0,4.1,0.97,18.42,0.97,20.86
			c0,2.42,1.46,16.12,1.52,19.68c0.08,3.54,1.68,14.39,1.05,14.67c-0.63,0.28-3.41,0-3.41-0.21c0-0.21,0.57-3.06,0.35-3.69
			c-0.21-0.62,0-2.5-5.78-2.57c-5.76-0.07-12.3-2.36-7.5-3.27c4.79-0.91,10.7-4.24,11.26-5.99c0.55-1.73-1.04,0.49-3.48,0.35
			c-2.43-0.14-0.07-1.05,1.32-3.76c1.4-2.71,2.71-8.05,2.78-9.94c0.07-1.88,0-4.03,0-4.03s-4.39,4.1-4.53,3.68
			c-0.14-0.42,0.14-0.7,2.15-2.15c2.03-1.46,1.6-2.44,1.33-2.36c-0.27,0.06-11.89,5.48-11.89,5.48s8.97-4.93,10.86-7.23
			c1.88-2.3,1.52-3.9,1.52-3.9s-6.59,5.56-7.43,5.98c-0.84,0.42,5.29-4.32,6.25-5.84c0.97-1.53,0.36-4.38,0.36-4.38l-10.37,4.11
			c0,0,4.87-2.78,7.23-4.38c2.36-1.6,4.39-4.45,4.39-4.45l-6.4,2.85c0,0,4.3-3.75,5.29-5.02c0.96-1.25,0.83-5.63,0.83-5.63
			s-12.17,6.4-18.22,6.95c-6.06,0.55-6.6-0.63-6.33-0.63c0.27,0,11.19-2.08,16.47-5.48c5.29-3.41,7.24-7.73,7.24-7.73
			s-6.89,4.73-8.07,4.73c-1.19,0,5.7-4.1,6.34-4.66c0.61-0.57,8.97-3.68-8.07-2.72c-17.04,0.97-24.82-0.42-24.82-0.42
			s-11.06-1.18-11.69-1.18c-0.61,0,19.89,1.33,27.96,0.36c8.07-0.99,15.72-3.41,15.72-3.41s-19.48-0.91-24.97-1.18
			c-5.49-0.29,10.36-2.57,13.49-3.2c3.13-0.63,4.79-2.36,8-5.5c3.2-3.12,3.48-5.14,4.44-6.47c0.97-1.31,3.69-3.12,3.69-3.12V123.49z
			"/>
		<path fill="#141414" d="M39.49,114.17v1.4c0,0,3.06,0.69,5.98-14.68c2.93-15.36,1.68-19.26,1.68-19.26s-1.11,15.43-3.49,22.74
			C41.3,111.67,39.49,114.17,39.49,114.17z"/>
		<path fill="#141414" d="M102.98,91.31c0,0-3.89,6.74,0.36,15.16c4.24,8.4,6.67,9.52,6.67,9.52s-1.32-2.09-4.17-7.44
			c-2.86-5.35-3.62-8.97-3.62-10.09C102.22,97.35,102.98,91.31,102.98,91.31z"/>
		<path fill="#141414" d="M100.55,79.55c0,0,0,12.3-2.78,18.21c-2.78,5.92-8.7,8.9-8.7,8.9s8.98-2.92,10.43-10.5
			C100.97,88.59,100.55,79.55,100.55,79.55z"/>
		<path fill="#141414" d="M47.91,76.56c0,0,1.45,17.53,3.82,22.8c2.36,5.29,4.17,8.07,11.34,9.25c7.16,1.18,16.84,0.77,16.84,0.77
			s-7.24-0.14-14.75-2.23c-7.5-2.08-11.33-4.66-12.52-8.2C51.46,95.4,47.91,76.56,47.91,76.56z"/>
	</g>
</g>
</svg>
