<?xml version="1.0" encoding="utf-8"?>
<!-- Generator: Adobe Illustrator 23.0.6, SVG Export Plug-In . SVG Version: 6.00 Build 0)  -->
<svg version="1.1" id="Capa_1" xmlns="http://www.w3.org/2000/svg" xmlns:xlink="http://www.w3.org/1999/xlink" x="0px" y="0px"
	 viewBox="0 0 152.79 186.83" style="enable-background:new 0 0 152.79 186.83;" xml:space="preserve">
<style type="text/css">
	.st0{fill:#F0AC80;}
	.st1{fill-rule:evenodd;clip-rule:evenodd;fill:#D68B62;}
	.st2{fill-rule:evenodd;clip-rule:evenodd;fill:#E8A073;}
	.st3{fill:#BFE9FF;}
	.st4{fill:#A8E1FF;}
	.st5{fill:#A3DEFF;}
	.st6{fill:#B0E3FF;}
	.st7{fill:#FF5955;}
	.st8{fill:#FF0000;}
	.st9{fill:#3A8A00;}
	.st10{fill:#417400;}
	.st11{fill:#4D4D4D;}
	.st12{fill:#333333;}
	.st13{fill:#1B1464;}
	.st14{fill:#271D91;}
	.st15{fill:#B2B2B2;stroke:#B2B2B2;stroke-width:0.25;}
	.st16{fill:#8C8C8C;stroke:#5A3D1C;stroke-width:0.25;}
	.st17{fill:#A6A6A6;}
	.st18{fill:#FFFFFF;stroke:#B2B2B2;stroke-width:0.25;}
	.st19{fill:#EBEBEB;}
	.st20{stroke:#000000;stroke-width:0.25;}
	.st21{fill:#8C8C8C;stroke:#003642;stroke-width:0.25;}
	.st22{fill:#7A7A7A;}
	.st23{fill:#666666;stroke:#666666;stroke-width:0.25;}
	.st24{fill:#141414;}
	.st25{fill:#FFFFFF;stroke:#B2B2B2;}
	.st26{fill:#EDEDED;}
	.st27{fill:#694721;}
	.st28{fill:#5A3D1C;}
	.st29{fill:#006631;}
	.st30{fill:#00592B;}
	.st31{fill:#035B73;stroke:#003642;stroke-width:0.25;}
	.st32{fill:#02495C;stroke:#003642;stroke-width:0.25;}
	.st33{fill:#02495C;}
	.st34{fill:#820000;stroke:#730000;}
	.st35{fill:#5C0000;stroke:#5A3D1C;stroke-width:0.25;}
	.st36{fill:#780000;}
	.st37{fill:#006B33;stroke:#003642;stroke-width:0.25;}
	.st38{fill:#00592B;stroke:#003642;stroke-width:0.25;}
	.st39{fill:#DB8C3D;stroke:#003642;stroke-width:0.25;}
	.st40{fill:#C2803D;}
	.st41{fill:#DB6D00;stroke:#003642;stroke-width:0.25;}
	.st42{fill:#3F3F3F;stroke:#3F3F3F;stroke-width:0.25;}
	.st43{stroke:#3F3F3F;stroke-width:0.25;}
	.st44{fill:#262626;}
	.st45{fill:#5A3D1C;stroke:#003642;stroke-width:0.25;}
	.st46{fill:#52361A;}
	.st47{fill:#422C15;stroke:#003642;stroke-width:0.25;}
	.st48{fill:#FFFFFF;stroke:#E8E8E8;}
	.st49{fill:#E3E3E3;}
	.st50{fill:#B2B2B2;}
	.st51{fill:#FFBF00;}
	.st52{fill:#F5B700;}
	.st53{fill:#EBAF00;stroke:#D19D00;stroke-width:0.25;}
	.st54{fill:#D010B1;}
	.st55{fill:#A60D8C;}
	.st56{fill:#00A33D;}
	.st57{fill:#008033;}
	.st58{fill:#00D4FF;}
	.st59{fill:#00ABFF;}
	.st60{fill:#0A0A0A;stroke:#000000;}
	.st61{fill:#666666;stroke:#000000;stroke-width:0.25;}
	.st62{stroke:#000000;}
	.st63{fill:#00B800;}
	.st64{fill:#009C00;}
	.st65{fill:#3F3F3F;}
	.st66{fill:#73A334;stroke:#8CC63F;stroke-width:0.1;}
	.st67{fill:#8CC63F;stroke:#8CC63F;stroke-width:0.1;}
	.st68{fill:#545454;}
	.st69{fill:#7558A4;}
	.st70{fill:#7536D1;}
	.st71{fill:#E2BB95;stroke:#D5AF8C;}
	.st72{fill:#D5AF8C;}
	.st73{fill:#E2BB95;stroke:#D5AF8C;stroke-width:0.5;}
	.st74{fill:#9E2231;}
	.st75{fill:#B72837;}
	.st76{fill:#FFE085;}
	.st77{fill:#EBCE7A;}
	.st78{fill:url(#SVGID_1_);}
	.st79{fill:url(#SVGID_2_);}
	.st80{fill:url(#SVGID_3_);}
	.st81{fill:#D00204;}
	.st82{fill:#D10507;}
	.st83{fill:#D3090B;}
	.st84{fill:#D40C0E;}
	.st85{fill:#D51012;}
	.st86{fill:#D71315;}
	.st87{fill:#D81718;}
	.st88{fill:#D91A1C;}
	.st89{fill:#DB1E1F;}
	.st90{fill:#DC2122;}
	.st91{fill:#DD2526;}
	.st92{fill:#DF2829;}
	.st93{fill:#E02C2D;}
	.st94{fill:#E22F30;}
	.st95{fill:#E33333;}
	.st96{fill:#E43637;}
	.st97{fill:#E63A3A;}
	.st98{fill:#E73D3E;}
	.st99{fill:#E84141;}
	.st100{fill:#EA4444;}
	.st101{fill:#EB4848;}
	.st102{fill:#EC4B4B;}
	.st103{fill:#EE4F4E;}
	.st104{fill:#EF5252;}
	.st105{fill:#F05655;}
	.st106{fill:#F25A59;}
	.st107{fill:#F35D5C;}
	.st108{fill:#047A04;}
	.st109{fill:#57B328;}
	.st110{fill:#507F29;}
	.st111{fill:#DDBB06;}
	.st112{fill:#A80000;}
	.st113{fill:#9E0000;}
	.st114{fill:#8F0000;stroke:#610000;stroke-width:0.25;}
	.st115{fill:#5A3D1C;stroke:#805426;}
	.st116{fill:#63421F;}
	.st117{fill:#5A3D1C;stroke:#6B4620;}
	.st118{fill:url(#SVGID_4_);}
	.st119{fill:#171717;stroke:#000000;}
	.st120{fill:#212121;}
	.st121{fill:url(#SVGID_5_);}
	.st122{fill:#3F3F3F;stroke:#3F3F3F;}
	.st123{fill:#8C8C8C;stroke:#3F3F3F;}
	.st124{fill:#808080;}
	.st125{fill:url(#SVGID_6_);}
	.st126{fill:none;}
	.st127{fill:#D4D4D4;}
	.st128{fill:#D4D4D4;stroke:#B8B8B8;stroke-width:0.5;}
	.st129{fill:#D4D4D4;stroke:#B8B8B8;stroke-width:0.2;}
	.st130{fill:#C7C7C7;}
	.st131{fill:#DBF8FF;stroke:#7DBDCC;stroke-width:0.25;}
	.st132{fill:#C2F3FF;}
	.st133{fill:#F2F2F2;}
	.st134{fill:url(#SVGID_7_);stroke:#000000;}
	.st135{fill:#42210B;stroke:#000000;}
	.st136{fill:#C69C6D;stroke:#000000;}
	.st137{fill:#93278F;stroke:#000000;}
	.st138{fill:#589F3E;}
	.st139{fill:#4D8F39;}
	.st140{fill:#963528;}
	.st141{fill:#AC3A2D;}
	.st142{fill:#211915;}
	.st143{fill:#444242;}
	.st144{fill:#1A1A1A;}
	.st145{fill:#FFFFFF;}
	.st146{fill:#2E2E2E;}
	.st147{fill:#363636;}
	.st148{fill:#666666;}
	.st149{fill:#C69C6D;}
	.st150{fill:#B38D62;}
	.st151{fill:#A67C52;}
	.st152{fill:#8C6239;}
	.st153{fill:#9E10D2;}
	.st154{fill:#8210D2;}
	.st155{fill:#6B6B6B;}
	.st156{fill:#008C08;}
	.st157{fill:#00A308;}
	.st158{fill:#EC2024;}
	.st159{fill:#E31E26;}
	.st160{fill:#BED63A;}
	.st161{fill:#EC1C24;}
	.st162{fill:#00ADEE;}
	.st163{fill:#2E3191;}
</style>
<g>
	<g>
		<path class="st0" d="M111.71,76.12c-3.81-1.97-9.05-4.3-9.57-5.18c-2.22-3.76-2.21-13.48-1.8-17.48h-1.01H67.58h-1.01
			c0.4,4,0.92,13.87-1.54,17.48c-0.39,0.58-6.05,3.17-9.83,5.18c-3.14,1.66-11.71,6.88-12.87,7.31c0.3,0.39,4.09,11.7,8.1,17.76
			c1.84,2.78,2.7,5.47,5.05,7.78c2.43,2.38,5.21,4.34,8.26,5.68c3.67,1.61,7.6,2.4,11.55,2.64c2.7,0.17,5.44,0.14,8.16-0.08
			c2.72,0.23,5.46,0.25,8.16,0.08c3.95-0.25,7.88-1.03,11.55-2.64c3.05-1.34,5.83-3.3,8.26-5.68c2.36-2.31,3.12-5,4.97-7.78
			c4.01-6.06-1.08-11.34-0.78-11.73C114.43,89.07,114.69,77.67,111.71,76.12z"/>
		<g>
			<path class="st0" d="M105.62,97.46c-0.11-0.09,10.11-2.91,10-3c-4.13-3.44-1.13-4.56-5-6c-4.08-1.52-9.05-2.17-24.73-2.15
				c-0.04,0-1.38,0.03-2.27,0.05c-0.89-0.02-2.23-0.05-2.27-0.05c-15.69-0.01-27.57-9.43-27.57-9.43s-8.39,4.41-12.48,5.94
				C37.44,84.25,110.84,104.26,105.62,97.46z"/>
		</g>
		<path class="st0" d="M106.12,33.91c0,0-0.19-11.41-0.31-16.03c-0.13-4.99-0.38-12.68-14.64-17.05c-0.8-0.25-4.33-0.84-7.76-0.83
			c-3.21,0.01-6.33,0.6-7.08,0.83c-3.78,1.16-6.57,2.9-9.35,5.38c-3.8,3.38-5.33,6.68-5.45,11.67C61.4,22.5,61.3,33.91,61.3,33.91
			c-4.37-3.68-4.41,0.8-4.2,3.23c0.29,3.3,1.29,5.77,2.3,7.83c0.67,1.37,1.38,3.34,3.37,3.42c0.75,0.03,1.24-0.55,1.24-0.55
			s0.32,4.75,0.5,6.06c0.51,3.9,9.13,14.86,13.98,15.83c1.47,0.29,9.06,0.3,10.43,0.04c4.79-0.93,13.64-11.86,14.16-15.87
			c0.17-1.31,0.49-6.06,0.49-6.06s0.49,0.58,1.24,0.55c1.99-0.08,2.47-2.05,3.14-3.42c1.01-2.05,2.38-5.21,2.46-8.53
			C110.46,34.06,110.5,30.23,106.12,33.91z"/>
		<g>
			<g>
				<path class="st1" d="M61.95,41.31c0.11-0.01-0.87-3.58-1.45-5c-0.63-1.54-1.27-1.87-1.66-1.85c-0.74,0.04-1,3.47-1,3.47
					s0.54-3.68,2.2-0.72C60.49,38.03,61.82,41.32,61.95,41.31z"/>
				<path class="st1" d="M59.35,37.83c0.05-0.24,0.3-1.65,0.5-1.66c0.24-0.01,0.24,1.01,0.19,1.17c-0.16,0.5-0.32,1-0.43,1.54
					c-0.11,0.56-0.12,1.1-0.11,1.68c0.01,0.51,0.12,1.11,0.22,1.6c-0.39-0.38-0.49-1.9-0.5-2.47C59.2,38.71,59.24,38.39,59.35,37.83
					z"/>
				<path class="st2" d="M62.31,44.18c-0.03-0.09-0.56-1.27-0.6-1.36c-0.38-0.87,0.43,0.25,0.51,0.35c0.4,0.56,0.69,0.87,0.97,1.35
					c0.24,0.41,0.12,1.04-0.43,1.1c-0.46,0.05-1.04-0.39-1.23-1.04C61.49,44.49,62.72,45.31,62.31,44.18z"/>
			</g>
			<g>
				<path class="st1" d="M105.57,41.31c-0.11-0.01,0.87-3.58,1.45-5c0.63-1.54,1.27-1.88,1.66-1.85c0.74,0.04,1,3.47,1,3.47
					s-0.54-3.68-2.2-0.73C107.03,38.03,105.7,41.32,105.57,41.31z"/>
				<path class="st1" d="M108.17,37.83c-0.05-0.24-0.3-1.65-0.5-1.66c-0.24-0.01-0.24,1.01-0.19,1.17c0.16,0.5,0.32,1,0.43,1.54
					c0.11,0.56,0.12,1.1,0.11,1.68c-0.01,0.51-0.12,1.11-0.22,1.6c0.39-0.38,0.49-1.9,0.5-2.47
					C108.32,38.71,108.28,38.39,108.17,37.83z"/>
				<path class="st2" d="M105.21,44.18c0.03-0.09,0.56-1.27,0.6-1.36c0.38-0.87-0.43,0.25-0.51,0.35c-0.4,0.56-0.69,0.87-0.97,1.35
					c-0.24,0.41-0.12,1.04,0.43,1.1c0.46,0.05,1.04-0.39,1.24-1.04C106.02,44.49,104.8,45.31,105.21,44.18z"/>
			</g>
		</g>
	</g>
	<g>
		<path class="st65" d="M146.08,186.64c0.38-5.19,1.64-10.63,1.53-15.37c-0.18-8.48-1.35-17.57-3.06-25.72
			c-1.61-7.66-4.42-14.85-6.4-22.04c-2.86-10.43-5.99-22.56-10.35-32.09c-3.78-8.24-5.14-11.6-12.81-15.02
			c-2.5-1.14-8.06-4.16-10.06-3.69c-1.21,0.28-2.99,3.57-4.26,5.01c-4.93,5.51-9.48,9.94-15.24,13.36
			c-6.71-3.03-11.02-8.88-15.86-14.04c-2.58-2.77-5.35-7.5-7.91-7.01c-4.54,0.84-11.96,1.99-15.85,4.33
			c-4.31,2.61-8.02,10.28-10.97,15.72c-3.42,6.27-6.37,12.49-8.84,18.38C19,125.12,9.74,143,7.41,163.58
			c-1.4,12.56-3.28,27.78-1.53,40.45c4.58-0.16,10.06,0.23,14.63,0.31c1.39-2.83,2.17-7.24,1.83-10.35
			c-0.26-2.53-2.39-4.88-2.73-7.03c-1.07-6.39,1.39-10.74,2.73-15.36c2.85-9.86,3.23-21.5,7.31-30.08
			c3.96-8.29,9.25-15.84,14.03-22.72c1.67-2.42,2.53-5.88,5.17-7.02c4.42,9.37,0.8,22.62,1.53,34.09
			c-3.92,8.32-3.31,18.09-7.02,26.4c-1.36,3.03-5.05,9.34-3.34,13.36c1.34,3.17,13.16,5.91,17.37,6.67
			c7.97,1.45,14.47,1.8,21.94,2.35c6.57,0.47,12.66-0.16,19.51-1.01c7.39-0.92,16.91-1.95,18.29-7.67
			c0.56-6.61-2.75-12.25-3.36-18.72c-0.17-1.84,0.27-3.77,0-5.68c-0.38-2.93-2.17-5.49-2.75-8.36c-0.24-1.37-0.02-3.06-0.29-4.68
			c-0.23-1.45-1.2-2.76-1.22-4.01c-0.03-1.53,0.86-3.31,0.91-5.01c0.1-3.33-1.36-6.9-1.22-10.03c0.09-1.83,2.37-11.78,4.27-12.02
			c1.93-0.22,3.04,3.76,4.27,6.34c3.71,7.78,8.27,15.17,10.36,22.4c1.74,5.99,2.05,12.43,3.06,19.37c0.99,6.89,2.5,14.53,2.15,20.4
			c-0.28,3.95-1.65,8.59-2.46,12.69c-0.89,4.49-1.46,8.97-1.82,13.7c3.84,1.99,10.11,4.59,15.24,2.99
			C147.49,207.75,145.33,196.82,146.08,186.64z M59.5,138.94c0.61,3.08,1.95,8.14,2.19,8.95c0.25,0.79-2.3-1.48-3.03-3.21
			c-0.74-1.73-1.7-2.12-1.7-2.12s-1.84,4.12,0.6,7.71c2.43,3.61,5.71,5.87,5.71,5.87s-4.49-2.52-8.64-1.19
			c-4.12,1.31-4.12,5.99-3.27,6.66c0.84,0.67,8.75,1.73,8.75,1.73s-8.75,1.06-9.5,1.06c-0.71,0-4.37,1.34-1.2,5.21
			c3.15,3.86,4.61,4.12,4.61,4.12s-0.73,0.42-4.74,0.27c-4-0.12-4.49,3.87-4.25,6.01c0.26,2.13,2.2,5.86,6.09,6.67
			c3.89,0.79-2.32,2.38-2.32,2.38s-5.71-2.65-7.3-4.12c-1.58-1.47-1.33-2.81,0.98-7.07c2.31-4.25,2.44-7.99,3.76-11.07
			c1.34-3.07,1.47-13.18,3.9-16.79c2.42-3.61,2.55-9.6,2.55-13.6c0-3.99,0.61-16.78,0.61-16.78s0.48,10.39,4.5,12.39
			c4.01,1.99,6.7,2.93,6.7,2.93s-4.75-0.14-6.7-2.27C55.85,130.56,58.89,135.89,59.5,138.94z M72.51,88.82
			c-5.34-5.46-7.78-11.6-7.78-11.6l2.18,1.07c0,0,13.5,13.6,16.9,14.26c3.4,0.66,11.43-6.01,14.83-9.07
			c3.41-3.08,6.09-5.99,6.09-5.99S94.16,93.49,88.82,95.49C83.46,97.49,77.87,94.28,72.51,88.82z M111.06,174.81
			c3.52,11.2,2.79,13.06-0.25,14.54c-3.04,1.46-8.51,1.72-9.12,1.6c-0.61-0.15,5.59-1.22,6.69-1.49c1.08-0.27-2.07-2.78-5.1-3.2
			c-3.05-0.4,4.85-1.59,4.98-3.85c0.12-2.27,0.73-5.6-0.36-8.53c-1.1-2.93-4.02,3.06-6.7,3.32c-2.67,0.27,1.21-2.93,2.55-6.8
			c1.34-3.86,1.71-7.34,0.5-11.2c-1.21-3.87-4,2.66-4.25,3.07c-0.26,0.39,1.81-4.81,2.31-8.94c0.48-4.12,1.7-12.12,1.7-12.53
			c0-0.41-4.27,3.07-7.54,3.86c-3.28,0.81,4.13-2.8,5.1-5.33c0.98-2.53,1.96-6.15-1.21-5.33c-3.18,0.8-8.27,0.66-9.24-0.4
			c-0.98-1.07,8.26,0.4,9.84-1.87c1.59-2.27,7.42-8.54,7.42-8.54s-4.5,8.15-3.64,14.15c0.84,6,1.09,8.26,3.16,17.87
			C109.96,164.81,107.52,163.62,111.06,174.81z"/>
		<path class="st12" d="M57.79,132.69c1.95,2.13,6.7,2.27,6.7,2.27s-2.69-0.94-6.7-2.93c-4.02-2-4.5-12.39-4.5-12.39
			s-0.61,12.8-0.61,16.78c0,4-0.13,9.99-2.55,13.6c-2.43,3.61-2.56,13.72-3.9,16.79c-1.32,3.08-1.45,6.81-3.76,11.07
			c-2.31,4.26-2.56,5.6-0.98,7.07c1.58,1.47,7.3,4.12,7.3,4.12s6.2-1.59,2.32-2.38c-3.89-0.81-5.83-4.54-6.09-6.67
			c-0.24-2.14,0.26-6.12,4.25-6.01c4.01,0.15,4.74-0.27,4.74-0.27s-1.46-0.26-4.61-4.12c-3.17-3.87,0.49-5.21,1.2-5.21
			c0.75,0,9.5-1.06,9.5-1.06s-7.91-1.06-8.75-1.73c-0.85-0.66-0.85-5.34,3.27-6.66c4.14-1.33,8.64,1.19,8.64,1.19
			s-3.28-2.27-5.71-5.87c-2.43-3.59-0.6-7.71-0.6-7.71s0.96,0.39,1.7,2.12c0.73,1.73,3.28,4,3.03,3.21
			c-0.24-0.8-1.57-5.87-2.19-8.95C58.89,135.89,55.85,130.56,57.79,132.69z"/>
		<path class="st12" d="M104.74,137.35c-0.86-5.99,3.64-14.15,3.64-14.15s-5.84,6.27-7.42,8.54c-1.58,2.28-10.82,0.8-9.84,1.87
			c0.97,1.06,6.06,1.19,9.24,0.4c3.17-0.82,2.19,2.8,1.21,5.33c-0.97,2.53-8.38,6.14-5.1,5.33c3.28-0.79,7.54-4.27,7.54-3.86
			c0,0.41-1.22,8.41-1.7,12.53c-0.5,4.13-2.57,9.33-2.31,8.94c0.25-0.41,3.04-6.94,4.25-3.07c1.22,3.86,0.85,7.33-0.5,11.2
			c-1.34,3.87-5.21,7.07-2.55,6.8c2.68-0.27,5.6-6.26,6.7-3.32c1.09,2.93,0.48,6.26,0.36,8.53c-0.13,2.26-8.03,3.46-4.98,3.85
			c3.03,0.41,6.19,2.93,5.1,3.2c-1.09,0.27-7.29,1.34-6.69,1.49c0.61,0.12,6.07-0.15,9.12-1.6c3.04-1.49,3.77-3.35,0.25-14.54
			c-3.54-11.19-1.1-9.99-3.16-19.58C105.83,145.61,105.58,143.35,104.74,137.35z"/>
		<path class="st12" d="M104.74,77.5c0,0-2.68,2.91-6.09,5.99c-3.4,3.06-11.43,9.73-14.83,9.07c-3.4-0.66-16.9-14.26-16.9-14.26
			l-2.18-1.07c0,0,2.43,6.13,7.78,11.6c5.36,5.46,10.94,8.67,16.31,6.67C94.16,93.49,104.74,77.5,104.74,77.5z"/>
	</g>
</g>
</svg>
