<?xml version="1.0" encoding="utf-8"?>
<!-- Generator: Adobe Illustrator 23.0.6, SVG Export Plug-In . SVG Version: 6.00 Build 0)  -->
<svg version="1.1" id="Capa_1" xmlns="http://www.w3.org/2000/svg" xmlns:xlink="http://www.w3.org/1999/xlink" x="0px" y="0px"
	 viewBox="0 0 152.79 186.83" enable-background="new 0 0 152.79 186.83" xml:space="preserve">
<g>
	<g>
		<path fill="#F0AC80" d="M100.67,76.12c-3.81-1.97-9.05-4.3-9.57-5.18c-2.22-3.76-2.21-13.48-1.8-17.48h-1.01H56.54h-1.01
			c0.4,4,0.92,13.87-1.54,17.48c-0.39,0.58-6.05,3.17-9.83,5.18c-3.14,1.66-11.71,6.88-12.87,7.31c0.3,0.39,4.09,11.7,8.1,17.76
			c1.84,2.78,2.7,5.47,5.05,7.78c2.43,2.38,5.21,4.34,8.26,5.68c3.67,1.61,7.6,2.4,11.55,2.64c2.7,0.17,5.44,0.14,8.16-0.08
			c2.72,0.23,5.46,0.25,8.16,0.08c3.95-0.25,7.88-1.03,11.55-2.64c3.05-1.34,5.83-3.3,8.26-5.68c2.36-2.31,3.12-5,4.97-7.78
			c4.01-6.06,8.39-17.43,8.69-17.82C112.87,82.98,103.66,77.67,100.67,76.12z"/>
		<path fill="#F0AC80" d="M95.08,33.91c0,0-0.19-11.41-0.31-16.03c-0.13-4.99-0.38-12.68-14.64-17.05C79.33,0.58,75.8-0.01,72.37,0
			c-3.21,0.01-6.33,0.6-7.08,0.83c-3.78,1.16-6.57,2.9-9.35,5.38c-3.8,3.38-5.33,6.68-5.45,11.67c-0.12,4.62-0.23,16.03-0.23,16.03
			c-4.37-3.68-4.41,0.8-4.2,3.23c0.29,3.3,1.29,5.77,2.3,7.83c0.67,1.37,1.38,3.34,3.37,3.42c0.75,0.03,1.24-0.55,1.24-0.55
			s0.32,4.75,0.5,6.06c0.51,3.9,9.13,14.86,13.98,15.83c1.47,0.29,9.06,0.3,10.43,0.04c4.79-0.93,13.64-11.86,14.16-15.87
			c0.17-1.31,0.49-6.06,0.49-6.06s0.49,0.58,1.24,0.55c1.99-0.08,2.47-2.05,3.14-3.42c1.01-2.05,2.38-5.21,2.46-8.53
			C99.42,34.06,99.46,30.23,95.08,33.91z"/>
		<g>
			<g>
				<path fill-rule="evenodd" clip-rule="evenodd" fill="#D68B62" d="M50.91,41.31c0.11-0.01-0.87-3.58-1.45-5
					c-0.63-1.54-1.27-1.87-1.66-1.85c-0.74,0.04-1,3.47-1,3.47s0.54-3.68,2.2-0.72C49.45,38.03,50.78,41.32,50.91,41.31z"/>
				<path fill-rule="evenodd" clip-rule="evenodd" fill="#D68B62" d="M48.31,37.83c0.05-0.24,0.3-1.65,0.5-1.66
					c0.24-0.01,0.24,1.01,0.19,1.17c-0.16,0.5-0.32,1-0.43,1.54c-0.11,0.56-0.12,1.1-0.11,1.68c0.01,0.51,0.12,1.11,0.22,1.6
					c-0.39-0.38-0.49-1.9-0.5-2.47C48.16,38.71,48.2,38.39,48.31,37.83z"/>
				<path fill-rule="evenodd" clip-rule="evenodd" fill="#E8A073" d="M51.27,44.18c-0.03-0.09-0.56-1.27-0.6-1.36
					c-0.38-0.87,0.43,0.25,0.51,0.35c0.4,0.56,0.69,0.87,0.97,1.35c0.24,0.41,0.12,1.04-0.43,1.1c-0.46,0.05-1.04-0.39-1.23-1.04
					C50.46,44.49,51.68,45.31,51.27,44.18z"/>
			</g>
			<g>
				<path fill-rule="evenodd" clip-rule="evenodd" fill="#D68B62" d="M94.53,41.31c-0.11-0.01,0.87-3.58,1.45-5
					c0.63-1.54,1.27-1.88,1.66-1.85c0.74,0.04,1,3.47,1,3.47s-0.54-3.68-2.2-0.73C95.99,38.03,94.66,41.32,94.53,41.31z"/>
				<path fill-rule="evenodd" clip-rule="evenodd" fill="#D68B62" d="M97.13,37.83c-0.05-0.24-0.3-1.65-0.5-1.66
					c-0.24-0.01-0.24,1.01-0.19,1.17c0.16,0.5,0.32,1,0.43,1.54c0.11,0.56,0.12,1.1,0.11,1.68c-0.01,0.51-0.12,1.11-0.22,1.6
					c0.39-0.38,0.49-1.9,0.5-2.47C97.28,38.71,97.24,38.39,97.13,37.83z"/>
				<path fill-rule="evenodd" clip-rule="evenodd" fill="#E8A073" d="M94.17,44.18c0.03-0.09,0.56-1.27,0.6-1.36
					c0.38-0.87-0.43,0.25-0.51,0.35c-0.4,0.56-0.69,0.87-0.97,1.35c-0.24,0.41-0.12,1.04,0.43,1.1c0.46,0.05,1.04-0.39,1.24-1.04
					C94.98,44.49,93.76,45.31,94.17,44.18z"/>
			</g>
		</g>
	</g>
	<g>
		<path fill="#F0AC80" d="M38.61,78.8c-2.31,0.86-6.41,7.06-7.15,7.8c-0.02,0.02,0.07-0.14,0,0c-2.78,5.95-0.89-8.13-8.89,23.87
			c-3,12-4.6,26.11-5.1,34.56c-0.49,8.46-1.78,22.07-1.93,31.88c-0.07,4.25-0.75,11.59-0.75,11.59l14.82,0.93
			c0,0,0.76-4.14,0.98-7.98c0.33-5.75,3.39-35.45,4.12-40.93c1.12-8.51,2.02-26.27,2.02-26.27S40.11,78.23,38.61,78.8z"/>
	</g>
	<g>
		<path fill="#F0AC80" d="M114.18,81.8c2.31,0.86,6.41,7.06,7.15,7.8c0.02,0.02-0.07-0.14,0,0c2.78,5.95,0.89-8.13,8.89,23.87
			c3,12,4.6,26.11,5.1,34.56c0.49,8.46,1.78,22.07,1.93,31.88c0.07,4.25,0.75,11.59,0.75,11.59l-14.82,0.93c0,0-0.76-4.14-0.98-7.98
			c-0.33-5.75-3.39-35.45-4.12-40.93c-1.12-8.51-2.02-26.27-2.02-26.27S112.68,81.23,114.18,81.8z"/>
	</g>
	<g>
		<path fill="#1A1A1A" d="M110.33,173.99c-2.2-5.42-4.69-16.99-4.69-19.48c0-2.49,4.69-21.96,5.72-28.25
			c1.02-6.3,2.35-17.58,2.35-17.58h0.73c0,0,1.17-1.02,2.49-2.64c1.32-1.6,8.93-11.41,8.93-11.41s-0.63-5.03-3.95-7.76
			c-3.31-2.73-14.06-12.1-17.57-13.47c-3.51-1.36-7.81-2.14-7.81-2.14l-0.68,0.39c0,0-3.23,14.94-3.81,18.74
			c-0.59,3.81-4.54,7.03-9.95,8.2c-5.42,1.17-9.91,1.5-13.28,0.77c-3.37-0.73-9.85-4.44-11.76-6.2c-1.9-1.75-7.76-18.3-7.76-18.3
			s0.47-1.41-0.19-1.26c-5.27,1.17-15.03,7.41-18.93,11.13c-3.9,3.71-5.67,17.37-4.1,19.72c1.55,2.34,8.2,6.83,8.2,6.83l1.17-0.39
			c0,0,4.2,18.6,5.22,24.02c1.03,5.42,6.44,15.37,8.2,19.47c1.76,4.1-0.88,8.93-2.79,14.21c-1.9,5.26-3.95,9.37-4.83,13.32
			c-0.16,0.71-0.48,2.09-0.91,3.91c-1.94,8.24,75.04,6.73,73.82,1.19C112.9,181.44,111.43,176.7,110.33,173.99z"/>
		<path fill="#FFFFFF" d="M55.57,97.7c0,0,2.34,18.16,3.66,23.72c1.32,5.57,6.74,21.82,12.73,23.73c6,1.9,9.96,1.46,11.43,0
			c1.46-1.47,3.51-5.27,4.24-10.1c0.73-4.84,0.58-9.67,2.2-19.33c1.6-9.67,1.9-19.48,1.9-20.94c0-1.46,0.29-4.39,0.29-4.39
			s-2.04,4.2-3.51,5.17c-1.47,0.98-3.41,1.96-5.66,2.25c-2.25,0.29-4.98,1.46-9.86,0.89c-4.88-0.59-7.91-1.86-9.86-2.93
			c-1.95-1.08-8.2-5.96-8.2-5.96L55.57,97.7z"/>
		<path fill="#2E2E2E" d="M51.76,104.44c0,0-0.27,17.16,0.13,21.47c0.41,4.32-0.27,8.29,3.14,13.44
			c3.42,5.17,10.54,11.39,13.54,12.12c3.01,0.72,1.37,1.92,8.62,2.16c7.25,0.24,10.66-1.8,14.76-6.72c4.1-4.91,6.29-8.27,7.79-12.23
			c1.51-3.97,1.64-8.89,1.64-8.89s-5.88,13.92-8.89,18.11c-3.01,4.21-6.57,6.37-8.07,6.73c-1.5,0.36,5.61-5.76,8.07-9.84
			c2.46-4.08,2.87-6.25,2.87-6.25s-3.42,5.64-5.61,7.93c-2.19,2.28-3.56,3.71-3.56,3.71s2.73-5.03,4.38-8.64
			c1.63-3.6,2.45-9.36,2.59-10.8c0.14-1.44,0.14-1.44,0.14-1.44s-0.69,3.72-2.05,5.75c-1.37,2.04-2.05,7.68-3.01,9.25
			c-0.96,1.56-3.7,9.48-4.92,9.6c-1.23,0.12-2.59,0.37-3.97,0.37c-1.36,0-6.29-1.32-9.3-3.6c-3.01-2.28-6.43-7.81-6.57-8.16
			c-0.14-0.36,0.41,3.12,1.1,4.07c0.68,0.97,2.86,3.48,2.86,3.48s-3.96-2.65-5.05-6.36C61.33,136,58.18,130,58.18,130
			s0.55,7.32,1.78,9.12c1.24,1.8-4.51-6.36-4.65-9.84c-0.14-3.48-0.14-12.24-0.14-12.24s-1.1,4.92-1.23,7.08
			c-0.13,2.17-0.55-5.88-0.55-8.16C53.4,113.68,51.76,104.44,51.76,104.44z"/>
		<path fill="#363636" d="M47.37,153.64c0,0,7.46,3.8,12.88,5.12c5.42,1.31,10.98,2.34,21.23,2.34c10.25,0,19.92-1.76,22.56-3.37
			c2.63-1.61,2.63-2.2,2.63-2.2s-0.44,7.91,0.87,9.81c1.32,1.91,2.05,3.96,2.05,3.96s-1.76,2.05-4.98,2.93
			c-3.22,0.87-15.38,1.6-21.08,1.6c-5.71,0-23.14-0.43-29.58-1.9c-6.44-1.47-8.63-3.22-8.63-3.22s2.49-4.25,2.49-5.57
			C47.81,161.83,47.37,153.64,47.37,153.64z"/>
		<polygon fill="#666666" points="76.81,156.85 80.19,163.72 87.77,164.83 82.29,170.17 83.58,177.72 76.81,174.16 70.02,177.72 
			71.31,170.17 65.83,164.83 73.41,163.72 		"/>
	</g>
</g>
</svg>
