<?xml version="1.0" encoding="utf-8"?>
<!-- Generator: Adobe Illustrator 23.0.6, SVG Export Plug-In . SVG Version: 6.00 Build 0)  -->
<svg version="1.1" id="Capa_1" xmlns="http://www.w3.org/2000/svg" xmlns:xlink="http://www.w3.org/1999/xlink" x="0px" y="0px"
	 viewBox="0 0 152.79 186.83" enable-background="new 0 0 152.79 186.83" xml:space="preserve">
<g>
	<g>
		<path fill="#F0AC80" d="M99.92,75.93c-3.81-1.96-9.07-4.26-9.59-5.14c-2.24-3.75-2.27-13.47-1.88-17.47l-1.01,0l-31.74,0.14
			l-1.01,0c0.42,4,0.98,13.87-1.46,17.49c-0.39,0.58-6.03,3.2-9.81,5.22c-3.13,1.68-11.68,6.93-12.84,7.37
			c0.3,0.39,4.14,11.68,8.18,17.72c1.86,2.78,2.72,5.46,5.09,7.76c2.44,2.37,5.23,4.31,8.29,5.64c3.67,1.6,7.62,2.36,11.56,2.59
			c2.7,0.16,5.44,0.12,8.16-0.12c2.72,0.22,5.46,0.23,8.16,0.05c3.94-0.26,7.88-1.06,11.54-2.69c3.05-1.36,5.82-3.32,8.24-5.72
			c2.35-2.32,3.1-5.01,4.93-7.8c3.98-6.07,8.32-17.47,8.62-17.86C112.15,82.74,102.91,77.46,99.92,75.93z"/>
		<g>
			<path fill="#F0AC80" d="M129.72,93.49c-0.11-0.09-1.18-1.48-1.29-1.57c-4.14-3.43-13.2-8.25-17.08-9.67
				c-4.09-1.5-21.53,3.9-37.22,3.98c-0.04,0-1.38,0.04-2.26,0.06c-0.89-0.02-2.23-0.04-2.27-0.04C53.92,86.31,42,76.94,42,76.94
				s-8.37,4.45-12.45,5.99C25.69,84.39,134.97,100.26,129.72,93.49z"/>
		</g>
		<path fill="#F0AC80" d="M94.15,33.75c0,0-0.24-11.41-0.38-16.03c-0.15-4.99-0.44-12.67-14.72-16.99c-0.8-0.24-4.33-0.82-7.77-0.8
			c-3.21,0.02-6.33,0.63-7.08,0.86c-3.77,1.18-6.55,2.93-9.33,5.43c-3.78,3.4-5.3,6.7-5.4,11.69c-0.1,4.62-0.16,16.03-0.16,16.03
			c-4.39-3.66-4.41,0.82-4.18,3.25c0.31,3.3,1.32,5.77,2.34,7.82c0.68,1.36,1.39,3.33,3.39,3.4c0.75,0.03,1.23-0.56,1.23-0.56
			s0.34,4.75,0.52,6.06c0.52,3.9,9.19,14.82,14.05,15.77c1.47,0.29,9.06,0.26,10.43-0.01c4.79-0.95,13.59-11.92,14.09-15.93
			c0.16-1.31,0.47-6.06,0.47-6.06s0.49,0.58,1.24,0.55c1.99-0.09,2.46-2.06,3.12-3.43c1-2.06,2.35-5.22,2.42-8.54
			C98.49,33.87,98.5,30.04,94.15,33.75z"/>
		<g>
			<g>
				<path fill-rule="evenodd" clip-rule="evenodd" fill="#D68B62" d="M50.01,41.34c0.11-0.01-0.89-3.58-1.48-4.99
					c-0.64-1.53-1.28-1.87-1.67-1.84c-0.74,0.05-0.99,3.47-0.99,3.47s0.53-3.68,2.19-0.73C48.53,38.07,49.87,41.35,50.01,41.34z"/>
				<path fill-rule="evenodd" clip-rule="evenodd" fill="#D68B62" d="M47.39,37.87c0.04-0.24,0.3-1.65,0.49-1.66
					c0.24-0.01,0.25,1,0.19,1.17c-0.16,0.5-0.32,1.01-0.42,1.54c-0.11,0.56-0.11,1.1-0.1,1.68c0.01,0.51,0.12,1.11,0.22,1.6
					c-0.39-0.38-0.5-1.9-0.51-2.47C47.24,38.75,47.29,38.43,47.39,37.87z"/>
				<path fill-rule="evenodd" clip-rule="evenodd" fill="#E8A073" d="M50.38,44.21c-0.03-0.09-0.56-1.27-0.6-1.36
					c-0.39-0.87,0.43,0.25,0.51,0.35c0.4,0.56,0.69,0.87,0.97,1.34c0.24,0.4,0.13,1.04-0.42,1.1c-0.46,0.05-1.04-0.39-1.24-1.03
					C49.57,44.52,50.79,45.33,50.38,44.21z"/>
			</g>
			<g>
				<path fill-rule="evenodd" clip-rule="evenodd" fill="#D68B62" d="M93.63,41.15c-0.11-0.01,0.86-3.58,1.43-5
					c0.62-1.54,1.26-1.88,1.65-1.86c0.74,0.04,1.02,3.46,1.02,3.46s-0.56-3.68-2.2-0.72C95.07,37.87,93.76,41.15,93.63,41.15z"/>
				<path fill-rule="evenodd" clip-rule="evenodd" fill="#D68B62" d="M96.21,37.66c-0.05-0.24-0.31-1.65-0.51-1.66
					c-0.24-0.01-0.24,1.01-0.18,1.17c0.17,0.5,0.33,1,0.44,1.54c0.12,0.56,0.12,1.1,0.12,1.68c-0.01,0.51-0.11,1.11-0.21,1.6
					c0.39-0.38,0.48-1.9,0.49-2.47C96.37,38.53,96.32,38.22,96.21,37.66z"/>
				<path fill-rule="evenodd" clip-rule="evenodd" fill="#E8A073" d="M93.28,44.02c0.03-0.09,0.55-1.27,0.59-1.37
					c0.38-0.87-0.43,0.25-0.51,0.36c-0.39,0.56-0.68,0.87-0.96,1.35c-0.24,0.41-0.12,1.04,0.43,1.1c0.46,0.05,1.04-0.4,1.23-1.04
					C94.09,44.33,92.87,45.15,93.28,44.02z"/>
			</g>
		</g>
	</g>
	<g>
		<path fill="#F0AC80" d="M116.52,79.19c2.76,0.84,8.02,7.8,8.93,8.61c0.03,0.02,3.06,1.5,3.15,1.66
			c3.69,6.77,8.25,17.82,10.46,25.42c2.21,7.6,5.83,30.44,7.02,40.3c1.19,9.87,3.69,25.7,4.59,37.18
			c0.39,4.97,1.73,13.51,1.73,13.51l-17.28,2.16c0,0-1.2-4.79-1.73-9.27c-0.8-6.7-6.56-41.24-7.8-47.61
			c-1.94-9.88-5.37-30.59-5.37-30.59S114.72,78.64,116.52,79.19z"/>
	</g>
	<g>
		<path fill="#F0AC80" d="M27.76,75.8c-2.7,1.03-7.48,8.31-8.34,9.18c-0.03,0.02,0.08-0.17,0,0c-3.23,7-12.98,21.29-12.74,28.24
			c0.25,7.14-2.82,30.45-3.36,40.36c-0.53,9.92-1.97,25.89-2.1,37.4c-0.06,4.98-0.82,13.59-0.82,13.59l17.39,1.01
			c0,0,0.87-4.86,1.11-9.37c0.36-6.74,3.8-41.59,4.62-48.02c1.27-9.99,2.24-30.82,2.24-30.82S29.52,75.14,27.76,75.8z"/>
	</g>
	<g>
		<path fill="#DB8C3D" stroke="#003642" stroke-width="0.25" d="M94.4,70.85c0,0,7.84,3.01,9.1,4.06
			c1.24,1.04,7.92,12.12,7.95,18.62c0.03,6.5,0.57,10.92,0.59,15.77c0.02,4.84,0.02,26.45-0.38,30.65
			c-0.41,4.21,1.31,23.87,1.32,27.32c0.02,3.48,2.99,10.73,3,13.54c0.01,2.84,2.63,12.91,2.66,19.53
			c0.03,6.62,0.07,14.86,0.07,14.86s-33.51-0.93-48.26-0.87c-14.76,0.06-40.93,2.24-40.93,2.24s-2.86-6.72-1.1-15.18
			c1.75-8.48,7.43-33.78,7.41-37.68c-0.02-3.9,0.03-19.86,0.03-19.86s-1.42-32.19-1.45-37.74c-0.02-5.53,0.31-16.04,2.85-22.02
			c2.55-5.98,5.67-10.38,6.25-10.87c0.57-0.49,5.89-1.4,5.89-1.4s21.99,8.65,31.47,5.58C90.36,74.31,94.4,70.85,94.4,70.85z"/>
		<path fill="#C2803D" d="M37.74,84.6c0.35,0,1.73,3.76,1.74,6.14c0.01,2.4-0.69,7.05,0.81,8.32c1.5,1.26,0.2,4.04-0.58,6.22
			c-0.75,2.17-1.43,15.8,0.5,17.42c1.94,1.61,3.59-0.81,6.41-1.84c2.83-1.03,3.33-1.83,0.45,2.37c-2.89,4.22-6.56,6.18-2.44,8.77
			c4.11,2.58,10.46,4.43,5.67,4.45c-4.78,0.02-8.39,0.11-8.39,0.11s3.63,5.12,6.2,8.5c2.58,3.39,6.78,2.73,7.11,2.72
			c0.35,0,0.34-0.59,0.35,0c0,0.56-0.84,3.54-6.66,2.41c-5.82-1.14-8.31-2.71-8.3,0.11c0.01,2.82-0.04,11.64,2.05,18.07
			c2.08,6.42,0.72,6.21,4.21,6.7c3.51,0.49-2.39-0.41-5.36,3.15c-2.98,3.55-7.58,7.97-1.75,11.42s7.03,3.44,8.66,3.43
			c1.62-0.01-8.14-0.76-9.83,2.44c-1.69,3.19-1.88,2.75-0.66,5.56c1.21,2.81-7.94,3.22-6.56,5.24c1.37,2.03,7.36,1.84,13.43,1.81
			c6.08-0.03,1.72,1.38-1.1,2.56c-2.82,1.15,2.92,3.6,4.11,3.59c1.21-0.01-0.03,0.97-0.03,0.97s-7.81,0.81-12.09,0.83
			c-4.28,0.02-6.3,0.13-6.3,0.13s-1.51-5.4-1.52-8.22c-0.01-2.82,0.85-8.03,1.58-11.38c0.72-3.35,2.57-12,3.14-14.75
			c0.57-2.74,2.54-12.29,2.88-14.9c0.35-2.61,0.38-4.78,0.37-8.13c0.02-3.37,0.05-13.92,0.05-14.64
			c-0.01-0.73-0.71-17.04-0.71-17.04l-0.74-21.65c0,0,0.49-15.51,1.58-18.27c1.12-2.75,1.62-2.75,1.62-2.75L37.74,84.6z"/>
		<path fill="#C2803D" d="M111.69,102.75c0,0-2.33-0.21-2.3,6.41c0.03,6.61-0.21,10.85-2.91,13.15c-2.68,2.28-9.62,0.79-5,2.41
			c4.64,1.6,5.4,1.59,5.4,1.59s-1.03-0.21-3.27,2.77c-2.22,3.01-6.19,5.19-4,6.16c2.18,0.96,5.65,2.15,5.65,2.15
			s4.28,7.78,1.33,10.29c-2.94,2.5-3.05,4.89-7.68,4.91c-4.62,0.02-10.52-1.03-7.05,1.87c3.49,2.91,10.81,4.61,11.45,4.61
			c0.64,0,3.35,5.51,3.35,5.51s-5.9,1.23-8.46,3.41c-2.56,2.19,3.73,2.8,6.58,4.2c2.82,1.4,5.53,4.54,5.56,10.17
			c0.02,5.64-0.46,12.7-5.84,14.56c-5.38,1.87-6.33,2.69-6.33,2.69s1.87,3.3,7.25,1.64c5.39-1.65,9.37-1.12,9.37-1.12
			s0.42,6.61-0.73,7.59c-1.15,0.98,4.63,2.04,4.63,2.04s0.09-9.17-0.13-11.56c-0.22-2.39-1.56-10.77-1.82-12.2
			c-0.27-1.46-1.15-7.89-1.73-9.88c-0.56-2-1.91-6.31-2.03-9.04c-0.13-2.71-0.62-10.29-0.62-10.29l-0.73-13.19l0.31-12.19
			l0.07-15.69L111.69,102.75z"/>
		<path fill="#DB6D00" stroke="#003642" stroke-width="0.25" d="M53.51,69.06c0,0,4.39,6.57,16.54,6.52
			c12.15-0.05,11.64,0.44,15.32-0.87c3.67-1.31,6.9-5.3,6.9-5.3l4.11,2.8c0,0-6.82,5.82-10.67,6.76
			c-3.84,0.96-12.66,1.58-16.16,1.31c-3.51-0.28-14.9-3.26-17.22-4.56c-2.32-1.29-2.93-3.89-2.93-3.89L53.51,69.06z"/>
		<path fill="#DB6D00" stroke="#003642" stroke-width="0.25" d="M43.52,73.23c0,0-12.39,1.44-16.92,3.27
			c-4.53,1.82-14.72,19.37-14.72,19.37l-6.59,19.35l19.69,8.66l9.66-10.6C34.63,113.27,38.92,76.58,43.52,73.23z"/>
		<path fill="#DB6D00" stroke="#003642" stroke-width="0.25" d="M102.76,74.43c0,0,12.4,1.8,16.94,3.6
			c4.56,1.79,8.07,8.14,11.01,11.53c2.91,3.39,10.65,26.98,10.65,26.98l-19.46,8.77l-9.9-10.44
			C111.99,114.86,109.72,79.18,102.76,74.43z"/>
	</g>
</g>
</svg>
