<?xml version="1.0" encoding="utf-8"?>
<!-- Generator: Adobe Illustrator 23.0.6, SVG Export Plug-In . SVG Version: 6.00 Build 0)  -->
<svg version="1.1" id="Capa_1" xmlns="http://www.w3.org/2000/svg" xmlns:xlink="http://www.w3.org/1999/xlink" x="0px" y="0px"
	 viewBox="0 0 152.79 186.83" enable-background="new 0 0 152.79 186.83" xml:space="preserve">
<g>
	<g>
		<path fill="#F0AC80" d="M103.03,76.12c-3.81-1.97-9.05-4.3-9.57-5.18c-2.22-3.76-2.21-13.48-1.8-17.48h-1.01H58.9h-1.01
			c0.4,4,0.92,13.87-1.54,17.48c-0.39,0.58-6.05,3.17-9.83,5.18C43.38,77.78,34.8,83,33.64,83.43c0.3,0.39,4.09,11.7,8.1,17.76
			c1.84,2.78,2.7,5.47,5.05,7.78c2.43,2.38,5.21,4.34,8.26,5.68c3.67,1.61,7.6,2.4,11.55,2.64c2.7,0.17,5.44,0.14,8.16-0.08
			c2.72,0.23,5.46,0.25,8.16,0.08c3.95-0.25,7.88-1.03,11.55-2.64c3.05-1.34,5.83-3.3,8.26-5.68c2.36-2.31,3.12-5,4.97-7.78
			c4.01-6.06,8.39-17.43,8.69-17.82C115.22,82.98,106.01,77.67,103.03,76.12z"/>
		<g>
			<path fill="#F0AC80" d="M123.94,95.46c-0.11-0.09-6.89-2.91-7-3c-4.13-3.44,1.37-8.53-2.5-9.97c-4.08-1.52-21.55,3.81-37.23,3.82
				c-0.04,0-1.38,0.03-2.27,0.05c-0.89-0.02-2.23-0.05-2.27-0.05c-15.69-0.01-27.57-9.43-27.57-9.43s-8.39,4.41-12.48,5.94
				C28.76,84.25,129.15,102.26,123.94,95.46z"/>
		</g>
		<path fill="#F0AC80" d="M97.44,33.91c0,0-0.19-11.41-0.31-16.03c-0.13-4.99-0.38-12.68-14.64-17.05c-0.8-0.25-4.33-0.84-7.76-0.83
			c-3.21,0.01-6.33,0.6-7.08,0.83c-3.78,1.16-6.57,2.9-9.35,5.38c-3.8,3.38-5.33,6.68-5.45,11.67c-0.12,4.62-0.23,16.03-0.23,16.03
			c-4.37-3.68-4.41,0.8-4.2,3.23c0.29,3.3,1.29,5.77,2.3,7.83c0.67,1.37,1.38,3.34,3.37,3.42c0.75,0.03,1.24-0.55,1.24-0.55
			s0.32,4.75,0.5,6.06c0.51,3.9,9.13,14.86,13.98,15.83c1.47,0.29,9.06,0.3,10.43,0.04c4.79-0.93,13.64-11.86,14.16-15.87
			c0.17-1.31,0.49-6.06,0.49-6.06s0.49,0.58,1.24,0.55c1.99-0.08,2.47-2.05,3.14-3.42c1.01-2.05,2.38-5.21,2.46-8.53
			C101.78,34.06,101.82,30.23,97.44,33.91z"/>
		<g>
			<g>
				<path fill-rule="evenodd" clip-rule="evenodd" fill="#D68B62" d="M53.27,41.31c0.11-0.01-0.87-3.58-1.45-5
					c-0.63-1.54-1.27-1.87-1.66-1.85c-0.74,0.04-1,3.47-1,3.47s0.54-3.68,2.2-0.72C51.81,38.03,53.14,41.32,53.27,41.31z"/>
				<path fill-rule="evenodd" clip-rule="evenodd" fill="#D68B62" d="M50.66,37.83c0.05-0.24,0.3-1.65,0.5-1.66
					c0.24-0.01,0.24,1.01,0.19,1.17c-0.16,0.5-0.32,1-0.43,1.54c-0.11,0.56-0.12,1.1-0.11,1.68c0.01,0.51,0.12,1.11,0.22,1.6
					c-0.39-0.38-0.49-1.9-0.5-2.47C50.52,38.71,50.56,38.39,50.66,37.83z"/>
				<path fill-rule="evenodd" clip-rule="evenodd" fill="#E8A073" d="M53.63,44.18c-0.03-0.09-0.56-1.27-0.6-1.36
					c-0.38-0.87,0.43,0.25,0.51,0.35c0.4,0.56,0.69,0.87,0.97,1.35c0.24,0.41,0.12,1.04-0.43,1.1c-0.46,0.05-1.04-0.39-1.23-1.04
					C52.81,44.49,54.04,45.31,53.63,44.18z"/>
			</g>
			<g>
				<path fill-rule="evenodd" clip-rule="evenodd" fill="#D68B62" d="M96.89,41.31c-0.11-0.01,0.87-3.58,1.45-5
					c0.63-1.54,1.27-1.88,1.66-1.85c0.74,0.04,1,3.47,1,3.47s-0.54-3.68-2.2-0.73C98.35,38.03,97.02,41.32,96.89,41.31z"/>
				<path fill-rule="evenodd" clip-rule="evenodd" fill="#D68B62" d="M99.49,37.83c-0.05-0.24-0.3-1.65-0.5-1.66
					c-0.24-0.01-0.24,1.01-0.19,1.17c0.16,0.5,0.32,1,0.43,1.54c0.11,0.56,0.12,1.1,0.11,1.68c-0.01,0.51-0.12,1.11-0.22,1.6
					c0.39-0.38,0.49-1.9,0.5-2.47C99.64,38.71,99.6,38.39,99.49,37.83z"/>
				<path fill-rule="evenodd" clip-rule="evenodd" fill="#E8A073" d="M96.53,44.18c0.03-0.09,0.56-1.27,0.6-1.36
					c0.38-0.87-0.43,0.25-0.51,0.35c-0.4,0.56-0.69,0.87-0.97,1.35c-0.24,0.41-0.12,1.04,0.43,1.1c0.46,0.05,1.04-0.39,1.24-1.04
					C97.34,44.49,96.12,45.31,96.53,44.18z"/>
			</g>
		</g>
	</g>
	<g>
		<g>
			<path fill="#F0AC80" d="M133.63,183.53c-0.17-8.27-1.86-42.44-2.2-46.68c-0.34-4.22-3.2-15.29-4.4-25.87
				c-1.26-11.11-5.43-19.44-8.56-24.65c-0.22-0.37-0.5-0.67-0.81-0.92c-0.02-0.03-0.04-0.05-0.06-0.08
				c-0.08-0.07-0.87-1.11-0.96-1.18c-2.91-2.43-9.11-5.81-12.21-7.08c-1.09-0.57,0.76,19.43-30.51,19.43
				c-20.83,0-29.52-19.95-31.05-19.37c-2.31,0.86-6.57,3.25-9.76,5.49c-0.69,0.36-1.41,0.89-2.14,1.62
				c-0.02,0.02-0.05,0.05-0.01,0.01c-0.15,0.14-0.26,0.27-0.34,0.4c-4.47,5.06-6.09,18.37-5.93,24.3
				c0.18,6.09-2.36,26.55-2.87,35.01c-0.51,8.46-2.03,21.49-2.2,31.3c-0.07,4.25-0.48,15.8-0.48,15.8l13.56,0.88
				c0,0,1.74-8.27,1.97-12.12c0.34-5.75,4.74-35.69,5.92-41.1c1.18-5.41,2.87-27.39,2.87-27.39l0.83,0.17
				c3.86,2.23,7.07,7.53,5.42,19.63c-0.73,5.34-1.04,11.46-2.08,20.83c-0.48,4.33-0.51,9.65-2.37,14.81
				c-0.87,2.42,11.47-14.27,10.66-12.25c0.19,0.07,10.81-1.07,11-1c-1.32,6.44-8.72-0.94-9,5c-0.51,10.66-4,12-4,12s34.29,8.88,37,6
				c2.7-2.87,19.66,6.9,18.06,1.35c-0.43-2.94-0.84-5.7-0.88-5.8c-2.16-5.3-4.59-16.61-4.59-19.05c0-2.43-0.64-20.94,0.36-27.1
				c0.88-5.44-0.61-16.72-0.97-19.27c2,2.84,6.06,8.73,6.69,10.75c0.85,2.71,2.37,14.89,2.7,23.34c0.34,8.45,2.04,21.14,2.04,21.14
				s2.05,15.16,3.21,19.63c0.19,0.73,0.55,2.71,0.55,2.71S133.73,183.92,133.63,183.53z"/>
		</g>
		<g>
			<path fill="#D010B1" d="M111.45,110.02c0,0,11.58-6.16,12.82-6.16c1.23,0-0.24-9.87-1.23-14.79c-0.98-4.93-2.46-9.12-11.34-12.33
				c-8.87-3.2-3.45-0.73-3.45-0.73l0.74,33.28L111.45,110.02z"/>
			<path fill="#D010B1" d="M38.48,78.47c0,0-7.14-1.23-10.84,9.12c-3.69,10.36-4.43,16.51-4.43,16.51s14.29,8.14,15.27,9.86
				c0.99,1.74,1.24-0.49,1.24-0.49l5.41-17.99L38.48,78.47z"/>
			<path fill="#D010B1" d="M51.06,72.3c0,0-12.08,6.17-12.83,6.17c-0.74,0,5.92,13.8,3.71,23.18c-2.22,9.36-2.96,12.56-2.96,12.56
				s2.96,14.3,4.93,20.47c1.96,6.16,5.17,13.8,0.74,26.38c-4.44,12.57-8.38,20.46-8.38,20.46s27.12,7.14,32.54,8.13
				c5.42,0.99,21.2,2.46,28.84,2.22c7.64-0.26,14.05-2.72,14.29-4.19c0.24-1.48-4.93-20.22-7.39-27.11
				c-2.46-6.91-1.24-17.5-1.24-19.72c0-2.22,7.89-15.28,7.89-21.45c0-6.15-0.24-10.35-0.24-10.35s-1.87-29.74-0.99-31.31
				c1.15-2.06-10.12-5.43-10.12-5.43s-2.14,8.46-6.33,14.62c-4.2,6.17-13.83,8.5-17.04,8c-3.2-0.5-16.4-3.33-18.38-7.52
				C56.14,83.22,51.06,72.3,51.06,72.3z"/>
			<path fill="#A60D8C" d="M110.95,117.74c0,0-0.82,6.09-1.81,8.38c-0.99,2.31-3.12,6.24-4.27,8.23c-1.16,1.97-2.46,4.93-2.63,6.24
				c-0.16,1.31,0-0.65-1.64-1.81c-1.64-1.15-6.57-3.46-9.04-4.6c-2.47-1.16-3.29-1.49-3.29-2.64c0-1.14,5.42,0.49,7.89-0.48
				c2.46-0.99,7.73-2.79,9.54-5.1C107.5,123.67,110.95,117.74,110.95,117.74z"/>
			<path fill="#A60D8C" d="M46.53,140.2c0,0-1.48-3.3-2.47-6.26c-0.98-2.96-3.12-10.02-2.95-12.32c0.16-2.31,7.07,7.39,11.67,8.71
				c4.6,1.31,7.88,1.97,11.34,0.5c3.44-1.49,7.39-1.64,7.39-1.64s-7.23,3.28-8.88,3.94c-1.64,0.66-10.19,5.1-11.83,5.75
				C49.15,139.54,46.53,140.2,46.53,140.2z"/>
			<path fill="#A60D8C" d="M102.32,146.34c0,0-4.44,5.25-7.07,5.59c-2.62,0.33-4.93,0.49-4.93,0.49s8.39,1.65,10.35,2.47
				c1.98,0.82,2.64,0.33,2.14-4.11C102.32,146.34,102.32,146.34,102.32,146.34z"/>
			<path fill="#A60D8C" d="M47.64,148.48c0,0.49-0.83,5.42-0.83,5.42s3.95,0.99,5.43,0.99c1.48,0,2.12-0.82,0-2.63
				C50.1,150.45,47.64,148.48,47.64,148.48z"/>
			<path fill="#A60D8C" d="M102.66,160.43l-21.04,0.66c0,0,18.08,2.3,19.89,5.09c1.81,2.8,7.22,14.46,5.42,16.28
				c-1.81,1.81-6.08,0.49-10.85,1.81c-4.76,1.31-13.63,4.92-14.3,4.92c-0.65,0-3.61,0.49-3.61,0.49s5.58,2.14,9.86,2.14
				c4.27,0,16.28-0.17,19.22-1.65c2.97-1.47,4.77-1.16,3.13-6.9c-1.65-5.75-3.62-11.67-4.6-15.61c-0.98-3.94-1.97-7.89-1.97-7.89
				L102.66,160.43z"/>
			<path fill="#A60D8C" d="M55.65,172.48c-1.96-0.17-2.29-0.17-1.96-0.17c0.33,0,18.9,10.52,24.66,10.68
				c5.74,0.17,6.4-0.16,6.4-0.16s-21.69-7.73-23.99-9.53C58.46,171.49,57.63,172.64,55.65,172.48z"/>
			<path fill="#A60D8C" d="M47.44,173.45c0,0,15.77,12.17,17.75,12.48c1.97,0.34,9.2,0,9.2,0s-3.45-0.81-7.23-1.79
				c-3.77-0.99-9.37-4.93-10.02-5.6c-0.65-0.65-8.55-6.06-8.55-6.06L47.44,173.45z"/>
			<path fill="#A60D8C" d="M46.91,155.87c0,0-8.54,23.34-9.36,24.98c-0.83,1.64,1.32,1.31,5.58,2.62c4.28,1.32,8.71,1.82,8.71,1.82
				s-3.94,0.48-7.07-4.12c-3.12-4.6-1.8-9.37-1.8-9.37l3.61-10.35h7.4c0,0-3.95-3.62-5.1-4.44
				C47.73,156.2,46.91,155.87,46.91,155.87z"/>
			<path fill="#A60D8C" d="M38.57,96.71c0,0-1.48,0.82-0.5,2.63c0.99,1.81,1.49,5.26,1.49,5.26l-1.97-2.63c0,0-0.17,3.62,0.49,4.61
				c0.66,0.98-2.46-0.5-2.46-0.5l1.64,2.96l0.49,3.61l1.31,0.82l2.8-9.2L38.57,96.71z"/>
			<path fill="#A60D8C" d="M112.12,97.36l0.16,0.5c0,0,0,3.94,0.98,2.14c0.98-1.82,1.49-2.64,1.49-2.64s0.33,3.13-0.34,4.44
				c-0.65,1.31-1.48,2.13-1.48,2.13s-0.81,2.8,0.5,1.65c1.31-1.15,2.3-2.47,2.3-2.47s-0.33,2.8-0.98,3.13
				c-0.67,0.33-1.31,1.64-1.31,1.64s-1.64,2.62-2.8,1.47C109.47,108.21,112.12,97.36,112.12,97.36z"/>
		</g>
	</g>
</g>
</svg>
