<?xml version="1.0" encoding="utf-8"?>
<!-- Generator: Adobe Illustrator 23.0.6, SVG Export Plug-In . SVG Version: 6.00 Build 0)  -->
<svg version="1.1" id="Capa_1" xmlns="http://www.w3.org/2000/svg" xmlns:xlink="http://www.w3.org/1999/xlink" x="0px" y="0px"
	 viewBox="0 0 152.79 186.83" style="enable-background:new 0 0 152.79 186.83;" xml:space="preserve">
<style type="text/css">
	.st0{fill:#F0AC80;}
	.st1{fill-rule:evenodd;clip-rule:evenodd;fill:#D68B62;}
	.st2{fill-rule:evenodd;clip-rule:evenodd;fill:#E8A073;}
	.st3{fill:#BFE9FF;}
	.st4{fill:#A8E1FF;}
	.st5{fill:#A3DEFF;}
	.st6{fill:#B0E3FF;}
	.st7{fill:#FF5955;}
	.st8{fill:#FF0000;}
	.st9{fill:#3A8A00;}
	.st10{fill:#417400;}
	.st11{fill:#4D4D4D;}
	.st12{fill:#333333;}
	.st13{fill:#1B1464;}
	.st14{fill:#271D91;}
	.st15{fill:#B2B2B2;stroke:#B2B2B2;stroke-width:0.25;}
	.st16{fill:#8C8C8C;stroke:#5A3D1C;stroke-width:0.25;}
	.st17{fill:#A6A6A6;}
	.st18{fill:#FFFFFF;stroke:#B2B2B2;stroke-width:0.25;}
	.st19{fill:#EBEBEB;}
	.st20{stroke:#000000;stroke-width:0.25;}
	.st21{fill:#8C8C8C;stroke:#003642;stroke-width:0.25;}
	.st22{fill:#7A7A7A;}
	.st23{fill:#666666;stroke:#666666;stroke-width:0.25;}
	.st24{fill:#141414;}
	.st25{fill:#FFFFFF;stroke:#B2B2B2;}
	.st26{fill:#EDEDED;}
	.st27{fill:#694721;}
	.st28{fill:#5A3D1C;}
	.st29{fill:#006631;}
	.st30{fill:#00592B;}
	.st31{fill:#035B73;stroke:#003642;stroke-width:0.25;}
	.st32{fill:#02495C;stroke:#003642;stroke-width:0.25;}
	.st33{fill:#02495C;}
	.st34{fill:#820000;stroke:#730000;}
	.st35{fill:#5C0000;stroke:#5A3D1C;stroke-width:0.25;}
	.st36{fill:#780000;}
	.st37{fill:#006B33;stroke:#003642;stroke-width:0.25;}
	.st38{fill:#00592B;stroke:#003642;stroke-width:0.25;}
	.st39{fill:#DB8C3D;stroke:#003642;stroke-width:0.25;}
	.st40{fill:#C2803D;}
	.st41{fill:#DB6D00;stroke:#003642;stroke-width:0.25;}
	.st42{fill:#3F3F3F;stroke:#3F3F3F;stroke-width:0.25;}
	.st43{stroke:#3F3F3F;stroke-width:0.25;}
	.st44{fill:#262626;}
	.st45{fill:#5A3D1C;stroke:#003642;stroke-width:0.25;}
	.st46{fill:#52361A;}
	.st47{fill:#422C15;stroke:#003642;stroke-width:0.25;}
	.st48{fill:#FFFFFF;stroke:#E8E8E8;}
	.st49{fill:#E3E3E3;}
	.st50{fill:#B2B2B2;}
	.st51{fill:#FFBF00;}
	.st52{fill:#F5B700;}
	.st53{fill:#EBAF00;stroke:#D19D00;stroke-width:0.25;}
	.st54{fill:#D010B1;}
	.st55{fill:#A60D8C;}
	.st56{fill:#00A33D;}
	.st57{fill:#008033;}
	.st58{fill:#00D4FF;}
	.st59{fill:#00ABFF;}
	.st60{fill:#0A0A0A;stroke:#000000;}
	.st61{fill:#666666;stroke:#000000;stroke-width:0.25;}
	.st62{stroke:#000000;}
	.st63{fill:#00B800;}
	.st64{fill:#009C00;}
	.st65{fill:#3F3F3F;}
	.st66{fill:#73A334;stroke:#8CC63F;stroke-width:0.1;}
	.st67{fill:#8CC63F;stroke:#8CC63F;stroke-width:0.1;}
	.st68{fill:#545454;}
	.st69{fill:#7558A4;}
	.st70{fill:#7536D1;}
	.st71{fill:#E2BB95;stroke:#D5AF8C;}
	.st72{fill:#D5AF8C;}
	.st73{fill:#E2BB95;stroke:#D5AF8C;stroke-width:0.5;}
	.st74{fill:#9E2231;}
	.st75{fill:#B72837;}
	.st76{fill:#FFE085;}
	.st77{fill:#EBCE7A;}
	.st78{fill:url(#SVGID_1_);}
	.st79{fill:url(#SVGID_2_);}
	.st80{fill:url(#SVGID_3_);}
	.st81{fill:#D00204;}
	.st82{fill:#D10507;}
	.st83{fill:#D3090B;}
	.st84{fill:#D40C0E;}
	.st85{fill:#D51012;}
	.st86{fill:#D71315;}
	.st87{fill:#D81718;}
	.st88{fill:#D91A1C;}
	.st89{fill:#DB1E1F;}
	.st90{fill:#DC2122;}
	.st91{fill:#DD2526;}
	.st92{fill:#DF2829;}
	.st93{fill:#E02C2D;}
	.st94{fill:#E22F30;}
	.st95{fill:#E33333;}
	.st96{fill:#E43637;}
	.st97{fill:#E63A3A;}
	.st98{fill:#E73D3E;}
	.st99{fill:#E84141;}
	.st100{fill:#EA4444;}
	.st101{fill:#EB4848;}
	.st102{fill:#EC4B4B;}
	.st103{fill:#EE4F4E;}
	.st104{fill:#EF5252;}
	.st105{fill:#F05655;}
	.st106{fill:#F25A59;}
	.st107{fill:#F35D5C;}
	.st108{fill:#047A04;}
	.st109{fill:#57B328;}
	.st110{fill:#507F29;}
	.st111{fill:#DDBB06;}
	.st112{fill:#A80000;}
	.st113{fill:#9E0000;}
	.st114{fill:#8F0000;stroke:#610000;stroke-width:0.25;}
	.st115{fill:#5A3D1C;stroke:#805426;}
	.st116{fill:#63421F;}
	.st117{fill:#5A3D1C;stroke:#6B4620;}
	.st118{fill:url(#SVGID_4_);}
	.st119{fill:#171717;stroke:#000000;}
	.st120{fill:#212121;}
	.st121{fill:url(#SVGID_5_);}
	.st122{fill:#3F3F3F;stroke:#3F3F3F;}
	.st123{fill:#8C8C8C;stroke:#3F3F3F;}
	.st124{fill:#808080;}
	.st125{fill:url(#SVGID_6_);}
	.st126{fill:none;}
	.st127{fill:#D4D4D4;}
	.st128{fill:#D4D4D4;stroke:#B8B8B8;stroke-width:0.5;}
	.st129{fill:#D4D4D4;stroke:#B8B8B8;stroke-width:0.2;}
	.st130{fill:#C7C7C7;}
	.st131{fill:#DBF8FF;stroke:#7DBDCC;stroke-width:0.25;}
	.st132{fill:#C2F3FF;}
	.st133{fill:#F2F2F2;}
	.st134{fill:url(#SVGID_7_);stroke:#000000;}
	.st135{fill:#42210B;stroke:#000000;}
	.st136{fill:#C69C6D;stroke:#000000;}
	.st137{fill:#93278F;stroke:#000000;}
	.st138{fill:#589F3E;}
	.st139{fill:#4D8F39;}
	.st140{fill:#963528;}
	.st141{fill:#AC3A2D;}
	.st142{fill:#211915;}
	.st143{fill:#444242;}
	.st144{fill:#1A1A1A;}
	.st145{fill:#FFFFFF;}
	.st146{fill:#2E2E2E;}
	.st147{fill:#363636;}
	.st148{fill:#666666;}
	.st149{fill:#C69C6D;}
	.st150{fill:#B38D62;}
	.st151{fill:#A67C52;}
	.st152{fill:#8C6239;}
	.st153{fill:#9E10D2;}
	.st154{fill:#8210D2;}
	.st155{fill:#6B6B6B;}
	.st156{fill:#008C08;}
	.st157{fill:#00A308;}
	.st158{fill:#EC2024;}
	.st159{fill:#E31E26;}
	.st160{fill:#BED63A;}
	.st161{fill:#EC1C24;}
	.st162{fill:#00ADEE;}
	.st163{fill:#2E3191;}
</style>
<g>
	<g>
		<path class="st0" d="M149.69,213.45c-0.45-14.13-2.35-52.05-2.75-57.09c-0.44-5.43-4.12-19.67-5.66-33.29
			c-1.63-14.29-6.99-25.02-11.01-31.72c-0.29-0.48-0.64-0.86-1.04-1.18c-0.03-0.04-0.05-0.07-0.08-0.11
			c-0.11-0.09-1.12-1.42-1.23-1.51c-3.75-3.13-11.72-7.47-15.71-9.1c-2.82-1.47-9.24-5.15-11.6-6.37c-3.66-1.89-8.69-4.13-9.19-4.97
			c-1.34-2.27-1.83-6.79-1.92-10.79c1.55-2.2,2.65-4.27,2.82-5.58c0.16-1.26,0.47-5.82,0.47-5.82s0.47,0.56,1.19,0.53
			c1.91-0.07,2.37-1.97,3.01-3.28c0.97-1.97,2.28-5.01,2.36-8.19c0.06-2.29,0.09-5.97-4.11-2.43c0,0-0.18-10.96-0.3-15.39
			C94.82,12.38,94.57,4.99,80.88,0.8c-0.77-0.24-4.16-0.8-7.46-0.8c-3.08,0.01-6.08,0.58-6.8,0.8c-3.63,1.11-6.3,2.79-8.98,5.17
			c-3.65,3.25-5.11,6.41-5.23,11.2c-0.11,4.44-0.21,15.39-0.21,15.39c-4.2-3.54-4.24,0.77-4.03,3.1c0.28,3.17,1.24,5.54,2.21,7.51
			c0.64,1.31,1.33,3.21,3.24,3.28c0.72,0.03,1.19-0.53,1.19-0.53s0.31,4.56,0.48,5.82c0.15,1.14,1.02,2.91,2.29,4.84
			c0.09,4.21-0.21,9.22-1.79,11.53c-0.38,0.55-5.81,3.05-9.44,4.97c-0.37,0.2-0.83,0.45-1.34,0.74c0,0-0.01-0.01-0.01-0.01
			s-8.06,4.24-11.98,5.7c-2.97,1.11-8.45,4.18-12.55,7.06c-0.89,0.47-1.81,1.14-2.76,2.09c-0.03,0.02-0.07,0.06-0.01,0.01
			c-0.19,0.18-0.33,0.35-0.44,0.51c-5.75,6.5-7.84,23.64-7.63,31.27c0.23,7.84-3.04,34.17-3.69,45.04
			C5.27,176.4,3.1,205.78,3.1,205.78l19.72,2.12c0,0,5.93-42.99,7.27-49.14c1.52-6.96,0.71-32.59,7.71-46.59s0,0,0,0
			c2.4,1.39,3.11,13.52,3.04,27.03c-0.07,14.4,61.67,9.89,62.96,1.97c1.14-7,4.46-27.72,4-31c2.58,3.65,10.26,18.56,11.08,21.16
			c1.09,3.48,3.05,19.15,3.48,30.04c0.44,10.88,2.62,27.2,2.62,27.2l4.13,25.25L149.69,213.45z"/>
	</g>
	<g>
		<path class="st63" d="M120.3,209.82c-1.58-2.49-1.87-5.08-4.46-5.57c-2.57-0.5-7.1,0.39-10.68,1.48
			c-3.56,1.11-10.58,2.51-11.37,1.7c-0.8-0.79,6.13-0.4,10.68-3.48c4.54-3.09,7.41-4.98,7.91-7.68c0.51-2.69-0.69-7.17-1.98-7.47
			c-1.3-0.3-2.77,1.69-5.15,1.6c-2.37-0.1-5.94-0.31-5.94-0.31s5.25-1.98,7.03-4.27c1.78-2.29,1.38-3.29-0.11-3.29
			c-1.46,0-9.09,1.49-9.38,1.2c-0.3-0.29,6.73-4.69,7.61-6.17c0.89-1.51,1.49-10.47,2.87-16.15c1.39-5.68,4.85-14.07,4.85-14.07
			s-0.87,4.23-1.46,9.82c1.16-6.32,2.97-14.34,3.23-16c0.45-0.43,0.91-0.88,1.39-1.4c5.94-6.17,2.87-22.61,1.7-25.21
			c-0.53-1.16-1.61-2.06-3.58-2.65l-0.97-33.74l-3.07-0.39l0.1,0.31l0.57,33.21c-2.19-0.21-4.95-0.24-8.49-0.03
			c-10.4,0.6-25.14,13.85-25.14,13.85s0.8,0.61-2.48-1.19c-3.26-1.79-18.1-9.48-24.64-10.77c-4.32-0.85-8.92-1-12.19-0.28
			c0.12-0.64,0.23-1.23,0.33-1.51c0.28-0.91,2.27-34.79,2.27-34.79H36.9c0,0,0,13.86-0.09,15.25c-0.1,1.39-1.79,13.96-2.39,17.93
			c-0.39,2.56-0.89,4.36-1.19,5.34c-1.79,3.33,0.52,17.31,1.29,20.68c0.62,2.71,2.38,8,6,10.5l-0.11,0.32c0,0,0.35,17.92-0.71,29.85
			c0.02-0.07,0.05-0.14,0.06-0.2c1.77-4.98,0.76-29.85,0.76-29.85s2.51,24.16,2.51,25.37c0,1.19,3.56,13.75,4.55,15.14
			c0.99,1.4,0.99,2.6,0,3.3c-0.99,0.7-5.14,4.98-7.13,6.77c-1.15,1.03-2.48,10.33-3.46,14.7c9.19,2.03,67.75,0.31,85.48-0.83l0,0
			c-0.53,0.03-1.06,0.07-1.6,0.09C120.69,210.49,120.48,210.12,120.3,209.82z M45.6,148.63c-1.89-0.4-4.91-2.19-4.91-2.19
			s22.2-4.8,26.66-6.88c4.46-2.09,8.74-6.29,8.74-6.29s3.82,3.82,6.12,5.48c8.15,5.87,20.43,6.23,23.22,6.93
			c2.77,0.7-11.31,1.08-13.42,0.84c-4.4-0.48-10.61-5.33-15.17-4.73c-4.55,0.61-7.74,2.62-14.76,4.41
			C55.05,148.02,47.48,149.02,45.6,148.63z M88.74,148.03c0,0-3.66,1.51-5.64,1.99c-1.98,0.5-16.43,0.6-17.22,0.19
			c-0.78-0.38-2.38-1.69-2.38-1.69l1.6-0.4c0,0,10.98,0.51,15.83,0.2C85.77,148.03,88.74,148.03,88.74,148.03z M57.67,155.21
			c-2.09-0.6-2.87-2.11-2.87-2.11s14.75,0.72,18.02,0.9c3.27,0.21,9.19,0.72,13.95,0c4.75-0.69,8.8-0.69,8.8-0.69
			s-15.04,4.2-16.22,4.2S59.75,155.81,57.67,155.21z"/>
		<path class="st63" d="M112.23,179.57c-0.64-1.87-1.14-3.69-1.5-5.38c0.3,1.85,0.73,3.58,1.34,5.04
			C112.13,179.35,112.19,179.46,112.23,179.57z"/>
		<path class="st63" d="M114.87,185.91c-0.23-0.44-0.44-0.87-0.63-1.3c2.14,5.51,4.52,12.16,6.42,17.71
			C119.2,196.26,117.49,191.2,114.87,185.91z"/>
		<path class="st64" d="M76.84,141.8c4.55-0.59,10.76,4.26,15.17,4.73c2.11,0.24,16.19-0.14,13.42-0.84
			c-2.79-0.7-15.07-1.05-23.22-6.93c-2.3-1.66-6.12-5.48-6.12-5.48s-4.28,4.2-8.74,6.29c-4.46,2.08-26.66,6.88-26.66,6.88
			s3.03,1.79,4.91,2.19c1.88,0.39,9.45-0.62,16.47-2.43C69.1,144.42,72.29,142.41,76.84,141.8z"/>
		<path class="st64" d="M65.1,148.13l-1.6,0.4c0,0,1.6,1.3,2.38,1.69c0.8,0.41,15.25,0.31,17.22-0.19c1.98-0.49,5.64-1.99,5.64-1.99
			s-2.97,0-7.81,0.3C76.08,148.63,65.1,148.13,65.1,148.13z"/>
		<path class="st64" d="M86.76,154c-4.76,0.72-10.68,0.21-13.95,0c-3.27-0.19-18.02-0.9-18.02-0.9s0.79,1.51,2.87,2.11
			c2.08,0.6,20.49,2.3,21.67,2.3s16.22-4.2,16.22-4.2S91.51,153.31,86.76,154z"/>
		<path class="st64" d="M123.39,210.82c-0.61-2.09-1.58-5.1-2.73-8.5c-1.9-5.56-4.28-12.2-6.42-17.71
			c-0.71-1.83-1.38-3.55-2.01-5.04c-0.04-0.11-0.1-0.22-0.16-0.34c-0.62-1.46-1.04-3.19-1.34-5.04c-0.88-5.34-0.57-11.8,0-17.03
			c0.59-5.59,1.46-9.82,1.46-9.82s-3.46,8.39-4.85,14.07c-1.38,5.68-1.98,14.64-2.87,16.15c-0.89,1.48-7.91,5.87-7.61,6.17
			c0.3,0.29,7.92-1.2,9.38-1.2c1.5,0,1.89,1,0.11,3.29c-1.78,2.3-7.03,4.27-7.03,4.27s3.56,0.21,5.94,0.31
			c2.37,0.09,3.85-1.9,5.15-1.6c1.28,0.3,2.48,4.78,1.98,7.47c-0.5,2.7-3.37,4.59-7.91,7.68c-4.55,3.09-11.48,2.69-10.68,3.48
			c0.79,0.81,7.81-0.59,11.37-1.7c3.57-1.09,8.1-1.98,10.68-1.48c2.59,0.49,2.88,3.08,4.46,5.57c0.19,0.3,0.39,0.67,0.58,1.12
			c0.54-0.02,1.07-0.06,1.6-0.09c0.16-0.02,0.28-0.03,0.44-0.03H123.39z"/>
		<path class="st64" d="M47.58,190.2c0.99-0.7,0.99-1.9,0-3.3c-0.99-1.39-4.55-13.94-4.55-15.14c0-1.21-2.51-25.37-2.51-25.37
			s1.01,24.87-0.76,29.85c-0.01,0.06-0.04,0.13-0.06,0.2c-1.82,5.39-5.74,29.82-6.81,34.35c-0.02,0.06-0.02,0.13-0.05,0.2
			c0.07,0,0.13,0.02,0.18,0.02c1.3,0.25,2.63,0.37,3.98,0.66c0.97-4.37,2.31-13.67,3.46-14.7C42.43,195.18,46.59,190.9,47.58,190.2z
			"/>
	</g>
</g>
</svg>
