<?xml version="1.0" encoding="utf-8"?>
<!-- Generator: Adobe Illustrator 23.0.6, SVG Export Plug-In . SVG Version: 6.00 Build 0)  -->
<svg version="1.1" id="Capa_1" xmlns="http://www.w3.org/2000/svg" xmlns:xlink="http://www.w3.org/1999/xlink" x="0px" y="0px"
	 viewBox="0 0 152.79 186.83" enable-background="new 0 0 152.79 186.83" xml:space="preserve">
<g>
	<g>
		<path fill="#F0AC80" d="M101.13,87.46c-3.81-1.97-8.48-16.13-9-17c-2.22-3.76,0.32-13,0.72-17h-1.01H60.1h-1.01
			c0.4,4,3.51,13.39,1.05,17c-0.39,0.58-4.21,10.99-8,13c-3.14,1.66-6.84,4.56-8,5c0.3,0.39-5.2,6.68-1.19,12.73
			c1.84,2.78,2.7,5.47,5.05,7.78c2.43,2.38,5.21,4.34,8.26,5.68c3.67,1.61,7.6,2.4,11.55,2.64c2.7,0.17,5.44,0.14,8.16-0.08
			c2.72,0.23,5.46,0.25,8.16,0.08c3.95-0.25,7.88-1.03,11.55-2.64c3.05-1.34,5.83-3.3,8.26-5.68c2.36-2.31,3.12-5,4.97-7.78
			c4.01-6.06-22.08-0.34-21.78-0.73C85.95,100.07,104.12,89.01,101.13,87.46z"/>
		<path fill="#F0AC80" d="M98.64,33.91c0,0-0.19-11.41-0.31-16.03c-0.13-4.99-0.38-12.68-14.64-17.05c-0.8-0.25-4.33-0.84-7.76-0.83
			c-3.21,0.01-6.33,0.6-7.08,0.83c-3.78,1.16-6.57,2.9-9.35,5.38c-3.8,3.38-5.33,6.68-5.45,11.67c-0.12,4.62-0.23,16.03-0.23,16.03
			c-4.37-3.68-4.41,0.8-4.2,3.23c0.29,3.3,1.29,5.77,2.3,7.83c0.67,1.37,1.38,3.34,3.37,3.42c0.75,0.03,1.24-0.55,1.24-0.55
			s0.32,4.75,0.49,6.06c0.51,3.9,9.13,14.86,13.98,15.83c1.47,0.29,9.06,0.3,10.43,0.04c4.79-0.93,13.64-11.86,14.16-15.87
			c0.17-1.31,0.49-6.06,0.49-6.06s0.49,0.58,1.24,0.55c1.99-0.08,2.47-2.05,3.14-3.42c1.01-2.05,2.38-5.21,2.46-8.53
			C102.98,34.06,103.02,30.23,98.64,33.91z"/>
		<g>
			<g>
				<path fill-rule="evenodd" clip-rule="evenodd" fill="#D68B62" d="M54.47,41.31c0.11-0.01-0.87-3.58-1.45-5
					c-0.63-1.54-1.27-1.87-1.66-1.85c-0.74,0.04-1,3.47-1,3.47s0.54-3.68,2.2-0.72C53.01,38.03,54.34,41.32,54.47,41.31z"/>
				<path fill-rule="evenodd" clip-rule="evenodd" fill="#D68B62" d="M51.86,37.83c0.05-0.24,0.3-1.65,0.5-1.66
					c0.24-0.01,0.24,1.01,0.19,1.17c-0.16,0.5-0.32,1-0.43,1.54c-0.11,0.56-0.12,1.1-0.11,1.68c0.01,0.51,0.12,1.11,0.22,1.6
					c-0.39-0.38-0.49-1.9-0.5-2.47C51.72,38.71,51.76,38.39,51.86,37.83z"/>
				<path fill-rule="evenodd" clip-rule="evenodd" fill="#E8A073" d="M54.83,44.18c-0.03-0.09-0.56-1.27-0.6-1.36
					c-0.38-0.87,0.43,0.25,0.51,0.35c0.4,0.56,0.69,0.87,0.97,1.35c0.24,0.41,0.12,1.04-0.43,1.1c-0.46,0.05-1.04-0.39-1.23-1.04
					C54.01,44.49,55.24,45.31,54.83,44.18z"/>
			</g>
			<g>
				<path fill-rule="evenodd" clip-rule="evenodd" fill="#D68B62" d="M98.09,41.31c-0.11-0.01,0.87-3.58,1.45-5
					c0.63-1.54,1.27-1.88,1.66-1.85c0.74,0.04,1,3.47,1,3.47s-0.54-3.68-2.2-0.73C99.55,38.03,98.22,41.32,98.09,41.31z"/>
				<path fill-rule="evenodd" clip-rule="evenodd" fill="#D68B62" d="M100.69,37.83c-0.05-0.24-0.3-1.65-0.5-1.66
					c-0.24-0.01-0.24,1.01-0.19,1.17c0.16,0.5,0.32,1,0.43,1.54c0.11,0.56,0.12,1.1,0.11,1.68c-0.01,0.51-0.12,1.11-0.22,1.6
					c0.39-0.38,0.49-1.9,0.5-2.47C100.84,38.71,100.79,38.39,100.69,37.83z"/>
				<path fill-rule="evenodd" clip-rule="evenodd" fill="#E8A073" d="M97.73,44.18c0.03-0.09,0.56-1.27,0.6-1.36
					c0.38-0.87-0.43,0.25-0.51,0.35c-0.4,0.56-0.69,0.87-0.97,1.35c-0.24,0.41-0.12,1.04,0.43,1.1c0.46,0.05,1.04-0.39,1.24-1.04
					C98.54,44.49,97.32,45.31,97.73,44.18z"/>
			</g>
		</g>
	</g>
	<g>
		<path fill="#1B1464" d="M39.14,206.37c0,0,8.57,0.6,14.16,1.78c5.59,1.19,10.35,2.02,15.47,2.02c5.12,0,24.04-1.19,28.8-1.31
			c4.76-0.12,9.28-1.19,13.81-3.45c4.51-2.26,5.23-12.26,5.59-17.02c0.36-4.76-0.47-28.32-1.3-34.39
			c-0.83-6.07,0.11-27.85,0.11-27.85s2.98,4.52,3.69,6.78c0.72,2.26,6.43,28.92,8.21,31.66c1.79,2.73,0.6,3.45,0.48,6.07
			c-0.12,2.61-0.83,9.16-1.19,11.77c-0.36,2.62,1.19,14.52,1.43,17.02c0.24,2.5,6.54,4.64,8.81,4.64c2.26,0,6.42,0.24,6.42,0.24
			s2.98-1.43,4.16-4.65c1.19-3.2,0-8.8-0.35-9.28c-0.36-0.48,0.83-7.98,1.19-15.95c0.36-7.97-2.02-24.16-4.52-36.3
			c-2.5-12.13-7.98-36.29-12.14-42.84c-4.17-6.54-13.57-11.31-24.52-14.4c-10.94-3.09-19.51-0.36-26.41,1.31
			c-6.9,1.67-12.5,1.78-17.14,0.48c-4.64-1.31-14.64-2.38-14.64-2.38S46.4,81.3,38.19,84.4c-8.21,3.1-15.95,13.09-20.35,22.73
			c-4.4,9.64-7.26,25.11-8.8,33.68c-1.55,8.58-5.24,43.32-4.88,49.03c0.36,5.71,3.57,8.92,2.62,10.23c-0.95,1.31-0.12,2.5,1.07,3.57
			c1.19,1.07,3.45,0.95,6.66,0.95c3.21,0,7.73-1.43,7.73-1.43s2.26-2.38,2.98-5.48c0.71-3.09,3.57-13.21,3.21-20.59
			c-0.36-7.37,1.55-22.84,3.33-27.37c1.79-4.52,0.59-6.18,1.67-10.47c1.07-4.29,4.64-10.36,4.64-10.36s0,2.98,0,7.27
			c0,4.28-1.19,20.71-1.19,25.46c0,4.76,0.12,13.8-0.12,17.25c-0.24,3.46-1.19,11.31-1.42,15.71c-0.24,4.4,2.74,6.9,2.74,11.18
			L39.14,206.37z"/>
		<path fill="#1B1464" d="M70.2,85.63c-0.83-0.15-10.11,0.15-15.23-1.76c-5.12-1.9-5-0.66-6.78-2.2c-1.79-1.53-0.59-2.27,0.24-2.71
			c0.83-0.43-0.6-3.94,0.95-4.46c1.55-0.51,9.76-1.39,16.19-1.46c6.42-0.07,15.59-0.58,24.04,0.07c8.45,0.66,11.42,0.88,12.73,2.63
			c1.31,1.76,2.02,6.22,1.43,6.37c-0.6,0.15-7.5,1.02-12.14,1.39c-4.64,0.36-12.73,1.97-14.16,2.12
			C76.04,85.78,70.2,85.63,70.2,85.63z"/>
		<path fill="#271D91" d="M66.87,80.71c0,0,0.6,0.24,2.14,0.6c1.55,0.36-1.31,3.81-1.55,7.62c-0.24,3.8-0.83,13.2-0.83,13.2
			l-1.19,0.12c0,0,0.36-11.55,0.59-13.57c0.24-2.02,0.6-6.42,0.6-6.42s-1.67-1.19-6.78-1.9c-5.12-0.72-8.8-0.95-8.8-0.95
			L66.87,80.71z"/>
		<path fill="#271D91" d="M103.52,78.93c0,0-1.67-2.14-8.33-0.48c-6.66,1.67-8.21,3.09-8.21,3.09l-2.74-0.59l0.83,19.16l-0.12,1.31
			h1.67l-0.72-18.8c0,0,0.83-0.47,1.66-0.59c0.83-0.12,5.95-3.1,8.21-3.1C98.05,78.93,103.52,78.93,103.52,78.93z"/>
		<path fill="#271D91" d="M54.5,162.46l44.26,0.48c0,0,4.28,17.37,7.14,21.42c2.86,4.04-0.24,7.37-4.53,7.37
			c-4.28,0-53.78-0.47-55.45-2.38c-1.66-1.9,0.95-5.95,4.05-13.09C53.06,169.13,54.5,162.46,54.5,162.46z"/>
		<path fill="#271D91" d="M27.13,95.35c0,0,6.67,10.71,6.9,14.51c0.24,3.81,3.81,12.15,3.81,12.15v3.32c0,0-4.28-14.28-6.19-18.56
			C29.75,102.49,27.13,95.35,27.13,95.35z"/>
		<path fill="#271D91" d="M120.66,94.16c0,0-3.33,20.95-3.33,24.75c0,3.8-0.48,5.48-0.48,5.48s5.72-12.14,5.72-15.95
			c0-3.81,2.14-12.38,2.14-12.38s-1.8,2.53-2.38,5.72C115.66,138.66,119.94,98.2,120.66,94.16z"/>
		<path fill="#271D91" d="M128.51,158.41c0,0,7.85-10.47,9.28-14.76c1.43-4.28,1.43-4.28,1.43-4.28s-5,13.09-7.14,16.18
			C129.94,158.66,128.51,158.41,128.51,158.41z"/>
	</g>
</g>
</svg>
