<?xml version="1.0" encoding="utf-8"?>
<!-- Generator: Adobe Illustrator 23.0.6, SVG Export Plug-In . SVG Version: 6.00 Build 0)  -->
<svg version="1.1" id="Capa_1" xmlns="http://www.w3.org/2000/svg" xmlns:xlink="http://www.w3.org/1999/xlink" x="0px" y="0px"
	 viewBox="0 0 152.79 186.83" enable-background="new 0 0 152.79 186.83" xml:space="preserve">
<g>
	<g>
		<path fill="#F0AC80" d="M104.07,76.05c-3.81-1.97-11.58-4.78-12.09-5.66c-2.22-3.76,0.32-13,0.72-17h-1.01H59.94h-1.01
			c0.4,4,3.51,13.39,1.05,17c-0.39,0.58-8.63,3.65-12.42,5.66c-3.14,1.66-11.71,6.88-12.87,7.31c0.3,0.39,4.09,11.7,8.1,17.76
			c1.84,2.78,2.7,5.47,5.05,7.78c2.43,2.38,5.21,4.34,8.26,5.68c3.67,1.61,7.6,2.4,11.55,2.64c2.7,0.17,5.44,0.14,8.16-0.08
			c2.72,0.23,5.46,0.25,8.16,0.08c3.95-0.25,7.88-1.03,11.55-2.64c3.05-1.34,5.83-3.3,8.26-5.68c2.36-2.31,3.12-5,4.97-7.78
			c4.01-6.06,8.39-17.43,8.69-17.82C116.26,82.91,107.05,77.6,104.07,76.05z"/>
		<g>
			<path fill="#F0AC80" d="M124.97,95.4c-0.11-0.09-6.89-2.91-7-3c-4.13-3.44,1.37-8.53-2.5-9.97c-4.08-1.52-21.55,3.81-37.23,3.82
				c-0.04,0-1.38,0.03-2.27,0.05c-0.89-0.02-2.23-0.05-2.27-0.05c-15.69-0.01-27.57-9.43-27.57-9.43s-8.39,4.41-12.48,5.94
				C29.8,84.19,130.19,102.19,124.97,95.4z"/>
		</g>
		<path fill="#F0AC80" d="M98.48,33.85c0,0-0.19-11.41-0.31-16.03c-0.13-4.99-0.38-12.68-14.64-17.05c-0.8-0.25-4.33-0.84-7.76-0.83
			c-3.21,0.01-6.33,0.6-7.08,0.83c-3.78,1.16-6.57,2.9-9.35,5.38c-3.8,3.38-5.33,6.68-5.45,11.67c-0.12,4.62-0.23,16.03-0.23,16.03
			c-4.37-3.68-4.41,0.8-4.2,3.23c0.29,3.3,1.29,5.77,2.3,7.83c0.67,1.37,1.38,3.34,3.37,3.42c0.75,0.03,1.24-0.55,1.24-0.55
			s0.32,4.75,0.49,6.06c0.51,3.9,9.13,14.86,13.98,15.83c1.47,0.29,9.06,0.3,10.43,0.04c4.79-0.93,13.64-11.86,14.16-15.87
			c0.17-1.31,0.49-6.06,0.49-6.06s0.49,0.58,1.24,0.55c1.99-0.08,2.47-2.05,3.14-3.42c1.01-2.05,2.38-5.21,2.46-8.53
			C102.82,33.99,102.86,30.16,98.48,33.85z"/>
		<g>
			<g>
				<path fill-rule="evenodd" clip-rule="evenodd" fill="#D68B62" d="M54.31,41.24c0.11-0.01-0.87-3.58-1.45-5
					c-0.63-1.54-1.27-1.87-1.66-1.85c-0.74,0.04-1,3.47-1,3.47s0.54-3.68,2.2-0.72C52.85,37.97,54.18,41.25,54.31,41.24z"/>
				<path fill-rule="evenodd" clip-rule="evenodd" fill="#D68B62" d="M51.7,37.77c0.05-0.24,0.3-1.65,0.5-1.66
					c0.24-0.01,0.24,1.01,0.19,1.17c-0.16,0.5-0.32,1-0.43,1.54c-0.11,0.56-0.12,1.1-0.11,1.68c0.01,0.51,0.12,1.11,0.22,1.6
					c-0.39-0.38-0.49-1.9-0.5-2.47C51.55,38.64,51.6,38.32,51.7,37.77z"/>
				<path fill-rule="evenodd" clip-rule="evenodd" fill="#E8A073" d="M54.67,44.12c-0.03-0.09-0.56-1.27-0.6-1.36
					c-0.38-0.87,0.43,0.25,0.51,0.35c0.4,0.56,0.69,0.87,0.97,1.35c0.24,0.41,0.12,1.04-0.43,1.1c-0.46,0.05-1.04-0.39-1.23-1.04
					C53.85,44.43,55.08,45.24,54.67,44.12z"/>
			</g>
			<g>
				<path fill-rule="evenodd" clip-rule="evenodd" fill="#D68B62" d="M97.93,41.24c-0.11-0.01,0.87-3.58,1.45-5
					c0.63-1.54,1.27-1.88,1.66-1.85c0.74,0.04,1,3.47,1,3.47s-0.54-3.68-2.2-0.73C99.38,37.97,98.06,41.25,97.93,41.24z"/>
				<path fill-rule="evenodd" clip-rule="evenodd" fill="#D68B62" d="M100.53,37.77c-0.05-0.24-0.3-1.65-0.5-1.66
					c-0.24-0.01-0.24,1.01-0.19,1.17c0.16,0.5,0.32,1,0.43,1.54c0.11,0.56,0.12,1.1,0.11,1.68c-0.01,0.51-0.12,1.11-0.22,1.6
					c0.39-0.38,0.49-1.9,0.5-2.47C100.68,38.64,100.63,38.32,100.53,37.77z"/>
				<path fill-rule="evenodd" clip-rule="evenodd" fill="#E8A073" d="M97.57,44.12c0.03-0.09,0.56-1.27,0.6-1.36
					c0.38-0.87-0.43,0.25-0.51,0.35c-0.4,0.56-0.69,0.87-0.97,1.35c-0.24,0.41-0.12,1.04,0.43,1.1c0.46,0.05,1.04-0.39,1.24-1.04
					C98.38,44.43,97.16,45.24,97.57,44.12z"/>
			</g>
		</g>
	</g>
	<g>
		<path fill="#0A0A0A" stroke="#000000" d="M96.81,71.4c0,0,7.48,3.45,8.67,4.63c1.19,1.19,7.52,13.72,7.52,21.07
			c0,7.35,0.48,12.33,0.48,17.8c0,5.47-0.07,29.89-0.48,34.62c-0.41,4.74,1.14,26.96,1.14,30.88c0,3.91,2.82,12.11,2.82,15.31
			c0,3.19,2.45,14.58,2.45,22.06c0,7.47,0,16.77,0,16.77s-31.97-1.21-46.05-1.21c-14.1,0-39.08,2.33-39.08,2.33s-2.7-7.6-0.98-17.14
			c1.71-9.56,7.22-38.1,7.22-42.52c0-4.4,0.13-22.41,0.13-22.41s-1.23-36.39-1.23-42.62c0-6.26,0.37-18.13,2.81-24.87
			c2.46-6.73,5.46-11.7,6.01-12.25c0.56-0.56,5.64-1.56,5.64-1.56s20.94,9.88,30.01,6.45C92.94,75.3,96.81,71.4,96.81,71.4z"/>
		<path stroke="#000000" d="M48.23,73.84c0,0-13.11,1.35-18.46,6.7c-5.35,5.35-8,21.96-9.3,31.11c-1.31,9.16-3.18,25.07-3.92,32.19
			c-0.74,7.09-1.07,15.83-1.63,16.41c-0.57,0.57-1.4,3.92-0.9,10.93c0.48,7.03-2.3,31.35-2.3,35.94c0,4.58,0.66,24.42,0.66,24.42
			l0,0l17.94-0.41c0,0,0.02-3.36,0.43-8.59c0.41-5.21,5.06-28.89,4.49-35.35c-0.58-6.46,0.73-12.41,0.73-15.2
			c0-2.76,2.7-14.94,2.7-15.93c0-0.98,1.97-3.67,1.97-3.67s-0.57-16.01-0.69-20.17c-0.12-4.16-0.48-15.2-0.51-18.86
			c-0.03-3.67,0.47-12.17,0.47-14.79c0-2.6,0.76-6.42,1.07-7.88c0.32-1.48,1.86-6.3,2.15-6.98c0.28-0.7,2.8-6.08,3.08-6.59
			C46.5,76.6,48.23,73.84,48.23,73.84z"/>
		<path fill="#0A0A0A" stroke="#000000" d="M101.88,73.87c0,0,11.08,1.62,14.63,3.35c3.56,1.71,5.96,2.41,8.74,5.18
			c2.78,2.78,7.2,22.37,7.2,29.48c0,7.1,1.13,21.24,2.28,26.14c1.14,4.91,2.61,12.98,2.61,15.6c0,2.61,4.32,20.01,3.68,28.33
			c-0.65,8.33-1.8,22.86-1.32,30.87c0.5,8,2.11,16.59-0.98,19.68c-0.87,0.87-15.59,0.65-16.16-1.14c-0.58-1.8-0.16-15.43-0.66-18.78
			c-0.5-3.35-2.21-24.27-3.02-28.67c-0.82-4.41-1.39-16.5-2.69-21.88c-1.31-5.4-3.21-12.09-3.21-12.09s0.49-22.86,0.49-25.89
			c0-3.02-0.43-23.2-0.46-25.48c-0.03-2.29-0.08-4.27-0.75-6.71c-0.68-2.43-2.92-8.56-3.64-10.08c-0.72-1.51-1.63-3.57-2.37-4.66
			C105.48,76.04,101.88,73.87,101.88,73.87z"/>
		<path stroke="#000000" d="M42.68,86.65c0.33,0,1.62,4.26,1.62,6.94c0,2.69-0.69,7.97,0.74,9.4c1.43,1.43,0.17,4.57-0.57,7.02
			c-0.73,2.45-1.42,17.85,0.42,19.69c1.83,1.84,3.42-0.9,6.12-2.04c2.69-1.15,3.19-2.05,0.41,2.7c-2.78,4.73-6.29,6.94-2.37,9.89
			c3.93,2.93,9.97,5.06,5.4,5.06c-4.57,0-8.01,0.07-8.01,0.07s3.44,5.8,5.88,9.63c2.45,3.84,6.45,3.11,6.78,3.11
			c0.32,0,0.32-0.66,0.32,0c0,0.64-0.82,3.99-6.37,2.69c-5.55-1.31-7.92-3.1-7.92,0.07c0,3.19-0.09,13.15,1.87,20.41
			c1.96,7.27,0.66,7.03,4.01,7.61c3.34,0.57-2.28-0.5-5.14,3.51c-2.86,3.99-7.27,8.98-1.72,12.89c5.55,3.93,6.69,3.93,8.24,3.93
			c1.56,0-7.76-0.9-9.38,2.69c-1.62,3.6-1.79,3.11-0.65,6.29c1.15,3.18-7.59,3.59-6.28,5.87c1.3,2.29,7.02,2.12,12.83,2.12
			c5.79,0,1.62,1.55-1.07,2.86c-2.7,1.3,2.77,4.08,3.92,4.08c1.14,0-0.04,1.1-0.04,1.1s-7.46,0.88-11.54,0.88
			c-4.09,0-6.01,0.14-6.01,0.14s-1.41-6.11-1.41-9.3c0-3.19,0.84-9.07,1.54-12.85c0.7-3.79,2.5-13.53,3.06-16.65
			c0.56-3.1,2.47-13.86,2.82-16.81c0.33-2.94,0.36-5.38,0.39-9.19c0.01-3.8,0.11-15.72,0.09-16.53c0-0.82-0.6-19.24-0.6-19.24
			l-0.61-24.45c0,0,0.52-17.52,1.59-20.62c1.06-3.11,1.55-3.11,1.55-3.11L42.68,86.65z"/>
		<path stroke="#000000" d="M113.17,107.51c0,0-2.22-0.24-2.22,7.23c0,7.48-0.25,12.24-2.81,14.82c-2.58,2.56-9.2,0.86-4.78,2.7
			c4.4,1.82,5.14,1.82,5.14,1.82s-0.98-0.24-3.12,3.12c-2.15,3.37-5.94,5.83-3.86,6.93c2.08,1.11,5.39,2.45,5.39,2.45
			s4.04,8.82,1.23,11.64c-2.82,2.81-2.94,5.51-7.35,5.51c-4.41,0-10.05-1.23-6.74,2.08c3.3,3.3,10.29,5.27,10.89,5.27
			c0.61,0,3.2,6.25,3.2,6.25s-5.64,1.34-8.09,3.8c-2.45,2.44,3.55,3.18,6.24,4.78c2.7,1.59,5.27,5.14,5.27,11.51
			c0,6.37-0.49,14.33-5.63,16.41c-5.15,2.09-6.07,3-6.07,3s1.77,3.73,6.92,1.89c5.14-1.84,8.94-1.23,8.94-1.23s0.36,7.48-0.74,8.58
			c-1.11,1.1,4.41,2.33,4.41,2.33s0.13-10.37-0.07-13.06c-0.2-2.71-1.44-12.15-1.68-13.8c-0.24-1.64-1.07-8.91-1.61-11.17
			c-0.53-2.24-1.79-7.13-1.9-10.19c-0.11-3.07-0.55-11.64-0.55-11.64l-0.64-14.91l0.35-13.75l0.13-17.72L113.17,107.51z"/>
		<path stroke="#000000" d="M129.68,94.71c0,0-5.83,6.73-8.59,11.13c-2.77,4.42-5.39,12.25,0,8.82c5.38-3.43,7.01-4.08,7.01,0
			c0,4.08-3.76,7.52-5.87,11.11c-2.13,3.6,2.85-1.38,6.04-4.57c3.19-3.18,4.25-5.24,4.25-5.24s-0.42-8.81-0.72-10.68
			c-0.3-1.84-1.24-6.79-1.42-7.57C130.2,96.91,129.68,94.71,129.68,94.71z"/>
		<path stroke="#000000" d="M133.03,124.37c0,0-10.24,5.98-12.6,9c-2.37,3.01-8.49,8.98-4.58,7.67c3.93-1.31,12.5-9.96,13.32-9.96
			c0.82,0,4.33,2.77,2.36,6.44c-1.95,3.68,0.17,4.25,1.73,4.66c1.54,0.41,1.3,16.66-1.48,18.46c-2.77,1.8-5.8,2.37-5.06,3.1
			c0.74,0.73,4.74,0.49,6.45,0.49c1.72,0-2.04,0.24-2.04,2.44c0,2.22,3.1,0.17,4.66,0.91c1.55,0.72,0.44,3.06-0.9,4.4
			c-1.35,1.36,2.04,1.36,3.02,1.36c0.97,0,2.49-1.45,2.49-1.45s-0.98-6.31-1.29-7.99c-0.31-1.69-1.69-9.93-1.82-11.17
			c-0.12-1.25-1.11-7.63-1.3-8.63c-0.19-1.01-1.25-5.53-1.58-7.6C134.09,134.42,132.27,125.13,133.03,124.37z"/>
		<path stroke="#000000" d="M24.62,90.95c0,0-3.04,13.36-3.47,16.1c-0.42,2.73-2.24,16.41-2.24,16.41s0.78,2.81,4.71,2.81
			c3.92,0,2.94-0.99,1.95-4.04c-0.98-3.06-3.68-9.67-0.98-12.38c2.69-2.7,1.84,4.17,4.9,6.12c3.07,1.97,0.49-4.03,0.49-11.26
			c0-7.23-0.85-13.1,1.47-17.52c2.32-4.41-0.62-7.58-0.62-7.58S25.96,85.98,24.62,90.95z"/>
		<path stroke="#000000" d="M40.53,150.39c0,0-1.98,2.34-6.51,4.66c-4.53,2.34-6.01,4.17-3.43,4.17c2.58,0,3.93-0.61,3.93-0.61
			s-2.82,1.59-4.41,3.18c-1.6,1.6,1.22,0.98,3.19,0.98c1.95,0,2.8,2.82-1.6,3.67c-4.41,0.85-9.56,2.2-5.76,2.2
			c3.8,0,7.1-0.48,7.1,0.73c0,1.24-2.56,2.58-0.85,4.3c1.72,1.71,3.55,1.48,3.55,1.48s0.5-4.52,0.5-5.52c0-1,1.29-7.25,1.29-7.25
			s0.9-4.43,1.02-5.38c0.13-0.95,2.06-4.55,2.06-4.55L40.53,150.39z"/>
		<path fill="#666666" stroke="#000000" stroke-width="0.25" d="M57.79,69.18c0,0,4.16,7.42,15.76,7.42c11.59,0,11.1,0.58,14.61-0.9
			c3.52-1.47,6.61-5.97,6.61-5.97l3.92,3.19c0,0-6.53,6.53-10.21,7.6c-3.67,1.06-12.08,1.71-15.43,1.38
			c-3.35-0.33-14.21-3.75-16.41-5.23c-2.21-1.47-2.78-4.4-2.78-4.4L57.79,69.18z"/>
	</g>
</g>
</svg>
