<?xml version="1.0" encoding="utf-8"?>
<!-- Generator: Adobe Illustrator 23.0.6, SVG Export Plug-In . SVG Version: 6.00 Build 0)  -->
<svg version="1.1" id="Capa_1" xmlns="http://www.w3.org/2000/svg" xmlns:xlink="http://www.w3.org/1999/xlink" x="0px" y="0px"
	 viewBox="0 0 152.79 186.83" enable-background="new 0 0 152.79 186.83" xml:space="preserve">
<g>
	<g>
		<path fill="#F0AC80" d="M101.85,87.46c-3.81-1.97-8.48-16.13-9-17c-2.22-3.76,0.32-13,0.72-17h-1.01H60.82H59.8
			c0.4,4,3.51,13.39,1.05,17c-0.39,0.58-4.21,10.99-8,13c-3.14,1.66-6.84,4.56-8,5c0.3,0.39-5.2,6.68-1.19,12.73
			c1.84,2.78,2.7,5.47,5.05,7.78c2.43,2.38,5.21,4.34,8.26,5.68c3.67,1.61,7.6,2.4,11.55,2.64c2.7,0.17,5.44,0.14,8.16-0.08
			c2.72,0.23,5.46,0.25,8.16,0.08c3.95-0.25,7.88-1.03,11.55-2.64c3.05-1.34,5.83-3.3,8.26-5.68c2.36-2.31,3.12-5,4.97-7.78
			c4.01-6.06-22.08-0.34-21.78-0.73C86.67,100.07,104.84,89.01,101.85,87.46z"/>
		<path fill="#F0AC80" d="M99.36,33.91c0,0-0.19-11.41-0.31-16.03c-0.13-4.99-0.38-12.68-14.64-17.05c-0.8-0.25-4.33-0.84-7.76-0.83
			c-3.21,0.01-6.33,0.6-7.08,0.83c-3.78,1.16-6.57,2.9-9.35,5.38c-3.8,3.38-5.33,6.68-5.45,11.67c-0.12,4.62-0.23,16.03-0.23,16.03
			c-4.37-3.68-4.41,0.8-4.2,3.23c0.29,3.3,1.29,5.77,2.3,7.83c0.67,1.37,1.38,3.34,3.37,3.42c0.75,0.03,1.24-0.55,1.24-0.55
			s0.32,4.75,0.49,6.06c0.51,3.9,9.13,14.86,13.98,15.83c1.47,0.29,9.06,0.3,10.43,0.04c4.79-0.93,13.64-11.86,14.16-15.87
			c0.17-1.31,0.49-6.06,0.49-6.06s0.49,0.58,1.24,0.55c1.99-0.08,2.47-2.05,3.14-3.42c1.01-2.05,2.38-5.21,2.46-8.53
			C103.7,34.06,103.73,30.23,99.36,33.91z"/>
		<g>
			<g>
				<path fill-rule="evenodd" clip-rule="evenodd" fill="#D68B62" d="M55.18,41.31c0.11-0.01-0.87-3.58-1.45-5
					c-0.63-1.54-1.27-1.87-1.66-1.85c-0.74,0.04-1,3.47-1,3.47s0.54-3.68,2.2-0.72C53.73,38.03,55.05,41.32,55.18,41.31z"/>
				<path fill-rule="evenodd" clip-rule="evenodd" fill="#D68B62" d="M52.58,37.83c0.05-0.24,0.3-1.65,0.5-1.66
					c0.24-0.01,0.24,1.01,0.19,1.17c-0.16,0.5-0.32,1-0.43,1.54c-0.11,0.56-0.12,1.1-0.11,1.68c0.01,0.51,0.12,1.11,0.22,1.6
					c-0.39-0.38-0.49-1.9-0.5-2.47C52.43,38.71,52.48,38.39,52.58,37.83z"/>
				<path fill-rule="evenodd" clip-rule="evenodd" fill="#E8A073" d="M55.55,44.18c-0.03-0.09-0.56-1.27-0.6-1.36
					c-0.38-0.87,0.43,0.25,0.51,0.35c0.4,0.56,0.69,0.87,0.97,1.35c0.24,0.41,0.12,1.04-0.43,1.1c-0.46,0.05-1.04-0.39-1.23-1.04
					C54.73,44.49,55.96,45.31,55.55,44.18z"/>
			</g>
			<g>
				<path fill-rule="evenodd" clip-rule="evenodd" fill="#D68B62" d="M98.81,41.31c-0.11-0.01,0.87-3.58,1.45-5
					c0.63-1.54,1.27-1.88,1.66-1.85c0.74,0.04,1,3.47,1,3.47s-0.54-3.68-2.2-0.73C100.26,38.03,98.94,41.32,98.81,41.31z"/>
				<path fill-rule="evenodd" clip-rule="evenodd" fill="#D68B62" d="M101.41,37.83c-0.05-0.24-0.3-1.65-0.5-1.66
					c-0.24-0.01-0.24,1.01-0.19,1.17c0.16,0.5,0.32,1,0.43,1.54c0.11,0.56,0.12,1.1,0.11,1.68c-0.01,0.51-0.12,1.11-0.22,1.6
					c0.39-0.38,0.49-1.9,0.5-2.47C101.56,38.71,101.51,38.39,101.41,37.83z"/>
				<path fill-rule="evenodd" clip-rule="evenodd" fill="#E8A073" d="M98.44,44.18c0.03-0.09,0.56-1.27,0.6-1.36
					c0.38-0.87-0.43,0.25-0.51,0.35c-0.4,0.56-0.69,0.87-0.97,1.35c-0.24,0.41-0.12,1.04,0.43,1.1c0.46,0.05,1.04-0.39,1.24-1.04
					C99.26,44.49,98.03,45.31,98.44,44.18z"/>
			</g>
		</g>
	</g>
	<g>
		<path d="M40.19,202.01c0,0,8.33,0.58,13.76,1.73c5.44,1.15,10.06,1.97,15.04,1.97c4.97,0,23.36-1.15,28-1.28
			c4.62-0.11,9.02-1.15,13.42-3.35c4.39-2.2,5.08-11.91,5.43-16.55c0.35-4.62-0.46-27.52-1.27-33.43
			c-0.81-5.9,0.11-27.07,0.11-27.07s2.89,4.4,3.59,6.6c0.7,2.2,6.25,28.11,7.98,30.78c1.74,2.66,0.58,3.35,0.46,5.89
			c-0.12,2.54-0.81,8.91-1.16,11.45c-0.35,2.55,1.16,14.11,1.39,16.54c0.23,2.43,6.36,4.51,8.56,4.51c2.2,0,6.25,0.23,6.25,0.23
			s2.9-1.39,4.05-4.52c1.16-3.11,0-8.56-0.34-9.02c-0.35-0.46,0.81-7.75,1.15-15.5c0.35-7.75-1.96-23.48-4.39-35.28
			c-2.43-11.79-7.75-35.28-11.8-41.64c-4.05-6.36-13.19-10.99-23.83-14c-10.64-3-18.97-0.35-25.67,1.28
			c-6.71,1.62-12.15,1.73-16.66,0.46c-4.51-1.27-14.23-2.31-14.23-2.31s-2.78,0.92-10.76,3.93c-7.98,3.01-15.5,12.73-19.78,22.09
			c-4.28,9.38-7.05,24.41-8.56,32.74c-1.51,8.33-5.09,42.11-4.74,47.66c0.35,5.55,3.47,8.67,2.55,9.94
			c-0.93,1.27-0.12,2.43,1.04,3.47c1.16,1.04,3.36,0.93,6.48,0.93c3.12,0,7.52-1.39,7.52-1.39s2.2-2.31,2.9-5.32
			c0.69-3.01,3.47-12.84,3.12-20.01c-0.35-7.16,1.5-22.2,3.24-26.6c1.74-4.39,0.58-6.01,1.62-10.17c1.04-4.17,4.51-10.07,4.51-10.07
			s0,2.9,0,7.06c0,4.16-1.16,20.13-1.16,24.75c0,4.63,0.12,13.42-0.12,16.77c-0.23,3.36-1.15,10.99-1.38,15.27
			c-0.23,4.28,2.66,6.71,2.66,10.87L40.19,202.01z"/>
		<path d="M70.37,84.65c-0.8-0.13-9.83,0.12-14.8-1.52c-4.97-1.65-4.86-0.57-6.59-1.9c-1.74-1.33-0.58-1.97,0.23-2.34
			c0.81-0.38-0.58-3.42,0.92-3.86c1.5-0.44,9.48-1.2,15.73-1.27c6.24-0.06,15.15-0.5,23.37,0.06c8.21,0.57,11.1,0.76,12.38,2.28
			c1.27,1.52,1.97,5.39,1.39,5.51c-0.58,0.13-7.29,0.88-11.8,1.2c-4.51,0.32-12.38,1.71-13.77,1.84
			C76.05,84.78,70.37,84.65,70.37,84.65z"/>
		<path fill="#4D4D4D" d="M67.14,79.86c0,0,0.58,0.23,2.08,0.58c1.5,0.35-1.28,3.7-1.5,7.41c-0.23,3.69-0.81,12.83-0.81,12.83
			l-1.16,0.12c0,0,0.35-11.22,0.58-13.19c0.23-1.96,0.58-6.24,0.58-6.24s-1.62-1.16-6.59-1.85c-4.97-0.7-8.56-0.93-8.56-0.93
			L67.14,79.86z"/>
		<path fill="#4D4D4D" d="M102.76,78.13c0,0-1.62-2.08-8.1-0.46c-6.48,1.62-7.98,3-7.98,3l-2.66-0.58l0.81,18.63l-0.12,1.27h1.62
			l-0.7-18.28c0,0,0.81-0.46,1.62-0.57c0.81-0.12,5.79-3.01,7.99-3.01C97.44,78.13,102.76,78.13,102.76,78.13z"/>
		<path fill="#333333" d="M55.11,159.33l43.02,0.47c0,0,4.16,16.89,6.94,20.82c2.78,3.93-0.23,7.17-4.4,7.17
			c-4.16,0-52.28-0.46-53.9-2.31c-1.62-1.85,0.93-5.78,3.94-12.72C53.72,165.81,55.11,159.33,55.11,159.33z"/>
		<path fill="#4D4D4D" d="M28.5,94.09c0,0,6.48,10.41,6.71,14.11c0.23,3.7,3.7,11.81,3.7,11.81v3.23c0,0-4.16-13.88-6.02-18.04
			C31.05,101.04,28.5,94.09,28.5,94.09z"/>
		<path fill="#4D4D4D" d="M119.42,92.94c0,0-3.24,20.36-3.24,24.06c0,3.7-0.47,5.32-0.47,5.32s5.56-11.8,5.56-15.5
			c0-3.7,2.08-12.03,2.08-12.03s-1.75,2.45-2.31,5.55C114.56,136.2,118.73,96.87,119.42,92.94z"/>
		<path fill="#4D4D4D" d="M127.06,155.4c0,0,7.63-10.18,9.02-14.35c1.39-4.16,1.39-4.16,1.39-4.16s-4.86,12.72-6.94,15.73
			C128.44,155.63,127.06,155.4,127.06,155.4z"/>
	</g>
</g>
</svg>
