<?xml version="1.0" encoding="utf-8"?>
<!-- Generator: Adobe Illustrator 23.0.6, SVG Export Plug-In . SVG Version: 6.00 Build 0)  -->
<svg version="1.1" id="Capa_1" xmlns="http://www.w3.org/2000/svg" xmlns:xlink="http://www.w3.org/1999/xlink" x="0px" y="0px"
	 viewBox="0 0 152.79 186.83" enable-background="new 0 0 152.79 186.83" xml:space="preserve">
<g>
	<g>
		<path fill="#F0AC80" d="M102.73,76.12c-3.81-1.97-9.05-4.3-9.57-5.18c-2.22-3.76-2.21-13.48-1.8-17.48h-1.01H58.6h-1.01
			c0.4,4,0.92,13.87-1.54,17.48c-0.39,0.58-6.05,3.17-9.83,5.18C43.08,77.78,34.5,83,33.34,83.43c0.3,0.39,4.09,11.7,8.1,17.76
			c1.84,2.78,2.7,5.47,5.05,7.78c2.43,2.38,5.21,4.34,8.26,5.68c3.67,1.61,7.6,2.4,11.55,2.64c2.7,0.17,5.44,0.14,8.16-0.08
			c2.72,0.23,5.46,0.25,8.16,0.08c3.95-0.25,7.88-1.03,11.55-2.64c3.05-1.34,5.83-3.3,8.26-5.68c2.36-2.31,3.12-5,4.97-7.78
			c4.01-6.06,8.39-17.43,8.69-17.82C114.92,82.98,105.71,77.67,102.73,76.12z"/>
		<g>
			<path fill="#F0AC80" d="M123.63,95.46c-0.11-0.09-6.89-2.91-7-3c-4.13-3.44,1.37-8.53-2.5-9.97c-4.08-1.52-21.55,3.81-37.23,3.82
				c-0.04,0-1.38,0.03-2.27,0.05c-0.89-0.02-2.23-0.05-2.27-0.05c-15.69-0.01-27.57-9.43-27.57-9.43s-8.39,4.41-12.48,5.94
				C28.46,84.25,128.85,102.26,123.63,95.46z"/>
		</g>
		<path fill="#F0AC80" d="M97.14,33.91c0,0-0.19-11.41-0.31-16.03C96.7,12.89,96.45,5.21,82.19,0.83c-0.8-0.25-4.33-0.84-7.76-0.83
			c-3.21,0.01-6.33,0.6-7.08,0.83c-3.78,1.16-6.57,2.9-9.35,5.38c-3.8,3.38-5.33,6.68-5.45,11.67c-0.12,4.62-0.23,16.03-0.23,16.03
			c-4.37-3.68-4.41,0.8-4.2,3.23c0.29,3.3,1.29,5.77,2.3,7.83c0.67,1.37,1.38,3.34,3.37,3.42c0.75,0.03,1.24-0.55,1.24-0.55
			s0.32,4.75,0.49,6.06c0.51,3.9,9.13,14.86,13.98,15.83c1.47,0.29,9.06,0.3,10.43,0.04c4.79-0.93,13.64-11.86,14.16-15.87
			c0.17-1.31,0.49-6.06,0.49-6.06s0.49,0.58,1.24,0.55c1.99-0.08,2.47-2.05,3.14-3.42c1.01-2.05,2.38-5.21,2.46-8.53
			C101.48,34.06,101.51,30.23,97.14,33.91z"/>
		<g>
			<g>
				<path fill-rule="evenodd" clip-rule="evenodd" fill="#D68B62" d="M52.96,41.31c0.11-0.01-0.87-3.58-1.45-5
					c-0.63-1.54-1.27-1.87-1.66-1.85c-0.74,0.04-1,3.47-1,3.47s0.54-3.68,2.2-0.72C51.51,38.03,52.83,41.32,52.96,41.31z"/>
				<path fill-rule="evenodd" clip-rule="evenodd" fill="#D68B62" d="M50.36,37.83c0.05-0.24,0.3-1.65,0.5-1.66
					c0.24-0.01,0.24,1.01,0.19,1.17c-0.16,0.5-0.32,1-0.43,1.54c-0.11,0.56-0.12,1.1-0.11,1.68c0.01,0.51,0.12,1.11,0.22,1.6
					c-0.39-0.38-0.49-1.9-0.5-2.47C50.21,38.71,50.26,38.39,50.36,37.83z"/>
				<path fill-rule="evenodd" clip-rule="evenodd" fill="#E8A073" d="M53.33,44.18c-0.03-0.09-0.56-1.27-0.6-1.36
					c-0.38-0.87,0.43,0.25,0.51,0.35c0.4,0.56,0.69,0.87,0.97,1.35c0.24,0.41,0.12,1.04-0.43,1.1c-0.46,0.05-1.04-0.39-1.23-1.04
					C52.51,44.49,53.74,45.31,53.33,44.18z"/>
			</g>
			<g>
				<path fill-rule="evenodd" clip-rule="evenodd" fill="#D68B62" d="M96.59,41.31c-0.11-0.01,0.87-3.58,1.45-5
					c0.63-1.54,1.27-1.88,1.66-1.85c0.74,0.04,1,3.47,1,3.47s-0.54-3.68-2.2-0.73C98.04,38.03,96.72,41.32,96.59,41.31z"/>
				<path fill-rule="evenodd" clip-rule="evenodd" fill="#D68B62" d="M99.19,37.83c-0.05-0.24-0.3-1.65-0.5-1.66
					c-0.24-0.01-0.24,1.01-0.19,1.17c0.16,0.5,0.32,1,0.43,1.54c0.11,0.56,0.12,1.1,0.11,1.68c-0.01,0.51-0.12,1.11-0.22,1.6
					c0.39-0.38,0.49-1.9,0.5-2.47C99.34,38.71,99.29,38.39,99.19,37.83z"/>
				<path fill-rule="evenodd" clip-rule="evenodd" fill="#E8A073" d="M96.22,44.18c0.03-0.09,0.56-1.27,0.6-1.36
					c0.38-0.87-0.43,0.25-0.51,0.35c-0.4,0.56-0.69,0.87-0.97,1.35c-0.24,0.41-0.12,1.04,0.43,1.1c0.46,0.05,1.04-0.39,1.24-1.04
					C97.04,44.49,95.81,45.31,96.22,44.18z"/>
			</g>
		</g>
	</g>
	<g>
		<path fill="#F0AC80" d="M133.63,180.92c-0.17-8.27-1.86-42.44-2.2-46.68c-0.34-4.22-3.2-15.29-4.4-25.87
			c-1.26-11.11-5.43-19.44-8.56-24.65c-0.22-0.37-0.5-0.67-0.81-0.92c-0.02-0.03-0.04-0.05-0.06-0.08
			c-0.08-0.07-0.87-1.11-0.96-1.18c-2.91-2.43-9.11-5.81-12.21-7.08c-1.09-0.57,0.51,22.79-30.76,22.79
			c-20.83,0-29.27-23.31-30.8-22.74c-2.31,0.86-6.57,3.25-9.76,5.49c-0.69,0.36-1.41,0.89-2.14,1.62c-0.02,0.02-0.05,0.05-0.01,0.01
			c-0.15,0.14-0.26,0.27-0.34,0.4c-4.47,5.06-6.09,18.37-5.93,24.3c0.18,6.09-2.36,26.55-2.87,35.01c-0.51,8.46-2.03,21.49-2.2,31.3
			c-0.07,4.25-0.48,15.8-0.48,15.8l13.56,0.88c0,0,1.74-8.27,1.97-12.12c0.34-5.75,4.74-35.69,5.92-41.1
			c1.18-5.41,2.87-27.39,2.87-27.39l0.83,0.17c3.86,2.23,7.07,7.53,5.42,19.63c-0.73,5.34-1.04,11.46-2.08,20.83
			c-0.48,4.33-0.51,9.65-2.37,14.81c-0.87,2.42-2.09,15.43-2.89,17.45c0.19,0.07,0.37,0.13,0.55,0.2c-1.32,6.44-0.21-6.1-0.5-0.16
			c-0.51,10.66-0.38,7.82-0.38,7.82s62.15-4.25,64.87-7.13c2.7-2.87,3.68-1.53,2.08-7.07c-0.43-2.94-0.84-5.7-0.88-5.8
			c-2.16-5.3-4.59-16.61-4.59-19.05c0-2.43-0.64-20.94,0.36-27.1c0.88-5.44-0.61-16.72-0.97-19.27c2,2.84,6.06,8.73,6.69,10.75
			c0.85,2.71,2.37,14.89,2.7,23.34c0.34,8.45,2.04,21.14,2.04,21.14s2.05,15.16,3.21,19.63c0.19,0.73,0.55,2.71,0.55,2.71
			S133.73,181.31,133.63,180.92z"/>
		<g>
			<path fill="#FFE085" d="M38.24,110.79c0,0-11.78-5.88-13.01-5.85c-1.25,0.04-0.02-9.89,0.84-14.86
				c0.86-4.97,2.23-9.2,11.05-12.66c8.81-3.43,3.43-0.82,3.43-0.82l0.13,33.39L38.24,110.79z"/>
			<path fill="#FFE085" d="M112.3,77.71c0,0,7.16-1.24,10.88,9.14c3.71,10.38,4.46,16.55,4.46,16.55s-14.35,8.18-15.33,9.92
				c-0.99,1.71-1.24-0.51-1.24-0.51l-5.44-18.05L112.3,77.71z"/>
			<path fill="#FFE085" d="M99.69,71.52c0,0,12.11,6.19,12.86,6.19c0.73,0-5.95,13.85-3.72,23.23c2.23,9.39,2.96,12.61,2.96,12.61
				s-2.96,14.34-4.95,20.52c-1.97,6.19-5.18,13.86-0.74,26.46c4.46,12.61,8.41,20.52,8.41,20.52s-27.2,7.16-32.64,8.15
				c-5.44,0.98-21.25,2.48-28.91,2.23c-7.66-0.24-14.09-2.72-14.34-4.21c-0.25-1.48,4.95-20.27,7.42-27.18
				c2.46-6.93,1.23-17.57,1.23-19.78c0-2.23-7.92-15.33-7.92-21.52c0-6.18,0.25-10.38,0.25-10.38s1.86-29.84,0.99-31.4
				c-1.16-2.06,10.13-5.44,10.13-5.44s2.16,8.49,6.36,14.66c4.21,6.19,13.88,8.52,17.09,8.04c3.21-0.49,16.45-3.33,18.43-7.53
				C94.59,82.48,99.69,71.52,99.69,71.52z"/>
			<path fill="#EBCE7A" d="M39.62,117.1c0,0,0.82,6.1,1.82,8.4c0.98,2.31,3.13,6.27,4.27,8.25c1.17,1.97,2.48,4.93,2.65,6.26
				c0.17,1.31,0-0.66,1.64-1.81c1.66-1.17,6.59-3.47,9.07-4.62c2.47-1.15,3.29-1.49,3.29-2.64c0-1.14-5.44,0.49-7.91-0.49
				c-2.47-0.99-7.74-2.8-9.56-5.11C43.08,123.04,39.62,117.1,39.62,117.1z"/>
			<path fill="#EBCE7A" d="M104.24,139.61c0,0,1.48-3.3,2.47-6.26c0.99-2.97,3.13-10.06,2.97-12.37c-0.17-2.3-7.08,7.42-11.71,8.74
				c-4.61,1.31-7.91,1.97-11.36,0.49c-3.47-1.48-7.43-1.64-7.43-1.64s7.25,3.3,8.91,3.96c1.64,0.65,10.21,5.11,11.85,5.77
				C101.6,138.96,104.24,139.61,104.24,139.61z"/>
			<path fill="#EBCE7A" d="M48.27,145.78c0,0,4.45,5.27,7.09,5.6c2.64,0.32,4.94,0.49,4.94,0.49s-8.4,1.65-10.38,2.47
				c-1.97,0.82-2.63,0.33-2.14-4.13C48.27,145.78,48.27,145.78,48.27,145.78z"/>
			<path fill="#EBCE7A" d="M103.11,147.93c0,0.47,0.83,5.43,0.83,5.43s-3.96,0.99-5.44,0.99c-1.48,0-2.13-0.82,0-2.65
				C100.63,149.9,103.11,147.93,103.11,147.93z"/>
			<path fill="#EBCE7A" d="M47.93,159.91l21.09,0.65c0,0-18.12,2.32-19.95,5.12c-1.79,2.8-7.24,14.49-5.42,16.32
				c1.81,1.81,6.1,0.49,10.88,1.81c4.77,1.33,13.68,4.94,14.33,4.94s3.62,0.49,3.62,0.49s-5.61,2.15-9.89,2.15
				c-4.27,0-16.32-0.17-19.28-1.65c-2.96-1.48-4.78-1.15-3.12-6.93c1.63-5.75,3.62-11.69,4.6-15.65c1-3.95,1.98-7.91,1.98-7.91
				L47.93,159.91z"/>
			<path fill="#EBCE7A" d="M95.07,171.98c1.98-0.15,2.31-0.15,1.98-0.15c-0.33,0-18.96,10.55-24.72,10.71
				c-5.77,0.18-6.42-0.16-6.42-0.16s21.75-7.75,24.06-9.57C92.26,170.99,93.1,172.15,95.07,171.98z"/>
			<path fill="#EBCE7A" d="M103.31,172.96c0,0-15.81,12.21-17.79,12.54c-1.99,0.32-9.23,0-9.23,0s3.47-0.83,7.24-1.82
				c3.79-0.97,9.4-4.94,10.06-5.6c0.65-0.66,8.57-6.11,8.57-6.11L103.31,172.96z"/>
			<path fill="#EBCE7A" d="M103.84,155.34c0,0,8.58,23.4,9.41,25.06c0.82,1.63-1.33,1.31-5.61,2.63c-4.29,1.31-8.73,1.82-8.73,1.82
				s3.96,0.49,7.08-4.14c3.13-4.61,1.8-9.39,1.8-9.39l-3.62-10.39h-7.42c0,0,3.95-3.61,5.11-4.45
				C103.03,155.67,103.84,155.34,103.84,155.34z"/>
			<path fill="#EBCE7A" d="M112.21,96c0,0,1.49,0.82,0.5,2.65c-0.99,1.8-1.48,5.26-1.48,5.26l1.98-2.63c0,0,0.16,3.63-0.5,4.63
				c-0.66,0.98,2.47-0.5,2.47-0.5l-1.66,2.96l-0.48,3.62l-1.32,0.82l-2.8-9.23L112.21,96z"/>
			<path fill="#EBCE7A" d="M39.46,90.9l-0.18,0.5c0,0,0,3.95-0.97,2.15c-1-1.82-1.48-2.65-1.48-2.65s-0.34,3.14,0.32,4.45
				c0.66,1.31,1.47,2.14,1.47,2.14s0.84,2.8-0.48,1.65c-1.31-1.16-2.31-2.48-2.31-2.48s0.33,2.81,1,3.13
				c0.65,0.35,1.31,1.65,1.31,1.65s1.64,2.64,2.8,1.49C42.09,101.78,39.46,90.9,39.46,90.9z"/>
			<g>
				<linearGradient id="SVGID_1_" gradientUnits="userSpaceOnUse" x1="62.4328" y1="118.6067" x2="86.7917" y2="118.6067">
					<stop  offset="0" style="stop-color:#950606"/>
					<stop  offset="0.0885" style="stop-color:#AB0505"/>
					<stop  offset="0.1915" style="stop-color:#BC0305"/>
					<stop  offset="0.3199" style="stop-color:#C70304"/>
					<stop  offset="0.5" style="stop-color:#CE0204"/>
					<stop  offset="1" style="stop-color:#D00204"/>
				</linearGradient>
				<path fill="url(#SVGID_1_)" d="M79.58,106.43c-0.23,0.1-0.47,0.17-0.7,0.27c-0.23,0.1-0.53,0.18-0.63,0.36
					c0.07,0.19,0.24,0.39,0.32,0.47c0.53,0.58,1.4,0.88,2.25,1.14c-0.3,0.13-0.66-0.03-0.96-0.13c-0.45-0.15-0.83-0.36-1.19-0.58
					c0.53,0.58,1.33,0.89,2.15,1.16c-0.3,0.15-0.66-0.02-0.96-0.13c-0.63-0.26-1.12-0.6-1.69-0.96c-0.26-0.15-0.9-0.68-1.14-0.29
					c-0.02,0.02-0.04,0.04-0.04,0.08c0,0.05,0.02,0.09,0.04,0.13c0.17,0.6,0.77,1,1.02,1.51c-0.18-0.07-0.36-0.14-0.52-0.23
					c0.19,0.25,0.38,0.5,0.52,0.76c-1.18-0.48-1.97-1.35-2.89-2.19c-0.13-0.1-0.31-0.31-0.42-0.3c-0.27,0-0.42,0.64-0.48,0.84
					c-0.3,0.91-0.55,2.05-0.96,2.9c-0.48-0.96-0.5-2.26-0.49-2.97c0-0.16,0-0.31,0.01-0.45c0-0.19,0.05-0.55,0.09-0.77
					c-0.02-0.07-0.08-0.12-0.18-0.12c-0.17,0-0.39,0.44-0.54,0.61c-1.11,1.49-2.6,2.66-4.04,3.82c-0.02-0.24-0.01-0.46,0.03-0.68
					c-0.01,0.01-0.02,0.01-0.03,0.02c-0.17-1.6,1.59-2.81,2.95-3.6c0.17-0.09,0.43-0.23,0.54-0.34c-0.11-0.11-0.37,0.07-0.52,0.12
					c-0.37,0.14-0.84,0.14-1.2,0.14c-0.69,0-1.32-0.07-1.96-0.18c-3.31,0.92-5.52,2.87-5.52,6.75c0,3.73,1.54,12.1,4.41,15.62
					c1.89,2.31,4.04,0.85,6.69,0.85c2.53,0,3.44,1.82,5.48-0.29c3.43-3.52,7.78-12.32,7.78-16.18
					C86.79,109,83.85,107.09,79.58,106.43z M64.12,112.51c-0.11,0-0.19-0.34-0.19-0.78c0-0.44,0.08-0.79,0.19-0.79
					c0.09,0,0.17,0.35,0.17,0.79C64.29,112.17,64.2,112.51,64.12,112.51z M65.54,120.39c-0.11,0-0.18-0.35-0.18-0.77
					c0-0.43,0.08-0.8,0.18-0.8c0.09,0,0.18,0.37,0.18,0.8C65.72,120.05,65.63,120.39,65.54,120.39z M65.92,116.22
					c-0.11,0-0.18-0.35-0.18-0.79c0-0.43,0.07-0.78,0.18-0.78c0.09,0,0.17,0.35,0.17,0.78C66.09,115.87,66.01,116.22,65.92,116.22z
					 M67.11,124.81c-0.09,0-0.18-0.34-0.18-0.75c0-0.41,0.08-0.74,0.18-0.74c0.09,0,0.18,0.33,0.18,0.74
					C67.29,124.48,67.2,124.81,67.11,124.81z M68.17,113.85c-0.1,0-0.16-0.35-0.16-0.78c0-0.43,0.06-0.78,0.16-0.78
					c0.1,0,0.19,0.35,0.19,0.78C68.36,113.49,68.27,113.85,68.17,113.85z M69.74,118.5c-0.09,0-0.16-0.34-0.16-0.75
					c0-0.41,0.08-0.75,0.16-0.75c0.09,0,0.18,0.34,0.18,0.75C69.93,118.16,69.83,118.5,69.74,118.5z M70,128.4
					c-0.09,0-0.19-0.34-0.19-0.79c0-0.42,0.1-0.78,0.19-0.78c0.1,0,0.17,0.36,0.17,0.78C70.17,128.05,70.1,128.4,70,128.4z
					 M70.96,123.84c-0.09,0-0.16-0.34-0.16-0.76c0-0.4,0.07-0.75,0.16-0.75c0.1,0,0.18,0.35,0.18,0.75
					C71.14,123.51,71.06,123.84,70.96,123.84z M71.29,112.87c-0.41,0-0.73-0.6-0.74-1.34c0-0.75,0.31-1.35,0.71-1.36
					c0.4,0,0.74,0.59,0.75,1.34C72.01,112.25,71.69,112.86,71.29,112.87z M72.64,121.39c-0.4,0-0.73-0.6-0.75-1.34
					c0-0.76,0.32-1.36,0.72-1.36c0.4,0,0.74,0.59,0.74,1.33C73.37,120.77,73.04,121.38,72.64,121.39z M74.08,114.84
					c0.1,0,0.18,0.35,0.18,0.79c0,0.43-0.09,0.78-0.18,0.78c-0.1,0-0.17-0.36-0.17-0.78C73.91,115.19,73.98,114.84,74.08,114.84z
					 M74.16,128.07c-0.08,0-0.14-0.27-0.14-0.6c0-0.34,0.07-0.61,0.14-0.61c0.09,0,0.14,0.27,0.14,0.61
					C74.3,127.8,74.24,128.07,74.16,128.07z M75.3,124.09c-0.09,0-0.18-0.36-0.18-0.8c0-0.42,0.08-0.76,0.18-0.76
					c0.1,0,0.18,0.34,0.18,0.76C75.48,123.72,75.4,124.09,75.3,124.09z M76.61,113.07c-0.4,0.01-0.74-0.59-0.74-1.34
					c-0.01-0.74,0.31-1.34,0.71-1.35c0.4,0,0.74,0.59,0.74,1.34C77.35,112.47,77.02,113.07,76.61,113.07z M77.22,120.16
					c-0.09,0-0.18-0.34-0.18-0.77c0-0.45,0.08-0.79,0.18-0.79c0.11,0,0.18,0.34,0.18,0.79C77.4,119.82,77.33,120.16,77.22,120.16z
					 M77.44,128.36c-0.08,0-0.14-0.28-0.14-0.61c0-0.34,0.06-0.62,0.14-0.62c0.07,0,0.14,0.28,0.14,0.62
					C77.58,128.08,77.51,128.36,77.44,128.36z M78.78,115.55c-0.1,0-0.18-0.34-0.18-0.77c0-0.44,0.08-0.79,0.18-0.79
					c0.09,0,0.17,0.35,0.17,0.79C78.95,115.21,78.88,115.55,78.78,115.55z M81.3,109.53c0.39,0,0.73,0.6,0.74,1.35
					c0,0.74-0.31,1.35-0.72,1.35c-0.4,0-0.74-0.59-0.74-1.34C80.57,110.14,80.89,109.53,81.3,109.53z M80.11,124.91
					c-0.09,0-0.15-0.36-0.15-0.78c0-0.43,0.07-0.79,0.15-0.79c0.1,0,0.19,0.36,0.19,0.79C80.29,124.55,80.21,124.91,80.11,124.91z
					 M81.86,120.35c-0.16-0.03-0.31-0.12-0.45-0.23c-0.09,0.06-0.18,0.11-0.29,0.11c-0.41,0-0.73-0.59-0.75-1.33
					c0-0.27,0.04-0.51,0.11-0.72c-0.1-0.8-0.04-1.75,0.23-2.72c0.64-2.35,2.18-3.99,3.45-3.64c1.27,0.34,1.79,2.53,1.16,4.89
					C84.68,119.07,83.14,120.69,81.86,120.35z"/>
				<linearGradient id="SVGID_2_" gradientUnits="userSpaceOnUse" x1="62.3725" y1="106.3325" x2="86.8376" y2="106.3325">
					<stop  offset="0" style="stop-color:#950606"/>
					<stop  offset="0.0885" style="stop-color:#AB0505"/>
					<stop  offset="0.1915" style="stop-color:#BC0305"/>
					<stop  offset="0.3199" style="stop-color:#C70304"/>
					<stop  offset="0.5" style="stop-color:#CE0204"/>
					<stop  offset="1" style="stop-color:#D00204"/>
				</linearGradient>
				<path fill="url(#SVGID_2_)" d="M75.41,106.45c0.05-0.14,0.05-0.23,0.05-0.33c-0.01,0-0.04,0-0.05,0
					c-0.03,0.14-0.04,0.28-0.07,0.43C75.37,106.52,75.39,106.48,75.41,106.45z"/>
				<linearGradient id="SVGID_3_" gradientUnits="userSpaceOnUse" x1="62.2545" y1="106.2704" x2="86.9932" y2="106.2704">
					<stop  offset="0" style="stop-color:#950606"/>
					<stop  offset="0.0885" style="stop-color:#AB0505"/>
					<stop  offset="0.1915" style="stop-color:#BC0305"/>
					<stop  offset="0.3199" style="stop-color:#C70304"/>
					<stop  offset="0.5" style="stop-color:#CE0204"/>
					<stop  offset="1" style="stop-color:#D00204"/>
				</linearGradient>
				<path fill="url(#SVGID_3_)" d="M73.56,106.42c0.05-0.11,0.09-0.19,0.14-0.3c0,0-0.01,0.01-0.04,0.01
					c-0.03,0.07-0.1,0.14-0.14,0.22C73.53,106.38,73.54,106.4,73.56,106.42z"/>
				<path fill="#D00204" d="M84.17,111.83c-1.27-0.35-2.81,1.29-3.45,3.64c-0.27,0.97-0.33,1.92-0.23,2.72
					c-0.07,0.21-0.11,0.45-0.11,0.72c0.01,0.74,0.34,1.33,0.75,1.33c0.11,0,0.2-0.05,0.29-0.11c0.14,0.1,0.29,0.19,0.45,0.23
					c1.28,0.34,2.82-1.29,3.46-3.64C85.96,114.36,85.43,112.17,84.17,111.83z M81.12,120.22c-0.39,0-0.71-0.59-0.73-1.31
					c0-0.73,0.32-1.33,0.7-1.35c0.41,0,0.73,0.59,0.73,1.33C81.83,119.62,81.52,120.21,81.12,120.22z M85.28,116.7
					c-0.62,2.31-2.13,3.91-3.38,3.58c-0.15-0.04-0.29-0.11-0.43-0.21c0.02-0.01,0.04-0.03,0.06-0.06c0.02-0.02,0.03-0.04,0.05-0.07
					c0.02-0.02,0.04-0.04,0.05-0.07c0-0.03,0.02-0.06,0.03-0.08c0.01-0.02,0.02-0.05,0.04-0.07c0-0.03,0.02-0.04,0.03-0.08
					c0.01-0.02,0.01-0.06,0.02-0.09c0-0.01,0.01-0.05,0.01-0.07c0.03-0.03,0.03-0.06,0.03-0.09c0-0.03,0.01-0.06,0.01-0.1
					c0.01-0.02,0.02-0.06,0.02-0.08c0-0.03,0.01-0.07,0.01-0.09c0.01-0.05,0.01-0.07,0.01-0.11c0-0.04,0-0.08,0-0.1
					c0-0.01,0-0.01,0-0.02c0-0.04,0-0.07,0-0.11c0-0.05-0.01-0.1-0.02-0.14c0-0.06-0.01-0.11-0.02-0.17
					c-0.06-0.25-0.13-0.47-0.25-0.62c-0.02-0.05-0.05-0.08-0.09-0.11c-0.02-0.03-0.04-0.06-0.07-0.06
					c-0.02-0.02-0.04-0.05-0.06-0.06c-0.03-0.01-0.04-0.03-0.07-0.03c-0.01-0.02-0.03-0.03-0.06-0.03
					c-0.01-0.01-0.05-0.01-0.06-0.01c-0.01,0-0.03,0-0.05,0c-0.01,0-0.01,0-0.01,0c-0.02,0-0.03,0-0.06,0
					c-0.03,0.01-0.04,0.01-0.06,0.01c-0.01,0.02-0.04,0.02-0.05,0.02c-0.02,0.02-0.04,0.03-0.05,0.04
					c-0.02,0.02-0.03,0.03-0.05,0.05c-0.01,0.01-0.04,0.03-0.05,0.05c-0.03,0.03-0.04,0.04-0.07,0.07
					c-0.02,0.03-0.03,0.05-0.04,0.06c-0.03,0.04-0.05,0.07-0.06,0.1c-0.02,0.03-0.04,0.07-0.05,0.1c-0.09-0.76-0.02-1.64,0.23-2.57
					c0.62-2.3,2.13-3.91,3.39-3.58C85.4,112.25,85.92,114.39,85.28,116.7z"/>
				<path fill="#D10507" d="M84.15,111.91c-1.26-0.33-2.77,1.28-3.39,3.58c-0.25,0.92-0.32,1.81-0.23,2.57
					c0.01-0.04,0.03-0.07,0.05-0.1c-0.07-0.73,0-1.58,0.24-2.44c0.59-2.26,2.1-3.83,3.31-3.51c1.22,0.34,1.72,2.43,1.11,4.7
					c-0.62,2.27-2.1,3.84-3.32,3.5c-0.14-0.03-0.27-0.09-0.4-0.18c-0.02,0.03-0.04,0.05-0.06,0.06c0.14,0.1,0.28,0.18,0.43,0.21
					c1.25,0.34,2.77-1.26,3.38-3.58C85.92,114.39,85.4,112.25,84.15,111.91z"/>
				<path fill="#D3090B" d="M85.25,116.69c0.61-2.26,0.11-4.36-1.11-4.7c-1.22-0.32-2.72,1.25-3.31,3.51
					c-0.25,0.87-0.31,1.72-0.24,2.44c0.01-0.03,0.03-0.06,0.06-0.1c-0.07-0.7,0-1.5,0.23-2.32c0.6-2.22,2.06-3.76,3.26-3.43
					c1.2,0.32,1.68,2.38,1.09,4.59c-0.6,2.24-2.06,3.76-3.26,3.44c-0.13-0.05-0.26-0.11-0.38-0.19c-0.02,0.03-0.03,0.05-0.05,0.07
					c0.13,0.09,0.26,0.15,0.4,0.18C83.15,120.54,84.63,118.96,85.25,116.69z"/>
				<path fill="#D40C0E" d="M85.21,116.68c0.59-2.21,0.11-4.27-1.09-4.59c-1.2-0.33-2.66,1.22-3.26,3.43
					c-0.23,0.82-0.3,1.63-0.23,2.32c0.01-0.01,0.03-0.03,0.04-0.06c-0.04-0.68,0.03-1.45,0.24-2.26c0.58-2.17,2.02-3.67,3.19-3.35
					c1.16,0.32,1.64,2.33,1.06,4.5c-0.59,2.18-2.02,3.67-3.19,3.36c-0.13-0.04-0.26-0.1-0.37-0.17c-0.02,0.03-0.04,0.05-0.05,0.07
					c0.12,0.08,0.25,0.14,0.38,0.19C83.15,120.45,84.61,118.92,85.21,116.68z"/>
				<path fill="#D51012" d="M85.17,116.68c0.58-2.17,0.1-4.18-1.06-4.5c-1.17-0.31-2.61,1.19-3.19,3.35
					c-0.21,0.8-0.28,1.57-0.24,2.26c0.03-0.02,0.04-0.04,0.07-0.07c-0.06-0.67,0.02-1.4,0.22-2.17c0.58-2.13,1.97-3.59,3.12-3.28
					c1.16,0.3,1.63,2.28,1.05,4.42c-0.59,2.12-1.98,3.6-3.13,3.29c-0.13-0.04-0.26-0.1-0.36-0.18c-0.01,0.02-0.03,0.05-0.03,0.08
					c0.11,0.07,0.24,0.13,0.37,0.17C83.15,120.35,84.59,118.86,85.17,116.68z"/>
				<path fill="#D71315" d="M85.14,116.68c0.58-2.13,0.1-4.11-1.05-4.42c-1.15-0.31-2.54,1.16-3.12,3.28
					c-0.2,0.77-0.28,1.5-0.22,2.17c0.02-0.02,0.04-0.04,0.05-0.05c-0.05-0.63,0.02-1.35,0.22-2.1c0.56-2.08,1.93-3.53,3.06-3.21
					c1.11,0.29,1.58,2.23,1.01,4.31c-0.55,2.08-1.92,3.52-3.05,3.22c-0.12-0.04-0.24-0.1-0.35-0.17c-0.02,0.03-0.02,0.06-0.04,0.07
					c0.1,0.08,0.23,0.13,0.36,0.18C83.16,120.28,84.56,118.8,85.14,116.68z"/>
				<path fill="#D81718" d="M85.09,116.67c0.57-2.08,0.1-4.02-1.01-4.31c-1.13-0.32-2.5,1.13-3.06,3.21
					c-0.2,0.75-0.27,1.47-0.22,2.1c0.02-0.02,0.03-0.03,0.05-0.05c-0.03-0.61,0.03-1.3,0.22-2.03c0.54-2.04,1.89-3.45,2.98-3.15
					c1.11,0.3,1.55,2.2,1,4.21c-0.54,2.05-1.89,3.45-2.98,3.17c-0.13-0.03-0.26-0.1-0.36-0.17c-0.01,0.04-0.03,0.05-0.03,0.08
					c0.11,0.07,0.23,0.13,0.35,0.17C83.17,120.19,84.54,118.76,85.09,116.67z"/>
				<path fill="#D91A1C" d="M85.06,116.65c0.55-2.02,0.1-3.91-1-4.21c-1.09-0.3-2.43,1.11-2.98,3.15c-0.19,0.73-0.25,1.42-0.22,2.03
					c0.02-0.01,0.03-0.02,0.05-0.04c-0.04-0.6,0.04-1.26,0.23-1.97c0.54-1.99,1.84-3.37,2.91-3.08c1.08,0.29,1.52,2.14,0.99,4.12
					c-0.53,1.99-1.85,3.37-2.93,3.09c-0.12-0.04-0.25-0.09-0.36-0.18c-0.01,0.03-0.02,0.07-0.02,0.09c0.1,0.08,0.23,0.14,0.36,0.17
					C83.17,120.11,84.52,118.7,85.06,116.65z"/>
				<path fill="#DB1E1F" d="M85.03,116.65c0.53-1.98,0.09-3.83-0.99-4.12c-1.07-0.29-2.37,1.09-2.91,3.08
					c-0.19,0.71-0.26,1.37-0.23,1.97c0.01,0,0.05-0.01,0.05-0.02c-0.04-0.58,0.04-1.24,0.21-1.94c0.54-1.94,1.81-3.29,2.86-3.01
					c1.05,0.29,1.48,2.09,0.95,4.03c-0.53,1.96-1.8,3.29-2.84,3.01c-0.14-0.03-0.26-0.1-0.38-0.17c0,0.03-0.01,0.07-0.01,0.07
					c0.11,0.09,0.23,0.14,0.36,0.18C83.18,120.02,84.49,118.65,85.03,116.65z"/>
				<path fill="#DC2122" d="M84.98,116.65c0.53-1.94,0.1-3.74-0.95-4.03c-1.06-0.28-2.33,1.07-2.86,3.01
					c-0.18,0.7-0.25,1.35-0.21,1.94c0.02-0.01,0.04-0.01,0.06-0.01c-0.04-0.58,0.03-1.23,0.21-1.9c0.52-1.9,1.77-3.22,2.79-2.94
					c1.02,0.28,1.44,2.05,0.93,3.94c-0.52,1.91-1.76,3.21-2.79,2.93c-0.13-0.03-0.25-0.09-0.37-0.18c-0.01,0.03-0.01,0.06-0.03,0.09
					c0.12,0.07,0.25,0.14,0.38,0.17C83.19,119.94,84.46,118.61,84.98,116.65z"/>
				<path fill="#DD2526" d="M84.95,116.65c0.51-1.89,0.09-3.66-0.93-3.94c-1.03-0.28-2.27,1.05-2.79,2.94
					c-0.18,0.67-0.25,1.32-0.21,1.9c0.03,0,0.05,0,0.06,0c-0.03-0.58,0.02-1.22,0.21-1.88c0.38-1.45,1.21-2.53,2.02-2.83
					c0.02-0.06,0.06-0.1,0.08-0.1c0.03,0,0.04,0.03,0.07,0.05c0.18-0.04,0.37-0.04,0.55,0c1,0.27,1.41,1.99,0.91,3.85
					c-0.51,1.85-1.72,3.13-2.73,2.86c-0.14-0.04-0.26-0.09-0.39-0.21c0,0.04-0.01,0.07-0.01,0.1c0.12,0.09,0.24,0.16,0.37,0.18
					C83.19,119.85,84.44,118.55,84.95,116.65z"/>
				<path fill="#DF2829" d="M81.33,115.69c0.38-1.39,1.16-2.44,1.94-2.75c0.02-0.03,0.02-0.07,0.04-0.09
					c-0.81,0.29-1.64,1.38-2.02,2.83c-0.19,0.66-0.24,1.3-0.21,1.88c0,0,0,0,0.01,0c0.02,0,0.04,0,0.05,0
					C81.1,116.98,81.15,116.34,81.33,115.69z"/>
				<path fill="#DF2829" d="M84.91,116.65c0.5-1.86,0.09-3.59-0.91-3.85c-0.18-0.04-0.37-0.04-0.55,0c0.01,0.02,0.01,0.05,0.03,0.09
					c0.17-0.04,0.34-0.04,0.51,0.01c0.97,0.26,1.37,1.94,0.89,3.75c-0.5,1.8-1.67,3.06-2.65,2.78c-0.15-0.03-0.29-0.1-0.41-0.21
					c0,0.03-0.01,0.06-0.02,0.08c0.12,0.11,0.24,0.17,0.39,0.21C83.2,119.78,84.41,118.5,84.91,116.65z"/>
				<path fill="#E02C2D" d="M81.39,115.7c0.36-1.32,1.11-2.36,1.87-2.66c0-0.04,0-0.08,0.02-0.1c-0.78,0.31-1.57,1.36-1.94,2.75
					c-0.18,0.65-0.23,1.29-0.19,1.86c0.01,0,0.05,0,0.06,0.01C81.15,117,81.21,116.36,81.39,115.7z"/>
				<path fill="#E02C2D" d="M84.88,116.64c0.48-1.81,0.09-3.49-0.89-3.75c-0.16-0.05-0.33-0.05-0.51-0.01
					c0.01,0.03,0.02,0.05,0.02,0.08c0.16-0.03,0.32-0.03,0.46,0.02c0.96,0.26,1.34,1.9,0.87,3.66c-0.47,1.76-1.62,2.97-2.58,2.72
					c-0.16-0.06-0.3-0.14-0.43-0.24c0,0.03-0.01,0.06-0.01,0.09c0.12,0.1,0.26,0.17,0.41,0.21
					C83.21,119.7,84.38,118.44,84.88,116.64z"/>
				<path fill="#E22F30" d="M81.45,115.71c0.34-1.27,1.07-2.27,1.79-2.57c0-0.04,0.01-0.08,0.01-0.09c-0.76,0.3-1.51,1.33-1.87,2.66
					c-0.17,0.66-0.23,1.3-0.18,1.86c0.02,0,0.04,0.01,0.06,0.03C81.21,117.03,81.26,116.39,81.45,115.71z"/>
				<path fill="#E22F30" d="M84.83,116.64c0.47-1.76,0.09-3.4-0.87-3.66c-0.13-0.05-0.3-0.05-0.46-0.02
					c0.02,0.03,0.02,0.07,0.02,0.09c0.16-0.03,0.29-0.03,0.43,0.01c0.94,0.26,1.31,1.85,0.84,3.56c-0.46,1.71-1.59,2.91-2.51,2.65
					c-0.17-0.04-0.33-0.13-0.45-0.26c0,0.04,0,0.06-0.01,0.11c0.13,0.1,0.27,0.18,0.43,0.24C83.21,119.61,84.36,118.4,84.83,116.64z
					"/>
				<path fill="#E33333" d="M81.5,115.73c0.34-1.23,1.03-2.19,1.72-2.5c0-0.04,0.02-0.06,0.02-0.08c-0.72,0.3-1.45,1.29-1.79,2.57
					c-0.19,0.68-0.24,1.32-0.19,1.88c0.03,0,0.05,0.02,0.07,0.03C81.26,117.06,81.31,116.41,81.5,115.73z"/>
				<path fill="#E33333" d="M84.79,116.62c0.47-1.72,0.1-3.3-0.84-3.56c-0.14-0.04-0.27-0.04-0.43-0.01
					c0.02,0.02,0.02,0.05,0.02,0.09c0.14-0.02,0.26-0.02,0.4,0.01c0.9,0.24,1.28,1.8,0.81,3.47c-0.44,1.66-1.54,2.82-2.43,2.58
					c-0.19-0.05-0.34-0.14-0.48-0.29c0,0.03,0,0.07,0,0.1c0.12,0.13,0.28,0.22,0.45,0.26C83.21,119.53,84.33,118.33,84.79,116.62z"
					/>
				<path fill="#E43637" d="M81.55,115.76c0.32-1.21,1-2.13,1.67-2.43c0-0.04,0-0.07,0-0.1c-0.69,0.32-1.39,1.27-1.72,2.5
					c-0.19,0.68-0.24,1.33-0.16,1.89c0.02,0.01,0.04,0.04,0.06,0.06C81.32,117.1,81.35,116.44,81.55,115.76z"/>
				<path fill="#E43637" d="M82.32,119.2c0.89,0.24,1.99-0.92,2.43-2.58c0.47-1.67,0.09-3.22-0.81-3.47
					c-0.13-0.03-0.26-0.03-0.4-0.01c0,0.03,0,0.05,0.02,0.08c0.12-0.02,0.25-0.01,0.35,0.03c0.89,0.23,1.25,1.75,0.8,3.37
					c-0.43,1.62-1.5,2.75-2.37,2.51c-0.2-0.06-0.37-0.17-0.52-0.34c0,0.03,0,0.07,0,0.11c0,0.01,0,0.01,0,0.02
					C81.98,119.05,82.13,119.15,82.32,119.2z"/>
				<path fill="#E63A3A" d="M82.35,119.12c0.87,0.24,1.94-0.89,2.37-2.51c0.44-1.62,0.08-3.14-0.8-3.37
					c-0.11-0.04-0.23-0.05-0.35-0.03c0,0.04,0,0.07,0,0.1c0.12-0.02,0.23-0.02,0.35,0.02c0.85,0.23,1.19,1.7,0.76,3.27
					c-0.43,1.59-1.46,2.68-2.32,2.46c-0.22-0.07-0.39-0.21-0.55-0.41c0.01,0.05,0.02,0.1,0.02,0.14
					C81.98,118.95,82.15,119.07,82.35,119.12z"/>
				<path fill="#E63A3A" d="M81.6,115.77c0.31-1.17,0.96-2.07,1.61-2.36c0-0.04,0-0.07,0-0.09c-0.67,0.3-1.35,1.23-1.67,2.43
					c-0.2,0.69-0.23,1.35-0.15,1.92c0.03,0.01,0.05,0.03,0.07,0.06C81.37,117.17,81.41,116.48,81.6,115.77z"/>
				<path fill="#E73D3E" d="M81.65,115.78c0.3-1.11,0.93-1.99,1.57-2.28c0-0.04,0-0.07,0-0.09c-0.66,0.29-1.3,1.19-1.61,2.36
					c-0.2,0.71-0.23,1.4-0.14,1.96c0.03,0.03,0.06,0.06,0.09,0.11C81.42,117.27,81.45,116.54,81.65,115.78z"/>
				<path fill="#E73D3E" d="M82.37,119.05c0.85,0.23,1.89-0.87,2.32-2.46c0.42-1.57,0.09-3.03-0.76-3.27
					c-0.13-0.04-0.23-0.04-0.35-0.02c0,0.03,0.01,0.06,0.01,0.08c0.11-0.01,0.22-0.01,0.32,0.02c0.83,0.23,1.16,1.65,0.75,3.18
					c-0.41,1.54-1.43,2.59-2.25,2.37c-0.25-0.06-0.45-0.24-0.6-0.49c0.01,0.07,0.02,0.11,0.02,0.17
					C81.98,118.84,82.15,118.98,82.37,119.05z"/>
				<path fill="#E84141" d="M82.4,118.96c0.82,0.22,1.83-0.83,2.25-2.37c0.41-1.53,0.08-2.95-0.75-3.18
					c-0.1-0.03-0.21-0.03-0.32-0.02c0,0.03,0,0.06,0,0.09c0.11-0.01,0.21-0.01,0.31,0.02c0.8,0.22,1.13,1.6,0.73,3.09
					c-0.4,1.48-1.37,2.51-2.18,2.3c-0.81-0.22-1.13-1.61-0.72-3.11c0.29-1.09,0.89-1.92,1.51-2.21c0-0.03-0.01-0.04-0.01-0.05
					c0-0.01,0.01-0.03,0.01-0.04c-0.63,0.29-1.27,1.17-1.57,2.28c-0.21,0.75-0.23,1.48-0.1,2.06c0.12,0.15,0.2,0.38,0.25,0.62
					C81.95,118.73,82.15,118.9,82.4,118.96z"/>
				<path fill="#EA4444" d="M83.57,113.57c0.09-0.01,0.21-0.01,0.29,0.02c0.78,0.23,1.1,1.57,0.72,3c-0.39,1.43-1.34,2.43-2.12,2.22
					c-0.78-0.2-1.09-1.54-0.71-2.98c0.29-1.04,0.87-1.87,1.47-2.14c0-0.03,0-0.06,0-0.09c-0.62,0.29-1.22,1.12-1.51,2.21
					c-0.41,1.5-0.09,2.89,0.72,3.11c0.81,0.21,1.78-0.82,2.18-2.3c0.4-1.49,0.07-2.87-0.73-3.09c-0.1-0.03-0.2-0.03-0.31-0.02
					c0,0.02,0,0.05,0,0.06C83.57,113.55,83.57,113.56,83.57,113.57z"/>
				<path fill="#EB4848" d="M81.75,115.82c-0.38,1.45-0.08,2.78,0.71,2.98c0.78,0.21,1.73-0.79,2.12-2.22
					c0.39-1.44,0.07-2.78-0.72-3c-0.09-0.03-0.2-0.03-0.29-0.02c0,0.03,0,0.06,0,0.1c0.09-0.02,0.18,0,0.28,0.02
					c0.76,0.2,1.06,1.5,0.69,2.9c-0.37,1.39-1.3,2.36-2.04,2.16c-0.76-0.2-1.06-1.5-0.69-2.89c0.28-1.02,0.84-1.81,1.41-2.08
					c0-0.03,0-0.07,0-0.09C82.62,113.95,82.04,114.78,81.75,115.82z"/>
				<path fill="#EC4B4B" d="M81.81,115.84c-0.37,1.4-0.08,2.69,0.69,2.89c0.74,0.2,1.67-0.77,2.04-2.16c0.37-1.4,0.07-2.69-0.69-2.9
					c-0.1-0.02-0.19-0.04-0.28-0.02c0,0.03-0.01,0.06-0.01,0.09c0.09-0.01,0.18,0,0.29,0.02c0.7,0.2,1.01,1.45,0.66,2.8
					c-0.37,1.35-1.26,2.28-1.98,2.08c-0.74-0.19-1.03-1.43-0.67-2.78c0.26-0.99,0.81-1.76,1.36-2.02c0-0.03,0-0.07,0-0.09
					C82.65,114.03,82.09,114.83,81.81,115.84z"/>
				<path fill="#EE4F4E" d="M81.86,115.86c-0.36,1.35-0.07,2.6,0.67,2.78c0.73,0.2,1.61-0.73,1.98-2.08c0.35-1.35,0.05-2.6-0.66-2.8
					c-0.1-0.02-0.19-0.03-0.29-0.02c0,0.03,0,0.06,0,0.07c0.09,0,0.17,0,0.26,0.04c0.71,0.18,0.99,1.4,0.63,2.7
					c-0.34,1.3-1.21,2.21-1.91,2.01c-0.7-0.18-0.98-1.4-0.64-2.71c0.26-0.96,0.78-1.69,1.33-1.94c0-0.03-0.02-0.06-0.02-0.09
					C82.67,114.1,82.12,114.87,81.86,115.86z"/>
				<path fill="#EF5252" d="M81.91,115.87c-0.34,1.31-0.06,2.53,0.64,2.71c0.71,0.2,1.57-0.71,1.91-2.01
					c0.36-1.3,0.08-2.52-0.63-2.7c-0.09-0.04-0.18-0.04-0.26-0.04c0,0.04-0.02,0.08-0.02,0.1c0.09-0.01,0.18,0,0.26,0.03
					c0.68,0.18,0.96,1.34,0.61,2.6c-0.33,1.26-1.17,2.13-1.84,1.95c-0.68-0.18-0.96-1.35-0.63-2.6c0.26-0.93,0.77-1.64,1.3-1.89
					c0-0.02-0.01-0.06-0.01-0.08C82.69,114.18,82.17,114.91,81.91,115.87z"/>
				<path fill="#F05655" d="M81.95,115.9c-0.33,1.26-0.05,2.43,0.63,2.6c0.67,0.18,1.5-0.69,1.84-1.95c0.35-1.26,0.07-2.42-0.61-2.6
					c-0.09-0.03-0.18-0.04-0.26-0.03c0,0.04,0,0.07-0.02,0.09c0.09,0,0.19,0,0.27,0.03c0.66,0.17,0.93,1.3,0.6,2.51
					c-0.34,1.21-1.14,2.05-1.77,1.87c-0.67-0.17-0.93-1.3-0.6-2.5c0.24-0.9,0.74-1.6,1.24-1.83c0-0.02,0-0.04,0-0.07
					C82.72,114.26,82.22,114.97,81.95,115.9z"/>
				<path fill="#F25A59" d="M82.02,115.92c-0.33,1.21-0.07,2.34,0.6,2.5c0.63,0.18,1.43-0.66,1.77-1.87
					c0.33-1.21,0.06-2.34-0.6-2.51c-0.07-0.03-0.18-0.03-0.27-0.03c0,0.04,0,0.06-0.02,0.1c0.1-0.02,0.18-0.01,0.27,0.01
					c0.63,0.17,0.89,1.26,0.57,2.43c-0.31,1.16-1.08,1.96-1.71,1.79c-0.62-0.15-0.89-1.24-0.57-2.41c0.25-0.88,0.73-1.54,1.23-1.76
					c0-0.03-0.02-0.04-0.04-0.09C82.76,114.32,82.26,115.02,82.02,115.92z"/>
				<path fill="#F35D5C" d="M82.07,115.93c-0.32,1.17-0.05,2.26,0.57,2.41c0.64,0.18,1.4-0.63,1.71-1.79
					c0.31-1.17,0.06-2.26-0.57-2.43c-0.09-0.02-0.17-0.03-0.27-0.01c-0.04,0.13-0.07,0.2-0.11,0.2c-0.04,0-0.07-0.06-0.1-0.15
					C82.79,114.39,82.31,115.05,82.07,115.93z"/>
				<path fill="#D00204" d="M76.59,110.39c-0.4,0.01-0.72,0.61-0.71,1.35c0,0.75,0.34,1.34,0.74,1.34c0.41,0,0.74-0.61,0.72-1.35
					C77.33,110.98,76.99,110.39,76.59,110.39z M76.63,113.05c-0.4,0.01-0.72-0.59-0.74-1.31c-0.02-0.73,0.31-1.33,0.7-1.33
					c0.39,0,0.71,0.59,0.73,1.32C77.33,112.46,77.01,113.05,76.63,113.05z"/>
				<path fill="#D10507" d="M76.6,110.41c-0.4,0-0.72,0.6-0.7,1.33c0.01,0.73,0.33,1.32,0.74,1.31c0.38,0,0.7-0.59,0.7-1.32
					C77.31,111,76.99,110.41,76.6,110.41z M76.63,113.04c-0.4,0.01-0.71-0.58-0.71-1.3c-0.01-0.71,0.29-1.3,0.68-1.3
					c0.39,0,0.71,0.58,0.71,1.29C77.32,112.44,77.01,113.04,76.63,113.04z"/>
				<path fill="#D3090B" d="M76.6,110.44c-0.39,0-0.69,0.59-0.68,1.3c0,0.72,0.31,1.3,0.71,1.3c0.38,0,0.69-0.59,0.68-1.31
					C77.3,111.01,76.98,110.44,76.6,110.44z M76.63,113c-0.39,0.01-0.69-0.56-0.71-1.27c0-0.69,0.31-1.26,0.68-1.27
					c0.38,0,0.7,0.58,0.7,1.26C77.31,112.43,77.01,113,76.63,113z"/>
				<path fill="#D40C0E" d="M76.6,110.47c-0.37,0.01-0.68,0.58-0.68,1.27c0.02,0.7,0.32,1.28,0.71,1.27c0.38,0,0.68-0.58,0.66-1.27
					C77.29,111.04,76.97,110.47,76.6,110.47z M76.63,112.97c-0.37,0.01-0.68-0.55-0.69-1.24c0-0.69,0.3-1.24,0.66-1.25
					c0.38,0,0.68,0.56,0.7,1.24C77.29,112.42,77.01,112.97,76.63,112.97z"/>
				<path fill="#D51012" d="M76.6,110.49c-0.36,0.01-0.66,0.56-0.66,1.25c0.02,0.69,0.32,1.25,0.69,1.24c0.38,0,0.66-0.56,0.66-1.25
					C77.28,111.05,76.97,110.49,76.6,110.49z M76.64,112.96c-0.37,0-0.66-0.54-0.68-1.21c-0.01-0.67,0.28-1.22,0.64-1.22
					c0.37-0.01,0.67,0.52,0.67,1.21C77.29,112.41,76.99,112.94,76.64,112.96z"/>
				<path fill="#D71315" d="M76.61,110.53c-0.36,0-0.65,0.55-0.64,1.22c0.02,0.67,0.31,1.21,0.68,1.21
					c0.35-0.01,0.65-0.55,0.64-1.22C77.28,111.06,76.97,110.52,76.61,110.53z M76.64,112.93c-0.36,0-0.66-0.53-0.66-1.18
					c0-0.66,0.28-1.2,0.63-1.2c0.36-0.01,0.64,0.53,0.64,1.19C77.28,112.39,76.99,112.93,76.64,112.93z"/>
				<path fill="#D81718" d="M76.61,110.55c-0.35,0-0.63,0.53-0.63,1.2c0,0.65,0.3,1.18,0.66,1.18c0.35,0,0.64-0.54,0.61-1.19
					C77.25,111.08,76.97,110.54,76.61,110.55z M76.64,112.91c-0.36,0-0.63-0.52-0.64-1.16c-0.01-0.64,0.26-1.17,0.62-1.18
					c0.34,0,0.63,0.53,0.64,1.17C77.25,112.37,76.98,112.91,76.64,112.91z"/>
				<path fill="#D91A1C" d="M76.61,110.57c-0.35,0.01-0.63,0.54-0.62,1.18c0.01,0.64,0.29,1.16,0.64,1.16
					c0.34,0,0.61-0.54,0.61-1.17C77.24,111.1,76.96,110.57,76.61,110.57z M76.64,112.88c-0.35,0-0.62-0.51-0.62-1.13
					c0-0.63,0.27-1.14,0.6-1.15c0.34,0,0.61,0.51,0.63,1.14C77.25,112.37,76.97,112.88,76.64,112.88z"/>
				<path fill="#DB1E1F" d="M76.61,110.6c-0.33,0.01-0.6,0.52-0.6,1.15c0.01,0.62,0.28,1.13,0.62,1.13c0.33,0,0.61-0.51,0.6-1.14
					C77.23,111.11,76.96,110.6,76.61,110.6z M76.64,112.86c-0.32,0-0.61-0.5-0.61-1.11c0-0.61,0.25-1.11,0.58-1.11
					c0.34-0.01,0.61,0.49,0.61,1.1C77.24,112.35,76.97,112.85,76.64,112.86z"/>
				<path fill="#DC2122" d="M76.61,110.64c-0.33,0-0.58,0.5-0.58,1.11c0,0.61,0.28,1.11,0.61,1.11c0.33-0.01,0.6-0.51,0.59-1.12
					C77.22,111.13,76.96,110.63,76.61,110.64z M76.66,112.83c-0.34,0-0.6-0.48-0.6-1.08c0-0.6,0.24-1.08,0.58-1.08
					c0.32,0,0.59,0.48,0.59,1.07C77.22,112.33,76.97,112.82,76.66,112.83z"/>
				<path fill="#DD2526" d="M76.63,110.67c-0.34,0-0.58,0.48-0.58,1.08c0,0.6,0.26,1.08,0.6,1.08c0.31-0.01,0.57-0.5,0.57-1.09
					C77.22,111.14,76.95,110.67,76.63,110.67z M76.66,112.81c-0.33,0-0.59-0.48-0.59-1.05c0-0.59,0.24-1.08,0.56-1.08
					c0.31,0,0.58,0.46,0.58,1.05C77.22,112.33,76.96,112.81,76.66,112.81z"/>
				<path fill="#DF2829" d="M76.63,110.69c-0.32,0-0.56,0.48-0.56,1.08c0,0.57,0.26,1.05,0.59,1.05c0.3,0,0.57-0.49,0.55-1.08
					C77.21,111.14,76.94,110.69,76.63,110.69z M76.66,112.78c-0.31,0-0.58-0.47-0.58-1.02c0-0.49,0.18-0.91,0.41-1.02
					c0.02-0.02,0.03-0.03,0.05-0.03c0.02,0,0.02,0,0.02,0c0.03,0,0.05,0,0.07,0c0.31,0,0.56,0.46,0.58,1.03
					C77.21,112.31,76.96,112.78,76.66,112.78z"/>
				<path fill="#E02C2D" d="M76.63,110.71c-0.02,0-0.04,0-0.07,0c0.02,0.01,0.03,0.02,0.04,0.03c0.01,0,0.02,0,0.04,0
					c0.3-0.01,0.54,0.44,0.55,1c0,0.56-0.23,1.02-0.53,1.02c-0.31,0-0.56-0.44-0.56-0.99c-0.01-0.45,0.14-0.85,0.38-0.98
					c0-0.01,0.01-0.02,0.01-0.04c-0.23,0.11-0.41,0.53-0.41,1.02c0,0.55,0.26,1.02,0.58,1.02c0.3,0,0.55-0.47,0.55-1.05
					C77.19,111.17,76.94,110.71,76.63,110.71z"/>
				<path fill="#E22F30" d="M76.64,110.77c0.28,0,0.53,0.43,0.53,0.97c0.01,0.55-0.22,1-0.52,1c-0.3,0-0.54-0.44-0.54-0.97
					c0-0.43,0.13-0.79,0.34-0.93c0-0.01,0.01-0.04,0.03-0.05c-0.24,0.13-0.39,0.53-0.38,0.98c0,0.55,0.25,0.99,0.56,0.99
					c0.3,0,0.53-0.46,0.53-1.02c-0.01-0.55-0.24-1.01-0.55-1c-0.03,0-0.03,0-0.04,0c0,0.01,0.01,0.02,0.02,0.03
					C76.63,110.77,76.63,110.77,76.64,110.77z"/>
				<path fill="#E33333" d="M76.11,111.76c0,0.54,0.24,0.97,0.54,0.97c0.29,0,0.52-0.45,0.52-1c0-0.54-0.25-0.97-0.53-0.97
					c-0.01,0-0.01,0-0.03,0c0,0.01,0.02,0.01,0.02,0.02h0.01c0.28,0,0.52,0.43,0.53,0.95c0,0.54-0.23,0.96-0.52,0.96
					c-0.29,0.01-0.52-0.42-0.52-0.94c-0.01-0.41,0.12-0.74,0.3-0.88c0-0.02,0.01-0.03,0.01-0.05
					C76.25,110.97,76.11,111.33,76.11,111.76z"/>
				<path fill="#E43637" d="M76.14,111.76c0,0.52,0.23,0.95,0.52,0.94c0.28,0,0.52-0.42,0.52-0.96c-0.01-0.52-0.25-0.95-0.53-0.95
					h-0.01c0,0.02,0.01,0.02,0.01,0.03l0,0c0.28,0,0.51,0.41,0.51,0.93c0,0.52-0.21,0.93-0.48,0.93
					C76.39,112.68,76.16,112.27,76.14,111.76c0.01-0.38,0.12-0.71,0.29-0.85c0-0.02,0.01-0.03,0.01-0.04
					C76.26,111.02,76.13,111.36,76.14,111.76z"/>
				<path fill="#E63A3A" d="M76.15,111.76c0.01,0.51,0.24,0.92,0.52,0.92c0.28,0,0.48-0.41,0.48-0.93c0-0.52-0.23-0.93-0.51-0.93
					l0,0c0,0.01,0.02,0.02,0.02,0.04c0.26,0,0.48,0.4,0.48,0.89c0.01,0.5-0.2,0.9-0.48,0.9c-0.27,0-0.49-0.4-0.5-0.89
					c0-0.35,0.1-0.65,0.26-0.8c0-0.02,0-0.03,0.01-0.04C76.26,111.06,76.15,111.39,76.15,111.76z"/>
				<path fill="#E73D3E" d="M76.16,111.76c0.01,0.49,0.23,0.89,0.5,0.89c0.28,0,0.48-0.4,0.48-0.9c0-0.5-0.22-0.89-0.48-0.89v0.02
					c0.26,0.01,0.46,0.4,0.48,0.87c0,0.49-0.22,0.88-0.47,0.88c-0.27,0-0.49-0.39-0.49-0.87c0-0.33,0.09-0.62,0.24-0.76
					c0-0.02,0.01-0.03,0.01-0.04C76.26,111.11,76.16,111.41,76.16,111.76z"/>
				<path fill="#E84141" d="M76.67,112.63c0.25,0,0.47-0.39,0.47-0.88c-0.02-0.47-0.22-0.86-0.48-0.87
					c0.01,0.01,0.01,0.02,0.02,0.03c0.24,0.01,0.44,0.38,0.44,0.84c0,0.48-0.2,0.85-0.44,0.85c-0.25,0-0.47-0.38-0.47-0.84
					c-0.02-0.3,0.08-0.57,0.2-0.71c0-0.02,0-0.04,0.02-0.05c-0.15,0.14-0.24,0.43-0.24,0.76C76.19,112.24,76.4,112.63,76.67,112.63z
					"/>
				<path fill="#EA4444" d="M76.67,112.6c0.25,0,0.44-0.38,0.44-0.85c0-0.46-0.2-0.83-0.44-0.84c0,0.01,0,0.01,0,0.03
					c0.23,0.01,0.42,0.37,0.43,0.81c0.01,0.45-0.19,0.82-0.43,0.84c-0.25,0-0.46-0.37-0.46-0.82c0-0.27,0.08-0.53,0.18-0.68
					c0.01-0.01,0.01-0.04,0.01-0.04c-0.11,0.14-0.21,0.41-0.2,0.71C76.2,112.23,76.42,112.6,76.67,112.6z"/>
				<path fill="#EB4848" d="M76.67,112.58c0.24-0.01,0.44-0.39,0.43-0.84c-0.01-0.44-0.21-0.81-0.43-0.81c0,0,0,0.02,0.01,0.03
					c0.22,0.02,0.41,0.37,0.42,0.8c0,0.43-0.2,0.79-0.42,0.79c-0.24,0-0.44-0.36-0.44-0.79c0-0.25,0.06-0.48,0.16-0.62
					c0.01-0.02,0.01-0.03,0.01-0.05c-0.11,0.14-0.18,0.4-0.18,0.68C76.22,112.22,76.42,112.58,76.67,112.58z"/>
				<path fill="#EC4B4B" d="M76.67,112.56c0.23,0,0.42-0.37,0.42-0.79c-0.01-0.43-0.2-0.78-0.42-0.8c0,0.01,0,0.02,0.01,0.02
					c0.21,0.03,0.4,0.36,0.4,0.78c0.01,0.42-0.18,0.77-0.41,0.77c-0.23,0-0.43-0.35-0.43-0.77c0-0.23,0.05-0.43,0.14-0.58
					c0-0.02,0-0.04,0-0.05c-0.1,0.14-0.16,0.37-0.16,0.62C76.23,112.2,76.43,112.56,76.67,112.56z"/>
				<path fill="#EE4F4E" d="M76.67,112.53c0.23,0,0.42-0.35,0.41-0.77c0-0.42-0.18-0.75-0.4-0.78c0,0.02,0,0.03,0,0.04
					c0.21,0.03,0.38,0.34,0.39,0.74c0.01,0.41-0.18,0.74-0.4,0.74c-0.22,0-0.4-0.33-0.41-0.74c0-0.2,0.05-0.4,0.12-0.53
					c0-0.01,0-0.04,0-0.04c-0.09,0.14-0.14,0.35-0.14,0.58C76.25,112.18,76.44,112.53,76.67,112.53z"/>
				<path fill="#EF5252" d="M76.67,112.51c0.23,0,0.41-0.34,0.4-0.74c-0.01-0.41-0.18-0.71-0.39-0.74c0,0.01,0,0.02,0,0.03
					c0.21,0.02,0.38,0.33,0.38,0.71c0,0.39-0.17,0.72-0.38,0.72c-0.21,0-0.4-0.32-0.4-0.72c0-0.17,0.03-0.35,0.08-0.48
					c0-0.01,0.01-0.03,0.02-0.05c-0.07,0.14-0.12,0.33-0.12,0.53C76.27,112.18,76.45,112.51,76.67,112.51z"/>
				<path fill="#F05655" d="M76.68,112.48c0.21,0,0.38-0.32,0.38-0.72c0-0.39-0.16-0.69-0.38-0.71c0.01,0,0.01,0.01,0.01,0.02
					c0.19,0.03,0.35,0.32,0.35,0.69c0,0.12-0.01,0.23-0.03,0.33c-0.04,0.09-0.07,0.17-0.11,0.23c-0.07,0.09-0.14,0.12-0.22,0.12
					c-0.2,0.01-0.39-0.31-0.39-0.68c0-0.16,0.04-0.31,0.07-0.42c0-0.03,0-0.04,0-0.07c-0.05,0.14-0.08,0.31-0.08,0.48
					C76.28,112.15,76.47,112.48,76.68,112.48z"/>
				<path fill="#F25A59" d="M77.04,111.74c0.01,0.13-0.01,0.25-0.02,0.36c0.02-0.1,0.03-0.21,0.03-0.33c0-0.37-0.16-0.66-0.35-0.69
					c0,0.01,0,0.03,0.01,0.04C76.87,111.14,77.01,111.41,77.04,111.74z"/>
				<path fill="#F25A59" d="M76.68,112.45c0.08,0,0.15-0.04,0.22-0.12c-0.05,0.06-0.1,0.09-0.18,0.09
					c-0.21,0.02-0.38-0.26-0.41-0.63c-0.01-0.16,0.01-0.32,0.05-0.43c0-0.01,0-0.01,0-0.01c-0.04,0.11-0.07,0.26-0.07,0.42
					C76.29,112.14,76.48,112.46,76.68,112.45z"/>
				<path fill="#F35D5C" d="M76.32,111.79c0.03,0.37,0.2,0.65,0.41,0.63c0.07,0,0.13-0.03,0.18-0.09c0.04-0.06,0.08-0.15,0.11-0.23
					c0.01-0.1,0.03-0.23,0.02-0.36c-0.02-0.32-0.17-0.59-0.32-0.63c0.01,0.11,0.01,0.25,0.01,0.39c0,0.43-0.07,0.78-0.18,0.78
					c-0.09,0-0.18-0.35-0.18-0.78c0-0.05,0-0.1,0-0.14C76.33,111.47,76.31,111.62,76.32,111.79z"/>
				<path fill="#D00204" d="M72.62,118.69c-0.4,0-0.72,0.6-0.72,1.36c0.01,0.74,0.34,1.34,0.75,1.34c0.4-0.01,0.73-0.62,0.72-1.37
					C73.36,119.28,73.02,118.69,72.62,118.69z M72.64,121.36c-0.39,0-0.71-0.6-0.73-1.32c0-0.73,0.3-1.33,0.71-1.34
					c0.39,0,0.73,0.59,0.73,1.31C73.36,120.76,73.04,121.35,72.64,121.36z"/>
				<path fill="#D10507" d="M72.62,118.71c-0.41,0.01-0.71,0.61-0.71,1.34c0.02,0.72,0.34,1.32,0.73,1.32
					c0.4-0.01,0.72-0.6,0.71-1.34C73.35,119.29,73.02,118.71,72.62,118.71z M72.64,121.33c-0.39,0-0.7-0.58-0.71-1.29
					c0-0.73,0.31-1.3,0.7-1.31c0.37,0,0.69,0.58,0.7,1.28C73.35,120.75,73.04,121.32,72.64,121.33z"/>
				<path fill="#D3090B" d="M72.63,118.74c-0.39,0.01-0.7,0.58-0.7,1.31c0.01,0.71,0.32,1.29,0.71,1.29
					c0.4-0.01,0.71-0.59,0.69-1.31C73.32,119.32,73,118.74,72.63,118.74z M72.67,121.3c-0.39,0-0.71-0.56-0.71-1.26
					c0-0.7,0.3-1.27,0.68-1.27c0.37-0.01,0.69,0.54,0.69,1.26C73.34,120.73,73.04,121.29,72.67,121.3z"/>
				<path fill="#D40C0E" d="M72.63,118.78c-0.38,0-0.68,0.57-0.68,1.27c0,0.7,0.32,1.26,0.71,1.26c0.37-0.01,0.67-0.57,0.66-1.26
					C73.32,119.32,73,118.77,72.63,118.78z M72.67,121.28c-0.38,0.01-0.68-0.55-0.69-1.23c0-0.69,0.28-1.26,0.66-1.26
					c0.37-0.01,0.67,0.56,0.68,1.25C73.32,120.72,73.02,121.28,72.67,121.28z"/>
				<path fill="#D51012" d="M72.63,118.79c-0.38,0-0.66,0.57-0.66,1.26c0.01,0.68,0.31,1.24,0.69,1.23c0.35,0,0.66-0.55,0.65-1.24
					C73.31,119.35,73,118.78,72.63,118.79z M72.67,121.26c-0.38,0-0.67-0.54-0.68-1.21c0-0.68,0.29-1.23,0.64-1.23
					c0.36,0,0.66,0.54,0.67,1.22C73.31,120.7,73.02,121.26,72.67,121.26z"/>
				<path fill="#D71315" d="M72.63,118.82c-0.36,0-0.65,0.55-0.64,1.23c0.01,0.68,0.3,1.21,0.68,1.21c0.35,0,0.64-0.56,0.64-1.22
					C73.3,119.36,72.99,118.82,72.63,118.82z M72.67,121.23c-0.35,0.01-0.65-0.53-0.65-1.18c-0.01-0.66,0.26-1.2,0.63-1.2
					c0.35,0,0.64,0.53,0.64,1.19C73.3,120.69,73.02,121.22,72.67,121.23z"/>
				<path fill="#D81718" d="M72.64,118.85c-0.37,0-0.64,0.54-0.63,1.2c0,0.65,0.3,1.19,0.65,1.18c0.35-0.01,0.63-0.54,0.62-1.19
					C73.29,119.38,72.99,118.85,72.64,118.85z M72.67,121.2c-0.35,0.01-0.64-0.51-0.64-1.15c-0.01-0.64,0.26-1.17,0.62-1.17
					c0.35-0.01,0.63,0.52,0.64,1.16C73.29,120.68,73,121.2,72.67,121.2z"/>
				<path fill="#D91A1C" d="M72.64,118.88c-0.36,0-0.63,0.53-0.62,1.17c0,0.64,0.29,1.16,0.64,1.15c0.34,0,0.62-0.52,0.62-1.16
					C73.27,119.4,72.99,118.87,72.64,118.88z M72.67,121.19c-0.34,0-0.62-0.51-0.62-1.14c-0.02-0.63,0.27-1.14,0.6-1.14
					c0.35-0.01,0.6,0.5,0.63,1.13C73.27,120.66,73,121.18,72.67,121.19z"/>
				<path fill="#DB1E1F" d="M72.64,118.91c-0.33,0-0.62,0.51-0.6,1.14c0,0.63,0.28,1.14,0.62,1.14c0.34-0.01,0.61-0.52,0.61-1.15
					C73.25,119.41,72.99,118.9,72.64,118.91z M72.67,121.15c-0.33,0-0.61-0.5-0.61-1.1c-0.01-0.62,0.25-1.12,0.59-1.12
					c0.34,0,0.6,0.49,0.6,1.12C73.27,120.65,73,121.15,72.67,121.15z"/>
				<path fill="#DC2122" d="M72.64,118.93c-0.33,0-0.6,0.49-0.59,1.12c0,0.6,0.28,1.1,0.61,1.1c0.34,0,0.6-0.5,0.58-1.1
					C73.25,119.42,72.98,118.93,72.64,118.93z M72.67,121.13c-0.32,0-0.59-0.48-0.59-1.07c-0.02-0.62,0.25-1.1,0.56-1.1
					c0.33,0,0.6,0.48,0.6,1.09C73.25,120.64,72.99,121.13,72.67,121.13z"/>
				<path fill="#DD2526" d="M72.64,118.95c-0.32,0.01-0.59,0.49-0.56,1.1c0,0.59,0.26,1.07,0.59,1.07c0.33,0,0.58-0.49,0.58-1.08
					C73.24,119.44,72.97,118.95,72.64,118.95z M72.67,121.1c-0.3,0.01-0.57-0.46-0.57-1.04c-0.01-0.6,0.24-1.08,0.55-1.08
					c0.33,0,0.59,0.47,0.59,1.06C73.24,120.64,72.99,121.1,72.67,121.1z"/>
				<path fill="#DF2829" d="M72.64,118.98c-0.31,0-0.56,0.48-0.55,1.08c0,0.58,0.27,1.05,0.57,1.04c0.32,0,0.58-0.46,0.57-1.06
					C73.23,119.45,72.97,118.98,72.64,118.98z M72.67,121.08c-0.3,0.01-0.56-0.45-0.57-1.02c-0.01-0.58,0.24-1.05,0.57-1.05
					c0.31,0,0.55,0.45,0.55,1.03C73.23,120.62,72.99,121.08,72.67,121.08z"/>
				<path fill="#E02C2D" d="M72.67,119.01c-0.32,0-0.57,0.47-0.57,1.05c0.01,0.56,0.26,1.02,0.57,1.02c0.32,0,0.57-0.46,0.55-1.03
					C73.22,119.46,72.97,119.01,72.67,119.01z M72.68,121.05c-0.31,0-0.55-0.44-0.56-0.99c-0.02-0.57,0.24-1.02,0.54-1.02
					c0.28,0,0.53,0.44,0.55,1C73.22,120.6,72.98,121.05,72.68,121.05z"/>
				<path fill="#E22F30" d="M72.67,119.04c-0.3,0-0.56,0.45-0.54,1.02c0.01,0.56,0.25,0.99,0.56,0.99c0.3,0,0.54-0.46,0.54-1.01
					C73.2,119.48,72.95,119.04,72.67,119.04z M72.68,121.04c-0.3,0-0.53-0.44-0.54-0.98c-0.01-0.55,0.23-0.99,0.53-0.99
					c0.28,0,0.53,0.44,0.53,0.98C73.2,120.59,72.97,121.02,72.68,121.04z"/>
				<path fill="#E33333" d="M72.67,119.07c-0.3,0-0.53,0.44-0.53,0.99c0.01,0.54,0.24,0.98,0.54,0.98c0.29-0.02,0.52-0.45,0.52-0.99
					C73.2,119.5,72.95,119.07,72.67,119.07z M72.68,121.01c-0.28,0-0.52-0.42-0.53-0.95c0-0.53,0.23-0.96,0.52-0.97
					c0.28,0,0.51,0.43,0.51,0.95C73.2,120.57,72.97,120.99,72.68,121.01z"/>
				<path fill="#E43637" d="M72.67,119.09c-0.29,0.01-0.52,0.44-0.52,0.97c0.02,0.53,0.25,0.95,0.53,0.95
					c0.29-0.01,0.52-0.44,0.49-0.96C73.18,119.52,72.95,119.09,72.67,119.09z M72.68,120.98c-0.27,0-0.51-0.41-0.52-0.92
					c0-0.51,0.22-0.94,0.5-0.94s0.51,0.41,0.51,0.93C73.18,120.56,72.97,120.98,72.68,120.98z"/>
				<path fill="#E63A3A" d="M72.67,119.12c-0.28,0-0.5,0.43-0.5,0.94c0.01,0.51,0.24,0.92,0.52,0.92c0.29,0,0.49-0.42,0.49-0.93
					C73.18,119.53,72.95,119.12,72.67,119.12z M72.68,120.95c-0.27,0-0.48-0.4-0.5-0.89c0-0.51,0.22-0.91,0.49-0.91
					c0.27,0,0.49,0.41,0.49,0.9C73.16,120.55,72.95,120.94,72.68,120.95z"/>
				<path fill="#E73D3E" d="M72.67,119.15c-0.27,0-0.49,0.41-0.49,0.91c0.02,0.5,0.24,0.89,0.5,0.89c0.26-0.02,0.48-0.41,0.48-0.91
					C73.16,119.55,72.93,119.15,72.67,119.15z M72.68,120.93c-0.24,0-0.46-0.38-0.48-0.87c0-0.49,0.21-0.88,0.46-0.88
					c0.27,0,0.48,0.38,0.48,0.87C73.16,120.54,72.95,120.93,72.68,120.93z"/>
				<path fill="#E84141" d="M72.67,119.18c-0.26,0.01-0.46,0.39-0.46,0.88c0.01,0.49,0.23,0.87,0.48,0.87
					c0.26,0,0.47-0.39,0.47-0.88C73.15,119.56,72.93,119.18,72.67,119.18z M72.7,120.9c-0.26,0.01-0.48-0.38-0.48-0.84
					c0-0.47,0.2-0.85,0.45-0.85c0.27-0.01,0.48,0.37,0.48,0.84C73.15,120.52,72.95,120.9,72.7,120.9z"/>
				<path fill="#EA4444" d="M72.67,119.21c-0.25,0-0.45,0.38-0.45,0.85c0,0.46,0.22,0.85,0.48,0.84c0.25,0,0.45-0.38,0.45-0.86
					C73.14,119.58,72.93,119.2,72.67,119.21z M72.7,120.88c-0.26,0-0.46-0.38-0.46-0.82c0-0.41,0.16-0.76,0.38-0.82
					c0.02-0.02,0.03-0.04,0.05-0.04c0.01,0,0.02,0.02,0.04,0.03c0.23,0.01,0.42,0.37,0.42,0.82
					C73.14,120.51,72.93,120.87,72.7,120.88z"/>
				<path fill="#EB4848" d="M72.7,119.24c0.01,0.01,0.01,0.01,0.01,0.03c0.22,0.03,0.39,0.37,0.4,0.79c0,0.44-0.18,0.79-0.42,0.79
					c-0.26,0-0.45-0.35-0.45-0.79c0-0.38,0.14-0.7,0.34-0.78c0-0.01,0.01-0.03,0.03-0.04c-0.22,0.06-0.38,0.41-0.38,0.82
					c0,0.45,0.21,0.82,0.46,0.82c0.23-0.01,0.44-0.38,0.42-0.82C73.13,119.61,72.93,119.25,72.7,119.24z"/>
				<path fill="#EC4B4B" d="M73.11,120.06c0,0.42-0.17,0.76-0.41,0.76c-0.23,0-0.43-0.33-0.43-0.76c0-0.36,0.12-0.64,0.29-0.74
					c0.01-0.02,0.02-0.04,0.03-0.04c-0.19,0.08-0.34,0.41-0.34,0.78c0,0.44,0.19,0.79,0.45,0.79
					C72.93,120.85,73.12,120.5,73.11,120.06c0-0.42-0.17-0.76-0.39-0.79c0.01,0.01,0.03,0.01,0.03,0.03
					C72.95,119.35,73.1,119.65,73.11,120.06z"/>
				<path fill="#EE4F4E" d="M72.28,120.06c0,0.43,0.2,0.76,0.43,0.76c0.23,0,0.41-0.35,0.41-0.76c-0.01-0.41-0.16-0.71-0.37-0.77
					c0.01,0.01,0.01,0.03,0.01,0.03c0.2,0.07,0.34,0.37,0.34,0.74c0.01,0.41-0.17,0.73-0.39,0.73
					C72.49,120.81,72.29,120.47,72.28,120.06c0.01-0.33,0.12-0.6,0.28-0.7c0-0.02,0-0.04,0-0.04
					C72.4,119.42,72.28,119.7,72.28,120.06z"/>
				<path fill="#EF5252" d="M72.29,120.06c0,0.41,0.2,0.75,0.42,0.73c0.23,0,0.4-0.33,0.39-0.73c0-0.38-0.15-0.68-0.34-0.74
					c0,0.01,0.02,0.02,0.02,0.04c0.18,0.06,0.31,0.34,0.31,0.7c0.01,0.41-0.17,0.72-0.38,0.72c-0.02,0-0.03,0-0.04,0l0,0
					c-0.02,0-0.02,0-0.02-0.01c-0.2-0.06-0.33-0.34-0.33-0.71c0-0.3,0.09-0.56,0.23-0.66c0.01-0.01,0.01-0.03,0.02-0.04
					C72.4,119.45,72.28,119.73,72.29,120.06z"/>
				<path fill="#F05655" d="M73.08,120.06c0-0.36-0.13-0.64-0.31-0.7c0,0.01,0,0.01,0,0.03C72.93,119.44,73.08,119.72,73.08,120.06
					c0,0.12-0.02,0.23-0.05,0.33c-0.03,0.1-0.06,0.17-0.1,0.23c-0.07,0.08-0.14,0.13-0.23,0.14l0,0c-0.02,0.01-0.02,0.02-0.04,0.02
					c0.01,0,0.02,0,0.04,0C72.91,120.78,73.09,120.46,73.08,120.06z"/>
				<path fill="#F05655" d="M72.31,120.06c0,0.36,0.13,0.65,0.33,0.71c-0.01-0.01-0.03-0.02-0.05-0.04
					c-0.14-0.08-0.26-0.35-0.26-0.66c0-0.27,0.08-0.51,0.22-0.64c0-0.01,0-0.01,0-0.03C72.4,119.5,72.31,119.76,72.31,120.06z"/>
				<path fill="#F25A59" d="M72.33,120.06c0,0.31,0.12,0.58,0.26,0.66c0-0.02-0.01-0.03-0.03-0.08c-0.11-0.1-0.2-0.32-0.22-0.57
					c-0.02-0.28,0.05-0.53,0.2-0.64c0,0,0,0,0-0.01C72.41,119.55,72.33,119.79,72.33,120.06z"/>
				<path fill="#F25A59" d="M73.06,120.05c0.02,0.12,0,0.24-0.03,0.35c0.03-0.1,0.05-0.21,0.05-0.33c0-0.34-0.14-0.62-0.31-0.67
					c0,0.02,0.01,0.03,0.02,0.03C72.93,119.51,73.04,119.75,73.06,120.05z"/>
				<path fill="#F25A59" d="M72.93,120.62c-0.05,0.07-0.12,0.1-0.18,0.11c-0.01,0-0.02,0-0.03-0.01c0,0.02,0,0.03-0.01,0.04l0,0
					C72.79,120.75,72.86,120.7,72.93,120.62z"/>
				<path fill="#F35D5C" d="M72.35,120.08c0.02,0.25,0.1,0.47,0.22,0.57c-0.05-0.13-0.08-0.38-0.08-0.66c0-0.2,0.02-0.4,0.06-0.56
					C72.4,119.55,72.33,119.8,72.35,120.08z"/>
				<path fill="#F35D5C" d="M72.93,120.62c0.05-0.06,0.08-0.13,0.1-0.23c0.03-0.1,0.05-0.23,0.03-0.35
					c-0.02-0.29-0.13-0.54-0.27-0.62c0.03,0.14,0.06,0.35,0.06,0.57c0,0.34-0.06,0.62-0.13,0.73c0.01,0.01,0.03,0.01,0.03,0.01
					C72.81,120.72,72.88,120.69,72.93,120.62z"/>
				<path fill="#D10507" d="M81.82,118.89c-0.01-0.74-0.33-1.33-0.73-1.33c-0.38,0.02-0.7,0.62-0.7,1.35
					c0.02,0.72,0.34,1.31,0.73,1.31C81.52,120.21,81.83,119.62,81.82,118.89z M81.12,120.19c-0.37,0-0.69-0.57-0.71-1.28
					c0-0.72,0.3-1.3,0.69-1.3c0.38,0,0.7,0.57,0.71,1.29C81.82,119.6,81.52,120.19,81.12,120.19z"/>
				<path fill="#D3090B" d="M81.82,118.89c-0.01-0.71-0.34-1.29-0.71-1.29c-0.39,0-0.69,0.58-0.69,1.3
					c0.02,0.72,0.34,1.28,0.71,1.28C81.52,120.19,81.82,119.6,81.82,118.89z M81.13,120.16c-0.38,0-0.69-0.57-0.7-1.26
					c0-0.71,0.3-1.29,0.67-1.29s0.7,0.57,0.7,1.28C81.81,119.59,81.52,120.16,81.13,120.16z"/>
				<path fill="#D40C0E" d="M81.8,118.9c0-0.71-0.32-1.28-0.7-1.28s-0.67,0.58-0.67,1.29c0.01,0.69,0.32,1.26,0.7,1.26
					C81.52,120.16,81.81,119.59,81.8,118.9z M81.13,120.14c-0.37,0-0.69-0.56-0.69-1.24c0-0.69,0.28-1.26,0.66-1.26
					s0.68,0.56,0.69,1.25C81.8,119.58,81.5,120.13,81.13,120.14z"/>
				<path fill="#D51012" d="M81.79,118.9c-0.01-0.69-0.31-1.25-0.69-1.25s-0.66,0.57-0.66,1.26c0,0.68,0.32,1.24,0.69,1.24
					C81.5,120.13,81.8,119.58,81.79,118.9z M81.14,120.12c-0.38,0.01-0.67-0.54-0.68-1.21c0-0.67,0.29-1.23,0.64-1.23
					c0.38,0,0.67,0.54,0.68,1.22C81.78,119.56,81.5,120.11,81.14,120.12z"/>
				<path fill="#D71315" d="M81.78,118.9c-0.01-0.68-0.3-1.22-0.68-1.22c-0.35,0-0.64,0.56-0.64,1.23c0.01,0.67,0.31,1.22,0.68,1.21
					C81.5,120.11,81.78,119.56,81.78,118.9z M81.14,120.1c-0.35,0-0.65-0.54-0.66-1.19c-0.02-0.66,0.27-1.2,0.62-1.2
					c0.35-0.01,0.65,0.53,0.65,1.19C81.78,119.55,81.5,120.09,81.14,120.1z"/>
				<path fill="#D81718" d="M81.76,118.9c0-0.66-0.29-1.2-0.65-1.19c-0.36,0-0.64,0.54-0.62,1.2c0.01,0.65,0.3,1.19,0.66,1.19
					C81.5,120.09,81.78,119.55,81.76,118.9z M81.14,120.06c-0.35,0-0.63-0.51-0.64-1.15c-0.01-0.64,0.27-1.17,0.61-1.17
					c0.35-0.01,0.63,0.52,0.64,1.16C81.76,119.55,81.48,120.06,81.14,120.06z"/>
				<path fill="#D91A1C" d="M81.75,118.9c0-0.64-0.29-1.17-0.64-1.16c-0.34,0-0.62,0.53-0.61,1.17c0.01,0.64,0.29,1.15,0.64,1.15
					C81.48,120.06,81.76,119.55,81.75,118.9z M81.14,120.05c-0.34,0-0.62-0.49-0.62-1.12c-0.01-0.64,0.27-1.16,0.6-1.16
					c0.34-0.01,0.61,0.5,0.62,1.13C81.75,119.53,81.48,120.04,81.14,120.05z"/>
				<path fill="#DB1E1F" d="M81.75,118.9c-0.01-0.63-0.28-1.14-0.62-1.13c-0.33,0-0.61,0.52-0.6,1.16c0,0.63,0.28,1.12,0.62,1.12
					C81.48,120.04,81.75,119.53,81.75,118.9z M81.14,120.01c-0.34,0.01-0.61-0.49-0.61-1.09c-0.02-0.62,0.25-1.12,0.59-1.13
					c0.34,0,0.61,0.49,0.61,1.11C81.73,119.51,81.48,120.01,81.14,120.01z"/>
				<path fill="#DC2122" d="M81.73,118.9c0-0.62-0.27-1.11-0.61-1.11c-0.33,0.01-0.6,0.51-0.59,1.13c0,0.6,0.27,1.1,0.61,1.09
					C81.48,120.01,81.73,119.51,81.73,118.9z M80.55,118.92c0-0.61,0.26-1.1,0.58-1.1c0.33,0,0.59,0.48,0.61,1.08
					c0,0.59-0.26,1.09-0.59,1.09C80.83,119.99,80.55,119.51,80.55,118.92z"/>
				<path fill="#DD2526" d="M81.73,118.9c-0.02-0.6-0.28-1.08-0.61-1.08c-0.32,0-0.58,0.49-0.58,1.1c0.01,0.59,0.28,1.07,0.6,1.07
					C81.46,119.99,81.73,119.49,81.73,118.9z M80.57,118.92c-0.01-0.6,0.24-1.07,0.55-1.07c0.33-0.01,0.59,0.47,0.59,1.05
					c0,0.59-0.25,1.06-0.57,1.07C80.83,119.97,80.57,119.49,80.57,118.92z"/>
				<path fill="#DF2829" d="M81.71,118.9c0-0.58-0.26-1.06-0.59-1.05c-0.32,0-0.56,0.47-0.55,1.07c0,0.57,0.26,1.05,0.58,1.04
					C81.46,119.95,81.71,119.48,81.71,118.9z M80.59,118.92c-0.02-0.58,0.24-1.04,0.55-1.05c0.31,0,0.56,0.45,0.57,1.04
					c0.01,0.56-0.24,1.02-0.56,1.02C80.83,119.94,80.59,119.48,80.59,118.92z"/>
				<path fill="#E02C2D" d="M81.7,118.91c-0.01-0.59-0.26-1.04-0.57-1.04c-0.31,0.01-0.57,0.47-0.55,1.05
					c0,0.56,0.25,1.02,0.56,1.01C81.46,119.93,81.71,119.46,81.7,118.91z M80.59,118.92c-0.01-0.57,0.24-1.02,0.54-1.02
					c0.3,0,0.54,0.44,0.56,1.01c0,0.55-0.23,1-0.54,1.01C80.86,119.92,80.6,119.46,80.59,118.92z"/>
				<path fill="#E22F30" d="M81.69,118.91c-0.02-0.57-0.25-1.01-0.56-1.01c-0.3,0-0.55,0.45-0.54,1.02c0.01,0.54,0.26,1,0.56,1
					C81.46,119.91,81.69,119.45,81.69,118.91z M80.61,118.92c-0.01-0.55,0.22-0.99,0.53-1c0.28,0,0.53,0.44,0.53,0.99
					c0,0.53-0.23,0.98-0.52,0.99C80.87,119.9,80.62,119.45,80.61,118.92z"/>
				<path fill="#E33333" d="M81.15,119.9c0.29-0.01,0.52-0.46,0.52-0.99c0-0.55-0.25-0.99-0.53-0.99c-0.31,0.01-0.54,0.45-0.53,1
					C80.62,119.45,80.87,119.9,81.15,119.9z M80.64,118.92c-0.02-0.53,0.22-0.96,0.5-0.97c0.28,0,0.51,0.43,0.52,0.96
					c0.01,0.51-0.22,0.94-0.51,0.96C80.87,119.87,80.64,119.44,80.64,118.92z"/>
				<path fill="#E43637" d="M81.15,119.87c0.29-0.01,0.52-0.44,0.51-0.96c-0.01-0.53-0.25-0.96-0.52-0.96
					c-0.29,0.01-0.52,0.44-0.5,0.97C80.64,119.44,80.87,119.87,81.15,119.87z M80.64,118.92c0-0.52,0.23-0.94,0.5-0.94
					c0.28,0,0.51,0.42,0.51,0.93c0,0.51-0.21,0.93-0.5,0.93C80.88,119.84,80.65,119.42,80.64,118.92z"/>
				<path fill="#E63A3A" d="M81.15,119.84c0.29,0,0.5-0.42,0.5-0.93c0-0.51-0.23-0.93-0.51-0.93c-0.28,0-0.5,0.42-0.5,0.94
					C80.65,119.42,80.88,119.84,81.15,119.84z M80.66,118.92c0-0.5,0.21-0.91,0.48-0.91c0.26,0,0.5,0.41,0.5,0.9
					c0.01,0.5-0.21,0.91-0.49,0.91C80.89,119.82,80.68,119.42,80.66,118.92z"/>
				<path fill="#E73D3E" d="M81.15,119.82c0.28,0,0.5-0.41,0.49-0.91c0-0.49-0.23-0.9-0.5-0.9c-0.27,0.01-0.48,0.41-0.48,0.91
					C80.68,119.42,80.89,119.82,81.15,119.82z M80.68,118.92c-0.01-0.49,0.21-0.88,0.46-0.89c0.26,0,0.48,0.39,0.49,0.87
					c0,0.49-0.21,0.88-0.48,0.88C80.91,119.79,80.68,119.41,80.68,118.92z"/>
				<path fill="#E84141" d="M81.15,119.79c0.27,0,0.48-0.39,0.48-0.88c-0.01-0.49-0.22-0.87-0.49-0.87
					c-0.26,0.01-0.47,0.39-0.46,0.89C80.68,119.41,80.91,119.79,81.15,119.79z M80.69,118.92c0-0.46,0.2-0.86,0.45-0.86
					c0.26-0.01,0.48,0.36,0.48,0.86c0,0.46-0.2,0.84-0.45,0.84C80.91,119.77,80.71,119.39,80.69,118.92z"/>
				<path fill="#EA4444" d="M81.17,119.76c0.25,0,0.45-0.38,0.45-0.84c0-0.49-0.21-0.87-0.48-0.86c-0.26,0-0.45,0.4-0.45,0.86
					C80.71,119.39,80.91,119.77,81.17,119.76z M80.72,118.92c0-0.46,0.19-0.83,0.44-0.83c0.24,0,0.45,0.37,0.46,0.83
					c0,0.44-0.2,0.82-0.44,0.82C80.92,119.74,80.72,119.37,80.72,118.92z"/>
				<path fill="#EB4848" d="M81.17,119.74c0.24,0,0.44-0.37,0.44-0.82c-0.01-0.46-0.22-0.83-0.46-0.83c-0.25,0-0.44,0.37-0.44,0.83
					C80.72,119.37,80.92,119.74,81.17,119.74z M80.73,118.92c0-0.45,0.19-0.8,0.42-0.81c0.24,0,0.43,0.36,0.44,0.81
					c0.01,0.44-0.19,0.79-0.43,0.79c-0.01,0-0.02,0-0.02,0c-0.01,0.01-0.03,0.02-0.04,0.02c-0.03,0-0.04-0.02-0.06-0.05
					C80.87,119.59,80.73,119.28,80.73,118.92z"/>
				<path fill="#EC4B4B" d="M81.05,119.68c0,0-0.02-0.03-0.02-0.05c-0.16-0.08-0.28-0.39-0.28-0.72c0-0.42,0.17-0.77,0.4-0.77
					c0.23-0.01,0.43,0.33,0.43,0.77c0,0.42-0.18,0.76-0.41,0.76l0,0c-0.02,0.01-0.02,0.02-0.02,0.03c0,0,0.01,0,0.02,0
					c0.24,0,0.43-0.35,0.43-0.79c-0.01-0.45-0.2-0.81-0.44-0.81c-0.23,0.01-0.42,0.36-0.42,0.81
					C80.73,119.28,80.87,119.59,81.05,119.68z"/>
				<path fill="#EE4F4E" d="M80.77,118.92c0-0.35,0.12-0.64,0.28-0.72c0.03-0.02,0.04-0.04,0.06-0.04c0.01,0,0.02,0,0.03,0.02h0.01
					c0.23-0.02,0.42,0.32,0.42,0.74c0.01,0.4-0.16,0.73-0.38,0.73c-0.02,0.03-0.02,0.03-0.02,0.03l0,0c0.24,0,0.41-0.34,0.41-0.76
					c-0.01-0.44-0.2-0.78-0.43-0.77c-0.23,0-0.4,0.34-0.4,0.77c0,0.33,0.12,0.63,0.28,0.72c-0.01-0.01-0.01-0.01-0.01-0.04
					C80.87,119.49,80.77,119.24,80.77,118.92z"/>
				<path fill="#EF5252" d="M81.57,118.92c0-0.42-0.18-0.76-0.42-0.74h-0.01c0,0.01,0.01,0.01,0.02,0.02
					C81.37,118.2,81.57,118.52,81.57,118.92c0,0.38-0.16,0.7-0.38,0.72c0,0.01,0,0.02,0,0.02
					C81.41,119.65,81.58,119.32,81.57,118.92z"/>
				<path fill="#EF5252" d="M80.77,118.92c0,0.31,0.1,0.57,0.26,0.67c0-0.01-0.02-0.02-0.03-0.04c-0.12-0.12-0.21-0.35-0.21-0.63
					c0-0.32,0.1-0.59,0.25-0.69c0.02-0.01,0.02-0.03,0.02-0.04C80.89,118.28,80.77,118.58,80.77,118.92z"/>
				<path fill="#F05655" d="M81.57,118.92c0-0.41-0.19-0.72-0.4-0.72c0.01,0.01,0.01,0.02,0.03,0.03c0.19,0.01,0.36,0.33,0.36,0.7
					c0,0.12-0.02,0.23-0.05,0.33c-0.02,0.1-0.06,0.17-0.11,0.24c-0.06,0.07-0.11,0.11-0.18,0.12c-0.01,0.02-0.01,0.02-0.02,0.03
					C81.41,119.62,81.57,119.3,81.57,118.92z"/>
				<path fill="#F05655" d="M80.79,118.93c0,0.28,0.08,0.51,0.21,0.63c0-0.01,0-0.02-0.01-0.04c-0.11-0.11-0.18-0.34-0.18-0.59
					c0-0.29,0.08-0.53,0.22-0.65c0-0.01,0-0.03,0.01-0.05C80.89,118.34,80.79,118.61,80.79,118.93z"/>
				<path fill="#F25A59" d="M81.4,119.48c-0.04,0.07-0.1,0.09-0.18,0.1h0c0,0.01,0,0.01,0,0.02
					C81.28,119.6,81.33,119.55,81.4,119.48z"/>
				<path fill="#F25A59" d="M80.8,118.93c0,0.25,0.07,0.48,0.18,0.59c-0.01-0.03-0.01-0.06-0.02-0.09c-0.08-0.12-0.14-0.29-0.14-0.5
					c-0.02-0.29,0.05-0.51,0.2-0.62c0-0.01,0-0.03,0-0.03C80.89,118.4,80.8,118.64,80.8,118.93z"/>
				<path fill="#F25A59" d="M81.53,118.9c0.02,0.14,0,0.25-0.02,0.35c0.02-0.1,0.05-0.21,0.05-0.33c0-0.37-0.16-0.69-0.36-0.7
					c0,0.01,0,0.03,0,0.04C81.37,118.31,81.52,118.57,81.53,118.9z"/>
				<path fill="#F35D5C" d="M81.4,119.48c0.05-0.06,0.09-0.13,0.11-0.24c0.02-0.1,0.05-0.21,0.02-0.35
					c-0.01-0.33-0.15-0.59-0.33-0.63c0.06,0.13,0.1,0.38,0.1,0.68c0,0.27-0.03,0.49-0.08,0.64h0
					C81.29,119.58,81.35,119.55,81.4,119.48z"/>
				<path fill="#F35D5C" d="M80.83,118.94c0,0.21,0.06,0.38,0.14,0.5c-0.02-0.14-0.03-0.31-0.03-0.49c0-0.26,0.02-0.49,0.09-0.64
					C80.87,118.42,80.8,118.65,80.83,118.94z"/>
				<path fill="#D00204" d="M81.32,112.23c0.41,0,0.72-0.61,0.72-1.35c-0.01-0.75-0.35-1.35-0.74-1.35c-0.41,0-0.73,0.61-0.72,1.35
					C80.59,111.63,80.92,112.23,81.32,112.23z M81.3,109.56c0.39,0,0.72,0.59,0.73,1.32c0,0.73-0.31,1.31-0.71,1.32
					c-0.4,0-0.72-0.58-0.73-1.31C80.59,110.17,80.91,109.56,81.3,109.56z"/>
				<path fill="#D10507" d="M81.32,112.2c0.4-0.01,0.71-0.59,0.71-1.32c-0.01-0.74-0.34-1.32-0.73-1.32
					c-0.39,0.01-0.71,0.61-0.71,1.33C80.6,111.62,80.92,112.2,81.32,112.2z M81.3,109.58c0.39,0,0.72,0.58,0.72,1.29
					c0.01,0.71-0.31,1.3-0.69,1.3s-0.71-0.58-0.72-1.28C80.6,110.18,80.91,109.59,81.3,109.58z"/>
				<path fill="#D3090B" d="M81.33,112.18c0.38,0,0.7-0.59,0.69-1.3c0-0.71-0.33-1.29-0.72-1.29c-0.39,0.01-0.69,0.59-0.69,1.31
					C80.62,111.6,80.94,112.18,81.33,112.18z M81.3,109.61c0.38,0,0.7,0.56,0.71,1.26c0.01,0.7-0.29,1.26-0.67,1.27
					c-0.38,0-0.69-0.57-0.71-1.26C80.62,110.18,80.92,109.62,81.3,109.61z"/>
				<path fill="#D40C0E" d="M81.33,112.15c0.38-0.01,0.68-0.58,0.67-1.27c-0.01-0.7-0.33-1.26-0.71-1.26
					c-0.38,0.01-0.68,0.56-0.68,1.28C80.64,111.59,80.95,112.15,81.33,112.15z M81.3,109.64c0.38,0,0.69,0.54,0.7,1.24
					c0,0.68-0.29,1.25-0.66,1.25c-0.37,0.01-0.68-0.55-0.69-1.23C80.64,110.21,80.94,109.64,81.3,109.64z"/>
				<path fill="#D51012" d="M81.33,112.12c0.38,0,0.66-0.57,0.66-1.25c-0.01-0.69-0.32-1.24-0.7-1.24c-0.36,0-0.66,0.56-0.66,1.26
					C80.65,111.57,80.96,112.13,81.33,112.12z M81.31,109.67c0.37,0,0.67,0.54,0.67,1.21c0.01,0.67-0.29,1.22-0.64,1.23
					c-0.36,0-0.66-0.55-0.67-1.21C80.66,110.22,80.94,109.68,81.31,109.67z"/>
				<path fill="#D71315" d="M81.33,112.1c0.36-0.01,0.65-0.56,0.64-1.23c0-0.67-0.3-1.21-0.67-1.21c-0.36,0.01-0.64,0.55-0.64,1.23
					C80.68,111.56,80.97,112.1,81.33,112.1z M81.31,109.7c0.37-0.01,0.65,0.52,0.65,1.18c0.02,0.67-0.26,1.19-0.62,1.2
					c-0.35,0-0.64-0.53-0.65-1.18C80.68,110.23,80.95,109.7,81.31,109.7z"/>
				<path fill="#D81718" d="M81.33,112.07c0.36-0.01,0.64-0.53,0.62-1.2c0-0.66-0.28-1.19-0.65-1.18c-0.35,0-0.63,0.53-0.62,1.2
					C80.69,111.55,80.98,112.07,81.33,112.07z M81.32,109.73c0.35-0.01,0.63,0.5,0.63,1.16c0,0.64-0.26,1.16-0.62,1.16
					c-0.35,0-0.62-0.5-0.64-1.15C80.69,110.25,80.96,109.73,81.32,109.73z"/>
				<path fill="#D91A1C" d="M81.33,112.05c0.36,0,0.62-0.52,0.62-1.16c0-0.65-0.29-1.17-0.63-1.16c-0.36,0-0.63,0.52-0.63,1.17
					C80.71,111.55,80.99,112.05,81.33,112.05z M81.32,109.74c0.33,0,0.62,0.51,0.63,1.14c0,0.63-0.28,1.14-0.62,1.14
					c-0.34,0.01-0.61-0.5-0.62-1.13C80.71,110.27,80.98,109.76,81.32,109.74z"/>
				<path fill="#DB1E1F" d="M81.33,112.03c0.34,0,0.62-0.51,0.62-1.14c-0.01-0.63-0.3-1.14-0.63-1.14c-0.34,0.01-0.61,0.53-0.6,1.15
					C80.72,111.53,81,112.04,81.33,112.03z M81.32,109.77c0.33,0,0.6,0.5,0.62,1.11c0,0.61-0.26,1.11-0.6,1.11
					c-0.31,0.01-0.6-0.48-0.6-1.1C80.73,110.28,80.99,109.77,81.32,109.77z"/>
				<path fill="#DC2122" d="M81.33,112c0.34,0,0.6-0.5,0.6-1.11c-0.01-0.61-0.28-1.11-0.62-1.11c-0.33,0-0.59,0.51-0.59,1.13
					C80.73,111.52,81.02,112.01,81.33,112z M81.32,109.81c0.33-0.01,0.6,0.47,0.6,1.07c0,0.6-0.25,1.08-0.57,1.08
					c-0.33,0.01-0.6-0.47-0.6-1.07C80.75,110.29,81,109.81,81.32,109.81z"/>
				<path fill="#DD2526" d="M81.35,111.97c0.32,0,0.57-0.48,0.57-1.08c-0.01-0.6-0.27-1.09-0.6-1.07c-0.32,0-0.57,0.48-0.57,1.09
					C80.75,111.5,81.02,111.98,81.35,111.97z M81.33,109.83c0.33-0.01,0.58,0.46,0.58,1.06c0.01,0.59-0.24,1.07-0.56,1.07
					c-0.32,0-0.59-0.46-0.59-1.05C80.77,110.31,81.02,109.83,81.33,109.83z"/>
				<path fill="#DF2829" d="M81.35,111.95c0.31,0,0.57-0.48,0.56-1.07c0-0.59-0.25-1.06-0.58-1.06c-0.3,0-0.56,0.48-0.56,1.07
					C80.77,111.49,81.04,111.95,81.35,111.95z M81.33,109.86c0.31-0.01,0.56,0.45,0.56,1.03c0.01,0.57-0.24,1.04-0.54,1.04
					c-0.31,0-0.56-0.45-0.56-1.03C80.79,110.33,81.02,109.87,81.33,109.86z"/>
				<path fill="#E02C2D" d="M81.35,111.92c0.3,0,0.56-0.47,0.54-1.04c0-0.57-0.25-1.03-0.56-1.03c-0.31,0.01-0.54,0.47-0.54,1.04
					C80.79,111.47,81.04,111.92,81.35,111.92z M81.33,109.89c0.3,0,0.55,0.44,0.55,1.01c0.01,0.55-0.23,1-0.53,1.01
					c-0.3,0-0.55-0.46-0.55-1C80.79,110.34,81.04,109.9,81.33,109.89z"/>
				<path fill="#E22F30" d="M81.35,111.91c0.3-0.01,0.54-0.46,0.53-1.01c0-0.57-0.25-1.01-0.55-1.01c-0.3,0.01-0.54,0.45-0.53,1.02
					C80.8,111.45,81.05,111.91,81.35,111.91z M81.33,109.91c0.3,0,0.54,0.44,0.54,0.99c0.01,0.52-0.22,0.98-0.52,0.98
					c-0.28,0-0.53-0.44-0.53-0.97C80.8,110.36,81.05,109.92,81.33,109.91z"/>
				<path fill="#E33333" d="M81.35,111.88c0.3,0,0.53-0.45,0.52-0.98c0-0.55-0.24-0.99-0.54-0.99c-0.28,0.01-0.53,0.45-0.51,1
					C80.83,111.43,81.07,111.88,81.35,111.88z M81.33,109.94c0.29,0,0.52,0.42,0.53,0.95c0.01,0.52-0.21,0.95-0.51,0.95
					c-0.27,0-0.52-0.43-0.52-0.95C80.83,110.38,81.05,109.94,81.33,109.94z"/>
				<path fill="#E43637" d="M81.35,111.85c0.3,0,0.52-0.44,0.51-0.95c0-0.54-0.24-0.95-0.53-0.95c-0.28,0-0.51,0.43-0.5,0.96
					C80.83,111.42,81.08,111.85,81.35,111.85z M81.33,109.96c0.29,0,0.52,0.41,0.52,0.93c0,0.5-0.22,0.92-0.5,0.93
					c-0.27,0-0.5-0.41-0.5-0.92C80.83,110.39,81.07,109.97,81.33,109.96z"/>
				<path fill="#E63A3A" d="M81.35,111.83c0.29-0.01,0.5-0.43,0.5-0.93c-0.01-0.52-0.24-0.93-0.52-0.93
					c-0.26,0.01-0.5,0.42-0.48,0.94C80.86,111.41,81.09,111.83,81.35,111.83z M81.27,110c0.01,0,0.02-0.01,0.02-0.01
					s0.01,0.01,0.02,0.01c0,0,0.01-0.01,0.03-0.01c0.27,0,0.48,0.4,0.5,0.91c0,0.5-0.22,0.91-0.5,0.91c-0.26,0-0.48-0.41-0.49-0.9
					C80.87,110.45,81.04,110.07,81.27,110z"/>
				<path fill="#E73D3E" d="M81.35,111.81c0.28,0,0.5-0.41,0.5-0.91c-0.02-0.5-0.23-0.91-0.5-0.91c-0.02,0-0.03,0.01-0.03,0.01
					c0.01,0,0.01,0.01,0.03,0.03c0.26-0.01,0.47,0.38,0.48,0.87c0,0.48-0.21,0.88-0.46,0.88c-0.27,0-0.48-0.39-0.49-0.88
					c-0.01-0.41,0.16-0.76,0.36-0.86c0.01-0.01,0.02-0.03,0.04-0.04c-0.24,0.07-0.41,0.44-0.41,0.9
					C80.87,111.4,81.09,111.81,81.35,111.81z"/>
				<path fill="#E84141" d="M81.82,110.9c0,0.47-0.2,0.85-0.44,0.85c-0.26,0.01-0.46-0.37-0.47-0.84c-0.01-0.38,0.14-0.72,0.32-0.82
					c0.01-0.02,0.01-0.04,0.02-0.05c-0.2,0.1-0.37,0.45-0.36,0.86c0.01,0.49,0.23,0.88,0.49,0.88c0.25,0,0.46-0.41,0.46-0.88
					c-0.01-0.49-0.22-0.88-0.48-0.87c0,0,0,0.01,0.02,0.02C81.62,110.06,81.82,110.44,81.82,110.9z"/>
				<path fill="#EA4444" d="M80.9,110.9c0.01,0.47,0.21,0.86,0.47,0.84c0.25,0,0.44-0.38,0.44-0.85c0-0.46-0.2-0.84-0.44-0.85
					c0,0,0,0.02,0.01,0.03c0.24,0.02,0.42,0.39,0.42,0.82c0.01,0.46-0.19,0.82-0.43,0.82c-0.25,0.01-0.45-0.37-0.45-0.82
					c-0.01-0.37,0.11-0.66,0.28-0.77c0.01-0.02,0.01-0.03,0.01-0.04C81.04,110.19,80.89,110.52,80.9,110.9z"/>
				<path fill="#EB4848" d="M80.92,110.9c0,0.45,0.2,0.82,0.45,0.82c0.25,0,0.44-0.37,0.43-0.82c-0.01-0.43-0.19-0.8-0.42-0.82
					c0,0.01,0,0.02,0.01,0.02c0.23,0.04,0.4,0.38,0.41,0.8c0,0.44-0.19,0.79-0.43,0.79C81.14,111.7,80.94,111.34,80.92,110.9
					c0-0.33,0.11-0.62,0.27-0.74c0-0.02,0-0.03,0.01-0.04C81.04,110.24,80.91,110.54,80.92,110.9z"/>
				<path fill="#EC4B4B" d="M80.92,110.91c0.02,0.43,0.22,0.79,0.45,0.77c0.24,0,0.43-0.35,0.43-0.79c-0.01-0.42-0.18-0.76-0.41-0.8
					c0,0.02,0.01,0.03,0.01,0.04c0.21,0.04,0.38,0.36,0.38,0.76c0.01,0.43-0.18,0.77-0.41,0.77c-0.23,0-0.42-0.35-0.42-0.77
					c-0.01-0.32,0.09-0.58,0.22-0.71c0.02-0.02,0.02-0.03,0.02-0.04C81.04,110.28,80.92,110.57,80.92,110.91z"/>
				<path fill="#EE4F4E" d="M80.95,110.91c0,0.42,0.19,0.77,0.42,0.77c0.23,0,0.42-0.35,0.41-0.77c0-0.4-0.16-0.73-0.38-0.76
					c0,0,0,0.01,0,0.03c0.21,0.05,0.37,0.36,0.38,0.74c0,0.41-0.18,0.74-0.41,0.74C81.15,111.64,80.97,111.32,80.95,110.91
					c0.01-0.29,0.1-0.54,0.22-0.66c0-0.02,0-0.03,0-0.05C81.04,110.33,80.94,110.6,80.95,110.91z"/>
				<path fill="#EF5252" d="M80.96,110.91c0.01,0.4,0.19,0.73,0.41,0.73c0.23,0,0.41-0.33,0.41-0.74c-0.01-0.38-0.16-0.69-0.38-0.74
					c0,0.01,0.01,0.01,0.01,0.02c0.19,0.06,0.34,0.35,0.34,0.72c0,0.38-0.16,0.72-0.39,0.72c-0.22,0-0.39-0.32-0.39-0.71
					c0-0.27,0.07-0.5,0.17-0.62c0.01-0.02,0.01-0.03,0.02-0.04C81.05,110.38,80.96,110.63,80.96,110.91z"/>
				<path fill="#F05655" d="M81.37,111.62c0.23,0,0.39-0.34,0.39-0.72c0-0.37-0.15-0.66-0.34-0.72c0,0.02,0,0.03,0,0.04
					c0.19,0.05,0.32,0.33,0.32,0.68c0,0.12-0.01,0.24-0.04,0.34c-0.04,0.09-0.06,0.17-0.11,0.23c-0.07,0.07-0.14,0.13-0.21,0.13
					c-0.21,0-0.39-0.32-0.39-0.69c0-0.24,0.06-0.45,0.16-0.57c0-0.01,0-0.03,0-0.05c-0.1,0.12-0.17,0.35-0.17,0.62
					C80.98,111.31,81.15,111.62,81.37,111.62z"/>
				<path fill="#F25A59" d="M81.39,111.6c0.07,0,0.14-0.06,0.21-0.13c-0.05,0.07-0.12,0.09-0.18,0.09c-0.04,0-0.07,0-0.09-0.01
					c-0.01,0-0.02,0-0.03,0c-0.02,0-0.05-0.01-0.07-0.07c-0.11-0.11-0.19-0.32-0.21-0.56c-0.03-0.24,0.03-0.45,0.13-0.57
					c0,0,0,0,0-0.01c-0.1,0.13-0.16,0.34-0.16,0.57C81,111.29,81.17,111.6,81.39,111.6z"/>
				<path fill="#F25A59" d="M81.73,110.89c0.01,0.13,0,0.25-0.02,0.36c0.02-0.1,0.04-0.21,0.04-0.34c0-0.35-0.13-0.63-0.32-0.68
					c0.01,0.01,0.01,0.03,0.03,0.04C81.59,110.33,81.72,110.58,81.73,110.89z"/>
				<path fill="#F35D5C" d="M81.6,111.47c0.06-0.06,0.07-0.14,0.11-0.23c0.02-0.1,0.04-0.23,0.02-0.36
					c-0.01-0.3-0.15-0.55-0.28-0.62c0.01,0.15,0.03,0.32,0.03,0.52c0,0.41-0.07,0.73-0.15,0.78c0.03,0.01,0.06,0.01,0.09,0.01
					C81.48,111.57,81.55,111.54,81.6,111.47z"/>
				<path fill="#F35D5C" d="M81.02,110.92c0.01,0.24,0.1,0.45,0.21,0.56c-0.06-0.13-0.11-0.4-0.11-0.71c0-0.16,0.02-0.31,0.03-0.43
					C81.05,110.47,81,110.69,81.02,110.92z"/>
				<path fill="#D00204" d="M71.26,110.17c-0.4,0.01-0.71,0.61-0.71,1.36c0.01,0.74,0.34,1.34,0.74,1.34
					c0.4-0.01,0.72-0.61,0.72-1.36C72,110.76,71.67,110.17,71.26,110.17z M71.29,112.84c-0.39,0-0.72-0.59-0.73-1.31
					c0-0.74,0.31-1.33,0.71-1.33c0.38-0.01,0.71,0.59,0.72,1.32C72.01,112.24,71.69,112.83,71.29,112.84z"/>
				<path fill="#D10507" d="M71.28,110.2c-0.4,0-0.71,0.59-0.71,1.33c0.01,0.73,0.34,1.31,0.73,1.31c0.4-0.01,0.72-0.6,0.71-1.33
					C71.99,110.78,71.66,110.19,71.28,110.2z M71.29,112.81c-0.38,0-0.7-0.58-0.71-1.28c0-0.72,0.31-1.31,0.7-1.31
					c0.37-0.01,0.7,0.57,0.71,1.29C71.99,112.23,71.69,112.81,71.29,112.81z"/>
				<path fill="#D3090B" d="M71.28,110.22c-0.39,0-0.7,0.59-0.7,1.31c0.01,0.71,0.34,1.28,0.71,1.28c0.4,0,0.7-0.59,0.7-1.3
					C71.97,110.79,71.65,110.22,71.28,110.22z M71.3,112.78c-0.39,0.01-0.69-0.56-0.71-1.26c0-0.71,0.29-1.27,0.68-1.28
					c0.37-0.01,0.7,0.56,0.7,1.26C71.99,112.21,71.69,112.78,71.3,112.78z"/>
				<path fill="#D40C0E" d="M71.28,110.25c-0.39,0.01-0.68,0.57-0.68,1.28c0.02,0.7,0.32,1.27,0.71,1.26c0.39,0,0.68-0.57,0.67-1.27
					C71.97,110.81,71.65,110.24,71.28,110.25z M71.3,112.76c-0.37,0-0.67-0.55-0.69-1.24c0-0.69,0.29-1.25,0.66-1.26
					c0.37,0,0.68,0.55,0.68,1.24C71.97,112.2,71.67,112.75,71.3,112.76z"/>
				<path fill="#D51012" d="M71.28,110.27c-0.37,0.01-0.66,0.57-0.66,1.26c0.02,0.68,0.31,1.24,0.69,1.24
					c0.36-0.01,0.67-0.57,0.65-1.25C71.95,110.82,71.65,110.27,71.28,110.27z M71.3,112.74c-0.36,0.01-0.66-0.54-0.66-1.21
					c-0.01-0.67,0.28-1.22,0.64-1.22c0.37-0.02,0.67,0.54,0.68,1.21C71.95,112.18,71.67,112.74,71.3,112.74z"/>
				<path fill="#D71315" d="M71.28,110.31c-0.36,0-0.64,0.55-0.64,1.22c0,0.67,0.3,1.22,0.66,1.21c0.36,0,0.65-0.56,0.65-1.22
					C71.95,110.85,71.65,110.29,71.28,110.31z M71.3,112.71c-0.36,0.01-0.65-0.53-0.65-1.17c-0.01-0.66,0.26-1.2,0.62-1.2
					c0.36,0,0.66,0.52,0.66,1.18C71.95,112.18,71.66,112.71,71.3,112.71z"/>
				<path fill="#D81718" d="M71.28,110.33c-0.36,0-0.63,0.55-0.62,1.2c0,0.64,0.29,1.18,0.65,1.17c0.36,0,0.64-0.53,0.63-1.19
					C71.93,110.86,71.63,110.33,71.28,110.33z M71.31,112.69c-0.35,0-0.64-0.51-0.64-1.15c-0.01-0.65,0.27-1.17,0.62-1.17
					c0.34,0,0.63,0.52,0.63,1.15C71.93,112.15,71.65,112.68,71.31,112.69z"/>
				<path fill="#D91A1C" d="M71.29,110.36c-0.35,0-0.63,0.52-0.62,1.17c0,0.64,0.28,1.15,0.64,1.15c0.34-0.01,0.62-0.53,0.61-1.17
					C71.92,110.88,71.63,110.36,71.29,110.36z M71.31,112.67c-0.33,0-0.62-0.52-0.62-1.13c-0.01-0.63,0.26-1.14,0.61-1.15
					c0.34,0,0.6,0.51,0.62,1.13C71.92,112.14,71.65,112.65,71.31,112.67z"/>
				<path fill="#DB1E1F" d="M71.29,110.39c-0.35,0.01-0.62,0.52-0.61,1.15c0,0.62,0.29,1.13,0.62,1.13
					c0.34-0.02,0.61-0.53,0.61-1.15C71.9,110.9,71.63,110.39,71.29,110.39z M71.31,112.64c-0.33,0-0.6-0.5-0.6-1.1
					c-0.01-0.62,0.25-1.13,0.58-1.13c0.32,0,0.6,0.5,0.6,1.11C71.91,112.13,71.65,112.63,71.31,112.64z"/>
				<path fill="#DC2122" d="M71.29,110.41c-0.34,0-0.6,0.51-0.58,1.13c0,0.6,0.27,1.1,0.6,1.1c0.34-0.01,0.6-0.51,0.59-1.12
					C71.9,110.9,71.61,110.41,71.29,110.41z M71.31,112.61c-0.32,0-0.59-0.48-0.59-1.08c-0.01-0.61,0.25-1.1,0.57-1.1
					c0.32,0,0.59,0.48,0.6,1.08C71.9,112.12,71.63,112.6,71.31,112.61z"/>
				<path fill="#DD2526" d="M71.29,110.44c-0.32,0-0.58,0.49-0.57,1.1c0,0.6,0.27,1.08,0.59,1.08c0.32-0.01,0.59-0.49,0.59-1.1
					C71.88,110.91,71.61,110.44,71.29,110.44z M71.31,112.58c-0.3,0-0.57-0.46-0.57-1.05c-0.01-0.59,0.24-1.07,0.55-1.07
					c0.32,0,0.58,0.47,0.59,1.06C71.88,112.11,71.63,112.58,71.31,112.58z"/>
				<path fill="#DF2829" d="M71.29,110.47c-0.31,0-0.56,0.47-0.55,1.07c0,0.59,0.27,1.05,0.57,1.05c0.32,0,0.57-0.47,0.57-1.06
					C71.87,110.93,71.61,110.47,71.29,110.47z M71.32,112.56c-0.31,0-0.56-0.45-0.58-1.01c0-0.58,0.25-1.04,0.56-1.05
					c0.31,0,0.56,0.46,0.56,1.04C71.87,112.09,71.63,112.56,71.32,112.56z"/>
				<path fill="#E02C2D" d="M71.3,110.49c-0.31,0.01-0.56,0.47-0.56,1.05c0.02,0.56,0.27,1.01,0.58,1.01c0.31,0,0.55-0.46,0.55-1.03
					C71.87,110.96,71.61,110.49,71.3,110.49z M71.33,112.54c-0.31,0-0.56-0.45-0.56-1c-0.01-0.56,0.24-1.01,0.53-1.01
					c0.29-0.01,0.55,0.44,0.55,1C71.87,112.07,71.61,112.53,71.33,112.54z"/>
				<path fill="#E22F30" d="M71.3,110.53c-0.29,0-0.54,0.45-0.53,1.01c0,0.55,0.25,1,0.56,1c0.28-0.01,0.53-0.47,0.52-1.01
					C71.85,110.97,71.6,110.52,71.3,110.53z M71.33,112.51c-0.31,0-0.54-0.44-0.55-0.97c0-0.56,0.23-0.99,0.52-0.99
					c0.29-0.01,0.54,0.43,0.55,0.98C71.85,112.07,71.61,112.51,71.33,112.51z"/>
				<path fill="#E33333" d="M71.3,110.55c-0.29,0-0.52,0.44-0.52,0.99c0.01,0.53,0.24,0.97,0.55,0.97c0.28-0.01,0.52-0.44,0.52-0.98
					C71.84,110.98,71.6,110.54,71.3,110.55z M71.33,112.48c-0.28,0-0.52-0.43-0.54-0.94c0-0.53,0.23-0.95,0.51-0.97
					c0.01,0,0.01-0.01,0.03-0.01c0.01,0,0.02,0.01,0.04,0.02c0.26,0.06,0.46,0.47,0.47,0.95C71.84,112.05,71.61,112.48,71.33,112.48
					z"/>
				<path fill="#E43637" d="M71.37,110.58c0.01,0.01,0.01,0.02,0.04,0.04c0.23,0.07,0.41,0.45,0.42,0.91c0,0.52-0.22,0.93-0.5,0.93
					c-0.28,0.01-0.51-0.41-0.52-0.91c0-0.5,0.2-0.9,0.46-0.93c0-0.01,0.02-0.03,0.03-0.04c-0.28,0.02-0.51,0.44-0.51,0.97
					c0.02,0.51,0.26,0.94,0.54,0.94s0.51-0.44,0.51-0.95C71.83,111.05,71.63,110.64,71.37,110.58z"/>
				<path fill="#E63A3A" d="M71.81,111.54c0,0.5-0.21,0.89-0.48,0.89c-0.27,0.01-0.48-0.38-0.5-0.88c0-0.47,0.18-0.85,0.43-0.9
					c0-0.02,0-0.03,0.01-0.04c-0.26,0.04-0.46,0.44-0.46,0.93c0.01,0.5,0.24,0.92,0.52,0.91c0.28,0,0.5-0.41,0.5-0.93
					c-0.02-0.46-0.2-0.84-0.42-0.91c0,0.01,0,0.02,0.01,0.03C71.63,110.73,71.81,111.08,71.81,111.54z"/>
				<path fill="#E73D3E" d="M70.84,111.55c0.01,0.5,0.23,0.9,0.5,0.88c0.26,0,0.48-0.39,0.48-0.89c0-0.45-0.18-0.8-0.4-0.89
					c0.01,0.02,0.01,0.03,0.01,0.03c0.21,0.1,0.37,0.44,0.37,0.86c0.01,0.47-0.2,0.88-0.46,0.88c-0.25,0-0.47-0.39-0.48-0.87
					c0-0.44,0.17-0.8,0.4-0.87c0-0.01,0-0.03,0.02-0.03C71.02,110.7,70.84,111.08,70.84,111.55z"/>
				<path fill="#E84141" d="M70.85,111.55c0.02,0.48,0.23,0.87,0.48,0.87c0.26,0,0.47-0.4,0.46-0.88c0-0.42-0.16-0.76-0.37-0.86
					c0.01,0.01,0.02,0.03,0.02,0.04c0.2,0.1,0.35,0.42,0.36,0.82c0,0.46-0.21,0.85-0.46,0.85c-0.25,0-0.45-0.38-0.47-0.84
					c0-0.42,0.16-0.76,0.36-0.84c0.02-0.02,0.02-0.02,0.02-0.03C71.02,110.74,70.85,111.11,70.85,111.55z"/>
				<path fill="#EA4444" d="M70.87,111.55c0.01,0.46,0.22,0.84,0.47,0.84c0.25-0.01,0.46-0.39,0.46-0.85
					c-0.01-0.4-0.16-0.72-0.36-0.82c0,0.01,0,0.02,0.01,0.03c0.18,0.1,0.33,0.4,0.33,0.79c0,0.45-0.2,0.83-0.43,0.83
					c-0.25,0-0.46-0.37-0.46-0.82c0-0.4,0.13-0.73,0.33-0.81c0-0.01,0-0.02,0-0.03C71.02,110.78,70.87,111.13,70.87,111.55z"/>
				<path fill="#EB4848" d="M70.89,111.55c0,0.45,0.21,0.82,0.46,0.82c0.24,0,0.43-0.37,0.43-0.83c0-0.39-0.15-0.7-0.33-0.79
					c0,0.01,0,0.02,0,0.04c0.18,0.1,0.3,0.39,0.31,0.76c0.01,0.42-0.18,0.79-0.42,0.79c-0.25,0-0.44-0.34-0.44-0.79
					c0-0.38,0.12-0.68,0.3-0.77c0-0.01,0-0.02,0.01-0.04C71.02,110.82,70.89,111.14,70.89,111.55z"/>
				<path fill="#EC4B4B" d="M70.9,111.55c0,0.44,0.19,0.79,0.44,0.79c0.24,0,0.43-0.37,0.42-0.79c-0.01-0.38-0.13-0.67-0.31-0.76
					c0,0,0,0.01,0,0.03c0.18,0.09,0.29,0.38,0.3,0.73c0,0.42-0.17,0.77-0.41,0.77c-0.23,0-0.43-0.35-0.43-0.77
					c0-0.35,0.1-0.63,0.29-0.73c0-0.02,0-0.03,0-0.04C71.02,110.87,70.9,111.17,70.9,111.55z"/>
				<path fill="#EE4F4E" d="M70.92,111.55c0,0.42,0.2,0.77,0.43,0.77c0.24,0,0.41-0.35,0.41-0.77c-0.01-0.35-0.12-0.64-0.3-0.73
					c0,0,0,0.01,0,0.03c0.16,0.09,0.28,0.37,0.28,0.71c0,0.41-0.17,0.74-0.4,0.74c-0.22,0-0.4-0.32-0.4-0.74
					c-0.01-0.33,0.11-0.6,0.25-0.71c0-0.02,0-0.03,0.01-0.03C71.02,110.91,70.92,111.19,70.92,111.55z"/>
				<path fill="#EF5252" d="M70.94,111.55c0,0.42,0.18,0.74,0.4,0.74c0.23,0,0.4-0.33,0.4-0.74c0-0.33-0.13-0.61-0.28-0.71
					c0.02,0.01,0.02,0.02,0.02,0.03c0.14,0.1,0.25,0.36,0.27,0.68c0,0.39-0.18,0.72-0.4,0.72c-0.21,0-0.39-0.32-0.39-0.72
					c-0.01-0.3,0.09-0.56,0.23-0.67c0-0.01,0-0.02,0.01-0.04C71.05,110.94,70.93,111.22,70.94,111.55z"/>
				<path fill="#F05655" d="M70.96,111.55c0,0.41,0.18,0.72,0.39,0.72c0.22,0,0.4-0.34,0.4-0.72c-0.01-0.32-0.13-0.58-0.27-0.68
					c0,0.01,0,0.02,0,0.03c0.14,0.1,0.25,0.34,0.25,0.65c0,0.12-0.02,0.24-0.05,0.33c-0.03,0.09-0.06,0.17-0.11,0.23
					c-0.05,0.08-0.12,0.13-0.22,0.13c-0.2,0-0.37-0.31-0.37-0.69c0-0.27,0.08-0.52,0.21-0.63c0-0.01,0-0.02,0-0.04
					C71.05,110.98,70.94,111.24,70.96,111.55z"/>
				<path fill="#F25A59" d="M70.98,111.55c0,0.38,0.17,0.69,0.37,0.69c0.09,0,0.16-0.06,0.22-0.13c-0.05,0.07-0.11,0.09-0.17,0.11
					c-0.21,0.01-0.38-0.28-0.4-0.65c-0.02-0.28,0.06-0.52,0.19-0.63c0-0.01,0.01-0.01,0.01-0.01
					C71.06,111.03,70.98,111.27,70.98,111.55z"/>
				<path fill="#F25A59" d="M71.71,111.52c0.02,0.13,0,0.26-0.03,0.36c0.03-0.09,0.05-0.21,0.05-0.33c0-0.3-0.11-0.55-0.25-0.65
					c0.01,0.02,0.01,0.03,0.02,0.04C71.6,111.05,71.69,111.27,71.71,111.52z"/>
				<path fill="#F35D5C" d="M70.99,111.56c0.02,0.37,0.19,0.67,0.4,0.65c0.06-0.01,0.12-0.04,0.17-0.11
					c0.05-0.06,0.09-0.14,0.11-0.23c0.03-0.09,0.05-0.23,0.03-0.36c-0.02-0.25-0.11-0.47-0.21-0.57c0,0.13,0.01,0.26,0.01,0.4
					c0,0.44-0.07,0.79-0.18,0.79c-0.09,0-0.19-0.35-0.19-0.79c0-0.15,0.01-0.29,0.03-0.42C71.05,111.04,70.98,111.28,70.99,111.56z"
					/>
				<path fill="#047A04" d="M70.89,105.26c-0.61-0.49-1.88-0.54-2.65-0.77c-0.01,0-0.02,0-0.02,0c0.78,0.28,2.05,0.33,2.67,0.88
					c0.1,0.09,0.21,0.22,0.25,0.38C71.17,105.54,71.02,105.36,70.89,105.26z"/>
				<path fill="#047A04" d="M77.01,107.4c-0.07,0.11-0.07,0.27-0.04,0.41c0-0.04,0.02-0.06,0.04-0.08c0.24-0.39,0.89,0.14,1.14,0.29
					c0.57,0.36,1.06,0.7,1.69,0.96c0.3,0.11,0.66,0.29,0.96,0.13c-0.82-0.27-1.62-0.58-2.15-1.16c-0.17-0.09-0.33-0.19-0.5-0.29
					C77.9,107.54,77.25,107.06,77.01,107.4z"/>
				<path fill="#047A04" d="M74.8,107.22c-0.07,0.03-0.14,0.04-0.22,0.06c-0.17,0.15-0.29,0.55-0.34,0.69
					c-0.3,0.81-0.55,1.85-0.96,2.63c-0.4-0.72-0.48-1.66-0.49-2.32c-0.01,0.71,0.01,2.01,0.49,2.97c0.41-0.85,0.66-1.99,0.96-2.9
					c0.06-0.2,0.22-0.84,0.48-0.84c0.11-0.01,0.28,0.2,0.42,0.3c0.92,0.83,1.71,1.71,2.89,2.19c-0.14-0.26-0.33-0.51-0.52-0.76
					c-0.91-0.45-1.6-1.12-2.37-1.75C75.05,107.39,74.91,107.27,74.8,107.22z"/>
				<path fill="#047A04" d="M78.88,106.49c-0.26,0.09-0.63,0.19-0.67,0.42c-0.02,0.04,0,0.1,0.04,0.16c0.1-0.18,0.41-0.26,0.63-0.36
					c0.23-0.1,0.47-0.17,0.7-0.27c0.6-0.24,1.19-0.47,1.64-0.82c-0.11,0.02-0.19,0.04-0.3,0.08
					C80.32,106.01,79.59,106.22,78.88,106.49z"/>
				<path fill="#047A04" d="M72.72,106.69c-0.17,0-0.39,0.39-0.54,0.56c-1.1,1.33-2.6,2.4-4.01,3.43c-0.03,0.22-0.04,0.44-0.03,0.68
					c1.43-1.16,2.93-2.33,4.04-3.82c0.15-0.17,0.36-0.61,0.54-0.61c0.1,0,0.16,0.06,0.18,0.12c0-0.01,0-0.01,0-0.01
					C72.91,106.94,72.95,106.68,72.72,106.69z"/>
				<path fill="#047A04" d="M73.49,106.26c0,0.03,0.02,0.06,0.03,0.1c0.04-0.08,0.11-0.16,0.14-0.22c0.05-0.07,0.07-0.13,0.09-0.19
					c-0.02,0-0.05,0-0.06,0C73.63,106.03,73.52,106.13,73.49,106.26z"/>
				<path fill="#047A04" d="M71.11,106.88c0.15-0.06,0.41-0.24,0.52-0.12c0.01-0.02,0.03-0.06,0.03-0.07
					c0.02-0.38-0.36-0.12-0.55-0.05c-0.37,0.13-0.84,0.13-1.2,0.13c-0.97-0.01-1.86-0.12-2.71-0.32c-0.15,0.04-0.29,0.06-0.44,0.09
					c0.39,0.13,0.8,0.22,1.2,0.3c0.63,0.11,1.27,0.18,1.96,0.18C70.27,107.02,70.74,107.02,71.11,106.88z"/>
				<path fill="#57B328" d="M75.34,106.55c-0.02,0.13-0.04,0.24-0.06,0.36c-0.13,0.15-0.29,0.26-0.48,0.31
					c0.11,0.06,0.25,0.18,0.35,0.26c0.77,0.63,1.46,1.3,2.37,1.75c0.16,0.08,0.33,0.16,0.52,0.23c-0.26-0.51-0.85-0.92-1.02-1.51
					c-0.02-0.04-0.04-0.09-0.04-0.13c-0.03-0.13-0.03-0.29,0.04-0.41c0.24-0.34,0.89,0.13,1.14,0.27c0.17,0.09,0.33,0.2,0.5,0.29
					c0.37,0.22,0.75,0.43,1.19,0.58c0.3,0.1,0.66,0.26,0.96,0.13c-0.85-0.26-1.71-0.57-2.25-1.14c-0.08-0.08-0.25-0.28-0.32-0.47
					c-0.04-0.06-0.06-0.12-0.04-0.16c0.04-0.23,0.41-0.33,0.67-0.42c0.72-0.27,1.44-0.48,2.03-0.8c0.11-0.06,0.2-0.12,0.3-0.19
					c-1.1,0.23-2.32,0.79-3.46,0.64c-0.2-0.03-0.38-0.09-0.58-0.1c-0.49-0.06-1.1-0.09-1.69-0.11c-0.02,0.07-0.02,0.13-0.02,0.2
					c0,0.1,0,0.19-0.05,0.33C75.39,106.48,75.37,106.52,75.34,106.55z"/>
				<path fill="#57B328" d="M69.91,106.77c0.36,0,0.83,0,1.2-0.13c0.19-0.07,0.58-0.33,0.55,0.05c-0.01,0.01-0.02,0.05-0.03,0.07
					c-0.11,0.11-0.37,0.26-0.54,0.34c-1.36,0.78-3.12,1.99-2.95,3.6c0.01-0.01,0.02-0.01,0.03-0.02c1.41-1.03,2.91-2.1,4.01-3.43
					c0.15-0.17,0.36-0.56,0.54-0.56c0.23-0.01,0.2,0.25,0.18,0.35c0,0,0,0,0,0.01c-0.03,0.22-0.09,0.58-0.09,0.77
					c-0.01,0.14-0.01,0.29-0.01,0.45c0.01,0.66,0.09,1.6,0.49,2.32c0.41-0.78,0.66-1.81,0.96-2.63c0.05-0.14,0.17-0.54,0.34-0.69
					c-0.44,0.05-0.94-0.1-1.23-0.4c0.06-0.16,0.13-0.31,0.2-0.45c-0.02-0.02-0.03-0.04-0.04-0.07c-0.01-0.04-0.03-0.07-0.03-0.1
					c0.03-0.12,0.14-0.22,0.2-0.32c0.03-0.05,0.05-0.09,0.06-0.13c-0.4-0.08-0.93-0.05-1.24-0.17c-0.59-0.22-1.1-0.52-1.66-0.74
					c-0.28-0.11-0.57-0.22-0.87-0.29c-0.28-0.07-0.61-0.15-0.89-0.2c-0.09,0-0.2,0-0.3,0l0,0c-0.17,0-0.38,0.01-0.57,0.08
					c0,0,0.01,0,0.02,0c0.78,0.24,2.04,0.29,2.65,0.77c0.13,0.11,0.28,0.28,0.25,0.48c-0.01,0.02-0.02,0.04-0.02,0.07
					c-0.79,0.1-1.37,0.09-2.18,0.18c-0.72,0.07-1.43,0.21-2.18,0.35c0.15,0.05,0.29,0.07,0.44,0.11
					C68.05,106.66,68.94,106.77,69.91,106.77z"/>
				<path fill="#507F29" d="M73.36,106.87c0.28,0.3,0.78,0.45,1.23,0.4c0.08-0.01,0.14-0.03,0.22-0.06c0.2-0.05,0.36-0.16,0.48-0.31
					c0.02-0.12,0.03-0.24,0.06-0.36c0.03-0.14,0.05-0.29,0.07-0.43c0.3-2.22,0.07-2.64,0.19-4.07c0.09-0.88,0.46-1.88-0.24-2.26
					c-0.22,0.71-0.15,1.75-0.28,2.65c-0.23,1.43-0.84,2.56-1.39,3.68c-0.05,0.11-0.09,0.19-0.14,0.3
					C73.49,106.56,73.41,106.72,73.36,106.87z"/>
				<path fill="#DDBB06" d="M77.44,127.13c-0.08,0-0.14,0.28-0.14,0.62c0,0.33,0.06,0.61,0.14,0.61c0.07,0,0.14-0.28,0.14-0.61
					C77.58,127.41,77.51,127.13,77.44,127.13z"/>
				<path fill="#DDBB06" d="M80.11,123.33c-0.09,0-0.15,0.36-0.15,0.79c0,0.43,0.07,0.78,0.15,0.78c0.1,0,0.19-0.36,0.19-0.78
					C80.29,123.69,80.21,123.33,80.11,123.33z"/>
				<path fill="#DDBB06" d="M74.16,126.86c-0.08,0-0.14,0.27-0.14,0.61c0,0.34,0.07,0.6,0.14,0.6c0.09,0,0.14-0.27,0.14-0.6
					C74.3,127.13,74.24,126.86,74.16,126.86z"/>
				<path fill="#DDBB06" d="M75.3,122.52c-0.09,0-0.18,0.34-0.18,0.76c0,0.43,0.08,0.8,0.18,0.8c0.1,0,0.18-0.36,0.18-0.8
					C75.48,122.87,75.4,122.52,75.3,122.52z"/>
				<path fill="#DDBB06" d="M70,126.83c-0.09,0-0.19,0.36-0.19,0.78c0,0.44,0.1,0.79,0.19,0.79c0.1,0,0.17-0.34,0.17-0.79
					C70.17,127.19,70.1,126.83,70,126.83z"/>
				<path fill="#DDBB06" d="M81.19,119.65c0,0,0-0.01,0-0.02c0.01-0.01,0.01-0.01,0.02-0.03c0-0.01,0-0.01,0-0.02
					c0.05-0.15,0.08-0.37,0.08-0.64c0-0.3-0.04-0.55-0.1-0.68c0-0.01,0-0.03,0-0.04c-0.02-0.01-0.02-0.02-0.03-0.03
					c-0.01-0.01-0.02-0.01-0.02-0.02c-0.01-0.02-0.02-0.02-0.03-0.02c-0.02,0-0.03,0.02-0.06,0.04c0,0.01,0,0.03-0.02,0.04
					c-0.01,0.02-0.01,0.04-0.01,0.05c0,0,0,0.02,0,0.03c-0.06,0.15-0.09,0.38-0.09,0.64c0,0.18,0.02,0.35,0.03,0.49
					c0.01,0.03,0.01,0.06,0.02,0.09c0.01,0.01,0.01,0.03,0.01,0.04c0.01,0.02,0.03,0.03,0.03,0.04c0,0.03,0,0.03,0.01,0.04
					c0,0.02,0.02,0.05,0.02,0.05c0.02,0.03,0.03,0.05,0.06,0.05c0.01,0,0.03-0.01,0.04-0.02c0-0.01,0-0.01,0.02-0.03
					C81.17,119.68,81.17,119.68,81.19,119.65z"/>
				<path fill="#DDBB06" d="M77.22,118.59c-0.09,0-0.18,0.34-0.18,0.79c0,0.44,0.08,0.77,0.18,0.77c0.11,0,0.18-0.34,0.18-0.77
					C77.4,118.94,77.33,118.59,77.22,118.59z"/>
				<path fill="#DDBB06" d="M72.56,119.32c0,0,0,0.02,0,0.04c-0.01,0.01-0.01,0.02-0.02,0.04c0,0.01,0,0.02,0,0.03
					c0,0.01,0,0.01,0,0.01c-0.04,0.15-0.06,0.35-0.06,0.56c0,0.28,0.02,0.53,0.08,0.66c0.02,0.04,0.03,0.05,0.03,0.08
					c0.03,0.03,0.04,0.04,0.05,0.04c0,0.01,0,0.01,0.02,0.01l0,0c0.02,0,0.02-0.01,0.04-0.02c0.01-0.01,0.01-0.02,0.01-0.04
					c0.07-0.11,0.13-0.4,0.13-0.73c0-0.22-0.04-0.43-0.06-0.57c0-0.01-0.02-0.01-0.02-0.03c0-0.02,0-0.02,0-0.03
					c0-0.02-0.02-0.03-0.02-0.04c0,0,0-0.02-0.01-0.03c0-0.01-0.01-0.02-0.03-0.03c0-0.02,0-0.02-0.01-0.03
					c-0.02-0.01-0.03-0.03-0.04-0.03c-0.02,0-0.03,0.02-0.05,0.04c-0.02,0.01-0.03,0.02-0.03,0.04
					C72.58,119.28,72.58,119.3,72.56,119.32z"/>
				<path fill="#DDBB06" d="M69.74,117c-0.09,0-0.16,0.34-0.16,0.75c0,0.41,0.08,0.75,0.16,0.75c0.09,0,0.18-0.34,0.18-0.75
					C69.93,117.34,69.83,117,69.74,117z"/>
				<path fill="#DDBB06" d="M70.96,122.34c-0.09,0-0.16,0.35-0.16,0.75c0,0.42,0.07,0.76,0.16,0.76c0.1,0,0.18-0.34,0.18-0.76
					C71.14,122.69,71.06,122.34,70.96,122.34z"/>
				<path fill="#DDBB06" d="M83.25,113.04c0,0.02-0.01,0.06-0.01,0.09c0,0.03-0.02,0.05-0.02,0.08c0,0.03,0,0.06,0,0.1
					c0,0.03,0,0.06,0,0.09c0,0.02,0,0.05,0,0.09c0,0.01-0.01,0.03-0.01,0.04c0,0.01,0.01,0.02,0.01,0.05c0,0.03,0,0.06,0,0.09
					c0,0.02,0,0.06,0,0.09c0,0.02,0,0.06,0,0.09c0,0.03,0.02,0.06,0.02,0.09c0,0.02,0.01,0.06,0.01,0.08c0,0.04,0,0.06,0,0.07
					c0.02,0.04,0.04,0.06,0.04,0.09c0.03,0.09,0.06,0.15,0.1,0.15c0.04,0,0.08-0.07,0.11-0.2c0.02-0.04,0.02-0.07,0.02-0.1
					c0.02-0.02,0.02-0.05,0.02-0.09c0-0.02,0.02-0.06,0.02-0.1c0-0.01,0-0.05,0-0.07c0-0.03,0.01-0.06,0.01-0.09
					c0-0.04,0-0.07,0-0.1c0-0.01,0-0.02,0-0.03c0-0.01,0-0.04,0-0.06c0-0.03,0-0.06,0-0.09c0-0.03-0.01-0.06-0.01-0.08
					c0-0.03,0-0.06,0-0.1c-0.02-0.03-0.02-0.05-0.02-0.08c0-0.04,0-0.06-0.02-0.09c0-0.03,0-0.07-0.02-0.09
					c0-0.03-0.01-0.05-0.02-0.08c-0.02-0.04-0.02-0.07-0.03-0.09c-0.02-0.02-0.04-0.05-0.07-0.05c-0.02,0-0.06,0.04-0.08,0.1
					c-0.02,0.03-0.02,0.07-0.04,0.09C83.25,112.96,83.25,113,83.25,113.04z"/>
				<path fill="#DDBB06" d="M64.12,110.94c-0.11,0-0.19,0.35-0.19,0.79c0,0.44,0.08,0.78,0.19,0.78c0.09,0,0.17-0.34,0.17-0.78
					C64.29,111.29,64.2,110.94,64.12,110.94z"/>
				<path fill="#DDBB06" d="M74.08,116.41c0.1,0,0.18-0.36,0.18-0.78c0-0.44-0.09-0.79-0.18-0.79c-0.1,0-0.17,0.35-0.17,0.79
					C73.91,116.05,73.98,116.41,74.08,116.41z"/>
				<path fill="#DDBB06" d="M68.17,112.28c-0.1,0-0.16,0.35-0.16,0.78c0,0.43,0.06,0.78,0.16,0.78c0.1,0,0.19-0.35,0.19-0.78
					C68.36,112.63,68.27,112.28,68.17,112.28z"/>
				<path fill="#DDBB06" d="M65.92,114.64c-0.11,0-0.18,0.35-0.18,0.78c0,0.44,0.07,0.79,0.18,0.79c0.09,0,0.17-0.35,0.17-0.79
					C66.09,115,66.01,114.64,65.92,114.64z"/>
				<path fill="#DDBB06" d="M81.24,110.04c-0.01,0.01-0.01,0.03-0.02,0.05c0,0.01,0,0.02-0.01,0.04c-0.01,0.01-0.01,0.02-0.01,0.04
					c0,0.01,0,0.02-0.02,0.04c0,0.02,0,0.03,0,0.05c-0.01,0.01-0.01,0.02-0.02,0.04c0,0.02,0,0.04,0,0.05c0,0.01,0,0.01,0,0.01
					c-0.01,0.12-0.03,0.26-0.03,0.43c0,0.3,0.05,0.58,0.11,0.71c0.02,0.06,0.05,0.07,0.07,0.07c0.01,0,0.02,0,0.03,0
					c0.08-0.05,0.15-0.37,0.15-0.78c0-0.2-0.02-0.37-0.03-0.52c-0.01-0.01-0.01-0.03-0.03-0.04c0-0.01,0-0.02,0-0.04
					c0-0.01-0.01-0.01-0.01-0.02c0-0.02,0-0.03,0-0.03c0-0.01-0.01-0.02-0.01-0.04c-0.01,0-0.01-0.01-0.01-0.02
					c-0.01-0.01-0.01-0.03-0.01-0.03c-0.02-0.01-0.02-0.02-0.02-0.02c-0.02-0.01-0.03-0.03-0.03-0.03c-0.01,0-0.02-0.01-0.02-0.01
					S81.28,110,81.27,110C81.26,110.02,81.25,110.03,81.24,110.04z"/>
				<path fill="#DDBB06" d="M76.45,110.83c0,0.02-0.01,0.03-0.01,0.05c0,0.01-0.01,0.02-0.01,0.04c-0.01,0.01-0.01,0.02-0.01,0.04
					c0,0.01-0.01,0.03-0.01,0.04c-0.02,0.01-0.02,0.03-0.02,0.05c0,0,0,0.02-0.01,0.04c0,0.02,0,0.03-0.01,0.05
					c0,0.01,0,0.03,0,0.05c0,0.01,0,0.03,0,0.04c-0.01,0.02-0.02,0.04-0.02,0.05c0,0.03,0,0.04,0,0.07c0,0,0,0,0,0.01
					c0,0.05,0,0.09,0,0.14c0,0.43,0.09,0.78,0.18,0.78c0.11,0,0.18-0.35,0.18-0.78c0-0.14,0-0.28-0.01-0.39
					c-0.01-0.01-0.01-0.03-0.01-0.04c0-0.02,0-0.02-0.01-0.02c0-0.01,0-0.02,0-0.03c0-0.01,0-0.02,0-0.04
					c-0.01,0-0.01-0.01-0.01-0.02c-0.01-0.01-0.01-0.03-0.01-0.03c0-0.02,0-0.02,0-0.03c-0.01-0.01-0.01-0.02-0.02-0.03v-0.02
					c0-0.02-0.02-0.03-0.02-0.04c0-0.01-0.01-0.01-0.01-0.03c0-0.01-0.02-0.01-0.02-0.02c-0.01-0.01-0.02-0.02-0.02-0.03
					c-0.01-0.01-0.01-0.02-0.04-0.03c0,0,0,0-0.02,0c-0.02,0-0.03,0.01-0.05,0.03c0,0.02-0.01,0.03-0.01,0.04
					C76.47,110.79,76.45,110.81,76.45,110.83z"/>
				<path fill="#DDBB06" d="M71.28,110.61c-0.01,0.01-0.01,0.02-0.01,0.04c-0.02,0-0.02,0.02-0.02,0.03c0,0.01,0,0.01-0.02,0.03
					c0,0.01,0,0.02,0,0.03c-0.01,0.02-0.01,0.03-0.01,0.04c0,0.01,0,0.02,0,0.04c-0.01,0-0.01,0.01-0.01,0.03
					c-0.01,0.02-0.01,0.03-0.01,0.04c0,0.02,0,0.03,0,0.04c0,0-0.01,0-0.01,0.01c-0.02,0.12-0.03,0.27-0.03,0.42
					c0,0.44,0.1,0.79,0.19,0.79c0.1,0,0.18-0.35,0.18-0.79c0-0.14-0.01-0.27-0.01-0.4c-0.01-0.02-0.01-0.03-0.02-0.04
					c0-0.01,0-0.02,0-0.03c0-0.01,0-0.02-0.02-0.03c0-0.02,0-0.03,0-0.03c0-0.02,0-0.03,0-0.03c0-0.02,0-0.03,0-0.04
					c-0.01-0.01-0.01-0.02-0.01-0.03c0-0.01-0.01-0.03-0.02-0.04c0,0,0-0.01-0.01-0.03c-0.01-0.01-0.01-0.02-0.01-0.03
					c-0.02-0.02-0.02-0.03-0.04-0.04c-0.01-0.01-0.02-0.02-0.04-0.02c-0.02,0-0.02,0.01-0.03,0.01
					C71.29,110.58,71.28,110.6,71.28,110.61z"/>
				<path fill="#DDBB06" d="M67.11,123.33c-0.09,0-0.18,0.33-0.18,0.74c0,0.41,0.08,0.75,0.18,0.75c0.09,0,0.18-0.34,0.18-0.75
					C67.29,123.65,67.2,123.33,67.11,123.33z"/>
				<path fill="#DDBB06" d="M65.54,118.82c-0.11,0-0.18,0.37-0.18,0.8c0,0.43,0.08,0.77,0.18,0.77c0.09,0,0.18-0.35,0.18-0.77
					C65.72,119.18,65.63,118.82,65.54,118.82z"/>
				<path fill="#DDBB06" d="M78.78,113.99c-0.1,0-0.18,0.35-0.18,0.79c0,0.43,0.08,0.77,0.18,0.77c0.09,0,0.17-0.34,0.17-0.77
					C78.95,114.34,78.88,113.99,78.78,113.99z"/>
			</g>
		</g>
	</g>
</g>
</svg>
