<?xml version="1.0" encoding="utf-8"?>
<!-- Generator: Adobe Illustrator 23.0.6, SVG Export Plug-In . SVG Version: 6.00 Build 0)  -->
<svg version="1.1" id="Capa_1" xmlns="http://www.w3.org/2000/svg" xmlns:xlink="http://www.w3.org/1999/xlink" x="0px" y="0px"
	 viewBox="0 0 152.79 186.83" style="enable-background:new 0 0 152.79 186.83;" xml:space="preserve">
<style type="text/css">
	.st0{fill:#F0AC80;}
	.st1{fill-rule:evenodd;clip-rule:evenodd;fill:#D68B62;}
	.st2{fill-rule:evenodd;clip-rule:evenodd;fill:#E8A073;}
	.st3{fill:#BFE9FF;}
	.st4{fill:#A8E1FF;}
	.st5{fill:#A3DEFF;}
	.st6{fill:#B0E3FF;}
	.st7{fill:#FF5955;}
	.st8{fill:#FF0000;}
	.st9{fill:#3A8A00;}
	.st10{fill:#417400;}
	.st11{fill:#4D4D4D;}
	.st12{fill:#333333;}
	.st13{fill:#1B1464;}
	.st14{fill:#271D91;}
	.st15{fill:#B2B2B2;stroke:#B2B2B2;stroke-width:0.25;}
	.st16{fill:#8C8C8C;stroke:#5A3D1C;stroke-width:0.25;}
	.st17{fill:#A6A6A6;}
	.st18{fill:#FFFFFF;stroke:#B2B2B2;stroke-width:0.25;}
	.st19{fill:#EBEBEB;}
	.st20{stroke:#000000;stroke-width:0.25;}
	.st21{fill:#8C8C8C;stroke:#003642;stroke-width:0.25;}
	.st22{fill:#7A7A7A;}
	.st23{fill:#666666;stroke:#666666;stroke-width:0.25;}
	.st24{fill:#141414;}
	.st25{fill:#FFFFFF;stroke:#B2B2B2;}
	.st26{fill:#EDEDED;}
	.st27{fill:#694721;}
	.st28{fill:#5A3D1C;}
	.st29{fill:#006631;}
	.st30{fill:#00592B;}
	.st31{fill:#035B73;stroke:#003642;stroke-width:0.25;}
	.st32{fill:#02495C;stroke:#003642;stroke-width:0.25;}
	.st33{fill:#02495C;}
	.st34{fill:#820000;stroke:#730000;}
	.st35{fill:#5C0000;stroke:#5A3D1C;stroke-width:0.25;}
	.st36{fill:#780000;}
	.st37{fill:#006B33;stroke:#003642;stroke-width:0.25;}
	.st38{fill:#00592B;stroke:#003642;stroke-width:0.25;}
	.st39{fill:#DB8C3D;stroke:#003642;stroke-width:0.25;}
	.st40{fill:#C2803D;}
	.st41{fill:#DB6D00;stroke:#003642;stroke-width:0.25;}
	.st42{fill:#3F3F3F;stroke:#3F3F3F;stroke-width:0.25;}
	.st43{stroke:#3F3F3F;stroke-width:0.25;}
	.st44{fill:#262626;}
	.st45{fill:#5A3D1C;stroke:#003642;stroke-width:0.25;}
	.st46{fill:#52361A;}
	.st47{fill:#422C15;stroke:#003642;stroke-width:0.25;}
	.st48{fill:#FFFFFF;stroke:#E8E8E8;}
	.st49{fill:#E3E3E3;}
	.st50{fill:#B2B2B2;}
	.st51{fill:#FFBF00;}
	.st52{fill:#F5B700;}
	.st53{fill:#EBAF00;stroke:#D19D00;stroke-width:0.25;}
	.st54{fill:#D010B1;}
	.st55{fill:#A60D8C;}
	.st56{fill:#00A33D;}
	.st57{fill:#008033;}
	.st58{fill:#00D4FF;}
	.st59{fill:#00ABFF;}
	.st60{fill:#0A0A0A;stroke:#000000;}
	.st61{fill:#666666;stroke:#000000;stroke-width:0.25;}
	.st62{stroke:#000000;}
	.st63{fill:#00B800;}
	.st64{fill:#009C00;}
	.st65{fill:#3F3F3F;}
	.st66{fill:#73A334;stroke:#8CC63F;stroke-width:0.1;}
	.st67{fill:#8CC63F;stroke:#8CC63F;stroke-width:0.1;}
	.st68{fill:#545454;}
	.st69{fill:#7558A4;}
	.st70{fill:#7536D1;}
	.st71{fill:#E2BB95;stroke:#D5AF8C;}
	.st72{fill:#D5AF8C;}
	.st73{fill:#E2BB95;stroke:#D5AF8C;stroke-width:0.5;}
	.st74{fill:#9E2231;}
	.st75{fill:#B72837;}
	.st76{fill:#FFE085;}
	.st77{fill:#EBCE7A;}
	.st78{fill:url(#SVGID_1_);}
	.st79{fill:url(#SVGID_2_);}
	.st80{fill:url(#SVGID_3_);}
	.st81{fill:#D00204;}
	.st82{fill:#D10507;}
	.st83{fill:#D3090B;}
	.st84{fill:#D40C0E;}
	.st85{fill:#D51012;}
	.st86{fill:#D71315;}
	.st87{fill:#D81718;}
	.st88{fill:#D91A1C;}
	.st89{fill:#DB1E1F;}
	.st90{fill:#DC2122;}
	.st91{fill:#DD2526;}
	.st92{fill:#DF2829;}
	.st93{fill:#E02C2D;}
	.st94{fill:#E22F30;}
	.st95{fill:#E33333;}
	.st96{fill:#E43637;}
	.st97{fill:#E63A3A;}
	.st98{fill:#E73D3E;}
	.st99{fill:#E84141;}
	.st100{fill:#EA4444;}
	.st101{fill:#EB4848;}
	.st102{fill:#EC4B4B;}
	.st103{fill:#EE4F4E;}
	.st104{fill:#EF5252;}
	.st105{fill:#F05655;}
	.st106{fill:#F25A59;}
	.st107{fill:#F35D5C;}
	.st108{fill:#047A04;}
	.st109{fill:#57B328;}
	.st110{fill:#507F29;}
	.st111{fill:#DDBB06;}
	.st112{fill:#A80000;}
	.st113{fill:#9E0000;}
	.st114{fill:#8F0000;stroke:#610000;stroke-width:0.25;}
	.st115{fill:#5A3D1C;stroke:#805426;}
	.st116{fill:#63421F;}
	.st117{fill:#5A3D1C;stroke:#6B4620;}
	.st118{fill:url(#SVGID_4_);}
	.st119{fill:#171717;stroke:#000000;}
	.st120{fill:#212121;}
	.st121{fill:url(#SVGID_5_);}
	.st122{fill:#3F3F3F;stroke:#3F3F3F;}
	.st123{fill:#8C8C8C;stroke:#3F3F3F;}
	.st124{fill:#808080;}
	.st125{fill:url(#SVGID_6_);}
	.st126{fill:none;}
	.st127{fill:#D4D4D4;}
	.st128{fill:#D4D4D4;stroke:#B8B8B8;stroke-width:0.5;}
	.st129{fill:#D4D4D4;stroke:#B8B8B8;stroke-width:0.2;}
	.st130{fill:#C7C7C7;}
	.st131{fill:#DBF8FF;stroke:#7DBDCC;stroke-width:0.25;}
	.st132{fill:#C2F3FF;}
	.st133{fill:#F2F2F2;}
	.st134{fill:url(#SVGID_7_);stroke:#000000;}
	.st135{fill:#42210B;stroke:#000000;}
	.st136{fill:#C69C6D;stroke:#000000;}
	.st137{fill:#93278F;stroke:#000000;}
	.st138{fill:#589F3E;}
	.st139{fill:#4D8F39;}
	.st140{fill:#963528;}
	.st141{fill:#AC3A2D;}
	.st142{fill:#211915;}
	.st143{fill:#444242;}
	.st144{fill:#1A1A1A;}
	.st145{fill:#FFFFFF;}
	.st146{fill:#2E2E2E;}
	.st147{fill:#363636;}
	.st148{fill:#666666;}
	.st149{fill:#C69C6D;}
	.st150{fill:#B38D62;}
	.st151{fill:#A67C52;}
	.st152{fill:#8C6239;}
	.st153{fill:#9E10D2;}
	.st154{fill:#8210D2;}
	.st155{fill:#6B6B6B;}
	.st156{fill:#008C08;}
	.st157{fill:#00A308;}
	.st158{fill:#EC2024;}
	.st159{fill:#E31E26;}
	.st160{fill:#BED63A;}
	.st161{fill:#EC1C24;}
	.st162{fill:#00ADEE;}
	.st163{fill:#2E3191;}
</style>
<g>
	<g>
		<path class="st0" d="M99.92,75.99c-3.81-1.96-9.07-4.26-9.59-5.14c-2.24-3.75-2.27-13.47-1.88-17.47l-1.01,0l-31.74,0.14l-1.01,0
			c0.42,4,0.98,13.87-1.46,17.49c-0.39,0.58-6.03,3.2-9.81,5.22c-3.13,1.68-11.68,6.93-12.84,7.37c0.3,0.39,4.14,11.68,8.18,17.72
			c1.86,2.78,2.72,5.46,5.09,7.76c2.44,2.37,5.23,4.31,8.29,5.64c3.67,1.6,7.62,2.36,11.56,2.59c2.7,0.16,5.44,0.12,8.16-0.12
			c2.72,0.22,5.46,0.23,8.16,0.05c3.94-0.26,7.88-1.06,11.54-2.69c3.05-1.36,5.82-3.32,8.24-5.72c2.35-2.32,3.1-5.01,4.93-7.8
			c3.98-6.07,8.32-17.47,8.62-17.86C112.15,82.8,102.91,77.53,99.92,75.99z"/>
		<g>
			<path class="st0" d="M129.72,93.56c-0.11-0.09-1.18-1.48-1.29-1.57c-4.14-3.43-13.2-8.25-17.08-9.67
				c-4.09-1.5-21.53,3.9-37.22,3.98c-0.04,0-1.38,0.04-2.26,0.06c-0.89-0.02-2.23-0.04-2.27-0.04C53.92,86.37,42,77,42,77
				S33.63,81.46,29.55,83C25.69,84.46,134.97,100.33,129.72,93.56z"/>
		</g>
		<path class="st0" d="M94.15,33.81c0,0-0.24-11.41-0.38-16.03C93.62,12.79,93.33,5.11,79.05,0.8c-0.8-0.24-4.33-0.82-7.77-0.8
			c-3.21,0.02-6.33,0.63-7.08,0.86c-3.77,1.18-6.55,2.93-9.33,5.43c-3.78,3.4-5.3,6.7-5.4,11.69c-0.1,4.62-0.16,16.03-0.16,16.03
			c-4.39-3.66-4.41,0.82-4.18,3.25c0.31,3.3,1.32,5.77,2.34,7.82c0.68,1.36,1.39,3.33,3.39,3.4c0.75,0.03,1.23-0.56,1.23-0.56
			s0.34,4.75,0.52,6.06c0.52,3.9,9.19,14.82,14.05,15.77c1.47,0.29,9.06,0.26,10.43-0.01c4.79-0.95,13.59-11.92,14.09-15.93
			c0.16-1.31,0.47-6.06,0.47-6.06s0.49,0.58,1.24,0.55c1.99-0.09,2.46-2.06,3.12-3.43c1-2.06,2.35-5.22,2.42-8.54
			C98.49,33.94,98.5,30.11,94.15,33.81z"/>
		<g>
			<g>
				<path class="st1" d="M50.01,41.4c0.11-0.01-0.89-3.58-1.48-4.99c-0.64-1.53-1.28-1.87-1.67-1.84c-0.74,0.05-0.99,3.47-0.99,3.47
					s0.53-3.68,2.19-0.73C48.53,38.14,49.87,41.41,50.01,41.4z"/>
				<path class="st1" d="M47.39,37.94c0.04-0.24,0.3-1.65,0.49-1.66c0.24-0.01,0.25,1,0.19,1.17c-0.16,0.5-0.32,1.01-0.42,1.54
					c-0.11,0.56-0.11,1.1-0.1,1.68c0.01,0.51,0.12,1.11,0.22,1.6c-0.39-0.38-0.5-1.9-0.51-2.47C47.24,38.81,47.29,38.5,47.39,37.94z
					"/>
				<path class="st2" d="M50.38,44.27c-0.03-0.09-0.56-1.27-0.6-1.36c-0.39-0.87,0.43,0.25,0.51,0.35c0.4,0.56,0.69,0.87,0.97,1.34
					c0.24,0.4,0.13,1.04-0.42,1.1c-0.46,0.05-1.04-0.39-1.24-1.03C49.57,44.59,50.79,45.4,50.38,44.27z"/>
			</g>
			<g>
				<path class="st1" d="M93.63,41.21c-0.11-0.01,0.86-3.58,1.43-5c0.62-1.54,1.26-1.88,1.65-1.86c0.74,0.04,1.02,3.46,1.02,3.46
					s-0.56-3.68-2.2-0.72C95.07,37.93,93.76,41.22,93.63,41.21z"/>
				<path class="st1" d="M96.21,37.72c-0.05-0.24-0.31-1.65-0.51-1.66c-0.24-0.01-0.24,1.01-0.18,1.17c0.17,0.5,0.33,1,0.44,1.54
					c0.12,0.56,0.12,1.1,0.12,1.68c-0.01,0.51-0.11,1.11-0.21,1.6c0.39-0.38,0.48-1.9,0.49-2.47C96.37,38.6,96.32,38.28,96.21,37.72
					z"/>
				<path class="st2" d="M93.28,44.09c0.03-0.09,0.55-1.27,0.59-1.37c0.38-0.87-0.43,0.25-0.51,0.36c-0.39,0.56-0.68,0.87-0.96,1.35
					c-0.24,0.41-0.12,1.04,0.43,1.1c0.46,0.05,1.04-0.4,1.23-1.04C94.09,44.39,92.87,45.21,93.28,44.09z"/>
			</g>
		</g>
	</g>
	<g>
		<path class="st0" d="M116.52,79.26c2.76,0.84,8.02,7.8,8.93,8.61c0.03,0.02,3.06,1.5,3.15,1.66c3.69,6.77,8.25,17.82,10.46,25.42
			s5.83,30.44,7.02,40.3c1.19,9.87,3.69,25.7,4.59,37.18c0.39,4.97,1.73,13.51,1.73,13.51l-17.28,2.16c0,0-1.2-4.79-1.73-9.27
			c-0.8-6.7-6.56-41.24-7.8-47.61c-1.94-9.88-5.37-30.59-5.37-30.59S114.72,78.71,116.52,79.26z"/>
	</g>
	<g>
		<path class="st0" d="M27.76,75.87c-2.7,1.03-7.48,8.31-8.34,9.18c-0.03,0.02,0.08-0.17,0,0c-3.23,7-12.98,21.29-12.74,28.24
			c0.25,7.14-2.82,30.45-3.36,40.36c-0.53,9.92-1.97,25.89-2.1,37.4c-0.06,4.98-0.82,13.59-0.82,13.59l17.39,1.01
			c0,0,0.87-4.86,1.11-9.37c0.36-6.74,3.8-41.59,4.62-48.02c1.27-9.99,2.24-30.82,2.24-30.82S29.52,75.2,27.76,75.87z"/>
	</g>
	<g>
		<path class="st45" d="M93.01,71.23c0,0,7.81,3.01,9.05,4.04c1.24,1.04,7.88,12.05,7.91,18.52c0.03,6.47,0.55,10.85,0.58,15.67
			c0.02,4.81,0.04,26.32-0.37,30.49c-0.41,4.17,1.29,23.72,1.31,27.17s2.98,10.66,2.99,13.46c0.01,2.81,2.61,12.83,2.64,19.41
			c0.03,6.57,0.07,14.77,0.07,14.77s-33.32-0.93-47.99-0.87c-14.68,0.06-40.7,2.23-40.7,2.23s-2.84-6.68-1.08-15.1
			c1.75-8.42,7.38-33.58,7.36-37.46c-0.02-3.89,0.04-19.74,0.04-19.74s-1.42-32.03-1.44-37.53c-0.02-5.5,0.32-15.96,2.84-21.91
			c2.53-5.95,5.63-10.33,6.2-10.82c0.57-0.48,5.87-1.39,5.87-1.39s21.86,8.6,31.29,5.54C89,74.68,93.01,71.23,93.01,71.23z"/>
		<path class="st46" d="M36.68,84.91c0.34,0,1.72,3.73,1.73,6.11c0.01,2.37-0.69,7.01,0.81,8.26c1.49,1.25,0.19,4.03-0.57,6.19
			c-0.75,2.16-1.42,15.72,0.5,17.33c1.93,1.61,3.57-0.81,6.38-1.83c2.8-1.01,3.31-1.81,0.44,2.37c-2.88,4.18-6.53,6.14-2.44,8.71
			c4.09,2.57,10.41,4.41,5.63,4.43c-4.76,0.02-8.33,0.11-8.33,0.11s3.6,5.09,6.17,8.46c2.56,3.36,6.73,2.7,7.07,2.7
			c0.34,0,0.34-0.58,0.34,0c0,0.57-0.83,3.52-6.63,2.4c-5.79-1.13-8.26-2.7-8.25,0.11c0.01,2.8-0.03,11.57,2.04,17.96
			c2.07,6.4,0.71,6.18,4.2,6.67c3.49,0.48-2.38-0.43-5.35,3.11c-2.96,3.54-7.53,7.94-1.73,11.37c5.79,3.43,6.99,3.42,8.61,3.42
			c1.61-0.01-8.09-0.76-9.78,2.42c-1.69,3.17-1.86,2.74-0.66,5.54c1.2,2.8-7.9,3.2-6.53,5.21c1.37,2,7.32,1.84,13.36,1.82
			c6.04-0.03,1.71,1.36-1.1,2.51c-2.8,1.17,2.91,3.58,4.1,3.58c1.19-0.01-0.04,0.98-0.04,0.98s-7.76,0.8-12.02,0.82
			c-4.26,0.02-6.26,0.14-6.26,0.14s-1.5-5.38-1.51-8.18c-0.01-2.8,0.84-7.99,1.55-11.33c0.72-3.33,2.56-11.92,3.13-14.66
			c0.57-2.73,2.52-12.22,2.86-14.82c0.34-2.59,0.36-4.74,0.37-8.09c0.01-3.34,0.06-13.84,0.04-14.56c-0.02-0.72-0.7-16.92-0.7-16.92
			l-0.74-21.53c0,0,0.48-15.43,1.58-18.17c1.1-2.73,1.61-2.74,1.61-2.74L36.68,84.91z"/>
		<path class="st46" d="M110.2,102.95c0,0-2.31-0.2-2.28,6.38c0.03,6.58-0.21,10.79-2.88,13.06c-2.67,2.28-9.57,0.8-4.97,2.4
			c4.6,1.59,5.37,1.59,5.37,1.59s-1.02-0.21-3.24,2.77c-2.22,2.98-6.16,5.15-3.99,6.11c2.17,0.97,5.62,2.13,5.62,2.13
			s4.25,7.75,1.32,10.24c-2.92,2.49-3.04,4.86-7.64,4.88c-4.59,0.02-10.46-1.03-7.01,1.86c3.45,2.9,10.74,4.59,11.38,4.59
			c0.64,0,3.34,5.49,3.34,5.49s-5.86,1.21-8.41,3.38c-2.54,2.17,3.71,2.79,6.53,4.17c2.81,1.4,5.51,4.51,5.54,10.12
			c0.02,5.61-0.46,12.62-5.81,14.48c-5.35,1.85-6.31,2.66-6.31,2.66s1.87,3.28,7.22,1.64c5.35-1.64,9.31-1.12,9.31-1.12
			s0.41,6.58-0.73,7.56c-1.14,0.97,4.6,2.03,4.6,2.03s0.1-9.12-0.13-11.51c-0.22-2.38-1.56-10.69-1.81-12.14
			c-0.25-1.44-1.14-7.83-1.71-9.82c-0.57-1.98-1.89-6.27-2.02-8.98c-0.13-2.7-0.62-10.23-0.62-10.23l-0.72-13.13l0.31-12.11
			l0.08-15.61L110.2,102.95z"/>
		<path class="st47" d="M52.36,69.45c0,0,4.37,6.52,16.44,6.47c12.09-0.05,11.58,0.44,15.23-0.86c3.65-1.31,6.87-5.28,6.87-5.28
			l4.09,2.79c0,0-6.78,5.79-10.6,6.74c-3.82,0.95-12.59,1.57-16.07,1.29c-3.49-0.28-14.82-3.24-17.12-4.53
			c-2.31-1.29-2.9-3.87-2.9-3.87L52.36,69.45z"/>
		<path class="st47" d="M42.42,73.59c0,0-12.32,1.44-16.82,3.25c-4.5,1.82-14.64,19.26-14.64,19.26L4.4,115.34l19.58,8.61l9.6-10.54
			C33.58,113.41,37.85,76.92,42.42,73.59z"/>
		<path class="st47" d="M101.32,74.8c0,0,12.34,1.78,16.85,3.56c4.52,1.78,8.02,8.1,10.93,11.47c2.91,3.37,10.59,26.84,10.59,26.84
			l-19.35,8.72l-9.84-10.39C110.51,114.99,108.25,79.51,101.32,74.8z"/>
	</g>
</g>
</svg>
