<?xml version="1.0" encoding="utf-8"?>
<!-- Generator: Adobe Illustrator 23.0.6, SVG Export Plug-In . SVG Version: 6.00 Build 0)  -->
<svg version="1.1" id="Capa_1" xmlns="http://www.w3.org/2000/svg" xmlns:xlink="http://www.w3.org/1999/xlink" x="0px" y="0px"
	 viewBox="0 0 152.79 186.83" style="enable-background:new 0 0 152.79 186.83;" xml:space="preserve">
<style type="text/css">
	.st0{fill:#F0AC80;}
	.st1{fill-rule:evenodd;clip-rule:evenodd;fill:#D68B62;}
	.st2{fill-rule:evenodd;clip-rule:evenodd;fill:#E8A073;}
	.st3{fill:#BFE9FF;}
	.st4{fill:#A8E1FF;}
	.st5{fill:#A3DEFF;}
	.st6{fill:#B0E3FF;}
	.st7{fill:#FF5955;}
	.st8{fill:#FF0000;}
	.st9{fill:#3A8A00;}
	.st10{fill:#417400;}
	.st11{fill:#4D4D4D;}
	.st12{fill:#333333;}
	.st13{fill:#1B1464;}
	.st14{fill:#271D91;}
	.st15{fill:#B2B2B2;stroke:#B2B2B2;stroke-width:0.25;}
	.st16{fill:#8C8C8C;stroke:#5A3D1C;stroke-width:0.25;}
	.st17{fill:#A6A6A6;}
	.st18{fill:#FFFFFF;stroke:#B2B2B2;stroke-width:0.25;}
	.st19{fill:#EBEBEB;}
	.st20{stroke:#000000;stroke-width:0.25;}
	.st21{fill:#8C8C8C;stroke:#003642;stroke-width:0.25;}
	.st22{fill:#7A7A7A;}
	.st23{fill:#666666;stroke:#666666;stroke-width:0.25;}
	.st24{fill:#141414;}
	.st25{fill:#FFFFFF;stroke:#B2B2B2;}
	.st26{fill:#EDEDED;}
	.st27{fill:#694721;}
	.st28{fill:#5A3D1C;}
	.st29{fill:#006631;}
	.st30{fill:#00592B;}
	.st31{fill:#035B73;stroke:#003642;stroke-width:0.25;}
	.st32{fill:#02495C;stroke:#003642;stroke-width:0.25;}
	.st33{fill:#02495C;}
	.st34{fill:#820000;stroke:#730000;}
	.st35{fill:#5C0000;stroke:#5A3D1C;stroke-width:0.25;}
	.st36{fill:#780000;}
	.st37{fill:#006B33;stroke:#003642;stroke-width:0.25;}
	.st38{fill:#00592B;stroke:#003642;stroke-width:0.25;}
	.st39{fill:#DB8C3D;stroke:#003642;stroke-width:0.25;}
	.st40{fill:#C2803D;}
	.st41{fill:#DB6D00;stroke:#003642;stroke-width:0.25;}
	.st42{fill:#3F3F3F;stroke:#3F3F3F;stroke-width:0.25;}
	.st43{stroke:#3F3F3F;stroke-width:0.25;}
	.st44{fill:#262626;}
	.st45{fill:#5A3D1C;stroke:#003642;stroke-width:0.25;}
	.st46{fill:#52361A;}
	.st47{fill:#422C15;stroke:#003642;stroke-width:0.25;}
	.st48{fill:#FFFFFF;stroke:#E8E8E8;}
	.st49{fill:#E3E3E3;}
	.st50{fill:#B2B2B2;}
	.st51{fill:#FFBF00;}
	.st52{fill:#F5B700;}
	.st53{fill:#EBAF00;stroke:#D19D00;stroke-width:0.25;}
	.st54{fill:#D010B1;}
	.st55{fill:#A60D8C;}
	.st56{fill:#00A33D;}
	.st57{fill:#008033;}
	.st58{fill:#00D4FF;}
	.st59{fill:#00ABFF;}
	.st60{fill:#0A0A0A;stroke:#000000;}
	.st61{fill:#666666;stroke:#000000;stroke-width:0.25;}
	.st62{stroke:#000000;}
	.st63{fill:#00B800;}
	.st64{fill:#009C00;}
	.st65{fill:#3F3F3F;}
	.st66{fill:#73A334;stroke:#8CC63F;stroke-width:0.1;}
	.st67{fill:#8CC63F;stroke:#8CC63F;stroke-width:0.1;}
	.st68{fill:#545454;}
	.st69{fill:#7558A4;}
	.st70{fill:#7536D1;}
	.st71{fill:#E2BB95;stroke:#D5AF8C;}
	.st72{fill:#D5AF8C;}
	.st73{fill:#E2BB95;stroke:#D5AF8C;stroke-width:0.5;}
	.st74{fill:#9E2231;}
	.st75{fill:#B72837;}
	.st76{fill:#FFE085;}
	.st77{fill:#EBCE7A;}
	.st78{fill:url(#SVGID_1_);}
	.st79{fill:url(#SVGID_2_);}
	.st80{fill:url(#SVGID_3_);}
	.st81{fill:#D00204;}
	.st82{fill:#D10507;}
	.st83{fill:#D3090B;}
	.st84{fill:#D40C0E;}
	.st85{fill:#D51012;}
	.st86{fill:#D71315;}
	.st87{fill:#D81718;}
	.st88{fill:#D91A1C;}
	.st89{fill:#DB1E1F;}
	.st90{fill:#DC2122;}
	.st91{fill:#DD2526;}
	.st92{fill:#DF2829;}
	.st93{fill:#E02C2D;}
	.st94{fill:#E22F30;}
	.st95{fill:#E33333;}
	.st96{fill:#E43637;}
	.st97{fill:#E63A3A;}
	.st98{fill:#E73D3E;}
	.st99{fill:#E84141;}
	.st100{fill:#EA4444;}
	.st101{fill:#EB4848;}
	.st102{fill:#EC4B4B;}
	.st103{fill:#EE4F4E;}
	.st104{fill:#EF5252;}
	.st105{fill:#F05655;}
	.st106{fill:#F25A59;}
	.st107{fill:#F35D5C;}
	.st108{fill:#047A04;}
	.st109{fill:#57B328;}
	.st110{fill:#507F29;}
	.st111{fill:#DDBB06;}
	.st112{fill:#A80000;}
	.st113{fill:#9E0000;}
	.st114{fill:#8F0000;stroke:#610000;stroke-width:0.25;}
	.st115{fill:#5A3D1C;stroke:#805426;}
	.st116{fill:#63421F;}
	.st117{fill:#5A3D1C;stroke:#6B4620;}
	.st118{fill:url(#SVGID_4_);}
	.st119{fill:#171717;stroke:#000000;}
	.st120{fill:#212121;}
	.st121{fill:url(#SVGID_5_);}
	.st122{fill:#3F3F3F;stroke:#3F3F3F;}
	.st123{fill:#8C8C8C;stroke:#3F3F3F;}
	.st124{fill:#808080;}
	.st125{fill:url(#SVGID_6_);}
	.st126{fill:none;}
	.st127{fill:#D4D4D4;}
	.st128{fill:#D4D4D4;stroke:#B8B8B8;stroke-width:0.5;}
	.st129{fill:#D4D4D4;stroke:#B8B8B8;stroke-width:0.2;}
	.st130{fill:#C7C7C7;}
	.st131{fill:#DBF8FF;stroke:#7DBDCC;stroke-width:0.25;}
	.st132{fill:#C2F3FF;}
	.st133{fill:#F2F2F2;}
	.st134{fill:url(#SVGID_7_);stroke:#000000;}
	.st135{fill:#42210B;stroke:#000000;}
	.st136{fill:#C69C6D;stroke:#000000;}
	.st137{fill:#93278F;stroke:#000000;}
	.st138{fill:#589F3E;}
	.st139{fill:#4D8F39;}
	.st140{fill:#963528;}
	.st141{fill:#AC3A2D;}
	.st142{fill:#211915;}
	.st143{fill:#444242;}
	.st144{fill:#1A1A1A;}
	.st145{fill:#FFFFFF;}
	.st146{fill:#2E2E2E;}
	.st147{fill:#363636;}
	.st148{fill:#666666;}
	.st149{fill:#C69C6D;}
	.st150{fill:#B38D62;}
	.st151{fill:#A67C52;}
	.st152{fill:#8C6239;}
	.st153{fill:#9E10D2;}
	.st154{fill:#8210D2;}
	.st155{fill:#6B6B6B;}
	.st156{fill:#008C08;}
	.st157{fill:#00A308;}
	.st158{fill:#EC2024;}
	.st159{fill:#E31E26;}
	.st160{fill:#BED63A;}
	.st161{fill:#EC1C24;}
	.st162{fill:#00ADEE;}
	.st163{fill:#2E3191;}
</style>
<g>
	<g>
		<path class="st0" d="M102.03,76.12c-3.81-1.97-9.05-4.3-9.57-5.18c-2.22-3.76-2.21-13.48-1.8-17.48h-1.01H57.9h-1.01
			c0.4,4,0.92,13.87-1.54,17.48c-0.39,0.58-6.05,3.17-9.83,5.18C42.38,77.78,33.8,83,32.64,83.43c0.3,0.39,4.09,11.7,8.1,17.76
			c1.84,2.78,2.7,5.47,5.05,7.78c2.43,2.38,5.21,4.34,8.26,5.68c3.67,1.61,7.6,2.4,11.55,2.64c2.7,0.17,5.44,0.14,8.16-0.08
			c2.72,0.23,5.46,0.25,8.16,0.08c3.95-0.25,7.88-1.03,11.55-2.64c3.05-1.34,5.83-3.3,8.26-5.68c2.36-2.31,3.12-5,4.97-7.78
			c4.01-6.06,8.39-17.43,8.69-17.82C114.22,82.98,105.01,77.67,102.03,76.12z"/>
		<g>
			<path class="st0" d="M122.94,95.46c-0.11-0.09-6.89-2.91-7-3c-4.13-3.44,1.37-8.53-2.5-9.97c-4.08-1.52-21.55,3.81-37.23,3.82
				c-0.04,0-1.38,0.03-2.27,0.05c-0.89-0.02-2.23-0.05-2.27-0.05c-15.69-0.01-27.57-9.43-27.57-9.43s-8.39,4.41-12.48,5.94
				C27.76,84.25,128.15,102.26,122.94,95.46z"/>
		</g>
		<path class="st0" d="M96.44,33.91c0,0-0.19-11.41-0.31-16.03c-0.13-4.99-0.38-12.68-14.64-17.05c-0.8-0.25-4.33-0.84-7.76-0.83
			c-3.21,0.01-6.33,0.6-7.08,0.83c-3.78,1.16-6.57,2.9-9.35,5.38c-3.8,3.38-5.33,6.68-5.45,11.67c-0.12,4.62-0.23,16.03-0.23,16.03
			c-4.37-3.68-4.41,0.8-4.2,3.23c0.29,3.3,1.29,5.77,2.3,7.83c0.67,1.37,1.38,3.34,3.37,3.42c0.75,0.03,1.24-0.55,1.24-0.55
			s0.32,4.75,0.5,6.06c0.51,3.9,9.13,14.86,13.98,15.83c1.47,0.29,9.06,0.3,10.43,0.04c4.79-0.93,13.64-11.86,14.16-15.87
			c0.17-1.31,0.49-6.06,0.49-6.06s0.49,0.58,1.24,0.55c1.99-0.08,2.47-2.05,3.14-3.42c1.01-2.05,2.38-5.21,2.46-8.53
			C100.78,34.06,100.82,30.23,96.44,33.91z"/>
		<g>
			<g>
				<path class="st1" d="M52.27,41.31c0.11-0.01-0.87-3.58-1.45-5c-0.63-1.54-1.27-1.87-1.66-1.85c-0.74,0.04-1,3.47-1,3.47
					s0.54-3.68,2.2-0.72C50.81,38.03,52.14,41.32,52.27,41.31z"/>
				<path class="st1" d="M49.66,37.83c0.05-0.24,0.3-1.65,0.5-1.66c0.24-0.01,0.24,1.01,0.19,1.17c-0.16,0.5-0.32,1-0.43,1.54
					c-0.11,0.56-0.12,1.1-0.11,1.68c0.01,0.51,0.12,1.11,0.22,1.6c-0.39-0.38-0.49-1.9-0.5-2.47
					C49.52,38.71,49.56,38.39,49.66,37.83z"/>
				<path class="st2" d="M52.63,44.18c-0.03-0.09-0.56-1.27-0.6-1.36c-0.38-0.87,0.43,0.25,0.51,0.35c0.4,0.56,0.69,0.87,0.97,1.35
					c0.24,0.41,0.12,1.04-0.43,1.1c-0.46,0.05-1.04-0.39-1.23-1.04C51.81,44.49,53.04,45.31,52.63,44.18z"/>
			</g>
			<g>
				<path class="st1" d="M95.89,41.31c-0.11-0.01,0.87-3.58,1.45-5c0.63-1.54,1.27-1.88,1.66-1.85c0.74,0.04,1,3.47,1,3.47
					s-0.54-3.68-2.2-0.73C97.35,38.03,96.02,41.32,95.89,41.31z"/>
				<path class="st1" d="M98.49,37.83c-0.05-0.24-0.3-1.65-0.5-1.66c-0.24-0.01-0.24,1.01-0.19,1.17c0.16,0.5,0.32,1,0.43,1.54
					c0.11,0.56,0.12,1.1,0.11,1.68c-0.01,0.51-0.12,1.11-0.22,1.6c0.39-0.38,0.49-1.9,0.5-2.47C98.64,38.71,98.6,38.39,98.49,37.83z
					"/>
				<path class="st2" d="M95.53,44.18c0.03-0.09,0.56-1.27,0.6-1.36c0.38-0.87-0.43,0.25-0.51,0.35c-0.4,0.56-0.69,0.87-0.97,1.35
					c-0.24,0.41-0.12,1.04,0.43,1.1c0.46,0.05,1.04-0.39,1.24-1.04C96.34,44.49,95.12,45.31,95.53,44.18z"/>
			</g>
		</g>
	</g>
	<g>
		<g>
			<path class="st0" d="M133.63,184.53c-0.17-8.27-1.86-42.44-2.2-46.68c-0.34-4.22-3.2-15.29-4.4-25.87
				c-1.26-11.11-5.43-19.44-8.56-24.65c-0.22-0.37-0.5-0.67-0.81-0.92c-0.02-0.03-0.04-0.05-0.06-0.08
				c-0.08-0.07-0.87-1.11-0.96-1.18c-2.91-2.43-9.11-5.81-12.21-7.08c-1.09-0.57,0.76,19.43-30.51,19.43
				c-20.83,0-29.52-19.95-31.05-19.37c-2.31,0.86-6.57,3.25-9.76,5.49c-0.69,0.36-1.41,0.89-2.14,1.62
				c-0.02,0.02-0.05,0.05-0.01,0.01c-0.15,0.14-0.26,0.27-0.34,0.4c-4.47,5.06-6.09,18.37-5.93,24.3
				c0.18,6.09-2.36,26.55-2.87,35.01c-0.51,8.46-2.03,21.49-2.2,31.3c-0.07,4.25-0.48,15.8-0.48,15.8l13.56,0.88
				c0,0,1.74-8.27,1.97-12.12c0.34-5.75,4.74-35.69,5.92-41.1c1.18-5.41,2.87-27.39,2.87-27.39l0.83,0.17
				c3.86,2.23,7.07,7.53,5.42,19.63c-0.73,5.34-1.04,11.46-2.08,20.83c-0.48,4.33-0.51,9.65-2.37,14.81
				c-0.87,2.42,11.47-14.27,10.66-12.25c0.19,0.07,10.81-1.07,11-1c-1.32,6.44-8.72-0.94-9,5c-0.51,10.66-4,12-4,12s34.29,8.88,37,6
				c2.7-2.87,19.66,6.9,18.06,1.35c-0.43-2.94-0.84-5.7-0.88-5.8c-2.16-5.3-4.59-16.61-4.59-19.05c0-2.43-0.64-20.94,0.36-27.1
				c0.88-5.44-0.61-16.72-0.97-19.27c2,2.84,6.06,8.73,6.69,10.75c0.85,2.71,2.37,14.89,2.7,23.34c0.34,8.45,2.04,21.14,2.04,21.14
				s2.05,15.16,3.21,19.63c0.19,0.73,0.55,2.71,0.55,2.71S133.73,184.92,133.63,184.53z"/>
		</g>
		<g>
			<path class="st71" d="M38.19,110.66c0,0-11.45-6.1-12.67-6.1c-1.21,0,0.24-9.73,1.22-14.6c0.98-4.88,2.43-9.01,11.2-12.17
				c8.78-3.17,3.41-0.72,3.41-0.72l-0.73,32.85L38.19,110.66z"/>
			<path class="st71" d="M110.26,79.48c0,0,7.07-1.22,10.71,9.01c3.65,10.24,4.39,16.3,4.39,16.3s-14.13,8.05-15.1,9.75
				c-0.99,1.7-1.22-0.5-1.22-0.5l-5.36-17.77L110.26,79.48z"/>
			<path class="st71" d="M97.85,73.4c0,0,11.93,6.08,12.65,6.08c0.74,0-5.84,13.65-3.64,22.9c2.19,9.24,2.93,12.42,2.93,12.42
				s-2.93,14.12-4.89,20.19c-1.94,6.08-5.11,13.63-0.72,26.06c4.38,12.42,8.28,20.21,8.28,20.21s-26.79,7.06-32.14,8.03
				c-5.36,1-20.94,2.43-28.48,2.2c-7.56-0.23-13.89-2.68-14.13-4.14c-0.24-1.47,4.87-19.96,7.3-26.77c2.45-6.82,1.22-17.3,1.22-19.5
				c0-2.17-7.79-15.09-7.79-21.17c0-6.09,0.24-10.22,0.24-10.22s1.83-29.39,0.98-30.93c-1.14-2.02,9.98-5.35,9.98-5.35
				s5.6,18.5,9.74,24.58c4.14,6.08,11.44,14.36,14.61,13.87c3.17-0.47,11.43-8.99,13.39-13.13C89.32,94.59,97.85,73.4,97.85,73.4z"
				/>
			<path class="st72" d="M37.94,118.28c0,0,0.8,5.99,1.8,8.28c0.96,2.28,3.08,6.15,4.21,8.11c1.13,1.95,2.43,4.87,2.59,6.17
				c0.17,1.29,0-0.65,1.63-1.8c1.62-1.11,6.5-3.41,8.91-4.53c2.44-1.15,3.25-1.47,3.25-2.6c0-1.16-5.35,0.49-7.79-0.49
				c-2.43-0.98-7.62-2.75-9.41-5.04C41.35,124.13,37.94,118.28,37.94,118.28z"/>
			<path class="st72" d="M102.87,141.01c0,0,1.47-3.26,2.43-6.19c0.98-2.91,3.09-9.89,2.94-12.16c-0.17-2.27-6.98,7.3-11.54,8.62
				c-4.53,1.29-7.79,1.94-11.2,0.47c-3.41-1.45-7.31-1.61-7.31-1.61s7.15,3.23,8.78,3.89c1.63,0.64,10.06,5.01,11.7,5.67
				C100.29,140.35,102.87,141.01,102.87,141.01z"/>
			<path class="st72" d="M46.88,146.52c0,0,4.38,5.21,6.98,5.53c2.61,0.32,4.87,0.49,4.87,0.49s-8.27,1.62-10.23,2.44
				c-1.94,0.81-2.58,0.33-2.1-4.06C46.88,146.52,46.88,146.52,46.88,146.52z"/>
			<path class="st72" d="M101.9,148.63c0,0.49,0.81,5.36,0.81,5.36s-3.89,0.97-5.35,0.97c-1.46,0-2.1-0.81,0-2.6
				C99.47,150.58,101.9,148.63,101.9,148.63z"/>
			<path class="st72" d="M46.06,160.5l20.78,0.64c0,0-17.85,2.26-19.65,5.03c-1.77,2.75-7.14,14.28-5.35,16.07
				c1.79,1.77,6.01,0.47,10.71,1.77c4.72,1.31,13.48,4.89,14.12,4.89c0.64,0,3.57,0.47,3.57,0.47s-5.52,2.11-9.75,2.11
				c-4.21,0-16.05-0.17-18.99-1.62c-2.92-1.45-4.69-1.15-3.08-6.81c1.61-5.68,3.56-11.53,4.54-15.44c0.97-3.88,1.95-7.79,1.95-7.79
				L46.06,160.5z"/>
			<path class="st72" d="M93.3,172.34c1.95-0.16,2.27-0.16,1.95-0.16c-0.33,0-18.67,10.36-24.35,10.55
				c-5.69,0.16-6.33-0.19-6.33-0.19s21.42-7.6,23.7-9.4C90.54,171.36,91.35,172.5,93.3,172.34z"/>
			<path class="st72" d="M101.42,173.31c0,0-15.58,12.02-17.53,12.33c-1.95,0.32-9.09,0-9.09,0s3.4-0.81,7.14-1.79
				c3.74-0.96,9.26-4.87,9.9-5.51c0.66-0.64,8.46-6,8.46-6L101.42,173.31z"/>
			<path class="st72" d="M102.87,155.95c0,0,8.44,23.03,9.25,24.65c0.81,1.64-1.3,1.32-5.52,2.62c-4.22,1.29-8.59,1.78-8.59,1.78
				s3.89,0.49,6.98-4.06c3.08-4.54,1.79-9.26,1.79-9.26l-3.58-10.22h-7.31c0,0,3.9-3.57,5.04-4.38
				C102.06,156.27,102.87,155.95,102.87,155.95z"/>
			<path class="st72" d="M110.18,97.51c0,0,1.46,0.79,0.49,2.6c-0.98,1.77-1.46,5.19-1.46,5.19l1.95-2.62c0,0,0.15,3.58-0.49,4.57
				c-0.66,0.96,2.44-0.5,2.44-0.5l-1.63,2.93l-0.49,3.56l-1.3,0.8l-2.76-9.08L110.18,97.51z"/>
			<path class="st72" d="M37.54,98.16l-0.16,0.47c0,0,0,3.9-0.98,2.13c-0.97-1.79-1.47-2.61-1.47-2.61s-0.32,3.08,0.34,4.38
				c0.64,1.3,1.45,2.11,1.45,2.11s0.81,2.75-0.48,1.62c-1.31-1.13-2.27-2.43-2.27-2.43s0.32,2.75,0.96,3.07
				c0.66,0.34,1.31,1.63,1.31,1.63s1.62,2.59,2.77,1.46C40.13,108.87,37.54,98.16,37.54,98.16z"/>
			<path class="st73" d="M38.19,110.66c0,0-11.45-6.1-12.67-6.1c-1.21,0,0.24-9.73,1.22-14.6c0.98-4.88,2.43-9.01,11.2-12.17
				c8.78-3.17,3.41-0.72,3.41-0.72l-0.73,32.85L38.19,110.66z"/>
			<path class="st73" d="M110.26,79.48c0,0,7.07-1.22,10.71,9.01c3.65,10.24,4.39,16.3,4.39,16.3s-14.13,8.05-15.1,9.75
				c-0.99,1.7-1.22-0.5-1.22-0.5l-5.36-17.77L110.26,79.48z"/>
			<path class="st73" d="M97.85,73.4c0,0,11.93,6.08,12.65,6.08c0.74,0-5.84,13.65-3.64,22.9c2.19,9.24,2.93,12.42,2.93,12.42
				s-2.93,14.12-4.89,20.19c-1.94,6.08-5.11,13.63-0.72,26.06c4.38,12.42,8.28,20.21,8.28,20.21s-26.79,7.06-32.14,8.03
				c-5.36,1-20.94,2.43-28.48,2.2c-7.56-0.23-13.89-2.68-14.13-4.14c-0.24-1.47,4.87-19.96,7.3-26.77c2.45-6.82,1.22-17.3,1.22-19.5
				c0-2.17-7.79-15.09-7.79-21.17c0-6.09,0.24-10.22,0.24-10.22s1.83-29.39,0.98-30.93c-1.14-2.02,9.98-5.35,9.98-5.35
				s5.6,18.5,9.74,24.58c4.14,6.08,11.44,14.36,14.61,13.87c3.17-0.47,11.43-8.99,13.39-13.13C89.32,94.59,97.85,73.4,97.85,73.4z"
				/>
			<path class="st72" d="M37.94,118.28c0,0,0.8,5.99,1.8,8.28c0.96,2.28,3.08,6.15,4.21,8.11c1.13,1.95,2.43,4.87,2.59,6.17
				c0.17,1.29,0-0.65,1.63-1.8c1.62-1.11,6.5-3.41,8.91-4.53c2.44-1.15,3.25-1.47,3.25-2.6c0-1.16-5.35,0.49-7.79-0.49
				c-2.43-0.98-7.62-2.75-9.41-5.04C41.35,124.13,37.94,118.28,37.94,118.28z"/>
			<path class="st72" d="M102.87,141.01c0,0,1.47-3.26,2.43-6.19c0.98-2.91,3.09-9.89,2.94-12.16c-0.17-2.27-6.98,7.3-11.54,8.62
				c-4.53,1.29-7.79,1.94-11.2,0.47c-3.41-1.45-7.31-1.61-7.31-1.61s7.15,3.23,8.78,3.89c1.63,0.64,10.06,5.01,11.7,5.67
				C100.29,140.35,102.87,141.01,102.87,141.01z"/>
			<path class="st72" d="M46.88,146.52c0,0,4.38,5.21,6.98,5.53c2.61,0.32,4.87,0.49,4.87,0.49s-8.27,1.62-10.23,2.44
				c-1.94,0.81-2.58,0.33-2.1-4.06C46.88,146.52,46.88,146.52,46.88,146.52z"/>
			<path class="st72" d="M101.9,148.63c0,0.49,0.81,5.36,0.81,5.36s-3.89,0.97-5.35,0.97c-1.46,0-2.1-0.81,0-2.6
				C99.47,150.58,101.9,148.63,101.9,148.63z"/>
			<path class="st72" d="M46.06,160.5l20.78,0.64c0,0-17.85,2.26-19.65,5.03c-1.77,2.75-7.14,14.28-5.35,16.07
				c1.79,1.77,6.01,0.47,10.71,1.77c4.72,1.31,13.48,4.89,14.12,4.89c0.64,0,3.57,0.47,3.57,0.47s-5.52,2.11-9.75,2.11
				c-4.21,0-16.05-0.17-18.99-1.62c-2.92-1.45-4.69-1.15-3.08-6.81c1.61-5.68,3.56-11.53,4.54-15.44c0.97-3.88,1.95-7.79,1.95-7.79
				L46.06,160.5z"/>
			<path class="st72" d="M93.3,172.34c1.95-0.16,2.27-0.16,1.95-0.16c-0.33,0-18.67,10.36-24.35,10.55
				c-5.69,0.16-6.33-0.19-6.33-0.19s21.42-7.6,23.7-9.4C90.54,171.36,91.35,172.5,93.3,172.34z"/>
			<path class="st72" d="M101.42,173.31c0,0-15.58,12.02-17.53,12.33c-1.95,0.32-9.09,0-9.09,0s3.4-0.81,7.14-1.79
				c3.74-0.96,9.26-4.87,9.9-5.51c0.66-0.64,8.46-6,8.46-6L101.42,173.31z"/>
			<path class="st72" d="M102.87,155.95c0,0,8.44,23.03,9.25,24.65c0.81,1.64-1.3,1.32-5.52,2.62c-4.22,1.29-8.59,1.78-8.59,1.78
				s3.89,0.49,6.98-4.06c3.08-4.54,1.79-9.26,1.79-9.26l-3.58-10.22h-7.31c0,0,3.9-3.57,5.04-4.38
				C102.06,156.27,102.87,155.95,102.87,155.95z"/>
			<path class="st72" d="M110.18,97.51c0,0,1.46,0.79,0.49,2.6c-0.98,1.77-1.46,5.19-1.46,5.19l1.95-2.62c0,0,0.15,3.58-0.49,4.57
				c-0.66,0.96,2.44-0.5,2.44-0.5l-1.63,2.93l-0.49,3.56l-1.3,0.8l-2.76-9.08L110.18,97.51z"/>
			<path class="st72" d="M37.54,98.16l-0.16,0.47c0,0,0,3.9-0.98,2.13c-0.97-1.79-1.47-2.61-1.47-2.61s-0.32,3.08,0.34,4.38
				c0.64,1.3,1.45,2.11,1.45,2.11s0.81,2.75-0.48,1.62c-1.31-1.13-2.27-2.43-2.27-2.43s0.32,2.75,0.96,3.07
				c0.66,0.34,1.31,1.63,1.31,1.63s1.62,2.59,2.77,1.46C40.13,108.87,37.54,98.16,37.54,98.16z"/>
		</g>
	</g>
</g>
</svg>
