<?xml version="1.0" encoding="utf-8"?>
<!-- Generator: Adobe Illustrator 23.0.6, SVG Export Plug-In . SVG Version: 6.00 Build 0)  -->
<svg version="1.1" id="Capa_1" xmlns="http://www.w3.org/2000/svg" xmlns:xlink="http://www.w3.org/1999/xlink" x="0px" y="0px"
	 viewBox="0 0 152.79 186.83" style="enable-background:new 0 0 152.79 186.83;" xml:space="preserve">
<style type="text/css">
	.st0{fill:#F0AC80;}
	.st1{fill-rule:evenodd;clip-rule:evenodd;fill:#D68B62;}
	.st2{fill-rule:evenodd;clip-rule:evenodd;fill:#E8A073;}
	.st3{fill:#BFE9FF;}
	.st4{fill:#A8E1FF;}
	.st5{fill:#A3DEFF;}
	.st6{fill:#B0E3FF;}
	.st7{fill:#FF5955;}
	.st8{fill:#FF0000;}
	.st9{fill:#3A8A00;}
	.st10{fill:#417400;}
	.st11{fill:#4D4D4D;}
	.st12{fill:#333333;}
	.st13{fill:#1B1464;}
	.st14{fill:#271D91;}
	.st15{fill:#B2B2B2;stroke:#B2B2B2;stroke-width:0.25;}
	.st16{fill:#8C8C8C;stroke:#5A3D1C;stroke-width:0.25;}
	.st17{fill:#A6A6A6;}
	.st18{fill:#FFFFFF;stroke:#B2B2B2;stroke-width:0.25;}
	.st19{fill:#EBEBEB;}
	.st20{stroke:#000000;stroke-width:0.25;}
	.st21{fill:#8C8C8C;stroke:#003642;stroke-width:0.25;}
	.st22{fill:#7A7A7A;}
	.st23{fill:#666666;stroke:#666666;stroke-width:0.25;}
	.st24{fill:#141414;}
	.st25{fill:#FFFFFF;stroke:#B2B2B2;}
	.st26{fill:#EDEDED;}
	.st27{fill:#694721;}
	.st28{fill:#5A3D1C;}
	.st29{fill:#006631;}
	.st30{fill:#00592B;}
	.st31{fill:#035B73;stroke:#003642;stroke-width:0.25;}
	.st32{fill:#02495C;stroke:#003642;stroke-width:0.25;}
	.st33{fill:#02495C;}
	.st34{fill:#820000;stroke:#730000;}
	.st35{fill:#5C0000;stroke:#5A3D1C;stroke-width:0.25;}
	.st36{fill:#780000;}
	.st37{fill:#006B33;stroke:#003642;stroke-width:0.25;}
	.st38{fill:#00592B;stroke:#003642;stroke-width:0.25;}
	.st39{fill:#DB8C3D;stroke:#003642;stroke-width:0.25;}
	.st40{fill:#C2803D;}
	.st41{fill:#DB6D00;stroke:#003642;stroke-width:0.25;}
	.st42{fill:#3F3F3F;stroke:#3F3F3F;stroke-width:0.25;}
	.st43{stroke:#3F3F3F;stroke-width:0.25;}
	.st44{fill:#262626;}
	.st45{fill:#5A3D1C;stroke:#003642;stroke-width:0.25;}
	.st46{fill:#52361A;}
	.st47{fill:#422C15;stroke:#003642;stroke-width:0.25;}
	.st48{fill:#FFFFFF;stroke:#E8E8E8;}
	.st49{fill:#E3E3E3;}
	.st50{fill:#B2B2B2;}
	.st51{fill:#FFBF00;}
	.st52{fill:#F5B700;}
	.st53{fill:#EBAF00;stroke:#D19D00;stroke-width:0.25;}
	.st54{fill:#D010B1;}
	.st55{fill:#A60D8C;}
	.st56{fill:#00A33D;}
	.st57{fill:#008033;}
	.st58{fill:#00D4FF;}
	.st59{fill:#00ABFF;}
	.st60{fill:#0A0A0A;stroke:#000000;}
	.st61{fill:#666666;stroke:#000000;stroke-width:0.25;}
	.st62{stroke:#000000;}
	.st63{fill:#00B800;}
	.st64{fill:#009C00;}
	.st65{fill:#3F3F3F;}
	.st66{fill:#73A334;stroke:#8CC63F;stroke-width:0.1;}
	.st67{fill:#8CC63F;stroke:#8CC63F;stroke-width:0.1;}
	.st68{fill:#545454;}
	.st69{fill:#7558A4;}
	.st70{fill:#7536D1;}
	.st71{fill:#E2BB95;stroke:#D5AF8C;}
	.st72{fill:#D5AF8C;}
	.st73{fill:#E2BB95;stroke:#D5AF8C;stroke-width:0.5;}
	.st74{fill:#9E2231;}
	.st75{fill:#B72837;}
	.st76{fill:#FFE085;}
	.st77{fill:#EBCE7A;}
	.st78{fill:url(#SVGID_1_);}
	.st79{fill:url(#SVGID_2_);}
	.st80{fill:url(#SVGID_3_);}
	.st81{fill:#D00204;}
	.st82{fill:#D10507;}
	.st83{fill:#D3090B;}
	.st84{fill:#D40C0E;}
	.st85{fill:#D51012;}
	.st86{fill:#D71315;}
	.st87{fill:#D81718;}
	.st88{fill:#D91A1C;}
	.st89{fill:#DB1E1F;}
	.st90{fill:#DC2122;}
	.st91{fill:#DD2526;}
	.st92{fill:#DF2829;}
	.st93{fill:#E02C2D;}
	.st94{fill:#E22F30;}
	.st95{fill:#E33333;}
	.st96{fill:#E43637;}
	.st97{fill:#E63A3A;}
	.st98{fill:#E73D3E;}
	.st99{fill:#E84141;}
	.st100{fill:#EA4444;}
	.st101{fill:#EB4848;}
	.st102{fill:#EC4B4B;}
	.st103{fill:#EE4F4E;}
	.st104{fill:#EF5252;}
	.st105{fill:#F05655;}
	.st106{fill:#F25A59;}
	.st107{fill:#F35D5C;}
	.st108{fill:#047A04;}
	.st109{fill:#57B328;}
	.st110{fill:#507F29;}
	.st111{fill:#DDBB06;}
	.st112{fill:#A80000;}
	.st113{fill:#9E0000;}
	.st114{fill:#8F0000;stroke:#610000;stroke-width:0.25;}
	.st115{fill:#5A3D1C;stroke:#805426;}
	.st116{fill:#63421F;}
	.st117{fill:#5A3D1C;stroke:#6B4620;}
	.st118{fill:url(#SVGID_4_);}
	.st119{fill:#171717;stroke:#000000;}
	.st120{fill:#212121;}
	.st121{fill:url(#SVGID_5_);}
	.st122{fill:#3F3F3F;stroke:#3F3F3F;}
	.st123{fill:#8C8C8C;stroke:#3F3F3F;}
	.st124{fill:#808080;}
	.st125{fill:url(#SVGID_6_);}
	.st126{fill:none;}
	.st127{fill:#D4D4D4;}
	.st128{fill:#D4D4D4;stroke:#B8B8B8;stroke-width:0.5;}
	.st129{fill:#D4D4D4;stroke:#B8B8B8;stroke-width:0.2;}
	.st130{fill:#C7C7C7;}
	.st131{fill:#DBF8FF;stroke:#7DBDCC;stroke-width:0.25;}
	.st132{fill:#C2F3FF;}
	.st133{fill:#F2F2F2;}
	.st134{fill:url(#SVGID_7_);stroke:#000000;}
	.st135{fill:#42210B;stroke:#000000;}
	.st136{fill:#C69C6D;stroke:#000000;}
	.st137{fill:#93278F;stroke:#000000;}
	.st138{fill:#589F3E;}
	.st139{fill:#4D8F39;}
	.st140{fill:#963528;}
	.st141{fill:#AC3A2D;}
	.st142{fill:#211915;}
	.st143{fill:#444242;}
	.st144{fill:#1A1A1A;}
	.st145{fill:#FFFFFF;}
	.st146{fill:#2E2E2E;}
	.st147{fill:#363636;}
	.st148{fill:#666666;}
	.st149{fill:#C69C6D;}
	.st150{fill:#B38D62;}
	.st151{fill:#A67C52;}
	.st152{fill:#8C6239;}
	.st153{fill:#9E10D2;}
	.st154{fill:#8210D2;}
	.st155{fill:#6B6B6B;}
	.st156{fill:#008C08;}
	.st157{fill:#00A308;}
	.st158{fill:#EC2024;}
	.st159{fill:#E31E26;}
	.st160{fill:#BED63A;}
	.st161{fill:#EC1C24;}
	.st162{fill:#00ADEE;}
	.st163{fill:#2E3191;}
</style>
<g>
	<path class="st0" d="M149.69,213.45c-0.45-14.13-2.35-52.05-2.75-57.09c-0.44-5.43-4.12-19.67-5.66-33.29
		c-1.63-14.29-6.99-25.02-11.01-31.72c-0.29-0.48-0.64-0.86-1.04-1.18c-0.03-0.04-0.05-0.07-0.08-0.11
		c-0.11-0.09-1.12-1.42-1.23-1.51c-3.75-3.13-11.72-7.47-15.71-9.1c-2.82-1.47-9.24-5.15-11.6-6.37c-3.66-1.89-8.69-4.13-9.19-4.97
		c-1.34-2.27-1.83-6.79-1.92-10.79c1.55-2.2,2.65-4.27,2.82-5.58c0.16-1.26,0.47-5.82,0.47-5.82s0.47,0.56,1.19,0.53
		c1.91-0.07,2.37-1.97,3.01-3.28c0.97-1.97,2.28-5.01,2.36-8.19c0.06-2.29,0.09-5.97-4.11-2.43c0,0-0.18-10.96-0.3-15.39
		C94.82,12.38,94.57,4.99,80.88,0.8c-0.77-0.24-4.16-0.8-7.46-0.8c-3.08,0.01-6.08,0.58-6.8,0.8c-3.63,1.11-6.3,2.79-8.98,5.17
		c-3.65,3.25-5.11,6.41-5.23,11.2c-0.11,4.44-0.21,15.39-0.21,15.39c-4.2-3.54-4.24,0.77-4.03,3.1c0.28,3.17,1.24,5.54,2.21,7.51
		c0.64,1.31,1.33,3.21,3.24,3.28c0.72,0.03,1.19-0.53,1.19-0.53s0.31,4.56,0.48,5.82c0.15,1.14,1.02,2.91,2.29,4.84
		c0.09,4.21-0.21,9.22-1.79,11.53c-0.38,0.55-5.81,3.05-9.44,4.97c-0.37,0.2-0.83,0.45-1.34,0.74c0,0-0.01-0.01-0.01-0.01
		s-8.06,4.24-11.98,5.7c-2.97,1.11-8.45,4.18-12.55,7.06c-0.89,0.47-1.81,1.14-2.76,2.09c-0.03,0.02-0.07,0.06-0.01,0.01
		c-0.19,0.18-0.33,0.35-0.44,0.51c-5.75,6.5-7.84,23.64-7.63,31.27c0.23,7.84-3.04,34.17-3.69,45.04
		C5.27,176.4,3.1,205.78,3.1,205.78l19.72,2.12c0,0,5.93-42.99,7.27-49.14c1.52-6.96,0.71-32.59,7.71-46.59s0,0,0,0
		c2.4,1.39,3.11,13.52,3.04,27.03c-0.07,14.4,61.67,9.89,62.96,1.97c1.14-7,4.46-27.72,4-31c2.58,3.65,10.26,18.56,11.08,21.16
		c1.09,3.48,3.05,19.15,3.48,30.04c0.44,10.88,2.62,27.2,2.62,27.2l4.13,25.25L149.69,213.45z"/>
	<g>
		<path class="st27" d="M36.25,116.9c0.44-1.49,5.09-26.95,4.79-35.5c-0.29-8.54-0.29-8.54-0.29-8.54l8.08-0.89
			c0,0,0.14,25.77,2.85,29.96c2.7,4.2,10.34,9.58,22.91,8.54c12.6-1.04,18.29-4.96,20.38-8.84c2.09-3.89,4.94-17.68,4.94-22.33
			s0-8.38,0-8.38l7.64,4.05c0,0,0.61,10.48,0.92,18.13c0.29,7.63,2.09,19.15,3.58,22.45c1.5,3.31,3.3,25.76,2.39,35.5
			c-0.89,9.74,0.31,38.66,1.36,49.43c1.05,10.79,1.79,25.63,1.79,25.63s-9.28,3.89-20.82,5.09c-11.53,1.19-24.86,1.49-35.65-0.3
			c-10.78-1.8-25.46-6.9-25.46-6.9s1.05-22.17,2.7-32.2c1.66-10.05,1.19-26.23,0.9-37.15C38.94,143.72,36.25,116.9,36.25,116.9z"/>
		<path class="st28" d="M38.2,129.78c0,0,3.75,1.34,4.35,4.5c0.59,3.16,8.82,4.64,13.32,4.64c4.49,0,18.87,0,18.87,0
			s-12.13,3.91-14.52,3.91c-2.41,0-4.21,0-6,1.04c-1.8,1.05-2.55,1.2-5.25,1.2c-2.7,0-10.03,3.29-10.03,3.29
			S37.61,134.28,38.2,129.78z"/>
		<path class="st28" d="M39.24,152.26c0,0,0.23,13.85,0.23,15.8c0,1.95-0.09,13.78-0.46,17.09c-0.37,3.29-1.35,11.83-1.79,14.83
			c-0.46,2.99-0.91,12.36-1.2,17.22c-0.29,4.88-0.37,6.82-0.37,6.82l3.52,0.83c0,0-0.38-1.12-0.83-2.1
			c-0.45-0.98-1.05-2.33-0.68-2.92c0.38-0.61,1.2-1.65,1.42-1.65c0.23,0,0.29-0.98-0.15-1.51c-0.44-0.51-0.83-2.25-0.83-2.25
			l1.5-0.74c0,0-0.97-1.72-1.19-2.46c-0.23-0.76-0.53-3.09-0.23-2.93c0.3,0.15,6.81,6.13,7.41,6.66c0.6,0.53-5.84-8.54-5.84-8.54
			s11.77,9,13.79,11.02c2.02,2.02,5.62,3.97,2.78,0.51c-2.86-3.44-5.32-4.71-7.2-6.58c-1.87-1.88-4.95-4.79-5.55-5.41
			c-0.59-0.59-4.27-5.68-4.27-5.68l3.74,2.99l-1.94-3.67c0,0-0.53-3.9-0.23-3.9c0.3,0,3.89,1.21,3.89,1.21s-2.47-1.65-2.92-2.77
			c-0.44-1.13,0.22-1.57,1.13-1.13c0.9,0.45,2.7,2.18,2.32,0.39c-0.36-1.81-2.4-3.31-2.4-3.31s0.38-2.7,3.15-2.47
			c2.78,0.22,12.82,5.69,14.77,5.09c1.94-0.6-10.27-7.27-13.64-9.29c-3.37-2.01-4.34-3.74-4.34-3.74s1.5,1.5,3.37,1.58
			c1.87,0.07,0.83,0.3-1.57-2.69c-2.4-3.01,0.08-10.34,0.08-10.34s8.31,2.84,10.18,2.92c1.88,0.07-6.87-4.65-9.05-6.3
			c-2.17-1.65-3.24-3.23-2.48-3c0.75,0.24,8.99,1.05,18.42,1.66c9.43,0.6,13.86-0.76,13.86-0.76s-16.71-1.42-23.52-3.14
			c-6.82-1.72-10.18-5.03-10.18-5.03L39.24,152.26z"/>
		<path class="st28" d="M113.99,129.11c0,0,1.13,13.19,0.76,17.32c-0.38,4.1-0.61,15.57-0.61,19.98c0,4.41,1.05,19.85,1.05,22.48
			c0,2.61,1.57,17.37,1.66,21.18c0.06,3.83,1.79,15.52,1.12,15.82c-0.68,0.3-3.68,0-3.68-0.24c0-0.21,0.6-3.28,0.38-3.96
			c-0.24-0.68,0-2.69-6.21-2.77c-6.22-0.07-13.26-2.53-8.1-3.51c5.17-0.99,11.52-4.57,12.13-6.45c0.6-1.87-1.12,0.53-3.75,0.38
			c-2.61-0.15-0.07-1.13,1.42-4.04c1.5-2.92,2.93-8.69,2.99-10.72c0.09-2.02,0-4.33,0-4.33s-4.7,4.41-4.86,3.97
			c-0.15-0.45,0.16-0.76,2.32-2.33c2.18-1.57,1.73-2.62,1.42-2.55c-0.3,0.08-12.81,5.92-12.81,5.92s9.66-5.31,11.68-7.79
			c2.03-2.47,1.65-4.2,1.65-4.2s-7.11,6-8.01,6.45c-0.9,0.45,5.68-4.64,6.74-6.3c1.06-1.65,0.38-4.7,0.38-4.7l-11.15,4.41
			c0,0,5.24-2.99,7.79-4.73c2.55-1.72,4.71-4.77,4.71-4.77l-6.87,3.06c0,0,4.64-4.05,5.69-5.39c1.05-1.36,0.89-6.06,0.89-6.06
			s-13.1,6.89-19.61,7.48c-6.52,0.61-7.11-0.68-6.83-0.68c0.3,0,12.06-2.25,17.76-5.91c5.68-3.67,7.79-8.31,7.79-8.31
			s-7.42,5.09-8.69,5.09c-1.27,0,6.15-4.41,6.81-5.01c0.68-0.59,9.66-3.98-8.68-2.92c-18.35,1.06-26.74-0.44-26.74-0.44
			s-11.92-1.27-12.59-1.27c-0.66,0,21.43,1.42,30.11,0.38c8.69-1.05,16.93-3.68,16.93-3.68s-20.96-0.97-26.88-1.28
			c-5.92-0.3,11.15-2.77,14.52-3.43c3.37-0.68,5.17-2.55,8.61-5.92c3.45-3.37,3.74-5.56,4.79-6.98c1.05-1.42,3.97-3.37,3.97-3.37
			V129.11z"/>
		<path class="st28" d="M36.47,119.08v1.51c0,0,3.3,0.74,6.44-15.8c3.15-16.56,1.81-20.75,1.81-20.75s-1.2,16.63-3.75,24.49
			C38.43,116.38,36.47,119.08,36.47,119.08z"/>
		<path class="st28" d="M104.85,94.44c0,0-4.19,7.26,0.38,16.33c4.56,9.05,7.19,10.26,7.19,10.26s-1.41-2.25-4.49-8.02
			c-3.08-5.77-3.89-9.67-3.89-10.86C104.04,100.95,104.85,94.44,104.85,94.44z"/>
		<path class="st28" d="M102.24,81.78c0,0,0,13.25-3,19.62c-3,6.36-9.36,9.58-9.36,9.58s9.67-3.14,11.24-11.3
			C102.68,91.51,102.24,81.78,102.24,81.78z"/>
		<path class="st28" d="M45.53,78.56c0,0,1.58,18.87,4.13,24.57c2.54,5.69,4.49,8.68,12.21,9.96c7.71,1.27,18.13,0.82,18.13,0.82
			s-7.8-0.15-15.88-2.4c-8.09-2.25-12.2-5.02-13.48-8.84C49.36,98.85,45.53,78.56,45.53,78.56z"/>
	</g>
</g>
</svg>
